                                                                        S      1
File generated by Shapr3D Version 3.0                                   S      2
                                                                        S      3
1H,,1H;,118HC:\Users\jonat\AppData\Local\Packages\Shapr3D.Shapr3D_dvv5p1G      1
vgwv6mp\TempState\f54e549f-fc53-450f-addb-260c7ec1d0b5.tmp,11Htemp_exporG      2
t,7HShapr3D,3H3.0,32,24,8,56,15,118HC:\Users\jonat\AppData\Local\PackageG      3
s\Shapr3D.Shapr3D_dvv5p1vgwv6mp\TempState\f54e549f-fc53-450f-addb-260c7eG      4
c1d0b5.tmp,1.,2,2HMM,1000,1.,13H221130.161716,1D-05,1000000.,,,9,0,13H22G      5
1130.161716;                                                            G      6
     502       1       1       0   65535       0       0       000010001D      1
     502    1000       0      20       1                   wheel       0D      2
     110      21       1       0       0       0       0       000010000D      3
     110    1000       0       2       0                               0D      4
     124      23       1       0       0       0       0       001010000D      5
     124    1000       0       2       0                               0D      6
     100      25       1       0       0       0       5       000010000D      7
     100    1000       0       2       0                               0D      8
     110      27       1       0       0       0       0       000010000D      9
     110    1000       0       2       0                               0D     10
     124      29       1       0       0       0       0       001010000D     11
     124    1000       0       2       0                               0D     12
     100      31       1       0       0       0      11       000010000D     13
     100    1000       0       2       0                               0D     14
     124      33       1       0       0       0       0       001010000D     15
     124    1000       0       2       0                               0D     16
     100      35       1       0       0       0      15       000010000D     17
     100    1000       0       1       0                               0D     18
     124      36       1       0       0       0       0       001010000D     19
     124    1000       0       2       0                               0D     20
     100      38       1       0       0       0      19       000010000D     21
     100    1000       0       1       0                               0D     22
     124      39       1       0       0       0       0       001010000D     23
     124    1000       0       2       0                               0D     24
     100      41       1       0       0       0      23       000010000D     25
     100    1000       0       2       0                               0D     26
     110      43       1       0       0       0       0       000010000D     27
     110    1000       0       2       0                               0D     28
     110      45       1       0       0       0       0       000010000D     29
     110    1000       0       2       0                               0D     30
     124      47       1       0       0       0       0       001010000D     31
     124    1000       0       2       0                               0D     32
     100      49       1       0       0       0      31       000010000D     33
     100    1000       0       1       0                               0D     34
     124      50       1       0       0       0       0       001010000D     35
     124    1000       0       2       0                               0D     36
     100      52       1       0       0       0      35       000010000D     37
     100    1000       0       1       0                               0D     38
     124      53       1       0       0       0       0       001010000D     39
     124    1000       0       2       0                               0D     40
     100      55       1       0       0       0      39       000010000D     41
     100    1000       0       2       0                               0D     42
     124      57       1       0       0       0       0       001010000D     43
     124    1000       0       2       0                               0D     44
     100      59       1       0       0       0      43       000010000D     45
     100    1000       0       2       0                               0D     46
     124      61       1       0       0       0       0       001010000D     47
     124    1000       0       2       0                               0D     48
     100      63       1       0       0       0      47       000010000D     49
     100    1000       0       1       0                               0D     50
     110      64       1       0       0       0       0       000010000D     51
     110    1000       0       2       0                               0D     52
     110      66       1       0       0       0       0       000010000D     53
     110    1000       0       2       0                               0D     54
     124      68       1       0       0       0       0       001010000D     55
     124    1000       0       2       0                               0D     56
     100      70       1       0       0       0      55       000010000D     57
     100    1000       0       2       0                               0D     58
     110      72       1       0       0       0       0       000010000D     59
     110    1000       0       2       0                               0D     60
     110      74       1       0       0       0       0       000010000D     61
     110    1000       0       2       0                               0D     62
     124      76       1       0       0       0       0       001010000D     63
     124    1000       0       2       0                               0D     64
     100      78       1       0       0       0      63       000010000D     65
     100    1000       0       2       0                               0D     66
     124      80       1       0       0       0       0       001010000D     67
     124    1000       0       2       0                               0D     68
     100      82       1       0       0       0      67       000010000D     69
     100    1000       0       1       0                               0D     70
     124      83       1       0       0       0       0       001010000D     71
     124    1000       0       2       0                               0D     72
     100      85       1       0       0       0      71       000010000D     73
     100    1000       0       2       0                               0D     74
     124      87       1       0       0       0       0       001010000D     75
     124    1000       0       2       0                               0D     76
     100      89       1       0       0       0      75       000010000D     77
     100    1000       0       1       0                               0D     78
     110      90       1       0       0       0       0       000010000D     79
     110    1000       0       2       0                               0D     80
     110      92       1       0       0       0       0       000010000D     81
     110    1000       0       2       0                               0D     82
     124      94       1       0       0       0       0       001010000D     83
     124    1000       0       2       0                               0D     84
     100      96       1       0       0       0      83       000010000D     85
     100    1000       0       2       0                               0D     86
     124      98       1       0       0       0       0       001010000D     87
     124    1000       0       2       0                               0D     88
     100     100       1       0       0       0      87       000010000D     89
     100    1000       0       2       0                               0D     90
     124     102       1       0       0       0       0       001010000D     91
     124    1000       0       2       0                               0D     92
     100     104       1       0       0       0      91       000010000D     93
     100    1000       0       1       0                               0D     94
     124     105       1       0       0       0       0       001010000D     95
     124    1000       0       2       0                               0D     96
     100     107       1       0       0       0      95       000010000D     97
     100    1000       0       1       0                               0D     98
     110     108       1       0       0       0       0       000010000D     99
     110    1000       0       2       0                               0D    100
     110     110       1       0       0       0       0       000010000D    101
     110    1000       0       2       0                               0D    102
     124     112       1       0       0       0       0       001010000D    103
     124    1000       0       2       0                               0D    104
     100     114       1       0       0       0     103       000010000D    105
     100    1000       0       1       0                               0D    106
     504     115       1       0   65535       0       0       000010001D    107
     504    1000       0       7       1                   wheel       0D    108
     314     122       1       0       0       0       0       000020000D    109
     314    1000       0       2       0                               0D    110
     116     124       1       0       0       0       0       000010200D    111
     116    1000       0       2       0                               0D    112
     123     126       1       0       0       0       0       000010200D    113
     123    1000       0       1       0                               0D    114
     123     127       1       0       0       0       0       000010200D    115
     123    1000       0       1       0                               0D    116
     192     128       1       0       0       0       0       000010000D    117
     192    1000    -109       1       1                               0D    118
     508     129       1       0       0       0       0       000010001D    119
     508    1000       0       1       1                               0D    120
     510     130       1       1       0       0       0       000010001D    121
     510    1000    -109       1       1                               0D    122
     116     131       1       0       0       0       0       000010200D    123
     116    1000       0       2       0                               0D    124
     123     133       1       0       0       0       0       000010200D    125
     123    1000       0       1       0                               0D    126
     123     134       1       0       0       0       0       000010200D    127
     123    1000       0       1       0                               0D    128
     190     135       1       0       0       0       0       000010000D    129
     190    1000    -109       1       1                               0D    130
     508     136       1       0       0       0       0       000010001D    131
     508    1000       0       1       1                               0D    132
     508     137       1       0       0       0       0       000010001D    133
     508    1000       0       1       1                               0D    134
     510     138       1       1       0       0       0       000010001D    135
     510    1000    -109       1       1                               0D    136
     116     139       1       0       0       0       0       000010200D    137
     116    1000       0       2       0                               0D    138
     123     141       1       0       0       0       0       000010200D    139
     123    1000       0       1       0                               0D    140
     123     142       1       0       0       0       0       000010200D    141
     123    1000       0       1       0                               0D    142
     194     143       1       0       0       0       0       000010000D    143
     194    1000    -109       1       1                               0D    144
     508     144       1       0       0       0       0       000010001D    145
     508    1000       0       1       1                               0D    146
     510     145       1       1       0       0       0       000010001D    147
     510    1000    -109       1       1                               0D    148
     116     146       1       0       0       0       0       000010200D    149
     116    1000       0       2       0                               0D    150
     123     148       1       0       0       0       0       000010200D    151
     123    1000       0       1       0                               0D    152
     123     149       1       0       0       0       0       000010200D    153
     123    1000       0       1       0                               0D    154
     190     150       1       0       0       0       0       000010000D    155
     190    1000    -109       1       1                               0D    156
     508     151       1       0       0       0       0       000010001D    157
     508    1000       0       1       1                               0D    158
     508     152       1       0       0       0       0       000010001D    159
     508    1000       0       1       1                               0D    160
     510     153       1       1       0       0       0       000010001D    161
     510    1000    -109       1       1                               0D    162
     116     154       1       0       0       0       0       000010200D    163
     116    1000       0       2       0                               0D    164
     123     156       1       0       0       0       0       000010200D    165
     123    1000       0       1       0                               0D    166
     123     157       1       0       0       0       0       000010200D    167
     123    1000       0       1       0                               0D    168
     194     158       1       0       0       0       0       000010000D    169
     194    1000    -109       1       1                               0D    170
     508     159       1       0       0       0       0       000010001D    171
     508    1000       0       1       1                               0D    172
     510     160       1       1       0       0       0       000010001D    173
     510    1000    -109       1       1                               0D    174
     116     161       1       0       0       0       0       000010200D    175
     116    1000       0       2       0                               0D    176
     123     163       1       0       0       0       0       000010200D    177
     123    1000       0       1       0                               0D    178
     123     164       1       0       0       0       0       000010200D    179
     123    1000       0       1       0                               0D    180
     192     165       1       0       0       0       0       000010000D    181
     192    1000    -109       1       1                               0D    182
     508     166       1       0       0       0       0       000010001D    183
     508    1000       0       1       1                               0D    184
     510     167       1       1       0       0       0       000010001D    185
     510    1000    -109       1       1                               0D    186
     116     168       1       0       0       0       0       000010200D    187
     116    1000       0       2       0                               0D    188
     123     170       1       0       0       0       0       000010200D    189
     123    1000       0       1       0                               0D    190
     123     171       1       0       0       0       0       000010200D    191
     123    1000       0       1       0                               0D    192
     190     172       1       0       0       0       0       000010000D    193
     190    1000    -109       1       1                               0D    194
     508     173       1       0       0       0       0       000010001D    195
     508    1000       0       1       1                               0D    196
     508     174       1       0       0       0       0       000010001D    197
     508    1000       0       1       1                               0D    198
     510     175       1       1       0       0       0       000010001D    199
     510    1000    -109       1       1                               0D    200
     116     176       1       0       0       0       0       000010200D    201
     116    1000       0       2       0                               0D    202
     123     178       1       0       0       0       0       000010200D    203
     123    1000       0       1       0                               0D    204
     123     179       1       0       0       0       0       000010200D    205
     123    1000       0       1       0                               0D    206
     192     180       1       0       0       0       0       000010000D    207
     192    1000    -109       1       1                               0D    208
     508     181       1       0       0       0       0       000010001D    209
     508    1000       0       1       1                               0D    210
     510     182       1       1       0       0       0       000010001D    211
     510    1000    -109       1       1                               0D    212
     116     183       1       0       0       0       0       000010200D    213
     116    1000       0       2       0                               0D    214
     123     185       1       0       0       0       0       000010200D    215
     123    1000       0       1       0                               0D    216
     123     186       1       0       0       0       0       000010200D    217
     123    1000       0       1       0                               0D    218
     190     187       1       0       0       0       0       000010000D    219
     190    1000    -109       1       1                               0D    220
     508     188       1       0       0       0       0       000010001D    221
     508    1000       0       1       1                               0D    222
     508     189       1       0       0       0       0       000010001D    223
     508    1000       0       1       1                               0D    224
     510     190       1       1       0       0       0       000010001D    225
     510    1000    -109       1       1                               0D    226
     116     191       1       0       0       0       0       000010200D    227
     116    1000       0       2       0                               0D    228
     123     193       1       0       0       0       0       000010200D    229
     123    1000       0       1       0                               0D    230
     123     194       1       0       0       0       0       000010200D    231
     123    1000       0       1       0                               0D    232
     194     195       1       0       0       0       0       000010000D    233
     194    1000    -109       1       1                               0D    234
     508     196       1       0       0       0       0       000010001D    235
     508    1000       0       1       1                               0D    236
     510     197       1       1       0       0       0       000010001D    237
     510    1000    -109       1       1                               0D    238
     116     198       1       0       0       0       0       000010200D    239
     116    1000       0       2       0                               0D    240
     123     200       1       0       0       0       0       000010200D    241
     123    1000       0       1       0                               0D    242
     123     201       1       0       0       0       0       000010200D    243
     123    1000       0       1       0                               0D    244
     192     202       1       0       0       0       0       000010000D    245
     192    1000    -109       1       1                               0D    246
     508     203       1       0       0       0       0       000010001D    247
     508    1000       0       1       1                               0D    248
     510     204       1       1       0       0       0       000010001D    249
     510    1000    -109       1       1                               0D    250
     116     205       1       0       0       0       0       000010200D    251
     116    1000       0       2       0                               0D    252
     123     207       1       0       0       0       0       000010200D    253
     123    1000       0       1       0                               0D    254
     123     208       1       0       0       0       0       000010200D    255
     123    1000       0       1       0                               0D    256
     194     209       1       0       0       0       0       000010000D    257
     194    1000    -109       1       1                               0D    258
     508     210       1       0       0       0       0       000010001D    259
     508    1000       0       1       1                               0D    260
     510     211       1       1       0       0       0       000010001D    261
     510    1000    -109       1       1                               0D    262
     116     212       1       0       0       0       0       000010200D    263
     116    1000       0       2       0                               0D    264
     123     214       1       0       0       0       0       000010200D    265
     123    1000       0       1       0                               0D    266
     123     215       1       0       0       0       0       000010200D    267
     123    1000       0       1       0                               0D    268
     194     216       1       0       0       0       0       000010000D    269
     194    1000    -109       1       1                               0D    270
     508     217       1       0       0       0       0       000010001D    271
     508    1000       0       1       1                               0D    272
     510     218       1       1       0       0       0       000010001D    273
     510    1000    -109       1       1                               0D    274
     116     219       1       0       0       0       0       000010200D    275
     116    1000       0       2       0                               0D    276
     123     221       1       0       0       0       0       000010200D    277
     123    1000       0       1       0                               0D    278
     123     222       1       0       0       0       0       000010200D    279
     123    1000       0       1       0                               0D    280
     192     223       1       0       0       0       0       000010000D    281
     192    1000    -109       1       1                               0D    282
     508     224       1       0       0       0       0       000010001D    283
     508    1000       0       1       1                               0D    284
     510     225       1       1       0       0       0       000010001D    285
     510    1000    -109       1       1                               0D    286
     116     226       1       0       0       0       0       000010200D    287
     116    1000       0       2       0                               0D    288
     123     228       1       0       0       0       0       000010200D    289
     123    1000       0       1       0                               0D    290
     123     229       1       0       0       0       0       000010200D    291
     123    1000       0       1       0                               0D    292
     192     230       1       0       0       0       0       000010000D    293
     192    1000    -109       1       1                               0D    294
     508     231       1       0       0       0       0       000010001D    295
     508    1000       0       1       1                               0D    296
     510     232       1       1       0       0       0       000010001D    297
     510    1000    -109       1       1                               0D    298
     116     233       1       0       0       0       0       000010200D    299
     116    1000       0       2       0                               0D    300
     123     235       1       0       0       0       0       000010200D    301
     123    1000       0       1       0                               0D    302
     123     236       1       0       0       0       0       000010200D    303
     123    1000       0       1       0                               0D    304
     194     237       1       0       0       0       0       000010000D    305
     194    1000    -109       1       1                               0D    306
     508     238       1       0       0       0       0       000010001D    307
     508    1000       0       1       1                               0D    308
     510     239       1       1       0       0       0       000010001D    309
     510    1000    -109       1       1                               0D    310
     514     240       1       0       0       0       0       000010000D    311
     514    1000       0       2       1                               0D    312
     186     242       1       0   65535       0       0       000000001D    313
     186    1000       0       1       0                   wheel       0D    314
     308     243       1       0   65535       0       0       000020201D    315
     308    1000       0       1       0                    Assy       0D    316
     124     244       1       0       0       0       0       000010200D    317
     124    1000       0       1       0                               0D    318
     408     245       1       0   65535       0     317       000000001D    319
     408    1000       0       1       0                    Assy       0D    320
502,20,47.6141416569232,-1.31029398908742D-14,-9.52536201726753,       1P      1
49.3141416569232,-1.31029398908742D-14,-9.52536201726753,              1P      2
47.6141416569232,-1.54358920432499D-14,9.52463798273247,               1P      3
49.3141416569232,-1.54358920432499D-14,9.52463798273247,               1P      4
49.3141416569232,-1.4269415967062D-14,-18.2303620172675,               1P      5
49.3141416569232,-1.87344781967533D-14,18.2296379827325,               1P      6
38.3141416569232,-1.10853342892789D-14,25.9996379827325,               1P      7
38.3141416569232,-1.74534976448452D-14,-26.0003620172675,              1P      8
27.3141416569232,-1.51572848964439D-14,-14.5003620172675,              1P      9
27.3141416569232,-1.24936781082984D-14,14.4996379827325,               1P     10
27.3141416569232,-1.20368848522164D-14,18.2296379827325,               1P     11
27.3141416569232,-1.4269415967062D-14,-18.2303620172675,               1P     12
38.8141416569232,-1.51572848964439D-14,-14.5003620172675,              1P     13
38.8141416569232,-1.24936781082984D-14,14.4996379827325,               1P     14
38.8141416569232,-1.30447691679147D-14,9.99963798273247,               1P     15
38.8141416569232,-1.48817393666357D-14,-10.0003620172675,              1P     16
47.2141416569232,-1.30447691679147D-14,-10.0003620172675,              1P     17
47.2141416569232,-1.54940627662094D-14,9.99963798273247,               1P     18
47.2141416569232,-1.54848779152158D-14,9.92463798273247,               1P     19
47.2141416569232,-1.30539540189083D-14,-9.92536201726753,0,0;          1P     20
110,47.6141416569232,-1.31029398908742D-14,-9.52536201726753,          3P     21
49.3141416569232,-1.31029398908742D-14,-9.52536201726753,0,0;          3P     22
124,0.,0.,-1.,47.6141416569232,0.,1.,0.,-1.4269415967062D-14,1.,       5P     23
-0.,0.,-0.000362017267532042,0,0;                                      5P     24
100,0.,0.,0.,-9.525,1.16647607618785D-15,9.525,                        7P     25
-2.33295215237571D-15,0,0;                                             7P     26
110,47.6141416569232,-1.4269415967062D-14,9.52463798273247,            9P     27
49.3141416569232,-1.4269415967062D-14,9.52463798273247,0,0;            9P     28
124,0.,0.,1.,49.3141416569232,0.,1.,-0.,-1.4269415967062D-14,         11P     29
-1.,0.,0.,-0.000362017267532042,0,0;                                  11P     30
100,0.,0.,0.,-9.525,-2.33295215237571D-15,9.525,                      13P     31
1.16647607618785D-15,0,0;                                             13P     32
124,0.,0.,1.,49.3141416569232,0.,1.,-0.,-1.4269415967062D-14,         15P     33
-1.,0.,0.,-0.000362017267532042,0,0;                                  15P     34
100,0.,0.,0.,9.525,1.16647607618785D-15,-9.525,0.,0,0;                17P     35
124,0.,0.,1.,49.3141416569232,0.,1.,-0.,-1.4269415967062D-14,         19P     36
-1.,0.,0.,-0.000362017267532042,0,0;                                  19P     37
100,0.,0.,0.,18.23,2.23253111484563D-15,-18.23,0.,0,0;                21P     38
124,0.,0.,1.,49.3141416569232,0.,1.,-0.,-1.4269415967062D-14,         23P     39
-1.,0.,0.,-0.000362017267532042,0,0;                                  23P     40
100,0.,0.,0.,-18.23,-4.46506222969125D-15,18.23,                      25P     41
2.23253111484563D-15,0,0;                                             25P     42
110,38.3141416569232,-1.74534976448452D-14,25.9996379827325,          27P     43
49.3141416569232,-1.65019470819077D-14,18.2296379827325,0,0;          27P     44
110,38.3141416569232,-1.4269415967062D-14,-26.0003620172675,          29P     45
49.3141416569232,-1.4269415967062D-14,-18.2303620172675,0,0;          29P     46
124,0.,-0.,1.,38.3141416569232,0.,1.,0.,-1.4269415967062D-14,         31P     47
-1.,0.,0.,-0.000362017267538981,0,0;                                  31P     48
100,0.,0.,0.,26.,0.,-26.,3.18408167778312D-15,0,0;                    33P     49
124,0.,-0.,1.,27.3141416569232,0.,1.,0.,-1.4269415967062D-14,         35P     50
-1.,0.,0.,-0.000362017267532042,0,0;                                  35P     51
100,0.,0.,0.,14.5,0.,-14.5,1.77573785876366D-15,0,0;                  37P     52
124,0.,-0.,1.,27.3141416569232,0.,1.,0.,-1.4269415967062D-14,         39P     53
-1.,0.,0.,-0.000362017267532042,0,0;                                  39P     54
100,0.,0.,0.,-14.5,1.77573785876366D-15,14.5,                         41P     55
-3.55147571752732D-15,0,0;                                            41P     56
124,0.,-0.,1.,27.3141416569232,0.,1.,0.,-1.4269415967062D-14,         43P     57
-1.,0.,0.,-0.000362017267532042,0,0;                                  43P     58
100,0.,0.,0.,-18.23,2.23253111484562D-15,18.23,                       45P     59
-4.46506222969125D-15,0,0;                                            45P     60
124,0.,-0.,1.,27.3141416569232,0.,1.,0.,-1.4269415967062D-14,         47P     61
-1.,0.,0.,-0.000362017267532042,0,0;                                  47P     62
100,0.,0.,0.,18.23,0.,-18.23,2.23253111484562D-15,0,0;                49P     63
110,38.3141416569232,-1.10853342892789D-14,25.9996379827325,          51P     64
27.3141416569232,-1.20368848522164D-14,18.2296379827325,0,0;          51P     65
110,38.3141416569232,-1.4269415967062D-14,-26.0003620172675,          53P     66
27.3141416569232,-1.4269415967062D-14,-18.2303620172675,0,0;          53P     67
124,0.,-0.,1.,38.3141416569232,0.,1.,0.,-1.4269415967062D-14,         55P     68
-1.,0.,0.,-0.000362017267538981,0,0;                                  55P     69
100,0.,0.,0.,-26.,3.18408167778312D-15,26.,                           57P     70
-6.36816335556624D-15,0,0;                                            57P     71
110,27.3141416569232,-1.24936781082984D-14,-14.5003620172675,         59P     72
38.8141416569232,-1.24936781082984D-14,-14.5003620172675,0,0;         59P     73
110,27.3141416569232,-1.4269415967062D-14,14.4996379827325,           61P     74
38.8141416569232,-1.4269415967062D-14,14.4996379827325,0,0;           61P     75
124,0.,-0.,1.,38.8141416569232,0.,1.,0.,-1.4269415967062D-14,         63P     76
-1.,0.,0.,-0.000362017267535512,0,0;                                  63P     77
100,0.,0.,0.,-14.5,1.77573785876366D-15,14.5,                         65P     78
-3.55147571752732D-15,0,0;                                            65P     79
124,0.,0.,-1.,38.8141416569232,0.,1.,0.,-1.4269415967062D-14,1.,      67P     80
0.,0.,-0.000362017267528573,0,0;                                      67P     81
100,0.,0.,0.,10.,1.22464679914735D-15,-10.,0.,0,0;                    69P     82
124,0.,0.,-1.,38.8141416569232,0.,1.,0.,-1.4269415967062D-14,1.,      71P     83
0.,0.,-0.000362017267528573,0,0;                                      71P     84
100,0.,0.,0.,-10.,-2.44929359829471D-15,10.,                          73P     85
1.22464679914735D-15,0,0;                                             73P     86
124,0.,-0.,1.,38.8141416569232,0.,1.,0.,-1.4269415967062D-14,         75P     87
-1.,0.,0.,-0.000362017267535512,0,0;                                  75P     88
100,0.,0.,0.,14.5,0.,-14.5,1.77573785876366D-15,0,0;                  77P     89
110,38.8141416569232,-1.30447691679147D-14,-10.0003620172675,         79P     90
47.2141416569232,-1.30447691679147D-14,-10.0003620172675,0,0;         79P     91
110,38.8141416569232,-1.4269415967062D-14,9.99963798273247,           81P     92
47.2141416569232,-1.4269415967062D-14,9.99963798273247,0,0;           81P     93
124,0.,0.,-1.,47.2141416569232,0.,1.,0.,-1.4269415967062D-14,1.,      83P     94
-0.,0.,-0.000362017267528573,0,0;                                     83P     95
100,0.,0.,0.,-10.,1.22464679914735D-15,10.,                           85P     96
-2.44929359829471D-15,0,0;                                            85P     97
124,0.,0.,1.,47.2141416569232,0.,1.,-0.,-1.4269415967062D-14,         87P     98
-1.,0.,0.,-0.000362017267532042,0,0;                                  87P     99
100,0.,0.,0.,-9.925,-2.4309238963075D-15,9.925,                       89P    100
1.21546194815375D-15,0,0;                                             89P    101
124,0.,0.,1.,47.2141416569232,0.,1.,-0.,-1.4269415967062D-14,         91P    102
-1.,0.,0.,-0.000362017267532042,0,0;                                  91P    103
100,0.,0.,0.,9.925,1.21546194815375D-15,-9.925,0.,0,0;                93P    104
124,0.,0.,-1.,47.2141416569232,0.,1.,0.,-1.4269415967062D-14,1.,      95P    105
-0.,0.,-0.000362017267528573,0,0;                                     95P    106
100,0.,0.,0.,10.,0.,-10.,1.22464679914735D-15,0,0;                    97P    107
110,47.2141416569232,-1.30539540189083D-14,-9.92536201726753,         99P    108
47.6141416569232,-1.31029398908742D-14,-9.52536201726753,0,0;         99P    109
110,47.2141416569232,-1.4269415967062D-14,9.92463798273246,          101P    110
47.6141416569232,-1.4269415967062D-14,9.52463798273246,0,0;          101P    111
124,0.,0.,-1.,47.6141416569232,0.,1.,0.,-1.4269415967062D-14,1.,     103P    112
-0.,0.,-0.000362017267532042,0,0;                                    103P    113
100,0.,0.,0.,9.525,0.,-9.525,1.16647607618785D-15,0,0;               105P    114
504,32,3,1,1,1,2,7,1,1,1,3,9,1,3,1,4,13,1,4,1,2,17,1,2,1,4,21,1,     107P    115
5,1,6,25,1,6,1,5,27,1,7,1,6,29,1,8,1,5,33,1,8,1,7,37,1,9,1,10,       107P    116
41,1,10,1,9,45,1,11,1,12,49,1,12,1,11,51,1,7,1,11,53,1,8,1,12,       107P    117
57,1,7,1,8,59,1,9,1,13,61,1,10,1,14,65,1,14,1,13,69,1,15,1,16,       107P    118
73,1,16,1,15,77,1,13,1,14,79,1,16,1,17,81,1,15,1,18,85,1,17,1,       107P    119
18,89,1,19,1,20,93,1,20,1,19,97,1,18,1,17,99,1,20,1,1,101,1,19,      107P    120
1,3,105,1,3,1,1,0,0;                                                 107P    121
314,67.8431396484375,67.8431396484375,67.8431396484375,5HCOLOR,      109P    122
0,0;                                                                 109P    123
116,50.3141416569232,-1.4269415967062D-14,-0.000362017267532042,     111P    124
0,0,0;                                                               111P    125
123,-1.,0.,0.,0,0,0;                                                 113P    126
123,0.,0.,1.,0,0,0;                                                  115P    127
192,111,113,9.525,115,0,0;                                           117P    128
508,4,0,107,4,0,0,0,107,3,0,0,0,107,2,0,0,0,107,1,1,0,0,0;           119P    129
510,117,1,1,119,0,0;                                                 121P    130
116,49.3141416569232,-1.4269415967062D-14,-0.000362017267532042,     123P    131
0,0,0;                                                               123P    132
123,-1.,0.,0.,0,0,0;                                                 125P    133
123,0.,1.,0.,0,0,0;                                                  127P    134
190,123,125,127,0,0;                                                 129P    135
508,2,0,107,4,1,0,0,107,5,1,0,0,0;                                   131P    136
508,2,0,107,7,0,0,0,107,6,0,0,0,0;                                   133P    137
510,129,2,1,133,131,0,0;                                             135P    138
116,49.3141416569232,-1.4269415967062D-14,-0.000362017267532042,     137P    139
0,0,0;                                                               137P    140
123,-1.,-0.,-0.,0,0,0;                                               139P    141
123,0.,0.,-1.,0,0,0;                                                 141P    142
194,137,139,18.23,35.2359936960649,141,0,0;                          143P    143
508,4,0,107,8,1,0,0,107,6,0,0,0,107,9,0,0,0,107,10,1,0,0,0;          145P    144
510,143,1,1,145,0,0;                                                 147P    145
116,27.3141416569232,-1.4269415967062D-14,-0.000362017267532042,     149P    146
0,0,0;                                                               149P    147
123,1.,0.,0.,0,0,0;                                                  151P    148
123,-0.,1.,0.,0,0,0;                                                 153P    149
190,149,151,153,0,0;                                                 155P    150
508,2,0,107,12,0,0,0,107,11,0,0,0,0;                                 157P    151
508,2,0,107,14,1,0,0,107,13,1,0,0,0;                                 159P    152
510,155,2,1,159,157,0,0;                                             161P    153
116,27.3141416569232,-1.4269415967062D-14,-0.000362017267532042,     163P    154
0,0,0;                                                               163P    155
123,1.,-0.,0.,0,0,0;                                                 165P    156
123,0.,0.,-1.,0,0,0;                                                 167P    157
194,163,165,18.23,35.2359936960649,167,0,0;                          169P    158
508,4,0,107,15,1,0,0,107,13,1,0,0,107,16,0,0,0,107,17,0,0,0,0;       171P    159
510,169,1,1,171,0,0;                                                 173P    160
116,45.3141416569232,-1.4269415967062D-14,-0.000362017267535512,     175P    161
0,0,0;                                                               175P    162
123,-1.,0.,0.,0,0,0;                                                 177P    163
123,0.,0.,1.,0,0,0;                                                  179P    164
192,175,177,14.5,179,0,0;                                            181P    165
508,4,0,107,20,0,0,0,107,19,0,0,0,107,12,1,0,0,107,18,1,0,0,0;       183P    166
510,181,1,1,183,0,0;                                                 185P    167
116,38.8141416569232,-1.4269415967062D-14,-0.000362017267532042,     187P    168
0,0,0;                                                               187P    169
123,1.,0.,0.,0,0,0;                                                  189P    170
123,-0.,1.,0.,0,0,0;                                                 191P    171
190,187,189,191,0,0;                                                 193P    172
508,2,0,107,22,1,0,0,107,21,1,0,0,0;                                 195P    173
508,2,0,107,23,1,0,0,107,20,1,0,0,0;                                 197P    174
510,193,2,1,197,195,0,0;                                             199P    175
116,48.2141416569232,-1.4269415967062D-14,-0.000362017267528573,     201P    176
0,0,0;                                                               201P    177
123,-1.,0.,0.,0,0,0;                                                 203P    178
123,0.,0.,1.,0,0,0;                                                  205P    179
192,201,203,10.,205,0,0;                                             207P    180
508,4,0,107,26,1,0,0,107,25,0,0,0,107,22,0,0,0,107,24,1,0,0,0;       209P    181
510,207,1,1,209,0,0;                                                 211P    182
116,47.2141416569232,-1.4269415967062D-14,-0.000362017267528573,     213P    183
0,0,0;                                                               213P    184
123,-1.,0.,0.,0,0,0;                                                 215P    185
123,0.,-1.,0.,0,0,0;                                                 217P    186
190,213,215,217,0,0;                                                 219P    187
508,2,0,107,27,1,0,0,107,28,1,0,0,0;                                 221P    188
508,2,0,107,29,1,0,0,107,26,1,0,0,0;                                 223P    189
510,219,2,1,223,221,0,0;                                             225P    190
116,47.2141416569232,-1.4269415967062D-14,-0.000362017267532042,     227P    191
0,0,0;                                                               227P    192
123,-1.,0.,0.,0,0,0;                                                 229P    193
123,0.,0.,1.,0,0,0;                                                  231P    194
194,227,229,9.925,45.0000000000001,231,0,0;                          233P    195
508,4,0,107,2,1,0,0,107,31,0,0,0,107,27,1,0,0,107,30,1,0,0,0;        235P    196
510,233,1,1,235,0,0;                                                 237P    197
116,50.3141416569232,-1.4269415967062D-14,-0.000362017267532042,     239P    198
0,0,0;                                                               239P    199
123,-1.,0.,0.,0,0,0;                                                 241P    200
123,0.,0.,1.,0,0,0;                                                  243P    201
192,239,241,9.525,243,0,0;                                           245P    202
508,4,0,107,32,0,0,0,107,3,1,0,0,107,5,0,0,0,107,1,0,0,0,0;          247P    203
510,245,1,1,247,0,0;                                                 249P    204
116,49.3141416569232,-1.4269415967062D-14,-0.000362017267532042,     251P    205
0,0,0;                                                               251P    206
123,-1.,-0.,-0.,0,0,0;                                               253P    207
123,0.,0.,-1.,0,0,0;                                                 255P    208
194,251,253,18.23,35.2359936960649,255,0,0;                          257P    209
508,4,0,107,8,0,0,0,107,17,1,0,0,107,9,1,0,0,107,7,0,0,0,0;          259P    210
510,257,1,1,259,0,0;                                                 261P    211
116,27.3141416569232,-1.4269415967062D-14,-0.000362017267532042,     263P    212
0,0,0;                                                               263P    213
123,1.,-0.,0.,0,0,0;                                                 265P    214
123,0.,0.,-1.,0,0,0;                                                 267P    215
194,263,265,18.23,35.2359936960649,267,0,0;                          269P    216
508,4,0,107,15,0,0,0,107,10,0,0,0,107,16,1,0,0,107,14,1,0,0,0;       271P    217
510,269,1,1,271,0,0;                                                 273P    218
116,45.3141416569232,-1.4269415967062D-14,-0.000362017267535512,     275P    219
0,0,0;                                                               275P    220
123,-1.,0.,0.,0,0,0;                                                 277P    221
123,0.,0.,1.,0,0,0;                                                  279P    222
192,275,277,14.5,279,0,0;                                            281P    223
508,4,0,107,11,1,0,0,107,19,1,0,0,107,23,0,0,0,107,18,0,0,0,0;       283P    224
510,281,1,1,283,0,0;                                                 285P    225
116,48.2141416569232,-1.4269415967062D-14,-0.000362017267528573,     287P    226
0,0,0;                                                               287P    227
123,-1.,0.,0.,0,0,0;                                                 289P    228
123,0.,0.,1.,0,0,0;                                                  291P    229
192,287,289,10.,291,0,0;                                             293P    230
508,4,0,107,21,0,0,0,107,25,1,0,0,107,29,1,0,0,107,24,0,0,0,0;       295P    231
510,293,1,1,295,0,0;                                                 297P    232
116,47.2141416569232,-1.4269415967062D-14,-0.000362017267532042,     299P    233
0,0,0;                                                               299P    234
123,-1.,0.,0.,0,0,0;                                                 301P    235
123,0.,0.,1.,0,0,0;                                                  303P    236
194,299,301,9.925,45.0000000000001,303,0,0;                          305P    237
508,4,0,107,28,1,0,0,107,31,1,0,0,107,32,1,0,0,107,30,0,0,0,0;       307P    238
510,305,1,1,307,0,0;                                                 309P    239
514,16,121,0,135,0,147,1,161,0,173,1,185,0,199,0,211,0,225,1,        311P    240
237,0,249,0,261,1,273,1,285,0,297,0,309,0,0,0;                       311P    241
186,311,1,0;0,0;                                                     313P    242
308,1,4HAssy,0,0,0;                                                  315P    243
124,1.,-0.,0.,0.,0.,1.,0.,0.,-0.,0.,1.,0.,0,0;                       317P    244
408,315,0.,0.,0.,1.,0,0;                                             319P    245
S      3G      6D    320P    245                                        T      1
