  0
SECTION
  2
HEADER
  9
$ACADVER
  1
AC1024
  9
$ACADMAINTVER
 70
     6
  9
$DWGCODEPAGE
  3
ANSI_1252
  9
$INSBASE
 10
0.0
 20
0.0
 30
0.0
  9
$EXTMIN
 10
1.000000000000000E+20
 20
1.000000000000000E+20
 30
1.000000000000000E+20
  9
$EXTMAX
 10
-1.000000000000000E+20
 20
-1.000000000000000E+20
 30
-1.000000000000000E+20
  9
$LIMMIN
 10
0.0
 20
0.0
  9
$LIMMAX
 10
420.0
 20
297.0
  9
$ORTHOMODE
 70
     0
  9
$REGENMODE
 70
     1
  9
$FILLMODE
 70
     1
  9
$QTEXTMODE
 70
     0
  9
$MIRRTEXT
 70
     1
  9
$LTSCALE
 40
1.0
  9
$ATTMODE
 70
     1
  9
$TEXTSIZE
 40
2.5
  9
$TRACEWID
 40
1.0
  9
$TEXTSTYLE
  7
Standard
  9
$CLAYER
  8
0
  9
$CELTYPE
  6
ByLayer
  9
$CECOLOR
 62
   256
  9
$CELTSCALE
 40
1.0
  9
$DISPSILH
 70
     0
  9
$DIMSCALE
 40
1.0
  9
$DIMASZ
 40
2.5
  9
$DIMEXO
 40
0.625
  9
$DIMDLI
 40
3.75
  9
$DIMRND
 40
0.0
  9
$DIMDLE
 40
0.0
  9
$DIMEXE
 40
1.25
  9
$DIMTP
 40
0.0
  9
$DIMTM
 40
0.0
  9
$DIMTXT
 40
2.5
  9
$DIMCEN
 40
2.5
  9
$DIMTSZ
 40
0.0
  9
$DIMTOL
 70
     0
  9
$DIMLIM
 70
     0
  9
$DIMTIH
 70
     0
  9
$DIMTOH
 70
     0
  9
$DIMSE1
 70
     0
  9
$DIMSE2
 70
     0
  9
$DIMTAD
 70
     1
  9
$DIMZIN
 70
     8
  9
$DIMBLK
  1

  9
$DIMASO
 70
     1
  9
$DIMSHO
 70
     1
  9
$DIMPOST
  1

  9
$DIMAPOST
  1

  9
$DIMALT
 70
     0
  9
$DIMALTD
 70
     3
  9
$DIMALTF
 40
0.0393700787401575
  9
$DIMLFAC
 40
1.0
  9
$DIMTOFL
 70
     1
  9
$DIMTVP
 40
0.0
  9
$DIMTIX
 70
     0
  9
$DIMSOXD
 70
     0
  9
$DIMSAH
 70
     0
  9
$DIMBLK1
  1

  9
$DIMBLK2
  1

  9
$DIMSTYLE
  2
ISO-25
  9
$DIMCLRD
 70
     0
  9
$DIMCLRE
 70
     0
  9
$DIMCLRT
 70
     0
  9
$DIMTFAC
 40
1.0
  9
$DIMGAP
 40
0.7
  9
$DIMJUST
 70
     0
  9
$DIMSD1
 70
     0
  9
$DIMSD2
 70
     0
  9
$DIMTOLJ
 70
     0
  9
$DIMTZIN
 70
     8
  9
$DIMALTZ
 70
     0
  9
$DIMALTTZ
 70
     0
  9
$DIMUPT
 70
     0
  9
$DIMDEC
 70
     2
  9
$DIMTDEC
 70
     2
  9
$DIMALTU
 70
     2
  9
$DIMALTTD
 70
     3
  9
$DIMTXSTY
  7
Standard
  9
$DIMAUNIT
 70
     0
  9
$DIMADEC
 70
     0
  9
$DIMALTRND
 40
0.0
  9
$DIMAZIN
 70
     0
  9
$DIMDSEP
 70
    44
  9
$DIMATFIT
 70
     3
  9
$DIMFRAC
 70
     2
  9
$DIMLDRBLK
  1

  9
$DIMLUNIT
 70
     2
  9
$DIMLWD
 70
    15
  9
$DIMLWE
 70
    15
  9
$DIMTMOVE
 70
     0
  9
$DIMFXL
 40
1.0
  9
$DIMFXLON
 70
     0
  9
$DIMJOGANG
 40
0.7853981633974483
  9
$DIMTFILL
 70
     0
  9
$DIMTFILLCLR
 70
     0
  9
$DIMARCSYM
 70
     0
  9
$DIMLTYPE
  6

  9
$DIMLTEX1
  6

  9
$DIMLTEX2
  6

  9
$DIMTXTDIRECTION
 70
     0
  9
$LUNITS
 70
     2
  9
$LUPREC
 70
     4
  9
$SKETCHINC
 40
1.0
  9
$FILLETRAD
 40
0.0
  9
$AUNITS
 70
     0
  9
$AUPREC
 70
     0
  9
$MENU
  1
.
  9
$ELEVATION
 40
0.0
  9
$PELEVATION
 40
0.0
  9
$THICKNESS
 40
0.0
  9
$LIMCHECK
 70
     0
  9
$CHAMFERA
 40
0.0
  9
$CHAMFERB
 40
0.0
  9
$CHAMFERC
 40
0.0
  9
$CHAMFERD
 40
0.0
  9
$SKPOLY
 70
     0
  9
$TDCREATE
 40
2459913.650577049
  9
$TDUCREATE
 40
2459913.900577049
  9
$TDUPDATE
 40
2459913.650577141
  9
$TDUUPDATE
 40
2459913.900577141
  9
$TDINDWG
 40
0.0000000116
  9
$TDUSRTIMER
 40
0.0000000116
  9
$USRTIMER
 70
     1
  9
$ANGBASE
 50
0.0
  9
$ANGDIR
 70
     0
  9
$PDMODE
 70
     0
  9
$PDSIZE
 40
0.0
  9
$PLINEWID
 40
0.0
  9
$SPLFRAME
 70
     0
  9
$SPLINETYPE
 70
     6
  9
$SPLINESEGS
 70
     8
  9
$HANDSEED
  5
163
  9
$SURFTAB1
 70
     6
  9
$SURFTAB2
 70
     6
  9
$SURFTYPE
 70
     6
  9
$SURFU
 70
     6
  9
$SURFV
 70
     6
  9
$UCSBASE
  2

  9
$UCSNAME
  2

  9
$UCSORG
 10
0.0
 20
0.0
 30
0.0
  9
$UCSXDIR
 10
1.0
 20
0.0
 30
0.0
  9
$UCSYDIR
 10
0.0
 20
1.0
 30
0.0
  9
$UCSORTHOREF
  2

  9
$UCSORTHOVIEW
 70
     0
  9
$UCSORGTOP
 10
0.0
 20
0.0
 30
0.0
  9
$UCSORGBOTTOM
 10
0.0
 20
0.0
 30
0.0
  9
$UCSORGLEFT
 10
0.0
 20
0.0
 30
0.0
  9
$UCSORGRIGHT
 10
0.0
 20
0.0
 30
0.0
  9
$UCSORGFRONT
 10
0.0
 20
0.0
 30
0.0
  9
$UCSORGBACK
 10
0.0
 20
0.0
 30
0.0
  9
$PUCSBASE
  2

  9
$PUCSNAME
  2

  9
$PUCSORG
 10
0.0
 20
0.0
 30
0.0
  9
$PUCSXDIR
 10
1.0
 20
0.0
 30
0.0
  9
$PUCSYDIR
 10
0.0
 20
1.0
 30
0.0
  9
$PUCSORTHOREF
  2

  9
$PUCSORTHOVIEW
 70
     0
  9
$PUCSORGTOP
 10
0.0
 20
0.0
 30
0.0
  9
$PUCSORGBOTTOM
 10
0.0
 20
0.0
 30
0.0
  9
$PUCSORGLEFT
 10
0.0
 20
0.0
 30
0.0
  9
$PUCSORGRIGHT
 10
0.0
 20
0.0
 30
0.0
  9
$PUCSORGFRONT
 10
0.0
 20
0.0
 30
0.0
  9
$PUCSORGBACK
 10
0.0
 20
0.0
 30
0.0
  9
$USERI1
 70
     0
  9
$USERI2
 70
     0
  9
$USERI3
 70
     0
  9
$USERI4
 70
     0
  9
$USERI5
 70
     0
  9
$USERR1
 40
0.0
  9
$USERR2
 40
0.0
  9
$USERR3
 40
0.0
  9
$USERR4
 40
0.0
  9
$USERR5
 40
0.0
  9
$WORLDVIEW
 70
     1
  9
$SHADEDGE
 70
     3
  9
$SHADEDIF
 70
    70
  9
$TILEMODE
 70
     0
  9
$MAXACTVP
 70
    64
  9
$PINSBASE
 10
0.0
 20
0.0
 30
0.0
  9
$PLIMCHECK
 70
     0
  9
$PEXTMIN
 10
0.0
 20
0.0
 30
0.0
  9
$PEXTMAX
 10
0.0
 20
0.0
 30
0.0
  9
$PLIMMIN
 10
-20.0
 20
-7.5
  9
$PLIMMAX
 10
277.0
 20
202.5
  9
$UNITMODE
 70
     0
  9
$VISRETAIN
 70
     1
  9
$PLINEGEN
 70
     0
  9
$PSLTSCALE
 70
     1
  9
$TREEDEPTH
 70
  3020
  9
$CMLSTYLE
  2
Standard
  9
$CMLJUST
 70
     0
  9
$CMLSCALE
 40
20.0
  9
$PROXYGRAPHICS
 70
     1
  9
$MEASUREMENT
 70
     1
  9
$CELWEIGHT
370
    -1
  9
$ENDCAPS
280
     0
  9
$JOINSTYLE
280
     0
  9
$LWDISPLAY
290
     0
  9
$INSUNITS
 70
     4
  9
$HYPERLINKBASE
  1

  9
$STYLESHEET
  1

  9
$XEDIT
290
     1
  9
$CEPSNTYPE
380
     0
  9
$PSTYLEMODE
290
     1
  9
$FINGERPRINTGUID
  2
{1d097fa9-355b-e571-09a4-97b449f3f765}
  9
$VERSIONGUID
  2
{FAEB1C32-E019-11D5-929B-00C0DF256EC4}
  9
$EXTNAMES
290
     1
  9
$PSVPSCALE
 40
0.0
  9
$OLESTARTUP
290
     0
  9
$SORTENTS
280
   127
  9
$INDEXCTL
280
     0
  9
$HIDETEXT
280
     1
  9
$XCLIPFRAME
280
     2
  9
$HALOGAP
280
     0
  9
$OBSCOLOR
 70
   257
  9
$OBSLTYPE
280
     0
  9
$INTERSECTIONDISPLAY
280
     0
  9
$INTERSECTIONCOLOR
 70
   257
  9
$DIMASSOC
280
     2
  9
$PROJECTNAME
  1

  9
$CAMERADISPLAY
290
     0
  9
$LENSLENGTH
 40
50.0
  9
$CAMERAHEIGHT
 40
0.0
  9
$STEPSPERSEC
 40
2.0
  9
$STEPSIZE
 40
6.0
  9
$3DDWFPREC
 40
2.0
  9
$PSOLWIDTH
 40
5.0
  9
$PSOLHEIGHT
 40
80.0
  9
$LOFTANG1
 40
1.570796326794897
  9
$LOFTANG2
 40
1.570796326794897
  9
$LOFTMAG1
 40
0.0
  9
$LOFTMAG2
 40
0.0
  9
$LOFTPARAM
 70
     7
  9
$LOFTNORMALS
280
     1
  9
$LATITUDE
 40
37.795
  9
$LONGITUDE
 40
-122.394
  9
$NORTHDIRECTION
 40
0.0
  9
$TIMEZONE
 70
 -8000
  9
$LIGHTGLYPHDISPLAY
280
     1
  9
$TILEMODELIGHTSYNCH
280
     1
  9
$CMATERIAL
347
44
  9
$SOLIDHIST
280
     0
  9
$SHOWHIST
280
     1
  9
$DWFFRAME
280
     2
  9
$DGNFRAME
280
     2
  9
$REALWORLDSCALE
290
     1
  9
$INTERFERECOLOR
 62
   256
  9
$CSHADOW
280
     0
  9
$SHADOWPLANELOCATION
 40
0.0
  0
ENDSEC
  0
SECTION
  2
CLASSES
  0
CLASS
  1
ACDBDICTIONARYWDFLT
  2
AcDbDictionaryWithDefault
  3
ObjectDBX Classes
 90
        0
 91
        3
280
     0
281
     0
  0
CLASS
  1
VISUALSTYLE
  2
AcDbVisualStyle
  3
ObjectDBX Classes
 90
     4095
 91
        3
280
     0
281
     0
  0
CLASS
  1
MATERIAL
  2
AcDbMaterial
  3
ObjectDBX Classes
 90
     1153
 91
        3
280
     0
281
     0
  0
CLASS
  1
SCALE
  2
AcDbScale
  3
ObjectDBX Classes
 90
     1153
 91
        3
280
     0
281
     0
  0
CLASS
  1
TABLESTYLE
  2
AcDbTableStyle
  3
ObjectDBX Classes
 90
     4095
 91
        3
280
     0
281
     0
  0
CLASS
  1
MLEADERSTYLE
  2
AcDbMLeaderStyle
  3
ACDB_MLEADERSTYLE_CLASS
 90
     4095
 91
        3
280
     0
281
     0
  0
CLASS
  1
SUN
  2
AcDbSun
  3
SCENEOE
 90
     1153
 91
        3
280
     0
281
     0
  0
CLASS
  1
DICTIONARYVAR
  2
AcDbDictionaryVar
  3
ObjectDBX Classes
 90
        0
 91
        3
280
     0
281
     0
  0
CLASS
  1
CELLSTYLEMAP
  2
AcDbCellStyleMap
  3
ObjectDBX Classes
 90
     1152
 91
        3
280
     0
281
     0
  0
ENDSEC
  0
SECTION
  2
TABLES
  0
TABLE
  2
VPORT
  5
8
330
0
100
AcDbSymbolTable
 70
     1
  0
VPORT
  5
29
330
8
100
AcDbSymbolTableRecord
100
AcDbViewportTableRecord
  2
*Active
 70
     0
 10
0.0
 20
0.0
 11
1.0
 21
1.0
 12
148.5
 22
105.0
 13
0.0
 23
0.0
 14
10.0
 24
10.0
 15
10.0
 25
10.0
 16
0.0
 26
0.0
 36
1.0
 17
0.0
 27
0.0
 37
0.0
 40
210.0
 41
1.414285714285714
 42
50.0
 43
0.0
 44
0.0
 50
0.0
 51
0.0
 71
     0
 72
   100
 73
     1
 74
     3
 75
     0
 76
     0
 77
     0
 78
     0
281
     0
 65
     1
110
0.0
120
0.0
130
0.0
111
1.0
121
0.0
131
0.0
112
0.0
122
1.0
132
0.0
 79
     0
146
0.0
348
2F
 60
     3
 61
     5
292
     1
282
     1
141
0.0
142
0.0
 63
   250
361
5D
  0
ENDTAB
  0
TABLE
  2
LTYPE
  5
5
330
0
100
AcDbSymbolTable
 70
     5
  0
LTYPE
  5
14
330
5
100
AcDbSymbolTableRecord
100
AcDbLinetypeTableRecord
  2
ByBlock
 70
     0
  3

 72
    65
 73
     0
 40
0.0
  0
LTYPE
  5
15
330
5
100
AcDbSymbolTableRecord
100
AcDbLinetypeTableRecord
  2
ByLayer
 70
     0
  3

 72
    65
 73
     0
 40
0.0
  0
LTYPE
  5
16
330
5
100
AcDbSymbolTableRecord
100
AcDbLinetypeTableRecord
  2
Continuous
 70
     0
  3
Solid line
 72
    65
 73
     0
 40
0.0
  0
LTYPE
  5
61
330
5
100
AcDbSymbolTableRecord
100
AcDbLinetypeTableRecord
  2
CenterLine
 70
     0
  3

 72
    65
 73
     4
 40
8.0
 49
5.0
 74
     0
 49
-1.0
 74
     0
 49
1.0
 74
     0
 49
-1.0
 74
     0
  0
LTYPE
  5
62
330
5
100
AcDbSymbolTableRecord
100
AcDbLinetypeTableRecord
  2
DraftedLine
 70
     0
  3

 72
    65
 73
     2
 40
3.0
 49
2.0
 74
     0
 49
-1.0
 74
     0
  0
LTYPE
  5
63
330
5
100
AcDbSymbolTableRecord
100
AcDbLinetypeTableRecord
  2
SectionLineISO
 70
     0
  3

 72
    65
 73
     5
 40
13.75833333333342
 49
4.23333333333336
 74
     0
 49
-2.11666666666668
 74
     0
 49
1.05833333333334
 74
     0
 49
-2.11666666666668
 74
     0
 49
4.23333333333336
 74
     0
  0
LTYPE
  5
64
330
5
100
AcDbSymbolTableRecord
100
AcDbLinetypeTableRecord
  2
SectionLineANSI
 70
     0
  3

 72
    65
 73
     7
 40
11.99444444444452
 49
4.23333333333336
 74
     0
 49
-1.05833333333334
 74
     0
 49
0.17638888888889
 74
     0
 49
-1.05833333333334
 74
     0
 49
0.17638888888889
 74
     0
 49
-1.05833333333334
 74
     0
 49
4.23333333333336
 74
     0
  0
ENDTAB
  0
TABLE
  2
LAYER
  5
2
330
0
100
AcDbSymbolTable
 70
     5
  0
LAYER
  5
10
330
2
100
AcDbSymbolTableRecord
100
AcDbLayerTableRecord
  2
0
 70
     0
 62
     7
  6
Continuous
370
    -3
390
F
347
46
  0
LAYER
  5
5E
330
2
100
AcDbSymbolTableRecord
100
AcDbLayerTableRecord
  2
Geometries
 70
     0
 62
     7
  6
Continuous
370
    -3
390
F
347
46
  0
LAYER
  5
5F
330
2
100
AcDbSymbolTableRecord
100
AcDbLayerTableRecord
  2
Annotations
 70
     0
 62
     7
  6
Continuous
370
    -3
390
F
347
46
  0
LAYER
  5
60
330
2
100
AcDbSymbolTableRecord
100
AcDbLayerTableRecord
  2
Border
 70
     0
 62
     7
  6
Continuous
370
    -3
390
F
347
46
  0
LAYER
  5
B2
330
2
100
AcDbSymbolTableRecord
100
AcDbLayerTableRecord
  2
Defpoints
 70
     0
 62
     7
  6
Continuous
290
     0
370
    -3
390
F
347
46
  0
ENDTAB
  0
TABLE
  2
STYLE
  5
3
330
0
100
AcDbSymbolTable
 70
     7
  0
STYLE
  5
11
330
3
100
AcDbSymbolTableRecord
100
AcDbTextStyleTableRecord
  2
Standard
 70
     0
 40
0.0
 41
1.0
 50
0.0
 71
     0
 42
2.5
  3
txt
  4

  0
STYLE
  5
65
330
3
100
AcDbSymbolTableRecord
100
AcDbTextStyleTableRecord
  2
Shapr0
 70
     0
 40
2.3925
 41
1.0
 50
0.0
 71
     0
 42
2.5
  3

  4

  0
STYLE
  5
66
330
3
100
AcDbSymbolTableRecord
100
AcDbTextStyleTableRecord
  2
Shapr1
 70
     0
 40
2.3925
 41
1.0
 50
0.0
 71
     0
 42
2.5
  3

  4

  0
STYLE
  5
67
330
3
100
AcDbSymbolTableRecord
100
AcDbTextStyleTableRecord
  2
Shapr2
 70
     0
 40
2.3925
 41
1.0
 50
0.0
 71
     0
 42
2.5
  3

  4

  0
STYLE
  5
68
330
3
100
AcDbSymbolTableRecord
100
AcDbTextStyleTableRecord
  2
Shapr3
 70
     0
 40
0.4785
 41
1.0
 50
0.0
 71
     0
 42
2.5
  3

  4

  0
STYLE
  5
69
330
3
100
AcDbSymbolTableRecord
100
AcDbTextStyleTableRecord
  2
Shapr4
 70
     0
 40
2.3925
 41
1.0
 50
0.0
 71
     0
 42
2.5
  3

  4

  0
STYLE
  5
6A
330
3
100
AcDbSymbolTableRecord
100
AcDbTextStyleTableRecord
  2
Shapr5
 70
     0
 40
0.4785
 41
1.0
 50
0.0
 71
     0
 42
2.5
  3

  4

  0
ENDTAB
  0
TABLE
  2
VIEW
  5
6
330
0
100
AcDbSymbolTable
 70
     0
  0
ENDTAB
  0
TABLE
  2
UCS
  5
7
330
0
100
AcDbSymbolTable
 70
     0
  0
ENDTAB
  0
TABLE
  2
APPID
  5
9
330
0
100
AcDbSymbolTable
 70
     1
  0
APPID
  5
12
330
9
100
AcDbSymbolTableRecord
100
AcDbRegAppTableRecord
  2
ACAD
 70
     0
  0
ENDTAB
  0
TABLE
  2
DIMSTYLE
  5
A
330
0
100
AcDbSymbolTable
 70
     1
100
AcDbDimStyleTable
  0
DIMSTYLE
105
27
102
{ACAD_REACTORS
330
B1
330
BE
330
CA
102
}
330
A
100
AcDbSymbolTableRecord
100
AcDbDimStyleTableRecord
  2
ISO-25
 70
     0
 41
2.5
 42
0.625
 43
3.75
 44
1.25
 73
     0
 74
     0
 77
     1
 78
     8
140
2.5
141
2.5
143
0.0393700787401575
147
0.625
171
     3
172
     1
178
     0
271
     2
272
     2
274
     3
278
    44
283
     0
284
     8
340
11
  0
ENDTAB
  0
TABLE
  2
BLOCK_RECORD
  5
1
330
0
100
AcDbSymbolTable
 70
     6
  0
BLOCK_RECORD
  5
1F
330
1
100
AcDbSymbolTableRecord
100
AcDbBlockTableRecord
  2
*Model_Space
340
22
 70
     4
280
     1
281
     0
  0
BLOCK_RECORD
  5
6B
330
1
100
AcDbSymbolTableRecord
100
AcDbBlockTableRecord
  2
*Paper_Space
340
6C
 70
     0
280
     1
281
     0
  0
BLOCK_RECORD
  5
23
330
1
100
AcDbSymbolTableRecord
100
AcDbBlockTableRecord
  2
*Paper_Space0
340
26
 70
     0
280
     1
281
     0
  0
BLOCK_RECORD
  5
1B
330
1
100
AcDbSymbolTableRecord
100
AcDbBlockTableRecord
  2
*Paper_Space1
340
1E
 70
     4
280
     1
281
     0
  0
BLOCK_RECORD
  5
B3
330
1
100
AcDbSymbolTableRecord
100
AcDbBlockTableRecord
  2
*D2
340
0
 70
     0
280
     1
281
     0
  0
BLOCK_RECORD
  5
BF
330
1
100
AcDbSymbolTableRecord
100
AcDbBlockTableRecord
  2
*D3
340
0
 70
     0
280
     1
281
     0
  0
BLOCK_RECORD
  5
CB
330
1
100
AcDbSymbolTableRecord
100
AcDbBlockTableRecord
  2
*D4
340
0
 70
     0
280
     1
281
     0
  0
BLOCK_RECORD
  5
FF
330
1
100
AcDbSymbolTableRecord
100
AcDbBlockTableRecord
  2
*U5
340
0
102
{BLKREFS
331
119
102
}
 70
     0
280
     1
281
     0
  0
ENDTAB
  0
ENDSEC
  0
SECTION
  2
BLOCKS
  0
BLOCK
  5
20
330
1F
100
AcDbEntity
  8
0
100
AcDbBlockBegin
  2
*Model_Space
 70
     0
 10
0.0
 20
0.0
 30
0.0
  3
*Model_Space
  1

  0
ENDBLK
  5
21
330
1F
100
AcDbEntity
  8
0
100
AcDbBlockEnd
  0
BLOCK
  5
6D
330
6B
100
AcDbEntity
 67
     1
  8
0
100
AcDbBlockBegin
  2
*Paper_Space
 70
     0
 10
0.0
 20
0.0
 30
0.0
  3
*Paper_Space
  1

  0
ENDBLK
  5
6E
330
6B
100
AcDbEntity
 67
     1
  8
0
100
AcDbBlockEnd
  0
BLOCK
  5
24
330
23
100
AcDbEntity
  8
0
100
AcDbBlockBegin
  2
*Paper_Space0
 70
     0
 10
0.0
 20
0.0
 30
0.0
  3
*Paper_Space0
  1

  0
ENDBLK
  5
25
330
23
100
AcDbEntity
  8
0
100
AcDbBlockEnd
  0
BLOCK
  5
1C
330
1B
100
AcDbEntity
  8
0
100
AcDbBlockBegin
  2
*Paper_Space1
 70
     0
 10
0.0
 20
0.0
 30
0.0
  3
*Paper_Space1
  1

  0
ENDBLK
  5
1D
330
1B
100
AcDbEntity
  8
0
100
AcDbBlockEnd
  0
BLOCK
  5
B4
330
B3
100
AcDbEntity
  8
0
100
AcDbBlockBegin
  2
*D2
 70
     1
 10
0.0
 20
0.0
 30
0.0
  3
*D2
  1

  0
LINE
  5
B6
330
B3
100
AcDbEntity
  8
Annotations
  6
Continuous
 62
     0
370
    15
100
AcDbLine
 10
98.87148083545245
 20
161.5971812442008
 30
0.0
 11
107.5489844298921
 21
159.41173492075
 31
0.0
  0
LINE
  5
B7
330
B3
100
AcDbEntity
  8
Annotations
  6
Continuous
 62
     0
370
    15
100
AcDbLine
 10
74.62851916454755
 20
167.7028187557992
 30
0.0
 11
72.20422299745707
 21
168.313382506959
 31
0.0
  0
MTEXT
  5
B8
330
B3
100
AcDbEntity
  8
Annotations
 62
     0
370
    15
100
AcDbMText
 10
105.4551572349141
 20
161.8945338741757
 30
0.0
 40
2.3925
 41
0.0
 46
0.0
 71
     5
 72
     1
  1
\A1;%%c4
  7
Shapr2
 11
0.9697184668361957
 21
-0.2442255004639321
 31
0.0
 73
     1
 44
1.0
  0
LINE
  5
B9
330
B3
100
AcDbEntity
  8
Annotations
  6
Continuous
 62
     0
370
    15
100
AcDbLine
 10
77.05281533163804
 20
167.0922550046393
 30
0.0
 11
96.44718466836196
 21
162.2077449953607
 31
0.0
  0
SOLID
  5
BA
330
B3
100
AcDbEntity
  8
Annotations
 62
     0
100
AcDbTrace
 10
74.52675853935425
 20
167.2987693946174
 30
0.0
 11
74.73027978974086
 21
168.1068681169809
 31
0.0
 12
77.05281533163804
 22
167.0922550046393
 32
0.0
 13
77.05281533163804
 23
167.0922550046393
 33
0.0
  0
SOLID
  5
BB
330
B3
100
AcDbEntity
  8
Annotations
 62
     0
100
AcDbTrace
 10
98.97324146064575
 20
162.0012306053826
 30
0.0
 11
98.76972021025914
 21
161.1931318830191
 31
0.0
 12
96.44718466836196
 22
162.2077449953607
 32
0.0
 13
96.44718466836196
 23
162.2077449953607
 33
0.0
  0
POINT
  5
BC
330
B3
100
AcDbEntity
  8
Defpoints
 62
     0
100
AcDbPoint
 10
96.44718466836196
 20
162.2077449953607
 30
0.0
  0
POINT
  5
BD
330
B3
100
AcDbEntity
  8
Defpoints
 62
     0
100
AcDbPoint
 10
77.05281533163804
 20
167.0922550046393
 30
0.0
  0
ENDBLK
  5
B5
330
B3
100
AcDbEntity
  8
0
100
AcDbBlockEnd
  0
BLOCK
  5
C0
330
BF
100
AcDbEntity
  8
0
100
AcDbBlockBegin
  2
*D3
 70
     1
 10
0.0
 20
0.0
 30
0.0
  3
*D3
  1

  0
LINE
  5
C2
330
BF
100
AcDbEntity
  8
Annotations
  6
Continuous
 62
     0
370
    15
100
AcDbLine
 10
96.4251879141774
 20
167.1779910651258
 30
0.0
 11
109.4936812931542
 21
170.5926053123899
 31
0.0
  0
LINE
  5
C3
330
BF
100
AcDbEntity
  8
Annotations
  6
Continuous
 62
     0
370
    15
100
AcDbLine
 10
77.0748120858226
 20
162.1220089348743
 30
0.0
 11
74.65601510727825
 21
161.4900111685928
 31
0.0
  0
MTEXT
  5
C4
330
BF
100
AcDbEntity
  8
Annotations
 62
     0
370
    15
100
AcDbMText
 10
106.5182852767847
 20
171.7750862685109
 30
0.0
 40
2.3925
 41
0.0
 46
0.0
 71
     5
 72
     1
  1
\A1;%%c3
  7
Shapr2
 11
0.9675187914177401
 21
0.2527991065125738
 31
0.0
 73
     1
 44
1.0
  0
LINE
  5
C5
330
BF
100
AcDbEntity
  8
Annotations
  6
Continuous
 62
     0
370
    15
100
AcDbLine
 10
79.49360906436695
 20
162.7540067011557
 30
0.0
 11
94.00639093563305
 21
166.5459932988443
 31
0.0
  0
SOLID
  5
C6
330
BF
100
AcDbEntity
  8
Annotations
 62
     0
100
AcDbTrace
 10
77.18014504686951
 20
161.7188761051169
 30
0.0
 11
76.96947912477569
 21
162.5251417646317
 31
0.0
 12
79.49360906436695
 22
162.7540067011557
 32
0.0
 13
79.49360906436695
 23
162.7540067011557
 33
0.0
  0
SOLID
  5
C7
330
BF
100
AcDbEntity
  8
Annotations
 62
     0
100
AcDbTrace
 10
96.31985495313049
 20
167.5811238948831
 30
0.0
 11
96.53052087522431
 21
166.7748582353684
 31
0.0
 12
94.00639093563305
 22
166.5459932988443
 32
0.0
 13
94.00639093563305
 23
166.5459932988443
 33
0.0
  0
POINT
  5
C8
330
BF
100
AcDbEntity
  8
Defpoints
 62
     0
100
AcDbPoint
 10
94.00639093563305
 20
166.5459932988443
 30
0.0
  0
POINT
  5
C9
330
BF
100
AcDbEntity
  8
Defpoints
 62
     0
100
AcDbPoint
 10
79.49360906436695
 20
162.7540067011557
 30
0.0
  0
ENDBLK
  5
C1
330
BF
100
AcDbEntity
  8
0
100
AcDbBlockEnd
  0
BLOCK
  5
CC
330
CB
100
AcDbEntity
  8
0
100
AcDbBlockBegin
  2
*D4
 70
     1
 10
0.0
 20
0.0
 30
0.0
  3
*D4
  1

  0
LINE
  5
CE
330
CB
100
AcDbEntity
  8
Annotations
  6
Continuous
 62
     0
370
    15
100
AcDbLine
 10
97.125
 20
78.19999999999999
 30
0.0
 11
112.5682601928711
 21
78.19999999999999
 31
0.0
  0
LINE
  5
CF
330
CB
100
AcDbEntity
  8
Annotations
  6
Continuous
 62
     0
370
    15
100
AcDbLine
 10
97.125
 20
109.7
 30
0.0
 11
112.5682601928711
 21
109.7
 31
0.0
  0
LINE
  5
D0
330
CB
100
AcDbEntity
  8
Annotations
  6
Continuous
 62
     0
370
    15
100
AcDbLine
 10
111.3182601928711
 20
80.69999999999999
 30
0.0
 11
111.3182601928711
 21
107.2
 31
0.0
  0
SOLID
  5
D1
330
CB
100
AcDbEntity
  8
Annotations
 62
     0
100
AcDbTrace
 10
110.9015935262044
 20
80.69999999999999
 30
0.0
 11
111.7349268595378
 21
80.69999999999999
 31
0.0
 12
111.3182601928711
 22
78.19999999999999
 32
0.0
 13
111.3182601928711
 23
78.19999999999999
 33
0.0
  0
SOLID
  5
D2
330
CB
100
AcDbEntity
  8
Annotations
 62
     0
100
AcDbTrace
 10
111.7349268595378
 20
107.2
 30
0.0
 11
110.9015935262044
 21
107.2
 31
0.0
 12
111.3182601928711
 22
109.7
 32
0.0
 13
111.3182601928711
 23
109.7
 33
0.0
  0
MTEXT
  5
D3
330
CB
100
AcDbEntity
  8
Annotations
 62
     0
370
    15
100
AcDbMText
 10
109.194153050014
 20
93.48377437591552
 30
0.0
 40
2.3925
 41
0.0
 46
0.0
 71
     5
 72
     1
  1
\A1;6,3
  7
Shapr4
 11
0.0
 21
1.0
 31
0.0
 73
     1
 44
1.0
  0
POINT
  5
D4
330
CB
100
AcDbEntity
  8
Defpoints
 62
     0
100
AcDbPoint
 10
96.5
 20
78.19999999999999
 30
0.0
  0
POINT
  5
D5
330
CB
100
AcDbEntity
  8
Defpoints
 62
     0
100
AcDbPoint
 10
96.5
 20
109.7
 30
0.0
  0
POINT
  5
D6
330
CB
100
AcDbEntity
  8
Defpoints
 62
     0
100
AcDbPoint
 10
111.3182601928711
 20
109.7
 30
0.0
  0
ENDBLK
  5
CD
330
CB
100
AcDbEntity
  8
0
100
AcDbBlockEnd
  0
BLOCK
  5
117
330
FF
100
AcDbEntity
  8
0
100
AcDbBlockBegin
  2
*U5
 70
     1
 10
0.0
 20
0.0
 30
0.0
  3
*U5
  1

  0
LINE
  5
100
330
FF
100
AcDbEntity
  8
Border
  6
Continuous
370
    15
100
AcDbLine
 10
287.0
 20
10.0
 30
0.0
 11
174.1
 21
10.0
 31
0.0
  0
LINE
  5
101
330
FF
100
AcDbEntity
  8
Border
  6
Continuous
370
    15
100
AcDbLine
 10
287.0
 20
26.2
 30
0.0
 11
174.1
 21
26.2
 31
0.0
  0
LINE
  5
102
330
FF
100
AcDbEntity
  8
Border
  6
Continuous
370
    15
100
AcDbLine
 10
287.0
 20
42.4
 30
0.0
 11
174.1
 21
42.4
 31
0.0
  0
LINE
  5
103
330
FF
100
AcDbEntity
  8
Border
  6
Continuous
370
    15
100
AcDbLine
 10
287.0
 20
58.59999999999999
 30
0.0
 11
174.1
 21
58.59999999999999
 31
0.0
  0
LINE
  5
104
330
FF
100
AcDbEntity
  8
Border
  6
Continuous
370
    15
100
AcDbLine
 10
287.0
 20
10.0
 30
0.0
 11
287.0
 21
58.59999999999999
 31
0.0
  0
LINE
  5
105
330
FF
100
AcDbEntity
  8
Border
  6
Continuous
370
    15
100
AcDbLine
 10
255.25
 20
10.0
 30
0.0
 11
255.25
 21
42.4
 31
0.0
  0
LINE
  5
106
330
FF
100
AcDbEntity
  8
Border
  6
Continuous
370
    15
100
AcDbLine
 10
223.5
 20
10.0
 30
0.0
 11
223.5
 21
42.4
 31
0.0
  0
LINE
  5
107
330
FF
100
AcDbEntity
  8
Border
  6
Continuous
370
    15
100
AcDbLine
 10
174.1
 20
10.0
 30
0.0
 11
174.1
 21
58.59999999999999
 31
0.0
  0
CIRCLE
  5
108
330
FF
100
AcDbEntity
  8
Border
  6
Continuous
370
    40
100
AcDbCircle
 10
192.450088
 20
15.82498
 30
0.0
 40
1.68751
  0
CIRCLE
  5
109
330
FF
100
AcDbEntity
  8
Border
  6
Continuous
370
    40
100
AcDbCircle
 10
192.450088
 20
15.82498
 30
0.0
 40
3.37502
  0
LINE
  5
10A
330
FF
100
AcDbEntity
  8
Border
  6
Continuous
370
    15
100
AcDbLine
 10
192.112586
 20
15.82498
 30
0.0
 11
192.78759
 21
15.82498
 31
0.0
  0
LINE
  5
10B
330
FF
100
AcDbEntity
  8
Border
  6
Continuous
370
    15
100
AcDbLine
 10
191.437582
 20
15.82498
 30
0.0
 11
188.400064
 21
15.82498
 31
0.0
  0
LINE
  5
10C
330
FF
100
AcDbEntity
  8
Border
  6
Continuous
370
    15
100
AcDbLine
 10
193.462594
 20
15.82498
 30
0.0
 11
196.500112
 21
15.82498
 31
0.0
  0
LINE
  5
10D
330
FF
100
AcDbEntity
  8
Border
  6
Continuous
370
    15
100
AcDbLine
 10
192.450088
 20
15.487478
 30
0.0
 11
192.450088
 21
16.162482
 31
0.0
  0
LINE
  5
10E
330
FF
100
AcDbEntity
  8
Border
  6
Continuous
370
    15
100
AcDbLine
 10
192.450088
 20
14.812474
 30
0.0
 11
192.450088
 21
11.774956
 31
0.0
  0
LINE
  5
10F
330
FF
100
AcDbEntity
  8
Border
  6
Continuous
370
    15
100
AcDbLine
 10
192.450088
 20
16.837486
 30
0.0
 11
192.450088
 21
19.875004
 31
0.0
  0
LINE
  5
110
330
FF
100
AcDbEntity
  8
Border
  6
Continuous
370
    40
100
AcDbLine
 10
178.275004
 20
17.51249
 30
0.0
 11
178.275004
 21
14.13747
 31
0.0
  0
LINE
  5
111
330
FF
100
AcDbEntity
  8
Border
  6
Continuous
370
    40
100
AcDbLine
 10
178.275004
 20
17.51249
 30
0.0
 11
186.375052
 21
19.2
 31
0.0
  0
LINE
  5
112
330
FF
100
AcDbEntity
  8
Border
  6
Continuous
370
    40
100
AcDbLine
 10
178.275004
 20
14.13747
 30
0.0
 11
186.375052
 21
12.44996
 31
0.0
  0
LINE
  5
113
330
FF
100
AcDbEntity
  8
Border
  6
Continuous
370
    40
100
AcDbLine
 10
186.375052
 20
19.2
 30
0.0
 11
186.375052
 21
12.44996
 31
0.0
  0
LINE
  5
114
330
FF
100
AcDbEntity
  8
Border
  6
Continuous
370
    15
100
AcDbLine
 10
177.6
 20
15.82498
 30
0.0
 11
181.312522
 21
15.82498
 31
0.0
  0
LINE
  5
115
330
FF
100
AcDbEntity
  8
Border
  6
Continuous
370
    15
100
AcDbLine
 10
181.987526
 20
15.82498
 30
0.0
 11
182.66253
 21
15.82498
 31
0.0
  0
LINE
  5
116
330
FF
100
AcDbEntity
  8
Border
  6
Continuous
370
    15
100
AcDbLine
 10
187.050056
 20
15.82498
 30
0.0
 11
183.337534
 21
15.82498
 31
0.0
  0
ENDBLK
  5
118
330
FF
100
AcDbEntity
  8
0
100
AcDbBlockEnd
  0
ENDSEC
  0
SECTION
  2
ENTITIES
  0
CIRCLE
  5
73
330
1F
100
AcDbEntity
  8
Geometries
  6
Continuous
370
    40
100
AcDbCircle
 10
86.75
 20
164.65
 30
0.0
 40
9.75
  0
CIRCLE
  5
74
330
1F
100
AcDbEntity
  8
Geometries
  6
Continuous
370
    40
100
AcDbCircle
 10
86.75
 20
164.65
 30
0.0
 40
10.0
  0
CIRCLE
  5
75
330
1F
100
AcDbEntity
  8
Geometries
  6
Continuous
370
    40
100
AcDbCircle
 10
86.75
 20
164.65
 30
0.0
 40
7.749999999999999
  0
CIRCLE
  5
76
330
1F
100
AcDbEntity
  8
Geometries
  6
Continuous
370
    40
100
AcDbCircle
 10
86.75
 20
164.65
 30
0.0
 40
7.5
  0
LINE
  5
77
330
1F
100
AcDbEntity
  8
Geometries
  6
Continuous
370
    40
100
AcDbLine
 10
204.75
 20
174.65
 30
0.0
 11
204.75
 21
154.65
 31
0.0
  0
LINE
  5
78
330
1F
100
AcDbEntity
  8
Geometries
  6
Continuous
370
    40
100
AcDbLine
 10
235.75
 20
154.65
 30
0.0
 11
235.75
 21
174.65
 31
0.0
  0
LINE
  5
79
330
1F
100
AcDbEntity
  8
Geometries
  6
Continuous
370
    40
100
AcDbLine
 10
236.0
 20
174.4
 30
0.0
 11
236.0
 21
154.9
 31
0.0
  0
LINE
  5
7A
330
1F
100
AcDbEntity
  8
Geometries
  6
Continuous
370
    40
100
AcDbLine
 10
204.5
 20
154.9
 30
0.0
 11
204.5
 21
174.4
 31
0.0
  0
LINE
  5
7B
330
1F
100
AcDbEntity
  8
Geometries
  6
Continuous
370
    40
100
AcDbLine
 10
204.75
 20
174.65
 30
0.0
 11
235.75
 21
174.65
 31
0.0
  0
LINE
  5
7C
330
1F
100
AcDbEntity
  8
Geometries
  6
Continuous
370
    40
100
AcDbLine
 10
204.75
 20
154.65
 30
0.0
 11
235.75
 21
154.65
 31
0.0
  0
ARC
  5
7D
330
1F
100
AcDbEntity
  8
Geometries
  6
Continuous
370
    40
100
AcDbCircle
 10
235.75
 20
174.4
 30
0.0
 40
0.2499999999999985
100
AcDbArc
 50
0.0
 51
90.0
  0
ARC
  5
7E
330
1F
100
AcDbEntity
  8
Geometries
  6
Continuous
370
    40
100
AcDbCircle
 10
235.75
 20
154.9
 30
0.0
 40
0.2499999999999996
100
AcDbArc
 50
270.0
 51
0.0
  0
ARC
  5
7F
330
1F
100
AcDbEntity
  8
Geometries
  6
Continuous
370
    40
100
AcDbCircle
 10
204.75
 20
174.4
 30
0.0
 40
0.2499999999999996
100
AcDbArc
 50
90.0
 51
180.0
  0
ARC
  5
80
330
1F
100
AcDbEntity
  8
Geometries
  6
Continuous
370
    40
100
AcDbCircle
 10
204.75
 20
154.9
 30
0.0
 40
0.2500000000000007
100
AcDbArc
 50
180.0
 51
270.0
  0
LINE
  5
81
330
1F
100
AcDbEntity
  8
Geometries
  6
DraftedLine
370
    15
100
AcDbLine
 10
204.75
 20
172.15
 30
0.0
 11
235.75
 21
172.15
 31
0.0
  0
LINE
  5
82
330
1F
100
AcDbEntity
  8
Geometries
  6
DraftedLine
370
    15
100
AcDbLine
 10
204.75
 20
157.15
 30
0.0
 11
235.75
 21
157.15
 31
0.0
  0
ARC
  5
83
330
1F
100
AcDbEntity
  8
Geometries
  6
DraftedLine
370
    15
100
AcDbCircle
 10
204.75
 20
172.4
 30
0.0
 40
0.2499999999999985
100
AcDbArc
 50
180.0
 51
270.0
  0
ARC
  5
84
330
1F
100
AcDbEntity
  8
Geometries
  6
DraftedLine
370
    15
100
AcDbCircle
 10
204.75
 20
156.9
 30
0.0
 40
0.2499999999999996
100
AcDbArc
 50
90.0
 51
180.0
  0
ARC
  5
85
330
1F
100
AcDbEntity
  8
Geometries
  6
DraftedLine
370
    15
100
AcDbCircle
 10
235.75
 20
172.4
 30
0.0
 40
0.2499999999999996
100
AcDbArc
 50
270.0
 51
0.0
  0
ARC
  5
86
330
1F
100
AcDbEntity
  8
Geometries
  6
DraftedLine
370
    15
100
AcDbCircle
 10
235.75
 20
156.9
 30
0.0
 40
0.2499999999999985
100
AcDbArc
 50
0.0
 51
90.0
  0
LINE
  5
87
330
1F
100
AcDbEntity
  8
Geometries
  6
Continuous
370
    40
100
AcDbLine
 10
76.75
 20
78.44999999999999
 30
0.0
 11
96.75
 21
78.44999999999999
 31
0.0
  0
LINE
  5
88
330
1F
100
AcDbEntity
  8
Geometries
  6
Continuous
370
    40
100
AcDbLine
 10
96.75
 20
109.45
 30
0.0
 11
76.75
 21
109.45
 31
0.0
  0
LINE
  5
89
330
1F
100
AcDbEntity
  8
Geometries
  6
Continuous
370
    40
100
AcDbLine
 10
96.5
 20
78.19999999999999
 30
0.0
 11
77.0
 21
78.19999999999999
 31
0.0
  0
LINE
  5
8A
330
1F
100
AcDbEntity
  8
Geometries
  6
Continuous
370
    40
100
AcDbLine
 10
77.0
 20
109.7
 30
0.0
 11
96.5
 21
109.7
 31
0.0
  0
LINE
  5
8B
330
1F
100
AcDbEntity
  8
Geometries
  6
Continuous
370
    40
100
AcDbLine
 10
76.75
 20
109.45
 30
0.0
 11
76.75
 21
78.44999999999999
 31
0.0
  0
LINE
  5
8C
330
1F
100
AcDbEntity
  8
Geometries
  6
Continuous
370
    40
100
AcDbLine
 10
96.75
 20
109.45
 30
0.0
 11
96.75
 21
78.44999999999999
 31
0.0
  0
ARC
  5
8D
330
1F
100
AcDbEntity
  8
Geometries
  6
Continuous
370
    40
100
AcDbCircle
 10
96.5
 20
78.44999999999999
 30
0.0
 40
0.2499999999999985
100
AcDbArc
 50
270.0
 51
0.0
  0
ARC
  5
8E
330
1F
100
AcDbEntity
  8
Geometries
  6
Continuous
370
    40
100
AcDbCircle
 10
77.0
 20
78.44999999999999
 30
0.0
 40
0.2499999999999996
100
AcDbArc
 50
180.0
 51
270.0
  0
ARC
  5
8F
330
1F
100
AcDbEntity
  8
Geometries
  6
Continuous
370
    40
100
AcDbCircle
 10
96.5
 20
109.45
 30
0.0
 40
0.2499999999999996
100
AcDbArc
 50
0.0
 51
90.0
  0
ARC
  5
90
330
1F
100
AcDbEntity
  8
Geometries
  6
Continuous
370
    40
100
AcDbCircle
 10
77.0
 20
109.45
 30
0.0
 40
0.2500000000000007
100
AcDbArc
 50
90.0
 51
180.0
  0
LINE
  5
91
330
1F
100
AcDbEntity
  8
Geometries
  6
DraftedLine
370
    15
100
AcDbLine
 10
79.25
 20
109.45
 30
0.0
 11
79.25
 21
78.44999999999999
 31
0.0
  0
LINE
  5
92
330
1F
100
AcDbEntity
  8
Geometries
  6
DraftedLine
370
    15
100
AcDbLine
 10
94.25
 20
109.45
 30
0.0
 11
94.25
 21
78.44999999999999
 31
0.0
  0
ARC
  5
93
330
1F
100
AcDbEntity
  8
Geometries
  6
DraftedLine
370
    15
100
AcDbCircle
 10
94.5
 20
109.45
 30
0.0
 40
0.2500000000000007
100
AcDbArc
 50
90.0
 51
180.0
  0
ARC
  5
94
330
1F
100
AcDbEntity
  8
Geometries
  6
DraftedLine
370
    15
100
AcDbCircle
 10
79.0
 20
109.45
 30
0.0
 40
0.2499999999999996
100
AcDbArc
 50
0.0
 51
90.0
  0
ARC
  5
95
330
1F
100
AcDbEntity
  8
Geometries
  6
DraftedLine
370
    15
100
AcDbCircle
 10
94.5
 20
78.44999999999999
 30
0.0
 40
0.2499999999999996
100
AcDbArc
 50
180.0
 51
270.0
  0
ARC
  5
96
330
1F
100
AcDbEntity
  8
Geometries
  6
DraftedLine
370
    15
100
AcDbCircle
 10
79.0
 20
78.44999999999999
 30
0.0
 40
0.2499999999999985
100
AcDbArc
 50
270.0
 51
0.0
  0
LINE
  5
97
330
1F
100
AcDbEntity
  8
Geometries
  6
Continuous
370
    40
100
AcDbLine
 10
214.274235542039
 20
108.9470611713223
 30
0.0
 11
214.2653208976853
 21
108.9521298085628
 31
0.0
  0
LINE
  5
98
330
1F
100
AcDbEntity
  8
Geometries
  6
Continuous
370
    40
100
AcDbLine
 10
204.2898448916085
 20
91.61759446434547
 30
0.0
 11
226.2101551083915
 21
78.96189745996573
 31
0.0
  0
LINE
  5
99
330
1F
100
AcDbEntity
  8
Geometries
  6
Continuous
370
    40
100
AcDbLine
 10
214.2898448916085
 20
108.9381025400343
 30
0.0
 11
236.2101551083915
 21
96.2824055356545
 31
0.0
  0
LINE
  5
9A
330
1F
100
AcDbEntity
  8
Geometries
  6
Continuous
370
    40
100
AcDbLine
 10
226.2255756318531
 20
78.9530465644594
 30
0.0
 11
226.2327866953145
 21
78.94894327704036
 31
0.0
  0
LINE
  5
9B
330
1F
100
AcDbEntity
  8
Geometries
  6
Continuous
370
    40
100
AcDbLine
 10
236.2731865957516
 20
96.24512977440862
 30
0.0
 11
236.2773329411569
 21
96.24261486791117
 31
0.0
  0
LINE
  5
9C
330
1F
100
AcDbEntity
  8
Geometries
  6
Continuous
370
    40
100
AcDbLine
 10
226.2426446836449
 20
78.94337033744439
 30
0.0
 11
226.2327866953145
 21
78.94894327704036
 31
0.0
  0
ELLIPSE
  5
9D
330
1F
100
AcDbEntity
  8
Geometries
  6
Continuous
370
    40
100
AcDbEllipse
 10
231.3869318036881
 20
87.52008942519414
 30
0.0
 11
4.875000000000001
 21
8.443747686898279
 31
0.0
210
0.0
220
0.0
230
1.0
 40
0.5773502691896258
 41
0.0
 42
6.283185307179586
  0
ELLIPSE
  5
9E
330
1F
100
AcDbEntity
  8
Geometries
  6
Continuous
370
    40
100
AcDbEllipse
 10
231.3869318036881
 20
87.52008942519414
 30
0.0
 11
-3.875000000000003
 21
-6.711696879329402
 31
0.0
210
0.0
220
0.0
230
1.0
 40
0.577350269189626
 41
0.0
 42
6.283185307179586
  0
ELLIPSE
  5
9F
330
1F
100
AcDbEntity
  8
Geometries
  6
Continuous
370
    40
100
AcDbEllipse
 10
209.2898448916085
 20
100.2778485021899
 30
0.0
 11
5.000000000000001
 21
8.660254037844386
 31
0.0
210
0.0
220
0.0
230
0.9999999999999997
 40
0.5773502691896257
 41
0.0029687218222509
 42
3.138719104394333
  0
ELLIPSE
  5
A0
330
1F
100
AcDbEntity
  8
Geometries
  6
Continuous
370
    40
100
AcDbEllipse
 10
209.2898448916085
 20
100.2778485021899
 30
0.0
 11
5.000000000000001
 21
8.660254037844386
 31
0.0
210
0.0
220
0.0
230
0.9999999999999997
 40
0.5773502691896257
 41
0.0
 42
0.0029687218222509
  0
ELLIPSE
  5
A1
330
1F
100
AcDbEntity
  8
Geometries
  6
Continuous
370
    40
100
AcDbEllipse
 10
209.2898448916085
 20
100.2778485021899
 30
0.0
 11
5.000000000000001
 21
8.660254037844386
 31
0.0
210
0.0
220
0.0
230
0.9999999999999997
 40
0.5773502691896257
 41
3.138719104394333
 42
3.141592653589793
  0
ELLIPSE
  5
A2
330
1F
100
AcDbEntity
  8
Geometries
  6
Continuous
370
    40
100
AcDbEllipse
 10
231.2101551083915
 20
87.62215149781011
 30
0.0
 11
-5.0
 21
-8.660254037844391
 31
0.0
210
0.0
220
0.0
230
1.0
 40
0.5773502691896256
 41
0.0
 42
0.0029329500016994
  0
ELLIPSE
  5
A3
330
1F
100
AcDbEntity
  8
Geometries
  6
Continuous
370
    40
100
AcDbEllipse
 10
231.2101551083915
 20
87.62215149781011
 30
0.0
 11
-5.0
 21
-8.660254037844391
 31
0.0
210
0.0
220
0.0
230
1.0
 40
0.5773502691896256
 41
3.138881258560494
 42
3.141592653589793
  0
ELLIPSE
  5
A4
330
1F
100
AcDbEntity
  8
Geometries
  6
Continuous
370
    40
100
AcDbEllipse
 10
231.2101551083915
 20
87.62215149781011
 30
0.0
 11
3.750000000000003
 21
6.495190528383291
 31
0.0
210
0.0
220
0.0
230
1.0
 40
0.5773502691896257
 41
3.926990816987241
 42
6.286109835487417
  0
ELLIPSE
  5
A5
330
1F
100
AcDbEntity
  8
Geometries
  6
Continuous
370
    40
100
AcDbEllipse
 10
231.2101551083915
 20
87.62215149781011
 30
0.0
 11
3.750000000000003
 21
6.495190528383291
 31
0.0
210
0.0
220
0.0
230
1.0
 40
0.5773502691896257
 41
3.141592653589793
 42
3.926990816987241
  0
ELLIPSE
  5
A6
330
1F
100
AcDbEntity
  8
Geometries
  6
Continuous
370
    40
100
AcDbEllipse
 10
231.2101551083915
 20
87.62215149781011
 30
0.0
 11
3.750000000000003
 21
6.495190528383291
 31
0.0
210
0.0
220
0.0
230
1.0
 40
0.5773502691896257
 41
3.13863929063452
 42
3.141592653589793
  0
ELLIPSE
  5
A7
330
1F
100
AcDbEntity
  8
Geometries
  6
Continuous
370
    40
100
AcDbEllipse
 10
231.2101551083915
 20
87.62215149781011
 30
0.0
 11
-5.0
 21
-8.660254037844391
 31
0.0
210
0.0
220
0.0
230
1.0
 40
0.5773502691896256
 41
3.141592653589793
 42
6.283185307179586
  0
LWPOLYLINE
  5
A8
330
1F
100
AcDbEntity
  8
Geometries
  6
Continuous
370
    40
100
AcDbPolyline
 90
       84
 70
   128
 43
0.0
 10
226.2426446836449
 20
78.94337033744439
 10
226.268614741877
 20
78.92888920682427
 10
226.3180440859873
 20
78.90211686557787
 10
226.367913691461
 20
78.87613212657489
 10
226.4182196594467
 20
78.85093702921478
 10
226.4689580790163
 20
78.82653359990881
 10
226.5201250220585
 20
78.80292385373562
 10
226.5717165380086
 20
78.7801097955675
 10
226.6237286484631
 20
78.75809342065904
 10
226.6761573417332
 20
78.73687671469526
 10
226.7289985673912
 20
78.71646165330168
 10
226.7822482308633
 20
78.69685020102483
 10
226.8359021881191
 20
78.67804430979729
 10
226.8899562405144
 20
78.6600459169054
 10
226.9444061298321
 20
78.6428569424847
 10
226.9992475335721
 20
78.62647928657094
 10
227.0544760605352
 20
78.61091482574008
 10
227.1100872467401
 20
78.59616540937417
 10
227.1660765517138
 20
78.58223285559336
 10
227.2224393551885
 20
78.56911894689743
 10
227.2791709542314
 20
78.5568254255624
 10
227.3362665608346
 20
78.5453539888399
 10
227.3937212999818
 20
78.5347062840078
 10
227.4515302082047
 20
78.52488390332115
 10
227.5096882326379
 20
78.51588837891325
 10
227.568190230574
 20
78.5077211776945
 10
227.6270309695145
 20
78.50038369629716
 10
227.6862051277094
 20
78.49387725611078
 10
227.7457072951707
 20
78.48820309845183
 10
227.8055319751413
 20
78.4833623799075
 10
227.8656735859965
 20
78.4793561678908
 10
227.9261264635508
 20
78.47618543644005
 10
227.9868848637383
 20
78.47385106229248
 10
228.0479429656372
 20
78.47235382125663
 10
228.1092948747965
 20
78.47169438490494
 10
228.1709346268317
 20
78.47187331760252
 10
228.2328561912491
 20
78.47289107388445
 10
228.295053475458
 20
78.47474799618917
 10
228.3575203289326
 20
78.4774443129513
 10
228.420250547483
 20
78.48098013705368
 10
228.4832378775977
 20
78.48535546463381
 10
228.5464760208197
 20
78.49057017423718
 10
228.6099586381221
 20
78.49662402630646
 10
228.6736793542492
 20
78.50351666299245
 10
228.7376317619929
 20
78.5112476082709
 10
228.801809426376
 20
78.51981626834655
 10
228.8662058887189
 20
78.52922193232459
 10
228.9308146705647
 20
78.5394637731284
 10
228.9956292774469
 20
78.55054084864106
 10
229.0606432024805
 20
78.56245210304812
 10
229.1258499297669
 20
78.57519636835889
 10
229.1912429375983
 20
78.58877236608298
 10
229.2568157014585
 20
78.60317870904
 10
229.3225616968112
 20
78.61841390328009
 10
229.3884744016771
 20
78.63447635009467
 10
229.4545472989975
 20
78.65136434809713
 10
229.5207738787868
 20
78.66907609535424
 10
229.5871476400779
 20
78.68760969155105
 10
229.653662092666
 20
78.70696314017249
 10
229.7203107586576
 20
78.72713435068695
 10
229.7870871738313
 20
78.74812114071807
 10
229.853984888822
 20
78.76992123819267
 10
229.9209974701346
 20
78.79253228345397
 10
229.988118501001
 20
78.81595183133086
 10
230.0553415820879
 20
78.840177353155
 10
230.1226603320682
 20
78.8652062387189
 10
230.1900683880665
 20
78.89103579816992
 10
230.2575594059886
 20
78.91766326383475
 10
230.3251270607464
 20
78.9450857919714
 10
230.3927650463913
 20
78.97330046444766
 10
230.4604670761599
 20
79.00230429034097
 10
230.5282268824491
 20
79.03209420746285
 10
230.5960382167254
 20
79.06266708380514
 10
230.6638948493791
 20
79.09401971890966
 10
230.7317905695312
 20
79.12614884516242
 10
230.7997191848006
 20
79.15905112901275
 10
230.8676745210412
 20
79.1927231721218
 10
230.9356504220527
 20
79.22716151243974
 10
231.0036407492733
 20
79.26236262521675
 10
231.071639369735
 20
79.29832291768332
 10
231.1396400619257
 20
79.33503867811368
 10
231.2076367463875
 20
79.37250619932887
 10
231.2756233597585
 20
79.41072171510719
 10
231.3351551083915
 20
79.44480348281867
  0
LWPOLYLINE
  5
A9
330
1F
100
AcDbEntity
  8
Geometries
  6
Continuous
370
    40
100
AcDbPolyline
 90
      247
 70
   128
 43
0.0
 10
231.3351551083915
 20
79.44480348281867
 10
231.371010948193
 20
79.4656096824747
 10
231.4389495904701
 20
79.50560777499015
 10
231.5068567014729
 20
79.54634006228294
 10
231.5747272250169
 20
79.58780307408648
 10
231.6425551793325
 20
79.6299927361078
 10
231.7103345969076
 20
79.67290491876496
 10
231.7780595242402
 20
79.71653543762162
 10
231.8457240216393
 20
79.76088005380839
 10
231.9133221630471
 20
79.80593447441778
 10
231.9808480358874
 20
79.85169435287769
 10
232.0482957409375
 20
79.89815528930333
 10
232.1156593922261
 20
79.94531283083305
 10
232.1829331169552
 20
79.99316247194685
 10
232.2501110554473
 20
80.04169965477206
 10
232.3171873611175
 20
80.09091976937749
 10
232.38415620047
 20
80.14081815405767
 10
232.4510117531189
 20
80.19139009560928
 10
232.5177482118321
 20
80.24263082960098
 10
232.5843597825994
 20
80.29453554063888
 10
232.6508406847213
 20
80.34709936262716
 10
232.717185150922
 20
80.40031737902865
 10
232.7833874274823
 20
80.45418462312257
 10
232.8494417743924
 20
80.5086960782631
 10
232.9153424655262
 20
80.56384667813893
 10
232.9810837888332
 20
80.61963130703498
 10
233.0466600465489
 20
80.67604480009632
 10
233.1120655554234
 20
80.73308194359689
 10
233.177294646966
 20
80.790737475211
 10
233.2423416677056
 20
80.84900608429069
 10
233.3072009794669
 20
80.90788241214847
 10
233.3718669596607
 20
80.96736105234574
 10
233.436334001587
 20
81.02743655098735
 10
233.5005965147525
 20
81.08810340702343
 10
233.5646489251993
 20
81.14935607255815
 10
233.6284856758448
 20
81.21118895316569
 10
233.6921012268331
 20
81.27359640821393
 10
233.7554900558959
 20
81.33657275119602
 10
233.8186466587234
 20
81.40011225007039
 10
233.8815655493426
 20
81.46420912760762
 10
233.9442412605055
 20
81.52885756174749
 10
234.0066683440838
 20
81.59405168596287
 10
234.0688413714707
 20
81.65978558963289
 10
234.130754933989
 20
81.72605331842408
 10
234.1924036433051
 20
81.79284887468054
 10
234.2537821318488
 20
81.86016621782234
 10
234.3148850532372
 20
81.92799926475232
 10
234.3757070827032
 20
81.99634189027154
 10
234.4362429175279
 20
82.06518792750322
 10
234.4964872774765
 20
82.1345311683244
 10
234.5564349052369
 20
82.20436536380716
 10
234.6160805668611
 20
82.27468422466654
 10
234.6754190522089
 20
82.34548142171782
 10
234.7344451753928
 20
82.41675058634094
 10
234.7931537752248
 20
82.48848531095332
 10
234.8515397156647
 20
82.5606791494905
 10
234.9095978862673
 20
82.63332561789342
 10
234.9673232026332
 20
82.70641819460575
 10
235.0247106068559
 20
82.77995032107488
 10
235.0817550679716
 20
82.85391540226378
 10
235.1384515824075
 20
82.92830680716796
 10
235.1947951744287
 20
83.00311786933963
 10
235.2507808965858
 20
83.07834188741958
 10
235.3064038301587
 20
83.15397212567446
 10
235.3616590856016
 20
83.23000181454185
 10
235.4165418029841
 20
83.3064241511808
 10
235.4710471524318
 20
83.38323230002914
 10
235.5251703345633
 20
83.46041939336621
 10
235.5789065809267
 20
83.5379785318829
 10
235.6322511544314
 20
83.61590278525522
 10
235.6851993497786
 20
83.694185192726
 10
235.7377464938883
 20
83.77281876368947
 10
235.789887946323
 20
83.8517964782834
 10
235.8416190997086
 20
83.9311112879846
 10
235.8929353801514
 20
84.01075611621079
 10
235.9438322476515
 20
84.09072385892533
 10
235.9943051965124
 20
84.17100738524879
 10
236.0443497557474
 20
84.25159953807385
 10
236.0939614894799
 20
84.33249313468295
 10
236.1431359973425
 20
84.41368096737362
 10
236.1918689148689
 20
84.49515580408438
 10
236.2401559138833
 20
84.57691038902571
 10
236.2879927028836
 20
84.65893744331464
 10
236.3353750274219
 20
84.7412296656134
 10
236.3822986660562
 20
84.82377972493953
 10
236.4287594234746
 20
84.90658024780225
 10
236.4747531592463
 20
84.98962386903999
 10
236.5202757714742
 20
85.07290320364024
 10
236.565323197149
 20
85.15641084739131
 10
236.6098914124973
 20
85.24013937753766
 10
236.6539764333244
 20
85.32408135343552
 10
236.697574315352
 20
85.40822931721188
 10
236.7406811545507
 20
85.49257579442585
 10
236.7832930874651
 20
85.57711329472922
 10
236.8254062915345
 20
85.66183431253054
 10
236.8670169854076
 20
85.74673132765915
 10
236.908121429251
 20
85.83179680603112
 10
236.9487159250509
 20
85.91702320031413
 10
236.9887968169104
 20
86.00240295059504
 10
237.0283604913389
 20
86.08792848504613
 10
237.0674033775367
 20
86.17359222059196
 10
237.1059219476721
 20
86.25938656357621
 10
237.1439127171531
 20
86.34530391042776
 10
237.1813722448919
 20
86.43133664832582
 10
237.2182971335637
 20
86.51747715586502
 10
237.2546840298586
 20
86.60371780371833
 10
237.2905296247267
 20
86.6900509552993
 10
237.3258306536176
 20
86.77646896742158
 10
237.3605838967123
 20
86.86296419095828
 10
237.394786179149
 20
86.94952897149625
 10
237.4284343712426
 20
87.0361556499911
 10
237.4615253886967
 20
87.12283656341589
 10
237.4940561928099
 20
87.2095640454094
 10
237.5260237906754
 20
87.2963304269198
 10
237.5574252353732
 20
87.38312803684373
 10
237.5882576261568
 20
87.46994920266262
 10
237.6185181086332
 20
87.55678625107332
 10
237.6482038749359
 20
87.64363150861485
 10
237.6773121638922
 20
87.73047730228875
 10
237.7058402611839
 20
87.81731596017502
 10
237.7337854995019
 20
87.9041398120405
 10
237.7611452586949
 20
87.99094118994299
 10
237.7879169659116
 20
88.07771242882646
 10
237.814098095738
 20
88.16444586710972
 10
237.8396861703284
 20
88.25113384726836
 10
237.8646787595308
 20
88.337768716407
 10
237.889073481008
 20
88.42434282682416
 10
237.9128680003528
 20
88.51084853656764
 10
237.9360600311985
 20
88.59727820998025
 10
237.9586473353258
 20
88.68362421823629
 10
237.9806277227644
 20
88.76987893986659
 10
238.0019990518915
 20
88.8560347612734
 10
238.0227592295268
 20
88.94208407723364
 10
238.0429062110239
 20
89.02801929138923
 10
238.0624380003599
 20
89.11383281672705
 10
238.0813526502224
 20
89.19951707604424
 10
238.0996482620951
 20
89.28506450239999
 10
238.1173229863418
 20
89.37046753955445
 10
238.134375022291
 20
89.45571864239247
 10
238.15080261832
 20
89.54081027733152
 10
238.1666040719399
 20
89.6257349227158
 10
238.1817777298827
 20
89.71048506919348
 10
238.1963219881907
 20
89.79505322007681
 10
238.2102352923093
 20
89.87943189168648
 10
238.2235161371842
 20
89.96361361367725
 10
238.2361630673635
 20
90.04759092934793
 10
238.248174677107
 20
90.13135639593071
 10
238.2595496105021
 20
90.21490258486371
 10
238.2702865615892
 20
90.29822208204459
 10
238.280384274496
 20
90.38130748806378
 10
238.2898415435846
 20
90.46415141842111
 10
238.2986572136097
 20
90.54674650372023
 10
238.306830179892
 20
90.62908538984598
 10
238.3143593885074
 20
90.71116073812125
 10
238.3212438364926
 20
90.7929652254459
 10
238.327482572071
 20
90.87449154441462
 10
238.3330746948984
 20
90.95573240341932
 10
238.3380193563321
 20
91.03668052673096
 10
238.3423157597244
 20
91.11732865456587
 10
238.3459631607423
 20
91.19766954313445
 10
238.3489608677164
 20
91.27769596467547
 10
238.3513082420196
 20
91.35740070747471
 10
238.3530046984796
 20
91.43677657587222
 10
238.3540497058255
 20
91.51581639025783
 10
238.3544427871712
 20
91.59451298705639
 10
238.3541835205389
 20
91.67285921870736
 10
238.3532715394231
 20
91.75084795363838
 10
238.3517065333981
 20
91.82847207623777
 10
238.3494882487711
 20
91.90572448682671
 10
238.3466164892824
 20
91.98259810163678
 10
238.3430911168549
 20
92.05908585279519
 10
238.3389120523944
 20
92.13518068832198
 10
238.334079286421
 20
92.21087542906942
 10
238.3285928656264
 20
92.28616303797301
 10
238.3224528982691
 20
92.36103650378075
 10
238.3156595556986
 20
92.43548883134783
 10
238.3082130734393
 20
92.50951304179439
 10
238.3001137523282
 20
92.58310217271323
 10
238.2913619597077
 20
92.65624927843025
 10
238.2819581306713
 20
92.72894743032796
 10
238.2719027693608
 20
92.80118971723589
 10
238.2611964503129
 20
92.8729692459008
 10
238.2498398198509
 20
92.94427914153991
 10
238.2378335975205
 20
93.01511254848934
 10
238.2251785775611
 20
93.08546263095356
 10
238.211875630411
 20
93.15532257386708
 10
238.1979257042379
 20
93.22468558387403
 10
238.1833298264876
 20
93.29354489043705
 10
238.1680891054432
 20
93.36189374708148
 10
238.1522047317847
 20
93.4297254327852
 10
238.1356779801392
 20
93.4970332535179
 10
238.1185102106094
 20
93.56381054394161
 10
238.1007028702684
 20
93.63005066927364
 10
238.0822574946068
 20
93.69574702732109
 10
238.0631757089174
 20
93.76089305068813
 10
238.0434592296024
 20
93.82548220916036
 10
238.0231098653848
 20
93.88950801226726
 10
238.0021295184096
 20
93.95296401202154
 10
237.9805201852138
 20
94.01584380583455
 10
237.9582839575493
 20
94.0781410396011
 10
237.9354230230373
 20
94.13984941095067
 10
237.9119396656382
 20
94.20096267265205
 10
237.8878362659156
 20
94.26147463616363
 10
237.8631153010781
 20
94.32137917531315
 10
237.8377793447795
 20
94.38067023009131
 10
237.8118310666621
 20
94.43934181053986
 10
237.7852732316261
 20
94.49738800071201
 10
237.7581086988135
 20
94.55480296268024
 10
237.730340420291
 20
94.6115809405659
 10
237.7019714394268
 20
94.66771626455889
 10
237.6730048889496
 20
94.72320335489793
 10
237.6434439886891
 20
94.7780367257764
 10
237.613292042995
 20
94.83221098913965
 10
237.5825524378378
 20
94.88572085833717
 10
237.551228637597
 20
94.93856115159221
 10
237.5193241815467
 20
94.990726795253
 10
237.4868426800522
 20
95.04221282678701
 10
237.4537878104961
 20
95.09301439748296
 10
237.4201633129538
 20
95.143126774826
 10
237.3859729856468
 20
95.19254534451204
 10
237.3512206801998
 20
95.24126561207255
 10
237.315910296738
 20
95.28928320408099
 10
237.2800457788573
 20
95.3365938689183
 10
237.2436311085098
 20
95.38319347707741
 10
237.206670300843
 20
95.42907802099151
 10
237.1691673990386
 20
95.47424361437776
 10
237.1311264691953
 20
95.51868649108829
 10
237.0925515953005
 20
95.56240300347312
 10
237.0534468743398
 20
95.60538962025828
 10
237.0138164115874
 20
95.64764292395294
 10
236.9736643161264
 20
95.68915960780194
 10
236.9329946966397
 20
95.72993647230835
 10
236.8918116575159
 20
95.76997042135318
 10
236.8501192953088
 20
95.80925845794664
 10
236.8079216955869
 20
95.8477976796492
 10
236.7652229302064
 20
95.88558527370395
 10
236.722027055036
 20
95.9226185119276
 10
236.6783381081588
 20
95.95889474540827
 10
236.6341601085705
 20
95.99441139906254
 10
236.5894970553906
 20
96.02916596610444
 10
236.5443529275934
 20
96.06315600248277
 10
236.4987316842676
 20
96.0963791213406
 10
236.4526372654001
 20
96.12883298755351
 10
236.4060735931812
 20
96.16051531240005
 10
236.3590445738166
 20
96.19142384841953
 10
236.3115540998347
 20
96.22155638450624
 10
236.2773329411569
 20
96.24261486791117
  0
LWPOLYLINE
  5
AA
330
1F
100
AcDbEntity
  8
Geometries
  6
Continuous
370
    40
100
AcDbPolyline
 90
        3
 70
   128
 43
0.0
 10
236.2731865957516
 20
96.24512977440862
 10
236.2636060528621
 20
96.25091074129045
 10
236.22437071058
 20
96.2741535862422
  0
LWPOLYLINE
  5
AB
330
1F
100
AcDbEntity
  8
Geometries
  6
Continuous
370
    40
100
AcDbPolyline
 90
        3
 70
   128
 43
0.0
 10
227.4498334639815
 20
81.13295542558018
 10
227.4120830349908
 20
81.15548848556193
 10
227.3781299605907
 20
81.1765917697457
  0
LWPOLYLINE
  5
AC
330
1F
100
AcDbEntity
  8
Geometries
  6
Continuous
370
    40
100
AcDbPolyline
 90
        4
 70
   128
 43
0.0
 10
227.3781299605907
 20
81.1765917697457
 10
227.3731214377795
 20
81.17977341084982
 10
227.3346213108029
 20
81.2048337212425
 10
227.3210393929403
 20
81.21393374158924
  0
LWPOLYLINE
  5
AD
330
1F
100
AcDbEntity
  8
Geometries
  6
Continuous
370
    40
100
AcDbPolyline
 90
      282
 70
   128
 43
0.0
 10
227.3210393929403
 20
81.21393374158924
 10
227.2965887476537
 20
81.23066524054074
 10
227.2590296372772
 20
81.25726356699492
 10
227.2219496419391
 20
81.28462409831184
 10
227.1853541791015
 20
81.31274205839253
 10
227.1492484075557
 20
81.34161252507576
 10
227.1136372179948
 20
81.37123045816901
 10
227.0785252280559
 20
81.40159072707442
 10
227.0439167817198
 20
81.43268813737265
 10
227.0098159528249
 20
81.46451745580026
 10
226.9762265523449
 20
81.49707343314833
 10
226.9431521389955
 20
81.530350824709
 10
226.9105960326694
 20
81.5643444080034
 10
226.8785613301697
 20
81.59904899762495
 10
226.8470509226956
 20
81.63445945713084
 10
226.8160675145426
 20
81.670570708002
 10
226.7856136425099
 20
81.70737773576721
 10
226.7556916955419
 20
81.74487559345009
 10
226.7263039341871
 20
81.78305940254538
 10
226.697452509508
 20
81.82192435176745
 10
226.6691394811409
 20
81.861465693835
 10
226.6413668342612
 20
81.90167874056695
 10
226.614136495267
 20
81.94255885656752
 10
226.5874503460511
 20
81.98410145176972
 10
226.5613102367769
 20
82.02630197309443
 10
226.5357179971186
 20
82.06915589546509
 10
226.5106754459636
 20
82.1126587123961
 10
226.4861843996052
 20
82.15680592635084
 10
226.4622466784779
 20
82.2015930390416
 10
226.4388641125092
 20
82.24701554181982
 10
226.4160385451736
 20
82.29306890628247
 10
226.3937718363476
 20
82.33974857519812
 10
226.3720658640671
 20
82.38704995383655
 10
226.3509225252938
 20
82.43496840176815
 10
226.3303437357986
 20
82.48349922517994
 10
226.3103314292629
 20
82.53263766974506
 10
226.2908875557025
 20
82.58237891406466
 10
226.2720140793074
 20
82.63271806369501
 10
226.2537129757891
 20
82.68365014575954
 10
226.2359862293183
 20
82.73517010414095
 10
226.218835829132
 20
82.78727279523888
 10
226.2022637658781
 20
82.8399529842776
 10
226.1862720277634
 20
82.89320534214059
 10
226.170862596561
 20
82.94702444270763
 10
226.1560374435282
 20
83.00140476066878
 10
226.1417985252792
 20
83.05634066978581
 10
226.1281477796518
 20
83.11182644157324
 10
226.1150871216028
 20
83.16785624436834
 10
226.102618439159
 20
83.22442414276357
 10
226.0907435894501
 20
83.28152409737008
 10
226.0794643948425
 20
83.33914996488642
 10
226.0687826391919
 20
83.39729549844387
 10
226.0587000642267
 20
83.45595434820432
 10
226.0492183660739
 20
83.51512006218478
 10
226.0403391919348
 20
83.57478608728553
 10
226.0320641369164
 20
83.63494577049974
 10
226.0243947410212
 20
83.69559236028522
 10
226.0173324862988
 20
83.75671900807652
 10
226.010878794159
 20
83.8183187699221
 10
226.0050350228441
 20
83.88038460822894
 10
225.9998024650619
 20
83.94290939359783
 10
225.9951823457725
 20
84.00588590673914
 10
225.9911758201284
 20
84.06930684045184
 10
225.9877839770327
 20
84.13316468801034
 10
225.9850078267566
 20
84.19745187603839
 10
225.9828482976911
 20
84.26216085742819
 10
225.9813062421989
 20
84.32728400532221
 10
225.9803824352137
 20
84.39281361523464
 10
225.9800775729624
 20
84.45874190719479
 10
225.9803922718034
 20
84.52506102789742
 10
225.9813270671773
 20
84.59176305285362
 10
225.9828824126631
 20
84.65883998853705
 10
225.9850586791345
 20
84.72628377452331
 10
225.9878561540122
 20
84.79408628561477
 10
225.9912750406054
 20
84.86223933395118
 10
225.995315457538
 20
84.9307346711011
 10
225.9999774382547
 20
84.99956399013303
 10
226.0052609306023
 20
85.06871892766183
 10
226.0111657964808
 20
85.13819106587314
 10
226.0176918115611
 20
85.207971934519
 10
226.024838665064
 20
85.27805301288807
 10
226.0326059595969
 20
85.34842573174802
 10
226.0409932110447
 20
85.41908147525805
 10
226.0499998485111
 20
85.49001158285454
 10
226.0596252143059
 20
85.56120735110618
 10
226.069868563977
 20
85.63266003554077
 10
226.0807290663819
 20
85.70436085244305
 10
226.0922058037981
 20
85.77630098062411
 10
226.1042977720671
 20
85.8484715631619
 10
226.117003880772
 20
85.92086370911436
 10
226.1303229534444
 20
85.9934684952056
 10
226.1442537277996
 20
86.06627696748373
 10
226.1587948559974
 20
86.13928014295465
 10
226.1739449049267
 20
86.21246901118899
 10
226.1897023565126
 20
86.28583453590434
 10
226.206065608043
 20
86.35936765652424
 10
226.2230329725152
 20
86.43305928971333
 10
226.240602678999
 20
86.50690033088982
 10
226.2587728730159
 20
86.58088165571611
 10
226.2775416169346
 20
86.65499412157017
 10
226.2969068903778
 20
86.72922856899373
 10
226.3168665906439
 20
86.80357582312347
 10
226.3374185331393
 20
86.87802669510306
 10
226.3585604518217
 20
86.95257198347596
 10
226.3802899996539
 20
87.02720247556306
 10
226.4026047490659
 20
87.10190894882159
 10
226.4255021924274
 20
87.17668217219111
 10
226.448979742526
 20
87.25151290742116
 10
226.4730347330549
 20
87.32639191038702
 10
226.4976644191061
 20
87.40130993239038
 10
226.5228659776714
 20
87.4762577214473
 10
226.5486365081477
 20
87.55122602356363
 10
226.57497303285
 20
87.62620558399827
 10
226.601872497528
 20
87.70118714851517
 10
226.6293317718884
 20
87.77616146462356
 10
226.6573476501222
 20
87.85111928280979
 10
226.6859168514361
 20
87.9260513577572
 10
226.7150360205881
 20
88.00094844955774
 10
226.7447017284274
 20
88.07580132491407
 10
226.7749104724381
 20
88.15060075833394
 10
226.8056586772866
 20
88.22533753331511
 10
226.8369426953723
 20
88.30000244352419
 10
226.8687588073827
 20
88.37458629396654
 10
226.9011032228505
 20
88.44907990215023
 10
226.9339720807152
 20
88.5234740992434
 10
226.9673614498873
 20
88.59775973122423
 10
227.0012673298157
 20
88.67192766002661
 10
227.0356856510585
 20
88.74596876467814
 10
227.0706122758561
 20
88.81987394243447
 10
227.106042998709
 20
88.89363410990784
 10
227.1419735469559
 20
88.96724020418971
 10
227.1783995813578
 20
89.04068318397057
 10
227.2153166966829
 20
89.11395403065438
 10
227.2527204222958
 20
89.18704374946859
 10
227.2906062227487
 20
89.25994337057057
 10
227.3289694983765
 20
89.33264395015046
 10
227.3678055858944
 20
89.40513657152985
 10
227.4071097589992
 20
89.47741234625806
 10
227.4468772289728
 20
89.54946241520395
 10
227.4871031452894
 20
89.62127794964593
 10
227.5277825962266
 20
89.69285015235843
 10
227.5689106094778
 20
89.76417025869556
 10
227.6104821527706
 20
89.83522953767336
 10
227.6524921055795
 20
89.90601924468366
 10
227.6949353140747
 20
89.97653071558443
 10
227.7378065688823
 20
90.04675532751578
 10
227.7811006031907
 20
90.11668449562455
 10
227.8248120933852
 20
90.18630967413473
 10
227.8689356596883
 20
90.2556223574177
 10
227.9134658668013
 20
90.32461408105912
 10
227.958397224553
 20
90.39327642292656
 10
228.0037241885504
 20
90.4616010042348
 10
228.0494411608347
 20
90.52957949060985
 10
228.0955424905417
 20
90.59720359315328
 10
228.1420224745666
 20
90.66446506950423
 10
228.1888753582339
 20
90.73135572490247
 10
228.236095335972
 20
90.79786741324911
 10
228.2836765519931
 20
90.86399203816845
 10
228.3316131009788
 20
90.92972155406872
 10
228.3798990287704
 20
90.99504796720268
 10
228.4285283330658
 20
91.05996333672867
 10
228.477494964123
 20
91.12445977577174
 10
228.5267928254679
 20
91.18852945248395
 10
228.5764157746109
 20
91.25216459110689
 10
228.6263576237693
 20
91.31535747303255
 10
228.6766121405971
 20
91.37810043786664
 10
228.7271730489225
 20
91.44038588449135
 10
228.7780340294933
 20
91.50220627212963
 10
228.8291887207304
 20
91.56355412140955
 10
228.8806307194907
 20
91.6244220154309
 10
228.9323535818386
 20
91.68480260083186
 10
228.9843508238272
 20
91.74468858885703
 10
229.0366159222901
 20
91.804072756427
 10
229.0891423156432
 20
91.86294794720918
 10
229.1419234046991
 20
91.92130707268971
 10
229.1949525534914
 20
91.97914311324708
 10
229.2482230901133
 20
92.03644911922683
 10
229.3017283075688
 20
92.09321821201848
 10
229.3554614646371
 20
92.1494435851323
 10
229.409415786753
 20
92.20511850527939
 10
229.4635844669016
 20
92.26023631345113
 10
229.5179606665299
 20
92.31479042600174
 10
229.5725375164758
 20
92.36877433572987
 10
229.6273081179145
 20
92.42218161296283
 10
229.6822655433247
 20
92.47500590664026
 10
229.7374028374749
 20
92.52724094539889
 10
229.7927130184309
 20
92.57888053865713
 10
229.8481890785857
 20
92.62991857769929
 10
229.9038239857128
 20
92.68034903675928
 10
229.9596106840451
 20
92.7301659741029
 10
230.0155420953793
 20
92.77936353310852
 10
230.0716111202082
 20
92.8279359433452
 10
230.1278106388822
 20
92.87587752164751
 10
230.1841335128007
 20
92.92318267318647
 10
230.2405725856364
 20
92.96984589253545
 10
230.297120684592
 20
93.01586176472958
 10
230.3537706216939
 20
93.0612249663186
 10
230.4105151951206
 20
93.10593026641048
 10
230.4673471905723
 20
93.14997252770503
 10
230.5242593826783
 20
93.19334670751569
 10
230.5812445364493
 20
93.23604785877835
 10
230.6382954087717
 20
93.27807113104348
 10
230.6954047499489
 20
93.3194117714512
 10
230.75256530529
 20
93.36006512568589
 10
230.8097698167485
 20
93.40002663890799
 10
230.8670110246122
 20
93.43929185665998
 10
230.9242816692466
 20
93.4778564257432
 10
230.9815744928935
 20
93.5157160950628
 10
231.0388822415264
 20
93.55286671643616
 10
231.0961976667638
 20
93.58930424536145
 10
231.1535135278438
 20
93.62502474174165
 10
231.2108225936586
 20
93.66002437055964
 10
231.2681176448534
 20
93.69429940249914
 10
231.3253914759868
 20
93.72784621450582
 10
231.3826368977572
 20
93.7606612902833
 10
231.4398467392942
 20
93.79274122071818
 10
231.4970138505144
 20
93.82408270422636
 10
231.5541311045427
 20
93.85468254701483
 10
231.6111914001978
 20
93.88453766325124
 10
231.6681876645412
 20
93.91364507513306
 10
231.7251128554876
 20
93.94200191284905
 10
231.7819599644751
 20
93.9696054144236
 10
231.8387219556272
 20
93.99645289577158
 10
231.8953917499443
 20
94.02254174585741
 10
231.9519624418391
 20
94.04786952568288
 10
232.0084271700379
 20
94.07243390269981
 10
232.0647791205133
 20
94.09623264998052
 10
232.1210115294417
 20
94.11926364521213
 10
232.1771176861845
 20
94.14152486950712
 10
232.2330909362821
 20
94.16301440602001
 10
232.2889246844492
 20
94.18373043835946
 10
232.3446123975593
 20
94.20367124878588
 10
232.4001476075994
 20
94.22283521618431
 10
232.4555239145831
 20
94.2412208138041
 10
232.5107349893972
 20
94.2588266067555
 10
232.5657745765636
 20
94.27565124925684
 10
232.6206364968915
 20
94.29169348162533
 10
232.6753146499934
 20
94.30695212700674
 10
232.7298030166352
 20
94.32142608784132
 10
232.7840956608884
 20
94.3351143420646
 10
232.8381867320508
 20
94.34801593904609
 10
232.8920704662968
 20
94.36012999527004
 10
232.9457411880166
 20
94.37145568976766
 10
232.9991933108026
 20
94.38199225931346
 10
233.0524213380344
 20
94.39173899340346
 10
233.1054198630167
 20
94.40069522903845
 10
233.1581835686168
 20
94.40886034534128
 10
233.2107072263503
 20
94.41623375804417
 10
233.2629856948619
 20
94.42281491388911
 10
233.3150139177448
 20
94.42860328499273
 10
233.3667869206463
 20
94.43359836323549
 10
233.418299807606
 20
94.4377996547445
 10
233.4695477565764
 20
94.44120667454888
 10
233.5205260140796
 20
94.44381894149687
 10
233.5712298889603
 20
94.44563597353391
 10
233.621654745203
 20
94.44665728345149
 10
233.6717959937912
 20
94.44688237522611
 10
233.7216490835987
 20
94.44631074107721
 10
233.7712094913231
 20
94.44494185938042
 10
233.8204727104826
 20
94.44277519357917
 10
233.869434239529
 20
94.43981019224135
 10
233.9180895691462
 20
94.43604629040898
 10
233.9664341688389
 20
94.43148291238548
 10
234.0144634729444
 20
94.42611947609832
 10
234.0621728662365
 20
94.41995539916213
 10
234.1095576693251
 20
94.41299010674776
 10
234.1566131240946
 20
94.4052230413383
 10
234.2033343794605
 20
94.39665367441907
 10
234.2497164777581
 20
94.38728152010823
 10
234.295754342112
 20
94.37710615068634
 10
234.3414427651576
 20
94.36612721392727
 10
234.3867763995064
 20
94.35434445207058
 10
234.4317497503545
 20
94.34175772220868
 10
234.4763571706263
 20
94.32836701779192
 10
234.5205928590247
 20
94.31417249088429
 10
234.5644508613217
 20
94.29917447473643
 10
234.6079250751652
 20
94.28337350618139
 10
234.6510092586014
 20
94.266770347311
 10
234.6936970424202
 20
94.24936600585612
 10
234.7359819463179
 20
94.23116175368098
 10
234.7778573987526
 20
94.21215914280907
 10
234.8142655938184
 20
94.19482571022029
  0
LWPOLYLINE
  5
AE
330
1F
100
AcDbEntity
  8
Geometries
  6
Continuous
370
    40
100
AcDbPolyline
 90
        4
 70
   128
 43
0.0
 10
234.8142655938184
 20
94.19482571022029
 10
234.8193167602341
 20
94.1923600184324
 10
234.8603533496631
 20
94.171766528415
 10
234.8853786878018
 20
94.1587077263679
  0
LWPOLYLINE
  5
AF
330
1F
100
AcDbEntity
  8
Geometries
  6
Continuous
370
    40
100
AcDbPolyline
 90
        4
 70
   128
 43
0.0
 10
234.8853786878018
 20
94.1587077263679
 10
234.9009604732035
 20
94.15038112888627
 10
234.9411314550628
 20
94.12820658562876
 10
234.9499043373123
 20
94.12322574588829
  0
LWPOLYLINE
  5
B0
330
1F
100
AcDbEntity
  8
Geometries
  6
Continuous
370
    40
100
AcDbPolyline
 90
      331
 70
   128
 43
0.0
 10
214.2653208976853
 20
108.9521298085628
 10
214.246042514907
 20
108.9629733371864
 10
214.1967452393196
 20
108.9899801960777
 10
214.1470065410794
 20
109.0162000638335
 10
214.0968303163955
 20
109.0416308967816
 10
214.0462204720692
 20
109.0662706648335
 10
213.9951809305412
 20
109.0901173496725
 10
213.9437156351196
 20
109.1131689434683
 10
213.8918285553366
 20
109.135423448127
 10
213.8395236923815
 20
109.1568788750824
 10
213.7868050845585
 20
109.1775332456256
 10
213.7336768127133
 20
109.197384591768
 10
213.6801430055771
 20
109.2164309576241
 10
213.6262078449759
 20
109.234670401298
 10
213.5718755708532
 20
109.2521009972494
 10
213.5171504860594
 20
109.2687208391139
 10
213.4620369608599
 20
109.2845280429436
 10
213.406539437122
 20
109.2995207508341
 10
213.3506624321388
 20
109.3136971348971
 10
213.2944105420579
 20
109.3270554015368
 10
213.2377884448825
 20
109.3395937959856
 10
213.180800903021
 20
109.3513106070503
 10
213.123452765365
 20
109.3622041720229
 10
213.0657489688788
 20
109.3722728817045
 10
213.0076945396945
 20
109.381515185495
 10
212.9492945937059
 20
109.3899295964981
 10
212.8905543366645
 20
109.3975146965956
 10
212.8314790637842
 20
109.4042691414433
 10
212.7720741588686
 20
109.4101916653456
 10
212.7123450929739
 20
109.4152810859681
 10
212.6522974226357
 20
109.419536308849
 10
212.591936787679
 20
109.4229563316757
 10
212.5312689086449
 20
109.4255402482958
 10
212.4702995838675
 20
109.4272872524361
 10
212.4090346862313
 20
109.4281966411077
 10
212.3474801596525
 20
109.4282678176789
 10
212.2856420153192
 20
109.4275002946025
 10
212.2235263277298
 20
109.4258936957898
 10
212.161139230573
 20
109.4234477586243
 10
212.0984869124846
 20
109.4201623356174
 10
212.0355756127223
 20
109.4160373957063
 10
211.9724116167958
 20
109.4110730252034
 10
211.9090012520879
 20
109.4052694284059
 10
211.8453508834997
 20
109.3986269278793
 10
211.7814669091514
 20
109.3911459644301
 10
211.7173557561689
 20
109.382827096785
 10
211.6530238765798
 20
109.3736710009972
 10
211.588477743344
 20
109.3636784696003
 10
211.5237238465369
 20
109.3528504105303
 10
211.4587686897044
 20
109.3411878458412
 10
211.3936187864012
 20
109.3286919102343
 10
211.3282806569258
 20
109.3153638494253
 10
211.2627608252583
 20
109.3012050183728
 10
211.1970658162085
 20
109.2862168793875
 10
211.1312021527752
 20
109.270401000147
 10
211.0651763537192
 20
109.2537590516339
 10
210.9989949313492
 20
109.236292806017
 10
210.9326643895134
 20
109.2180041344953
 10
210.8661912217973
 20
109.1988950051193
 10
210.7995819099173
 20
109.1789674806069
 10
210.7328429223045
 20
109.1582237161663
 10
210.6659807128691
 20
109.1366659573402
 10
210.5990017199357
 20
109.1142965378809
 10
210.5319123653422
 20
109.091117877667
 10
210.4647190536882
 20
109.0671324806704
 10
210.3974281717231
 20
109.0423429329792
 10
210.3300460878655
 20
109.016751900885
 10
210.26257915184
 20
108.9903621290366
 10
210.1950336944206
 20
108.9631764386661
 10
210.1274160272736
 20
108.9351977258889
 10
210.0597324428851
 20
108.9064289600796
 10
209.9919892145663
 20
108.8768731823254
 10
209.9241925965256
 20
108.8465335039565
 10
209.8563488239986
 20
108.8154131051534
 10
209.7884641134285
 20
108.7835152336309
 10
209.7205446626876
 20
108.7508432033964
 10
209.6525966513312
 20
108.7174003935806
 10
209.5846262408809
 20
108.6831902473391
 10
209.5166395751266
 20
108.6482162708226
 10
209.4486427804431
 20
108.612482032211
 10
209.3806420692148
 20
108.5759912167087
 10
209.3126435541214
 20
108.5387475284853
 10
209.244653303291
 20
108.5007547162278
 10
209.176677368984
 20
108.4620165871676
 10
209.1087217879153
 20
108.4225370064142
 10
209.0407925815644
 20
108.3823198963346
 10
208.9728957564708
 20
108.3413692359744
 10
208.905037304513
 20
108.2996890605196
 10
208.8372232031659
 20
108.2572834607925
 10
208.7694594157409
 20
108.2141565827819
 10
208.7017518916003
 20
108.1703126272024
 10
208.634106566352
 20
108.1257558490817
 10
208.5665293620178
 20
108.0804905573715
 10
208.4990261871785
 20
108.0345211145813
 10
208.431602937095
 20
107.9878519364314
 10
208.364265493802
 20
107.9404874915222
 10
208.2970197261802
 20
107.8924323010203
 10
208.2298714900002
 20
107.8436909383561
 10
208.1628266279433
 20
107.7942680289322
 10
208.0958909695984
 20
107.7441682498429
 10
208.0290703314338
 20
107.6933963295991
 10
207.9623705167462
 20
107.6419570478602
 10
207.8957973155862
 20
107.58985523517
 10
207.8293565046617
 20
107.537095772696
 10
207.7630538472201
 20
107.4836835919707
 10
207.6968950929086
 20
107.4296236746327
 10
207.6308859776148
 20
107.3749210521686
 10
207.5650322232879
 20
107.3195808056529
 10
207.4993395377399
 20
107.2636080654849
 10
207.4338136144309
 20
107.2070080111245
 10
207.3684601322346
 20
107.1497858708219
 10
207.3032847551904
 20
107.0919469213451
 10
207.2382931322366
 20
107.0334964877004
 10
207.1734908969304
 20
106.9744399428481
 10
207.1088836671545
 20
106.9147827074127
 10
207.0444770448086
 20
106.854530249386
 10
206.9802766154888
 20
106.7936880838228
 10
206.9162879481561
 20
106.7322617725308
 10
206.8525165947921
 20
106.6702569237519
 10
206.7889680900451
 20
106.6076791918359
 10
206.7256479508661
 20
106.5445342769071
 10
206.662561676136
 20
106.4808279245218
 10
206.5997147462835
 20
106.4165659253187
 10
206.5371126228954
 20
106.3517541146593
 10
206.4747607483198
 20
106.2863983722618
 10
206.4126645452623
 20
106.2205046218255
 10
206.3508294163758
 20
106.1540788306464
 10
206.2892607438449
 20
106.0871270092253
 10
206.2279638889651
 20
106.0196552108666
 10
206.1669441917171
 20
105.9516695312689
 10
206.1062069703372
 20
105.8831761081069
 10
206.0457575208837
 20
105.8141811206052
 10
205.9856011168006
 20
105.7446907891041
 10
205.9257430084773
 20
105.6747113746158
 10
205.8661884228075
 20
105.6042491783742
 10
205.8069425627441
 20
105.5333105413752
 10
205.7480106068546
 20
105.46190184391
 10
205.6893977088731
 20
105.3900295050894
 10
205.6311089972527
 20
105.317699982362
 10
205.5731495747167
 20
105.244919771023
 10
205.51552451781
 20
105.1716954037166
 10
205.4582388764499
 20
105.0980334499312
 10
205.401297673477
 20
105.023940515486
 10
205.344705904208
 20
104.9494232420123
 10
205.2884685359878
 20
104.8744883064265
 10
205.2325905077437
 20
104.7991424203974
 10
205.17707672954
 20
104.7233923298053
 10
205.1219320821357
 20
104.6472448141966
 10
205.0671614165425
 20
104.5707066862305
 10
205.0127695535853
 20
104.49378479112
 10
204.9587612834658
 20
104.4164860060673
 10
204.9051413653271
 20
104.3388172396926
 10
204.8519145268223
 20
104.2607854314582
 10
204.7990854636851
 20
104.1823975510856
 10
204.7466588393034
 20
104.1036605979687
 10
204.6946392842969
 20
104.0245816005812
 10
204.6430313960971
 20
103.945167615878
 10
204.5918397385316
 20
103.8654257286942
 10
204.5410688414116
 20
103.7853630511367
 10
204.4907232001227
 20
103.704986721972
 10
204.4408072752218
 20
103.6243039060117
 10
204.3913254920353
 20
103.5433217934902
 10
204.3422822402638
 20
103.4620475994416
 10
204.2936818735896
 20
103.3804885630709
 10
204.2455287092902
 20
103.2986519471219
 10
204.197827027855
 20
103.2165450372422
 10
204.1505810726077
 20
103.1341751413437
 10
204.1037950599293
 20
103.0515496077955
 10
204.0574731674263
 20
102.9686758053689
 10
204.0116195240731
 20
102.8855611052139
 10
203.9662382202051
 20
102.8022128981385
 10
203.9213333071652
 20
102.7186385939538
 10
203.8769087969572
 20
102.6348456208194
 10
203.8329686619054
 20
102.5508414245873
 10
203.7895168343175
 20
102.4666334681409
 10
203.746557206155
 20
102.3822292307353
 10
203.7040936287093
 20
102.2976362073348
 10
203.662129912282
 20
102.2128619079485
 10
203.6206698258733
 20
102.1279138569669
 10
203.5797170968747
 20
102.0427995924953
 10
203.5392754107686
 20
101.9575266656879
 10
203.4993484108336
 20
101.8721026400817
 10
203.4599396978566
 20
101.7865350909286
 10
203.4210528298502
 20
101.7008316045301
 10
203.3826913217771
 20
101.6149997775689
 10
203.3448586452811
 20
101.5290472164451
 10
203.3075582284237
 20
101.4429815366091
 10
203.2707934554278
 20
101.3568103618989
 10
203.2345676664272
 20
101.2705413238752
 10
203.198884157224
 20
101.1841820611628
 10
203.1637461790508
 20
101.0977402187881
 10
203.1291569383406
 20
101.0112234475235
 10
203.0951195965033
 20
100.9246394032316
 10
203.061637269708
 20
100.8379957462128
 10
203.028713028673
 20
100.7513001405558
 10
202.9963498984612
 20
100.6645602534917
 10
202.9645508582832
 20
100.577783754751
 10
202.9333188413061
 20
100.4909783159255
 10
202.9026567344692
 20
100.4041516098336
 10
202.8725673783062
 20
100.3173113098908
 10
202.8430535667737
 20
100.2304650894849
 10
202.8141180470858
 20
100.1436206213568
 10
202.7857635195553
 20
100.0567855769867
 10
202.7579926374412
 20
99.96996762598748
 10
202.7308080068015
 20
99.88317443550241
 10
202.7042121863524
 20
99.79641366961242
 10
202.6782076873336
 20
99.70969298874918
 10
202.6527969733784
 20
99.623020049116
 10
202.6279824603895
 20
99.53640250211778
 10
202.6037665164202
 20
99.44984799379894
 10
202.5801514615602
 20
99.36336416429076
 10
202.5571395678264
 20
99.27695864726824
 10
202.5347330590577
 20
99.19063906941767
 10
202.512934110814
 20
99.1044130499138
 10
202.4917448502792
 20
99.01828819990845
 10
202.4711673561671
 20
98.93227212203158
 10
202.4512036586307
 20
98.84637240990347
 10
202.4318557391731
 20
98.76059664765918
 10
202.4131255305614
 20
98.67495240948753
 10
202.3950149167416
 20
98.58944725918283
 10
202.3775257327542
 20
98.5040887497107
 10
202.3606597646498
 20
98.41888442278851
 10
202.3444187494054
 20
98.33384180848167
 10
202.328804374838
 20
98.24896842481482
 10
202.3138182795176
 20
98.16427177739979
 10
202.2994620526765
 20
98.07975935907952
 10
202.2857372341155
 20
97.99543864958954
 10
202.2726453141053
 20
97.91131711523704
 10
202.260187733282
 20
97.82740220859685
 10
202.2483658825366
 20
97.74370136822752
 10
202.2371811028959
 20
97.6602220184036
 10
202.2266346853949
 20
97.57697156886871
 10
202.2167278709384
 20
97.49395741460708
 10
202.2074618501514
 20
97.41118693563381
 10
202.1988377632157
 20
97.32866749680467
 10
202.1908566996925
 20
97.2464064476458
 10
202.1835196983288
 20
97.16441112220166
 10
202.1768277468449
 20
97.08268883890351
 10
202.1707817817037
 20
97.00124690045403
 10
202.1653826878578
 20
96.92009259373323
 10
202.1606312984735
 20
96.8392331897203
 10
202.1565283946296
 20
96.75867594343282
 10
202.1530747049891
 20
96.67842809388254
 10
202.150270905442
 20
96.59849686404557
 10
202.1481176187161
 20
96.51888946084819
 10
202.1466154139552
 20
96.43961307516236
 10
202.1457648062617
 20
96.36067488181361
 10
202.1455662562007
 20
96.28208203959791
 10
202.1460201692656
 20
96.20384169130439
 10
202.1471268953008
 20
96.1259609637415
 10
202.148886727881
 20
96.04844696776655
 10
202.1512999036442
 20
95.97130679831045
 10
202.1543666015769
 20
95.89454753439952
 10
202.1580869422497
 20
95.8181762391666
 10
202.1624609848304
 20
95.74219999484657
 10
202.1674887210858
 20
95.66662595277596
 10
202.1731700864133
 20
95.5914611354415
 10
202.1795049538463
 20
95.51671254930524
 10
202.1864931330101
 20
95.44238718467889
 10
202.1941343690216
 20
95.36849201555317
 10
202.2024283413346
 20
95.29503399937467
 10
202.2113746625317
 20
95.22202007676626
 10
202.2209728770626
 20
95.14945717118648
 10
202.2312224599324
 20
95.07735218851387
 10
202.2421228153405
 20
95.00571201655505
 10
202.2536732752757
 20
94.93454352446257
 10
202.2658730980698
 20
94.86385356205751
 10
202.2787214669142
 20
94.79364895904769
 10
202.2922174883481
 20
94.72393652413164
 10
202.3063601907204
 20
94.6547230439813
 10
202.3211485226378
 20
94.5860152820936
 10
202.3365813514041
 20
94.51781997750355
 10
202.3526574614621
 20
94.45014384335094
 10
202.3693755528492
 20
94.38299356529323
 10
202.3867342396768
 20
94.31637579975752
 10
202.4047320486489
 20
94.25029717202676
 10
202.4233674176316
 20
94.18476427415405
 10
202.4426386942902
 20
94.11978366270284
 10
202.4625441348086
 20
94.05536185630955
 10
202.4830819027088
 20
93.99150533306803
 10
202.504250067787
 20
93.92822052773778
 10
202.5260466051859
 20
93.86551382877695
 10
202.5484693946196
 20
93.80339157520727
 10
202.5715162197724
 20
93.74186005331657
 10
202.5951847678884
 20
93.6809254932085
 10
202.619472629572
 20
93.62059406521261
 10
202.644377298816
 20
93.56087187616875
 10
202.6698961732767
 20
93.50176496560297
 10
202.6960265548105
 20
93.44327930181565
 10
202.7227656502883
 20
93.38542077790414
 10
202.7501105727004
 20
93.32819520774535
 10
202.7780583425639
 20
93.27160832196614
 10
202.8066058896398
 20
93.21566576393218
 10
202.8357500549693
 20
93.16037308578555
 10
202.8654875932287
 20
93.1057357445685
 10
202.8958151754059
 20
93.05175909846506
 10
202.9267293917936
 20
92.99844840319939
 10
202.9582267552928
 20
92.9458088086275
 10
202.9903037050145
 20
92.8938453555591
 10
203.0229566101663
 20
92.84256297284637
 10
203.0561817742036
 20
92.7919664747759
 10
203.0899754392224
 20
92.74206055879834
 10
203.124333790569
 20
92.69284980362626
 10
203.1592529616327
 20
92.64433866773241
 10
203.1947290387919
 20
92.59653148827188
 10
203.2307580664719
 20
92.54943248045257
 10
203.2673360522788
 20
92.50304573737121
 10
203.3044589721643
 20
92.4573752303287
 10
203.342122775579
 20
92.41242480963356
 10
203.3803233905678
 20
92.36819820589625
 10
203.4190567287619
 20
92.32469903181209
 10
203.4583186902202
 20
92.28193078442523
 10
203.4981051680749
 20
92.23989684785899
 10
203.5384120529354
 20
92.1986004964943
 10
203.5792352370074
 20
92.15804489857052
 10
203.6205706178855
 20
92.11823312017958
 10
203.6624141019813
 20
92.07916812961703
 10
203.7047616075509
 20
92.0408528020519
 10
203.7476090672896
 20
92.00328992447132
 10
203.7909524304676
 20
91.96648220085235
 10
203.8347876645815
 20
91.93043225751182
 10
203.8791107565049
 20
91.89514264858099
 10
203.9239177131228
 20
91.86061586155205
 10
203.9692045614427
 20
91.82685432283976
 10
204.0149673481795
 20
91.79386040330441
 10
204.0612021388139
 20
91.76163642367979
 10
204.1079050161361
 20
91.73018465985213
 10
204.1550720782824
 20
91.69950734793757
 10
204.2026994362877
 20
91.66960668910686
 10
204.2507832111724
 20
91.64048485410987
 10
204.2747804183978
 20
91.62634199935908
  0
DIMENSION
  5
B1
330
1F
100
AcDbEntity
  8
Annotations
  6
Continuous
370
    15
100
AcDbDimension
280
     0
  2
*D2
 10
77.05281533163804
 20
167.0922550046393
 30
0.0
 11
104.9920446296593
 21
160.0557052314375
 31
0.0
 70
   163
 71
     5
 42
4.0
 73
     0
 74
     0
 75
     0
  3
ISO-25
100
AcDbDiametricDimension
 15
96.44718466836196
 25
162.2077449953607
 35
0.0
 40
0.0
1001
ACAD
1000
DSTYLE
1002
{
1070
   144
1040
0.2
1070
   278
1070
    44
1070
    78
1070
     8
1070
   271
1070
     2
1070
   340
1005
67
1070
   283
1070
     1
1070
   146
1040
0.6
1070
   272
1070
     8
1070
   274
1070
     8
1070
   179
1070
     2
1070
    48
1040
0.0
1070
    47
1040
0.0
1070
    72
1070
     0
1070
    71
1070
     0
1070
    40
1040
1.0
1070
   276
1070
     2
1070
   147
1040
0.7
1070
   371
1070
    15
1070
   372
1070
    15
1002
}
  0
DIMENSION
  5
BE
330
1F
100
AcDbEntity
  8
Annotations
  6
Continuous
370
    15
100
AcDbDimension
280
     0
  2
*D3
 10
79.49360906436695
 20
162.7540067011557
 30
0.0
 11
106.9976555825091
 21
169.940428760285
 31
0.0
 70
   163
 71
     5
 42
3.0
 73
     0
 74
     0
 75
     0
  3
ISO-25
100
AcDbDiametricDimension
 15
94.00639093563305
 25
166.5459932988443
 35
0.0
 40
0.0
1001
ACAD
1000
DSTYLE
1002
{
1070
   144
1040
0.2
1070
   278
1070
    44
1070
    78
1070
     8
1070
   271
1070
     2
1070
   340
1005
67
1070
   283
1070
     1
1070
   146
1040
0.6
1070
   272
1070
     8
1070
   274
1070
     8
1070
   179
1070
     2
1070
    48
1040
0.0
1070
    47
1040
0.0
1070
    72
1070
     0
1070
    71
1070
     0
1070
    40
1040
1.0
1070
   276
1070
     2
1070
   147
1040
0.7
1070
   371
1070
    15
1070
   372
1070
    15
1002
}
  0
DIMENSION
  5
CA
330
1F
100
AcDbEntity
  8
Annotations
  6
Continuous
370
    15
100
AcDbDimension
280
     0
  2
*D4
 10
111.3182601928711
 20
109.7
 30
0.0
 11
111.3182601928711
 21
93.48377437591552
 31
0.0
 70
   160
 71
     5
 42
6.300000000000001
 73
     0
 74
     0
 75
     0
  3
ISO-25
100
AcDbAlignedDimension
 13
96.5
 23
78.19999999999999
 33
0.0
 14
96.5
 24
109.7
 34
0.0
 50
-90.0
100
AcDbRotatedDimension
1001
ACAD
1000
DSTYLE
1002
{
1070
   144
1040
0.2
1070
    76
1070
     0
1070
    75
1070
     0
1070
   278
1070
    44
1070
    78
1070
     8
1070
   271
1070
     2
1070
   340
1005
69
1070
   283
1070
     1
1070
   146
1040
0.6
1070
   272
1070
     8
1070
   274
1070
     8
1070
   179
1070
     2
1070
    48
1040
0.0
1070
    47
1040
0.0
1070
    72
1070
     0
1070
    71
1070
     0
1070
    40
1040
1.0
1070
   276
1070
     2
1070
   147
1040
0.7
1070
   371
1070
    15
1070
   372
1070
    15
1002
}
  0
LINE
  5
D7
330
1F
100
AcDbEntity
  8
Border
  6
Continuous
370
    15
100
AcDbLine
 10
20.0
 20
10.0
 30
0.0
 11
287.0
 21
10.0
 31
0.0
  0
LINE
  5
D8
330
1F
100
AcDbEntity
  8
Border
  6
Continuous
370
    15
100
AcDbLine
 10
287.0
 20
10.0
 30
0.0
 11
287.0
 21
200.0
 31
0.0
  0
LINE
  5
D9
330
1F
100
AcDbEntity
  8
Border
  6
Continuous
370
    15
100
AcDbLine
 10
287.0
 20
200.0
 30
0.0
 11
20.0
 21
200.0
 31
0.0
  0
LINE
  5
DA
330
1F
100
AcDbEntity
  8
Border
  6
Continuous
370
    15
100
AcDbLine
 10
20.0
 20
200.0
 30
0.0
 11
20.0
 21
10.0
 31
0.0
  0
LINE
  5
DB
330
1F
100
AcDbEntity
  8
Border
  6
Continuous
370
    15
100
AcDbLine
 10
153.5
 20
15.0
 30
0.0
 11
153.5
 21
5.0
 31
0.0
  0
LINE
  5
DC
330
1F
100
AcDbEntity
  8
Border
  6
Continuous
370
    15
100
AcDbLine
 10
203.5
 20
10.0
 30
0.0
 11
203.5
 21
5.0
 31
0.0
  0
LINE
  5
DD
330
1F
100
AcDbEntity
  8
Border
  6
Continuous
370
    15
100
AcDbLine
 10
103.5
 20
10.0
 30
0.0
 11
103.5
 21
5.0
 31
0.0
  0
LINE
  5
DE
330
1F
100
AcDbEntity
  8
Border
  6
Continuous
370
    15
100
AcDbLine
 10
253.5
 20
10.0
 30
0.0
 11
253.5
 21
5.0
 31
0.0
  0
LINE
  5
DF
330
1F
100
AcDbEntity
  8
Border
  6
Continuous
370
    15
100
AcDbLine
 10
53.5
 20
10.0
 30
0.0
 11
53.5
 21
5.0
 31
0.0
  0
MTEXT
  5
E0
330
1F
100
AcDbEntity
  8
Border
  6
Continuous
370
    15
100
AcDbMText
 10
36.75
 20
8.69625
 30
0.0
 40
2.3925
 41
2.3925
 46
2.3925
 71
     2
 72
     1
  1
1
  7
Shapr0
 73
     1
 44
1.0
1001
ACAD
1000
ACAD_MTEXT_DEFINED_HEIGHT_BEGIN
1070
    46
1040
2.3925
1000
ACAD_MTEXT_DEFINED_HEIGHT_END
  0
MTEXT
  5
E1
330
1F
100
AcDbEntity
  8
Border
  6
Continuous
370
    15
100
AcDbMText
 10
78.5
 20
8.69625
 30
0.0
 40
2.3925
 41
2.3925
 46
2.3925
 71
     2
 72
     1
  1
2
  7
Shapr0
 73
     1
 44
1.0
1001
ACAD
1000
ACAD_MTEXT_DEFINED_HEIGHT_BEGIN
1070
    46
1040
2.3925
1000
ACAD_MTEXT_DEFINED_HEIGHT_END
  0
MTEXT
  5
E2
330
1F
100
AcDbEntity
  8
Border
  6
Continuous
370
    15
100
AcDbMText
 10
128.5
 20
8.69625
 30
0.0
 40
2.3925
 41
2.3925
 46
2.3925
 71
     2
 72
     1
  1
3
  7
Shapr0
 73
     1
 44
1.0
1001
ACAD
1000
ACAD_MTEXT_DEFINED_HEIGHT_BEGIN
1070
    46
1040
2.3925
1000
ACAD_MTEXT_DEFINED_HEIGHT_END
  0
MTEXT
  5
E3
330
1F
100
AcDbEntity
  8
Border
  6
Continuous
370
    15
100
AcDbMText
 10
178.5
 20
8.69625
 30
0.0
 40
2.3925
 41
2.3925
 46
2.3925
 71
     2
 72
     1
  1
4
  7
Shapr0
 73
     1
 44
1.0
1001
ACAD
1000
ACAD_MTEXT_DEFINED_HEIGHT_BEGIN
1070
    46
1040
2.3925
1000
ACAD_MTEXT_DEFINED_HEIGHT_END
  0
MTEXT
  5
E4
330
1F
100
AcDbEntity
  8
Border
  6
Continuous
370
    15
100
AcDbMText
 10
228.5
 20
8.69625
 30
0.0
 40
2.3925
 41
2.3925
 46
2.3925
 71
     2
 72
     1
  1
5
  7
Shapr0
 73
     1
 44
1.0
1001
ACAD
1000
ACAD_MTEXT_DEFINED_HEIGHT_BEGIN
1070
    46
1040
2.3925
1000
ACAD_MTEXT_DEFINED_HEIGHT_END
  0
MTEXT
  5
E5
330
1F
100
AcDbEntity
  8
Border
  6
Continuous
370
    15
100
AcDbMText
 10
270.25
 20
8.69625
 30
0.0
 40
2.3925
 41
2.3925
 46
2.3925
 71
     2
 72
     1
  1
6
  7
Shapr0
 73
     1
 44
1.0
1001
ACAD
1000
ACAD_MTEXT_DEFINED_HEIGHT_BEGIN
1070
    46
1040
2.3925
1000
ACAD_MTEXT_DEFINED_HEIGHT_END
  0
LINE
  5
E6
330
1F
100
AcDbEntity
  8
Border
  6
Continuous
370
    15
100
AcDbLine
 10
282.0
 20
105.0
 30
0.0
 11
292.0
 21
105.0
 31
0.0
  0
LINE
  5
E7
330
1F
100
AcDbEntity
  8
Border
  6
Continuous
370
    15
100
AcDbLine
 10
287.0
 20
155.0
 30
0.0
 11
292.0
 21
155.0
 31
0.0
  0
LINE
  5
E8
330
1F
100
AcDbEntity
  8
Border
  6
Continuous
370
    15
100
AcDbLine
 10
287.0
 20
55.0
 30
0.0
 11
292.0
 21
55.0
 31
0.0
  0
MTEXT
  5
E9
330
1F
100
AcDbEntity
  8
Border
  6
Continuous
370
    15
100
AcDbMText
 10
288.30375
 20
32.5
 30
0.0
 40
2.3925
 41
2.3925
 46
2.3925
 71
     4
 72
     1
  1
D
  7
Shapr0
 73
     1
 44
1.0
1001
ACAD
1000
ACAD_MTEXT_DEFINED_HEIGHT_BEGIN
1070
    46
1040
2.3925
1000
ACAD_MTEXT_DEFINED_HEIGHT_END
  0
MTEXT
  5
EA
330
1F
100
AcDbEntity
  8
Border
  6
Continuous
370
    15
100
AcDbMText
 10
288.30375
 20
80.0
 30
0.0
 40
2.3925
 41
2.3925
 46
2.3925
 71
     4
 72
     1
  1
C
  7
Shapr0
 73
     1
 44
1.0
1001
ACAD
1000
ACAD_MTEXT_DEFINED_HEIGHT_BEGIN
1070
    46
1040
2.3925
1000
ACAD_MTEXT_DEFINED_HEIGHT_END
  0
MTEXT
  5
EB
330
1F
100
AcDbEntity
  8
Border
  6
Continuous
370
    15
100
AcDbMText
 10
288.30375
 20
130.0
 30
0.0
 40
2.3925
 41
2.3925
 46
2.3925
 71
     4
 72
     1
  1
B
  7
Shapr0
 73
     1
 44
1.0
1001
ACAD
1000
ACAD_MTEXT_DEFINED_HEIGHT_BEGIN
1070
    46
1040
2.3925
1000
ACAD_MTEXT_DEFINED_HEIGHT_END
  0
MTEXT
  5
EC
330
1F
100
AcDbEntity
  8
Border
  6
Continuous
370
    15
100
AcDbMText
 10
288.30375
 20
177.5
 30
0.0
 40
2.3925
 41
2.3925
 46
2.3925
 71
     4
 72
     1
  1
A
  7
Shapr0
 73
     1
 44
1.0
1001
ACAD
1000
ACAD_MTEXT_DEFINED_HEIGHT_BEGIN
1070
    46
1040
2.3925
1000
ACAD_MTEXT_DEFINED_HEIGHT_END
  0
LINE
  5
ED
330
1F
100
AcDbEntity
  8
Border
  6
Continuous
370
    15
100
AcDbLine
 10
153.5
 20
195.0
 30
0.0
 11
153.5
 21
205.0
 31
0.0
  0
LINE
  5
EE
330
1F
100
AcDbEntity
  8
Border
  6
Continuous
370
    15
100
AcDbLine
 10
103.5
 20
200.0
 30
0.0
 11
103.5
 21
205.0
 31
0.0
  0
LINE
  5
EF
330
1F
100
AcDbEntity
  8
Border
  6
Continuous
370
    15
100
AcDbLine
 10
203.5
 20
200.0
 30
0.0
 11
203.5
 21
205.0
 31
0.0
  0
LINE
  5
F0
330
1F
100
AcDbEntity
  8
Border
  6
Continuous
370
    15
100
AcDbLine
 10
53.5
 20
200.0
 30
0.0
 11
53.5
 21
205.0
 31
0.0
  0
LINE
  5
F1
330
1F
100
AcDbEntity
  8
Border
  6
Continuous
370
    15
100
AcDbLine
 10
253.5
 20
200.0
 30
0.0
 11
253.5
 21
205.0
 31
0.0
  0
MTEXT
  5
F2
330
1F
100
AcDbEntity
  8
Border
  6
Continuous
370
    15
100
AcDbMText
 10
270.25
 20
201.30375
 30
0.0
 40
2.3925
 41
2.3925
 46
2.3925
 71
     8
 72
     1
  1
6
  7
Shapr0
 73
     1
 44
1.0
1001
ACAD
1000
ACAD_MTEXT_DEFINED_HEIGHT_BEGIN
1070
    46
1040
2.3925
1000
ACAD_MTEXT_DEFINED_HEIGHT_END
  0
MTEXT
  5
F3
330
1F
100
AcDbEntity
  8
Border
  6
Continuous
370
    15
100
AcDbMText
 10
228.5
 20
201.30375
 30
0.0
 40
2.3925
 41
2.3925
 46
2.3925
 71
     8
 72
     1
  1
5
  7
Shapr0
 73
     1
 44
1.0
1001
ACAD
1000
ACAD_MTEXT_DEFINED_HEIGHT_BEGIN
1070
    46
1040
2.3925
1000
ACAD_MTEXT_DEFINED_HEIGHT_END
  0
MTEXT
  5
F4
330
1F
100
AcDbEntity
  8
Border
  6
Continuous
370
    15
100
AcDbMText
 10
178.5
 20
201.30375
 30
0.0
 40
2.3925
 41
2.3925
 46
2.3925
 71
     8
 72
     1
  1
4
  7
Shapr0
 73
     1
 44
1.0
1001
ACAD
1000
ACAD_MTEXT_DEFINED_HEIGHT_BEGIN
1070
    46
1040
2.3925
1000
ACAD_MTEXT_DEFINED_HEIGHT_END
  0
MTEXT
  5
F5
330
1F
100
AcDbEntity
  8
Border
  6
Continuous
370
    15
100
AcDbMText
 10
128.5
 20
201.30375
 30
0.0
 40
2.3925
 41
2.3925
 46
2.3925
 71
     8
 72
     1
  1
3
  7
Shapr0
 73
     1
 44
1.0
1001
ACAD
1000
ACAD_MTEXT_DEFINED_HEIGHT_BEGIN
1070
    46
1040
2.3925
1000
ACAD_MTEXT_DEFINED_HEIGHT_END
  0
MTEXT
  5
F6
330
1F
100
AcDbEntity
  8
Border
  6
Continuous
370
    15
100
AcDbMText
 10
78.5
 20
201.30375
 30
0.0
 40
2.3925
 41
2.3925
 46
2.3925
 71
     8
 72
     1
  1
2
  7
Shapr0
 73
     1
 44
1.0
1001
ACAD
1000
ACAD_MTEXT_DEFINED_HEIGHT_BEGIN
1070
    46
1040
2.3925
1000
ACAD_MTEXT_DEFINED_HEIGHT_END
  0
MTEXT
  5
F7
330
1F
100
AcDbEntity
  8
Border
  6
Continuous
370
    15
100
AcDbMText
 10
36.75
 20
201.30375
 30
0.0
 40
2.3925
 41
2.3925
 46
2.3925
 71
     8
 72
     1
  1
1
  7
Shapr0
 73
     1
 44
1.0
1001
ACAD
1000
ACAD_MTEXT_DEFINED_HEIGHT_BEGIN
1070
    46
1040
2.3925
1000
ACAD_MTEXT_DEFINED_HEIGHT_END
  0
LINE
  5
F8
330
1F
100
AcDbEntity
  8
Border
  6
Continuous
370
    15
100
AcDbLine
 10
25.0
 20
105.0
 30
0.0
 11
15.0
 21
105.0
 31
0.0
  0
LINE
  5
F9
330
1F
100
AcDbEntity
  8
Border
  6
Continuous
370
    15
100
AcDbLine
 10
20.0
 20
55.0
 30
0.0
 11
15.0
 21
55.0
 31
0.0
  0
LINE
  5
FA
330
1F
100
AcDbEntity
  8
Border
  6
Continuous
370
    15
100
AcDbLine
 10
20.0
 20
155.0
 30
0.0
 11
15.0
 21
155.0
 31
0.0
  0
MTEXT
  5
FB
330
1F
100
AcDbEntity
  8
Border
  6
Continuous
370
    15
100
AcDbMText
 10
18.69625
 20
177.5
 30
0.0
 40
2.3925
 41
2.3925
 46
2.3925
 71
     6
 72
     1
  1
A
  7
Shapr0
 73
     1
 44
1.0
1001
ACAD
1000
ACAD_MTEXT_DEFINED_HEIGHT_BEGIN
1070
    46
1040
2.3925
1000
ACAD_MTEXT_DEFINED_HEIGHT_END
  0
MTEXT
  5
FC
330
1F
100
AcDbEntity
  8
Border
  6
Continuous
370
    15
100
AcDbMText
 10
18.69625
 20
130.0
 30
0.0
 40
2.3925
 41
2.3925
 46
2.3925
 71
     6
 72
     1
  1
B
  7
Shapr0
 73
     1
 44
1.0
1001
ACAD
1000
ACAD_MTEXT_DEFINED_HEIGHT_BEGIN
1070
    46
1040
2.3925
1000
ACAD_MTEXT_DEFINED_HEIGHT_END
  0
MTEXT
  5
FD
330
1F
100
AcDbEntity
  8
Border
  6
Continuous
370
    15
100
AcDbMText
 10
18.69625
 20
80.0
 30
0.0
 40
2.3925
 41
2.3925
 46
2.3925
 71
     6
 72
     1
  1
C
  7
Shapr0
 73
     1
 44
1.0
1001
ACAD
1000
ACAD_MTEXT_DEFINED_HEIGHT_BEGIN
1070
    46
1040
2.3925
1000
ACAD_MTEXT_DEFINED_HEIGHT_END
  0
MTEXT
  5
FE
330
1F
100
AcDbEntity
  8
Border
  6
Continuous
370
    15
100
AcDbMText
 10
18.69625
 20
32.5
 30
0.0
 40
2.3925
 41
2.3925
 46
2.3925
 71
     6
 72
     1
  1
D
  7
Shapr0
 73
     1
 44
1.0
1001
ACAD
1000
ACAD_MTEXT_DEFINED_HEIGHT_BEGIN
1070
    46
1040
2.3925
1000
ACAD_MTEXT_DEFINED_HEIGHT_END
  0
INSERT
  5
119
330
1F
100
AcDbEntity
  8
0
100
AcDbBlockReference
  2
*U5
 10
0.0
 20
0.0
 30
0.0
  0
MTEXT
  5
11A
330
1F
100
AcDbEntity
  8
Border
  6
Continuous
370
    15
100
AcDbMText
 10
177.6
 20
54.32955
 30
0.0
 40
1.77045
 41
0.0
 46
1.77045
 71
     7
 72
     1
  1
TITLE
  7
Shapr1
 73
     1
 44
1.0
1001
ACAD
1000
ACAD_MTEXT_DEFINED_HEIGHT_BEGIN
1070
    46
1040
1.77045
1000
ACAD_MTEXT_DEFINED_HEIGHT_END
  0
MTEXT
  5
11B
330
1F
100
AcDbEntity
  8
Border
  6
Continuous
370
    15
100
AcDbMText
 10
177.6
 20
46.46566106382978
 30
0.0
 40
5.06253
 41
0.0
 46
5.06253
 71
     7
 72
     1
  1
Front retainer
  7
Shapr1
 73
     1
 44
1.0
1001
ACAD
1000
ACAD_MTEXT_DEFINED_HEIGHT_BEGIN
1070
    46
1040
5.06253
1000
ACAD_MTEXT_DEFINED_HEIGHT_END
  0
MTEXT
  5
11C
330
1F
100
AcDbEntity
  8
Border
  6
Continuous
370
    15
100
AcDbMText
 10
177.6
 20
38.09188085106383
 30
0.0
 40
1.77045
 41
0.0
 46
1.77045
 71
     7
 72
     1
  1
LAST UPDATED
  7
Shapr1
 73
     1
 44
1.0
1001
ACAD
1000
ACAD_MTEXT_DEFINED_HEIGHT_BEGIN
1070
    46
1040
1.77045
1000
ACAD_MTEXT_DEFINED_HEIGHT_END
  0
MTEXT
  5
11D
330
1F
100
AcDbEntity
  8
Border
  6
Continuous
370
    15
100
AcDbMText
 10
177.6
 20
29.85635012765957
 30
0.0
 40
5.06253
 41
0.0
 46
5.06253
 71
     7
 72
     1
  1
11/18/22
  7
Shapr1
 73
     1
 44
1.0
1001
ACAD
1000
ACAD_MTEXT_DEFINED_HEIGHT_BEGIN
1070
    46
1040
5.06253
1000
ACAD_MTEXT_DEFINED_HEIGHT_END
  0
MTEXT
  5
11E
330
1F
100
AcDbEntity
  8
Border
  6
Continuous
370
    15
100
AcDbMText
 10
227.0
 20
38.09188085106383
 30
0.0
 40
1.77045
 41
0.0
 46
1.77045
 71
     7
 72
     1
  1
UNITS
  7
Shapr1
 73
     1
 44
1.0
1001
ACAD
1000
ACAD_MTEXT_DEFINED_HEIGHT_BEGIN
1070
    46
1040
1.77045
1000
ACAD_MTEXT_DEFINED_HEIGHT_END
  0
MTEXT
  5
11F
330
1F
100
AcDbEntity
  8
Border
  6
Continuous
370
    15
100
AcDbMText
 10
227.0
 20
30.33747
 30
0.0
 40
5.06253
 41
0.0
 46
5.06253
 71
     7
 72
     1
  1
mm
  7
Shapr1
 73
     1
 44
1.0
1001
ACAD
1000
ACAD_MTEXT_DEFINED_HEIGHT_BEGIN
1070
    46
1040
5.06253
1000
ACAD_MTEXT_DEFINED_HEIGHT_END
  0
MTEXT
  5
120
330
1F
100
AcDbEntity
  8
Border
  6
Continuous
370
    15
100
AcDbMText
 10
258.75
 20
38.09188085106383
 30
0.0
 40
1.77045
 41
0.0
 46
1.77045
 71
     7
 72
     1
  1
SHEET
  7
Shapr1
 73
     1
 44
1.0
1001
ACAD
1000
ACAD_MTEXT_DEFINED_HEIGHT_BEGIN
1070
    46
1040
1.77045
1000
ACAD_MTEXT_DEFINED_HEIGHT_END
  0
MTEXT
  5
121
330
1F
100
AcDbEntity
  8
Border
  6
Continuous
370
    15
100
AcDbMText
 10
258.75
 20
29.85635012765957
 30
0.0
 40
5.06253
 41
0.0
 46
5.06253
 71
     7
 72
     1
  1
1 / 1
  7
Shapr1
 73
     1
 44
1.0
1001
ACAD
1000
ACAD_MTEXT_DEFINED_HEIGHT_BEGIN
1070
    46
1040
5.06253
1000
ACAD_MTEXT_DEFINED_HEIGHT_END
  0
MTEXT
  5
122
330
1F
100
AcDbEntity
  8
Border
  6
Continuous
370
    15
100
AcDbMText
 10
177.6
 20
21.89188085106383
 30
0.0
 40
1.77045
 41
0.0
 46
1.77045
 71
     7
 72
     1
  1
FIRST ANGLE PROJECTION
  7
Shapr1
 73
     1
 44
1.0
1001
ACAD
1000
ACAD_MTEXT_DEFINED_HEIGHT_BEGIN
1070
    46
1040
1.77045
1000
ACAD_MTEXT_DEFINED_HEIGHT_END
  0
MTEXT
  5
123
330
1F
100
AcDbEntity
  8
Border
  6
Continuous
370
    15
100
AcDbMText
 10
177.6
 20
14.13747
 30
0.0
 40
5.06253
 41
0.0
 46
5.06253
 71
     7
 72
     1
  1

  7
Shapr1
 73
     1
 44
1.0
1001
ACAD
1000
ACAD_MTEXT_DEFINED_HEIGHT_BEGIN
1070
    46
1040
5.06253
1000
ACAD_MTEXT_DEFINED_HEIGHT_END
  0
MTEXT
  5
124
330
1F
100
AcDbEntity
  8
Border
  6
Continuous
370
    15
100
AcDbMText
 10
227.0
 20
21.89188085106383
 30
0.0
 40
1.77045
 41
0.0
 46
1.77045
 71
     7
 72
     1
  1
SCALE
  7
Shapr1
 73
     1
 44
1.0
1001
ACAD
1000
ACAD_MTEXT_DEFINED_HEIGHT_BEGIN
1070
    46
1040
1.77045
1000
ACAD_MTEXT_DEFINED_HEIGHT_END
  0
MTEXT
  5
125
330
1F
100
AcDbEntity
  8
Border
  6
Continuous
370
    15
100
AcDbMText
 10
227.0
 20
14.0369374893617
 30
0.0
 40
5.06253
 41
0.0
 46
5.06253
 71
     7
 72
     1
  1
5:1
  7
Shapr1
 73
     1
 44
1.0
1001
ACAD
1000
ACAD_MTEXT_DEFINED_HEIGHT_BEGIN
1070
    46
1040
5.06253
1000
ACAD_MTEXT_DEFINED_HEIGHT_END
  0
MTEXT
  5
126
330
1F
100
AcDbEntity
  8
Border
  6
Continuous
370
    15
100
AcDbMText
 10
258.75
 20
21.89188085106383
 30
0.0
 40
1.77045
 41
0.0
 46
1.77045
 71
     7
 72
     1
  1
SIZE
  7
Shapr1
 73
     1
 44
1.0
1001
ACAD
1000
ACAD_MTEXT_DEFINED_HEIGHT_BEGIN
1070
    46
1040
1.77045
1000
ACAD_MTEXT_DEFINED_HEIGHT_END
  0
MTEXT
  5
127
330
1F
100
AcDbEntity
  8
Border
  6
Continuous
370
    15
100
AcDbMText
 10
258.75
 20
14.13747
 30
0.0
 40
5.06253
 41
0.0
 46
5.06253
 71
     7
 72
     1
  1
A4
  7
Shapr1
 73
     1
 44
1.0
1001
ACAD
1000
ACAD_MTEXT_DEFINED_HEIGHT_BEGIN
1070
    46
1040
5.06253
1000
ACAD_MTEXT_DEFINED_HEIGHT_END
  0
VIEWPORT
  5
6F
330
6B
100
AcDbEntity
 67
     1
  8
0
100
AcDbViewport
 10
148.5
 20
105.0
 30
0.0
 40
297.0
 41
210.0
 68
     1
 69
     1
 12
148.5
 22
105.0
 13
0.0
 23
0.0
 14
10.0
 24
10.0
 15
10.0
 25
10.0
 16
0.0
 26
0.0
 36
1.0
 17
0.0
 27
0.0
 37
0.0
 42
50.0
 43
0.0
 44
0.0
 45
210.0
 50
0.0
 51
0.0
 72
   100
 90
   557152
  1

281
     0
 71
     1
 74
     0
110
0.0
120
0.0
130
0.0
111
1.0
121
0.0
131
0.0
112
0.0
122
1.0
132
0.0
 79
     0
146
0.0
170
     0
 61
     5
348
2F
292
     1
282
     1
141
0.0
142
0.0
 63
   256
361
70
  0
VIEWPORT
  5
71
330
6B
100
AcDbEntity
 67
     1
  8
0
100
AcDbViewport
 10
148.5
 20
105.0
 30
0.0
 40
297.0
 41
210.0
 68
     2
 69
     2
 12
148.5
 22
105.0
 13
0.0
 23
0.0
 14
10.0
 24
10.0
 15
10.0
 25
10.0
 16
0.0
 26
0.0
 36
1.0
 17
0.0
 27
0.0
 37
0.0
 42
50.0
 43
0.0
 44
0.0
 45
210.0
 50
0.0
 51
0.0
 72
   100
 90
   557152
  1

281
     0
 71
     1
 74
     0
110
0.0
120
0.0
130
0.0
111
1.0
121
0.0
131
0.0
112
0.0
122
1.0
132
0.0
 79
     0
146
0.0
170
     0
 61
     5
348
2F
292
     1
282
     1
141
0.0
142
0.0
 63
   256
361
72
  0
ENDSEC
  0
SECTION
  2
OBJECTS
  0
DICTIONARY
  5
C
330
0
100
AcDbDictionary
281
     1
  3
ACAD_DETAILVIEWSTYLE
350
15F
  3
ACAD_GROUP
350
D
  3
ACAD_LAYOUT
350
1A
  3
ACAD_MATERIAL
350
43
  3
ACAD_MLEADERSTYLE
350
5B
  3
ACAD_MLINESTYLE
350
17
  3
ACAD_PLOTSETTINGS
350
19
  3
ACAD_PLOTSTYLENAME
350
E
  3
ACAD_SCALELIST
350
47
  3
ACAD_SECTIONVIEWSTYLE
350
160
  3
ACAD_TABLESTYLE
350
59
  3
ACAD_VISUALSTYLE
350
2A
  3
ACDB_RECOMPOSE_DATA
350
15C
  3
AcDbVariableDictionary
350
128
  0
SUN
  5
5D
330
29
100
AcDbSun
 90
        1
290
     0
 63
     7
421
 16777215
 40
1.0
291
     1
 91
  2455826
 92
 54000000
292
     0
 70
     2
 71
   256
280
     1
  0
SUN
  5
70
330
6F
100
AcDbSun
 90
        1
290
     0
 63
     7
421
 16777215
 40
1.0
291
     1
 91
  2455826
 92
 54000000
292
     0
 70
     2
 71
   256
280
     1
  0
SUN
  5
72
330
71
100
AcDbSun
 90
        1
290
     0
 63
     7
421
 16777215
 40
1.0
291
     1
 91
  2455826
 92
 54000000
292
     0
 70
     2
 71
   256
280
     1
  0
DICTIONARY
  5
15F
102
{ACAD_REACTORS
330
C
102
}
330
C
100
AcDbDictionary
281
     1
  0
DICTIONARY
  5
D
102
{ACAD_REACTORS
330
C
102
}
330
C
100
AcDbDictionary
281
     1
  0
DICTIONARY
  5
1A
102
{ACAD_REACTORS
330
C
102
}
330
C
100
AcDbDictionary
281
     1
  3
Layout1
350
1E
  3
Layout2
350
26
  3
Model
350
22
  3
Sheet
350
6C
  0
DICTIONARY
  5
43
102
{ACAD_REACTORS
330
C
102
}
330
C
100
AcDbDictionary
281
     1
  3
ByBlock
350
45
  3
ByLayer
350
44
  3
Global
350
46
  0
DICTIONARY
  5
5B
102
{ACAD_REACTORS
330
C
102
}
330
C
100
AcDbDictionary
281
     1
  3
Standard
350
5C
  0
DICTIONARY
  5
17
102
{ACAD_REACTORS
330
C
102
}
330
C
100
AcDbDictionary
281
     1
  3
Standard
350
18
  0
DICTIONARY
  5
19
102
{ACAD_REACTORS
330
C
102
}
330
C
100
AcDbDictionary
281
     1
  0
ACDBDICTIONARYWDFLT
  5
E
102
{ACAD_REACTORS
330
C
102
}
330
C
100
AcDbDictionary
281
     1
  3
Normal
350
F
100
AcDbDictionaryWithDefault
340
F
  0
DICTIONARY
  5
47
102
{ACAD_REACTORS
330
C
102
}
330
C
100
AcDbDictionary
281
     1
  3
A0
350
48
  3
A1
350
49
  3
A2
350
4A
  3
A3
350
4B
  3
A4
350
4C
  3
A5
350
4D
  3
A6
350
4E
  3
A7
350
4F
  3
A8
350
50
  3
A9
350
51
  3
B0
350
52
  3
B1
350
53
  3
B2
350
54
  3
B3
350
55
  3
B4
350
56
  3
B5
350
57
  3
B6
350
58
  0
DICTIONARY
  5
160
102
{ACAD_REACTORS
330
C
102
}
330
C
100
AcDbDictionary
281
     1
  0
DICTIONARY
  5
59
102
{ACAD_REACTORS
330
C
102
}
330
C
100
AcDbDictionary
281
     1
  3
Standard
350
5A
  0
DICTIONARY
  5
2A
102
{ACAD_REACTORS
330
C
102
}
330
C
100
AcDbDictionary
281
     1
  3
2dWireframe
350
2F
  3
Basic
350
32
  3
Brighten
350
36
  3
ColorChange
350
3A
  3
Conceptual
350
34
  3
Dim
350
35
  3
EdgeColorOff
350
3D
  3
Facepattern
350
39
  3
Flat
350
2B
  3
FlatWithEdges
350
2C
  3
Gouraud
350
2D
  3
GouraudWithEdges
350
2E
  3
Hidden
350
31
  3
JitterOff
350
3B
  3
Linepattern
350
38
  3
OverhangOff
350
3C
  3
Realistic
350
33
  3
Shaded
350
42
  3
Shaded with edges
350
41
  3
Shades of Gray
350
3E
  3
Sketchy
350
3F
  3
Thicken
350
37
  3
Wireframe
350
30
  3
X-Ray
350
40
  0
XRECORD
  5
15C
102
{ACAD_REACTORS
330
C
102
}
330
C
100
AcDbXrecord
280
     1
 90
        1
330
5A
  0
DICTIONARY
  5
128
102
{ACAD_REACTORS
330
C
102
}
330
C
100
AcDbDictionary
281
     1
  3
CANNOSCALE
350
129
  3
CENTEREXE
350
161
  3
CENTERLTYPEFILE
350
162
  3
CMLEADERSTYLE
350
15E
  3
CTABLESTYLE
350
15D
  0
LAYOUT
  5
1E
102
{ACAD_REACTORS
330
1A
102
}
330
1A
100
AcDbPlotSettings
  1

  2
none_device
  4

  6

 40
0.0
 41
0.0
 42
0.0
 43
0.0
 44
0.0
 45
0.0
 46
0.0
 47
0.0
 48
0.0
 49
0.0
140
0.0
141
0.0
142
1.0
143
1.0
 70
   688
 72
     1
 73
     0
 74
     5
  7

 75
    16
 76
     0
 77
     2
 78
   300
147
1.0
148
0.0
149
0.0
100
AcDbLayout
  1
Layout1
 70
     1
 71
     1
 10
0.0
 20
0.0
 11
420.0
 21
297.0
 12
0.0
 22
0.0
 32
0.0
 14
1.000000000000000E+20
 24
1.000000000000000E+20
 34
1.000000000000000E+20
 15
-1.000000000000000E+20
 25
-1.000000000000000E+20
 35
-1.000000000000000E+20
146
0.0
 13
0.0
 23
0.0
 33
0.0
 16
1.0
 26
0.0
 36
0.0
 17
0.0
 27
1.0
 37
0.0
 76
     0
330
1B
  0
LAYOUT
  5
26
102
{ACAD_REACTORS
330
1A
102
}
330
1A
100
AcDbPlotSettings
  1

  2
none_device
  4

  6

 40
0.0
 41
0.0
 42
0.0
 43
0.0
 44
0.0
 45
0.0
 46
0.0
 47
0.0
 48
0.0
 49
0.0
140
0.0
141
0.0
142
1.0
143
1.0
 70
   688
 72
     1
 73
     0
 74
     5
  7

 75
    16
 76
     0
 77
     2
 78
   300
147
1.0
148
0.0
149
0.0
100
AcDbLayout
  1
Layout2
 70
     1
 71
     2
 10
0.0
 20
0.0
 11
0.0
 21
0.0
 12
0.0
 22
0.0
 32
0.0
 14
0.0
 24
0.0
 34
0.0
 15
0.0
 25
0.0
 35
0.0
146
0.0
 13
0.0
 23
0.0
 33
0.0
 16
1.0
 26
0.0
 36
0.0
 17
0.0
 27
1.0
 37
0.0
 76
     0
330
23
  0
LAYOUT
  5
22
102
{ACAD_REACTORS
330
1A
102
}
330
1A
100
AcDbPlotSettings
  1

  2
none_device
  4
Letter_(8.50_x_11.00_Inches)
  6

 40
6.35
 41
6.35
 42
6.35000508
 43
6.35000508
 44
215.9
 45
279.4
 46
0.0
 47
0.0
 48
0.0
 49
0.0
140
0.0
141
0.0
142
1.0
143
1.0
 70
  1712
 72
     1
 73
     0
 74
     0
  7

 75
     0
 76
     0
 77
     2
 78
   300
147
1.0
148
0.0
149
0.0
100
AcDbLayout
  1
Model
 70
     1
 71
     0
 10
0.0
 20
0.0
 11
420.0
 21
297.0
 12
0.0
 22
0.0
 32
0.0
 14
1.000000000000000E+20
 24
1.000000000000000E+20
 34
1.000000000000000E+20
 15
-1.000000000000000E+20
 25
-1.000000000000000E+20
 35
-1.000000000000000E+20
146
0.0
 13
0.0
 23
0.0
 33
0.0
 16
1.0
 26
0.0
 36
0.0
 17
0.0
 27
1.0
 37
0.0
 76
     0
330
1F
331
29
  0
LAYOUT
  5
6C
102
{ACAD_REACTORS
330
1A
102
}
330
1A
100
AcDbPlotSettings
  1

  2
Custom Device
  4
CustomPaper_297.000000x210.000000mm
  6

 40
0.0
 41
0.0
 42
0.0
 43
0.0
 44
210.0
 45
297.0
 46
0.0
 47
0.0
 48
0.0
 49
0.0
140
0.0
141
0.0
142
1.0
143
1.0
 70
   672
 72
     1
 73
     1
 74
     5
  7

 75
    16
 76
     0
 77
     2
 78
   300
147
1.0
148
0.0
149
0.0
100
AcDbLayout
  1
Sheet
 70
     1
 71
     3
 10
-20.0
 20
-7.5
 11
277.0
 21
202.5
 12
0.0
 22
0.0
 32
0.0
 14
0.0
 24
0.0
 34
0.0
 15
0.0
 25
0.0
 35
0.0
146
0.0
 13
0.0
 23
0.0
 33
0.0
 16
1.0
 26
0.0
 36
0.0
 17
0.0
 27
1.0
 37
0.0
 76
     0
330
6B
331
6F
  0
MATERIAL
  5
45
102
{ACAD_REACTORS
330
43
102
}
330
43
100
AcDbMaterial
  1
ByBlock
 72
     1
 94
      127
  0
MATERIAL
  5
44
102
{ACAD_REACTORS
330
43
102
}
330
43
100
AcDbMaterial
  1
ByLayer
 72
     1
 94
      127
  0
MATERIAL
  5
46
102
{ACAD_REACTORS
330
43
102
}
330
43
100
AcDbMaterial
  1
Global
 72
     1
 94
      127
  0
MLEADERSTYLE
  5
5C
102
{ACAD_REACTORS
330
5B
102
}
330
5B
100
AcDbMLeaderStyle
179
     2
170
     2
171
     1
172
     0
 90
        2
 40
0.0
 41
0.0
173
     1
 91
-1056964608
340
14
 92
       -2
290
     1
 42
2.0
291
     1
 43
8.0
  3
Standard
341
0
 44
4.0
300

342
11
174
     1
178
     6
175
     1
176
     0
 93
-1056964608
 45
4.0
292
     0
297
     0
 46
4.0
343
0
 94
-1056964608
 47
1.0
 49
1.0
140
1.0
293
     1
141
0.0
294
     1
177
     0
142
1.0
295
     0
296
     0
143
3.75
271
     0
272
     9
273
     9
  0
MLINESTYLE
  5
18
102
{ACAD_REACTORS
330
17
102
}
330
17
100
AcDbMlineStyle
  2
Standard
 70
     0
  3

 62
   256
 51
90.0
 52
90.0
 71
     2
 49
0.5
 62
   256
  6
BYLAYER
 49
-0.5
 62
   256
  6
BYLAYER
  0
ACDBPLACEHOLDER
  5
F
102
{ACAD_REACTORS
330
E
102
}
330
E
  0
SCALE
  5
48
102
{ACAD_REACTORS
330
47
102
}
330
47
100
AcDbScale
 70
     0
300
1:1
140
1.0
141
1.0
290
     1
  0
SCALE
  5
49
102
{ACAD_REACTORS
330
47
102
}
330
47
100
AcDbScale
 70
     0
300
1:2
140
1.0
141
2.0
290
     0
  0
SCALE
  5
4A
102
{ACAD_REACTORS
330
47
102
}
330
47
100
AcDbScale
 70
     0
300
1:4
140
1.0
141
4.0
290
     0
  0
SCALE
  5
4B
102
{ACAD_REACTORS
330
47
102
}
330
47
100
AcDbScale
 70
     0
300
1:5
140
1.0
141
5.0
290
     0
  0
SCALE
  5
4C
102
{ACAD_REACTORS
330
47
102
}
330
47
100
AcDbScale
 70
     0
300
1:8
140
1.0
141
8.0
290
     0
  0
SCALE
  5
4D
102
{ACAD_REACTORS
330
47
102
}
330
47
100
AcDbScale
 70
     0
300
1:10
140
1.0
141
10.0
290
     0
  0
SCALE
  5
4E
102
{ACAD_REACTORS
330
47
102
}
330
47
100
AcDbScale
 70
     0
300
1:16
140
1.0
141
16.0
290
     0
  0
SCALE
  5
4F
102
{ACAD_REACTORS
330
47
102
}
330
47
100
AcDbScale
 70
     0
300
1:20
140
1.0
141
20.0
290
     0
  0
SCALE
  5
50
102
{ACAD_REACTORS
330
47
102
}
330
47
100
AcDbScale
 70
     0
300
1:30
140
1.0
141
30.0
290
     0
  0
SCALE
  5
51
102
{ACAD_REACTORS
330
47
102
}
330
47
100
AcDbScale
 70
     0
300
1:40
140
1.0
141
40.0
290
     0
  0
SCALE
  5
52
102
{ACAD_REACTORS
330
47
102
}
330
47
100
AcDbScale
 70
     0
300
1:50
140
1.0
141
50.0
290
     0
  0
SCALE
  5
53
102
{ACAD_REACTORS
330
47
102
}
330
47
100
AcDbScale
 70
     0
300
1:100
140
1.0
141
100.0
290
     0
  0
SCALE
  5
54
102
{ACAD_REACTORS
330
47
102
}
330
47
100
AcDbScale
 70
     0
300
2:1
140
2.0
141
1.0
290
     0
  0
SCALE
  5
55
102
{ACAD_REACTORS
330
47
102
}
330
47
100
AcDbScale
 70
     0
300
4:1
140
4.0
141
1.0
290
     0
  0
SCALE
  5
56
102
{ACAD_REACTORS
330
47
102
}
330
47
100
AcDbScale
 70
     0
300
8:1
140
8.0
141
1.0
290
     0
  0
SCALE
  5
57
102
{ACAD_REACTORS
330
47
102
}
330
47
100
AcDbScale
 70
     0
300
10:1
140
10.0
141
1.0
290
     0
  0
SCALE
  5
58
102
{ACAD_REACTORS
330
47
102
}
330
47
100
AcDbScale
 70
     0
300
100:1
140
100.0
141
1.0
290
     0
  0
TABLESTYLE
  5
5A
102
{ACAD_REACTORS
330
59
102
}
102
{ACAD_XDICTIONARY
360
15A
102
}
330
59
100
AcDbTableStyle
  3
Standard
 70
     0
 71
     0
 40
0.06
 41
0.06
280
     0
281
     0
  7
Standard
140
4.5
170
     2
 62
     0
 63
   257
283
     0
 90
        4
 91
        0
  1

274
    -2
284
     1
 64
     0
275
    -2
285
     1
 65
     0
276
    -2
286
     1
 66
     0
277
    -2
287
     1
 67
     0
278
    -2
288
     1
 68
     0
279
    -2
289
     1
 69
     0
  7
Standard
140
6.0
170
     5
 62
     0
 63
   257
283
     0
 90
        4
 91
        0
  1

274
    -2
284
     1
 64
     0
275
    -2
285
     1
 65
     0
276
    -2
286
     1
 66
     0
277
    -2
287
     1
 67
     0
278
    -2
288
     1
 68
     0
279
    -2
289
     1
 69
     0
  7
Standard
140
4.5
170
     5
 62
     0
 63
   257
283
     0
 90
        4
 91
        0
  1

274
    -2
284
     1
 64
     0
275
    -2
285
     1
 65
     0
276
    -2
286
     1
 66
     0
277
    -2
287
     1
 67
     0
278
    -2
288
     1
 68
     0
279
    -2
289
     1
 69
     0
  0
VISUALSTYLE
  5
2F
102
{ACAD_REACTORS
330
2A
102
}
102
{ACAD_XDICTIONARY
360
132
102
}
330
2A
100
AcDbVisualStyle
  2
2dWireframe
 70
     4
177
     2
291
     0
 71
     0
176
     1
 72
     2
176
     1
 73
     0
176
     1
 90
        0
176
     1
 40
0.6
176
     1
 41
30.0
176
     1
 62
     5
 63
     7
421
 16777215
176
     1
 74
     1
176
     1
 91
        4
176
     1
 64
     7
176
     1
 65
   257
176
     1
 75
     1
176
     1
175
     1
176
     1
 42
1.0
176
     1
 92
        0
176
     1
 66
   257
176
     1
 43
1.0
176
     1
 76
     1
176
     1
 77
     6
176
     1
 78
     2
176
     1
 67
     7
176
     1
 79
     5
176
     1
170
     0
176
     1
171
     0
176
     1
290
     0
176
     1
 93
        1
176
     1
 44
0.0
176
     1
173
     0
176
     1
  0
VISUALSTYLE
  5
32
102
{ACAD_REACTORS
330
2A
102
}
102
{ACAD_XDICTIONARY
360
138
102
}
330
2A
100
AcDbVisualStyle
  2
Basic
 70
     7
177
     2
291
     1
 71
     1
176
     1
 72
     0
176
     1
 73
     1
176
     1
 90
        0
176
     1
 40
0.6
176
     1
 41
30.0
176
     1
 62
     5
 63
     7
421
 16777215
176
     1
 74
     0
176
     1
 91
        4
176
     1
 64
     7
176
     1
 65
   257
176
     1
 75
     1
176
     1
175
     1
176
     1
 42
1.0
176
     1
 92
        8
176
     1
 66
     7
176
     1
 43
1.0
176
     1
 76
     1
176
     1
 77
     6
176
     1
 78
     2
176
     1
 67
     7
176
     1
 79
     5
176
     1
170
     0
176
     1
171
     0
176
     1
290
     0
176
     1
 93
        1
176
     1
 44
0.0
176
     1
173
     0
176
     1
  0
VISUALSTYLE
  5
36
102
{ACAD_REACTORS
330
2A
102
}
102
{ACAD_XDICTIONARY
360
140
102
}
330
2A
100
AcDbVisualStyle
  2
Brighten
 70
    12
177
     2
291
     1
 71
     2
176
     1
 72
     2
176
     1
 73
     0
176
     1
 90
        0
176
     1
 40
0.6
176
     1
 41
30.0
176
     1
 62
     5
 63
     7
421
 16777215
176
     1
 74
     1
176
     1
 91
        4
176
     1
 64
     7
176
     1
 65
   257
176
     1
 75
     1
176
     1
175
     1
176
     1
 42
1.0
176
     1
 92
        8
176
     1
 66
     7
176
     1
 43
1.0
176
     1
 76
     1
176
     1
 77
     6
176
     1
 78
     2
176
     1
 67
     7
176
     1
 79
     5
176
     1
170
     0
176
     1
171
     0
176
     1
290
     0
176
     1
 93
        1
176
     1
 44
50.0
176
     1
173
     0
176
     1
  0
VISUALSTYLE
  5
3A
102
{ACAD_REACTORS
330
2A
102
}
102
{ACAD_XDICTIONARY
360
148
102
}
330
2A
100
AcDbVisualStyle
  2
ColorChange
 70
    16
177
     2
291
     1
 71
     2
176
     1
 72
     2
176
     1
 73
     3
176
     1
 90
        0
176
     1
 40
0.6
176
     1
 41
30.0
176
     1
 62
     5
 63
     8
421
  8421504
176
     1
 74
     1
176
     1
 91
        4
176
     1
 64
     7
176
     1
 65
   257
176
     1
 75
     1
176
     1
175
     1
176
     1
 42
1.0
176
     1
 92
        8
176
     1
 66
     8
424
  8421504
176
     1
 43
1.0
176
     1
 76
     1
176
     1
 77
     6
176
     1
 78
     2
176
     1
 67
     7
176
     1
 79
     5
176
     1
170
     0
176
     1
171
     0
176
     1
290
     0
176
     1
 93
        1
176
     1
 44
0.0
176
     1
173
     0
176
     1
  0
VISUALSTYLE
  5
34
102
{ACAD_REACTORS
330
2A
102
}
102
{ACAD_XDICTIONARY
360
13C
102
}
330
2A
100
AcDbVisualStyle
  2
Conceptual
 70
     9
177
     2
291
     0
 71
     3
176
     1
 72
     2
176
     1
 73
     0
176
     1
 90
        0
176
     1
 40
0.6
176
     1
 41
30.0
176
     1
 62
     5
 63
     7
421
 16777215
176
     1
 74
     2
176
     1
 91
        2
176
     1
 64
     7
176
     1
 65
   257
176
     1
 75
     1
176
     1
175
     1
176
     1
 42
179.0
176
     1
 92
        8
176
     1
 66
     7
176
     1
 43
1.0
176
     1
 76
     1
176
     1
 77
     6
176
     1
 78
     2
176
     1
 67
     7
176
     1
 79
     3
176
     1
170
     0
176
     1
171
     0
176
     1
290
     0
176
     1
 93
        1
176
     1
 44
0.0
176
     1
173
     0
176
     1
  0
VISUALSTYLE
  5
35
102
{ACAD_REACTORS
330
2A
102
}
102
{ACAD_XDICTIONARY
360
13E
102
}
330
2A
100
AcDbVisualStyle
  2
Dim
 70
    11
177
     2
291
     1
 71
     2
176
     1
 72
     2
176
     1
 73
     0
176
     1
 90
        0
176
     1
 40
0.6
176
     1
 41
30.0
176
     1
 62
     5
 63
     7
421
 16777215
176
     1
 74
     1
176
     1
 91
        4
176
     1
 64
     7
176
     1
 65
   257
176
     1
 75
     1
176
     1
175
     1
176
     1
 42
1.0
176
     1
 92
        8
176
     1
 66
     7
176
     1
 43
1.0
176
     1
 76
     1
176
     1
 77
     6
176
     1
 78
     2
176
     1
 67
     7
176
     1
 79
     5
176
     1
170
     0
176
     1
171
     0
176
     1
290
     0
176
     1
 93
        1
176
     1
 44
-50.0
176
     1
173
     0
176
     1
  0
VISUALSTYLE
  5
3D
102
{ACAD_REACTORS
330
2A
102
}
102
{ACAD_XDICTIONARY
360
14E
102
}
330
2A
100
AcDbVisualStyle
  2
EdgeColorOff
 70
    22
177
     2
291
     1
 71
     2
176
     0
 72
     2
176
     0
 73
     0
176
     0
 90
        0
176
     0
 40
0.6
176
     0
 41
30.0
176
     0
 62
     5
 63
     7
421
 16777215
176
     0
 74
     1
176
     0
 91
        4
176
     0
 64
     7
176
     0
 65
   257
176
     0
 75
     1
176
     0
175
     1
176
     0
 42
1.0
176
     0
 92
        8
176
     2
 66
     7
176
     0
 43
1.0
176
     0
 76
     1
176
     0
 77
     6
176
     0
 78
     2
176
     0
 67
     7
176
     0
 79
     5
176
     0
170
     0
176
     0
171
     0
176
     0
290
     0
176
     0
 93
        1
176
     0
 44
0.0
176
     0
173
     0
176
     0
  0
VISUALSTYLE
  5
39
102
{ACAD_REACTORS
330
2A
102
}
102
{ACAD_XDICTIONARY
360
146
102
}
330
2A
100
AcDbVisualStyle
  2
Facepattern
 70
    15
177
     2
291
     1
 71
     2
176
     1
 72
     2
176
     1
 73
     0
176
     1
 90
        0
176
     1
 40
0.6
176
     1
 41
30.0
176
     1
 62
     5
 63
     7
421
 16777215
176
     1
 74
     1
176
     1
 91
        4
176
     1
 64
     7
176
     1
 65
   257
176
     1
 75
     1
176
     1
175
     1
176
     1
 42
1.0
176
     1
 92
        8
176
     1
 66
     7
176
     1
 43
1.0
176
     1
 76
     1
176
     1
 77
     6
176
     1
 78
     2
176
     1
 67
     7
176
     1
 79
     5
176
     1
170
     0
176
     1
171
     0
176
     1
290
     0
176
     1
 93
        1
176
     1
 44
0.0
176
     1
173
     0
176
     1
  0
VISUALSTYLE
  5
2B
102
{ACAD_REACTORS
330
2A
102
}
102
{ACAD_XDICTIONARY
360
12A
102
}
330
2A
100
AcDbVisualStyle
  2
Flat
 70
     0
177
     2
291
     1
 71
     2
176
     1
 72
     1
176
     1
 73
     1
176
     1
 90
        2
176
     1
 40
0.6
176
     1
 41
30.0
176
     1
 62
     5
 63
     7
421
 16777215
176
     1
 74
     0
176
     1
 91
        0
176
     1
 64
     7
176
     1
 65
   257
176
     1
 75
     1
176
     1
175
     1
176
     1
 42
1.0
176
     1
 92
        8
176
     1
 66
     7
176
     1
 43
1.0
176
     1
 76
     1
176
     1
 77
     6
176
     1
 78
     2
176
     1
 67
     7
176
     1
 79
     5
176
     1
170
     0
176
     1
171
     0
176
     1
290
     0
176
     1
 93
       13
176
     1
 44
0.0
176
     1
173
     0
176
     1
  0
VISUALSTYLE
  5
2C
102
{ACAD_REACTORS
330
2A
102
}
102
{ACAD_XDICTIONARY
360
12C
102
}
330
2A
100
AcDbVisualStyle
  2
FlatWithEdges
 70
     1
177
     2
291
     1
 71
     2
176
     1
 72
     1
176
     1
 73
     1
176
     1
 90
        2
176
     1
 40
0.6
176
     1
 41
30.0
176
     1
 62
     5
 63
     7
421
 16777215
176
     1
 74
     1
176
     1
 91
        0
176
     1
 64
     7
176
     1
 65
   257
176
     1
 75
     1
176
     1
175
     1
176
     1
 42
1.0
176
     1
 92
        0
176
     1
 66
   257
176
     1
 43
1.0
176
     1
 76
     1
176
     1
 77
     6
176
     1
 78
     2
176
     1
 67
     7
176
     1
 79
     5
176
     1
170
     0
176
     1
171
     0
176
     1
290
     0
176
     1
 93
       13
176
     1
 44
0.0
176
     1
173
     0
176
     1
  0
VISUALSTYLE
  5
2D
102
{ACAD_REACTORS
330
2A
102
}
102
{ACAD_XDICTIONARY
360
12E
102
}
330
2A
100
AcDbVisualStyle
  2
Gouraud
 70
     2
177
     2
291
     1
 71
     2
176
     1
 72
     2
176
     1
 73
     1
176
     1
 90
        2
176
     1
 40
0.6
176
     1
 41
30.0
176
     1
 62
     5
 63
     7
421
 16777215
176
     1
 74
     0
176
     1
 91
        0
176
     1
 64
     7
176
     1
 65
   257
176
     1
 75
     1
176
     1
175
     1
176
     1
 42
1.0
176
     1
 92
        0
176
     1
 66
     7
176
     1
 43
1.0
176
     1
 76
     1
176
     1
 77
     6
176
     1
 78
     2
176
     1
 67
     7
176
     1
 79
     5
176
     1
170
     0
176
     1
171
     0
176
     1
290
     0
176
     1
 93
       13
176
     1
 44
0.0
176
     1
173
     0
176
     1
  0
VISUALSTYLE
  5
2E
102
{ACAD_REACTORS
330
2A
102
}
102
{ACAD_XDICTIONARY
360
130
102
}
330
2A
100
AcDbVisualStyle
  2
GouraudWithEdges
 70
     3
177
     2
291
     1
 71
     2
176
     1
 72
     2
176
     1
 73
     1
176
     1
 90
        2
176
     1
 40
0.6
176
     1
 41
30.0
176
     1
 62
     5
 63
     7
421
 16777215
176
     1
 74
     1
176
     1
 91
        0
176
     1
 64
     7
176
     1
 65
   257
176
     1
 75
     1
176
     1
175
     1
176
     1
 42
1.0
176
     1
 92
        0
176
     1
 66
   257
176
     1
 43
1.0
176
     1
 76
     1
176
     1
 77
     6
176
     1
 78
     2
176
     1
 67
     7
176
     1
 79
     5
176
     1
170
     0
176
     1
171
     0
176
     1
290
     0
176
     1
 93
       13
176
     1
 44
0.0
176
     1
173
     0
176
     1
  0
VISUALSTYLE
  5
31
102
{ACAD_REACTORS
330
2A
102
}
102
{ACAD_XDICTIONARY
360
136
102
}
330
2A
100
AcDbVisualStyle
  2
Hidden
 70
     6
177
     2
291
     0
 71
     1
176
     1
 72
     2
176
     1
 73
     2
176
     1
 90
        0
176
     1
 40
0.6
176
     1
 41
30.0
176
     1
 62
     5
 63
     7
421
 16777215
176
     1
 74
     2
176
     1
 91
        2
176
     1
 64
     7
176
     1
 65
   257
176
     1
 75
     2
176
     1
175
     1
176
     1
 42
40.0
176
     1
 92
        0
176
     1
 66
   257
176
     1
 43
1.0
176
     1
 76
     1
176
     1
 77
     6
176
     1
 78
     2
176
     1
 67
     7
176
     1
 79
     3
176
     1
170
     0
176
     1
171
     0
176
     1
290
     0
176
     1
 93
        1
176
     1
 44
0.0
176
     1
173
     0
176
     1
  0
VISUALSTYLE
  5
3B
102
{ACAD_REACTORS
330
2A
102
}
102
{ACAD_XDICTIONARY
360
14A
102
}
330
2A
100
AcDbVisualStyle
  2
JitterOff
 70
    20
177
     2
291
     1
 71
     2
176
     0
 72
     2
176
     0
 73
     0
176
     0
 90
        0
176
     0
 40
0.6
176
     0
 41
30.0
176
     0
 62
     5
 63
     7
421
 16777215
176
     0
 74
     1
176
     0
 91
        4
176
     0
 64
     7
176
     0
 65
   257
176
     0
 75
     1
176
     0
175
     1
176
     0
 42
1.0
176
     0
 92
       10
176
     2
 66
     7
176
     0
 43
1.0
176
     0
 76
     1
176
     0
 77
     6
176
     0
 78
     2
176
     0
 67
     7
176
     0
 79
     5
176
     0
170
     0
176
     0
171
     0
176
     0
290
     0
176
     0
 93
        1
176
     0
 44
0.0
176
     0
173
     0
176
     0
  0
VISUALSTYLE
  5
38
102
{ACAD_REACTORS
330
2A
102
}
102
{ACAD_XDICTIONARY
360
144
102
}
330
2A
100
AcDbVisualStyle
  2
Linepattern
 70
    14
177
     2
291
     1
 71
     2
176
     1
 72
     2
176
     1
 73
     0
176
     1
 90
        0
176
     1
 40
0.6
176
     1
 41
30.0
176
     1
 62
     5
 63
     7
421
 16777215
176
     1
 74
     1
176
     1
 91
        4
176
     1
 64
     7
176
     1
 65
   257
176
     1
 75
     7
176
     1
175
     7
176
     1
 42
1.0
176
     1
 92
        8
176
     1
 66
     7
176
     1
 43
1.0
176
     1
 76
     1
176
     1
 77
     6
176
     1
 78
     2
176
     1
 67
     7
176
     1
 79
     5
176
     1
170
     0
176
     1
171
     0
176
     1
290
     0
176
     1
 93
        1
176
     1
 44
0.0
176
     1
173
     0
176
     1
  0
VISUALSTYLE
  5
3C
102
{ACAD_REACTORS
330
2A
102
}
102
{ACAD_XDICTIONARY
360
14C
102
}
330
2A
100
AcDbVisualStyle
  2
OverhangOff
 70
    21
177
     2
291
     1
 71
     2
176
     0
 72
     2
176
     0
 73
     0
176
     0
 90
        0
176
     0
 40
0.6
176
     0
 41
30.0
176
     0
 62
     5
 63
     7
421
 16777215
176
     0
 74
     1
176
     0
 91
        4
176
     0
 64
     7
176
     0
 65
   257
176
     0
 75
     1
176
     0
175
     1
176
     0
 42
1.0
176
     0
 92
        9
176
     2
 66
     7
176
     0
 43
1.0
176
     0
 76
     1
176
     0
 77
     6
176
     0
 78
     2
176
     0
 67
     7
176
     0
 79
     5
176
     0
170
     0
176
     0
171
     0
176
     0
290
     0
176
     0
 93
        1
176
     0
 44
0.0
176
     0
173
     0
176
     0
  0
VISUALSTYLE
  5
33
102
{ACAD_REACTORS
330
2A
102
}
102
{ACAD_XDICTIONARY
360
13A
102
}
330
2A
100
AcDbVisualStyle
  2
Realistic
 70
     8
177
     2
291
     0
 71
     2
176
     1
 72
     3
176
     1
 73
     0
176
     1
 90
        2
176
     1
 40
0.6
176
     1
 41
30.0
176
     1
 62
     5
 63
     7
421
 16777215
176
     1
 74
     0
176
     1
 91
        0
176
     1
 64
     7
176
     1
 65
   257
176
     1
 75
     1
176
     1
175
     1
176
     1
 42
1.0
176
     1
 92
        8
176
     1
 66
   257
176
     1
 43
1.0
176
     1
 76
     1
176
     1
 77
     6
176
     1
 78
     2
176
     1
 67
     7
176
     1
 79
     3
176
     1
170
     0
176
     1
171
     0
176
     1
290
     0
176
     1
 93
       13
176
     1
 44
0.0
176
     1
173
     0
176
     1
  0
VISUALSTYLE
  5
42
102
{ACAD_REACTORS
330
2A
102
}
102
{ACAD_XDICTIONARY
360
158
102
}
330
2A
100
AcDbVisualStyle
  2
Shaded
 70
    27
177
     2
291
     0
 71
     2
176
     1
 72
     2
176
     1
 73
     1
176
     1
 90
        2
176
     1
 40
0.6
176
     1
 41
30.0
176
     1
 62
     5
 63
     7
421
 16777215
176
     1
 74
     0
176
     1
 91
        4
176
     1
 64
     7
176
     1
 65
   257
176
     1
 75
     1
176
     1
175
     1
176
     1
 42
1.0
176
     1
 92
        8
176
     1
 66
   257
176
     1
 43
1.0
176
     1
 76
     1
176
     1
 77
     6
176
     1
 78
     2
176
     1
 67
     8
425
  7895160
176
     1
 79
     3
176
     1
170
     0
176
     1
171
     0
176
     1
290
     0
176
     1
 93
        5
176
     1
 44
0.0
176
     1
173
     0
176
     1
  0
VISUALSTYLE
  5
41
102
{ACAD_REACTORS
330
2A
102
}
102
{ACAD_XDICTIONARY
360
156
102
}
330
2A
100
AcDbVisualStyle
  2
Shaded with edges
 70
    26
177
     2
291
     0
 71
     2
176
     1
 72
     2
176
     1
 73
     1
176
     1
 90
        2
176
     1
 40
0.6
176
     1
 41
30.0
176
     1
 62
     5
 63
     7
421
 16777215
176
     1
 74
     1
176
     1
 91
       10
176
     1
 64
     7
176
     1
 65
   257
176
     1
 75
     2
176
     1
175
     1
176
     1
 42
1.0
176
     1
 92
        8
176
     1
 66
   257
176
     1
 43
1.0
176
     1
 76
     1
176
     1
 77
     6
176
     1
 78
     2
176
     1
 67
     7
176
     1
 79
     3
176
     1
170
     0
176
     1
171
     0
176
     1
290
     0
176
     1
 93
        5
176
     1
 44
0.0
176
     1
173
     0
176
     1
  0
VISUALSTYLE
  5
3E
102
{ACAD_REACTORS
330
2A
102
}
102
{ACAD_XDICTIONARY
360
150
102
}
330
2A
100
AcDbVisualStyle
  2
Shades of Gray
 70
    23
177
     2
291
     0
 71
     2
176
     1
 72
     2
176
     1
 73
     3
176
     1
 90
        0
176
     1
 40
0.6
176
     1
 41
30.0
176
     1
 62
     5
 63
     7
421
 16777215
176
     1
 74
     2
176
     1
 91
        2
176
     1
 64
     7
176
     1
 65
     7
176
     1
 75
     1
176
     1
175
     1
176
     1
 42
40.0
176
     1
 92
        8
176
     1
 66
     7
176
     1
 43
1.0
176
     1
 76
     1
176
     1
 77
     6
176
     1
 78
     2
176
     1
 67
     7
176
     1
 79
     3
176
     1
170
     0
176
     1
171
     0
176
     1
290
     0
176
     1
 93
        1
176
     1
 44
0.0
176
     1
173
     0
176
     1
  0
VISUALSTYLE
  5
3F
102
{ACAD_REACTORS
330
2A
102
}
102
{ACAD_XDICTIONARY
360
152
102
}
330
2A
100
AcDbVisualStyle
  2
Sketchy
 70
    24
177
     2
291
     0
 71
     1
176
     1
 72
     2
176
     1
 73
     2
176
     1
 90
        0
176
     1
 40
0.6
176
     1
 41
30.0
176
     1
 62
     5
 63
     7
421
 16777215
176
     1
 74
     2
176
     1
 91
        2
176
     1
 64
     7
176
     1
 65
     7
176
     1
 75
     1
176
     1
175
     1
176
     1
 42
40.0
176
     1
 92
       11
176
     1
 66
     7
176
     1
 43
1.0
176
     1
 76
     1
176
     1
 77
     6
176
     1
 78
     2
176
     1
 67
     7
176
     1
 79
     6
176
     1
170
     0
176
     1
171
     0
176
     1
290
     0
176
     1
 93
        1
176
     1
 44
0.0
176
     1
173
     0
176
     1
  0
VISUALSTYLE
  5
37
102
{ACAD_REACTORS
330
2A
102
}
102
{ACAD_XDICTIONARY
360
142
102
}
330
2A
100
AcDbVisualStyle
  2
Thicken
 70
    13
177
     2
291
     1
 71
     2
176
     1
 72
     2
176
     1
 73
     0
176
     1
 90
        0
176
     1
 40
0.6
176
     1
 41
30.0
176
     1
 62
     5
 63
     7
421
 16777215
176
     1
 74
     1
176
     1
 91
        4
176
     1
 64
     7
176
     1
 65
   257
176
     1
 75
     1
176
     1
175
     1
176
     1
 42
1.0
176
     1
 92
       12
176
     1
 66
     7
176
     1
 43
1.0
176
     1
 76
     1
176
     1
 77
     6
176
     1
 78
     2
176
     1
 67
     7
176
     1
 79
     5
176
     1
170
     0
176
     1
171
     0
176
     1
290
     0
176
     1
 93
        1
176
     1
 44
0.0
176
     1
173
     0
176
     1
  0
VISUALSTYLE
  5
30
102
{ACAD_REACTORS
330
2A
102
}
102
{ACAD_XDICTIONARY
360
134
102
}
330
2A
100
AcDbVisualStyle
  2
Wireframe
 70
     5
177
     2
291
     0
 71
     0
176
     1
 72
     2
176
     1
 73
     0
176
     1
 90
        0
176
     1
 40
0.6
176
     1
 41
30.0
176
     1
 62
     5
 63
     7
421
 16777215
176
     1
 74
     1
176
     1
 91
        4
176
     1
 64
     7
176
     1
 65
   257
176
     1
 75
     1
176
     1
175
     1
176
     1
 42
1.0
176
     1
 92
        0
176
     1
 66
   257
176
     1
 43
1.0
176
     1
 76
     1
176
     1
 77
     6
176
     1
 78
     2
176
     1
 67
     7
176
     1
 79
     3
176
     1
170
     0
176
     1
171
     0
176
     1
290
     0
176
     1
 93
        1
176
     1
 44
0.0
176
     1
173
     0
176
     1
  0
VISUALSTYLE
  5
40
102
{ACAD_REACTORS
330
2A
102
}
102
{ACAD_XDICTIONARY
360
154
102
}
330
2A
100
AcDbVisualStyle
  2
X-Ray
 70
    25
177
     2
291
     0
 71
     2
176
     1
 72
     2
176
     1
 73
     1
176
     1
 90
        1
176
     1
 40
0.5
176
     1
 41
30.0
176
     1
 62
     5
 63
     7
421
 16777215
176
     1
 74
     1
176
     1
 91
        0
176
     1
 64
     7
176
     1
 65
   257
176
     1
 75
     1
176
     1
175
     1
176
     1
 42
1.0
176
     1
 92
        8
176
     1
 66
     7
176
     1
 43
1.0
176
     1
 76
     1
176
     1
 77
     6
176
     1
 78
     2
176
     1
 67
     7
176
     1
 79
     3
176
     1
170
     0
176
     1
171
     0
176
     1
290
     0
176
     1
 93
       13
176
     1
 44
0.0
176
     1
173
     0
176
     1
  0
DICTIONARYVAR
  5
129
102
{ACAD_REACTORS
330
128
102
}
330
128
100
DictionaryVariables
280
     0
  1
1:1
  0
DICTIONARYVAR
  5
161
102
{ACAD_REACTORS
330
128
102
}
330
128
100
DictionaryVariables
280
     0
  1
3.500000
  0
DICTIONARYVAR
  5
162
102
{ACAD_REACTORS
330
128
102
}
330
128
100
DictionaryVariables
280
     0
  1
acadiso.lin
  0
DICTIONARYVAR
  5
15E
102
{ACAD_REACTORS
330
128
102
}
330
128
100
DictionaryVariables
280
     0
  1
Standard
  0
DICTIONARYVAR
  5
15D
102
{ACAD_REACTORS
330
128
102
}
330
128
100
DictionaryVariables
280
     0
  1
Standard
  0
DICTIONARY
  5
15A
330
5A
100
AcDbDictionary
280
     1
281
     1
  3
ACAD_ROUNDTRIP_2008_TABLESTYLE_CELLSTYLEMAP
360
15B
  0
DICTIONARY
  5
132
330
2F
100
AcDbDictionary
280
     1
281
     1
  3
ACAD_XREC_ROUNDTRIP
360
133
  0
DICTIONARY
  5
138
330
32
100
AcDbDictionary
280
     1
281
     1
  3
ACAD_XREC_ROUNDTRIP
360
139
  0
DICTIONARY
  5
140
330
36
100
AcDbDictionary
280
     1
281
     1
  3
ACAD_XREC_ROUNDTRIP
360
141
  0
DICTIONARY
  5
148
330
3A
100
AcDbDictionary
280
     1
281
     1
  3
ACAD_XREC_ROUNDTRIP
360
149
  0
DICTIONARY
  5
13C
330
34
100
AcDbDictionary
280
     1
281
     1
  3
ACAD_XREC_ROUNDTRIP
360
13D
  0
DICTIONARY
  5
13E
330
35
100
AcDbDictionary
280
     1
281
     1
  3
ACAD_XREC_ROUNDTRIP
360
13F
  0
DICTIONARY
  5
14E
330
3D
100
AcDbDictionary
280
     1
281
     1
  3
ACAD_XREC_ROUNDTRIP
360
14F
  0
DICTIONARY
  5
146
330
39
100
AcDbDictionary
280
     1
281
     1
  3
ACAD_XREC_ROUNDTRIP
360
147
  0
DICTIONARY
  5
12A
330
2B
100
AcDbDictionary
280
     1
281
     1
  3
ACAD_XREC_ROUNDTRIP
360
12B
  0
DICTIONARY
  5
12C
330
2C
100
AcDbDictionary
280
     1
281
     1
  3
ACAD_XREC_ROUNDTRIP
360
12D
  0
DICTIONARY
  5
12E
330
2D
100
AcDbDictionary
280
     1
281
     1
  3
ACAD_XREC_ROUNDTRIP
360
12F
  0
DICTIONARY
  5
130
330
2E
100
AcDbDictionary
280
     1
281
     1
  3
ACAD_XREC_ROUNDTRIP
360
131
  0
DICTIONARY
  5
136
330
31
100
AcDbDictionary
280
     1
281
     1
  3
ACAD_XREC_ROUNDTRIP
360
137
  0
DICTIONARY
  5
14A
330
3B
100
AcDbDictionary
280
     1
281
     1
  3
ACAD_XREC_ROUNDTRIP
360
14B
  0
DICTIONARY
  5
144
330
38
100
AcDbDictionary
280
     1
281
     1
  3
ACAD_XREC_ROUNDTRIP
360
145
  0
DICTIONARY
  5
14C
330
3C
100
AcDbDictionary
280
     1
281
     1
  3
ACAD_XREC_ROUNDTRIP
360
14D
  0
DICTIONARY
  5
13A
330
33
100
AcDbDictionary
280
     1
281
     1
  3
ACAD_XREC_ROUNDTRIP
360
13B
  0
DICTIONARY
  5
158
330
42
100
AcDbDictionary
280
     1
281
     1
  3
ACAD_XREC_ROUNDTRIP
360
159
  0
DICTIONARY
  5
156
330
41
100
AcDbDictionary
280
     1
281
     1
  3
ACAD_XREC_ROUNDTRIP
360
157
  0
DICTIONARY
  5
150
330
3E
100
AcDbDictionary
280
     1
281
     1
  3
ACAD_XREC_ROUNDTRIP
360
151
  0
DICTIONARY
  5
152
330
3F
100
AcDbDictionary
280
     1
281
     1
  3
ACAD_XREC_ROUNDTRIP
360
153
  0
DICTIONARY
  5
142
330
37
100
AcDbDictionary
280
     1
281
     1
  3
ACAD_XREC_ROUNDTRIP
360
143
  0
DICTIONARY
  5
134
330
30
100
AcDbDictionary
280
     1
281
     1
  3
ACAD_XREC_ROUNDTRIP
360
135
  0
DICTIONARY
  5
154
330
40
100
AcDbDictionary
280
     1
281
     1
  3
ACAD_XREC_ROUNDTRIP
360
155
  0
CELLSTYLEMAP
  5
15B
102
{ACAD_REACTORS
330
15A
102
}
330
15A
100
AcDbCellStyleMap
 90
        3
300
CELLSTYLE
  1
TABLEFORMAT_BEGIN
 90
        5
170
     1
 91
        0
 92
    32768
 62
   257
 93
        1
300
CONTENTFORMAT
  1
CONTENTFORMAT_BEGIN
 90
        0
 91
        0
 92
        4
 93
        0
300

 40
0.0
140
1.0
 94
        5
 62
     0
340
11
144
6.0
309
CONTENTFORMAT_END
171
     1
301
MARGIN
  1
CELLMARGIN_BEGIN
 40
1.5
 40
1.5
 40
1.5
 40
1.5
 40
1.5
 40
1.5
309
CELLMARGIN_END
 94
        6
 95
        1
302
GRIDFORMAT
  1
GRIDFORMAT_BEGIN
 90
        0
 91
        1
 62
     0
 92
       -2
340
14
 93
        0
 40
0.045
309
GRIDFORMAT_END
 95
        2
302
GRIDFORMAT
  1
GRIDFORMAT_BEGIN
 90
        0
 91
        1
 62
     0
 92
       -2
340
14
 93
        0
 40
0.045
309
GRIDFORMAT_END
 95
        4
302
GRIDFORMAT
  1
GRIDFORMAT_BEGIN
 90
        0
 91
        1
 62
     0
 92
       -2
340
14
 93
        0
 40
0.045
309
GRIDFORMAT_END
 95
        8
302
GRIDFORMAT
  1
GRIDFORMAT_BEGIN
 90
        0
 91
        1
 62
     0
 92
       -2
340
14
 93
        0
 40
0.045
309
GRIDFORMAT_END
 95
       16
302
GRIDFORMAT
  1
GRIDFORMAT_BEGIN
 90
        0
 91
        1
 62
     0
 92
       -2
340
14
 93
        0
 40
0.045
309
GRIDFORMAT_END
 95
       32
302
GRIDFORMAT
  1
GRIDFORMAT_BEGIN
 90
        0
 91
        1
 62
     0
 92
       -2
340
14
 93
        0
 40
0.045
309
GRIDFORMAT_END
309
TABLEFORMAT_END
  1
CELLSTYLE_BEGIN
 90
        1
 91
        1
300
_TITLE
309
CELLSTYLE_END
300
CELLSTYLE
  1
TABLEFORMAT_BEGIN
 90
        5
170
     1
 91
        0
 92
        0
 62
   257
 93
        1
300
CONTENTFORMAT
  1
CONTENTFORMAT_BEGIN
 90
        0
 91
        0
 92
        4
 93
        0
300

 40
0.0
140
1.0
 94
        5
 62
     0
340
11
144
4.5
309
CONTENTFORMAT_END
171
     1
301
MARGIN
  1
CELLMARGIN_BEGIN
 40
1.5
 40
1.5
 40
1.5
 40
1.5
 40
1.5
 40
1.5
309
CELLMARGIN_END
 94
        6
 95
        1
302
GRIDFORMAT
  1
GRIDFORMAT_BEGIN
 90
        0
 91
        1
 62
     0
 92
       -2
340
14
 93
        0
 40
0.045
309
GRIDFORMAT_END
 95
        2
302
GRIDFORMAT
  1
GRIDFORMAT_BEGIN
 90
        0
 91
        1
 62
     0
 92
       -2
340
14
 93
        0
 40
0.045
309
GRIDFORMAT_END
 95
        4
302
GRIDFORMAT
  1
GRIDFORMAT_BEGIN
 90
        0
 91
        1
 62
     0
 92
       -2
340
14
 93
        0
 40
0.045
309
GRIDFORMAT_END
 95
        8
302
GRIDFORMAT
  1
GRIDFORMAT_BEGIN
 90
        0
 91
        1
 62
     0
 92
       -2
340
14
 93
        0
 40
0.045
309
GRIDFORMAT_END
 95
       16
302
GRIDFORMAT
  1
GRIDFORMAT_BEGIN
 90
        0
 91
        1
 62
     0
 92
       -2
340
14
 93
        0
 40
0.045
309
GRIDFORMAT_END
 95
       32
302
GRIDFORMAT
  1
GRIDFORMAT_BEGIN
 90
        0
 91
        1
 62
     0
 92
       -2
340
14
 93
        0
 40
0.045
309
GRIDFORMAT_END
309
TABLEFORMAT_END
  1
CELLSTYLE_BEGIN
 90
        2
 91
        1
300
_HEADER
309
CELLSTYLE_END
300
CELLSTYLE
  1
TABLEFORMAT_BEGIN
 90
        5
170
     1
 91
        0
 92
        0
 62
   257
 93
        1
300
CONTENTFORMAT
  1
CONTENTFORMAT_BEGIN
 90
        0
 91
        0
 92
        4
 93
        0
300

 40
0.0
140
1.0
 94
        2
 62
     0
340
11
144
4.5
309
CONTENTFORMAT_END
171
     1
301
MARGIN
  1
CELLMARGIN_BEGIN
 40
1.5
 40
1.5
 40
1.5
 40
1.5
 40
1.5
 40
1.5
309
CELLMARGIN_END
 94
        6
 95
        1
302
GRIDFORMAT
  1
GRIDFORMAT_BEGIN
 90
        0
 91
        1
 62
     0
 92
       -2
340
14
 93
        0
 40
0.045
309
GRIDFORMAT_END
 95
        2
302
GRIDFORMAT
  1
GRIDFORMAT_BEGIN
 90
        0
 91
        1
 62
     0
 92
       -2
340
14
 93
        0
 40
0.045
309
GRIDFORMAT_END
 95
        4
302
GRIDFORMAT
  1
GRIDFORMAT_BEGIN
 90
        0
 91
        1
 62
     0
 92
       -2
340
14
 93
        0
 40
0.045
309
GRIDFORMAT_END
 95
        8
302
GRIDFORMAT
  1
GRIDFORMAT_BEGIN
 90
        0
 91
        1
 62
     0
 92
       -2
340
14
 93
        0
 40
0.045
309
GRIDFORMAT_END
 95
       16
302
GRIDFORMAT
  1
GRIDFORMAT_BEGIN
 90
        0
 91
        1
 62
     0
 92
       -2
340
14
 93
        0
 40
0.045
309
GRIDFORMAT_END
 95
       32
302
GRIDFORMAT
  1
GRIDFORMAT_BEGIN
 90
        0
 91
        1
 62
     0
 92
       -2
340
14
 93
        0
 40
0.045
309
GRIDFORMAT_END
309
TABLEFORMAT_END
  1
CELLSTYLE_BEGIN
 90
        3
 91
        2
300
_DATA
309
CELLSTYLE_END
  0
XRECORD
  5
133
102
{ACAD_REACTORS
330
132
102
}
330
132
100
AcDbXrecord
280
     1
102
RTVSPost2010Prop28
280
     1
102
RTVSPost2010PropOp28
 70
     1
102
RTVSPost2010Prop29
280
     1
102
RTVSPost2010PropOp29
 70
     1
102
RTVSPost2010Prop30
280
     0
102
RTVSPost2010PropOp30
 70
     1
102
RTVSPost2010Prop31
280
     0
102
RTVSPost2010PropOp31
 70
     1
102
RTVSPost2010Prop32
280
     0
102
RTVSPost2010PropOp32
 70
     1
102
RTVSPost2010Prop33
280
     0
102
RTVSPost2010PropOp33
 70
     1
102
RTVSPost2010Prop34
280
     0
102
RTVSPost2010PropOp34
 70
     1
102
RTVSPost2010Prop35
280
     0
102
RTVSPost2010PropOp35
 70
     1
102
RTVSPost2010Prop36
280
     0
102
RTVSPost2010PropOp36
 70
     1
102
RTVSPost2010Prop37
 90
       50
102
RTVSPost2010PropOp37
 70
     1
102
RTVSPost2010Prop38
140
0.0
102
RTVSPost2010PropOp38
 70
     1
102
RTVSPost2010Prop39
140
1.0
102
RTVSPost2010PropOp39
 70
     1
102
RTVSPost2010Prop40
 90
        0
102
RTVSPost2010PropOp40
 70
     1
102
RTVSPost2010Prop41ColorIndex
 90
       18
102
RTVSPost2010Prop41ColorRGB
 90
        0
102
RTVSPost2010PropOp41
 70
     1
102
RTVSPost2010Prop42
 90
       50
102
RTVSPost2010PropOp42
 70
     1
102
RTVSPost2010Prop43
 90
        3
102
RTVSPost2010PropOp43
 70
     1
102
RTVSPost2010Prop44ColorIndex
 90
        5
102
RTVSPost2010Prop44ColorRGB
 90
      255
102
RTVSPost2010PropOp44
 70
     1
102
RTVSPost2010Prop45
280
     0
102
RTVSPost2010PropOp45
 70
     1
102
RTVSPost2010Prop46
 90
       50
102
RTVSPost2010PropOp46
 70
     1
102
RTVSPost2010Prop47
 90
       50
102
RTVSPost2010PropOp47
 70
     1
102
RTVSPost2010Prop48
 90
       50
102
RTVSPost2010PropOp48
 70
     1
102
RTVSPost2010Prop49
280
     0
102
RTVSPost2010PropOp49
 70
     1
102
RTVSPost2010Prop50
 90
       50
102
RTVSPost2010PropOp50
 70
     1
102
RTVSPost2010Prop51ColorIndex
 90
      256
102
RTVSPost2010Prop51ColorRGB
 90
-16777216
102
RTVSPost2010PropOp51
 70
     0
102
RTVSPost2010Prop52
140
1.0
102
RTVSPost2010PropOp52
 70
     0
102
RTVSPost2010Prop53
 90
        2
102
RTVSPost2010PropOp53
 70
     1
102
RTVSPost2010Prop54
  1
strokes_ogs.tif
102
RTVSPost2010PropOp54
 70
     1
102
RTVSPost2010Prop55
280
     0
102
RTVSPost2010PropOp55
 70
     1
102
RTVSPost2010Prop56
140
1.0
102
RTVSPost2010PropOp56
 70
     1
102
RTVSPost2010Prop57
140
1.0
102
RTVSPost2010PropOp57
 70
     1
  0
XRECORD
  5
139
102
{ACAD_REACTORS
330
138
102
}
330
138
100
AcDbXrecord
280
     1
102
RTVSPost2010Prop28
280
     0
102
RTVSPost2010PropOp28
 70
     1
102
RTVSPost2010Prop29
280
     1
102
RTVSPost2010PropOp29
 70
     1
102
RTVSPost2010Prop30
280
     1
102
RTVSPost2010PropOp30
 70
     1
102
RTVSPost2010Prop31
280
     0
102
RTVSPost2010PropOp31
 70
     1
102
RTVSPost2010Prop32
280
     0
102
RTVSPost2010PropOp32
 70
     1
102
RTVSPost2010Prop33
280
     0
102
RTVSPost2010PropOp33
 70
     1
102
RTVSPost2010Prop34
280
     0
102
RTVSPost2010PropOp34
 70
     1
102
RTVSPost2010Prop35
280
     0
102
RTVSPost2010PropOp35
 70
     1
102
RTVSPost2010Prop36
280
     0
102
RTVSPost2010PropOp36
 70
     1
102
RTVSPost2010Prop37
 90
       50
102
RTVSPost2010PropOp37
 70
     1
102
RTVSPost2010Prop38
140
0.0
102
RTVSPost2010PropOp38
 70
     1
102
RTVSPost2010Prop39
140
1.0
102
RTVSPost2010PropOp39
 70
     1
102
RTVSPost2010Prop40
 90
        0
102
RTVSPost2010PropOp40
 70
     1
102
RTVSPost2010Prop41ColorIndex
 90
       18
102
RTVSPost2010Prop41ColorRGB
 90
        0
102
RTVSPost2010PropOp41
 70
     1
102
RTVSPost2010Prop42
 90
       50
102
RTVSPost2010PropOp42
 70
     1
102
RTVSPost2010Prop43
 90
        3
102
RTVSPost2010PropOp43
 70
     1
102
RTVSPost2010Prop44ColorIndex
 90
        5
102
RTVSPost2010Prop44ColorRGB
 90
      255
102
RTVSPost2010PropOp44
 70
     1
102
RTVSPost2010Prop45
280
     0
102
RTVSPost2010PropOp45
 70
     1
102
RTVSPost2010Prop46
 90
       50
102
RTVSPost2010PropOp46
 70
     1
102
RTVSPost2010Prop47
 90
       50
102
RTVSPost2010PropOp47
 70
     1
102
RTVSPost2010Prop48
 90
       50
102
RTVSPost2010PropOp48
 70
     1
102
RTVSPost2010Prop49
280
     0
102
RTVSPost2010PropOp49
 70
     1
102
RTVSPost2010Prop50
 90
       50
102
RTVSPost2010PropOp50
 70
     1
102
RTVSPost2010Prop51ColorIndex
 90
      256
102
RTVSPost2010Prop51ColorRGB
 90
-16777216
102
RTVSPost2010PropOp51
 70
     0
102
RTVSPost2010Prop52
140
1.0
102
RTVSPost2010PropOp52
 70
     0
102
RTVSPost2010Prop53
 90
        2
102
RTVSPost2010PropOp53
 70
     1
102
RTVSPost2010Prop54
  1
strokes_ogs.tif
102
RTVSPost2010PropOp54
 70
     1
102
RTVSPost2010Prop55
280
     0
102
RTVSPost2010PropOp55
 70
     1
102
RTVSPost2010Prop56
140
1.0
102
RTVSPost2010PropOp56
 70
     1
102
RTVSPost2010Prop57
140
1.0
102
RTVSPost2010PropOp57
 70
     1
  0
XRECORD
  5
141
102
{ACAD_REACTORS
330
140
102
}
330
140
100
AcDbXrecord
280
     1
102
RTVSPost2010Prop28
280
     0
102
RTVSPost2010PropOp28
 70
     1
102
RTVSPost2010Prop29
280
     1
102
RTVSPost2010PropOp29
 70
     1
102
RTVSPost2010Prop30
280
     1
102
RTVSPost2010PropOp30
 70
     1
102
RTVSPost2010Prop31
280
     0
102
RTVSPost2010PropOp31
 70
     1
102
RTVSPost2010Prop32
280
     0
102
RTVSPost2010PropOp32
 70
     1
102
RTVSPost2010Prop33
280
     0
102
RTVSPost2010PropOp33
 70
     1
102
RTVSPost2010Prop34
280
     0
102
RTVSPost2010PropOp34
 70
     1
102
RTVSPost2010Prop35
280
     0
102
RTVSPost2010PropOp35
 70
     1
102
RTVSPost2010Prop36
280
     0
102
RTVSPost2010PropOp36
 70
     1
102
RTVSPost2010Prop37
 90
       50
102
RTVSPost2010PropOp37
 70
     1
102
RTVSPost2010Prop38
140
0.0
102
RTVSPost2010PropOp38
 70
     1
102
RTVSPost2010Prop39
140
1.0
102
RTVSPost2010PropOp39
 70
     1
102
RTVSPost2010Prop40
 90
        0
102
RTVSPost2010PropOp40
 70
     1
102
RTVSPost2010Prop41ColorIndex
 90
       18
102
RTVSPost2010Prop41ColorRGB
 90
        0
102
RTVSPost2010PropOp41
 70
     1
102
RTVSPost2010Prop42
 90
       50
102
RTVSPost2010PropOp42
 70
     1
102
RTVSPost2010Prop43
 90
        3
102
RTVSPost2010PropOp43
 70
     1
102
RTVSPost2010Prop44ColorIndex
 90
        5
102
RTVSPost2010Prop44ColorRGB
 90
      255
102
RTVSPost2010PropOp44
 70
     1
102
RTVSPost2010Prop45
280
     0
102
RTVSPost2010PropOp45
 70
     1
102
RTVSPost2010Prop46
 90
       50
102
RTVSPost2010PropOp46
 70
     1
102
RTVSPost2010Prop47
 90
       50
102
RTVSPost2010PropOp47
 70
     1
102
RTVSPost2010Prop48
 90
       50
102
RTVSPost2010PropOp48
 70
     1
102
RTVSPost2010Prop49
280
     0
102
RTVSPost2010PropOp49
 70
     1
102
RTVSPost2010Prop50
 90
       50
102
RTVSPost2010PropOp50
 70
     1
102
RTVSPost2010Prop51ColorIndex
 90
      256
102
RTVSPost2010Prop51ColorRGB
 90
-16777216
102
RTVSPost2010PropOp51
 70
     0
102
RTVSPost2010Prop52
140
1.0
102
RTVSPost2010PropOp52
 70
     0
102
RTVSPost2010Prop53
 90
        2
102
RTVSPost2010PropOp53
 70
     1
102
RTVSPost2010Prop54
  1
strokes_ogs.tif
102
RTVSPost2010PropOp54
 70
     1
102
RTVSPost2010Prop55
280
     0
102
RTVSPost2010PropOp55
 70
     1
102
RTVSPost2010Prop56
140
1.0
102
RTVSPost2010PropOp56
 70
     1
102
RTVSPost2010Prop57
140
1.0
102
RTVSPost2010PropOp57
 70
     1
  0
XRECORD
  5
149
102
{ACAD_REACTORS
330
148
102
}
330
148
100
AcDbXrecord
280
     1
102
RTVSPost2010Prop28
280
     0
102
RTVSPost2010PropOp28
 70
     1
102
RTVSPost2010Prop29
280
     1
102
RTVSPost2010PropOp29
 70
     1
102
RTVSPost2010Prop30
280
     1
102
RTVSPost2010PropOp30
 70
     1
102
RTVSPost2010Prop31
280
     0
102
RTVSPost2010PropOp31
 70
     1
102
RTVSPost2010Prop32
280
     0
102
RTVSPost2010PropOp32
 70
     1
102
RTVSPost2010Prop33
280
     0
102
RTVSPost2010PropOp33
 70
     1
102
RTVSPost2010Prop34
280
     0
102
RTVSPost2010PropOp34
 70
     1
102
RTVSPost2010Prop35
280
     0
102
RTVSPost2010PropOp35
 70
     1
102
RTVSPost2010Prop36
280
     0
102
RTVSPost2010PropOp36
 70
     1
102
RTVSPost2010Prop37
 90
       50
102
RTVSPost2010PropOp37
 70
     1
102
RTVSPost2010Prop38
140
0.0
102
RTVSPost2010PropOp38
 70
     1
102
RTVSPost2010Prop39
140
1.0
102
RTVSPost2010PropOp39
 70
     1
102
RTVSPost2010Prop40
 90
        0
102
RTVSPost2010PropOp40
 70
     1
102
RTVSPost2010Prop41ColorIndex
 90
       18
102
RTVSPost2010Prop41ColorRGB
 90
        0
102
RTVSPost2010PropOp41
 70
     1
102
RTVSPost2010Prop42
 90
       50
102
RTVSPost2010PropOp42
 70
     1
102
RTVSPost2010Prop43
 90
        3
102
RTVSPost2010PropOp43
 70
     1
102
RTVSPost2010Prop44ColorIndex
 90
        5
102
RTVSPost2010Prop44ColorRGB
 90
      255
102
RTVSPost2010PropOp44
 70
     1
102
RTVSPost2010Prop45
280
     0
102
RTVSPost2010PropOp45
 70
     1
102
RTVSPost2010Prop46
 90
       50
102
RTVSPost2010PropOp46
 70
     1
102
RTVSPost2010Prop47
 90
       50
102
RTVSPost2010PropOp47
 70
     1
102
RTVSPost2010Prop48
 90
       50
102
RTVSPost2010PropOp48
 70
     1
102
RTVSPost2010Prop49
280
     0
102
RTVSPost2010PropOp49
 70
     1
102
RTVSPost2010Prop50
 90
       50
102
RTVSPost2010PropOp50
 70
     1
102
RTVSPost2010Prop51ColorIndex
 90
      256
102
RTVSPost2010Prop51ColorRGB
 90
-16777216
102
RTVSPost2010PropOp51
 70
     0
102
RTVSPost2010Prop52
140
1.0
102
RTVSPost2010PropOp52
 70
     0
102
RTVSPost2010Prop53
 90
        2
102
RTVSPost2010PropOp53
 70
     1
102
RTVSPost2010Prop54
  1
strokes_ogs.tif
102
RTVSPost2010PropOp54
 70
     1
102
RTVSPost2010Prop55
280
     0
102
RTVSPost2010PropOp55
 70
     1
102
RTVSPost2010Prop56
140
1.0
102
RTVSPost2010PropOp56
 70
     1
102
RTVSPost2010Prop57
140
1.0
102
RTVSPost2010PropOp57
 70
     1
  0
XRECORD
  5
13D
102
{ACAD_REACTORS
330
13C
102
}
330
13C
100
AcDbXrecord
280
     1
102
RTVSPost2010Prop28
280
     0
102
RTVSPost2010PropOp28
 70
     1
102
RTVSPost2010Prop29
280
     1
102
RTVSPost2010PropOp29
 70
     1
102
RTVSPost2010Prop30
280
     1
102
RTVSPost2010PropOp30
 70
     1
102
RTVSPost2010Prop31
280
     0
102
RTVSPost2010PropOp31
 70
     1
102
RTVSPost2010Prop32
280
     0
102
RTVSPost2010PropOp32
 70
     1
102
RTVSPost2010Prop33
280
     0
102
RTVSPost2010PropOp33
 70
     1
102
RTVSPost2010Prop34
280
     0
102
RTVSPost2010PropOp34
 70
     1
102
RTVSPost2010Prop35
280
     0
102
RTVSPost2010PropOp35
 70
     1
102
RTVSPost2010Prop36
280
     0
102
RTVSPost2010PropOp36
 70
     1
102
RTVSPost2010Prop37
 90
       50
102
RTVSPost2010PropOp37
 70
     1
102
RTVSPost2010Prop38
140
0.0
102
RTVSPost2010PropOp38
 70
     1
102
RTVSPost2010Prop39
140
1.0
102
RTVSPost2010PropOp39
 70
     1
102
RTVSPost2010Prop40
 90
        0
102
RTVSPost2010PropOp40
 70
     1
102
RTVSPost2010Prop41ColorIndex
 90
       18
102
RTVSPost2010Prop41ColorRGB
 90
        0
102
RTVSPost2010PropOp41
 70
     1
102
RTVSPost2010Prop42
 90
       50
102
RTVSPost2010PropOp42
 70
     1
102
RTVSPost2010Prop43
 90
        3
102
RTVSPost2010PropOp43
 70
     1
102
RTVSPost2010Prop44ColorIndex
 90
        5
102
RTVSPost2010Prop44ColorRGB
 90
      255
102
RTVSPost2010PropOp44
 70
     1
102
RTVSPost2010Prop45
280
     0
102
RTVSPost2010PropOp45
 70
     1
102
RTVSPost2010Prop46
 90
       50
102
RTVSPost2010PropOp46
 70
     1
102
RTVSPost2010Prop47
 90
       50
102
RTVSPost2010PropOp47
 70
     1
102
RTVSPost2010Prop48
 90
       50
102
RTVSPost2010PropOp48
 70
     1
102
RTVSPost2010Prop49
280
     0
102
RTVSPost2010PropOp49
 70
     1
102
RTVSPost2010Prop50
 90
       50
102
RTVSPost2010PropOp50
 70
     1
102
RTVSPost2010Prop51ColorIndex
 90
      256
102
RTVSPost2010Prop51ColorRGB
 90
-16777216
102
RTVSPost2010PropOp51
 70
     0
102
RTVSPost2010Prop52
140
1.0
102
RTVSPost2010PropOp52
 70
     0
102
RTVSPost2010Prop53
 90
        2
102
RTVSPost2010PropOp53
 70
     1
102
RTVSPost2010Prop54
  1
strokes_ogs.tif
102
RTVSPost2010PropOp54
 70
     1
102
RTVSPost2010Prop55
280
     0
102
RTVSPost2010PropOp55
 70
     1
102
RTVSPost2010Prop56
140
1.0
102
RTVSPost2010PropOp56
 70
     1
102
RTVSPost2010Prop57
140
1.0
102
RTVSPost2010PropOp57
 70
     1
  0
XRECORD
  5
13F
102
{ACAD_REACTORS
330
13E
102
}
330
13E
100
AcDbXrecord
280
     1
102
RTVSPost2010Prop28
280
     0
102
RTVSPost2010PropOp28
 70
     1
102
RTVSPost2010Prop29
280
     1
102
RTVSPost2010PropOp29
 70
     1
102
RTVSPost2010Prop30
280
     1
102
RTVSPost2010PropOp30
 70
     1
102
RTVSPost2010Prop31
280
     0
102
RTVSPost2010PropOp31
 70
     1
102
RTVSPost2010Prop32
280
     0
102
RTVSPost2010PropOp32
 70
     1
102
RTVSPost2010Prop33
280
     0
102
RTVSPost2010PropOp33
 70
     1
102
RTVSPost2010Prop34
280
     0
102
RTVSPost2010PropOp34
 70
     1
102
RTVSPost2010Prop35
280
     0
102
RTVSPost2010PropOp35
 70
     1
102
RTVSPost2010Prop36
280
     0
102
RTVSPost2010PropOp36
 70
     1
102
RTVSPost2010Prop37
 90
       50
102
RTVSPost2010PropOp37
 70
     1
102
RTVSPost2010Prop38
140
0.0
102
RTVSPost2010PropOp38
 70
     1
102
RTVSPost2010Prop39
140
1.0
102
RTVSPost2010PropOp39
 70
     1
102
RTVSPost2010Prop40
 90
        0
102
RTVSPost2010PropOp40
 70
     1
102
RTVSPost2010Prop41ColorIndex
 90
       18
102
RTVSPost2010Prop41ColorRGB
 90
        0
102
RTVSPost2010PropOp41
 70
     1
102
RTVSPost2010Prop42
 90
       50
102
RTVSPost2010PropOp42
 70
     1
102
RTVSPost2010Prop43
 90
        3
102
RTVSPost2010PropOp43
 70
     1
102
RTVSPost2010Prop44ColorIndex
 90
        5
102
RTVSPost2010Prop44ColorRGB
 90
      255
102
RTVSPost2010PropOp44
 70
     1
102
RTVSPost2010Prop45
280
     0
102
RTVSPost2010PropOp45
 70
     1
102
RTVSPost2010Prop46
 90
       50
102
RTVSPost2010PropOp46
 70
     1
102
RTVSPost2010Prop47
 90
       50
102
RTVSPost2010PropOp47
 70
     1
102
RTVSPost2010Prop48
 90
       50
102
RTVSPost2010PropOp48
 70
     1
102
RTVSPost2010Prop49
280
     0
102
RTVSPost2010PropOp49
 70
     1
102
RTVSPost2010Prop50
 90
       50
102
RTVSPost2010PropOp50
 70
     1
102
RTVSPost2010Prop51ColorIndex
 90
      256
102
RTVSPost2010Prop51ColorRGB
 90
-16777216
102
RTVSPost2010PropOp51
 70
     0
102
RTVSPost2010Prop52
140
1.0
102
RTVSPost2010PropOp52
 70
     0
102
RTVSPost2010Prop53
 90
        2
102
RTVSPost2010PropOp53
 70
     1
102
RTVSPost2010Prop54
  1
strokes_ogs.tif
102
RTVSPost2010PropOp54
 70
     1
102
RTVSPost2010Prop55
280
     0
102
RTVSPost2010PropOp55
 70
     1
102
RTVSPost2010Prop56
140
1.0
102
RTVSPost2010PropOp56
 70
     1
102
RTVSPost2010Prop57
140
1.0
102
RTVSPost2010PropOp57
 70
     1
  0
XRECORD
  5
14F
102
{ACAD_REACTORS
330
14E
102
}
330
14E
100
AcDbXrecord
280
     1
102
RTVSPost2010Prop28
280
     0
102
RTVSPost2010PropOp28
 70
     0
102
RTVSPost2010Prop29
280
     1
102
RTVSPost2010PropOp29
 70
     0
102
RTVSPost2010Prop30
280
     1
102
RTVSPost2010PropOp30
 70
     0
102
RTVSPost2010Prop31
280
     0
102
RTVSPost2010PropOp31
 70
     0
102
RTVSPost2010Prop32
280
     0
102
RTVSPost2010PropOp32
 70
     0
102
RTVSPost2010Prop33
280
     0
102
RTVSPost2010PropOp33
 70
     0
102
RTVSPost2010Prop34
280
     0
102
RTVSPost2010PropOp34
 70
     0
102
RTVSPost2010Prop35
280
     0
102
RTVSPost2010PropOp35
 70
     0
102
RTVSPost2010Prop36
280
     0
102
RTVSPost2010PropOp36
 70
     0
102
RTVSPost2010Prop37
 90
       50
102
RTVSPost2010PropOp37
 70
     0
102
RTVSPost2010Prop38
140
0.0
102
RTVSPost2010PropOp38
 70
     0
102
RTVSPost2010Prop39
140
1.0
102
RTVSPost2010PropOp39
 70
     0
102
RTVSPost2010Prop40
 90
        0
102
RTVSPost2010PropOp40
 70
     0
102
RTVSPost2010Prop41ColorIndex
 90
       18
102
RTVSPost2010Prop41ColorRGB
 90
        0
102
RTVSPost2010PropOp41
 70
     0
102
RTVSPost2010Prop42
 90
       50
102
RTVSPost2010PropOp42
 70
     0
102
RTVSPost2010Prop43
 90
        3
102
RTVSPost2010PropOp43
 70
     0
102
RTVSPost2010Prop44ColorIndex
 90
        5
102
RTVSPost2010Prop44ColorRGB
 90
      255
102
RTVSPost2010PropOp44
 70
     0
102
RTVSPost2010Prop45
280
     0
102
RTVSPost2010PropOp45
 70
     0
102
RTVSPost2010Prop46
 90
       50
102
RTVSPost2010PropOp46
 70
     0
102
RTVSPost2010Prop47
 90
       50
102
RTVSPost2010PropOp47
 70
     0
102
RTVSPost2010Prop48
 90
       50
102
RTVSPost2010PropOp48
 70
     0
102
RTVSPost2010Prop49
280
     0
102
RTVSPost2010PropOp49
 70
     0
102
RTVSPost2010Prop50
 90
       50
102
RTVSPost2010PropOp50
 70
     0
102
RTVSPost2010Prop51ColorIndex
 90
      256
102
RTVSPost2010Prop51ColorRGB
 90
-16777216
102
RTVSPost2010PropOp51
 70
     0
102
RTVSPost2010Prop52
140
1.0
102
RTVSPost2010PropOp52
 70
     0
102
RTVSPost2010Prop53
 90
        2
102
RTVSPost2010PropOp53
 70
     0
102
RTVSPost2010Prop54
  1
strokes_ogs.tif
102
RTVSPost2010PropOp54
 70
     0
102
RTVSPost2010Prop55
280
     0
102
RTVSPost2010PropOp55
 70
     0
102
RTVSPost2010Prop56
140
1.0
102
RTVSPost2010PropOp56
 70
     0
102
RTVSPost2010Prop57
140
1.0
102
RTVSPost2010PropOp57
 70
     0
  0
XRECORD
  5
147
102
{ACAD_REACTORS
330
146
102
}
330
146
100
AcDbXrecord
280
     1
102
RTVSPost2010Prop28
280
     0
102
RTVSPost2010PropOp28
 70
     1
102
RTVSPost2010Prop29
280
     1
102
RTVSPost2010PropOp29
 70
     1
102
RTVSPost2010Prop30
280
     1
102
RTVSPost2010PropOp30
 70
     1
102
RTVSPost2010Prop31
280
     0
102
RTVSPost2010PropOp31
 70
     1
102
RTVSPost2010Prop32
280
     0
102
RTVSPost2010PropOp32
 70
     1
102
RTVSPost2010Prop33
280
     0
102
RTVSPost2010PropOp33
 70
     1
102
RTVSPost2010Prop34
280
     0
102
RTVSPost2010PropOp34
 70
     1
102
RTVSPost2010Prop35
280
     0
102
RTVSPost2010PropOp35
 70
     1
102
RTVSPost2010Prop36
280
     0
102
RTVSPost2010PropOp36
 70
     1
102
RTVSPost2010Prop37
 90
       50
102
RTVSPost2010PropOp37
 70
     1
102
RTVSPost2010Prop38
140
0.0
102
RTVSPost2010PropOp38
 70
     1
102
RTVSPost2010Prop39
140
1.0
102
RTVSPost2010PropOp39
 70
     1
102
RTVSPost2010Prop40
 90
        0
102
RTVSPost2010PropOp40
 70
     1
102
RTVSPost2010Prop41ColorIndex
 90
       18
102
RTVSPost2010Prop41ColorRGB
 90
        0
102
RTVSPost2010PropOp41
 70
     1
102
RTVSPost2010Prop42
 90
       50
102
RTVSPost2010PropOp42
 70
     1
102
RTVSPost2010Prop43
 90
        3
102
RTVSPost2010PropOp43
 70
     1
102
RTVSPost2010Prop44ColorIndex
 90
        5
102
RTVSPost2010Prop44ColorRGB
 90
      255
102
RTVSPost2010PropOp44
 70
     1
102
RTVSPost2010Prop45
280
     0
102
RTVSPost2010PropOp45
 70
     1
102
RTVSPost2010Prop46
 90
       50
102
RTVSPost2010PropOp46
 70
     1
102
RTVSPost2010Prop47
 90
       50
102
RTVSPost2010PropOp47
 70
     1
102
RTVSPost2010Prop48
 90
       50
102
RTVSPost2010PropOp48
 70
     1
102
RTVSPost2010Prop49
280
     0
102
RTVSPost2010PropOp49
 70
     1
102
RTVSPost2010Prop50
 90
       50
102
RTVSPost2010PropOp50
 70
     1
102
RTVSPost2010Prop51ColorIndex
 90
      256
102
RTVSPost2010Prop51ColorRGB
 90
-16777216
102
RTVSPost2010PropOp51
 70
     0
102
RTVSPost2010Prop52
140
1.0
102
RTVSPost2010PropOp52
 70
     0
102
RTVSPost2010Prop53
 90
        2
102
RTVSPost2010PropOp53
 70
     1
102
RTVSPost2010Prop54
  1
strokes_ogs.tif
102
RTVSPost2010PropOp54
 70
     1
102
RTVSPost2010Prop55
280
     0
102
RTVSPost2010PropOp55
 70
     1
102
RTVSPost2010Prop56
140
1.0
102
RTVSPost2010PropOp56
 70
     1
102
RTVSPost2010Prop57
140
1.0
102
RTVSPost2010PropOp57
 70
     1
  0
XRECORD
  5
12B
102
{ACAD_REACTORS
330
12A
102
}
330
12A
100
AcDbXrecord
280
     1
102
RTVSPost2010Prop28
280
     0
102
RTVSPost2010PropOp28
 70
     1
102
RTVSPost2010Prop29
280
     1
102
RTVSPost2010PropOp29
 70
     1
102
RTVSPost2010Prop30
280
     1
102
RTVSPost2010PropOp30
 70
     1
102
RTVSPost2010Prop31
280
     0
102
RTVSPost2010PropOp31
 70
     1
102
RTVSPost2010Prop32
280
     0
102
RTVSPost2010PropOp32
 70
     1
102
RTVSPost2010Prop33
280
     0
102
RTVSPost2010PropOp33
 70
     1
102
RTVSPost2010Prop34
280
     0
102
RTVSPost2010PropOp34
 70
     1
102
RTVSPost2010Prop35
280
     0
102
RTVSPost2010PropOp35
 70
     1
102
RTVSPost2010Prop36
280
     0
102
RTVSPost2010PropOp36
 70
     1
102
RTVSPost2010Prop37
 90
       50
102
RTVSPost2010PropOp37
 70
     1
102
RTVSPost2010Prop38
140
0.0
102
RTVSPost2010PropOp38
 70
     1
102
RTVSPost2010Prop39
140
1.0
102
RTVSPost2010PropOp39
 70
     1
102
RTVSPost2010Prop40
 90
        0
102
RTVSPost2010PropOp40
 70
     1
102
RTVSPost2010Prop41ColorIndex
 90
       18
102
RTVSPost2010Prop41ColorRGB
 90
        0
102
RTVSPost2010PropOp41
 70
     1
102
RTVSPost2010Prop42
 90
       50
102
RTVSPost2010PropOp42
 70
     1
102
RTVSPost2010Prop43
 90
        3
102
RTVSPost2010PropOp43
 70
     1
102
RTVSPost2010Prop44ColorIndex
 90
        5
102
RTVSPost2010Prop44ColorRGB
 90
      255
102
RTVSPost2010PropOp44
 70
     1
102
RTVSPost2010Prop45
280
     0
102
RTVSPost2010PropOp45
 70
     1
102
RTVSPost2010Prop46
 90
       50
102
RTVSPost2010PropOp46
 70
     1
102
RTVSPost2010Prop47
 90
       50
102
RTVSPost2010PropOp47
 70
     1
102
RTVSPost2010Prop48
 90
       50
102
RTVSPost2010PropOp48
 70
     1
102
RTVSPost2010Prop49
280
     0
102
RTVSPost2010PropOp49
 70
     1
102
RTVSPost2010Prop50
 90
       50
102
RTVSPost2010PropOp50
 70
     1
102
RTVSPost2010Prop51ColorIndex
 90
      256
102
RTVSPost2010Prop51ColorRGB
 90
-16777216
102
RTVSPost2010PropOp51
 70
     0
102
RTVSPost2010Prop52
140
1.0
102
RTVSPost2010PropOp52
 70
     0
102
RTVSPost2010Prop53
 90
        2
102
RTVSPost2010PropOp53
 70
     1
102
RTVSPost2010Prop54
  1
strokes_ogs.tif
102
RTVSPost2010PropOp54
 70
     1
102
RTVSPost2010Prop55
280
     0
102
RTVSPost2010PropOp55
 70
     1
102
RTVSPost2010Prop56
140
1.0
102
RTVSPost2010PropOp56
 70
     1
102
RTVSPost2010Prop57
140
1.0
102
RTVSPost2010PropOp57
 70
     1
  0
XRECORD
  5
12D
102
{ACAD_REACTORS
330
12C
102
}
330
12C
100
AcDbXrecord
280
     1
102
RTVSPost2010Prop28
280
     0
102
RTVSPost2010PropOp28
 70
     1
102
RTVSPost2010Prop29
280
     1
102
RTVSPost2010PropOp29
 70
     1
102
RTVSPost2010Prop30
280
     1
102
RTVSPost2010PropOp30
 70
     1
102
RTVSPost2010Prop31
280
     0
102
RTVSPost2010PropOp31
 70
     1
102
RTVSPost2010Prop32
280
     0
102
RTVSPost2010PropOp32
 70
     1
102
RTVSPost2010Prop33
280
     0
102
RTVSPost2010PropOp33
 70
     1
102
RTVSPost2010Prop34
280
     0
102
RTVSPost2010PropOp34
 70
     1
102
RTVSPost2010Prop35
280
     0
102
RTVSPost2010PropOp35
 70
     1
102
RTVSPost2010Prop36
280
     0
102
RTVSPost2010PropOp36
 70
     1
102
RTVSPost2010Prop37
 90
       50
102
RTVSPost2010PropOp37
 70
     1
102
RTVSPost2010Prop38
140
0.0
102
RTVSPost2010PropOp38
 70
     1
102
RTVSPost2010Prop39
140
1.0
102
RTVSPost2010PropOp39
 70
     1
102
RTVSPost2010Prop40
 90
        0
102
RTVSPost2010PropOp40
 70
     1
102
RTVSPost2010Prop41ColorIndex
 90
       18
102
RTVSPost2010Prop41ColorRGB
 90
        0
102
RTVSPost2010PropOp41
 70
     1
102
RTVSPost2010Prop42
 90
       50
102
RTVSPost2010PropOp42
 70
     1
102
RTVSPost2010Prop43
 90
        3
102
RTVSPost2010PropOp43
 70
     1
102
RTVSPost2010Prop44ColorIndex
 90
        5
102
RTVSPost2010Prop44ColorRGB
 90
      255
102
RTVSPost2010PropOp44
 70
     1
102
RTVSPost2010Prop45
280
     0
102
RTVSPost2010PropOp45
 70
     1
102
RTVSPost2010Prop46
 90
       50
102
RTVSPost2010PropOp46
 70
     1
102
RTVSPost2010Prop47
 90
       50
102
RTVSPost2010PropOp47
 70
     1
102
RTVSPost2010Prop48
 90
       50
102
RTVSPost2010PropOp48
 70
     1
102
RTVSPost2010Prop49
280
     0
102
RTVSPost2010PropOp49
 70
     1
102
RTVSPost2010Prop50
 90
       50
102
RTVSPost2010PropOp50
 70
     1
102
RTVSPost2010Prop51ColorIndex
 90
      256
102
RTVSPost2010Prop51ColorRGB
 90
-16777216
102
RTVSPost2010PropOp51
 70
     0
102
RTVSPost2010Prop52
140
1.0
102
RTVSPost2010PropOp52
 70
     0
102
RTVSPost2010Prop53
 90
        2
102
RTVSPost2010PropOp53
 70
     1
102
RTVSPost2010Prop54
  1
strokes_ogs.tif
102
RTVSPost2010PropOp54
 70
     1
102
RTVSPost2010Prop55
280
     0
102
RTVSPost2010PropOp55
 70
     1
102
RTVSPost2010Prop56
140
1.0
102
RTVSPost2010PropOp56
 70
     1
102
RTVSPost2010Prop57
140
1.0
102
RTVSPost2010PropOp57
 70
     1
  0
XRECORD
  5
12F
102
{ACAD_REACTORS
330
12E
102
}
330
12E
100
AcDbXrecord
280
     1
102
RTVSPost2010Prop28
280
     0
102
RTVSPost2010PropOp28
 70
     1
102
RTVSPost2010Prop29
280
     1
102
RTVSPost2010PropOp29
 70
     1
102
RTVSPost2010Prop30
280
     1
102
RTVSPost2010PropOp30
 70
     1
102
RTVSPost2010Prop31
280
     0
102
RTVSPost2010PropOp31
 70
     1
102
RTVSPost2010Prop32
280
     0
102
RTVSPost2010PropOp32
 70
     1
102
RTVSPost2010Prop33
280
     0
102
RTVSPost2010PropOp33
 70
     1
102
RTVSPost2010Prop34
280
     0
102
RTVSPost2010PropOp34
 70
     1
102
RTVSPost2010Prop35
280
     0
102
RTVSPost2010PropOp35
 70
     1
102
RTVSPost2010Prop36
280
     0
102
RTVSPost2010PropOp36
 70
     1
102
RTVSPost2010Prop37
 90
       50
102
RTVSPost2010PropOp37
 70
     1
102
RTVSPost2010Prop38
140
0.0
102
RTVSPost2010PropOp38
 70
     1
102
RTVSPost2010Prop39
140
1.0
102
RTVSPost2010PropOp39
 70
     1
102
RTVSPost2010Prop40
 90
        0
102
RTVSPost2010PropOp40
 70
     1
102
RTVSPost2010Prop41ColorIndex
 90
       18
102
RTVSPost2010Prop41ColorRGB
 90
        0
102
RTVSPost2010PropOp41
 70
     1
102
RTVSPost2010Prop42
 90
       50
102
RTVSPost2010PropOp42
 70
     1
102
RTVSPost2010Prop43
 90
        3
102
RTVSPost2010PropOp43
 70
     1
102
RTVSPost2010Prop44ColorIndex
 90
        5
102
RTVSPost2010Prop44ColorRGB
 90
      255
102
RTVSPost2010PropOp44
 70
     1
102
RTVSPost2010Prop45
280
     0
102
RTVSPost2010PropOp45
 70
     1
102
RTVSPost2010Prop46
 90
       50
102
RTVSPost2010PropOp46
 70
     1
102
RTVSPost2010Prop47
 90
       50
102
RTVSPost2010PropOp47
 70
     1
102
RTVSPost2010Prop48
 90
       50
102
RTVSPost2010PropOp48
 70
     1
102
RTVSPost2010Prop49
280
     0
102
RTVSPost2010PropOp49
 70
     1
102
RTVSPost2010Prop50
 90
       50
102
RTVSPost2010PropOp50
 70
     1
102
RTVSPost2010Prop51ColorIndex
 90
      256
102
RTVSPost2010Prop51ColorRGB
 90
-16777216
102
RTVSPost2010PropOp51
 70
     0
102
RTVSPost2010Prop52
140
1.0
102
RTVSPost2010PropOp52
 70
     0
102
RTVSPost2010Prop53
 90
        2
102
RTVSPost2010PropOp53
 70
     1
102
RTVSPost2010Prop54
  1
strokes_ogs.tif
102
RTVSPost2010PropOp54
 70
     1
102
RTVSPost2010Prop55
280
     0
102
RTVSPost2010PropOp55
 70
     1
102
RTVSPost2010Prop56
140
1.0
102
RTVSPost2010PropOp56
 70
     1
102
RTVSPost2010Prop57
140
1.0
102
RTVSPost2010PropOp57
 70
     1
  0
XRECORD
  5
131
102
{ACAD_REACTORS
330
130
102
}
330
130
100
AcDbXrecord
280
     1
102
RTVSPost2010Prop28
280
     0
102
RTVSPost2010PropOp28
 70
     1
102
RTVSPost2010Prop29
280
     1
102
RTVSPost2010PropOp29
 70
     1
102
RTVSPost2010Prop30
280
     1
102
RTVSPost2010PropOp30
 70
     1
102
RTVSPost2010Prop31
280
     0
102
RTVSPost2010PropOp31
 70
     1
102
RTVSPost2010Prop32
280
     0
102
RTVSPost2010PropOp32
 70
     1
102
RTVSPost2010Prop33
280
     0
102
RTVSPost2010PropOp33
 70
     1
102
RTVSPost2010Prop34
280
     0
102
RTVSPost2010PropOp34
 70
     1
102
RTVSPost2010Prop35
280
     0
102
RTVSPost2010PropOp35
 70
     1
102
RTVSPost2010Prop36
280
     0
102
RTVSPost2010PropOp36
 70
     1
102
RTVSPost2010Prop37
 90
       50
102
RTVSPost2010PropOp37
 70
     1
102
RTVSPost2010Prop38
140
0.0
102
RTVSPost2010PropOp38
 70
     1
102
RTVSPost2010Prop39
140
1.0
102
RTVSPost2010PropOp39
 70
     1
102
RTVSPost2010Prop40
 90
        0
102
RTVSPost2010PropOp40
 70
     1
102
RTVSPost2010Prop41ColorIndex
 90
       18
102
RTVSPost2010Prop41ColorRGB
 90
        0
102
RTVSPost2010PropOp41
 70
     1
102
RTVSPost2010Prop42
 90
       50
102
RTVSPost2010PropOp42
 70
     1
102
RTVSPost2010Prop43
 90
        3
102
RTVSPost2010PropOp43
 70
     1
102
RTVSPost2010Prop44ColorIndex
 90
        5
102
RTVSPost2010Prop44ColorRGB
 90
      255
102
RTVSPost2010PropOp44
 70
     1
102
RTVSPost2010Prop45
280
     0
102
RTVSPost2010PropOp45
 70
     1
102
RTVSPost2010Prop46
 90
       50
102
RTVSPost2010PropOp46
 70
     1
102
RTVSPost2010Prop47
 90
       50
102
RTVSPost2010PropOp47
 70
     1
102
RTVSPost2010Prop48
 90
       50
102
RTVSPost2010PropOp48
 70
     1
102
RTVSPost2010Prop49
280
     0
102
RTVSPost2010PropOp49
 70
     1
102
RTVSPost2010Prop50
 90
       50
102
RTVSPost2010PropOp50
 70
     1
102
RTVSPost2010Prop51ColorIndex
 90
      256
102
RTVSPost2010Prop51ColorRGB
 90
-16777216
102
RTVSPost2010PropOp51
 70
     0
102
RTVSPost2010Prop52
140
1.0
102
RTVSPost2010PropOp52
 70
     0
102
RTVSPost2010Prop53
 90
        2
102
RTVSPost2010PropOp53
 70
     1
102
RTVSPost2010Prop54
  1
strokes_ogs.tif
102
RTVSPost2010PropOp54
 70
     1
102
RTVSPost2010Prop55
280
     0
102
RTVSPost2010PropOp55
 70
     1
102
RTVSPost2010Prop56
140
1.0
102
RTVSPost2010PropOp56
 70
     1
102
RTVSPost2010Prop57
140
1.0
102
RTVSPost2010PropOp57
 70
     1
  0
XRECORD
  5
137
102
{ACAD_REACTORS
330
136
102
}
330
136
100
AcDbXrecord
280
     1
102
RTVSPost2010Prop28
280
     0
102
RTVSPost2010PropOp28
 70
     1
102
RTVSPost2010Prop29
280
     1
102
RTVSPost2010PropOp29
 70
     1
102
RTVSPost2010Prop30
280
     1
102
RTVSPost2010PropOp30
 70
     1
102
RTVSPost2010Prop31
280
     0
102
RTVSPost2010PropOp31
 70
     1
102
RTVSPost2010Prop32
280
     0
102
RTVSPost2010PropOp32
 70
     1
102
RTVSPost2010Prop33
280
     0
102
RTVSPost2010PropOp33
 70
     1
102
RTVSPost2010Prop34
280
     0
102
RTVSPost2010PropOp34
 70
     1
102
RTVSPost2010Prop35
280
     0
102
RTVSPost2010PropOp35
 70
     1
102
RTVSPost2010Prop36
280
     0
102
RTVSPost2010PropOp36
 70
     1
102
RTVSPost2010Prop37
 90
       50
102
RTVSPost2010PropOp37
 70
     1
102
RTVSPost2010Prop38
140
0.0
102
RTVSPost2010PropOp38
 70
     1
102
RTVSPost2010Prop39
140
1.0
102
RTVSPost2010PropOp39
 70
     1
102
RTVSPost2010Prop40
 90
        0
102
RTVSPost2010PropOp40
 70
     1
102
RTVSPost2010Prop41ColorIndex
 90
       18
102
RTVSPost2010Prop41ColorRGB
 90
        0
102
RTVSPost2010PropOp41
 70
     1
102
RTVSPost2010Prop42
 90
       50
102
RTVSPost2010PropOp42
 70
     1
102
RTVSPost2010Prop43
 90
        3
102
RTVSPost2010PropOp43
 70
     1
102
RTVSPost2010Prop44ColorIndex
 90
        5
102
RTVSPost2010Prop44ColorRGB
 90
      255
102
RTVSPost2010PropOp44
 70
     1
102
RTVSPost2010Prop45
280
     0
102
RTVSPost2010PropOp45
 70
     1
102
RTVSPost2010Prop46
 90
       50
102
RTVSPost2010PropOp46
 70
     1
102
RTVSPost2010Prop47
 90
       50
102
RTVSPost2010PropOp47
 70
     1
102
RTVSPost2010Prop48
 90
       50
102
RTVSPost2010PropOp48
 70
     1
102
RTVSPost2010Prop49
280
     0
102
RTVSPost2010PropOp49
 70
     1
102
RTVSPost2010Prop50
 90
       50
102
RTVSPost2010PropOp50
 70
     1
102
RTVSPost2010Prop51ColorIndex
 90
      256
102
RTVSPost2010Prop51ColorRGB
 90
-16777216
102
RTVSPost2010PropOp51
 70
     0
102
RTVSPost2010Prop52
140
1.0
102
RTVSPost2010PropOp52
 70
     0
102
RTVSPost2010Prop53
 90
        2
102
RTVSPost2010PropOp53
 70
     1
102
RTVSPost2010Prop54
  1
strokes_ogs.tif
102
RTVSPost2010PropOp54
 70
     1
102
RTVSPost2010Prop55
280
     0
102
RTVSPost2010PropOp55
 70
     1
102
RTVSPost2010Prop56
140
1.0
102
RTVSPost2010PropOp56
 70
     1
102
RTVSPost2010Prop57
140
1.0
102
RTVSPost2010PropOp57
 70
     1
  0
XRECORD
  5
14B
102
{ACAD_REACTORS
330
14A
102
}
330
14A
100
AcDbXrecord
280
     1
102
RTVSPost2010Prop28
280
     0
102
RTVSPost2010PropOp28
 70
     0
102
RTVSPost2010Prop29
280
     1
102
RTVSPost2010PropOp29
 70
     0
102
RTVSPost2010Prop30
280
     1
102
RTVSPost2010PropOp30
 70
     0
102
RTVSPost2010Prop31
280
     0
102
RTVSPost2010PropOp31
 70
     0
102
RTVSPost2010Prop32
280
     0
102
RTVSPost2010PropOp32
 70
     0
102
RTVSPost2010Prop33
280
     0
102
RTVSPost2010PropOp33
 70
     0
102
RTVSPost2010Prop34
280
     0
102
RTVSPost2010PropOp34
 70
     0
102
RTVSPost2010Prop35
280
     0
102
RTVSPost2010PropOp35
 70
     0
102
RTVSPost2010Prop36
280
     0
102
RTVSPost2010PropOp36
 70
     0
102
RTVSPost2010Prop37
 90
       50
102
RTVSPost2010PropOp37
 70
     0
102
RTVSPost2010Prop38
140
0.0
102
RTVSPost2010PropOp38
 70
     0
102
RTVSPost2010Prop39
140
1.0
102
RTVSPost2010PropOp39
 70
     0
102
RTVSPost2010Prop40
 90
        0
102
RTVSPost2010PropOp40
 70
     0
102
RTVSPost2010Prop41ColorIndex
 90
       18
102
RTVSPost2010Prop41ColorRGB
 90
        0
102
RTVSPost2010PropOp41
 70
     0
102
RTVSPost2010Prop42
 90
       50
102
RTVSPost2010PropOp42
 70
     0
102
RTVSPost2010Prop43
 90
        3
102
RTVSPost2010PropOp43
 70
     0
102
RTVSPost2010Prop44ColorIndex
 90
        5
102
RTVSPost2010Prop44ColorRGB
 90
      255
102
RTVSPost2010PropOp44
 70
     0
102
RTVSPost2010Prop45
280
     0
102
RTVSPost2010PropOp45
 70
     0
102
RTVSPost2010Prop46
 90
       50
102
RTVSPost2010PropOp46
 70
     0
102
RTVSPost2010Prop47
 90
       50
102
RTVSPost2010PropOp47
 70
     0
102
RTVSPost2010Prop48
 90
       50
102
RTVSPost2010PropOp48
 70
     0
102
RTVSPost2010Prop49
280
     0
102
RTVSPost2010PropOp49
 70
     0
102
RTVSPost2010Prop50
 90
       50
102
RTVSPost2010PropOp50
 70
     0
102
RTVSPost2010Prop51ColorIndex
 90
      256
102
RTVSPost2010Prop51ColorRGB
 90
-16777216
102
RTVSPost2010PropOp51
 70
     0
102
RTVSPost2010Prop52
140
1.0
102
RTVSPost2010PropOp52
 70
     0
102
RTVSPost2010Prop53
 90
        2
102
RTVSPost2010PropOp53
 70
     0
102
RTVSPost2010Prop54
  1
strokes_ogs.tif
102
RTVSPost2010PropOp54
 70
     0
102
RTVSPost2010Prop55
280
     0
102
RTVSPost2010PropOp55
 70
     0
102
RTVSPost2010Prop56
140
1.0
102
RTVSPost2010PropOp56
 70
     0
102
RTVSPost2010Prop57
140
1.0
102
RTVSPost2010PropOp57
 70
     0
  0
XRECORD
  5
145
102
{ACAD_REACTORS
330
144
102
}
330
144
100
AcDbXrecord
280
     1
102
RTVSPost2010Prop28
280
     0
102
RTVSPost2010PropOp28
 70
     1
102
RTVSPost2010Prop29
280
     1
102
RTVSPost2010PropOp29
 70
     1
102
RTVSPost2010Prop30
280
     1
102
RTVSPost2010PropOp30
 70
     1
102
RTVSPost2010Prop31
280
     0
102
RTVSPost2010PropOp31
 70
     1
102
RTVSPost2010Prop32
280
     0
102
RTVSPost2010PropOp32
 70
     1
102
RTVSPost2010Prop33
280
     0
102
RTVSPost2010PropOp33
 70
     1
102
RTVSPost2010Prop34
280
     0
102
RTVSPost2010PropOp34
 70
     1
102
RTVSPost2010Prop35
280
     0
102
RTVSPost2010PropOp35
 70
     1
102
RTVSPost2010Prop36
280
     0
102
RTVSPost2010PropOp36
 70
     1
102
RTVSPost2010Prop37
 90
       50
102
RTVSPost2010PropOp37
 70
     1
102
RTVSPost2010Prop38
140
0.0
102
RTVSPost2010PropOp38
 70
     1
102
RTVSPost2010Prop39
140
1.0
102
RTVSPost2010PropOp39
 70
     1
102
RTVSPost2010Prop40
 90
        0
102
RTVSPost2010PropOp40
 70
     1
102
RTVSPost2010Prop41ColorIndex
 90
       18
102
RTVSPost2010Prop41ColorRGB
 90
        0
102
RTVSPost2010PropOp41
 70
     1
102
RTVSPost2010Prop42
 90
       50
102
RTVSPost2010PropOp42
 70
     1
102
RTVSPost2010Prop43
 90
        3
102
RTVSPost2010PropOp43
 70
     1
102
RTVSPost2010Prop44ColorIndex
 90
        5
102
RTVSPost2010Prop44ColorRGB
 90
      255
102
RTVSPost2010PropOp44
 70
     1
102
RTVSPost2010Prop45
280
     0
102
RTVSPost2010PropOp45
 70
     1
102
RTVSPost2010Prop46
 90
       50
102
RTVSPost2010PropOp46
 70
     1
102
RTVSPost2010Prop47
 90
       50
102
RTVSPost2010PropOp47
 70
     1
102
RTVSPost2010Prop48
 90
       50
102
RTVSPost2010PropOp48
 70
     1
102
RTVSPost2010Prop49
280
     0
102
RTVSPost2010PropOp49
 70
     1
102
RTVSPost2010Prop50
 90
       50
102
RTVSPost2010PropOp50
 70
     1
102
RTVSPost2010Prop51ColorIndex
 90
      256
102
RTVSPost2010Prop51ColorRGB
 90
-16777216
102
RTVSPost2010PropOp51
 70
     0
102
RTVSPost2010Prop52
140
1.0
102
RTVSPost2010PropOp52
 70
     0
102
RTVSPost2010Prop53
 90
        2
102
RTVSPost2010PropOp53
 70
     1
102
RTVSPost2010Prop54
  1
strokes_ogs.tif
102
RTVSPost2010PropOp54
 70
     1
102
RTVSPost2010Prop55
280
     0
102
RTVSPost2010PropOp55
 70
     1
102
RTVSPost2010Prop56
140
1.0
102
RTVSPost2010PropOp56
 70
     1
102
RTVSPost2010Prop57
140
1.0
102
RTVSPost2010PropOp57
 70
     1
  0
XRECORD
  5
14D
102
{ACAD_REACTORS
330
14C
102
}
330
14C
100
AcDbXrecord
280
     1
102
RTVSPost2010Prop28
280
     0
102
RTVSPost2010PropOp28
 70
     0
102
RTVSPost2010Prop29
280
     1
102
RTVSPost2010PropOp29
 70
     0
102
RTVSPost2010Prop30
280
     1
102
RTVSPost2010PropOp30
 70
     0
102
RTVSPost2010Prop31
280
     0
102
RTVSPost2010PropOp31
 70
     0
102
RTVSPost2010Prop32
280
     0
102
RTVSPost2010PropOp32
 70
     0
102
RTVSPost2010Prop33
280
     0
102
RTVSPost2010PropOp33
 70
     0
102
RTVSPost2010Prop34
280
     0
102
RTVSPost2010PropOp34
 70
     0
102
RTVSPost2010Prop35
280
     0
102
RTVSPost2010PropOp35
 70
     0
102
RTVSPost2010Prop36
280
     0
102
RTVSPost2010PropOp36
 70
     0
102
RTVSPost2010Prop37
 90
       50
102
RTVSPost2010PropOp37
 70
     0
102
RTVSPost2010Prop38
140
0.0
102
RTVSPost2010PropOp38
 70
     0
102
RTVSPost2010Prop39
140
1.0
102
RTVSPost2010PropOp39
 70
     0
102
RTVSPost2010Prop40
 90
        0
102
RTVSPost2010PropOp40
 70
     0
102
RTVSPost2010Prop41ColorIndex
 90
       18
102
RTVSPost2010Prop41ColorRGB
 90
        0
102
RTVSPost2010PropOp41
 70
     0
102
RTVSPost2010Prop42
 90
       50
102
RTVSPost2010PropOp42
 70
     0
102
RTVSPost2010Prop43
 90
        3
102
RTVSPost2010PropOp43
 70
     0
102
RTVSPost2010Prop44ColorIndex
 90
        5
102
RTVSPost2010Prop44ColorRGB
 90
      255
102
RTVSPost2010PropOp44
 70
     0
102
RTVSPost2010Prop45
280
     0
102
RTVSPost2010PropOp45
 70
     0
102
RTVSPost2010Prop46
 90
       50
102
RTVSPost2010PropOp46
 70
     0
102
RTVSPost2010Prop47
 90
       50
102
RTVSPost2010PropOp47
 70
     0
102
RTVSPost2010Prop48
 90
       50
102
RTVSPost2010PropOp48
 70
     0
102
RTVSPost2010Prop49
280
     0
102
RTVSPost2010PropOp49
 70
     0
102
RTVSPost2010Prop50
 90
       50
102
RTVSPost2010PropOp50
 70
     0
102
RTVSPost2010Prop51ColorIndex
 90
      256
102
RTVSPost2010Prop51ColorRGB
 90
-16777216
102
RTVSPost2010PropOp51
 70
     0
102
RTVSPost2010Prop52
140
1.0
102
RTVSPost2010PropOp52
 70
     0
102
RTVSPost2010Prop53
 90
        2
102
RTVSPost2010PropOp53
 70
     0
102
RTVSPost2010Prop54
  1
strokes_ogs.tif
102
RTVSPost2010PropOp54
 70
     0
102
RTVSPost2010Prop55
280
     0
102
RTVSPost2010PropOp55
 70
     0
102
RTVSPost2010Prop56
140
1.0
102
RTVSPost2010PropOp56
 70
     0
102
RTVSPost2010Prop57
140
1.0
102
RTVSPost2010PropOp57
 70
     0
  0
XRECORD
  5
13B
102
{ACAD_REACTORS
330
13A
102
}
330
13A
100
AcDbXrecord
280
     1
102
RTVSPost2010Prop28
280
     0
102
RTVSPost2010PropOp28
 70
     1
102
RTVSPost2010Prop29
280
     1
102
RTVSPost2010PropOp29
 70
     1
102
RTVSPost2010Prop30
280
     1
102
RTVSPost2010PropOp30
 70
     1
102
RTVSPost2010Prop31
280
     0
102
RTVSPost2010PropOp31
 70
     1
102
RTVSPost2010Prop32
280
     0
102
RTVSPost2010PropOp32
 70
     1
102
RTVSPost2010Prop33
280
     0
102
RTVSPost2010PropOp33
 70
     1
102
RTVSPost2010Prop34
280
     0
102
RTVSPost2010PropOp34
 70
     1
102
RTVSPost2010Prop35
280
     0
102
RTVSPost2010PropOp35
 70
     1
102
RTVSPost2010Prop36
280
     0
102
RTVSPost2010PropOp36
 70
     1
102
RTVSPost2010Prop37
 90
       50
102
RTVSPost2010PropOp37
 70
     1
102
RTVSPost2010Prop38
140
0.0
102
RTVSPost2010PropOp38
 70
     1
102
RTVSPost2010Prop39
140
1.0
102
RTVSPost2010PropOp39
 70
     1
102
RTVSPost2010Prop40
 90
        0
102
RTVSPost2010PropOp40
 70
     1
102
RTVSPost2010Prop41ColorIndex
 90
       18
102
RTVSPost2010Prop41ColorRGB
 90
        0
102
RTVSPost2010PropOp41
 70
     1
102
RTVSPost2010Prop42
 90
       50
102
RTVSPost2010PropOp42
 70
     1
102
RTVSPost2010Prop43
 90
        3
102
RTVSPost2010PropOp43
 70
     1
102
RTVSPost2010Prop44ColorIndex
 90
        5
102
RTVSPost2010Prop44ColorRGB
 90
      255
102
RTVSPost2010PropOp44
 70
     1
102
RTVSPost2010Prop45
280
     0
102
RTVSPost2010PropOp45
 70
     1
102
RTVSPost2010Prop46
 90
       50
102
RTVSPost2010PropOp46
 70
     1
102
RTVSPost2010Prop47
 90
       50
102
RTVSPost2010PropOp47
 70
     1
102
RTVSPost2010Prop48
 90
       50
102
RTVSPost2010PropOp48
 70
     1
102
RTVSPost2010Prop49
280
     0
102
RTVSPost2010PropOp49
 70
     1
102
RTVSPost2010Prop50
 90
       50
102
RTVSPost2010PropOp50
 70
     1
102
RTVSPost2010Prop51ColorIndex
 90
      256
102
RTVSPost2010Prop51ColorRGB
 90
-16777216
102
RTVSPost2010PropOp51
 70
     0
102
RTVSPost2010Prop52
140
1.0
102
RTVSPost2010PropOp52
 70
     0
102
RTVSPost2010Prop53
 90
        2
102
RTVSPost2010PropOp53
 70
     1
102
RTVSPost2010Prop54
  1
strokes_ogs.tif
102
RTVSPost2010PropOp54
 70
     1
102
RTVSPost2010Prop55
280
     0
102
RTVSPost2010PropOp55
 70
     1
102
RTVSPost2010Prop56
140
1.0
102
RTVSPost2010PropOp56
 70
     1
102
RTVSPost2010Prop57
140
1.0
102
RTVSPost2010PropOp57
 70
     1
  0
XRECORD
  5
159
102
{ACAD_REACTORS
330
158
102
}
330
158
100
AcDbXrecord
280
     1
102
RTVSPost2010Prop28
280
     0
102
RTVSPost2010PropOp28
 70
     1
102
RTVSPost2010Prop29
280
     1
102
RTVSPost2010PropOp29
 70
     1
102
RTVSPost2010Prop30
280
     1
102
RTVSPost2010PropOp30
 70
     1
102
RTVSPost2010Prop31
280
     0
102
RTVSPost2010PropOp31
 70
     1
102
RTVSPost2010Prop32
280
     0
102
RTVSPost2010PropOp32
 70
     1
102
RTVSPost2010Prop33
280
     0
102
RTVSPost2010PropOp33
 70
     1
102
RTVSPost2010Prop34
280
     0
102
RTVSPost2010PropOp34
 70
     1
102
RTVSPost2010Prop35
280
     0
102
RTVSPost2010PropOp35
 70
     1
102
RTVSPost2010Prop36
280
     0
102
RTVSPost2010PropOp36
 70
     1
102
RTVSPost2010Prop37
 90
       50
102
RTVSPost2010PropOp37
 70
     1
102
RTVSPost2010Prop38
140
0.0
102
RTVSPost2010PropOp38
 70
     1
102
RTVSPost2010Prop39
140
1.0
102
RTVSPost2010PropOp39
 70
     1
102
RTVSPost2010Prop40
 90
        0
102
RTVSPost2010PropOp40
 70
     1
102
RTVSPost2010Prop41ColorIndex
 90
       18
102
RTVSPost2010Prop41ColorRGB
 90
        0
102
RTVSPost2010PropOp41
 70
     1
102
RTVSPost2010Prop42
 90
       50
102
RTVSPost2010PropOp42
 70
     1
102
RTVSPost2010Prop43
 90
        3
102
RTVSPost2010PropOp43
 70
     1
102
RTVSPost2010Prop44ColorIndex
 90
        5
102
RTVSPost2010Prop44ColorRGB
 90
      255
102
RTVSPost2010PropOp44
 70
     1
102
RTVSPost2010Prop45
280
     0
102
RTVSPost2010PropOp45
 70
     1
102
RTVSPost2010Prop46
 90
       50
102
RTVSPost2010PropOp46
 70
     1
102
RTVSPost2010Prop47
 90
       50
102
RTVSPost2010PropOp47
 70
     1
102
RTVSPost2010Prop48
 90
       50
102
RTVSPost2010PropOp48
 70
     1
102
RTVSPost2010Prop49
280
     0
102
RTVSPost2010PropOp49
 70
     1
102
RTVSPost2010Prop50
 90
       50
102
RTVSPost2010PropOp50
 70
     1
102
RTVSPost2010Prop51ColorIndex
 90
      256
102
RTVSPost2010Prop51ColorRGB
 90
-16777216
102
RTVSPost2010PropOp51
 70
     0
102
RTVSPost2010Prop52
140
1.0
102
RTVSPost2010PropOp52
 70
     0
102
RTVSPost2010Prop53
 90
        2
102
RTVSPost2010PropOp53
 70
     1
102
RTVSPost2010Prop54
  1
strokes_ogs.tif
102
RTVSPost2010PropOp54
 70
     1
102
RTVSPost2010Prop55
280
     0
102
RTVSPost2010PropOp55
 70
     1
102
RTVSPost2010Prop56
140
1.0
102
RTVSPost2010PropOp56
 70
     1
102
RTVSPost2010Prop57
140
1.0
102
RTVSPost2010PropOp57
 70
     1
  0
XRECORD
  5
157
102
{ACAD_REACTORS
330
156
102
}
330
156
100
AcDbXrecord
280
     1
102
RTVSPost2010Prop28
280
     0
102
RTVSPost2010PropOp28
 70
     1
102
RTVSPost2010Prop29
280
     1
102
RTVSPost2010PropOp29
 70
     1
102
RTVSPost2010Prop30
280
     1
102
RTVSPost2010PropOp30
 70
     1
102
RTVSPost2010Prop31
280
     0
102
RTVSPost2010PropOp31
 70
     1
102
RTVSPost2010Prop32
280
     0
102
RTVSPost2010PropOp32
 70
     1
102
RTVSPost2010Prop33
280
     0
102
RTVSPost2010PropOp33
 70
     1
102
RTVSPost2010Prop34
280
     0
102
RTVSPost2010PropOp34
 70
     1
102
RTVSPost2010Prop35
280
     0
102
RTVSPost2010PropOp35
 70
     1
102
RTVSPost2010Prop36
280
     0
102
RTVSPost2010PropOp36
 70
     1
102
RTVSPost2010Prop37
 90
       50
102
RTVSPost2010PropOp37
 70
     1
102
RTVSPost2010Prop38
140
0.0
102
RTVSPost2010PropOp38
 70
     1
102
RTVSPost2010Prop39
140
1.0
102
RTVSPost2010PropOp39
 70
     1
102
RTVSPost2010Prop40
 90
        0
102
RTVSPost2010PropOp40
 70
     1
102
RTVSPost2010Prop41ColorIndex
 90
       18
102
RTVSPost2010Prop41ColorRGB
 90
        0
102
RTVSPost2010PropOp41
 70
     1
102
RTVSPost2010Prop42
 90
       50
102
RTVSPost2010PropOp42
 70
     1
102
RTVSPost2010Prop43
 90
        3
102
RTVSPost2010PropOp43
 70
     1
102
RTVSPost2010Prop44ColorIndex
 90
        5
102
RTVSPost2010Prop44ColorRGB
 90
      255
102
RTVSPost2010PropOp44
 70
     1
102
RTVSPost2010Prop45
280
     0
102
RTVSPost2010PropOp45
 70
     1
102
RTVSPost2010Prop46
 90
       50
102
RTVSPost2010PropOp46
 70
     1
102
RTVSPost2010Prop47
 90
       50
102
RTVSPost2010PropOp47
 70
     1
102
RTVSPost2010Prop48
 90
       50
102
RTVSPost2010PropOp48
 70
     1
102
RTVSPost2010Prop49
280
     0
102
RTVSPost2010PropOp49
 70
     1
102
RTVSPost2010Prop50
 90
       50
102
RTVSPost2010PropOp50
 70
     1
102
RTVSPost2010Prop51ColorIndex
 90
      256
102
RTVSPost2010Prop51ColorRGB
 90
-16777216
102
RTVSPost2010PropOp51
 70
     0
102
RTVSPost2010Prop52
140
1.0
102
RTVSPost2010PropOp52
 70
     0
102
RTVSPost2010Prop53
 90
        2
102
RTVSPost2010PropOp53
 70
     1
102
RTVSPost2010Prop54
  1
strokes_ogs.tif
102
RTVSPost2010PropOp54
 70
     1
102
RTVSPost2010Prop55
280
     0
102
RTVSPost2010PropOp55
 70
     1
102
RTVSPost2010Prop56
140
1.0
102
RTVSPost2010PropOp56
 70
     1
102
RTVSPost2010Prop57
140
1.0
102
RTVSPost2010PropOp57
 70
     1
  0
XRECORD
  5
151
102
{ACAD_REACTORS
330
150
102
}
330
150
100
AcDbXrecord
280
     1
102
RTVSPost2010Prop28
280
     0
102
RTVSPost2010PropOp28
 70
     1
102
RTVSPost2010Prop29
280
     1
102
RTVSPost2010PropOp29
 70
     1
102
RTVSPost2010Prop30
280
     1
102
RTVSPost2010PropOp30
 70
     1
102
RTVSPost2010Prop31
280
     0
102
RTVSPost2010PropOp31
 70
     1
102
RTVSPost2010Prop32
280
     0
102
RTVSPost2010PropOp32
 70
     1
102
RTVSPost2010Prop33
280
     0
102
RTVSPost2010PropOp33
 70
     1
102
RTVSPost2010Prop34
280
     0
102
RTVSPost2010PropOp34
 70
     1
102
RTVSPost2010Prop35
280
     0
102
RTVSPost2010PropOp35
 70
     1
102
RTVSPost2010Prop36
280
     0
102
RTVSPost2010PropOp36
 70
     1
102
RTVSPost2010Prop37
 90
       50
102
RTVSPost2010PropOp37
 70
     1
102
RTVSPost2010Prop38
140
0.0
102
RTVSPost2010PropOp38
 70
     1
102
RTVSPost2010Prop39
140
1.0
102
RTVSPost2010PropOp39
 70
     1
102
RTVSPost2010Prop40
 90
        0
102
RTVSPost2010PropOp40
 70
     1
102
RTVSPost2010Prop41ColorIndex
 90
       18
102
RTVSPost2010Prop41ColorRGB
 90
        0
102
RTVSPost2010PropOp41
 70
     1
102
RTVSPost2010Prop42
 90
       50
102
RTVSPost2010PropOp42
 70
     1
102
RTVSPost2010Prop43
 90
        3
102
RTVSPost2010PropOp43
 70
     1
102
RTVSPost2010Prop44ColorIndex
 90
        5
102
RTVSPost2010Prop44ColorRGB
 90
      255
102
RTVSPost2010PropOp44
 70
     1
102
RTVSPost2010Prop45
280
     0
102
RTVSPost2010PropOp45
 70
     1
102
RTVSPost2010Prop46
 90
       50
102
RTVSPost2010PropOp46
 70
     1
102
RTVSPost2010Prop47
 90
       50
102
RTVSPost2010PropOp47
 70
     1
102
RTVSPost2010Prop48
 90
       50
102
RTVSPost2010PropOp48
 70
     1
102
RTVSPost2010Prop49
280
     0
102
RTVSPost2010PropOp49
 70
     1
102
RTVSPost2010Prop50
 90
       50
102
RTVSPost2010PropOp50
 70
     1
102
RTVSPost2010Prop51ColorIndex
 90
      256
102
RTVSPost2010Prop51ColorRGB
 90
-16777216
102
RTVSPost2010PropOp51
 70
     0
102
RTVSPost2010Prop52
140
1.0
102
RTVSPost2010PropOp52
 70
     0
102
RTVSPost2010Prop53
 90
        2
102
RTVSPost2010PropOp53
 70
     1
102
RTVSPost2010Prop54
  1
strokes_ogs.tif
102
RTVSPost2010PropOp54
 70
     1
102
RTVSPost2010Prop55
280
     0
102
RTVSPost2010PropOp55
 70
     1
102
RTVSPost2010Prop56
140
1.0
102
RTVSPost2010PropOp56
 70
     1
102
RTVSPost2010Prop57
140
1.0
102
RTVSPost2010PropOp57
 70
     1
  0
XRECORD
  5
153
102
{ACAD_REACTORS
330
152
102
}
330
152
100
AcDbXrecord
280
     1
102
RTVSPost2010Prop28
280
     0
102
RTVSPost2010PropOp28
 70
     1
102
RTVSPost2010Prop29
280
     1
102
RTVSPost2010PropOp29
 70
     1
102
RTVSPost2010Prop30
280
     1
102
RTVSPost2010PropOp30
 70
     1
102
RTVSPost2010Prop31
280
     0
102
RTVSPost2010PropOp31
 70
     1
102
RTVSPost2010Prop32
280
     0
102
RTVSPost2010PropOp32
 70
     1
102
RTVSPost2010Prop33
280
     0
102
RTVSPost2010PropOp33
 70
     1
102
RTVSPost2010Prop34
280
     0
102
RTVSPost2010PropOp34
 70
     1
102
RTVSPost2010Prop35
280
     0
102
RTVSPost2010PropOp35
 70
     1
102
RTVSPost2010Prop36
280
     0
102
RTVSPost2010PropOp36
 70
     1
102
RTVSPost2010Prop37
 90
       50
102
RTVSPost2010PropOp37
 70
     1
102
RTVSPost2010Prop38
140
0.0
102
RTVSPost2010PropOp38
 70
     1
102
RTVSPost2010Prop39
140
1.0
102
RTVSPost2010PropOp39
 70
     1
102
RTVSPost2010Prop40
 90
        0
102
RTVSPost2010PropOp40
 70
     1
102
RTVSPost2010Prop41ColorIndex
 90
       18
102
RTVSPost2010Prop41ColorRGB
 90
        0
102
RTVSPost2010PropOp41
 70
     1
102
RTVSPost2010Prop42
 90
       50
102
RTVSPost2010PropOp42
 70
     1
102
RTVSPost2010Prop43
 90
        3
102
RTVSPost2010PropOp43
 70
     1
102
RTVSPost2010Prop44ColorIndex
 90
        5
102
RTVSPost2010Prop44ColorRGB
 90
      255
102
RTVSPost2010PropOp44
 70
     1
102
RTVSPost2010Prop45
280
     0
102
RTVSPost2010PropOp45
 70
     1
102
RTVSPost2010Prop46
 90
       50
102
RTVSPost2010PropOp46
 70
     1
102
RTVSPost2010Prop47
 90
       50
102
RTVSPost2010PropOp47
 70
     1
102
RTVSPost2010Prop48
 90
       50
102
RTVSPost2010PropOp48
 70
     1
102
RTVSPost2010Prop49
280
     0
102
RTVSPost2010PropOp49
 70
     1
102
RTVSPost2010Prop50
 90
       50
102
RTVSPost2010PropOp50
 70
     1
102
RTVSPost2010Prop51ColorIndex
 90
      256
102
RTVSPost2010Prop51ColorRGB
 90
-16777216
102
RTVSPost2010PropOp51
 70
     0
102
RTVSPost2010Prop52
140
1.0
102
RTVSPost2010PropOp52
 70
     0
102
RTVSPost2010Prop53
 90
        2
102
RTVSPost2010PropOp53
 70
     1
102
RTVSPost2010Prop54
  1
strokes_ogs.tif
102
RTVSPost2010PropOp54
 70
     1
102
RTVSPost2010Prop55
280
     0
102
RTVSPost2010PropOp55
 70
     1
102
RTVSPost2010Prop56
140
1.0
102
RTVSPost2010PropOp56
 70
     1
102
RTVSPost2010Prop57
140
1.0
102
RTVSPost2010PropOp57
 70
     1
  0
XRECORD
  5
143
102
{ACAD_REACTORS
330
142
102
}
330
142
100
AcDbXrecord
280
     1
102
RTVSPost2010Prop28
280
     0
102
RTVSPost2010PropOp28
 70
     1
102
RTVSPost2010Prop29
280
     1
102
RTVSPost2010PropOp29
 70
     1
102
RTVSPost2010Prop30
280
     1
102
RTVSPost2010PropOp30
 70
     1
102
RTVSPost2010Prop31
280
     0
102
RTVSPost2010PropOp31
 70
     1
102
RTVSPost2010Prop32
280
     0
102
RTVSPost2010PropOp32
 70
     1
102
RTVSPost2010Prop33
280
     0
102
RTVSPost2010PropOp33
 70
     1
102
RTVSPost2010Prop34
280
     0
102
RTVSPost2010PropOp34
 70
     1
102
RTVSPost2010Prop35
280
     0
102
RTVSPost2010PropOp35
 70
     1
102
RTVSPost2010Prop36
280
     0
102
RTVSPost2010PropOp36
 70
     1
102
RTVSPost2010Prop37
 90
       50
102
RTVSPost2010PropOp37
 70
     1
102
RTVSPost2010Prop38
140
0.0
102
RTVSPost2010PropOp38
 70
     1
102
RTVSPost2010Prop39
140
1.0
102
RTVSPost2010PropOp39
 70
     1
102
RTVSPost2010Prop40
 90
        0
102
RTVSPost2010PropOp40
 70
     1
102
RTVSPost2010Prop41ColorIndex
 90
       18
102
RTVSPost2010Prop41ColorRGB
 90
        0
102
RTVSPost2010PropOp41
 70
     1
102
RTVSPost2010Prop42
 90
       50
102
RTVSPost2010PropOp42
 70
     1
102
RTVSPost2010Prop43
 90
        3
102
RTVSPost2010PropOp43
 70
     1
102
RTVSPost2010Prop44ColorIndex
 90
        5
102
RTVSPost2010Prop44ColorRGB
 90
      255
102
RTVSPost2010PropOp44
 70
     1
102
RTVSPost2010Prop45
280
     0
102
RTVSPost2010PropOp45
 70
     1
102
RTVSPost2010Prop46
 90
       50
102
RTVSPost2010PropOp46
 70
     1
102
RTVSPost2010Prop47
 90
       50
102
RTVSPost2010PropOp47
 70
     1
102
RTVSPost2010Prop48
 90
       50
102
RTVSPost2010PropOp48
 70
     1
102
RTVSPost2010Prop49
280
     0
102
RTVSPost2010PropOp49
 70
     1
102
RTVSPost2010Prop50
 90
       50
102
RTVSPost2010PropOp50
 70
     1
102
RTVSPost2010Prop51ColorIndex
 90
      256
102
RTVSPost2010Prop51ColorRGB
 90
-16777216
102
RTVSPost2010PropOp51
 70
     0
102
RTVSPost2010Prop52
140
1.0
102
RTVSPost2010PropOp52
 70
     0
102
RTVSPost2010Prop53
 90
        2
102
RTVSPost2010PropOp53
 70
     1
102
RTVSPost2010Prop54
  1
strokes_ogs.tif
102
RTVSPost2010PropOp54
 70
     1
102
RTVSPost2010Prop55
280
     0
102
RTVSPost2010PropOp55
 70
     1
102
RTVSPost2010Prop56
140
1.0
102
RTVSPost2010PropOp56
 70
     1
102
RTVSPost2010Prop57
140
1.0
102
RTVSPost2010PropOp57
 70
     1
  0
XRECORD
  5
135
102
{ACAD_REACTORS
330
134
102
}
330
134
100
AcDbXrecord
280
     1
102
RTVSPost2010Prop28
280
     0
102
RTVSPost2010PropOp28
 70
     1
102
RTVSPost2010Prop29
280
     1
102
RTVSPost2010PropOp29
 70
     1
102
RTVSPost2010Prop30
280
     1
102
RTVSPost2010PropOp30
 70
     1
102
RTVSPost2010Prop31
280
     0
102
RTVSPost2010PropOp31
 70
     1
102
RTVSPost2010Prop32
280
     0
102
RTVSPost2010PropOp32
 70
     1
102
RTVSPost2010Prop33
280
     0
102
RTVSPost2010PropOp33
 70
     1
102
RTVSPost2010Prop34
280
     0
102
RTVSPost2010PropOp34
 70
     1
102
RTVSPost2010Prop35
280
     0
102
RTVSPost2010PropOp35
 70
     1
102
RTVSPost2010Prop36
280
     0
102
RTVSPost2010PropOp36
 70
     1
102
RTVSPost2010Prop37
 90
       50
102
RTVSPost2010PropOp37
 70
     1
102
RTVSPost2010Prop38
140
0.0
102
RTVSPost2010PropOp38
 70
     1
102
RTVSPost2010Prop39
140
1.0
102
RTVSPost2010PropOp39
 70
     1
102
RTVSPost2010Prop40
 90
        0
102
RTVSPost2010PropOp40
 70
     1
102
RTVSPost2010Prop41ColorIndex
 90
       18
102
RTVSPost2010Prop41ColorRGB
 90
        0
102
RTVSPost2010PropOp41
 70
     1
102
RTVSPost2010Prop42
 90
       50
102
RTVSPost2010PropOp42
 70
     1
102
RTVSPost2010Prop43
 90
        3
102
RTVSPost2010PropOp43
 70
     1
102
RTVSPost2010Prop44ColorIndex
 90
        5
102
RTVSPost2010Prop44ColorRGB
 90
      255
102
RTVSPost2010PropOp44
 70
     1
102
RTVSPost2010Prop45
280
     0
102
RTVSPost2010PropOp45
 70
     1
102
RTVSPost2010Prop46
 90
       50
102
RTVSPost2010PropOp46
 70
     1
102
RTVSPost2010Prop47
 90
       50
102
RTVSPost2010PropOp47
 70
     1
102
RTVSPost2010Prop48
 90
       50
102
RTVSPost2010PropOp48
 70
     1
102
RTVSPost2010Prop49
280
     0
102
RTVSPost2010PropOp49
 70
     1
102
RTVSPost2010Prop50
 90
       50
102
RTVSPost2010PropOp50
 70
     1
102
RTVSPost2010Prop51ColorIndex
 90
      256
102
RTVSPost2010Prop51ColorRGB
 90
-16777216
102
RTVSPost2010PropOp51
 70
     0
102
RTVSPost2010Prop52
140
1.0
102
RTVSPost2010PropOp52
 70
     0
102
RTVSPost2010Prop53
 90
        2
102
RTVSPost2010PropOp53
 70
     1
102
RTVSPost2010Prop54
  1
strokes_ogs.tif
102
RTVSPost2010PropOp54
 70
     1
102
RTVSPost2010Prop55
280
     0
102
RTVSPost2010PropOp55
 70
     1
102
RTVSPost2010Prop56
140
1.0
102
RTVSPost2010PropOp56
 70
     1
102
RTVSPost2010Prop57
140
1.0
102
RTVSPost2010PropOp57
 70
     1
  0
XRECORD
  5
155
102
{ACAD_REACTORS
330
154
102
}
330
154
100
AcDbXrecord
280
     1
102
RTVSPost2010Prop28
280
     0
102
RTVSPost2010PropOp28
 70
     1
102
RTVSPost2010Prop29
280
     1
102
RTVSPost2010PropOp29
 70
     1
102
RTVSPost2010Prop30
280
     1
102
RTVSPost2010PropOp30
 70
     1
102
RTVSPost2010Prop31
280
     0
102
RTVSPost2010PropOp31
 70
     1
102
RTVSPost2010Prop32
280
     0
102
RTVSPost2010PropOp32
 70
     1
102
RTVSPost2010Prop33
280
     0
102
RTVSPost2010PropOp33
 70
     1
102
RTVSPost2010Prop34
280
     0
102
RTVSPost2010PropOp34
 70
     1
102
RTVSPost2010Prop35
280
     0
102
RTVSPost2010PropOp35
 70
     1
102
RTVSPost2010Prop36
280
     0
102
RTVSPost2010PropOp36
 70
     1
102
RTVSPost2010Prop37
 90
       50
102
RTVSPost2010PropOp37
 70
     1
102
RTVSPost2010Prop38
140
0.0
102
RTVSPost2010PropOp38
 70
     1
102
RTVSPost2010Prop39
140
1.0
102
RTVSPost2010PropOp39
 70
     1
102
RTVSPost2010Prop40
 90
        0
102
RTVSPost2010PropOp40
 70
     1
102
RTVSPost2010Prop41ColorIndex
 90
       18
102
RTVSPost2010Prop41ColorRGB
 90
        0
102
RTVSPost2010PropOp41
 70
     1
102
RTVSPost2010Prop42
 90
       50
102
RTVSPost2010PropOp42
 70
     1
102
RTVSPost2010Prop43
 90
        3
102
RTVSPost2010PropOp43
 70
     1
102
RTVSPost2010Prop44ColorIndex
 90
        5
102
RTVSPost2010Prop44ColorRGB
 90
      255
102
RTVSPost2010PropOp44
 70
     1
102
RTVSPost2010Prop45
280
     0
102
RTVSPost2010PropOp45
 70
     1
102
RTVSPost2010Prop46
 90
       50
102
RTVSPost2010PropOp46
 70
     1
102
RTVSPost2010Prop47
 90
       50
102
RTVSPost2010PropOp47
 70
     1
102
RTVSPost2010Prop48
 90
       50
102
RTVSPost2010PropOp48
 70
     1
102
RTVSPost2010Prop49
280
     0
102
RTVSPost2010PropOp49
 70
     1
102
RTVSPost2010Prop50
 90
       50
102
RTVSPost2010PropOp50
 70
     1
102
RTVSPost2010Prop51ColorIndex
 90
      256
102
RTVSPost2010Prop51ColorRGB
 90
-16777216
102
RTVSPost2010PropOp51
 70
     0
102
RTVSPost2010Prop52
140
1.0
102
RTVSPost2010PropOp52
 70
     0
102
RTVSPost2010Prop53
 90
        2
102
RTVSPost2010PropOp53
 70
     1
102
RTVSPost2010Prop54
  1
strokes_ogs.tif
102
RTVSPost2010PropOp54
 70
     1
102
RTVSPost2010Prop55
280
     0
102
RTVSPost2010PropOp55
 70
     1
102
RTVSPost2010Prop56
140
1.0
102
RTVSPost2010PropOp56
 70
     1
102
RTVSPost2010Prop57
140
1.0
102
RTVSPost2010PropOp57
 70
     1
  0
ENDSEC
  0
EOF
