                                                                        S      1
File generated by Shapr3D Version 3.0                                   S      2
                                                                        S      3
1H,,1H;,118HC:\Users\jonat\AppData\Local\Packages\Shapr3D.Shapr3D_dvv5p1G      1
vgwv6mp\TempState\6a7b1654-40f3-480a-8158-568b5ca0a4ba.tmp,11Htemp_exporG      2
t,7HShapr3D,3H3.0,32,24,8,56,15,118HC:\Users\jonat\AppData\Local\PackageG      3
s\Shapr3D.Shapr3D_dvv5p1vgwv6mp\TempState\6a7b1654-40f3-480a-8158-568b5cG      4
a0a4ba.tmp,1.,2,2HMM,1000,1.,13H221207.161204,1D-05,1000000.,,,9,0,13H22G      5
1207.161204;                                                            G      6
     502       1       1       0   65535       0       0       000010001D      1
     502    1000       0      11       1                Assembly       0D      2
     406      12       1       0       0       0       0       000010000D      3
     406    1000       0       1      15                               0D      4
     110      13       1       0       0       0       0       000010000D      5
     110    1000       0       2       0                               0D      6
     124      15       1       0       0       0       0       001010000D      7
     124    1000       0       2       0                               0D      8
     100      17       1       0       0       0       7       000010000D      9
     100    1000       0       2       0                               0D     10
     110      19       1       0       0       0       0       000010000D     11
     110    1000       0       2       0                               0D     12
     124      21       1       0       0       0       0       001010000D     13
     124    1000       0       2       0                               0D     14
     100      23       1       0       0       0      13       000010000D     15
     100    1000       0       2       0                               0D     16
     110      25       1       0       0       0       0       000010000D     17
     110    1000       0       2       0                               0D     18
     124      27       1       0       0       0       0       001010000D     19
     124    1000       0       2       0                               0D     20
     100      29       1       0       0       0      19       000010000D     21
     100    1000       0       2       0                               0D     22
     110      31       1       0       0       0       0       000010000D     23
     110    1000       0       2       0                               0D     24
     124      33       1       0       0       0       0       001010000D     25
     124    1000       0       2       0                               0D     26
     100      35       1       0       0       0      25       000010000D     27
     100    1000       0       2       0                               0D     28
     124      37       1       0       0       0       0       001010000D     29
     124    1000       0       2       0                               0D     30
     100      39       1       0       0       0      29       000010000D     31
     100    1000       0       1       0                               0D     32
     124      40       1       0       0       0       0       001010000D     33
     124    1000       0       2       0                               0D     34
     100      42       1       0       0       0      33       000010000D     35
     100    1000       0       1       0                               0D     36
     124      43       1       0       0       0       0       001010000D     37
     124    1000       0       2       0                               0D     38
     100      45       1       0       0       0      37       000010000D     39
     100    1000       0       1       0                               0D     40
     124      46       1       0       0       0       0       001010000D     41
     124    1000       0       2       0                               0D     42
     100      48       1       0       0       0      41       000010000D     43
     100    1000       0       1       0                               0D     44
     124      49       1       0       0       0       0       001010000D     45
     124    1000       0       2       0                               0D     46
     100      51       1       0       0       0      45       000010000D     47
     100    1000       0       2       0                               0D     48
     124      53       1       0       0       0       0       001010000D     49
     124    1000       0       2       0                               0D     50
     100      55       1       0       0       0      49       000010000D     51
     100    1000       0       1       0                               0D     52
     124      56       1       0       0       0       0       001010000D     53
     124    1000       0       2       0                               0D     54
     100      58       1       0       0       0      53       000010000D     55
     100    1000       0       2       0                               0D     56
     124      60       1       0       0       0       0       001010000D     57
     124    1000       0       1       0                               0D     58
     100      61       1       0       0       0      57       000010000D     59
     100    1000       0       1       0                               0D     60
     124      62       1       0       0       0       0       001010000D     61
     124    1000       0       1       0                               0D     62
     100      63       1       0       0       0      61       000010000D     63
     100    1000       0       2       0                               0D     64
     124      65       1       0       0       0       0       001010000D     65
     124    1000       0       2       0                               0D     66
     100      67       1       0       0       0      65       000010000D     67
     100    1000       0       2       0                               0D     68
     124      69       1       0       0       0       0       001010000D     69
     124    1000       0       2       0                               0D     70
     100      71       1       0       0       0      69       000010000D     71
     100    1000       0       1       0                               0D     72
     110      72       1       0       0       0       0       000010000D     73
     110    1000       0       1       0                               0D     74
     110      73       1       0       0       0       0       000010000D     75
     110    1000       0       1       0                               0D     76
     124      74       1       0       0       0       0       001010000D     77
     124    1000       0       1       0                               0D     78
     100      75       1       0       0       0      77       000010000D     79
     100    1000       0       2       0                               0D     80
     110      77       1       0       0       0       0       000010000D     81
     110    1000       0       1       0                               0D     82
     110      78       1       0       0       0       0       000010000D     83
     110    1000       0       1       0                               0D     84
     124      79       1       0       0       0       0       001010000D     85
     124    1000       0       2       0                               0D     86
     100      81       1       0       0       0      85       000010000D     87
     100    1000       0       2       0                               0D     88
     110      83       1       0       0       0       0       000010000D     89
     110    1000       0       2       0                               0D     90
     110      85       1       0       0       0       0       000010000D     91
     110    1000       0       2       0                               0D     92
     124      87       1       0       0       0       0       001010000D     93
     124    1000       0       2       0                               0D     94
     100      89       1       0       0       0      93       000010000D     95
     100    1000       0       2       0                               0D     96
     110      91       1       0       0       0       0       000010000D     97
     110    1000       0       2       0                               0D     98
     124      93       1       0       0       0       0       001010000D     99
     124    1000       0       2       0                               0D    100
     100      95       1       0       0       0      99       000010000D    101
     100    1000       0       2       0                               0D    102
     110      97       1       0       0       0       0       000010000D    103
     110    1000       0       2       0                               0D    104
     124      99       1       0       0       0       0       001010000D    105
     124    1000       0       2       0                               0D    106
     100     101       1       0       0       0     105       000010000D    107
     100    1000       0       2       0                               0D    108
     124     103       1       0       0       0       0       001010000D    109
     124    1000       0       2       0                               0D    110
     100     105       1       0       0       0     109       000010000D    111
     100    1000       0       1       0                               0D    112
     124     106       1       0       0       0       0       001010000D    113
     124    1000       0       2       0                               0D    114
     100     108       1       0       0       0     113       000010000D    115
     100    1000       0       1       0                               0D    116
     124     109       1       0       0       0       0       001010000D    117
     124    1000       0       2       0                               0D    118
     100     111       1       0       0       0     117       000010000D    119
     100    1000       0       1       0                               0D    120
     124     112       1       0       0       0       0       001010000D    121
     124    1000       0       1       0                               0D    122
     100     113       1       0       0       0     121       000010000D    123
     100    1000       0       1       0                               0D    124
     124     114       1       0       0       0       0       001010000D    125
     124    1000       0       2       0                               0D    126
     100     116       1       0       0       0     125       000010000D    127
     100    1000       0       1       0                               0D    128
     124     117       1       0       0       0       0       001010000D    129
     124    1000       0       2       0                               0D    130
     100     119       1       0       0       0     129       000010000D    131
     100    1000       0       2       0                               0D    132
     124     121       1       0       0       0       0       001010000D    133
     124    1000       0       2       0                               0D    134
     100     123       1       0       0       0     133       000010000D    135
     100    1000       0       2       0                               0D    136
     124     125       1       0       0       0       0       001010000D    137
     124    1000       0       2       0                               0D    138
     100     127       1       0       0       0     137       000010000D    139
     100    1000       0       1       0                               0D    140
     504     128       1       0   65535       0       0       000010001D    141
     504    1000       0       9       1                Assembly       0D    142
     406     137       1       0       0       0       0       000010001D    143
     406    1000       0       1      15                               0D    144
     314     138       1       0       0       0       0       000020000D    145
     314    1000       0       2       0                               0D    146
     116     140       1       0       0       0       0       000010200D    147
     116    1000       0       1       0                               0D    148
     123     141       1       0       0       0       0       000010200D    149
     123    1000       0       1       0                               0D    150
     123     142       1       0       0       0       0       000010200D    151
     123    1000       0       1       0                               0D    152
     192     143       1       0       0       0       0       000010000D    153
     192    1000    -145       1       1                               0D    154
     508     144       1       0       0       0       0       000010001D    155
     508    1000       0       1       1                               0D    156
     510     145       1       1       0       0       0       000010001D    157
     510    1000    -145       1       1                               0D    158
     116     146       1       0       0       0       0       000010200D    159
     116    1000       0       1       0                               0D    160
     123     147       1       0       0       0       0       000010200D    161
     123    1000       0       1       0                               0D    162
     123     148       1       0       0       0       0       000010200D    163
     123    1000       0       1       0                               0D    164
     192     149       1       0       0       0       0       000010000D    165
     192    1000    -145       1       1                               0D    166
     508     150       1       0       0       0       0       000010001D    167
     508    1000       0       1       1                               0D    168
     510     151       1       1       0       0       0       000010001D    169
     510    1000    -145       1       1                               0D    170
     116     152       1       0       0       0       0       000010200D    171
     116    1000       0       1       0                               0D    172
     123     153       1       0       0       0       0       000010200D    173
     123    1000       0       1       0                               0D    174
     123     154       1       0       0       0       0       000010200D    175
     123    1000       0       1       0                               0D    176
     190     155       1       0       0       0       0       000010000D    177
     190    1000    -145       1       1                               0D    178
     508     156       1       0       0       0       0       000010001D    179
     508    1000       0       1       1                               0D    180
     508     157       1       0       0       0       0       000010001D    181
     508    1000       0       1       1                               0D    182
     510     158       1       1       0       0       0       000010001D    183
     510    1000    -145       1       1                               0D    184
     116     159       1       0       0       0       0       000010200D    185
     116    1000       0       1       0                               0D    186
     123     160       1       0       0       0       0       000010200D    187
     123    1000       0       1       0                               0D    188
     123     161       1       0       0       0       0       000010200D    189
     123    1000       0       1       0                               0D    190
     190     162       1       0       0       0       0       000010000D    191
     190    1000    -145       1       1                               0D    192
     508     163       1       0       0       0       0       000010001D    193
     508    1000       0       1       1                               0D    194
     508     164       1       0       0       0       0       000010001D    195
     508    1000       0       1       1                               0D    196
     508     165       1       0       0       0       0       000010001D    197
     508    1000       0       1       1                               0D    198
     508     166       1       0       0       0       0       000010001D    199
     508    1000       0       1       1                               0D    200
     508     167       1       0       0       0       0       000010001D    201
     508    1000       0       1       1                               0D    202
     510     168       1       1       0       0       0       000010001D    203
     510    1000    -145       1       1                               0D    204
     116     169       1       0       0       0       0       000010200D    205
     116    1000       0       1       0                               0D    206
     123     170       1       0       0       0       0       000010200D    207
     123    1000       0       1       0                               0D    208
     123     171       1       0       0       0       0       000010200D    209
     123    1000       0       1       0                               0D    210
     192     172       1       0       0       0       0       000010000D    211
     192    1000    -145       1       1                               0D    212
     508     173       1       0       0       0       0       000010001D    213
     508    1000       0       1       1                               0D    214
     510     174       1       1       0       0       0       000010001D    215
     510    1000    -145       1       1                               0D    216
     116     175       1       0       0       0       0       000010200D    217
     116    1000       0       1       0                               0D    218
     123     176       1       0       0       0       0       000010200D    219
     123    1000       0       1       0                               0D    220
     123     177       1       0       0       0       0       000010200D    221
     123    1000       0       1       0                               0D    222
     192     178       1       0       0       0       0       000010000D    223
     192    1000    -145       1       1                               0D    224
     508     179       1       0       0       0       0       000010001D    225
     508    1000       0       1       1                               0D    226
     510     180       1       1       0       0       0       000010001D    227
     510    1000    -145       1       1                               0D    228
     116     181       1       0       0       0       0       000010200D    229
     116    1000       0       1       0                               0D    230
     123     182       1       0       0       0       0       000010200D    231
     123    1000       0       1       0                               0D    232
     123     183       1       0       0       0       0       000010200D    233
     123    1000       0       1       0                               0D    234
     192     184       1       0       0       0       0       000010000D    235
     192    1000    -145       1       1                               0D    236
     508     185       1       0       0       0       0       000010001D    237
     508    1000       0       1       1                               0D    238
     510     186       1       1       0       0       0       000010001D    239
     510    1000    -145       1       1                               0D    240
     116     187       1       0       0       0       0       000010200D    241
     116    1000       0       1       0                               0D    242
     123     188       1       0       0       0       0       000010200D    243
     123    1000       0       1       0                               0D    244
     123     189       1       0       0       0       0       000010200D    245
     123    1000       0       1       0                               0D    246
     192     190       1       0       0       0       0       000010000D    247
     192    1000    -145       1       1                               0D    248
     508     191       1       0       0       0       0       000010001D    249
     508    1000       0       1       1                               0D    250
     510     192       1       1       0       0       0       000010001D    251
     510    1000    -145       1       1                               0D    252
     116     193       1       0       0       0       0       000010200D    253
     116    1000       0       1       0                               0D    254
     123     194       1       0       0       0       0       000010200D    255
     123    1000       0       1       0                               0D    256
     123     195       1       0       0       0       0       000010200D    257
     123    1000       0       1       0                               0D    258
     190     196       1       0       0       0       0       000010000D    259
     190    1000    -145       1       1                               0D    260
     508     197       1       0       0       0       0       000010001D    261
     508    1000       0       1       1                               0D    262
     508     198       1       0       0       0       0       000010001D    263
     508    1000       0       1       1                               0D    264
     508     199       1       0       0       0       0       000010001D    265
     508    1000       0       1       1                               0D    266
     508     200       1       0       0       0       0       000010001D    267
     508    1000       0       1       1                               0D    268
     508     201       1       0       0       0       0       000010001D    269
     508    1000       0       1       1                               0D    270
     510     202       1       1       0       0       0       000010001D    271
     510    1000    -145       1       1                               0D    272
     110     203       1       0       0       0       0       000010200D    273
     110    1000       0       2       0                               0D    274
     124     205       1       0       0       0       0       001010200D    275
     124    1000       0       2       0                               0D    276
     100     207       1       0       0       0     275       000010200D    277
     100    1000       0       1       0                               0D    278
     120     208       1       0       0       0       0       000010000D    279
     120    1000    -145       1       0                               0D    280
     508     209       1       0       0       0       0       000010001D    281
     508    1000       0       1       1                               0D    282
     510     210       1       1       0       0       0       000010001D    283
     510    1000    -145       1       1                               0D    284
     116     211       1       0       0       0       0       000010200D    285
     116    1000       0       1       0                               0D    286
     123     212       1       0       0       0       0       000010200D    287
     123    1000       0       1       0                               0D    288
     123     213       1       0       0       0       0       000010200D    289
     123    1000       0       1       0                               0D    290
     192     214       1       0       0       0       0       000010000D    291
     192    1000    -145       1       1                               0D    292
     508     215       1       0       0       0       0       000010001D    293
     508    1000       0       1       1                               0D    294
     510     216       1       1       0       0       0       000010001D    295
     510    1000    -145       1       1                               0D    296
     116     217       1       0       0       0       0       000010200D    297
     116    1000       0       1       0                               0D    298
     123     218       1       0       0       0       0       000010200D    299
     123    1000       0       1       0                               0D    300
     123     219       1       0       0       0       0       000010200D    301
     123    1000       0       1       0                               0D    302
     192     220       1       0       0       0       0       000010000D    303
     192    1000    -145       1       1                               0D    304
     508     221       1       0       0       0       0       000010001D    305
     508    1000       0       1       1                               0D    306
     510     222       1       1       0       0       0       000010001D    307
     510    1000    -145       1       1                               0D    308
     116     223       1       0       0       0       0       000010200D    309
     116    1000       0       1       0                               0D    310
     123     224       1       0       0       0       0       000010200D    311
     123    1000       0       1       0                               0D    312
     123     225       1       0       0       0       0       000010200D    313
     123    1000       0       1       0                               0D    314
     192     226       1       0       0       0       0       000010000D    315
     192    1000    -145       1       1                               0D    316
     508     227       1       0       0       0       0       000010001D    317
     508    1000       0       1       1                               0D    318
     510     228       1       1       0       0       0       000010001D    319
     510    1000    -145       1       1                               0D    320
     116     229       1       0       0       0       0       000010200D    321
     116    1000       0       1       0                               0D    322
     123     230       1       0       0       0       0       000010200D    323
     123    1000       0       1       0                               0D    324
     123     231       1       0       0       0       0       000010200D    325
     123    1000       0       1       0                               0D    326
     192     232       1       0       0       0       0       000010000D    327
     192    1000    -145       1       1                               0D    328
     508     233       1       0       0       0       0       000010001D    329
     508    1000       0       1       1                               0D    330
     510     234       1       1       0       0       0       000010001D    331
     510    1000    -145       1       1                               0D    332
     116     235       1       0       0       0       0       000010200D    333
     116    1000       0       1       0                               0D    334
     123     236       1       0       0       0       0       000010200D    335
     123    1000       0       1       0                               0D    336
     123     237       1       0       0       0       0       000010200D    337
     123    1000       0       1       0                               0D    338
     192     238       1       0       0       0       0       000010000D    339
     192    1000    -145       1       1                               0D    340
     508     239       1       0       0       0       0       000010001D    341
     508    1000       0       1       1                               0D    342
     510     240       1       1       0       0       0       000010001D    343
     510    1000    -145       1       1                               0D    344
     116     241       1       0       0       0       0       000010200D    345
     116    1000       0       1       0                               0D    346
     123     242       1       0       0       0       0       000010200D    347
     123    1000       0       1       0                               0D    348
     123     243       1       0       0       0       0       000010200D    349
     123    1000       0       1       0                               0D    350
     192     244       1       0       0       0       0       000010000D    351
     192    1000    -145       1       1                               0D    352
     508     245       1       0       0       0       0       000010001D    353
     508    1000       0       1       1                               0D    354
     510     246       1       1       0       0       0       000010001D    355
     510    1000    -145       1       1                               0D    356
     110     247       1       0       0       0       0       000010200D    357
     110    1000       0       2       0                               0D    358
     124     249       1       0       0       0       0       001010200D    359
     124    1000       0       2       0                               0D    360
     100     251       1       0       0       0     359       000010200D    361
     100    1000       0       1       0                               0D    362
     120     252       1       0       0       0       0       000010000D    363
     120    1000    -145       1       0                               0D    364
     508     253       1       0       0       0       0       000010001D    365
     508    1000       0       1       1                               0D    366
     510     254       1       1       0       0       0       000010001D    367
     510    1000    -145       1       1                               0D    368
     514     255       1       0       0       0       0       000010000D    369
     514    1000       0       2       1                               0D    370
     186     257       1       0   65535       0       0       000000001D    371
     186    1000       0       1       0                Assembly       0D    372
     406     258       1       0       0       0       0       000010000D    373
     406    1000       0       1      15                               0D    374
502,26,2.75,0.,11.7,2.75,0.,29.7,-2.75,5.05166804648283D-16,           1P      1
11.7,-2.75,5.05166804648283D-16,29.7,5.,0.,18.3,5.,0.,29.7,-5.,        1P      2
9.18485099360515D-16,29.7,-5.,9.18485099360515D-16,18.3,               1P      3
-6.36121593216773,-4.25,11.7,-8.36121593216773,-4.25,11.7,             1P      4
8.36121593216773,-4.25,11.7,6.36121593216773,-4.25,11.7,1.,8.5,        1P      5
11.7,-1.,8.5,11.7,-11.,2.02066721859313D-15,11.7,11.,0.,11.7,1.,       1P      6
8.5,17.7,-1.,8.5,17.7,8.36121593216773,-4.25,17.7,                     1P      7
6.36121593216773,-4.25,17.7,-6.36121593216773,-4.25,17.7,              1P      8
-8.36121593216773,-4.25,17.7,11.,0.,17.7,-11.,                         1P      9
2.02066721859313D-15,17.7,5.6,-3.79640507735679D-16,17.7,-5.6,         1P     10
9.91963907309356D-16,17.7,0,1,3;                                       1P     11
406,1,13HAssembly tool,0,0;                                            3P     12
110,2.75,5.05166804648283D-16,11.7,2.75,5.05166804648283D-16,          5P     13
29.7,0,0;                                                              5P     14
124,1.,-0.,0.,0.,0.,1.,0.,1.68388934882761D-16,-0.,0.,1.,11.7,0,       7P     15
0;                                                                     7P     16
100,0.,0.,0.,-2.75,3.36777869765522D-16,2.75,                          9P     17
-6.73555739531044D-16,0,0;                                             9P     18
110,-2.75,1.68388934882761D-16,11.7,-2.75,1.68388934882761D-16,       11P     19
29.7,0,0;                                                             11P     20
124,1.,-0.,0.,0.,0.,1.,0.,1.68388934882761D-16,-0.,0.,1.,29.7,0,      13P     21
0;                                                                    13P     22
100,0.,0.,0.,-2.75,3.36777869765522D-16,2.75,                         15P     23
-6.73555739531044D-16,0,0;                                            15P     24
110,5.,9.18485099360515D-16,18.3,5.,9.18485099360515D-16,29.7,0,      17P     25
0;                                                                    17P     26
124,1.,-0.,0.,0.,0.,1.,0.,3.06161699786838D-16,-0.,0.,1.,29.7,0,      19P     27
0;                                                                    19P     28
100,0.,0.,0.,-5.,6.12323399573677D-16,5.,-1.22464679914735D-15,       21P     29
0,0;                                                                  21P     30
110,-5.,3.06161699786838D-16,18.3,-5.,3.06161699786838D-16,29.7,      23P     31
0,0;                                                                  23P     32
124,1.,-0.,0.,0.,0.,1.,0.,3.06161699786838D-16,-0.,0.,1.,18.3,0,      25P     33
0;                                                                    25P     34
100,0.,0.,0.,-5.,6.12323399573677D-16,5.,-1.22464679914735D-15,       27P     35
0,0;                                                                  27P     36
124,1.,-0.,0.,0.,0.,1.,0.,1.68388934882761D-16,-0.,0.,1.,29.7,0,      29P     37
0;                                                                    29P     38
100,0.,0.,0.,2.75,0.,-2.75,3.36777869765522D-16,0,0;                  31P     39
124,1.,-0.,0.,0.,0.,1.,0.,3.06161699786838D-16,-0.,0.,1.,29.7,0,      33P     40
0;                                                                    33P     41
100,0.,0.,0.,5.,0.,-5.,6.12323399573677D-16,0,0;                      35P     42
124,1.,-0.,0.,0.,0.,1.,0.,1.68388934882761D-16,-0.,0.,1.,11.7,0,      37P     43
0;                                                                    37P     44
100,0.,0.,0.,2.75,0.,-2.75,3.36777869765522D-16,0,0;                  39P     45
124,1.,-0.,0.,-7.36121593216773,0.,1.,0.,-4.25,-0.,0.,1.,11.7,0,      41P     46
0;                                                                    41P     47
100,0.,0.,0.,1.,0.,-1.,1.22464679914735D-16,0,0;                      43P     48
124,1.,-0.,0.,-7.36121593216773,0.,1.,0.,-4.25,-0.,0.,1.,11.7,0,      45P     49
0;                                                                    45P     50
100,0.,0.,0.,-1.,1.22464679914735D-16,1.,-2.44929359829471D-16,       47P     51
0,0;                                                                  47P     52
124,1.,-0.,0.,7.36121593216773,0.,1.,0.,-4.25,-0.,0.,1.,11.7,0,       49P     53
0;                                                                    49P     54
100,0.,0.,0.,1.,0.,-1.,5.66553889764798D-16,0,0;                      51P     55
124,1.,-0.,0.,7.36121593216773,0.,1.,0.,-4.25,-0.,0.,1.,11.7,0,       53P     56
0;                                                                    53P     57
100,0.,0.,0.,-1.,5.66553889764798D-16,1.,-2.44929359829471D-16,       55P     58
0,0;                                                                  55P     59
124,1.,-0.,0.,0.,0.,1.,0.,8.5,-0.,0.,1.,11.7,0,0;                     57P     60
100,0.,0.,0.,1.,0.,-1.,1.22464679914735D-16,0,0;                      59P     61
124,1.,-0.,0.,0.,0.,1.,0.,8.5,-0.,0.,1.,11.7,0,0;                     61P     62
100,0.,0.,0.,-1.,1.22464679914735D-16,1.,-2.44929359829471D-16,       63P     63
0,0;                                                                  63P     64
124,1.,-0.,0.,0.,0.,1.,0.,6.73555739531044D-16,-0.,0.,1.,11.7,0,      65P     65
0;                                                                    65P     66
100,0.,0.,0.,-11.,1.34711147906209D-15,11.,                           67P     67
-2.69422295812418D-15,0,0;                                            67P     68
124,1.,-0.,0.,0.,0.,1.,0.,6.73555739531044D-16,-0.,0.,1.,11.7,0,      69P     69
0;                                                                    69P     70
100,0.,0.,0.,11.,0.,-11.,1.34711147906209D-15,0,0;                    71P     71
110,1.,8.5,11.7,1.,8.5,17.7,0,0;                                      73P     72
110,-1.,8.5,11.7,-1.,8.5,17.7,0,0;                                    75P     73
124,1.,-0.,0.,0.,0.,1.,0.,8.5,-0.,0.,1.,17.7,0,0;                     77P     74
100,0.,0.,0.,-1.,1.22464679914735D-16,1.,-2.44929359829471D-16,       79P     75
0,0;                                                                  79P     76
110,8.36121593216773,-4.25,11.7,8.36121593216773,-4.25,17.7,0,0;      81P     77
110,6.36121593216773,-4.25,11.7,6.36121593216773,-4.25,17.7,0,0;      83P     78
124,1.,-0.,0.,7.36121593216773,0.,1.,0.,-4.25,-0.,0.,1.,17.7,0,       85P     79
0;                                                                    85P     80
100,0.,0.,0.,-1.,5.66553889764798D-16,1.,-2.44929359829471D-16,       87P     81
0,0;                                                                  87P     82
110,-6.36121593216773,-4.25,11.7,-6.36121593216773,-4.25,17.7,0,      89P     83
0;                                                                    89P     84
110,-8.36121593216773,-4.25,11.7,-8.36121593216773,-4.25,17.7,0,      91P     85
0;                                                                    91P     86
124,1.,-0.,0.,-7.36121593216773,0.,1.,0.,-4.25,-0.,0.,1.,17.7,0,      93P     87
0;                                                                    93P     88
100,0.,0.,0.,-1.,1.22464679914735D-16,1.,-2.44929359829471D-16,       95P     89
0,0;                                                                  95P     90
110,11.,2.02066721859313D-15,11.7,11.,2.02066721859313D-15,17.7,      97P     91
0,0;                                                                  97P     92
124,1.,-0.,0.,0.,0.,1.,0.,6.73555739531044D-16,-0.,0.,1.,17.7,0,      99P     93
0;                                                                    99P     94
100,0.,0.,0.,-11.,1.34711147906209D-15,11.,                          101P     95
-2.69422295812418D-15,0,0;                                           101P     96
110,-11.,6.73555739531044D-16,11.7,-11.,6.73555739531044D-16,        103P     97
17.7,0,0;                                                            103P     98
124,-1.,0.,0.,0.,0.,1.,0.,3.06161699786838D-16,0.,0.,-1.,17.7,0,     105P     99
0;                                                                   105P    100
100,0.,0.,0.,-5.6,-1.37160441504504D-15,5.6,                         107P    101
6.85802207522518D-16,0,0;                                            107P    102
124,-1.,0.,0.,0.,0.,1.,0.,3.06161699786838D-16,0.,0.,-1.,17.7,0,     109P    103
0;                                                                   109P    104
100,0.,0.,0.,5.6,6.85802207522518D-16,-5.6,0.,0,0;                   111P    105
124,1.,-0.,0.,-7.36121593216773,0.,1.,0.,-4.25,-0.,0.,1.,17.7,0,     113P    106
0;                                                                   113P    107
100,0.,0.,0.,1.,0.,-1.,1.22464679914735D-16,0,0;                     115P    108
124,1.,-0.,0.,7.36121593216773,0.,1.,0.,-4.25,-0.,0.,1.,17.7,0,      117P    109
0;                                                                   117P    110
100,0.,0.,0.,1.,0.,-1.,5.66553889764798D-16,0,0;                     119P    111
124,1.,-0.,0.,0.,0.,1.,0.,8.5,-0.,0.,1.,17.7,0,0;                    121P    112
100,0.,0.,0.,1.,0.,-1.,1.22464679914735D-16,0,0;                     123P    113
124,1.,-0.,0.,0.,0.,1.,0.,6.73555739531044D-16,-0.,0.,1.,17.7,0,     125P    114
0;                                                                   125P    115
100,0.,0.,0.,11.,0.,-11.,1.34711147906209D-15,0,0;                   127P    116
124,1.,0.,-1.22464679914735D-16,-5.6,-1.22464679914735D-16,0.,       129P    117
-1.,9.91963907309356D-16,0.,1.,0.,18.3,0,0;                          129P    118
100,0.,0.,0.,1.10218211923262D-16,-0.6,0.6,7.34788079488412D-17,     131P    119
0,0;                                                                 131P    120
124,-1.,0.,0.,5.6,0.,0.,1.,3.06161699786838D-16,0.,1.,-0.,18.3,      133P    121
0,0;                                                                 133P    122
100,0.,0.,0.,1.10218211923262D-16,-0.6,0.6,7.34788079488412D-17,     135P    123
0,0;                                                                 135P    124
124,1.,-0.,0.,0.,0.,1.,0.,3.06161699786838D-16,-0.,0.,1.,18.3,0,     137P    125
0;                                                                   137P    126
100,0.,0.,0.,5.,0.,-5.,6.12323399573677D-16,0,0;                     139P    127
504,40,5,1,1,1,2,9,1,3,1,1,11,1,3,1,4,15,1,4,1,2,17,1,5,1,6,21,      141P    128
1,7,1,6,23,1,8,1,7,27,1,8,1,5,31,1,2,1,4,35,1,6,1,7,39,1,1,1,3,      141P    129
43,1,9,1,10,47,1,10,1,9,51,1,11,1,12,55,1,12,1,11,59,1,13,1,14,      141P    130
63,1,14,1,13,67,1,15,1,16,71,1,16,1,15,73,1,13,1,17,75,1,14,1,       141P    131
18,79,1,18,1,17,81,1,11,1,19,83,1,12,1,20,87,1,20,1,19,89,1,9,1,     141P    132
21,91,1,10,1,22,95,1,22,1,21,97,1,16,1,23,101,1,24,1,23,103,1,       141P    133
15,1,24,107,1,25,1,26,111,1,26,1,25,115,1,21,1,22,119,1,19,1,20,     141P    134
123,1,17,1,18,127,1,23,1,24,131,1,26,1,8,135,1,25,1,5,139,1,5,1,     141P    135
8,0,1,143;                                                           141P    136
406,1,13HAssembly tool,0,0;                                          143P    137
314,49.4117660522461,49.4117660522461,52.5490226745605,5HCOLOR,      145P    138
0,0;                                                                 145P    139
116,0.,1.68388934882761D-16,29.7,0,0,0;                              147P    140
123,0.,0.,-1.,0,0,0;                                                 149P    141
123,-1.,0.,0.,0,0,0;                                                 151P    142
192,147,149,2.75,151,0,0;                                            153P    143
508,4,0,141,4,0,0,0,141,3,0,0,0,141,2,1,0,0,141,1,1,0,0,0;           155P    144
510,153,1,1,155,0,0;                                                 157P    145
116,0.,3.06161699786838D-16,29.7,0,0,0;                              159P    146
123,0.,0.,-1.,0,0,0;                                                 161P    147
123,-1.,0.,0.,0,0,0;                                                 163P    148
192,159,161,5.,163,0,0;                                              165P    149
508,4,0,141,5,1,0,0,141,6,0,0,0,141,7,0,0,0,141,8,1,0,0,0;           167P    150
510,165,1,1,167,0,0;                                                 169P    151
116,0.,0.,29.7,0,0,0;                                                171P    152
123,0.,0.,1.,0,0,0;                                                  173P    153
123,1.,0.,-0.,0,0,0;                                                 175P    154
190,171,173,175,0,0;                                                 177P    155
508,2,0,141,4,0,0,0,141,9,0,0,0,0;                                   179P    156
508,2,0,141,10,1,0,0,141,6,1,0,0,0;                                  181P    157
510,177,2,1,181,179,0,0;                                             183P    158
116,0.,0.,11.7,0,0,0;                                                185P    159
123,0.,0.,1.,0,0,0;                                                  187P    160
123,1.,0.,-0.,0,0,0;                                                 189P    161
190,185,187,189,0,0;                                                 191P    162
508,2,0,141,2,0,0,0,141,11,0,0,0,0;                                  193P    163
508,2,0,141,13,0,0,0,141,12,0,0,0,0;                                 195P    164
508,2,0,141,15,0,0,0,141,14,0,0,0,0;                                 197P    165
508,2,0,141,17,0,0,0,141,16,0,0,0,0;                                 199P    166
508,2,0,141,19,1,0,0,141,18,1,0,0,0;                                 201P    167
510,191,5,1,201,193,195,197,199,0,0;                                 203P    168
116,0.,8.5,17.7,0,0,0;                                               205P    169
123,0.,0.,-1.,0,0,0;                                                 207P    170
123,-1.,0.,0.,0,0,0;                                                 209P    171
192,205,207,1.,209,0,0;                                              211P    172
508,4,0,141,22,0,0,0,141,21,0,0,0,141,17,1,0,0,141,20,1,0,0,0;       213P    173
510,211,1,1,213,0,0;                                                 215P    174
116,7.36121593216773,-4.25,17.7,0,0,0;                               217P    175
123,0.,0.,-1.,0,0,0;                                                 219P    176
123,-1.,0.,0.,0,0,0;                                                 221P    177
192,217,219,1.,221,0,0;                                              223P    178
508,4,0,141,25,0,0,0,141,24,0,0,0,141,15,1,0,0,141,23,1,0,0,0;       225P    179
510,223,1,1,225,0,0;                                                 227P    180
116,-7.36121593216773,-4.25,17.7,0,0,0;                              229P    181
123,0.,0.,-1.,0,0,0;                                                 231P    182
123,-1.,0.,0.,0,0,0;                                                 233P    183
192,229,231,1.,233,0,0;                                              235P    184
508,4,0,141,28,0,0,0,141,27,0,0,0,141,13,1,0,0,141,26,1,0,0,0;       237P    185
510,235,1,1,237,0,0;                                                 239P    186
116,0.,6.73555739531044D-16,17.7,0,0,0;                              241P    187
123,0.,0.,-1.,0,0,0;                                                 243P    188
123,-1.,0.,0.,0,0,0;                                                 245P    189
192,241,243,11.,245,0,0;                                             247P    190
508,4,0,141,29,1,0,0,141,30,0,0,0,141,31,0,0,0,141,18,1,0,0,0;       249P    191
510,247,1,1,249,0,0;                                                 251P    192
116,0.,0.,17.7,0,0,0;                                                253P    193
123,0.,0.,1.,0,0,0;                                                  255P    194
123,1.,0.,-0.,0,0,0;                                                 257P    195
190,253,255,257,0,0;                                                 259P    196
508,2,0,141,32,1,0,0,141,33,1,0,0,0;                                 261P    197
508,2,0,141,28,0,0,0,141,34,0,0,0,0;                                 263P    198
508,2,0,141,25,0,0,0,141,35,0,0,0,0;                                 265P    199
508,2,0,141,22,0,0,0,141,36,0,0,0,0;                                 267P    200
508,2,0,141,37,1,0,0,141,30,1,0,0,0;                                 269P    201
510,259,5,1,269,261,263,265,267,0,0;                                 271P    202
110,0.,3.06161699786838D-16,18.3,0.,3.06161699786838D-16,19.3,0,     273P    203
0;                                                                   273P    204
124,1.,-0.,0.,5.6,0.,0.,-1.,3.06161699786838D-16,0.,1.,0.,18.3,      275P    205
0,0;                                                                 275P    206
100,0.,0.,0.,0.6,0.,0.6,-1.46957615897682D-16,0,0;                   277P    207
120,273,277,0.,6.28318530717959,0,0;                                 279P    208
508,4,0,141,38,0,0,0,141,32,0,0,0,141,39,1,0,0,141,8,0,0,0,0;        281P    209
510,279,1,1,281,0,0;                                                 283P    210
116,0.,1.68388934882761D-16,29.7,0,0,0;                              285P    211
123,0.,0.,-1.,0,0,0;                                                 287P    212
123,-1.,0.,0.,0,0,0;                                                 289P    213
192,285,287,2.75,289,0,0;                                            291P    214
508,4,0,141,11,1,0,0,141,3,1,0,0,141,9,0,0,0,141,1,0,0,0,0;          293P    215
510,291,1,1,293,0,0;                                                 295P    216
116,0.,3.06161699786838D-16,29.7,0,0,0;                              297P    217
123,0.,0.,-1.,0,0,0;                                                 299P    218
123,-1.,0.,0.,0,0,0;                                                 301P    219
192,297,299,5.,301,0,0;                                              303P    220
508,4,0,141,5,0,0,0,141,40,1,0,0,141,7,1,0,0,141,10,0,0,0,0;         305P    221
510,303,1,1,305,0,0;                                                 307P    222
116,0.,8.5,17.7,0,0,0;                                               309P    223
123,0.,0.,-1.,0,0,0;                                                 311P    224
123,-1.,0.,0.,0,0,0;                                                 313P    225
192,309,311,1.,313,0,0;                                              315P    226
508,4,0,141,16,1,0,0,141,21,1,0,0,141,36,0,0,0,141,20,0,0,0,0;       317P    227
510,315,1,1,317,0,0;                                                 319P    228
116,7.36121593216773,-4.25,17.7,0,0,0;                               321P    229
123,0.,0.,-1.,0,0,0;                                                 323P    230
123,-1.,0.,0.,0,0,0;                                                 325P    231
192,321,323,1.,325,0,0;                                              327P    232
508,4,0,141,14,1,0,0,141,24,1,0,0,141,35,0,0,0,141,23,0,0,0,0;       329P    233
510,327,1,1,329,0,0;                                                 331P    234
116,-7.36121593216773,-4.25,17.7,0,0,0;                              333P    235
123,0.,0.,-1.,0,0,0;                                                 335P    236
123,-1.,0.,0.,0,0,0;                                                 337P    237
192,333,335,1.,337,0,0;                                              339P    238
508,4,0,141,12,1,0,0,141,27,1,0,0,141,34,0,0,0,141,26,0,0,0,0;       341P    239
510,339,1,1,341,0,0;                                                 343P    240
116,0.,6.73555739531044D-16,17.7,0,0,0;                              345P    241
123,0.,0.,-1.,0,0,0;                                                 347P    242
123,-1.,0.,0.,0,0,0;                                                 349P    243
192,345,347,11.,349,0,0;                                             351P    244
508,4,0,141,29,0,0,0,141,19,1,0,0,141,31,1,0,0,141,37,0,0,0,0;       353P    245
510,351,1,1,353,0,0;                                                 355P    246
110,0.,3.06161699786838D-16,18.3,0.,3.06161699786838D-16,19.3,0,     357P    247
0;                                                                   357P    248
124,1.,-0.,0.,5.6,0.,0.,-1.,3.06161699786838D-16,0.,1.,0.,18.3,      359P    249
0,0;                                                                 359P    250
100,0.,0.,0.,0.6,0.,0.6,-1.46957615897682D-16,0,0;                   361P    251
120,357,361,0.,6.28318530717959,0,0;                                 363P    252
508,4,0,141,38,1,0,0,141,40,0,0,0,141,39,0,0,0,141,33,0,0,0,0;       365P    253
510,363,1,1,365,0,0;                                                 367P    254
514,17,157,0,169,1,183,1,203,0,215,0,227,0,239,0,251,1,271,1,        369P    255
283,1,295,0,307,1,319,0,331,0,343,0,355,1,367,1,0,0;                 369P    256
186,369,1,0;0,1,373;                                                 371P    257
406,1,13HAssembly tool,0,0;                                          373P    258
S      3G      6D    374P    258                                        T      1
