                                                                        S      1
File generated by Shapr3D Version 3.0                                   S      2
                                                                        S      3
1H,,1H;,118HC:\Users\jonat\AppData\Local\Packages\Shapr3D.Shapr3D_dvv5p1G      1
vgwv6mp\TempState\faa2f12d-38cd-491b-95c5-42cb4d640985.tmp,11Htemp_exporG      2
t,7HShapr3D,3H3.0,32,24,8,56,15,118HC:\Users\jonat\AppData\Local\PackageG      3
s\Shapr3D.Shapr3D_dvv5p1vgwv6mp\TempState\faa2f12d-38cd-491b-95c5-42cb4dG      4
640985.tmp,1.,2,2HMM,1000,1.,13H221207.161204,1D-05,1000000.,,,9,0,13H22G      5
1207.161204;                                                            G      6
     502       1       1       0   65535       0       0       000010001D      1
     502    1000       0       7       1                Shaft ga       0D      2
     406       8       1       0       0       0       0       000010000D      3
     406    1000       0       1      15                               0D      4
     110       9       1       0       0       0       0       000010000D      5
     110    1000       0       2       0                               0D      6
     124      11       1       0       0       0       0       001010000D      7
     124    1000       0       2       0                               0D      8
     100      13       1       0       0       0       7       000010000D      9
     100    1000       0       2       0                               0D     10
     110      15       1       0       0       0       0       000010000D     11
     110    1000       0       2       0                               0D     12
     124      17       1       0       0       0       0       001010000D     13
     124    1000       0       2       0                               0D     14
     100      19       1       0       0       0      13       000010000D     15
     100    1000       0       2       0                               0D     16
     124      21       1       0       0       0       0       001010000D     17
     124    1000       0       2       0                               0D     18
     100      23       1       0       0       0      17       000010000D     19
     100    1000       0       1       0                               0D     20
     124      24       1       0       0       0       0       001010000D     21
     124    1000       0       2       0                               0D     22
     100      26       1       0       0       0      21       000010000D     23
     100    1000       0       2       0                               0D     24
     124      28       1       0       0       0       0       001010000D     25
     124    1000       0       2       0                               0D     26
     100      30       1       0       0       0      25       000010000D     27
     100    1000       0       1       0                               0D     28
     124      31       1       0       0       0       0       001010000D     29
     124    1000       0       2       0                               0D     30
     100      33       1       0       0       0      29       000010000D     31
     100    1000       0       1       0                               0D     32
     124      34       1       0       0       0       0       001010000D     33
     124    1000       0       1       0                               0D     34
     100      35       1       0       0       0      33       000010000D     35
     100    1000       0       2       0                               0D     36
     124      37       1       0       0       0       0       001010000D     37
     124    1000       0       1       0                               0D     38
     100      38       1       0       0       0      37       000010000D     39
     100    1000       0       1       0                               0D     40
     110      39       1       0       0       0       0       000010000D     41
     110    1000       0       2       0                               0D     42
     124      41       1       0       0       0       0       001010000D     43
     124    1000       0       2       0                               0D     44
     100      43       1       0       0       0      43       000010000D     45
     100    1000       0       2       0                               0D     46
     110      45       1       0       0       0       0       000010000D     47
     110    1000       0       2       0                               0D     48
     124      47       1       0       0       0       0       001010000D     49
     124    1000       0       1       0                               0D     50
     100      48       1       0       0       0      49       000010000D     51
     100    1000       0       2       0                               0D     52
     110      50       1       0       0       0       0       000010000D     53
     110    1000       0       2       0                               0D     54
     124      52       1       0       0       0       0       001010000D     55
     124    1000       0       1       0                               0D     56
     100      53       1       0       0       0      55       000010000D     57
     100    1000       0       2       0                               0D     58
     110      55       1       0       0       0       0       000010000D     59
     110    1000       0       2       0                               0D     60
     124      57       1       0       0       0       0       001010000D     61
     124    1000       0       1       0                               0D     62
     100      58       1       0       0       0      61       000010000D     63
     100    1000       0       1       0                               0D     64
     124      59       1       0       0       0       0       001010000D     65
     124    1000       0       1       0                               0D     66
     100      60       1       0       0       0      65       000010000D     67
     100    1000       0       1       0                               0D     68
     124      61       1       0       0       0       0       001010000D     69
     124    1000       0       2       0                               0D     70
     100      63       1       0       0       0      69       000010000D     71
     100    1000       0       2       0                               0D     72
     124      65       1       0       0       0       0       001010000D     73
     124    1000       0       2       0                               0D     74
     100      67       1       0       0       0      73       000010000D     75
     100    1000       0       2       0                               0D     76
     124      69       1       0       0       0       0       001010000D     77
     124    1000       0       2       0                               0D     78
     100      71       1       0       0       0      77       000010000D     79
     100    1000       0       1       0                               0D     80
     504      72       1       0   65535       0       0       000010001D     81
     504    1000       0       5       1                Shaft ga       0D     82
     406      77       1       0       0       0       0       000010001D     83
     406    1000       0       1      15                               0D     84
     314      78       1       0       0       0       0       000020000D     85
     314    1000       0       2       0                               0D     86
     116      80       1       0       0       0       0       000010200D     87
     116    1000       0       1       0                               0D     88
     123      81       1       0       0       0       0       000010200D     89
     123    1000       0       1       0                               0D     90
     123      82       1       0       0       0       0       000010200D     91
     123    1000       0       1       0                               0D     92
     192      83       1       0       0       0       0       000010000D     93
     192    1000     -85       1       1                               0D     94
     508      84       1       0       0       0       0       000010001D     95
     508    1000       0       1       1                               0D     96
     510      85       1       1       0       0       0       000010001D     97
     510    1000     -85       1       1                               0D     98
     116      86       1       0       0       0       0       000010200D     99
     116    1000       0       1       0                               0D    100
     123      87       1       0       0       0       0       000010200D    101
     123    1000       0       1       0                               0D    102
     123      88       1       0       0       0       0       000010200D    103
     123    1000       0       1       0                               0D    104
     190      89       1       0       0       0       0       000010000D    105
     190    1000     -85       1       1                               0D    106
     508      90       1       0       0       0       0       000010001D    107
     508    1000       0       1       1                               0D    108
     508      91       1       0       0       0       0       000010001D    109
     508    1000       0       1       1                               0D    110
     510      92       1       1       0       0       0       000010001D    111
     510    1000     -85       1       1                               0D    112
     116      93       1       0       0       0       0       000010200D    113
     116    1000       0       1       0                               0D    114
     123      94       1       0       0       0       0       000010200D    115
     123    1000       0       1       0                               0D    116
     123      95       1       0       0       0       0       000010200D    117
     123    1000       0       1       0                               0D    118
     190      96       1       0       0       0       0       000010000D    119
     190    1000     -85       1       1                               0D    120
     508      97       1       0       0       0       0       000010001D    121
     508    1000       0       1       1                               0D    122
     508      98       1       0       0       0       0       000010001D    123
     508    1000       0       1       1                               0D    124
     510      99       1       1       0       0       0       000010001D    125
     510    1000     -85       1       1                               0D    126
     116     100       1       0       0       0       0       000010200D    127
     116    1000       0       1       0                               0D    128
     123     101       1       0       0       0       0       000010200D    129
     123    1000       0       1       0                               0D    130
     123     102       1       0       0       0       0       000010200D    131
     123    1000       0       1       0                               0D    132
     192     103       1       0       0       0       0       000010000D    133
     192    1000     -85       1       1                               0D    134
     508     104       1       0       0       0       0       000010001D    135
     508    1000       0       1       1                               0D    136
     510     105       1       1       0       0       0       000010001D    137
     510    1000     -85       1       1                               0D    138
     116     106       1       0       0       0       0       000010200D    139
     116    1000       0       1       0                               0D    140
     123     107       1       0       0       0       0       000010200D    141
     123    1000       0       1       0                               0D    142
     123     108       1       0       0       0       0       000010200D    143
     123    1000       0       1       0                               0D    144
     192     109       1       0       0       0       0       000010000D    145
     192    1000     -85       1       1                               0D    146
     508     110       1       0       0       0       0       000010001D    147
     508    1000       0       1       1                               0D    148
     510     111       1       1       0       0       0       000010001D    149
     510    1000     -85       1       1                               0D    150
     116     112       1       0       0       0       0       000010200D    151
     116    1000       0       1       0                               0D    152
     123     113       1       0       0       0       0       000010200D    153
     123    1000       0       1       0                               0D    154
     123     114       1       0       0       0       0       000010200D    155
     123    1000       0       1       0                               0D    156
     190     115       1       0       0       0       0       000010000D    157
     190    1000     -85       1       1                               0D    158
     508     116       1       0       0       0       0       000010001D    159
     508    1000       0       1       1                               0D    160
     508     117       1       0       0       0       0       000010001D    161
     508    1000       0       1       1                               0D    162
     510     118       1       1       0       0       0       000010001D    163
     510    1000     -85       1       1                               0D    164
     110     119       1       0       0       0       0       000010200D    165
     110    1000       0       1       0                               0D    166
     124     120       1       0       0       0       0       001010200D    167
     124    1000       0       2       0                               0D    168
     100     122       1       0       0       0     167       000010200D    169
     100    1000       0       1       0                               0D    170
     120     123       1       0       0       0       0       000010000D    171
     120    1000     -85       1       0                               0D    172
     508     124       1       0       0       0       0       000010001D    173
     508    1000       0       1       1                               0D    174
     510     125       1       1       0       0       0       000010001D    175
     510    1000     -85       1       1                               0D    176
     116     126       1       0       0       0       0       000010200D    177
     116    1000       0       1       0                               0D    178
     123     127       1       0       0       0       0       000010200D    179
     123    1000       0       1       0                               0D    180
     123     128       1       0       0       0       0       000010200D    181
     123    1000       0       1       0                               0D    182
     192     129       1       0       0       0       0       000010000D    183
     192    1000     -85       1       1                               0D    184
     508     130       1       0       0       0       0       000010001D    185
     508    1000       0       1       1                               0D    186
     510     131       1       1       0       0       0       000010001D    187
     510    1000     -85       1       1                               0D    188
     116     132       1       0       0       0       0       000010200D    189
     116    1000       0       1       0                               0D    190
     123     133       1       0       0       0       0       000010200D    191
     123    1000       0       1       0                               0D    192
     123     134       1       0       0       0       0       000010200D    193
     123    1000       0       1       0                               0D    194
     192     135       1       0       0       0       0       000010000D    195
     192    1000     -85       1       1                               0D    196
     508     136       1       0       0       0       0       000010001D    197
     508    1000       0       1       1                               0D    198
     510     137       1       1       0       0       0       000010001D    199
     510    1000     -85       1       1                               0D    200
     116     138       1       0       0       0       0       000010200D    201
     116    1000       0       1       0                               0D    202
     123     139       1       0       0       0       0       000010200D    203
     123    1000       0       1       0                               0D    204
     123     140       1       0       0       0       0       000010200D    205
     123    1000       0       1       0                               0D    206
     192     141       1       0       0       0       0       000010000D    207
     192    1000     -85       1       1                               0D    208
     508     142       1       0       0       0       0       000010001D    209
     508    1000       0       1       1                               0D    210
     510     143       1       1       0       0       0       000010001D    211
     510    1000     -85       1       1                               0D    212
     110     144       1       0       0       0       0       000010200D    213
     110    1000       0       1       0                               0D    214
     124     145       1       0       0       0       0       001010200D    215
     124    1000       0       2       0                               0D    216
     100     147       1       0       0       0     215       000010200D    217
     100    1000       0       1       0                               0D    218
     120     148       1       0       0       0       0       000010000D    219
     120    1000     -85       1       0                               0D    220
     508     149       1       0       0       0       0       000010001D    221
     508    1000       0       1       1                               0D    222
     510     150       1       1       0       0       0       000010001D    223
     510    1000     -85       1       1                               0D    224
     514     151       1       0       0       0       0       000010000D    225
     514    1000       0       2       1                               0D    226
     186     153       1       0   65535       0       0       000000001D    227
     186    1000       0       1       0                Shaft ga       0D    228
     406     154       1       0       0       0       0       000010000D    229
     406    1000       0       1      15                               0D    230
502,14,2.06184684485197,0.,0.,2.06184684485197,0.,6.3,                 1P      1
-1.43815315514803,3.2146978477618D-16,0.,-1.43815315514803,            1P      2
3.2146978477618D-16,6.3,9.5,-5.51091059616309D-16,6.3,-9.5,            1P      3
1.77573785876366D-15,6.3,-12.5,2.30845921639276D-15,0.,12.5,           1P      4
1.22464679914728D-17,0.,10.,0.,6.8,10.,0.,8.,-10.,                     1P      5
1.83697019872103D-15,6.8,-10.,1.83697019872103D-15,8.,12.5,            1P      6
1.22464679914728D-17,8.,-12.5,2.30845921639276D-15,8.,0,1,3;           1P      7
406,1,10HShaft gage,0,0;                                               3P      8
110,2.06184684485197,3.2146978477618D-16,0.,2.06184684485197,          5P      9
3.2146978477618D-16,6.3,0,0;                                           5P     10
124,1.,-0.,0.,0.311846844851971,0.,1.,0.,1.07156594925393D-16,         7P     11
-0.,0.,1.,0.,0,0;                                                      7P     12
100,0.,0.,0.,-1.75,2.14313189850787D-16,1.75,                          9P     13
-4.28626379701574D-16,0,0;                                             9P     14
110,-1.43815315514803,1.07156594925393D-16,0.,-1.43815315514803,      11P     15
1.07156594925393D-16,6.3,0,0;                                         11P     16
124,1.,-0.,0.,0.311846844851971,0.,1.,0.,1.07156594925393D-16,        13P     17
-0.,0.,1.,6.3,0,0;                                                    13P     18
100,0.,0.,0.,-1.75,2.14313189850787D-16,1.75,                         15P     19
-4.28626379701574D-16,0,0;                                            15P     20
124,1.,-0.,0.,0.,0.,1.,0.,6.12323399573677D-16,-0.,0.,1.,6.3,0,       17P     21
0;                                                                    17P     22
100,0.,0.,0.,9.5,0.,-9.5,1.16341445918999D-15,0,0;                    19P     23
124,1.,-0.,0.,0.,0.,1.,0.,6.12323399573677D-16,-0.,0.,1.,6.3,0,       21P     24
0;                                                                    21P     25
100,0.,0.,0.,-9.5,1.16341445918999D-15,9.5,                           23P     26
-2.32682891837997D-15,0,0;                                            23P     27
124,1.,-0.,0.,0.311846844851971,0.,1.,0.,1.07156594925393D-16,        25P     28
-0.,0.,1.,6.3,0,0;                                                    25P     29
100,0.,0.,0.,1.75,0.,-1.75,2.14313189850787D-16,0,0;                  27P     30
124,1.,-0.,0.,0.311846844851971,0.,1.,0.,1.07156594925393D-16,        29P     31
-0.,0.,1.,0.,0,0;                                                     29P     32
100,0.,0.,0.,1.75,0.,-1.75,2.14313189850787D-16,0,0;                  31P     33
124,1.,-0.,0.,0.,0.,1.,0.,7.77650717458569D-16,-0.,0.,1.,0.,0,0;      33P     34
100,0.,0.,0.,-12.5,1.53080849893419D-15,12.5,                         35P     35
-3.06161699786838D-15,0,0;                                            35P     36
124,1.,-0.,0.,0.,0.,1.,0.,7.77650717458569D-16,-0.,0.,1.,0.,0,0;      37P     37
100,0.,0.,0.,12.5,0.,-12.5,1.53080849893419D-15,0,0;                  39P     38
110,10.,1.83697019872103D-15,6.8,10.,1.83697019872103D-15,8.,0,       41P     39
0;                                                                    41P     40
124,-1.,0.,0.,0.,0.,1.,0.,6.12323399573677D-16,0.,0.,-1.,6.8,0,       43P     41
0;                                                                    43P     42
100,0.,0.,0.,-10.,-2.44929359829471D-15,10.,                          45P     43
1.22464679914735D-15,0,0;                                             45P     44
110,-10.,6.12323399573677D-16,6.8,-10.,6.12323399573677D-16,8.,       47P     45
0,0;                                                                  47P     46
124,1.,-0.,0.,0.,0.,1.,0.,6.12323399573677D-16,-0.,0.,1.,8.,0,0;      49P     47
100,0.,0.,0.,-10.,1.22464679914735D-15,10.,                           51P     48
-2.44929359829471D-15,0,0;                                            51P     49
110,12.5,2.30845921639276D-15,0.,12.5,2.30845921639276D-15,8.,0,      53P     50
0;                                                                    53P     51
124,1.,-0.,0.,0.,0.,1.,0.,7.77650717458569D-16,-0.,0.,1.,8.,0,0;      55P     52
100,0.,0.,0.,-12.5,1.53080849893419D-15,12.5,                         57P     53
-3.06161699786838D-15,0,0;                                            57P     54
110,-12.5,7.77650717458569D-16,0.,-12.5,7.77650717458569D-16,8.,      59P     55
0,0;                                                                  59P     56
124,1.,-0.,0.,0.,0.,1.,0.,6.12323399573677D-16,-0.,0.,1.,8.,0,0;      61P     57
100,0.,0.,0.,10.,0.,-10.,1.22464679914735D-15,0,0;                    63P     58
124,1.,-0.,0.,0.,0.,1.,0.,7.77650717458569D-16,-0.,0.,1.,8.,0,0;      65P     59
100,0.,0.,0.,12.5,0.,-12.5,1.53080849893419D-15,0,0;                  67P     60
124,1.,0.,-1.22464679914735D-16,-9.5,-1.22464679914735D-16,0.,        69P     61
-1.,1.77573785876366D-15,0.,1.,0.,6.8,0,0;                            69P     62
100,0.,0.,0.,-0.5,-1.22464679914735D-16,-2.12859753931426D-15,        71P     63
-0.5,0,0;                                                             71P     64
124,-1.,0.,0.,9.5,0.,0.,1.,6.12323399573677D-16,0.,1.,-0.,6.8,0,      73P     65
0;                                                                    73P     66
100,0.,0.,0.,-0.5,-1.22464679914735D-16,9.18485099360515D-17,         75P     67
-0.5,0,0;                                                             75P     68
124,-1.,0.,0.,0.,0.,1.,0.,6.12323399573677D-16,0.,0.,-1.,6.8,0,       77P     69
0;                                                                    77P     70
100,0.,0.,0.,10.,1.22464679914735D-15,-10.,0.,0,0;                    79P     71
504,22,5,1,1,1,2,9,1,3,1,1,11,1,3,1,4,15,1,4,1,2,19,1,5,1,6,23,       81P     72
1,6,1,5,27,1,2,1,4,31,1,1,1,3,35,1,7,1,8,39,1,8,1,7,41,1,9,1,10,      81P     73
45,1,9,1,11,47,1,11,1,12,51,1,12,1,10,53,1,8,1,13,57,1,14,1,13,       81P     74
59,1,7,1,14,63,1,10,1,12,67,1,13,1,14,71,1,11,1,6,75,1,9,1,5,79,      81P     75
1,11,1,9,0,1,83;                                                      81P     76
406,1,10HShaft gage,0,0;                                              83P     77
314,49.4117660522461,49.4117660522461,52.5490226745605,5HCOLOR,       85P     78
0,0;                                                                  85P     79
116,0.311846844851971,1.07156594925393D-16,6.3,0,0,0;                 87P     80
123,0.,0.,-1.,0,0,0;                                                  89P     81
123,-1.,0.,0.,0,0,0;                                                  91P     82
192,87,89,1.75,91,0,0;                                                93P     83
508,4,0,81,4,0,0,0,81,3,0,0,0,81,2,1,0,0,81,1,1,0,0,0;                95P     84
510,93,1,1,95,0,0;                                                    97P     85
116,0.,0.,6.3,0,0,0;                                                  99P     86
123,0.,0.,1.,0,0,0;                                                  101P     87
123,1.,0.,-0.,0,0,0;                                                 103P     88
190,99,101,103,0,0;                                                  105P     89
508,2,0,81,5,1,0,0,81,6,1,0,0,0;                                     107P     90
508,2,0,81,4,0,0,0,81,7,0,0,0,0;                                     109P     91
510,105,2,1,107,109,0,0;                                             111P     92
116,0.,0.,0.,0,0,0;                                                  113P     93
123,0.,0.,1.,0,0,0;                                                  115P     94
123,1.,0.,0.,0,0,0;                                                  117P     95
190,113,115,117,0,0;                                                 119P     96
508,2,0,81,2,0,0,0,81,8,0,0,0,0;                                     121P     97
508,2,0,81,10,1,0,0,81,9,1,0,0,0;                                    123P     98
510,119,2,1,123,121,0,0;                                             125P     99
116,0.,6.12323399573677D-16,8.,0,0,0;                                127P    100
123,0.,0.,-1.,0,0,0;                                                 129P    101
123,-1.,0.,0.,0,0,0;                                                 131P    102
192,127,129,10.,131,0,0;                                             133P    103
508,4,0,81,14,0,0,0,81,13,0,0,0,81,12,0,0,0,81,11,1,0,0,0;           135P    104
510,133,1,1,135,0,0;                                                 137P    105
116,0.,7.77650717458569D-16,8.,0,0,0;                                139P    106
123,0.,0.,-1.,0,0,0;                                                 141P    107
123,-1.,0.,0.,0,0,0;                                                 143P    108
192,139,141,12.5,143,0,0;                                            145P    109
508,4,0,81,15,1,0,0,81,16,0,0,0,81,17,0,0,0,81,9,1,0,0,0;            147P    110
510,145,1,1,147,0,0;                                                 149P    111
116,0.,0.,8.,0,0,0;                                                  151P    112
123,0.,0.,1.,0,0,0;                                                  153P    113
123,1.,0.,-0.,0,0,0;                                                 155P    114
190,151,153,155,0,0;                                                 157P    115
508,2,0,81,14,0,0,0,81,18,0,0,0,0;                                   159P    116
508,2,0,81,19,1,0,0,81,16,1,0,0,0;                                   161P    117
510,157,2,1,161,159,0,0;                                             163P    118
110,0.,6.12323399573677D-16,6.8,0.,6.12323399573677D-16,7.8,0,0;     165P    119
124,1.,-0.,0.,9.5,0.,0.,-1.,6.12323399573677D-16,0.,1.,0.,6.8,0,     167P    120
0;                                                                   167P    121
100,0.,0.,0.,0.5,0.,0.5,-1.22464679914735D-16,0,0;                   169P    122
120,165,169,0.,6.28318530717959,0,0;                                 171P    123
508,4,0,81,20,0,0,0,81,12,0,0,0,81,21,1,0,0,81,6,0,0,0,0;            173P    124
510,171,1,1,173,0,0;                                                 175P    125
116,0.311846844851971,1.07156594925393D-16,6.3,0,0,0;                177P    126
123,0.,0.,-1.,0,0,0;                                                 179P    127
123,-1.,0.,0.,0,0,0;                                                 181P    128
192,177,179,1.75,181,0,0;                                            183P    129
508,4,0,81,8,1,0,0,81,3,1,0,0,81,7,0,0,0,81,1,0,0,0,0;               185P    130
510,183,1,1,185,0,0;                                                 187P    131
116,0.,6.12323399573677D-16,8.,0,0,0;                                189P    132
123,0.,0.,-1.,0,0,0;                                                 191P    133
123,-1.,0.,0.,0,0,0;                                                 193P    134
192,189,191,10.,193,0,0;                                             195P    135
508,4,0,81,22,0,0,0,81,13,1,0,0,81,18,0,0,0,81,11,0,0,0,0;           197P    136
510,195,1,1,197,0,0;                                                 199P    137
116,0.,7.77650717458569D-16,8.,0,0,0;                                201P    138
123,0.,0.,-1.,0,0,0;                                                 203P    139
123,-1.,0.,0.,0,0,0;                                                 205P    140
192,201,203,12.5,205,0,0;                                            207P    141
508,4,0,81,15,0,0,0,81,10,1,0,0,81,17,1,0,0,81,19,0,0,0,0;           209P    142
510,207,1,1,209,0,0;                                                 211P    143
110,0.,6.12323399573677D-16,6.8,0.,6.12323399573677D-16,7.8,0,0;     213P    144
124,1.,-0.,0.,9.5,0.,0.,-1.,6.12323399573677D-16,0.,1.,0.,6.8,0,     215P    145
0;                                                                   215P    146
100,0.,0.,0.,0.5,0.,0.5,-1.22464679914735D-16,0,0;                   217P    147
120,213,217,0.,6.28318530717959,0,0;                                 219P    148
508,4,0,81,20,1,0,0,81,5,0,0,0,81,21,0,0,0,81,22,0,0,0,0;            221P    149
510,219,1,1,221,0,0;                                                 223P    150
514,11,97,0,111,1,125,0,137,0,149,1,163,1,175,1,187,0,199,0,211,     225P    151
1,223,1,0,0;                                                         225P    152
186,225,1,0;0,1,229;                                                 227P    153
406,1,10HShaft gage,0,0;                                             229P    154
S      3G      6D    230P    154                                        T      1
