                                                                        S      1
File generated by Shapr3D Version 3.0                                   S      2
                                                                        S      3
1H,,1H;,118HC:\Users\jonat\AppData\Local\Packages\Shapr3D.Shapr3D_dvv5p1G      1
vgwv6mp\TempState\a5f01b8d-0b38-476c-bae6-703bd4f4f3e0.tmp,11Htemp_exporG      2
t,7HShapr3D,3H3.0,32,24,8,56,15,118HC:\Users\jonat\AppData\Local\PackageG      3
s\Shapr3D.Shapr3D_dvv5p1vgwv6mp\TempState\a5f01b8d-0b38-476c-bae6-703bd4G      4
f4f3e0.tmp,1.,2,2HMM,1000,1.,13H221207.162140,1D-05,1000000.,,,9,0,13H22G      5
1207.162140;                                                            G      6
     502       1       1       0   65535       0       0       000010001D      1
     502    1000       0      19       1                Rear ret       0D      2
     406      20       1       0       0       0       0       000010000D      3
     406    1000       0       1      15                               0D      4
     110      21       1       0       0       0       0       000010000D      5
     110    1000       0       2       0                               0D      6
     124      23       1       0       0       0       0       001010000D      7
     124    1000       0       3       0                               0D      8
     100      26       1       0       0       0       7       000010000D      9
     100    1000       0       2       0                               0D     10
     124      28       1       0       0       0       0       001010000D     11
     124    1000       0       3       0                               0D     12
     100      31       1       0       0       0      11       000010000D     13
     100    1000       0       2       0                               0D     14
     110      33       1       0       0       0       0       000010000D     15
     110    1000       0       2       0                               0D     16
     124      35       1       0       0       0       0       001010000D     17
     124    1000       0       3       0                               0D     18
     100      38       1       0       0       0      17       000010000D     19
     100    1000       0       2       0                               0D     20
     124      40       1       0       0       0       0       001010000D     21
     124    1000       0       3       0                               0D     22
     100      43       1       0       0       0      21       000010000D     23
     100    1000       0       2       0                               0D     24
     110      45       1       0       0       0       0       000010000D     25
     110    1000       0       2       0                               0D     26
     124      47       1       0       0       0       0       001010000D     27
     124    1000       0       2       0                               0D     28
     100      49       1       0       0       0      27       000010000D     29
     100    1000       0       2       0                               0D     30
     124      51       1       0       0       0       0       001010000D     31
     124    1000       0       2       0                               0D     32
     100      53       1       0       0       0      31       000010000D     33
     100    1000       0       2       0                               0D     34
     110      55       1       0       0       0       0       000010000D     35
     110    1000       0       2       0                               0D     36
     124      57       1       0       0       0       0       001010000D     37
     124    1000       0       2       0                               0D     38
     100      59       1       0       0       0      37       000010000D     39
     100    1000       0       2       0                               0D     40
     124      61       1       0       0       0       0       001010000D     41
     124    1000       0       2       0                               0D     42
     100      63       1       0       0       0      41       000010000D     43
     100    1000       0       2       0                               0D     44
     124      65       1       0       0       0       0       001010000D     45
     124    1000       0       2       0                               0D     46
     100      67       1       0       0       0      45       000010000D     47
     100    1000       0       2       0                               0D     48
     124      69       1       0       0       0       0       001010000D     49
     124    1000       0       2       0                               0D     50
     100      71       1       0       0       0      49       000010000D     51
     100    1000       0       1       0                               0D     52
     124      72       1       0       0       0       0       001010000D     53
     124    1000       0       3       0                               0D     54
     100      75       1       0       0       0      53       000010000D     55
     100    1000       0       1       0                               0D     56
     124      76       1       0       0       0       0       001010000D     57
     124    1000       0       3       0                               0D     58
     100      79       1       0       0       0      57       000010000D     59
     100    1000       0       2       0                               0D     60
     124      81       1       0       0       0       0       001010000D     61
     124    1000       0       2       0                               0D     62
     100      83       1       0       0       0      61       000010000D     63
     100    1000       0       1       0                               0D     64
     124      84       1       0       0       0       0       001010000D     65
     124    1000       0       2       0                               0D     66
     100      86       1       0       0       0      65       000010000D     67
     100    1000       0       2       0                               0D     68
     124      88       1       0       0       0       0       001010000D     69
     124    1000       0       3       0                               0D     70
     100      91       1       0       0       0      69       000010000D     71
     100    1000       0       2       0                               0D     72
     124      93       1       0       0       0       0       001010000D     73
     124    1000       0       3       0                               0D     74
     100      96       1       0       0       0      73       000010000D     75
     100    1000       0       1       0                               0D     76
     124      97       1       0       0       0       0       001010000D     77
     124    1000       0       3       0                               0D     78
     100     100       1       0       0       0      77       000010000D     79
     100    1000       0       1       0                               0D     80
     124     101       1       0       0       0       0       001010000D     81
     124    1000       0       3       0                               0D     82
     100     104       1       0       0       0      81       000010000D     83
     100    1000       0       2       0                               0D     84
     124     106       1       0       0       0       0       001010000D     85
     124    1000       0       2       0                               0D     86
     100     108       1       0       0       0      85       000010000D     87
     100    1000       0       1       0                               0D     88
     124     109       1       0       0       0       0       001010000D     89
     124    1000       0       3       0                               0D     90
     100     112       1       0       0       0      89       000010000D     91
     100    1000       0       2       0                               0D     92
     124     114       1       0       0       0       0       001010000D     93
     124    1000       0       2       0                               0D     94
     100     116       1       0       0       0      93       000010000D     95
     100    1000       0       2       0                               0D     96
     124     118       1       0       0       0       0       001010000D     97
     124    1000       0       3       0                               0D     98
     100     121       1       0       0       0      97       000010000D     99
     100    1000       0       2       0                               0D    100
     124     123       1       0       0       0       0       001010000D    101
     124    1000       0       3       0                               0D    102
     100     126       1       0       0       0     101       000010000D    103
     100    1000       0       2       0                               0D    104
     124     128       1       0       0       0       0       001010000D    105
     124    1000       0       2       0                               0D    106
     100     130       1       0       0       0     105       000010000D    107
     100    1000       0       2       0                               0D    108
     124     132       1       0       0       0       0       001010000D    109
     124    1000       0       2       0                               0D    110
     100     134       1       0       0       0     109       000010000D    111
     100    1000       0       2       0                               0D    112
     124     136       1       0       0       0       0       001010000D    113
     124    1000       0       3       0                               0D    114
     100     139       1       0       0       0     113       000010000D    115
     100    1000       0       2       0                               0D    116
     124     141       1       0       0       0       0       001010000D    117
     124    1000       0       2       0                               0D    118
     100     143       1       0       0       0     117       000010000D    119
     100    1000       0       2       0                               0D    120
     124     145       1       0       0       0       0       001010000D    121
     124    1000       0       2       0                               0D    122
     100     147       1       0       0       0     121       000010000D    123
     100    1000       0       2       0                               0D    124
     124     149       1       0       0       0       0       001010000D    125
     124    1000       0       3       0                               0D    126
     100     152       1       0       0       0     125       000010000D    127
     100    1000       0       1       0                               0D    128
     124     153       1       0       0       0       0       001010000D    129
     124    1000       0       3       0                               0D    130
     100     156       1       0       0       0     129       000010000D    131
     100    1000       0       1       0                               0D    132
     124     157       1       0       0       0       0       001010000D    133
     124    1000       0       2       0                               0D    134
     100     159       1       0       0       0     133       000010000D    135
     100    1000       0       1       0                               0D    136
     124     160       1       0       0       0       0       001010000D    137
     124    1000       0       2       0                               0D    138
     100     162       1       0       0       0     137       000010000D    139
     100    1000       0       1       0                               0D    140
     504     163       1       0   65535       0       0       000010001D    141
     504    1000       0       8       1                Rear ret       0D    142
     406     171       1       0       0       0       0       000010001D    143
     406    1000       0       1      15                               0D    144
     314     172       1       0       0       0       0       000020000D    145
     314    1000       0       2       0                               0D    146
     116     174       1       0       0       0       0       000010200D    147
     116    1000       0       2       0                               0D    148
     123     176       1       0       0       0       0       000010200D    149
     123    1000       0       1       0                               0D    150
     123     177       1       0       0       0       0       000010200D    151
     123    1000       0       1       0                               0D    152
     192     178       1       0       0       0       0       000010000D    153
     192    1000    -145       1       1                               0D    154
     508     179       1       0       0       0       0       000010001D    155
     508    1000       0       2       1                               0D    156
     510     181       1       1       0       0       0       000010001D    157
     510    1000    -145       1       1                               0D    158
     116     182       1       0       0       0       0       000010200D    159
     116    1000       0       1       0                               0D    160
     123     183       1       0       0       0       0       000010200D    161
     123    1000       0       1       0                               0D    162
     123     184       1       0       0       0       0       000010200D    163
     123    1000       0       1       0                               0D    164
     192     185       1       0       0       0       0       000010000D    165
     192    1000    -145       1       1                               0D    166
     508     186       1       0       0       0       0       000010001D    167
     508    1000       0       2       1                               0D    168
     510     188       1       1       0       0       0       000010001D    169
     510    1000    -145       1       1                               0D    170
     116     189       1       0       0       0       0       000010200D    171
     116    1000       0       2       0                               0D    172
     123     191       1       0       0       0       0       000010200D    173
     123    1000       0       1       0                               0D    174
     123     192       1       0       0       0       0       000010200D    175
     123    1000       0       1       0                               0D    176
     190     193       1       0       0       0       0       000010000D    177
     190    1000    -145       1       1                               0D    178
     508     194       1       0       0       0       0       000010001D    179
     508    1000       0       1       1                               0D    180
     508     195       1       0       0       0       0       000010001D    181
     508    1000       0       1       1                               0D    182
     510     196       1       1       0       0       0       000010001D    183
     510    1000    -145       1       1                               0D    184
     116     197       1       0       0       0       0       000010200D    185
     116    1000       0       2       0                               0D    186
     123     199       1       0       0       0       0       000010200D    187
     123    1000       0       1       0                               0D    188
     123     200       1       0       0       0       0       000010200D    189
     123    1000       0       1       0                               0D    190
     190     201       1       0       0       0       0       000010000D    191
     190    1000    -145       1       1                               0D    192
     508     202       1       0       0       0       0       000010001D    193
     508    1000       0       1       1                               0D    194
     508     203       1       0       0       0       0       000010001D    195
     508    1000       0       1       1                               0D    196
     510     204       1       1       0       0       0       000010001D    197
     510    1000    -145       1       1                               0D    198
     110     205       1       0       0       0       0       000010200D    199
     110    1000       0       2       0                               0D    200
     124     207       1       0       0       0       0       001010200D    201
     124    1000       0       2       0                               0D    202
     100     209       1       0       0       0     201       000010200D    203
     100    1000       0       1       0                               0D    204
     120     210       1       0       0       0       0       000010000D    205
     120    1000    -145       1       0                               0D    206
     508     211       1       0       0       0       0       000010001D    207
     508    1000       0       2       1                               0D    208
     510     213       1       1       0       0       0       000010001D    209
     510    1000    -145       1       1                               0D    210
     110     214       1       0       0       0       0       000010200D    211
     110    1000       0       2       0                               0D    212
     124     216       1       0       0       0       0       001010200D    213
     124    1000       0       2       0                               0D    214
     100     218       1       0       0       0     213       000010200D    215
     100    1000       0       1       0                               0D    216
     120     219       1       0       0       0       0       000010000D    217
     120    1000    -145       1       0                               0D    218
     508     220       1       0       0       0       0       000010001D    219
     508    1000       0       2       1                               0D    220
     510     222       1       1       0       0       0       000010001D    221
     510    1000    -145       1       1                               0D    222
     110     223       1       0       0       0       0       000010200D    223
     110    1000       0       2       0                               0D    224
     124     225       1       0       0       0       0       001010200D    225
     124    1000       0       2       0                               0D    226
     100     227       1       0       0       0     225       000010200D    227
     100    1000       0       1       0                               0D    228
     120     228       1       0       0       0       0       000010000D    229
     120    1000    -145       1       0                               0D    230
     508     229       1       0       0       0       0       000010001D    231
     508    1000       0       2       1                               0D    232
     510     231       1       1       0       0       0       000010001D    233
     510    1000    -145       1       1                               0D    234
     110     232       1       0       0       0       0       000010200D    235
     110    1000       0       2       0                               0D    236
     124     234       1       0       0       0       0       001010200D    237
     124    1000       0       2       0                               0D    238
     100     236       1       0       0       0     237       000010200D    239
     100    1000       0       1       0                               0D    240
     120     237       1       0       0       0       0       000010000D    241
     120    1000    -145       1       0                               0D    242
     508     238       1       0       0       0       0       000010001D    243
     508    1000       0       2       1                               0D    244
     510     240       1       1       0       0       0       000010001D    245
     510    1000    -145       1       1                               0D    246
     116     241       1       0       0       0       0       000010200D    247
     116    1000       0       2       0                               0D    248
     123     243       1       0       0       0       0       000010200D    249
     123    1000       0       1       0                               0D    250
     123     244       1       0       0       0       0       000010200D    251
     123    1000       0       1       0                               0D    252
     192     245       1       0       0       0       0       000010000D    253
     192    1000    -145       1       1                               0D    254
     508     246       1       0       0       0       0       000010001D    255
     508    1000       0       2       1                               0D    256
     510     248       1       1       0       0       0       000010001D    257
     510    1000    -145       1       1                               0D    258
     116     249       1       0       0       0       0       000010200D    259
     116    1000       0       1       0                               0D    260
     123     250       1       0       0       0       0       000010200D    261
     123    1000       0       1       0                               0D    262
     123     251       1       0       0       0       0       000010200D    263
     123    1000       0       1       0                               0D    264
     192     252       1       0       0       0       0       000010000D    265
     192    1000    -145       1       1                               0D    266
     508     253       1       0       0       0       0       000010001D    267
     508    1000       0       2       1                               0D    268
     510     255       1       1       0       0       0       000010001D    269
     510    1000    -145       1       1                               0D    270
     110     256       1       0       0       0       0       000010200D    271
     110    1000       0       2       0                               0D    272
     124     258       1       0       0       0       0       001010200D    273
     124    1000       0       2       0                               0D    274
     100     260       1       0       0       0     273       000010200D    275
     100    1000       0       1       0                               0D    276
     120     261       1       0       0       0       0       000010000D    277
     120    1000    -145       1       0                               0D    278
     508     262       1       0       0       0       0       000010001D    279
     508    1000       0       2       1                               0D    280
     510     264       1       1       0       0       0       000010001D    281
     510    1000    -145       1       1                               0D    282
     110     265       1       0       0       0       0       000010200D    283
     110    1000       0       2       0                               0D    284
     124     267       1       0       0       0       0       001010200D    285
     124    1000       0       2       0                               0D    286
     100     269       1       0       0       0     285       000010200D    287
     100    1000       0       1       0                               0D    288
     120     270       1       0       0       0       0       000010000D    289
     120    1000    -145       1       0                               0D    290
     508     271       1       0       0       0       0       000010001D    291
     508    1000       0       2       1                               0D    292
     510     273       1       1       0       0       0       000010001D    293
     510    1000    -145       1       1                               0D    294
     110     274       1       0       0       0       0       000010200D    295
     110    1000       0       2       0                               0D    296
     124     276       1       0       0       0       0       001010200D    297
     124    1000       0       2       0                               0D    298
     100     278       1       0       0       0     297       000010200D    299
     100    1000       0       1       0                               0D    300
     120     279       1       0       0       0       0       000010000D    301
     120    1000    -145       1       0                               0D    302
     508     280       1       0       0       0       0       000010001D    303
     508    1000       0       2       1                               0D    304
     510     282       1       1       0       0       0       000010001D    305
     510    1000    -145       1       1                               0D    306
     110     283       1       0       0       0       0       000010200D    307
     110    1000       0       2       0                               0D    308
     124     285       1       0       0       0       0       001010200D    309
     124    1000       0       2       0                               0D    310
     100     287       1       0       0       0     309       000010200D    311
     100    1000       0       1       0                               0D    312
     120     288       1       0       0       0       0       000010000D    313
     120    1000    -145       1       0                               0D    314
     508     289       1       0       0       0       0       000010001D    315
     508    1000       0       2       1                               0D    316
     510     291       1       1       0       0       0       000010001D    317
     510    1000    -145       1       1                               0D    318
     514     292       1       0       0       0       0       000010000D    319
     514    1000       0       2       1                               0D    320
     186     294       1       0   65535       0       0       000000001D    321
     186    1000       0       1       0                Rear ret       0D    322
     406     295       1       0       0       0       0       000010000D    323
     406    1000       0       1      15                               0D    324
502,24,-2.35,20.2657297760248,1.67260605182914D-15,-2.35,              1P      1
14.0657297760248,1.29296554409346D-15,3.18408167778312D-16,            1P      2
14.0657297760248,2.35,2.35,14.0657297760248,                           1P      3
7.17381548494207D-16,2.35,20.2657297760248,1.09702205622989D-15,       1P      4
3.18408167778312D-16,20.2657297760248,2.35,-1.5,                       1P      5
20.2657297760248,1.51646358493785D-15,-1.5,14.0657297760248,           1P      6
1.13682307720218D-15,1.83697019872103D-16,20.2657297760248,1.5,        1P      7
1.5,20.2657297760248,1.14906954519365D-15,1.5,14.0657297760248,        1P      8
7.69429037457969D-16,1.83697019872103D-16,14.0657297760248,1.5,        1P      9
-1.8982025386784D-16,14.0157297760248,-1.55,1.8982025386784D-16,       1P     10
14.0157297760248,1.55,-2.51052593825207D-16,14.0157297760248,          1P     11
-2.3,3.12284933782575D-16,14.0157297760248,2.3,                        1P     12
-1.8982025386784D-16,20.3157297760248,-1.55,1.8982025386784D-16,       1P     13
20.3157297760248,1.55,-2.51052593825207D-16,20.3157297760248,          1P     14
-2.3,3.12284933782575D-16,20.3157297760248,2.3,                        1P     15
-2.57175827820944D-16,14.0657297760248,-2.35,                          1P     16
-2.57175827820944D-16,20.2657297760248,-2.35,                          1P     17
-1.83697019872103D-16,20.2657297760248,-1.5,                           1P     18
-1.83697019872103D-16,14.0657297760248,-1.5,0,1,3;                     1P     19
406,1,13HRear retainer,0,0;                                            3P     20
110,-2.35,20.2657297760248,9.53126057330072D-16,-2.35,                 5P     21
14.0657297760248,5.73485549594393D-16,0,0;                             5P     22
124,0.,1.,-0.,3.06161699786838D-17,-6.12323399573677D-17,0.,1.,        7P     23
14.0657297760248,1.,0.,6.12323399573677D-17,                           7P     24
8.61277547394021D-16,0,0;                                              7P     25
100,0.,0.,0.,4.31687996699442D-16,-2.35,2.35,                          9P     26
2.87791997799628D-16,0,0;                                              9P     27
124,0.,1.,-0.,3.06161699786838D-17,-6.12323399573677D-17,0.,1.,       11P     28
14.0657297760248,1.,0.,6.12323399573677D-17,                          11P     29
8.61277547394021D-16,0,0;                                             11P     30
100,0.,0.,0.,2.35,2.87791997799628D-16,-1.43895998899814D-16,         13P     31
2.35,0,0;                                                             13P     32
110,2.35,20.2657297760248,1.2409180551297D-15,2.35,                   15P     33
14.0657297760248,8.61277547394021D-16,0,0;                            15P     34
124,0.,1.,0.,3.06161699786838D-17,6.12323399573677D-17,0.,-1.,        17P     35
20.2657297760248,-1.,0.,-6.12323399573677D-17,                        17P     36
1.2409180551297D-15,0,0;                                              17P     37
100,0.,0.,0.,1.43895998899814D-16,2.35,-2.35,                         19P     38
2.87791997799628D-16,0,0;                                             19P     39
124,0.,1.,0.,3.06161699786838D-17,6.12323399573677D-17,0.,-1.,        21P     40
20.2657297760248,-1.,0.,-6.12323399573677D-17,                        21P     41
1.2409180551297D-15,0,0;                                              21P     42
100,0.,0.,0.,-2.35,2.87791997799628D-16,-4.31687996699442D-16,        23P     43
-2.35,0,0;                                                            23P     44
110,-1.5,20.2657297760248,1.0572210352576D-15,-1.5,                   25P     45
14.0657297760248,6.77580527521918D-16,0,0;                            25P     46
124,0.,1.,-0.,0.,-6.12323399573677D-17,0.,1.,20.2657297760248,        27P     47
1.,0.,6.12323399573677D-17,1.2409180551297D-15,0,0;                   27P     48
100,0.,0.,0.,2.75545529808154D-16,-1.5,1.5,1.83697019872103D-16,      29P     49
0,0;                                                                  29P     50
124,0.,1.,-0.,0.,-6.12323399573677D-17,0.,1.,20.2657297760248,        31P     51
1.,0.,6.12323399573677D-17,1.2409180551297D-15,0,0;                   31P     52
100,0.,0.,0.,1.5,1.83697019872103D-16,-9.18485099360515D-17,1.5,      33P     53
0,0;                                                                  33P     54
110,1.5,20.2657297760248,1.2409180551297D-15,1.5,                     35P     55
14.0657297760248,8.61277547394021D-16,0,0;                            35P     56
124,0.,1.,0.,0.,6.12323399573677D-17,0.,-1.,14.0657297760248,         37P     57
-1.,0.,-6.12323399573677D-17,8.61277547394021D-16,0,0;                37P     58
100,0.,0.,0.,9.18485099360515D-17,1.5,-1.5,1.83697019872103D-16,      39P     59
0,0;                                                                  39P     60
124,0.,1.,0.,0.,6.12323399573677D-17,0.,-1.,14.0657297760248,         41P     61
-1.,0.,-6.12323399573677D-17,8.61277547394021D-16,0,0;                41P     62
100,0.,0.,0.,-1.5,1.83697019872103D-16,-2.75545529808154D-16,         43P     63
-1.5,0,0;                                                             43P     64
124,0.,1.,-0.,0.,-6.12323399573677D-17,0.,1.,14.0157297760248,        45P     65
1.,0.,6.12323399573677D-17,8.58215930396152D-16,0,0;                  45P     66
100,0.,0.,0.,-1.55,-3.79640507735679D-16,1.55,                        47P     67
1.8982025386784D-16,0,0;                                              47P     68
124,0.,1.,-0.,0.,-6.12323399573677D-17,0.,1.,14.0157297760248,        49P     69
1.,0.,6.12323399573677D-17,8.58215930396152D-16,0,0;                  49P     70
100,0.,0.,0.,1.55,1.8982025386784D-16,-1.55,0.,0,0;                   51P     71
124,0.,1.,0.,3.06161699786838D-17,6.12323399573677D-17,0.,-1.,        53P     72
14.0157297760248,-1.,0.,-6.12323399573677D-17,                        53P     73
8.58215930396152D-16,0,0;                                             53P     74
100,0.,0.,0.,2.3,0.,-2.3,2.81668763803891D-16,0,0;                    55P     75
124,0.,1.,0.,3.06161699786838D-17,6.12323399573677D-17,0.,-1.,        57P     76
14.0157297760248,-1.,0.,-6.12323399573677D-17,                        57P     77
8.58215930396152D-16,0,0;                                             57P     78
100,0.,0.,0.,-2.3,2.81668763803891D-16,2.3,                           59P     79
-5.63337527607782D-16,0,0;                                            59P     80
124,0.,1.,0.,0.,6.12323399573677D-17,0.,-1.,20.3157297760248,         61P     81
-1.,0.,-6.12323399573677D-17,1.24397967212757D-15,0,0;                61P     82
100,0.,0.,0.,1.55,0.,-1.55,1.8982025386784D-16,0,0;                   63P     83
124,0.,1.,0.,0.,6.12323399573677D-17,0.,-1.,20.3157297760248,         65P     84
-1.,0.,-6.12323399573677D-17,1.24397967212757D-15,0,0;                65P     85
100,0.,0.,0.,-1.55,1.8982025386784D-16,1.55,                          67P     86
-3.79640507735679D-16,0,0;                                            67P     87
124,0.,1.,-0.,3.06161699786838D-17,-6.12323399573677D-17,0.,1.,       69P     88
20.3157297760248,1.,0.,6.12323399573677D-17,                          69P     89
1.24397967212757D-15,0,0;                                             69P     90
100,0.,0.,0.,-2.3,-5.63337527607782D-16,2.3,                          71P     91
2.81668763803891D-16,0,0;                                             71P     92
124,0.,1.,-0.,3.06161699786838D-17,-6.12323399573677D-17,0.,1.,       73P     93
20.3157297760248,1.,0.,6.12323399573677D-17,                          73P     94
1.24397967212757D-15,0,0;                                             73P     95
100,0.,0.,0.,2.3,2.81668763803891D-16,-2.3,0.,0,0;                    75P     96
124,-1.22464679914735D-16,0.,-1.,3.12284933782575D-16,                77P     97
6.12323399573677D-17,-1.,-7.49879891330929D-33,14.0657297760248,      77P     98
-1.,-6.12323399573677D-17,1.22464679914735D-16,2.3,0,0;               77P     99
100,0.,0.,0.,3.18903060143427D-16,0.05,-0.05,0.,0,0;                  79P    100
124,0.,1.,-0.,3.06161699786838D-17,-6.12323399573677D-17,0.,1.,       81P    101
14.0657297760248,1.,0.,6.12323399573677D-17,                          81P    102
8.61277547394021D-16,0,0;                                             81P    103
100,0.,0.,0.,-2.35,-5.75583995599256D-16,4.31687996699442D-16,        83P    104
-2.35,0,0;                                                            83P    105
124,0.,0.,1.,3.06161699786838D-17,-6.12323399573677D-17,-1.,0.,       85P    106
14.0657297760248,1.,-6.12323399573677D-17,0.,-2.3,0,0;                85P    107
100,0.,0.,0.,-3.06161699786838D-18,0.05,-0.05,0.,0,0;                 87P    108
124,-1.22464679914735D-16,0.,-1.,3.12284933782575D-16,                89P    109
6.12323399573677D-17,-1.,-7.49879891330929D-33,20.2657297760248,      89P    110
-1.,-6.12323399573677D-17,1.22464679914735D-16,2.3,0,0;               89P    111
100,0.,0.,0.,-0.05,-1.22464679914735D-17,9.18485099360515D-18,        91P    112
-0.05,0,0;                                                            91P    113
124,0.,0.,1.,3.06161699786838D-17,-6.12323399573677D-17,-1.,0.,       93P    114
20.2657297760248,1.,-6.12323399573677D-17,0.,-2.3,0,0;                93P    115
100,0.,0.,0.,-0.05,-1.22464679914735D-17,9.18485099360515D-18,        95P    116
-0.05,0,0;                                                            95P    117
124,0.,1.,0.,3.06161699786838D-17,6.12323399573677D-17,0.,-1.,        97P    118
20.2657297760248,-1.,0.,-6.12323399573677D-17,                        97P    119
1.2409180551297D-15,0,0;                                              97P    120
100,0.,0.,0.,-4.31687996699442D-16,-2.35,2.35,                        99P    121
-5.75583995599256D-16,0,0;                                            99P    122
124,-1.22464679914735D-16,0.,-1.,1.8982025386784D-16,                101P    123
6.12323399573677D-17,-1.,-7.49879891330929D-33,20.2657297760248,     101P    124
-1.,-6.12323399573677D-17,1.22464679914735D-16,1.55,0,0;             101P    125
100,0.,0.,0.,-2.12859753931426D-16,-0.05,0.05,                       103P    126
6.12323399573677D-18,0,0;                                            103P    127
124,0.,1.,-0.,0.,-6.12323399573677D-17,0.,1.,20.2657297760248,       105P    128
1.,0.,6.12323399573677D-17,1.2409180551297D-15,0,0;                  105P    129
100,0.,0.,0.,-1.5,-3.67394039744206D-16,2.75545529808154D-16,        107P    130
-1.5,0,0;                                                            107P    131
124,0.,0.,1.,0.,-6.12323399573677D-17,-1.,0.,20.2657297760248,       109P    132
1.,-6.12323399573677D-17,0.,-1.55,0,0;                               109P    133
100,0.,0.,0.,9.18485099360515D-18,-0.05,0.05,                        111P    134
9.49410759657493D-17,0,0;                                            111P    135
124,-1.22464679914735D-16,0.,-1.,1.8982025386784D-16,                113P    136
6.12323399573677D-17,-1.,-7.49879891330929D-33,14.0657297760248,     113P    137
-1.,-6.12323399573677D-17,1.22464679914735D-16,1.55,0,0;             113P    138
100,0.,0.,0.,0.05,6.12323399573677D-18,-4.74705379828746D-17,        115P    139
0.05,0,0;                                                            115P    140
124,0.,0.,1.,0.,-6.12323399573677D-17,-1.,0.,14.0657297760248,       117P    141
1.,-6.12323399573677D-17,0.,-1.55,0,0;                               117P    142
100,0.,0.,0.,0.05,9.49410759657493D-17,-3.06161699786838D-18,        119P    143
0.05,0,0;                                                            119P    144
124,0.,1.,0.,0.,6.12323399573677D-17,0.,-1.,14.0657297760248,        121P    145
-1.,0.,-6.12323399573677D-17,8.61277547394021D-16,0,0;               121P    146
100,0.,0.,0.,-2.75545529808154D-16,-1.5,1.5,                         123P    147
-3.67394039744206D-16,0,0;                                           123P    148
124,0.,1.,0.,3.06161699786838D-17,6.12323399573677D-17,0.,-1.,       125P    149
20.2657297760248,-1.,0.,-6.12323399573677D-17,                       125P    150
1.2409180551297D-15,0,0;                                             125P    151
100,0.,0.,0.,2.35,0.,1.43895998899814D-16,2.35,0,0;                  127P    152
124,0.,1.,-0.,3.06161699786838D-17,-6.12323399573677D-17,0.,1.,      129P    153
14.0657297760248,1.,0.,6.12323399573677D-17,                         129P    154
8.61277547394021D-16,0,0;                                            129P    155
100,0.,0.,0.,-1.43895998899814D-16,2.35,-2.35,0.,0,0;                131P    156
124,0.,1.,0.,0.,6.12323399573677D-17,0.,-1.,14.0657297760248,        133P    157
-1.,0.,-6.12323399573677D-17,8.61277547394021D-16,0,0;               133P    158
100,0.,0.,0.,1.5,0.,9.18485099360515D-17,1.5,0,0;                    135P    159
124,0.,1.,-0.,0.,-6.12323399573677D-17,0.,1.,20.2657297760248,       137P    160
1.,0.,6.12323399573677D-17,1.2409180551297D-15,0,0;                  137P    161
100,0.,0.,0.,-9.18485099360515D-17,1.5,-1.5,0.,0,0;                  139P    162
504,36,5,1,1,1,2,9,1,2,1,3,13,1,3,1,4,15,1,5,1,4,19,1,5,1,6,23,      141P    163
1,6,1,1,25,1,7,1,8,29,1,7,1,9,33,1,9,1,10,35,1,10,1,11,39,1,11,      141P    164
1,12,43,1,12,1,8,47,1,13,1,14,51,1,14,1,13,55,1,15,1,16,59,1,16,     141P    165
1,15,63,1,17,1,18,67,1,18,1,17,71,1,19,1,20,75,1,20,1,19,79,1,       141P    166
16,1,3,83,1,21,1,2,87,1,15,1,21,91,1,6,1,20,95,1,22,1,19,99,1,1,     141P    167
1,22,103,1,18,1,9,107,1,23,1,7,111,1,17,1,23,115,1,12,1,14,119,      141P    168
1,24,1,13,123,1,8,1,24,127,1,22,1,5,131,1,4,1,21,135,1,24,1,11,      141P    169
139,1,10,1,23,0,1,143;                                               141P    170
406,1,13HRear retainer,0,0;                                          143P    171
314,49.4117660522461,49.4117660522461,52.5490226745605,5HCOLOR,      145P    172
0,0;                                                                 145P    173
116,3.06161699786838D-17,14.0157297760248,8.58215930396152D-16,      147P    174
0,0,0;                                                               147P    175
123,-0.,1.,6.12323399573677D-17,0,0,0;                               149P    176
123,1.,0.,0.,0,0,0;                                                  151P    177
192,147,149,2.35,151,0,0;                                            153P    178
508,6,0,141,1,1,0,0,141,2,1,0,0,141,3,1,0,0,141,4,0,0,0,141,5,1,     155P    179
0,0,141,6,1,0,0,0;                                                   155P    180
510,153,1,1,155,0,0;                                                 157P    181
116,0.,14.0157297760248,8.58215930396152D-16,0,0,0;                  159P    182
123,-0.,1.,6.12323399573677D-17,0,0,0;                               161P    183
123,1.,0.,0.,0,0,0;                                                  163P    184
192,159,161,1.5,163,0,0;                                             165P    185
508,6,0,141,12,0,0,0,141,11,0,0,0,141,10,0,0,0,141,9,0,0,0,141,      167P    186
8,0,0,0,141,7,1,0,0,0;                                               167P    187
510,165,1,1,167,0,0;                                                 169P    188
116,3.33059212593142D-17,14.0157297760248,8.58215930396152D-16,      171P    189
0,0,0;                                                               171P    190
123,0.,-1.,-6.12323399573677D-17,0,0,0;                              173P    191
123,0.,6.12323399573677D-17,-1.,0,0,0;                               175P    192
190,171,173,175,0,0;                                                 177P    193
508,2,0,141,13,1,0,0,141,14,1,0,0,0;                                 179P    194
508,2,0,141,15,1,0,0,141,16,1,0,0,0;                                 181P    195
510,177,2,1,181,179,0,0;                                             183P    196
116,3.33059212593142D-17,20.3157297760248,1.24397967212757D-15,      185P    197
0,0,0;                                                               185P    198
123,0.,-1.,-6.12323399573677D-17,0,0,0;                              187P    199
123,0.,6.12323399573677D-17,-1.,0,0,0;                               189P    200
190,185,187,189,0,0;                                                 191P    201
508,2,0,141,18,0,0,0,141,17,0,0,0,0;                                 193P    202
508,2,0,141,20,0,0,0,141,19,0,0,0,0;                                 195P    203
510,191,2,1,195,193,0,0;                                             197P    204
110,3.06161699786838D-17,14.0657297760248,8.61277547394021D-16,      199P    205
3.06161699786838D-17,13.0657297760248,8.00045207436653D-16,0,0;      199P    206
124,0.,-0.,-1.,3.06161699786838D-17,6.12323399573677D-17,-1.,0.,     201P    207
14.0657297760248,-1.,-6.12323399573677D-17,0.,-2.3,0,0;              201P    208
100,0.,0.,0.,0.05,0.,0.05,-1.22464679914735D-17,0,0;                 203P    209
120,199,203,0.,6.28318530717959,0,0;                                 205P    210
508,5,0,141,16,1,0,0,141,23,1,0,0,141,22,1,0,0,141,2,1,0,0,141,      207P    211
21,0,0,0,0;                                                          207P    212
510,205,1,1,207,0,0;                                                 209P    213
110,3.06161699786838D-17,20.2657297760248,1.2409180551297D-15,       211P    214
3.06161699786838D-17,19.2657297760248,1.17968571517233D-15,0,0;      211P    215
124,0.,-0.,-1.,3.06161699786838D-17,6.12323399573677D-17,-1.,0.,     213P    216
20.2657297760248,-1.,-6.12323399573677D-17,0.,-2.3,0,0;              213P    217
100,0.,0.,0.,0.05,0.,0.05,-1.22464679914735D-17,0,0;                 215P    218
120,211,215,0.,6.28318530717959,0,0;                                 217P    219
508,5,0,141,6,1,0,0,141,26,1,0,0,141,25,1,0,0,141,19,1,0,0,141,      219P    220
24,0,0,0,0;                                                          219P    221
510,217,1,1,219,0,0;                                                 221P    222
110,0.,20.2657297760248,1.2409180551297D-15,0.,19.2657297760248,     223P    223
1.17968571517233D-15,0,0;                                            223P    224
124,0.,-0.,-1.,0.,6.12323399573677D-17,-1.,0.,20.2657297760248,      225P    225
-1.,-6.12323399573677D-17,0.,-1.55,0,0;                              225P    226
100,0.,0.,0.,0.05,0.,0.05,-1.22464679914735D-17,0,0;                 227P    227
120,223,227,0.,6.28318530717959,0,0;                                 229P    228
508,5,0,141,18,1,0,0,141,29,1,0,0,141,28,1,0,0,141,8,1,0,0,141,      231P    229
27,0,0,0,0;                                                          231P    230
510,229,1,1,231,0,0;                                                 233P    231
110,0.,14.0657297760248,8.61277547394021D-16,0.,                     235P    232
13.0657297760248,8.00045207436653D-16,0,0;                           235P    233
124,0.,-0.,-1.,0.,6.12323399573677D-17,-1.,0.,14.0657297760248,      237P    234
-1.,-6.12323399573677D-17,0.,-1.55,0,0;                              237P    235
100,0.,0.,0.,0.05,0.,0.05,-1.22464679914735D-17,0,0;                 239P    236
120,235,239,0.,6.28318530717959,0,0;                                 241P    237
508,5,0,141,12,1,0,0,141,32,1,0,0,141,31,1,0,0,141,13,1,0,0,141,     243P    238
30,0,0,0,0;                                                          243P    239
510,241,1,1,243,0,0;                                                 245P    240
116,3.06161699786838D-17,14.0157297760248,8.58215930396152D-16,      247P    241
0,0,0;                                                               247P    242
123,-0.,1.,6.12323399573677D-17,0,0,0;                               249P    243
123,1.,0.,0.,0,0,0;                                                  251P    244
192,247,249,2.35,251,0,0;                                            253P    245
508,6,0,141,1,0,0,0,141,26,1,0,0,141,33,1,0,0,141,4,1,0,0,141,       255P    246
34,1,0,0,141,22,1,0,0,0;                                             255P    247
510,253,1,1,255,0,0;                                                 257P    248
116,0.,14.0157297760248,8.58215930396152D-16,0,0,0;                  259P    249
123,-0.,1.,6.12323399573677D-17,0,0,0;                               261P    250
123,1.,0.,0.,0,0,0;                                                  263P    251
192,259,261,1.5,263,0,0;                                             265P    252
508,6,0,141,28,0,0,0,141,36,0,0,0,141,10,1,0,0,141,35,0,0,0,141,     267P    253
32,0,0,0,141,7,0,0,0,0;                                              267P    254
510,265,1,1,267,0,0;                                                 269P    255
110,3.06161699786838D-17,14.0657297760248,8.61277547394021D-16,      271P    256
3.06161699786838D-17,13.0657297760248,8.00045207436653D-16,0,0;      271P    257
124,0.,-0.,-1.,3.06161699786838D-17,6.12323399573677D-17,-1.,0.,     273P    258
14.0657297760248,-1.,-6.12323399573677D-17,0.,-2.3,0,0;              273P    259
100,0.,0.,0.,0.05,0.,0.05,-1.22464679914735D-17,0,0;                 275P    260
120,271,275,0.,6.28318530717959,0,0;                                 277P    261
508,5,0,141,3,1,0,0,141,34,1,0,0,141,23,0,0,0,141,15,1,0,0,141,      279P    262
21,1,0,0,0;                                                          279P    263
510,277,1,1,279,0,0;                                                 281P    264
110,3.06161699786838D-17,20.2657297760248,1.2409180551297D-15,       283P    265
3.06161699786838D-17,19.2657297760248,1.17968571517233D-15,0,0;      283P    266
124,0.,-0.,-1.,3.06161699786838D-17,6.12323399573677D-17,-1.,0.,     285P    267
20.2657297760248,-1.,-6.12323399573677D-17,0.,-2.3,0,0;              285P    268
100,0.,0.,0.,0.05,0.,0.05,-1.22464679914735D-17,0,0;                 287P    269
120,283,287,0.,6.28318530717959,0,0;                                 289P    270
508,5,0,141,20,1,0,0,141,25,0,0,0,141,33,1,0,0,141,5,1,0,0,141,      291P    271
24,1,0,0,0;                                                          291P    272
510,289,1,1,291,0,0;                                                 293P    273
110,0.,20.2657297760248,1.2409180551297D-15,0.,19.2657297760248,     295P    274
1.17968571517233D-15,0,0;                                            295P    275
124,0.,-0.,-1.,0.,6.12323399573677D-17,-1.,0.,20.2657297760248,      297P    276
-1.,-6.12323399573677D-17,0.,-1.55,0,0;                              297P    277
100,0.,0.,0.,0.05,0.,0.05,-1.22464679914735D-17,0,0;                 299P    278
120,295,299,0.,6.28318530717959,0,0;                                 301P    279
508,5,0,141,9,1,0,0,141,36,1,0,0,141,29,0,0,0,141,17,1,0,0,141,      303P    280
27,1,0,0,0;                                                          303P    281
510,301,1,1,303,0,0;                                                 305P    282
110,0.,14.0657297760248,8.61277547394021D-16,0.,                     307P    283
13.0657297760248,8.00045207436653D-16,0,0;                           307P    284
124,0.,-0.,-1.,0.,6.12323399573677D-17,-1.,0.,14.0657297760248,      309P    285
-1.,-6.12323399573677D-17,0.,-1.55,0,0;                              309P    286
100,0.,0.,0.,0.05,0.,0.05,-1.22464679914735D-17,0,0;                 311P    287
120,307,311,0.,6.28318530717959,0,0;                                 313P    288
508,5,0,141,14,1,0,0,141,31,0,0,0,141,35,1,0,0,141,11,1,0,0,141,     315P    289
30,1,0,0,0;                                                          315P    290
510,313,1,1,315,0,0;                                                 317P    291
514,14,157,1,169,0,183,1,197,0,209,0,221,0,233,0,245,0,257,1,        319P    292
269,0,281,0,293,0,305,0,317,0,0,0;                                   319P    293
186,319,1,0;0,1,323;                                                 321P    294
406,1,13HRear retainer,0,0;                                          323P    295
S      3G      6D    324P    295                                        T      1
