                                                                        S      1
File generated by Shapr3D Version 3.0                                   S      2
                                                                        S      3
1H,,1H;,118HC:\Users\jonat\AppData\Local\Packages\Shapr3D.Shapr3D_dvv5p1G      1
vgwv6mp\TempState\0197f527-0e95-42d5-97f9-6bcd2524af65.tmp,11Htemp_exporG      2
t,7HShapr3D,3H3.0,32,24,8,56,15,118HC:\Users\jonat\AppData\Local\PackageG      3
s\Shapr3D.Shapr3D_dvv5p1vgwv6mp\TempState\0197f527-0e95-42d5-97f9-6bcd25G      4
24af65.tmp,1.,2,2HMM,1000,1.,13H221207.162141,1D-05,1000000.,,,9,0,13H22G      5
1207.162141;                                                            G      6
     502       1       1       0   65535       0       0       000010001D      1
     502    1000       0      18       1                  Spacer       0D      2
     124      19       1       0       0       0       0       001010000D      3
     124    1000       0       2       0                               0D      4
     100      21       1       0       0       0       3       000010000D      5
     100    1000       0       2       0                               0D      6
     124      23       1       0       0       0       0       001010000D      7
     124    1000       0       2       0                               0D      8
     100      25       1       0       0       0       7       000010000D      9
     100    1000       0       1       0                               0D     10
     124      26       1       0       0       0       0       001010000D     11
     124    1000       0       3       0                               0D     12
     100      29       1       0       0       0      11       000010000D     13
     100    1000       0       1       0                               0D     14
     124      30       1       0       0       0       0       001010000D     15
     124    1000       0       3       0                               0D     16
     100      33       1       0       0       0      15       000010000D     17
     100    1000       0       2       0                               0D     18
     110      35       1       0       0       0       0       000010000D     19
     110    1000       0       2       0                               0D     20
     124      37       1       0       0       0       0       001010000D     21
     124    1000       0       3       0                               0D     22
     100      40       1       0       0       0      21       000010000D     23
     100    1000       0       1       0                               0D     24
     124      41       1       0       0       0       0       001010000D     25
     124    1000       0       3       0                               0D     26
     100      44       1       0       0       0      25       000010000D     27
     100    1000       0       2       0                               0D     28
     110      46       1       0       0       0       0       000010000D     29
     110    1000       0       2       0                               0D     30
     124      48       1       0       0       0       0       001010000D     31
     124    1000       0       3       0                               0D     32
     100      51       1       0       0       0      31       000010000D     33
     100    1000       0       2       0                               0D     34
     124      53       1       0       0       0       0       001010000D     35
     124    1000       0       3       0                               0D     36
     100      56       1       0       0       0      35       000010000D     37
     100    1000       0       1       0                               0D     38
     124      57       1       0       0       0       0       001010000D     39
     124    1000       0       2       0                               0D     40
     100      59       1       0       0       0      39       000010000D     41
     100    1000       0       1       0                               0D     42
     124      60       1       0       0       0       0       001010000D     43
     124    1000       0       2       0                               0D     44
     100      62       1       0       0       0      43       000010000D     45
     100    1000       0       2       0                               0D     46
     124      64       1       0       0       0       0       001010000D     47
     124    1000       0       3       0                               0D     48
     100      67       1       0       0       0      47       000010000D     49
     100    1000       0       2       0                               0D     50
     124      69       1       0       0       0       0       001010000D     51
     124    1000       0       3       0                               0D     52
     100      72       1       0       0       0      51       000010000D     53
     100    1000       0       1       0                               0D     54
     110      73       1       0       0       0       0       000010000D     55
     110    1000       0       2       0                               0D     56
     124      75       1       0       0       0       0       001010000D     57
     124    1000       0       2       0                               0D     58
     100      77       1       0       0       0      57       000010000D     59
     100    1000       0       1       0                               0D     60
     124      78       1       0       0       0       0       001010000D     61
     124    1000       0       2       0                               0D     62
     100      80       1       0       0       0      61       000010000D     63
     100    1000       0       2       0                               0D     64
     110      82       1       0       0       0       0       000010000D     65
     110    1000       0       2       0                               0D     66
     124      84       1       0       0       0       0       001010000D     67
     124    1000       0       2       0                               0D     68
     100      86       1       0       0       0      67       000010000D     69
     100    1000       0       2       0                               0D     70
     124      88       1       0       0       0       0       001010000D     71
     124    1000       0       2       0                               0D     72
     100      90       1       0       0       0      71       000010000D     73
     100    1000       0       1       0                               0D     74
     124      91       1       0       0       0       0       001010000D     75
     124    1000       0       3       0                               0D     76
     100      94       1       0       0       0      75       000010000D     77
     100    1000       0       2       0                               0D     78
     124      96       1       0       0       0       0       001010000D     79
     124    1000       0       2       0                               0D     80
     100      98       1       0       0       0      79       000010000D     81
     100    1000       0       2       0                               0D     82
     124     100       1       0       0       0       0       001010000D     83
     124    1000       0       3       0                               0D     84
     100     103       1       0       0       0      83       000010000D     85
     100    1000       0       2       0                               0D     86
     124     105       1       0       0       0       0       001010000D     87
     124    1000       0       3       0                               0D     88
     100     108       1       0       0       0      87       000010000D     89
     100    1000       0       1       0                               0D     90
     124     109       1       0       0       0       0       001010000D     91
     124    1000       0       3       0                               0D     92
     100     112       1       0       0       0      91       000010000D     93
     100    1000       0       2       0                               0D     94
     124     114       1       0       0       0       0       001010000D     95
     124    1000       0       2       0                               0D     96
     100     116       1       0       0       0      95       000010000D     97
     100    1000       0       1       0                               0D     98
     124     117       1       0       0       0       0       001010000D     99
     124    1000       0       3       0                               0D    100
     100     120       1       0       0       0      99       000010000D    101
     100    1000       0       2       0                               0D    102
     124     122       1       0       0       0       0       001010000D    103
     124    1000       0       2       0                               0D    104
     100     124       1       0       0       0     103       000010000D    105
     100    1000       0       2       0                               0D    106
     124     126       1       0       0       0       0       001010000D    107
     124    1000       0       2       0                               0D    108
     100     128       1       0       0       0     107       000010000D    109
     100    1000       0       2       0                               0D    110
     124     130       1       0       0       0       0       001010000D    111
     124    1000       0       3       0                               0D    112
     100     133       1       0       0       0     111       000010000D    113
     100    1000       0       2       0                               0D    114
     124     135       1       0       0       0       0       001010000D    115
     124    1000       0       2       0                               0D    116
     100     137       1       0       0       0     115       000010000D    117
     100    1000       0       2       0                               0D    118
     124     139       1       0       0       0       0       001010000D    119
     124    1000       0       2       0                               0D    120
     100     141       1       0       0       0     119       000010000D    121
     100    1000       0       2       0                               0D    122
     124     143       1       0       0       0       0       001010000D    123
     124    1000       0       3       0                               0D    124
     100     146       1       0       0       0     123       000010000D    125
     100    1000       0       2       0                               0D    126
     124     148       1       0       0       0       0       001010000D    127
     124    1000       0       3       0                               0D    128
     100     151       1       0       0       0     127       000010000D    129
     100    1000       0       2       0                               0D    130
     124     153       1       0       0       0       0       001010000D    131
     124    1000       0       2       0                               0D    132
     100     155       1       0       0       0     131       000010000D    133
     100    1000       0       2       0                               0D    134
     124     157       1       0       0       0       0       001010000D    135
     124    1000       0       2       0                               0D    136
     100     159       1       0       0       0     135       000010000D    137
     100    1000       0       2       0                               0D    138
     504     161       1       0   65535       0       0       000010001D    139
     504    1000       0       8       1                  Spacer       0D    140
     314     169       1       0       0       0       0       000020000D    141
     314    1000       0       2       0                               0D    142
     116     171       1       0       0       0       0       000010200D    143
     116    1000       0       2       0                               0D    144
     123     173       1       0       0       0       0       000010200D    145
     123    1000       0       1       0                               0D    146
     123     174       1       0       0       0       0       000010200D    147
     123    1000       0       1       0                               0D    148
     190     175       1       0       0       0       0       000010000D    149
     190    1000    -141       1       1                               0D    150
     508     176       1       0       0       0       0       000010001D    151
     508    1000       0       1       1                               0D    152
     508     177       1       0       0       0       0       000010001D    153
     508    1000       0       1       1                               0D    154
     510     178       1       1       0       0       0       000010001D    155
     510    1000    -141       1       1                               0D    156
     116     179       1       0       0       0       0       000010200D    157
     116    1000       0       2       0                               0D    158
     123     181       1       0       0       0       0       000010200D    159
     123    1000       0       1       0                               0D    160
     123     182       1       0       0       0       0       000010200D    161
     123    1000       0       1       0                               0D    162
     192     183       1       0       0       0       0       000010000D    163
     192    1000    -141       1       1                               0D    164
     508     184       1       0       0       0       0       000010001D    165
     508    1000       0       2       1                               0D    166
     510     186       1       1       0       0       0       000010001D    167
     510    1000    -141       1       1                               0D    168
     116     187       1       0       0       0       0       000010200D    169
     116    1000       0       2       0                               0D    170
     123     189       1       0       0       0       0       000010200D    171
     123    1000       0       1       0                               0D    172
     123     190       1       0       0       0       0       000010200D    173
     123    1000       0       1       0                               0D    174
     190     191       1       0       0       0       0       000010000D    175
     190    1000    -141       1       1                               0D    176
     508     192       1       0       0       0       0       000010001D    177
     508    1000       0       1       1                               0D    178
     508     193       1       0       0       0       0       000010001D    179
     508    1000       0       1       1                               0D    180
     510     194       1       1       0       0       0       000010001D    181
     510    1000    -141       1       1                               0D    182
     116     195       1       0       0       0       0       000010200D    183
     116    1000       0       1       0                               0D    184
     123     196       1       0       0       0       0       000010200D    185
     123    1000       0       1       0                               0D    186
     123     197       1       0       0       0       0       000010200D    187
     123    1000       0       1       0                               0D    188
     192     198       1       0       0       0       0       000010000D    189
     192    1000    -141       1       1                               0D    190
     508     199       1       0       0       0       0       000010001D    191
     508    1000       0       2       1                               0D    192
     510     201       1       1       0       0       0       000010001D    193
     510    1000    -141       1       1                               0D    194
     110     202       1       0       0       0       0       000010200D    195
     110    1000       0       2       0                               0D    196
     124     204       1       0       0       0       0       001010200D    197
     124    1000       0       2       0                               0D    198
     100     206       1       0       0       0     197       000010200D    199
     100    1000       0       1       0                               0D    200
     120     207       1       0       0       0       0       000010000D    201
     120    1000    -141       1       0                               0D    202
     508     208       1       0       0       0       0       000010001D    203
     508    1000       0       2       1                               0D    204
     510     210       1       1       0       0       0       000010001D    205
     510    1000    -141       1       1                               0D    206
     110     211       1       0       0       0       0       000010200D    207
     110    1000       0       2       0                               0D    208
     124     213       1       0       0       0       0       001010200D    209
     124    1000       0       2       0                               0D    210
     100     215       1       0       0       0     209       000010200D    211
     100    1000       0       1       0                               0D    212
     120     216       1       0       0       0       0       000010000D    213
     120    1000    -141       1       0                               0D    214
     508     217       1       0       0       0       0       000010001D    215
     508    1000       0       2       1                               0D    216
     510     219       1       1       0       0       0       000010001D    217
     510    1000    -141       1       1                               0D    218
     110     220       1       0       0       0       0       000010200D    219
     110    1000       0       2       0                               0D    220
     124     222       1       0       0       0       0       001010200D    221
     124    1000       0       2       0                               0D    222
     100     224       1       0       0       0     221       000010200D    223
     100    1000       0       1       0                               0D    224
     120     225       1       0       0       0       0       000010000D    225
     120    1000    -141       1       0                               0D    226
     508     226       1       0       0       0       0       000010001D    227
     508    1000       0       2       1                               0D    228
     510     228       1       1       0       0       0       000010001D    229
     510    1000    -141       1       1                               0D    230
     110     229       1       0       0       0       0       000010200D    231
     110    1000       0       2       0                               0D    232
     124     231       1       0       0       0       0       001010200D    233
     124    1000       0       2       0                               0D    234
     100     233       1       0       0       0     233       000010200D    235
     100    1000       0       1       0                               0D    236
     120     234       1       0       0       0       0       000010000D    237
     120    1000    -141       1       0                               0D    238
     508     235       1       0       0       0       0       000010001D    239
     508    1000       0       2       1                               0D    240
     510     237       1       1       0       0       0       000010001D    241
     510    1000    -141       1       1                               0D    242
     116     238       1       0       0       0       0       000010200D    243
     116    1000       0       2       0                               0D    244
     123     240       1       0       0       0       0       000010200D    245
     123    1000       0       1       0                               0D    246
     123     241       1       0       0       0       0       000010200D    247
     123    1000       0       1       0                               0D    248
     192     242       1       0       0       0       0       000010000D    249
     192    1000    -141       1       1                               0D    250
     508     243       1       0       0       0       0       000010001D    251
     508    1000       0       2       1                               0D    252
     510     245       1       1       0       0       0       000010001D    253
     510    1000    -141       1       1                               0D    254
     116     246       1       0       0       0       0       000010200D    255
     116    1000       0       1       0                               0D    256
     123     247       1       0       0       0       0       000010200D    257
     123    1000       0       1       0                               0D    258
     123     248       1       0       0       0       0       000010200D    259
     123    1000       0       1       0                               0D    260
     192     249       1       0       0       0       0       000010000D    261
     192    1000    -141       1       1                               0D    262
     508     250       1       0       0       0       0       000010001D    263
     508    1000       0       2       1                               0D    264
     510     252       1       1       0       0       0       000010001D    265
     510    1000    -141       1       1                               0D    266
     110     253       1       0       0       0       0       000010200D    267
     110    1000       0       2       0                               0D    268
     124     255       1       0       0       0       0       001010200D    269
     124    1000       0       2       0                               0D    270
     100     257       1       0       0       0     269       000010200D    271
     100    1000       0       1       0                               0D    272
     120     258       1       0       0       0       0       000010000D    273
     120    1000    -141       1       0                               0D    274
     508     259       1       0       0       0       0       000010001D    275
     508    1000       0       2       1                               0D    276
     510     261       1       1       0       0       0       000010001D    277
     510    1000    -141       1       1                               0D    278
     110     262       1       0       0       0       0       000010200D    279
     110    1000       0       2       0                               0D    280
     124     264       1       0       0       0       0       001010200D    281
     124    1000       0       2       0                               0D    282
     100     266       1       0       0       0     281       000010200D    283
     100    1000       0       1       0                               0D    284
     120     267       1       0       0       0       0       000010000D    285
     120    1000    -141       1       0                               0D    286
     508     268       1       0       0       0       0       000010001D    287
     508    1000       0       2       1                               0D    288
     510     270       1       1       0       0       0       000010001D    289
     510    1000    -141       1       1                               0D    290
     110     271       1       0       0       0       0       000010200D    291
     110    1000       0       2       0                               0D    292
     124     273       1       0       0       0       0       001010200D    293
     124    1000       0       2       0                               0D    294
     100     275       1       0       0       0     293       000010200D    295
     100    1000       0       1       0                               0D    296
     120     276       1       0       0       0       0       000010000D    297
     120    1000    -141       1       0                               0D    298
     508     277       1       0       0       0       0       000010001D    299
     508    1000       0       2       1                               0D    300
     510     279       1       1       0       0       0       000010001D    301
     510    1000    -141       1       1                               0D    302
     110     280       1       0       0       0       0       000010200D    303
     110    1000       0       2       0                               0D    304
     124     282       1       0       0       0       0       001010200D    305
     124    1000       0       2       0                               0D    306
     100     284       1       0       0       0     305       000010200D    307
     100    1000       0       1       0                               0D    308
     120     285       1       0       0       0       0       000010000D    309
     120    1000    -141       1       0                               0D    310
     508     286       1       0       0       0       0       000010001D    311
     508    1000       0       2       1                               0D    312
     510     288       1       1       0       0       0       000010001D    313
     510    1000    -141       1       1                               0D    314
     514     289       1       0       0       0       0       000010000D    315
     514    1000       0       2       1                               0D    316
     186     291       1       0   65535       0       0       000000001D    317
     186    1000       0       1       0                  Spacer       0D    318
502,24,-1.8982025386784D-16,8.23392697196454,1.55,                     1P      1
1.8982025386784D-16,8.23392697196454,-1.55,                            1P      2
-2.92690584996217D-16,8.23392697196454,1.95,1.8492166667125D-16,       1P      3
8.23392697196454,-1.95,2.,3.59392697196454,3.42529238044021D-16,       1P      4
2.,8.18392697196454,6.23585678448338D-16,-2.98813818991954D-16,        1P      5
8.18392697196454,2.,-2.,8.18392697196454,1.33726958789397D-16,         1P      6
-2.,3.59392697196454,-1.4732948161492D-16,-2.98813818991954D-16,       1P      7
3.59392697196454,2.,-1.8982025386784D-16,3.54392697196454,1.55,        1P      8
1.8982025386784D-16,3.54392697196454,-1.55,                            1P      9
-2.92690584996217D-16,3.54392697196454,1.95,1.8492166667125D-16,       1P     10
3.54392697196454,-1.95,1.5,3.59392697196454,                           1P     11
3.11913068065337D-16,1.5,8.18392697196454,5.92969508469655D-16,        1P     12
-1.83697019872103D-16,3.59392697196454,1.5,-1.5,                       1P     13
3.59392697196454,-5.54809716788689D-17,-1.5,8.18392697196454,          1P     14
2.25575468725449D-16,-1.83697019872103D-16,8.18392697196454,1.5,       1P     15
1.91044900666987D-16,3.59392697196454,-2.,1.91044900666987D-16,        1P     16
8.18392697196454,-2.,1.83697019872103D-16,3.59392697196454,-1.5,       1P     17
1.83697019872103D-16,8.18392697196454,-1.5,0,0;                        1P     18
124,0.,1.,0.,0.,6.12323399573677D-17,0.,-1.,8.23392697196454,          3P     19
-1.,0.,-6.12323399573677D-17,5.04182615531471D-16,0,0;                 3P     20
100,0.,0.,0.,-1.55,-3.79640507735679D-16,1.55,                         5P     21
1.8982025386784D-16,0,0;                                               5P     22
124,0.,1.,0.,0.,6.12323399573677D-17,0.,-1.,8.23392697196454,          7P     23
-1.,0.,-6.12323399573677D-17,5.04182615531471D-16,0,0;                 7P     24
100,0.,0.,0.,1.55,1.8982025386784D-16,-1.55,0.,0,0;                    9P     25
124,0.,1.,0.,-5.38844591624835D-17,-6.12323399573677D-17,0.,1.,       11P     26
8.23392697196454,1.,-0.,6.12323399573677D-17,                         11P     27
5.04182615531471D-16,0,0;                                             11P     28
100,0.,0.,0.,1.95,0.,-1.95,2.38806125833734D-16,0,0;                  13P     29
124,0.,1.,0.,-5.38844591624835D-17,-6.12323399573677D-17,0.,1.,       15P     30
8.23392697196454,1.,-0.,6.12323399573677D-17,                         15P     31
5.04182615531471D-16,0,0;                                             15P     32
100,0.,0.,0.,-1.95,2.38806125833734D-16,1.95,                         17P     33
-4.77612251667468D-16,0,0;                                            17P     34
110,2.,3.59392697196454,-2.4864801700185D-17,2.,                      19P     35
8.18392697196454,2.56191638704132D-16,0,0;                            19P     36
124,0.,1.,0.,-5.38844591624835D-17,6.12323399573677D-17,0.,-1.,       21P     37
8.18392697196454,-1.,0.,-6.12323399573677D-17,                        21P     38
5.01120998533603D-16,0,0;                                             21P     39
100,0.,0.,0.,-1.22464679914735D-16,2.,-2.,0.,0,0;                     23P     40
124,0.,1.,0.,-5.38844591624835D-17,6.12323399573677D-17,0.,-1.,       25P     41
8.18392697196454,-1.,0.,-6.12323399573677D-17,                        25P     42
5.01120998533603D-16,0,0;                                             25P     43
100,0.,0.,0.,-2.,-4.89858719658941D-16,3.67394039744206D-16,-2.,      27P     44
0,0;                                                                  27P     45
110,-2.,3.59392697196454,2.20064558129286D-16,-2.,                    29P     46
8.18392697196454,5.01120998533603D-16,0,0;                            29P     47
124,0.,1.,0.,-5.38844591624835D-17,-6.12323399573677D-17,0.,1.,       31P     48
3.59392697196454,1.,-0.,6.12323399573677D-17,                         31P     49
2.20064558129286D-16,0,0;                                             31P     50
100,0.,0.,0.,-3.67394039744206D-16,-2.,2.,-4.89858719658941D-16,      33P     51
0,0;                                                                  33P     52
124,0.,1.,0.,-5.38844591624835D-17,-6.12323399573677D-17,0.,1.,       35P     53
3.59392697196454,1.,-0.,6.12323399573677D-17,                         35P     54
2.20064558129286D-16,0,0;                                             35P     55
100,0.,0.,0.,2.,0.,1.22464679914735D-16,2.,0,0;                       37P     56
124,0.,1.,0.,0.,-6.12323399573677D-17,0.,1.,3.54392697196454,1.,      39P     57
-0.,6.12323399573677D-17,2.17002941131417D-16,0,0;                    39P     58
100,0.,0.,0.,1.55,0.,-1.55,1.8982025386784D-16,0,0;                   41P     59
124,0.,1.,0.,0.,-6.12323399573677D-17,0.,1.,3.54392697196454,1.,      43P     60
-0.,6.12323399573677D-17,2.17002941131417D-16,0,0;                    43P     61
100,0.,0.,0.,-1.55,1.8982025386784D-16,1.55,                          45P     62
-3.79640507735679D-16,0,0;                                            45P     63
124,0.,1.,0.,-5.38844591624835D-17,6.12323399573677D-17,0.,-1.,       47P     64
3.54392697196454,-1.,0.,-6.12323399573677D-17,                        47P     65
2.17002941131417D-16,0,0;                                             47P     66
100,0.,0.,0.,-1.95,-4.77612251667468D-16,1.95,                        49P     67
2.38806125833734D-16,0,0;                                             49P     68
124,0.,1.,0.,-5.38844591624835D-17,6.12323399573677D-17,0.,-1.,       51P     69
3.54392697196454,-1.,0.,-6.12323399573677D-17,                        51P     70
2.17002941131417D-16,0,0;                                             51P     71
100,0.,0.,0.,1.95,2.38806125833734D-16,-1.95,0.,0,0;                  53P     72
110,1.5,3.59392697196454,3.63675382571827D-17,1.5,                    55P     73
8.18392697196454,3.174239786615D-16,0,0;                              55P     74
124,0.,1.,0.,0.,6.12323399573677D-17,0.,-1.,3.59392697196454,         57P     75
-1.,0.,-6.12323399573677D-17,2.20064558129286D-16,0,0;                57P     76
100,0.,0.,0.,-9.18485099360515D-17,1.5,-1.5,0.,0,0;                   59P     77
124,0.,1.,0.,0.,6.12323399573677D-17,0.,-1.,3.59392697196454,         61P     78
-1.,0.,-6.12323399573677D-17,2.20064558129286D-16,0,0;                61P     79
100,0.,0.,0.,-1.5,-3.67394039744206D-16,2.75545529808154D-16,         63P     80
-1.5,0,0;                                                             63P     81
110,-1.5,3.59392697196454,2.20064558129286D-16,-1.5,                  65P     82
8.18392697196454,5.01120998533603D-16,0,0;                            65P     83
124,0.,1.,0.,0.,-6.12323399573677D-17,0.,1.,8.18392697196454,1.,      67P     84
-0.,6.12323399573677D-17,5.01120998533603D-16,0,0;                    67P     85
100,0.,0.,0.,-2.75545529808154D-16,-1.5,1.5,                          69P     86
-3.67394039744206D-16,0,0;                                            69P     87
124,0.,1.,0.,0.,-6.12323399573677D-17,0.,1.,8.18392697196454,1.,      71P     88
-0.,6.12323399573677D-17,5.01120998533603D-16,0,0;                    71P     89
100,0.,0.,0.,1.5,0.,9.18485099360515D-17,1.5,0,0;                     73P     90
124,-1.22464679914735D-16,0.,-1.,1.8492166667125D-16,                 75P     91
-6.12323399573677D-17,1.,7.49879891330929D-33,3.59392697196454,       75P     92
1.,6.12323399573677D-17,-1.22464679914735D-16,-1.95,0,0;              75P     93
100,0.,0.,0.,-0.05,-1.22464679914735D-17,9.18485099360515D-18,        77P     94
-0.05,0,0;                                                            77P     95
124,0.,0.,1.,-5.38844591624835D-17,6.12323399573677D-17,1.,-0.,       79P     96
3.59392697196454,-1.,6.12323399573677D-17,0.,1.95,0,0;                79P     97
100,0.,0.,0.,-0.05,-1.22464679914735D-17,9.18485099360515D-18,        81P     98
-0.05,0,0;                                                            81P     99
124,0.,1.,0.,-5.38844591624835D-17,-6.12323399573677D-17,0.,1.,       83P    100
3.59392697196454,1.,-0.,6.12323399573677D-17,                         83P    101
2.20064558129286D-16,0,0;                                             83P    102
100,0.,0.,0.,-2.,2.44929359829471D-16,-3.67394039744206D-16,-2.,      85P    103
0,0;                                                                  85P    104
124,-1.22464679914735D-16,0.,-1.,1.8492166667125D-16,                 87P    105
-6.12323399573677D-17,1.,7.49879891330929D-33,8.18392697196454,       87P    106
1.,6.12323399573677D-17,-1.22464679914735D-16,-1.95,0,0;              87P    107
100,0.,0.,0.,-4.74705379828746D-17,0.05,-0.05,0.,0,0;                 89P    108
124,0.,1.,0.,-5.38844591624835D-17,6.12323399573677D-17,0.,-1.,       91P    109
8.18392697196454,-1.,0.,-6.12323399573677D-17,                        91P    110
5.01120998533603D-16,0,0;                                             91P    111
100,0.,0.,0.,3.67394039744206D-16,-2.,2.,2.44929359829471D-16,0,      93P    112
0;                                                                    93P    113
124,0.,0.,1.,-5.38844591624835D-17,6.12323399573677D-17,1.,-0.,       95P    114
8.18392697196454,-1.,6.12323399573677D-17,0.,1.95,0,0;                95P    115
100,0.,0.,0.,-3.06161699786838D-18,0.05,-0.05,0.,0,0;                 97P    116
124,-1.22464679914735D-16,0.,-1.,1.8982025386784D-16,                 99P    117
-6.12323399573677D-17,1.,7.49879891330929D-33,3.59392697196454,       99P    118
1.,6.12323399573677D-17,-1.22464679914735D-16,-1.55,0,0;              99P    119
100,0.,0.,0.,-2.12859753931426D-16,-0.05,0.05,                       101P    120
-3.04739212899307D-16,0,0;                                           101P    121
124,0.,1.,0.,0.,6.12323399573677D-17,0.,-1.,3.59392697196454,        103P    122
-1.,0.,-6.12323399573677D-17,2.20064558129286D-16,0,0;               103P    123
100,0.,0.,0.,2.75545529808154D-16,-1.5,1.5,1.83697019872103D-16,     105P    124
0,0;                                                                 105P    125
124,0.,0.,1.,0.,6.12323399573677D-17,1.,-0.,3.59392697196454,        107P    126
-1.,6.12323399573677D-17,0.,1.55,0,0;                                107P    127
100,0.,0.,0.,9.18485099360515D-18,-0.05,0.05,                        109P    128
9.49410759657493D-17,0,0;                                            109P    129
124,-1.22464679914735D-16,0.,-1.,1.8982025386784D-16,                111P    130
-6.12323399573677D-17,1.,7.49879891330929D-33,8.18392697196454,      111P    131
1.,6.12323399573677D-17,-1.22464679914735D-16,-1.55,0,0;             111P    132
100,0.,0.,0.,0.05,6.12323399573677D-18,-4.74705379828746D-17,        113P    133
0.05,0,0;                                                            113P    134
124,0.,0.,1.,0.,6.12323399573677D-17,1.,-0.,8.18392697196454,        115P    135
-1.,6.12323399573677D-17,0.,1.55,0,0;                                115P    136
100,0.,0.,0.,0.05,9.49410759657493D-17,-3.06161699786838D-18,        117P    137
0.05,0,0;                                                            117P    138
124,0.,1.,0.,0.,-6.12323399573677D-17,0.,1.,8.18392697196454,1.,     119P    139
-0.,6.12323399573677D-17,5.01120998533603D-16,0,0;                   119P    140
100,0.,0.,0.,-1.5,1.83697019872103D-16,-2.75545529808154D-16,        121P    141
-1.5,0,0;                                                            121P    142
124,0.,1.,0.,-5.38844591624835D-17,-6.12323399573677D-17,0.,1.,      123P    143
3.59392697196454,1.,-0.,6.12323399573677D-17,                        123P    144
2.20064558129286D-16,0,0;                                            123P    145
100,0.,0.,0.,1.22464679914735D-16,2.,-2.,2.44929359829471D-16,0,     125P    146
0;                                                                   125P    147
124,0.,1.,0.,-5.38844591624835D-17,6.12323399573677D-17,0.,-1.,      127P    148
8.18392697196454,-1.,0.,-6.12323399573677D-17,                       127P    149
5.01120998533603D-16,0,0;                                            127P    150
100,0.,0.,0.,2.,2.44929359829471D-16,-1.22464679914735D-16,2.,0,     129P    151
0;                                                                   129P    152
124,0.,1.,0.,0.,-6.12323399573677D-17,0.,1.,8.18392697196454,1.,     131P    153
-0.,6.12323399573677D-17,5.01120998533603D-16,0,0;                   131P    154
100,0.,0.,0.,9.18485099360515D-17,1.5,-1.5,1.83697019872103D-16,     133P    155
0,0;                                                                 133P    156
124,0.,1.,0.,0.,6.12323399573677D-17,0.,-1.,3.59392697196454,        135P    157
-1.,0.,-6.12323399573677D-17,2.20064558129286D-16,0,0;               135P    158
100,0.,0.,0.,1.5,1.83697019872103D-16,-9.18485099360515D-17,1.5,     137P    159
0,0;                                                                 137P    160
504,36,5,1,1,1,2,9,1,2,1,1,13,1,3,1,4,17,1,4,1,3,19,1,5,1,6,23,      139P    161
1,6,1,7,27,1,7,1,8,29,1,9,1,8,33,1,9,1,10,37,1,10,1,5,41,1,11,1,     139P    162
12,45,1,12,1,11,49,1,13,1,14,53,1,14,1,13,55,1,15,1,16,59,1,15,      139P    163
1,17,63,1,17,1,18,65,1,18,1,19,69,1,19,1,20,73,1,20,1,16,77,1,       139P    164
21,1,14,81,1,10,1,13,85,1,21,1,9,89,1,4,1,22,93,1,8,1,22,97,1,3,     139P    165
1,7,101,1,12,1,23,105,1,18,1,23,109,1,11,1,17,113,1,24,1,2,117,      139P    166
1,20,1,1,121,1,24,1,19,125,1,5,1,21,129,1,22,1,6,133,1,16,1,24,      139P    167
137,1,23,1,15,0,0;                                                   139P    168
314,49.4117660522461,49.4117660522461,52.5490226745605,5HCOLOR,      141P    169
0,0;                                                                 141P    170
116,2.17002941131417D-16,8.23392697196454,5.04182615531471D-16,      143P    171
0,0,0;                                                               143P    172
123,0.,1.,6.12323399573677D-17,0,0,0;                                145P    173
123,0.,6.12323399573677D-17,-1.,0,0,0;                               147P    174
190,143,145,147,0,0;                                                 149P    175
508,2,0,139,1,1,0,0,139,2,1,0,0,0;                                   151P    176
508,2,0,139,3,1,0,0,139,4,1,0,0,0;                                   153P    177
510,149,2,1,153,151,0,0;                                             155P    178
116,-5.38844591624835D-17,8.23392697196454,5.04182615531471D-16,     157P    179
0,0,0;                                                               157P    180
123,-0.,-1.,-6.12323399573677D-17,0,0,0;                             159P    181
123,-1.,0.,0.,0,0,0;                                                 161P    182
192,157,159,2.,161,0,0;                                              163P    183
508,6,0,139,5,1,0,0,139,6,1,0,0,139,7,1,0,0,139,8,0,0,0,139,9,1,     165P    184
0,0,139,10,1,0,0,0;                                                  165P    185
510,163,1,1,165,0,0;                                                 167P    186
116,2.17002941131417D-16,3.54392697196454,2.17002941131417D-16,      169P    187
0,0,0;                                                               169P    188
123,0.,1.,6.12323399573677D-17,0,0,0;                                171P    189
123,0.,6.12323399573677D-17,-1.,0,0,0;                               173P    190
190,169,171,173,0,0;                                                 175P    191
508,2,0,139,12,0,0,0,139,11,0,0,0,0;                                 177P    192
508,2,0,139,14,0,0,0,139,13,0,0,0,0;                                 179P    193
510,175,2,1,179,177,0,0;                                             181P    194
116,0.,8.23392697196454,5.04182615531471D-16,0,0,0;                  183P    195
123,-0.,-1.,-6.12323399573677D-17,0,0,0;                             185P    196
123,-1.,0.,0.,0,0,0;                                                 187P    197
192,183,185,1.5,187,0,0;                                             189P    198
508,6,0,139,20,0,0,0,139,19,0,0,0,139,18,0,0,0,139,17,0,0,0,139,     191P    199
16,0,0,0,139,15,1,0,0,0;                                             191P    200
510,189,1,1,191,0,0;                                                 193P    201
110,-5.38844591624835D-17,3.59392697196454,2.20064558129286D-16,     195P    202
-5.38844591624835D-17,4.59392697196454,2.81296898086653D-16,0,0;     195P    203
124,0.,0.,-1.,-5.38844591624835D-17,-6.12323399573677D-17,1.,0.,     197P    204
3.59392697196454,1.,6.12323399573677D-17,0.,1.95,0,0;                197P    205
100,0.,0.,0.,0.05,0.,0.05,-1.22464679914735D-17,0,0;                 199P    206
120,195,199,0.,6.28318530717959,0,0;                                 201P    207
508,5,0,139,23,1,0,0,139,9,1,0,0,139,22,1,0,0,139,13,1,0,0,139,      203P    208
21,0,0,0,0;                                                          203P    209
510,201,1,1,203,0,0;                                                 205P    210
110,-5.38844591624835D-17,8.18392697196454,5.01120998533603D-16,     207P    211
-5.38844591624835D-17,9.18392697196454,5.62353338490971D-16,0,0;     207P    212
124,0.,0.,-1.,-5.38844591624835D-17,-6.12323399573677D-17,1.,0.,     209P    213
8.18392697196454,1.,6.12323399573677D-17,0.,1.95,0,0;                209P    214
100,0.,0.,0.,0.05,0.,0.05,-1.22464679914735D-17,0,0;                 211P    215
120,207,211,0.,6.28318530717959,0,0;                                 213P    216
508,5,0,139,4,1,0,0,139,26,1,0,0,139,7,1,0,0,139,25,1,0,0,139,       215P    217
24,0,0,0,0;                                                          215P    218
510,213,1,1,215,0,0;                                                 217P    219
110,0.,3.59392697196454,2.20064558129286D-16,0.,                     219P    220
4.59392697196454,2.81296898086653D-16,0,0;                           219P    221
124,0.,0.,-1.,0.,-6.12323399573677D-17,1.,0.,3.59392697196454,       221P    222
1.,6.12323399573677D-17,0.,1.55,0,0;                                 221P    223
100,0.,0.,0.,0.05,0.,0.05,-1.22464679914735D-17,0,0;                 223P    224
120,219,223,0.,6.28318530717959,0,0;                                 225P    225
508,5,0,139,12,1,0,0,139,29,1,0,0,139,17,1,0,0,139,28,1,0,0,139,     227P    226
27,0,0,0,0;                                                          227P    227
510,225,1,1,227,0,0;                                                 229P    228
110,0.,8.18392697196454,5.01120998533603D-16,0.,                     231P    229
9.18392697196454,5.62353338490971D-16,0,0;                           231P    230
124,0.,0.,-1.,0.,-6.12323399573677D-17,1.,0.,8.18392697196454,       233P    231
1.,6.12323399573677D-17,0.,1.55,0,0;                                 233P    232
100,0.,0.,0.,0.05,0.,0.05,-1.22464679914735D-17,0,0;                 235P    233
120,231,235,0.,6.28318530717959,0,0;                                 237P    234
508,5,0,139,32,1,0,0,139,19,1,0,0,139,31,1,0,0,139,1,1,0,0,139,      239P    235
30,0,0,0,0;                                                          239P    236
510,237,1,1,239,0,0;                                                 241P    237
116,-5.38844591624835D-17,8.23392697196454,5.04182615531471D-16,     243P    238
0,0,0;                                                               243P    239
123,-0.,-1.,-6.12323399573677D-17,0,0,0;                             245P    240
123,-1.,0.,0.,0,0,0;                                                 247P    241
192,243,245,2.,247,0,0;                                              249P    242
508,6,0,139,5,0,0,0,139,33,1,0,0,139,23,1,0,0,139,8,1,0,0,139,       251P    243
25,1,0,0,139,34,1,0,0,0;                                             251P    244
510,249,1,1,251,0,0;                                                 253P    245
116,0.,8.23392697196454,5.04182615531471D-16,0,0,0;                  255P    246
123,-0.,-1.,-6.12323399573677D-17,0,0,0;                             257P    247
123,-1.,0.,0.,0,0,0;                                                 259P    248
192,255,257,1.5,259,0,0;                                             261P    249
508,6,0,139,36,0,0,0,139,28,0,0,0,139,18,1,0,0,139,32,0,0,0,139,     263P    250
35,0,0,0,139,15,0,0,0,0;                                             263P    251
510,261,1,1,263,0,0;                                                 265P    252
110,-5.38844591624835D-17,3.59392697196454,2.20064558129286D-16,     267P    253
-5.38844591624835D-17,4.59392697196454,2.81296898086653D-16,0,0;     267P    254
124,0.,0.,-1.,-5.38844591624835D-17,-6.12323399573677D-17,1.,0.,     269P    255
3.59392697196454,1.,6.12323399573677D-17,0.,1.95,0,0;                269P    256
100,0.,0.,0.,0.05,0.,0.05,-1.22464679914735D-17,0,0;                 271P    257
120,267,271,0.,6.28318530717959,0,0;                                 273P    258
508,5,0,139,14,1,0,0,139,22,0,0,0,139,10,1,0,0,139,33,1,0,0,139,     275P    259
21,1,0,0,0;                                                          275P    260
510,273,1,1,275,0,0;                                                 277P    261
110,-5.38844591624835D-17,8.18392697196454,5.01120998533603D-16,     279P    262
-5.38844591624835D-17,9.18392697196454,5.62353338490971D-16,0,0;     279P    263
124,0.,0.,-1.,-5.38844591624835D-17,-6.12323399573677D-17,1.,0.,     281P    264
8.18392697196454,1.,6.12323399573677D-17,0.,1.95,0,0;                281P    265
100,0.,0.,0.,0.05,0.,0.05,-1.22464679914735D-17,0,0;                 283P    266
120,279,283,0.,6.28318530717959,0,0;                                 285P    267
508,5,0,139,34,1,0,0,139,6,1,0,0,139,26,0,0,0,139,3,1,0,0,139,       287P    268
24,1,0,0,0;                                                          287P    269
510,285,1,1,287,0,0;                                                 289P    270
110,0.,3.59392697196454,2.20064558129286D-16,0.,                     291P    271
4.59392697196454,2.81296898086653D-16,0,0;                           291P    272
124,0.,0.,-1.,0.,-6.12323399573677D-17,1.,0.,3.59392697196454,       293P    273
1.,6.12323399573677D-17,0.,1.55,0,0;                                 293P    274
100,0.,0.,0.,0.05,0.,0.05,-1.22464679914735D-17,0,0;                 295P    275
120,291,295,0.,6.28318530717959,0,0;                                 297P    276
508,5,0,139,36,1,0,0,139,16,1,0,0,139,29,0,0,0,139,11,1,0,0,139,     299P    277
27,1,0,0,0;                                                          299P    278
510,297,1,1,299,0,0;                                                 301P    279
110,0.,8.18392697196454,5.01120998533603D-16,0.,                     303P    280
9.18392697196454,5.62353338490971D-16,0,0;                           303P    281
124,0.,0.,-1.,0.,-6.12323399573677D-17,1.,0.,8.18392697196454,       305P    282
1.,6.12323399573677D-17,0.,1.55,0,0;                                 305P    283
100,0.,0.,0.,0.05,0.,0.05,-1.22464679914735D-17,0,0;                 307P    284
120,303,307,0.,6.28318530717959,0,0;                                 309P    285
508,5,0,139,2,1,0,0,139,31,0,0,0,139,20,1,0,0,139,35,1,0,0,139,      311P    286
30,1,0,0,0;                                                          311P    287
510,309,1,1,311,0,0;                                                 313P    288
514,14,155,1,167,1,181,0,193,0,205,0,217,0,229,0,241,0,253,1,        315P    289
265,0,277,0,289,0,301,0,313,0,0,0;                                   315P    290
186,315,1,0;0,0;                                                     317P    291
S      3G      6D    318P    291                                        T      1
