                                                                        S      1
File generated by Shapr3D Version 3.0                                   S      2
                                                                        S      3
1H,,1H;,118HC:\Users\jonat\AppData\Local\Packages\Shapr3D.Shapr3D_dvv5p1G      1
vgwv6mp\TempState\6a5cbcac-a44a-4d80-b473-1485096122c5.tmp,11Htemp_exporG      2
t,7HShapr3D,3H3.0,32,24,8,56,15,118HC:\Users\jonat\AppData\Local\PackageG      3
s\Shapr3D.Shapr3D_dvv5p1vgwv6mp\TempState\6a5cbcac-a44a-4d80-b473-148509G      4
6122c5.tmp,1.,2,2HMM,1000,1.,13H221207.162141,1D-05,1000000.,,,9,0,13H22G      5
1207.162141;                                                            G      6
     502       1       1       0   65535       0       0       000010001D      1
     502    1000       0      19       1                Front re       0D      2
     406      20       1       0       0       0       0       000010000D      3
     406    1000       0       1      15                               0D      4
     110      21       1       0       0       0       0       000010000D      5
     110    1000       0       2       0                               0D      6
     124      23       1       0       0       0       0       001010000D      7
     124    1000       0       3       0                               0D      8
     100      26       1       0       0       0       7       000010000D      9
     100    1000       0       2       0                               0D     10
     124      28       1       0       0       0       0       001010000D     11
     124    1000       0       3       0                               0D     12
     100      31       1       0       0       0      11       000010000D     13
     100    1000       0       2       0                               0D     14
     110      33       1       0       0       0       0       000010000D     15
     110    1000       0       2       0                               0D     16
     124      35       1       0       0       0       0       001010000D     17
     124    1000       0       3       0                               0D     18
     100      38       1       0       0       0      17       000010000D     19
     100    1000       0       2       0                               0D     20
     124      40       1       0       0       0       0       001010000D     21
     124    1000       0       3       0                               0D     22
     100      43       1       0       0       0      21       000010000D     23
     100    1000       0       2       0                               0D     24
     110      45       1       0       0       0       0       000010000D     25
     110    1000       0       2       0                               0D     26
     124      47       1       0       0       0       0       001010000D     27
     124    1000       0       2       0                               0D     28
     100      49       1       0       0       0      27       000010000D     29
     100    1000       0       2       0                               0D     30
     124      51       1       0       0       0       0       001010000D     31
     124    1000       0       2       0                               0D     32
     100      53       1       0       0       0      31       000010000D     33
     100    1000       0       2       0                               0D     34
     110      55       1       0       0       0       0       000010000D     35
     110    1000       0       2       0                               0D     36
     124      57       1       0       0       0       0       001010000D     37
     124    1000       0       2       0                               0D     38
     100      59       1       0       0       0      37       000010000D     39
     100    1000       0       2       0                               0D     40
     124      61       1       0       0       0       0       001010000D     41
     124    1000       0       2       0                               0D     42
     100      63       1       0       0       0      41       000010000D     43
     100    1000       0       2       0                               0D     44
     124      65       1       0       0       0       0       001010000D     45
     124    1000       0       2       0                               0D     46
     100      67       1       0       0       0      45       000010000D     47
     100    1000       0       2       0                               0D     48
     124      69       1       0       0       0       0       001010000D     49
     124    1000       0       2       0                               0D     50
     100      71       1       0       0       0      49       000010000D     51
     100    1000       0       1       0                               0D     52
     124      72       1       0       0       0       0       001010000D     53
     124    1000       0       3       0                               0D     54
     100      75       1       0       0       0      53       000010000D     55
     100    1000       0       1       0                               0D     56
     124      76       1       0       0       0       0       001010000D     57
     124    1000       0       3       0                               0D     58
     100      79       1       0       0       0      57       000010000D     59
     100    1000       0       2       0                               0D     60
     124      81       1       0       0       0       0       001010000D     61
     124    1000       0       2       0                               0D     62
     100      83       1       0       0       0      61       000010000D     63
     100    1000       0       1       0                               0D     64
     124      84       1       0       0       0       0       001010000D     65
     124    1000       0       2       0                               0D     66
     100      86       1       0       0       0      65       000010000D     67
     100    1000       0       2       0                               0D     68
     124      88       1       0       0       0       0       001010000D     69
     124    1000       0       3       0                               0D     70
     100      91       1       0       0       0      69       000010000D     71
     100    1000       0       2       0                               0D     72
     124      93       1       0       0       0       0       001010000D     73
     124    1000       0       3       0                               0D     74
     100      96       1       0       0       0      73       000010000D     75
     100    1000       0       1       0                               0D     76
     124      97       1       0       0       0       0       001010000D     77
     124    1000       0       4       0                               0D     78
     100     101       1       0       0       0      77       000010000D     79
     100    1000       0       1       0                               0D     80
     124     102       1       0       0       0       0       001010000D     81
     124    1000       0       3       0                               0D     82
     100     105       1       0       0       0      81       000010000D     83
     100    1000       0       2       0                               0D     84
     124     107       1       0       0       0       0       001010000D     85
     124    1000       0       2       0                               0D     86
     100     109       1       0       0       0      85       000010000D     87
     100    1000       0       1       0                               0D     88
     124     110       1       0       0       0       0       001010000D     89
     124    1000       0       4       0                               0D     90
     100     114       1       0       0       0      89       000010000D     91
     100    1000       0       2       0                               0D     92
     124     116       1       0       0       0       0       001010000D     93
     124    1000       0       2       0                               0D     94
     100     118       1       0       0       0      93       000010000D     95
     100    1000       0       2       0                               0D     96
     124     120       1       0       0       0       0       001010000D     97
     124    1000       0       3       0                               0D     98
     100     123       1       0       0       0      97       000010000D     99
     100    1000       0       2       0                               0D    100
     124     125       1       0       0       0       0       001010000D    101
     124    1000       0       4       0                               0D    102
     100     129       1       0       0       0     101       000010000D    103
     100    1000       0       2       0                               0D    104
     124     131       1       0       0       0       0       001010000D    105
     124    1000       0       2       0                               0D    106
     100     133       1       0       0       0     105       000010000D    107
     100    1000       0       2       0                               0D    108
     124     135       1       0       0       0       0       001010000D    109
     124    1000       0       2       0                               0D    110
     100     137       1       0       0       0     109       000010000D    111
     100    1000       0       2       0                               0D    112
     124     139       1       0       0       0       0       001010000D    113
     124    1000       0       4       0                               0D    114
     100     143       1       0       0       0     113       000010000D    115
     100    1000       0       2       0                               0D    116
     124     145       1       0       0       0       0       001010000D    117
     124    1000       0       2       0                               0D    118
     100     147       1       0       0       0     117       000010000D    119
     100    1000       0       2       0                               0D    120
     124     149       1       0       0       0       0       001010000D    121
     124    1000       0       2       0                               0D    122
     100     151       1       0       0       0     121       000010000D    123
     100    1000       0       2       0                               0D    124
     124     153       1       0       0       0       0       001010000D    125
     124    1000       0       3       0                               0D    126
     100     156       1       0       0       0     125       000010000D    127
     100    1000       0       1       0                               0D    128
     124     157       1       0       0       0       0       001010000D    129
     124    1000       0       3       0                               0D    130
     100     160       1       0       0       0     129       000010000D    131
     100    1000       0       1       0                               0D    132
     124     161       1       0       0       0       0       001010000D    133
     124    1000       0       2       0                               0D    134
     100     163       1       0       0       0     133       000010000D    135
     100    1000       0       1       0                               0D    136
     124     164       1       0       0       0       0       001010000D    137
     124    1000       0       2       0                               0D    138
     100     166       1       0       0       0     137       000010000D    139
     100    1000       0       1       0                               0D    140
     504     167       1       0   65535       0       0       000010001D    141
     504    1000       0       8       1                Front re       0D    142
     406     175       1       0       0       0       0       000010001D    143
     406    1000       0       1      15                               0D    144
     314     176       1       0       0       0       0       000020000D    145
     314    1000       0       2       0                               0D    146
     116     178       1       0       0       0       0       000010200D    147
     116    1000       0       2       0                               0D    148
     123     180       1       0       0       0       0       000010200D    149
     123    1000       0       1       0                               0D    150
     123     181       1       0       0       0       0       000010200D    151
     123    1000       0       1       0                               0D    152
     192     182       1       0       0       0       0       000010000D    153
     192    1000    -145       1       1                               0D    154
     508     183       1       0       0       0       0       000010001D    155
     508    1000       0       2       1                               0D    156
     510     185       1       1       0       0       0       000010001D    157
     510    1000    -145       1       1                               0D    158
     116     186       1       0       0       0       0       000010200D    159
     116    1000       0       1       0                               0D    160
     123     187       1       0       0       0       0       000010200D    161
     123    1000       0       1       0                               0D    162
     123     188       1       0       0       0       0       000010200D    163
     123    1000       0       1       0                               0D    164
     192     189       1       0       0       0       0       000010000D    165
     192    1000    -145       1       1                               0D    166
     508     190       1       0       0       0       0       000010001D    167
     508    1000       0       2       1                               0D    168
     510     192       1       1       0       0       0       000010001D    169
     510    1000    -145       1       1                               0D    170
     116     193       1       0       0       0       0       000010200D    171
     116    1000       0       2       0                               0D    172
     123     195       1       0       0       0       0       000010200D    173
     123    1000       0       1       0                               0D    174
     123     196       1       0       0       0       0       000010200D    175
     123    1000       0       1       0                               0D    176
     190     197       1       0       0       0       0       000010000D    177
     190    1000    -145       1       1                               0D    178
     508     198       1       0       0       0       0       000010001D    179
     508    1000       0       1       1                               0D    180
     508     199       1       0       0       0       0       000010001D    181
     508    1000       0       1       1                               0D    182
     510     200       1       1       0       0       0       000010001D    183
     510    1000    -145       1       1                               0D    184
     116     201       1       0       0       0       0       000010200D    185
     116    1000       0       2       0                               0D    186
     123     203       1       0       0       0       0       000010200D    187
     123    1000       0       1       0                               0D    188
     123     204       1       0       0       0       0       000010200D    189
     123    1000       0       1       0                               0D    190
     190     205       1       0       0       0       0       000010000D    191
     190    1000    -145       1       1                               0D    192
     508     206       1       0       0       0       0       000010001D    193
     508    1000       0       1       1                               0D    194
     508     207       1       0       0       0       0       000010001D    195
     508    1000       0       1       1                               0D    196
     510     208       1       1       0       0       0       000010001D    197
     510    1000    -145       1       1                               0D    198
     110     209       1       0       0       0       0       000010200D    199
     110    1000       0       3       0                               0D    200
     124     212       1       0       0       0       0       001010200D    201
     124    1000       0       2       0                               0D    202
     100     214       1       0       0       0     201       000010200D    203
     100    1000       0       1       0                               0D    204
     120     215       1       0       0       0       0       000010000D    205
     120    1000    -145       1       0                               0D    206
     508     216       1       0       0       0       0       000010001D    207
     508    1000       0       2       1                               0D    208
     510     218       1       1       0       0       0       000010001D    209
     510    1000    -145       1       1                               0D    210
     110     219       1       0       0       0       0       000010200D    211
     110    1000       0       3       0                               0D    212
     124     222       1       0       0       0       0       001010200D    213
     124    1000       0       2       0                               0D    214
     100     224       1       0       0       0     213       000010200D    215
     100    1000       0       1       0                               0D    216
     120     225       1       0       0       0       0       000010000D    217
     120    1000    -145       1       0                               0D    218
     508     226       1       0       0       0       0       000010001D    219
     508    1000       0       2       1                               0D    220
     510     228       1       1       0       0       0       000010001D    221
     510    1000    -145       1       1                               0D    222
     110     229       1       0       0       0       0       000010200D    223
     110    1000       0       2       0                               0D    224
     124     231       1       0       0       0       0       001010200D    225
     124    1000       0       2       0                               0D    226
     100     233       1       0       0       0     225       000010200D    227
     100    1000       0       1       0                               0D    228
     120     234       1       0       0       0       0       000010000D    229
     120    1000    -145       1       0                               0D    230
     508     235       1       0       0       0       0       000010001D    231
     508    1000       0       2       1                               0D    232
     510     237       1       1       0       0       0       000010001D    233
     510    1000    -145       1       1                               0D    234
     110     238       1       0       0       0       0       000010200D    235
     110    1000       0       2       0                               0D    236
     124     240       1       0       0       0       0       001010200D    237
     124    1000       0       2       0                               0D    238
     100     242       1       0       0       0     237       000010200D    239
     100    1000       0       1       0                               0D    240
     120     243       1       0       0       0       0       000010000D    241
     120    1000    -145       1       0                               0D    242
     508     244       1       0       0       0       0       000010001D    243
     508    1000       0       2       1                               0D    244
     510     246       1       1       0       0       0       000010001D    245
     510    1000    -145       1       1                               0D    246
     116     247       1       0       0       0       0       000010200D    247
     116    1000       0       2       0                               0D    248
     123     249       1       0       0       0       0       000010200D    249
     123    1000       0       1       0                               0D    250
     123     250       1       0       0       0       0       000010200D    251
     123    1000       0       1       0                               0D    252
     192     251       1       0       0       0       0       000010000D    253
     192    1000    -145       1       1                               0D    254
     508     252       1       0       0       0       0       000010001D    255
     508    1000       0       2       1                               0D    256
     510     254       1       1       0       0       0       000010001D    257
     510    1000    -145       1       1                               0D    258
     116     255       1       0       0       0       0       000010200D    259
     116    1000       0       1       0                               0D    260
     123     256       1       0       0       0       0       000010200D    261
     123    1000       0       1       0                               0D    262
     123     257       1       0       0       0       0       000010200D    263
     123    1000       0       1       0                               0D    264
     192     258       1       0       0       0       0       000010000D    265
     192    1000    -145       1       1                               0D    266
     508     259       1       0       0       0       0       000010001D    267
     508    1000       0       2       1                               0D    268
     510     261       1       1       0       0       0       000010001D    269
     510    1000    -145       1       1                               0D    270
     110     262       1       0       0       0       0       000010200D    271
     110    1000       0       3       0                               0D    272
     124     265       1       0       0       0       0       001010200D    273
     124    1000       0       2       0                               0D    274
     100     267       1       0       0       0     273       000010200D    275
     100    1000       0       1       0                               0D    276
     120     268       1       0       0       0       0       000010000D    277
     120    1000    -145       1       0                               0D    278
     508     269       1       0       0       0       0       000010001D    279
     508    1000       0       2       1                               0D    280
     510     271       1       1       0       0       0       000010001D    281
     510    1000    -145       1       1                               0D    282
     110     272       1       0       0       0       0       000010200D    283
     110    1000       0       3       0                               0D    284
     124     275       1       0       0       0       0       001010200D    285
     124    1000       0       2       0                               0D    286
     100     277       1       0       0       0     285       000010200D    287
     100    1000       0       1       0                               0D    288
     120     278       1       0       0       0       0       000010000D    289
     120    1000    -145       1       0                               0D    290
     508     279       1       0       0       0       0       000010001D    291
     508    1000       0       2       1                               0D    292
     510     281       1       1       0       0       0       000010001D    293
     510    1000    -145       1       1                               0D    294
     110     282       1       0       0       0       0       000010200D    295
     110    1000       0       2       0                               0D    296
     124     284       1       0       0       0       0       001010200D    297
     124    1000       0       2       0                               0D    298
     100     286       1       0       0       0     297       000010200D    299
     100    1000       0       1       0                               0D    300
     120     287       1       0       0       0       0       000010000D    301
     120    1000    -145       1       0                               0D    302
     508     288       1       0       0       0       0       000010001D    303
     508    1000       0       2       1                               0D    304
     510     290       1       1       0       0       0       000010001D    305
     510    1000    -145       1       1                               0D    306
     110     291       1       0       0       0       0       000010200D    307
     110    1000       0       2       0                               0D    308
     124     293       1       0       0       0       0       001010200D    309
     124    1000       0       2       0                               0D    310
     100     295       1       0       0       0     309       000010200D    311
     100    1000       0       1       0                               0D    312
     120     296       1       0       0       0       0       000010000D    313
     120    1000    -145       1       0                               0D    314
     508     297       1       0       0       0       0       000010001D    315
     508    1000       0       2       1                               0D    316
     510     299       1       1       0       0       0       000010001D    317
     510    1000    -145       1       1                               0D    318
     514     300       1       0       0       0       0       000010000D    319
     514    1000       0       2       1                               0D    320
     186     302       1       0   65535       0       0       000000001D    321
     186    1000       0       1       0                Front re       0D    322
     406     303       1       0       0       0       0       000010000D    323
     406    1000       0       1      15                               0D    324
502,24,-2.,0.493926971964538,3.97638344005652D-16,-2.,                 1P      1
-5.70607302803546,1.79978362699723D-17,2.75545529808154D-16,           1P      2
-5.70607302803546,2.,2.,-5.70607302803546,-4.71860883388969D-16,       1P      3
2.,0.493926971964538,-9.22203756532895D-17,2.75545529808154D-16,       1P      4
0.493926971964538,2.,-1.5,0.493926971964538,3.057898340696D-16,        1P      5
-1.5,-5.70607302803546,-7.38506736660792D-17,                          1P      6
1.83697019872103D-16,0.493926971964538,1.5,1.5,                        1P      7
0.493926971964538,-6.16042056746057D-17,1.5,-5.70607302803546,         1P      8
-4.41244713410285D-16,1.83697019872103D-16,-5.70607302803546,          1P      9
1.5,-1.8982025386784D-16,-5.75607302803546,-1.55,                      1P     10
1.8982025386784D-16,-5.75607302803546,1.55,-2.0818995585505D-16,       1P     11
-5.75607302803546,-1.95,2.69422295812418D-16,-5.75607302803546,        1P     12
1.95,-1.8982025386784D-16,0.543926971964538,-1.55,                     1P     13
1.8982025386784D-16,0.543926971964538,1.55,-2.0818995585505D-16,       1P     14
0.543926971964538,-1.95,2.69422295812418D-16,0.543926971964538,        1P     15
1.95,-2.14313189850787D-16,-5.70607302803546,-2.,                      1P     16
-2.14313189850787D-16,0.493926971964538,-2.,                           1P     17
-1.83697019872103D-16,-5.70607302803546,-1.5,                          1P     18
-1.83697019872103D-16,0.493926971964538,-1.5,0,1,3;                    1P     19
406,1,14HFront retainer,0,0;                                           3P     20
110,-2.,0.493926971964537,-2.14685055568025D-16,-2.,                   5P     21
-5.70607302803546,-5.94325563303704D-16,0,0;                           5P     22
124,0.,1.,-0.,3.06161699786838D-17,-6.12323399573677D-17,0.,1.,        7P     23
-5.70607302803546,1.,0.,6.12323399573677D-17,                          7P     24
-3.49396203474234D-16,0,0;                                             7P     25
100,0.,0.,0.,3.67394039744206D-16,-2.,2.,2.44929359829471D-16,0,       9P     26
0;                                                                     9P     27
124,0.,1.,-0.,3.06161699786838D-17,-6.12323399573677D-17,0.,1.,       11P     28
-5.70607302803546,1.,0.,6.12323399573677D-17,                         11P     29
-3.49396203474234D-16,0,0;                                            11P     30
100,0.,0.,0.,2.,2.44929359829471D-16,-1.22464679914735D-16,2.,0,      13P     31
0;                                                                    13P     32
110,2.,0.493926971964537,3.02443042614458D-17,2.,                     15P     33
-5.70607302803546,-3.49396203474234D-16,0,0;                          15P     34
124,0.,1.,0.,3.06161699786838D-17,6.12323399573677D-17,0.,-1.,        17P     35
0.493926971964538,-1.,0.,-6.12323399573677D-17,                       17P     36
3.02443042614458D-17,0,0;                                             17P     37
100,0.,0.,0.,1.22464679914735D-16,2.,-2.,2.44929359829471D-16,0,      19P     38
0;                                                                    19P     39
124,0.,1.,0.,3.06161699786838D-17,6.12323399573677D-17,0.,-1.,        21P     40
0.493926971964538,-1.,0.,-6.12323399573677D-17,                       21P     41
3.02443042614458D-17,0,0;                                             21P     42
100,0.,0.,0.,-2.,2.44929359829471D-16,-3.67394039744206D-16,-2.,      23P     43
0,0;                                                                  23P     44
110,-1.5,0.493926971964537,-1.53452715610657D-16,-1.5,                25P     45
-5.70607302803546,-5.33093223346337D-16,0,0;                          25P     46
124,0.,1.,-0.,0.,-6.12323399573677D-17,0.,1.,0.493926971964538,       27P     47
1.,0.,6.12323399573677D-17,3.02443042614458D-17,0,0;                  27P     48
100,0.,0.,0.,2.75545529808154D-16,-1.5,1.5,1.83697019872103D-16,      29P     49
0,0;                                                                  29P     50
124,0.,1.,-0.,0.,-6.12323399573677D-17,0.,1.,0.493926971964538,       31P     51
1.,0.,6.12323399573677D-17,3.02443042614458D-17,0,0;                  31P     52
100,0.,0.,0.,1.5,1.83697019872103D-16,-9.18485099360515D-17,1.5,      33P     53
0,0;                                                                  33P     54
110,1.5,0.493926971964537,3.02443042614458D-17,1.5,                   35P     55
-5.70607302803546,-3.49396203474234D-16,0,0;                          35P     56
124,0.,1.,0.,0.,6.12323399573677D-17,0.,-1.,-5.70607302803546,        37P     57
-1.,0.,-6.12323399573677D-17,-3.49396203474234D-16,0,0;               37P     58
100,0.,0.,0.,9.18485099360515D-17,1.5,-1.5,1.83697019872103D-16,      39P     59
0,0;                                                                  39P     60
124,0.,1.,0.,0.,6.12323399573677D-17,0.,-1.,-5.70607302803546,        41P     61
-1.,0.,-6.12323399573677D-17,-3.49396203474234D-16,0,0;               41P     62
100,0.,0.,0.,-1.5,1.83697019872103D-16,-2.75545529808154D-16,         43P     63
-1.5,0,0;                                                             43P     64
124,0.,1.,-0.,0.,-6.12323399573677D-17,0.,1.,-5.75607302803546,       45P     65
1.,0.,6.12323399573677D-17,-3.52457820472102D-16,0,0;                 45P     66
100,0.,0.,0.,-1.55,-3.79640507735679D-16,1.55,                        47P     67
1.8982025386784D-16,0,0;                                              47P     68
124,0.,1.,-0.,0.,-6.12323399573677D-17,0.,1.,-5.75607302803546,       49P     69
1.,0.,6.12323399573677D-17,-3.52457820472102D-16,0,0;                 49P     70
100,0.,0.,0.,1.55,1.8982025386784D-16,-1.55,0.,0,0;                   51P     71
124,0.,1.,0.,3.06161699786838D-17,6.12323399573677D-17,0.,-1.,        53P     72
-5.75607302803546,-1.,0.,-6.12323399573677D-17,                       53P     73
-3.52457820472102D-16,0,0;                                            53P     74
100,0.,0.,0.,1.95,0.,-1.95,2.38806125833734D-16,0,0;                  55P     75
124,0.,1.,0.,3.06161699786838D-17,6.12323399573677D-17,0.,-1.,        57P     76
-5.75607302803546,-1.,0.,-6.12323399573677D-17,                       57P     77
-3.52457820472102D-16,0,0;                                            57P     78
100,0.,0.,0.,-1.95,2.38806125833734D-16,1.95,                         59P     79
-4.77612251667468D-16,0,0;                                            59P     80
124,0.,1.,0.,0.,6.12323399573677D-17,0.,-1.,0.543926971964538,        61P     81
-1.,0.,-6.12323399573677D-17,3.33059212593142D-17,0,0;                61P     82
100,0.,0.,0.,1.55,0.,-1.55,1.8982025386784D-16,0,0;                   63P     83
124,0.,1.,0.,0.,6.12323399573677D-17,0.,-1.,0.543926971964538,        65P     84
-1.,0.,-6.12323399573677D-17,3.33059212593142D-17,0,0;                65P     85
100,0.,0.,0.,-1.55,1.8982025386784D-16,1.55,                          67P     86
-3.79640507735679D-16,0,0;                                            67P     87
124,0.,1.,-0.,3.06161699786838D-17,-6.12323399573677D-17,0.,1.,       69P     88
0.543926971964538,1.,0.,6.12323399573677D-17,                         69P     89
3.33059212593142D-17,0,0;                                             69P     90
100,0.,0.,0.,-1.95,-4.77612251667468D-16,1.95,                        71P     91
2.38806125833734D-16,0,0;                                             71P     92
124,0.,1.,-0.,3.06161699786838D-17,-6.12323399573677D-17,0.,1.,       73P     93
0.543926971964538,1.,0.,6.12323399573677D-17,                         73P     94
3.33059212593142D-17,0,0;                                             73P     95
100,0.,0.,0.,1.95,2.38806125833734D-16,-1.95,0.,0,0;                  75P     96
124,-1.22464679914735D-16,0.,-1.,2.69422295812418D-16,                77P     97
6.12323399573677D-17,-1.,-7.49879891330929D-33,                       77P     98
-5.70607302803546,-1.,-6.12323399573677D-17,                          77P     99
1.22464679914735D-16,1.95,0,0;                                        77P    100
100,0.,0.,0.,4.13473039871379D-17,0.05,-0.05,0.,0,0;                  79P    101
124,0.,1.,-0.,3.06161699786838D-17,-6.12323399573677D-17,0.,1.,       81P    102
-5.70607302803546,1.,0.,6.12323399573677D-17,                         81P    103
-3.49396203474234D-16,0,0;                                            81P    104
100,0.,0.,0.,-2.,-4.89858719658941D-16,3.67394039744206D-16,-2.,      83P    105
0,0;                                                                  83P    106
124,0.,0.,1.,3.06161699786838D-17,-6.12323399573677D-17,-1.,0.,       85P    107
-5.70607302803546,1.,-6.12323399573677D-17,0.,-1.95,0,0;              85P    108
100,0.,0.,0.,-3.06161699786838D-18,0.05,-0.05,0.,0,0;                 87P    109
124,-1.22464679914735D-16,0.,-1.,2.69422295812418D-16,                89P    110
6.12323399573677D-17,-1.,-7.49879891330929D-33,                       89P    111
0.493926971964538,-1.,-6.12323399573677D-17,                          89P    112
1.22464679914735D-16,1.95,0,0;                                        89P    113
100,0.,0.,0.,-0.05,-1.22464679914735D-17,-2.12859753931426D-16,       91P    114
-0.05,0,0;                                                            91P    115
124,0.,0.,1.,3.06161699786838D-17,-6.12323399573677D-17,-1.,0.,       93P    116
0.493926971964538,1.,-6.12323399573677D-17,0.,-1.95,0,0;              93P    117
100,0.,0.,0.,-0.05,-1.22464679914735D-17,9.18485099360515D-18,        95P    118
-0.05,0,0;                                                            95P    119
124,0.,1.,0.,3.06161699786838D-17,6.12323399573677D-17,0.,-1.,        97P    120
0.493926971964538,-1.,0.,-6.12323399573677D-17,                       97P    121
3.02443042614458D-17,0,0;                                             97P    122
100,0.,0.,0.,-3.67394039744206D-16,-2.,2.,-4.89858719658941D-16,      99P    123
0,0;                                                                  99P    124
124,-1.22464679914735D-16,0.,-1.,1.8982025386784D-16,                101P    125
6.12323399573677D-17,-1.,-7.49879891330929D-33,                      101P    126
-5.70607302803546,-1.,-6.12323399573677D-17,                         101P    127
1.22464679914735D-16,1.55,0,0;                                       101P    128
100,0.,0.,0.,0.05,6.12323399573677D-18,4.13473039871379D-17,         103P    129
0.05,0,0;                                                            103P    130
124,0.,0.,1.,0.,-6.12323399573677D-17,-1.,0.,-5.70607302803546,      105P    131
1.,-6.12323399573677D-17,0.,-1.55,0,0;                               105P    132
100,0.,0.,0.,0.05,9.49410759657493D-17,-3.06161699786838D-18,        107P    133
0.05,0,0;                                                            107P    134
124,0.,1.,0.,0.,6.12323399573677D-17,0.,-1.,-5.70607302803546,       109P    135
-1.,0.,-6.12323399573677D-17,-3.49396203474234D-16,0,0;              109P    136
100,0.,0.,0.,-2.75545529808154D-16,-1.5,1.5,                         111P    137
-3.67394039744206D-16,0,0;                                           111P    138
124,-1.22464679914735D-16,0.,-1.,1.8982025386784D-16,                113P    139
6.12323399573677D-17,-1.,-7.49879891330929D-33,                      113P    140
0.493926971964538,-1.,-6.12323399573677D-17,                         113P    141
1.22464679914735D-16,1.55,0,0;                                       113P    142
100,0.,0.,0.,9.18485099360515D-18,-0.05,0.05,                        115P    143
6.12323399573677D-18,0,0;                                            115P    144
124,0.,1.,-0.,0.,-6.12323399573677D-17,0.,1.,0.493926971964538,      117P    145
1.,0.,6.12323399573677D-17,3.02443042614458D-17,0,0;                 117P    146
100,0.,0.,0.,-1.5,-3.67394039744206D-16,2.75545529808154D-16,        119P    147
-1.5,0,0;                                                            119P    148
124,0.,0.,1.,0.,-6.12323399573677D-17,-1.,0.,0.493926971964538,      121P    149
1.,-6.12323399573677D-17,0.,-1.55,0,0;                               121P    150
100,0.,0.,0.,9.18485099360515D-18,-0.05,0.05,                        123P    151
6.12323399573677D-18,0,0;                                            123P    152
124,0.,1.,0.,3.06161699786838D-17,6.12323399573677D-17,0.,-1.,       125P    153
0.493926971964538,-1.,0.,-6.12323399573677D-17,                      125P    154
3.02443042614458D-17,0,0;                                            125P    155
100,0.,0.,0.,2.,0.,1.22464679914735D-16,2.,0,0;                      127P    156
124,0.,1.,-0.,3.06161699786838D-17,-6.12323399573677D-17,0.,1.,      129P    157
-5.70607302803546,1.,0.,6.12323399573677D-17,                        129P    158
-3.49396203474234D-16,0,0;                                           129P    159
100,0.,0.,0.,-1.22464679914735D-16,2.,-2.,0.,0,0;                    131P    160
124,0.,1.,0.,0.,6.12323399573677D-17,0.,-1.,-5.70607302803546,       133P    161
-1.,0.,-6.12323399573677D-17,-3.49396203474234D-16,0,0;              133P    162
100,0.,0.,0.,1.5,0.,9.18485099360515D-17,1.5,0,0;                    135P    163
124,0.,1.,-0.,0.,-6.12323399573677D-17,0.,1.,0.493926971964538,      137P    164
1.,0.,6.12323399573677D-17,3.02443042614458D-17,0,0;                 137P    165
100,0.,0.,0.,-9.18485099360515D-17,1.5,-1.5,0.,0,0;                  139P    166
504,36,5,1,1,1,2,9,1,2,1,3,13,1,3,1,4,15,1,5,1,4,19,1,5,1,6,23,      141P    167
1,6,1,1,25,1,7,1,8,29,1,7,1,9,33,1,9,1,10,35,1,10,1,11,39,1,11,      141P    168
1,12,43,1,12,1,8,47,1,13,1,14,51,1,14,1,13,55,1,15,1,16,59,1,16,     141P    169
1,15,63,1,17,1,18,67,1,18,1,17,71,1,19,1,20,75,1,20,1,19,79,1,       141P    170
16,1,3,83,1,21,1,2,87,1,15,1,21,91,1,6,1,20,95,1,22,1,19,99,1,1,     141P    171
1,22,103,1,12,1,14,107,1,23,1,13,111,1,8,1,23,115,1,18,1,9,119,      141P    172
1,24,1,7,123,1,17,1,24,127,1,22,1,5,131,1,4,1,21,135,1,23,1,11,      141P    173
139,1,10,1,24,0,1,143;                                               141P    174
406,1,14HFront retainer,0,0;                                         143P    175
314,49.4117660522461,49.4117660522461,52.5490226745605,5HCOLOR,      145P    176
0,0;                                                                 145P    177
116,3.06161699786838D-17,-5.75607302803546,                          147P    178
-3.52457820472102D-16,0,0,0;                                         147P    179
123,-0.,1.,6.12323399573677D-17,0,0,0;                               149P    180
123,1.,0.,0.,0,0,0;                                                  151P    181
192,147,149,2.,151,0,0;                                              153P    182
508,6,0,141,1,1,0,0,141,2,1,0,0,141,3,1,0,0,141,4,0,0,0,141,5,1,     155P    183
0,0,141,6,1,0,0,0;                                                   155P    184
510,153,1,1,155,0,0;                                                 157P    185
116,0.,-5.75607302803546,-3.52457820472102D-16,0,0,0;                159P    186
123,-0.,1.,6.12323399573677D-17,0,0,0;                               161P    187
123,1.,0.,0.,0,0,0;                                                  163P    188
192,159,161,1.5,163,0,0;                                             165P    189
508,6,0,141,12,0,0,0,141,11,0,0,0,141,10,0,0,0,141,9,0,0,0,141,      167P    190
8,0,0,0,141,7,1,0,0,0;                                               167P    191
510,165,1,1,167,0,0;                                                 169P    192
116,3.33059212593142D-17,-5.75607302803546,                          171P    193
-3.52457820472102D-16,0,0,0;                                         171P    194
123,0.,-1.,-6.12323399573677D-17,0,0,0;                              173P    195
123,0.,6.12323399573677D-17,-1.,0,0,0;                               175P    196
190,171,173,175,0,0;                                                 177P    197
508,2,0,141,13,1,0,0,141,14,1,0,0,0;                                 179P    198
508,2,0,141,15,1,0,0,141,16,1,0,0,0;                                 181P    199
510,177,2,1,181,179,0,0;                                             183P    200
116,3.33059212593142D-17,0.543926971964538,3.33059212593142D-17,     185P    201
0,0,0;                                                               185P    202
123,0.,-1.,-6.12323399573677D-17,0,0,0;                              187P    203
123,0.,6.12323399573677D-17,-1.,0,0,0;                               189P    204
190,185,187,189,0,0;                                                 191P    205
508,2,0,141,18,0,0,0,141,17,0,0,0,0;                                 193P    206
508,2,0,141,20,0,0,0,141,19,0,0,0,0;                                 195P    207
510,191,2,1,195,193,0,0;                                             197P    208
110,3.06161699786838D-17,-5.70607302803546,                          199P    209
-3.49396203474234D-16,3.06161699786838D-17,-6.70607302803546,        199P    210
-4.10628543431601D-16,0,0;                                           199P    211
124,0.,-0.,-1.,3.06161699786838D-17,6.12323399573677D-17,-1.,0.,     201P    212
-5.70607302803546,-1.,-6.12323399573677D-17,0.,-1.95,0,0;            201P    213
100,0.,0.,0.,0.05,0.,0.05,-1.22464679914735D-17,0,0;                 203P    214
120,199,203,0.,6.28318530717959,0,0;                                 205P    215
508,5,0,141,16,1,0,0,141,23,1,0,0,141,22,1,0,0,141,2,1,0,0,141,      207P    216
21,0,0,0,0;                                                          207P    217
510,205,1,1,207,0,0;                                                 209P    218
110,3.06161699786838D-17,0.493926971964538,3.02443042614458D-17,     211P    219
3.06161699786838D-17,-0.506073028035462,-3.09880356959219D-17,0,     211P    220
0;                                                                   211P    221
124,0.,-0.,-1.,3.06161699786838D-17,6.12323399573677D-17,-1.,0.,     213P    222
0.493926971964538,-1.,-6.12323399573677D-17,0.,-1.95,0,0;            213P    223
100,0.,0.,0.,0.05,0.,0.05,-1.22464679914735D-17,0,0;                 215P    224
120,211,215,0.,6.28318530717959,0,0;                                 217P    225
508,5,0,141,6,1,0,0,141,26,1,0,0,141,25,1,0,0,141,19,1,0,0,141,      219P    226
24,0,0,0,0;                                                          219P    227
510,217,1,1,219,0,0;                                                 221P    228
110,0.,-5.70607302803546,-3.49396203474234D-16,0.,                   223P    229
-6.70607302803546,-4.10628543431601D-16,0,0;                         223P    230
124,0.,-0.,-1.,0.,6.12323399573677D-17,-1.,0.,-5.70607302803546,     225P    231
-1.,-6.12323399573677D-17,0.,-1.55,0,0;                              225P    232
100,0.,0.,0.,0.05,0.,0.05,-1.22464679914735D-17,0,0;                 227P    233
120,223,227,0.,6.28318530717959,0,0;                                 229P    234
508,5,0,141,12,1,0,0,141,29,1,0,0,141,28,1,0,0,141,13,1,0,0,141,     231P    235
27,0,0,0,0;                                                          231P    236
510,229,1,1,231,0,0;                                                 233P    237
110,0.,0.493926971964538,3.02443042614458D-17,0.,                    235P    238
-0.506073028035462,-3.09880356959219D-17,0,0;                        235P    239
124,0.,-0.,-1.,0.,6.12323399573677D-17,-1.,0.,0.493926971964538,     237P    240
-1.,-6.12323399573677D-17,0.,-1.55,0,0;                              237P    241
100,0.,0.,0.,0.05,0.,0.05,-1.22464679914735D-17,0,0;                 239P    242
120,235,239,0.,6.28318530717959,0,0;                                 241P    243
508,5,0,141,18,1,0,0,141,32,1,0,0,141,31,1,0,0,141,8,1,0,0,141,      243P    244
30,0,0,0,0;                                                          243P    245
510,241,1,1,243,0,0;                                                 245P    246
116,3.06161699786838D-17,-5.75607302803546,                          247P    247
-3.52457820472102D-16,0,0,0;                                         247P    248
123,-0.,1.,6.12323399573677D-17,0,0,0;                               249P    249
123,1.,0.,0.,0,0,0;                                                  251P    250
192,247,249,2.,251,0,0;                                              253P    251
508,6,0,141,1,0,0,0,141,26,1,0,0,141,33,1,0,0,141,4,1,0,0,141,       255P    252
34,1,0,0,141,22,1,0,0,0;                                             255P    253
510,253,1,1,255,0,0;                                                 257P    254
116,0.,-5.75607302803546,-3.52457820472102D-16,0,0,0;                259P    255
123,-0.,1.,6.12323399573677D-17,0,0,0;                               261P    256
123,1.,0.,0.,0,0,0;                                                  263P    257
192,259,261,1.5,263,0,0;                                             265P    258
508,6,0,141,31,0,0,0,141,36,0,0,0,141,10,1,0,0,141,35,0,0,0,141,     267P    259
29,0,0,0,141,7,0,0,0,0;                                              267P    260
510,265,1,1,267,0,0;                                                 269P    261
110,3.06161699786838D-17,-5.70607302803546,                          271P    262
-3.49396203474234D-16,3.06161699786838D-17,-6.70607302803546,        271P    263
-4.10628543431601D-16,0,0;                                           271P    264
124,0.,-0.,-1.,3.06161699786838D-17,6.12323399573677D-17,-1.,0.,     273P    265
-5.70607302803546,-1.,-6.12323399573677D-17,0.,-1.95,0,0;            273P    266
100,0.,0.,0.,0.05,0.,0.05,-1.22464679914735D-17,0,0;                 275P    267
120,271,275,0.,6.28318530717959,0,0;                                 277P    268
508,5,0,141,3,1,0,0,141,34,1,0,0,141,23,0,0,0,141,15,1,0,0,141,      279P    269
21,1,0,0,0;                                                          279P    270
510,277,1,1,279,0,0;                                                 281P    271
110,3.06161699786838D-17,0.493926971964538,3.02443042614458D-17,     283P    272
3.06161699786838D-17,-0.506073028035462,-3.09880356959219D-17,0,     283P    273
0;                                                                   283P    274
124,0.,-0.,-1.,3.06161699786838D-17,6.12323399573677D-17,-1.,0.,     285P    275
0.493926971964538,-1.,-6.12323399573677D-17,0.,-1.95,0,0;            285P    276
100,0.,0.,0.,0.05,0.,0.05,-1.22464679914735D-17,0,0;                 287P    277
120,283,287,0.,6.28318530717959,0,0;                                 289P    278
508,5,0,141,20,1,0,0,141,25,0,0,0,141,33,1,0,0,141,5,1,0,0,141,      291P    279
24,1,0,0,0;                                                          291P    280
510,289,1,1,291,0,0;                                                 293P    281
110,0.,-5.70607302803546,-3.49396203474234D-16,0.,                   295P    282
-6.70607302803546,-4.10628543431601D-16,0,0;                         295P    283
124,0.,-0.,-1.,0.,6.12323399573677D-17,-1.,0.,-5.70607302803546,     297P    284
-1.,-6.12323399573677D-17,0.,-1.55,0,0;                              297P    285
100,0.,0.,0.,0.05,0.,0.05,-1.22464679914735D-17,0,0;                 299P    286
120,295,299,0.,6.28318530717959,0,0;                                 301P    287
508,5,0,141,14,1,0,0,141,28,0,0,0,141,35,1,0,0,141,11,1,0,0,141,     303P    288
27,1,0,0,0;                                                          303P    289
510,301,1,1,303,0,0;                                                 305P    290
110,0.,0.493926971964538,3.02443042614458D-17,0.,                    307P    291
-0.506073028035462,-3.09880356959219D-17,0,0;                        307P    292
124,0.,-0.,-1.,0.,6.12323399573677D-17,-1.,0.,0.493926971964538,     309P    293
-1.,-6.12323399573677D-17,0.,-1.55,0,0;                              309P    294
100,0.,0.,0.,0.05,0.,0.05,-1.22464679914735D-17,0,0;                 311P    295
120,307,311,0.,6.28318530717959,0,0;                                 313P    296
508,5,0,141,9,1,0,0,141,36,1,0,0,141,32,0,0,0,141,17,1,0,0,141,      315P    297
30,1,0,0,0;                                                          315P    298
510,313,1,1,315,0,0;                                                 317P    299
514,14,157,1,169,0,183,1,197,0,209,0,221,0,233,0,245,0,257,1,        319P    300
269,0,281,0,293,0,305,0,317,0,0,0;                                   319P    301
186,319,1,0;0,1,323;                                                 321P    302
406,1,14HFront retainer,0,0;                                         323P    303
S      3G      6D    324P    303                                        T      1
