                                                                        S      1
File generated by Shapr3D Version 3.0                                   S      2
                                                                        S      3
1H,,1H;,118HC:\Users\jonat\AppData\Local\Packages\Shapr3D.Shapr3D_dvv5p1G      1
vgwv6mp\TempState\aea3f57a-25b9-4096-805a-07b2581c0224.tmp,11Htemp_exporG      2
t,7HShapr3D,3H3.0,32,24,8,56,15,118HC:\Users\jonat\AppData\Local\PackageG      3
s\Shapr3D.Shapr3D_dvv5p1vgwv6mp\TempState\aea3f57a-25b9-4096-805a-07b258G      4
1c0224.tmp,1.,2,2HMM,1000,1.,13H221207.163208,1D-05,1000000.,,,9,0,13H22G      5
1207.163208;                                                            G      6
     502       1       1       0   65535       0       0       000010001D      1
     502    1000       0       5       1                  Sleeve       0D      2
     110       6       1       0       0       0       0       000010000D      3
     110    1000       0       2       0                               0D      4
     124       8       1       0       0       0       0       001010000D      5
     124    1000       0       3       0                               0D      6
     100      11       1       0       0       0       5       000010000D      7
     100    1000       0       2       0                               0D      8
     110      13       1       0       0       0       0       000010000D      9
     110    1000       0       2       0                               0D     10
     124      15       1       0       0       0       0       001010000D     11
     124    1000       0       3       0                               0D     12
     100      18       1       0       0       0      11       000010000D     13
     100    1000       0       2       0                               0D     14
     110      20       1       0       0       0       0       000010000D     15
     110    1000       0       2       0                               0D     16
     124      22       1       0       0       0       0       001010000D     17
     124    1000       0       3       0                               0D     18
     100      25       1       0       0       0      17       000010000D     19
     100    1000       0       2       0                               0D     20
     110      27       1       0       0       0       0       000010000D     21
     110    1000       0       2       0                               0D     22
     124      29       1       0       0       0       0       001010000D     23
     124    1000       0       3       0                               0D     24
     100      32       1       0       0       0      23       000010000D     25
     100    1000       0       2       0                               0D     26
     124      34       1       0       0       0       0       001010000D     27
     124    1000       0       3       0                               0D     28
     100      37       1       0       0       0      27       000010000D     29
     100    1000       0       1       0                               0D     30
     124      38       1       0       0       0       0       001010000D     31
     124    1000       0       3       0                               0D     32
     100      41       1       0       0       0      31       000010000D     33
     100    1000       0       1       0                               0D     34
     124      42       1       0       0       0       0       001010000D     35
     124    1000       0       3       0                               0D     36
     100      45       1       0       0       0      35       000010000D     37
     100    1000       0       1       0                               0D     38
     124      46       1       0       0       0       0       001010000D     39
     124    1000       0       3       0                               0D     40
     100      49       1       0       0       0      39       000010000D     41
     100    1000       0       1       0                               0D     42
     504      50       1       0   65535       0       0       000010001D     43
     504    1000       0       3       1                  Sleeve       0D     44
     314      53       1       0       0       0       0       000020000D     45
     314    1000       0       2       0                               0D     46
     116      55       1       0       0       0       0       000010200D     47
     116    1000       0       2       0                               0D     48
     123      57       1       0       0       0       0       000010200D     49
     123    1000       0       1       0                               0D     50
     123      58       1       0       0       0       0       000010200D     51
     123    1000       0       1       0                               0D     52
     192      59       1       0       0       0       0       000010000D     53
     192    1000     -45       1       1                               0D     54
     508      60       1       0       0       0       0       000010001D     55
     508    1000       0       1       1                               0D     56
     510      61       1       1       0       0       0       000010001D     57
     510    1000     -45       1       1                               0D     58
     116      62       1       0       0       0       0       000010200D     59
     116    1000       0       2       0                               0D     60
     123      64       1       0       0       0       0       000010200D     61
     123    1000       0       1       0                               0D     62
     123      65       1       0       0       0       0       000010200D     63
     123    1000       0       1       0                               0D     64
     192      66       1       0       0       0       0       000010000D     65
     192    1000     -45       1       1                               0D     66
     508      67       1       0       0       0       0       000010001D     67
     508    1000       0       1       1                               0D     68
     510      68       1       1       0       0       0       000010001D     69
     510    1000     -45       1       1                               0D     70
     116      69       1       0       0       0       0       000010200D     71
     116    1000       0       1       0                               0D     72
     123      70       1       0       0       0       0       000010200D     73
     123    1000       0       1       0                               0D     74
     123      71       1       0       0       0       0       000010200D     75
     123    1000       0       1       0                               0D     76
     190      72       1       0       0       0       0       000010000D     77
     190    1000     -45       1       1                               0D     78
     508      73       1       0       0       0       0       000010001D     79
     508    1000       0       1       1                               0D     80
     508      74       1       0       0       0       0       000010001D     81
     508    1000       0       1       1                               0D     82
     510      75       1       1       0       0       0       000010001D     83
     510    1000     -45       1       1                               0D     84
     116      76       1       0       0       0       0       000010200D     85
     116    1000       0       1       0                               0D     86
     123      77       1       0       0       0       0       000010200D     87
     123    1000       0       1       0                               0D     88
     123      78       1       0       0       0       0       000010200D     89
     123    1000       0       1       0                               0D     90
     190      79       1       0       0       0       0       000010000D     91
     190    1000     -45       1       1                               0D     92
     508      80       1       0       0       0       0       000010001D     93
     508    1000       0       1       1                               0D     94
     508      81       1       0       0       0       0       000010001D     95
     508    1000       0       1       1                               0D     96
     510      82       1       1       0       0       0       000010001D     97
     510    1000     -45       1       1                               0D     98
     116      83       1       0       0       0       0       000010200D     99
     116    1000       0       2       0                               0D    100
     123      85       1       0       0       0       0       000010200D    101
     123    1000       0       1       0                               0D    102
     123      86       1       0       0       0       0       000010200D    103
     123    1000       0       1       0                               0D    104
     192      87       1       0       0       0       0       000010000D    105
     192    1000     -45       1       1                               0D    106
     508      88       1       0       0       0       0       000010001D    107
     508    1000       0       1       1                               0D    108
     510      89       1       1       0       0       0       000010001D    109
     510    1000     -45       1       1                               0D    110
     116      90       1       0       0       0       0       000010200D    111
     116    1000       0       2       0                               0D    112
     123      92       1       0       0       0       0       000010200D    113
     123    1000       0       1       0                               0D    114
     123      93       1       0       0       0       0       000010200D    115
     123    1000       0       1       0                               0D    116
     192      94       1       0       0       0       0       000010000D    117
     192    1000     -45       1       1                               0D    118
     508      95       1       0       0       0       0       000010001D    119
     508    1000       0       1       1                               0D    120
     510      96       1       1       0       0       0       000010001D    121
     510    1000     -45       1       1                               0D    122
     514      97       1       0       0       0       0       000010000D    123
     514    1000       0       1       1                               0D    124
     186      98       1       0   65535       0       0       000000001D    125
     186    1000       0       1       0                  Sleeve       0D    126
502,8,8.73124999993332,0.,-4.7625,21.4312499999333,0.,-4.7625,         1P      1
8.73124999993332,8.7485705714089D-16,4.7625,21.4312499999333,          1P      2
8.7485705714089D-16,4.7625,8.73124999993332,0.,-6.35,                  1P      3
21.4312499999333,0.,-6.35,21.4312499999333,1.16647607618785D-15,       1P      4
6.35,8.73124999993332,1.16647607618785D-15,6.35,0,0;                   1P      5
110,8.73124999993333,8.7485705714089D-16,-4.7625,                      3P      6
21.4312499999333,8.7485705714089D-16,-4.7625,0,0;                      3P      7
124,6.12323399573677D-17,-0.,1.,8.73124999993332,0.,1.,0.,             5P      8
2.91619019046963D-16,-1.,0.,6.12323399573677D-17,                      5P      9
2.33295215237882D-15,0,0;                                              5P     10
100,0.,0.,0.,-4.7625,5.83238038093927D-16,4.7625,                      7P     11
-1.16647607618785D-15,0,0;                                             7P     12
110,8.73124999993333,2.91619019046963D-16,4.7625,                      9P     13
21.4312499999333,2.91619019046963D-16,4.7625,0,0;                      9P     14
124,6.12323399573677D-17,-0.,1.,21.4312499999333,0.,1.,0.,            11P     15
2.91619019046963D-16,-1.,0.,6.12323399573677D-17,                     11P     16
3.11060286983739D-15,0,0;                                             11P     17
100,0.,0.,0.,-4.7625,5.83238038093927D-16,4.7625,                     13P     18
-1.16647607618785D-15,0,0;                                            13P     19
110,8.73124999993333,1.16647607618785D-15,-6.35,                      15P     20
21.4312499999333,1.16647607618785D-15,-6.35,0,0;                      15P     21
124,6.12323399573677D-17,-0.,1.,21.4312499999333,0.,1.,0.,            17P     22
3.88825358729285D-16,-1.,0.,6.12323399573677D-17,                     17P     23
3.11060286983739D-15,0,0;                                             17P     24
100,0.,0.,0.,-6.35,7.77650717458569D-16,6.35,                         19P     25
-1.55530143491714D-15,0,0;                                            19P     26
110,8.73124999993333,3.88825358729285D-16,6.35,21.4312499999333,      21P     27
3.88825358729285D-16,6.35,0,0;                                        21P     28
124,6.12323399573677D-17,-0.,1.,8.73124999993332,0.,1.,0.,            23P     29
3.88825358729285D-16,-1.,0.,6.12323399573677D-17,                     23P     30
2.33295215237882D-15,0,0;                                             23P     31
100,0.,0.,0.,-6.35,7.77650717458569D-16,6.35,                         25P     32
-1.55530143491714D-15,0,0;                                            25P     33
124,6.12323399573677D-17,-0.,1.,21.4312499999333,0.,1.,0.,            27P     34
2.91619019046963D-16,-1.,0.,6.12323399573677D-17,                     27P     35
3.11060286983739D-15,0,0;                                             27P     36
100,0.,0.,0.,4.7625,0.,-4.7625,5.83238038093927D-16,0,0;              29P     37
124,6.12323399573677D-17,-0.,1.,21.4312499999333,0.,1.,0.,            31P     38
3.88825358729285D-16,-1.,0.,6.12323399573677D-17,                     31P     39
3.11060286983739D-15,0,0;                                             31P     40
100,0.,0.,0.,6.35,0.,-6.35,7.77650717458569D-16,0,0;                  33P     41
124,6.12323399573677D-17,-0.,1.,8.73124999993332,0.,1.,0.,            35P     42
2.91619019046963D-16,-1.,0.,6.12323399573677D-17,                     35P     43
2.33295215237882D-15,0,0;                                             35P     44
100,0.,0.,0.,4.7625,0.,-4.7625,5.83238038093927D-16,0,0;              37P     45
124,6.12323399573677D-17,-0.,1.,8.73124999993332,0.,1.,0.,            39P     46
3.88825358729285D-16,-1.,0.,6.12323399573677D-17,                     39P     47
2.33295215237882D-15,0,0;                                             39P     48
100,0.,0.,0.,6.35,0.,-6.35,7.77650717458569D-16,0,0;                  41P     49
504,12,3,1,1,1,2,7,1,3,1,1,9,1,3,1,4,13,1,4,1,2,15,1,5,1,6,19,1,      43P     50
7,1,6,21,1,8,1,7,25,1,8,1,5,29,1,2,1,4,33,1,6,1,7,37,1,1,1,3,41,      43P     51
1,5,1,8,0,0;                                                          43P     52
314,49.4117660522461,49.4117660522461,52.5490226745605,5HCOLOR,       45P     53
0,0;                                                                  45P     54
116,27.7812499999333,2.91619019046963D-16,3.49942822856667D-15,       47P     55
0,0,0;                                                                47P     56
123,-1.,0.,-6.12323399573677D-17,0,0,0;                               49P     57
123,-6.12323399573677D-17,0.,1.,0,0,0;                                51P     58
192,47,49,4.7625,51,0,0;                                              53P     59
508,4,0,43,4,0,0,0,43,3,0,0,0,43,2,1,0,0,43,1,1,0,0,0;                55P     60
510,53,1,1,55,0,0;                                                    57P     61
116,27.7812499999333,3.88825358729285D-16,3.49942822856667D-15,       59P     62
0,0,0;                                                                59P     63
123,-1.,0.,-6.12323399573677D-17,0,0,0;                               61P     64
123,-6.12323399573677D-17,0.,1.,0,0,0;                                63P     65
192,59,61,6.35,63,0,0;                                                65P     66
508,4,0,43,5,1,0,0,43,6,0,0,0,43,7,0,0,0,43,8,1,0,0,0;                67P     67
510,65,1,1,67,0,0;                                                    69P     68
116,21.4312499999333,0.,3.11060286983739D-15,0,0,0;                   71P     69
123,1.,0.,6.12323399573677D-17,0,0,0;                                 73P     70
123,6.12323399573677D-17,0.,-1.,0,0,0;                                75P     71
190,71,73,75,0,0;                                                     77P     72
508,2,0,43,4,0,0,0,43,9,0,0,0,0;                                      79P     73
508,2,0,43,10,1,0,0,43,6,1,0,0,0;                                     81P     74
510,77,2,1,81,79,0,0;                                                 83P     75
116,8.73124999993332,0.,2.33295215237882D-15,0,0,0;                   85P     76
123,1.,0.,6.12323399573677D-17,0,0,0;                                 87P     77
123,6.12323399573677D-17,0.,-1.,0,0,0;                                89P     78
190,85,87,89,0,0;                                                     91P     79
508,2,0,43,2,0,0,0,43,11,0,0,0,0;                                     93P     80
508,2,0,43,12,1,0,0,43,8,1,0,0,0;                                     95P     81
510,91,2,1,95,93,0,0;                                                 97P     82
116,27.7812499999333,2.91619019046963D-16,3.49942822856667D-15,       99P     83
0,0,0;                                                                99P     84
123,-1.,0.,-6.12323399573677D-17,0,0,0;                              101P     85
123,-6.12323399573677D-17,0.,1.,0,0,0;                               103P     86
192,99,101,4.7625,103,0,0;                                           105P     87
508,4,0,43,11,1,0,0,43,3,1,0,0,43,9,0,0,0,43,1,0,0,0,0;              107P     88
510,105,1,1,107,0,0;                                                 109P     89
116,27.7812499999333,3.88825358729285D-16,3.49942822856667D-15,      111P     90
0,0,0;                                                               111P     91
123,-1.,0.,-6.12323399573677D-17,0,0,0;                              113P     92
123,-6.12323399573677D-17,0.,1.,0,0,0;                               115P     93
192,111,113,6.35,115,0,0;                                            117P     94
508,4,0,43,5,0,0,0,43,12,1,0,0,43,7,1,0,0,43,10,0,0,0,0;             119P     95
510,117,1,1,119,0,0;                                                 121P     96
514,6,57,0,69,1,83,1,97,0,109,0,121,1,0,0;                           123P     97
186,123,1,0;0,0;                                                     125P     98
S      3G      6D    126P     98                                        T      1
