                                                                        S      1
File generated by Shapr3D Version 3.0                                   S      2
                                                                        S      3
1H,,1H;,118HC:\Users\jonat\AppData\Local\Packages\Shapr3D.Shapr3D_dvv5p1G      1
vgwv6mp\TempState\10095576-2886-4d55-8fa7-0dd8695ae2c6.tmp,11Htemp_exporG      2
t,7HShapr3D,3H3.0,32,24,8,56,15,118HC:\Users\jonat\AppData\Local\PackageG      3
s\Shapr3D.Shapr3D_dvv5p1vgwv6mp\TempState\10095576-2886-4d55-8fa7-0dd869G      4
5ae2c6.tmp,1.,2,2HMM,1000,1.,13H221207.162839,1D-05,1000000.,,,9,0,13H22G      5
1207.162839;                                                            G      6
     502       1       1       0   65535       0       0       000010001D      1
     502    1000       0       6       1                 Tool #2       0D      2
     110       7       1       0       0       0       0       000010000D      3
     110    1000       0       1       0                               0D      4
     124       8       1       0       0       0       0       001010000D      5
     124    1000       0       2       0                               0D      6
     100      10       1       0       0       0       5       000010000D      7
     100    1000       0       2       0                               0D      8
     110      12       1       0       0       0       0       000010000D      9
     110    1000       0       1       0                               0D     10
     124      13       1       0       0       0       0       001010000D     11
     124    1000       0       2       0                               0D     12
     100      15       1       0       0       0      11       000010000D     13
     100    1000       0       2       0                               0D     14
     124      17       1       0       0       0       0       001010000D     15
     124    1000       0       2       0                               0D     16
     100      19       1       0       0       0      15       000010000D     17
     100    1000       0       2       0                               0D     18
     124      21       1       0       0       0       0       001010000D     19
     124    1000       0       2       0                               0D     20
     100      23       1       0       0       0      19       000010000D     21
     100    1000       0       1       0                               0D     22
     124      24       1       0       0       0       0       001010000D     23
     124    1000       0       2       0                               0D     24
     100      26       1       0       0       0      23       000010000D     25
     100    1000       0       1       0                               0D     26
     124      27       1       0       0       0       0       001010000D     27
     124    1000       0       2       0                               0D     28
     100      29       1       0       0       0      27       000010000D     29
     100    1000       0       1       0                               0D     30
     124      30       1       0       0       0       0       001010000D     31
     124    1000       0       2       0                               0D     32
     100      32       1       0       0       0      31       000010000D     33
     100    1000       0       2       0                               0D     34
     124      34       1       0       0       0       0       001010000D     35
     124    1000       0       2       0                               0D     36
     100      36       1       0       0       0      35       000010000D     37
     100    1000       0       1       0                               0D     38
     110      37       1       0       0       0       0       000010000D     39
     110    1000       0       1       0                               0D     40
     124      38       1       0       0       0       0       001010000D     41
     124    1000       0       2       0                               0D     42
     100      40       1       0       0       0      41       000010000D     43
     100    1000       0       2       0                               0D     44
     110      42       1       0       0       0       0       000010000D     45
     110    1000       0       1       0                               0D     46
     124      43       1       0       0       0       0       001010000D     47
     124    1000       0       2       0                               0D     48
     100      45       1       0       0       0      47       000010000D     49
     100    1000       0       2       0                               0D     50
     124      47       1       0       0       0       0       001010000D     51
     124    1000       0       2       0                               0D     52
     100      49       1       0       0       0      51       000010000D     53
     100    1000       0       1       0                               0D     54
     124      50       1       0       0       0       0       001010000D     55
     124    1000       0       2       0                               0D     56
     100      52       1       0       0       0      55       000010000D     57
     100    1000       0       1       0                               0D     58
     110      53       1       0       0       0       0       000010000D     59
     110    1000       0       1       0                               0D     60
     110      54       1       0       0       0       0       000010000D     61
     110    1000       0       1       0                               0D     62
     504      55       1       0   65535       0       0       000010001D     63
     504    1000       0       4       1                 Tool #2       0D     64
     314      59       1       0       0       0       0       000020000D     65
     314    1000       0       2       0                               0D     66
     116      61       1       0       0       0       0       000010200D     67
     116    1000       0       1       0                               0D     68
     123      62       1       0       0       0       0       000010200D     69
     123    1000       0       1       0                               0D     70
     123      63       1       0       0       0       0       000010200D     71
     123    1000       0       1       0                               0D     72
     192      64       1       0       0       0       0       000010000D     73
     192    1000     -65       1       1                               0D     74
     508      65       1       0       0       0       0       000010001D     75
     508    1000       0       1       1                               0D     76
     510      66       1       1       0       0       0       000010001D     77
     510    1000     -65       1       1                               0D     78
     116      67       1       0       0       0       0       000010200D     79
     116    1000       0       1       0                               0D     80
     123      68       1       0       0       0       0       000010200D     81
     123    1000       0       1       0                               0D     82
     123      69       1       0       0       0       0       000010200D     83
     123    1000       0       1       0                               0D     84
     190      70       1       0       0       0       0       000010000D     85
     190    1000     -65       1       1                               0D     86
     508      71       1       0       0       0       0       000010001D     87
     508    1000       0       1       1                               0D     88
     508      72       1       0       0       0       0       000010001D     89
     508    1000       0       1       1                               0D     90
     510      73       1       1       0       0       0       000010001D     91
     510    1000     -65       1       1                               0D     92
     116      74       1       0       0       0       0       000010200D     93
     116    1000       0       1       0                               0D     94
     123      75       1       0       0       0       0       000010200D     95
     123    1000       0       1       0                               0D     96
     123      76       1       0       0       0       0       000010200D     97
     123    1000       0       1       0                               0D     98
     190      77       1       0       0       0       0       000010000D     99
     190    1000     -65       1       1                               0D    100
     508      78       1       0       0       0       0       000010001D    101
     508    1000       0       1       1                               0D    102
     508      79       1       0       0       0       0       000010001D    103
     508    1000       0       1       1                               0D    104
     510      80       1       1       0       0       0       000010001D    105
     510    1000     -65       1       1                               0D    106
     116      81       1       0       0       0       0       000010200D    107
     116    1000       0       1       0                               0D    108
     123      82       1       0       0       0       0       000010200D    109
     123    1000       0       1       0                               0D    110
     123      83       1       0       0       0       0       000010200D    111
     123    1000       0       1       0                               0D    112
     192      84       1       0       0       0       0       000010000D    113
     192    1000     -65       1       1                               0D    114
     508      85       1       0       0       0       0       000010001D    115
     508    1000       0       1       1                               0D    116
     510      86       1       1       0       0       0       000010001D    117
     510    1000     -65       1       1                               0D    118
     116      87       1       0       0       0       0       000010200D    119
     116    1000       0       1       0                               0D    120
     123      88       1       0       0       0       0       000010200D    121
     123    1000       0       1       0                               0D    122
     123      89       1       0       0       0       0       000010200D    123
     123    1000       0       1       0                               0D    124
     190      90       1       0       0       0       0       000010000D    125
     190    1000     -65       1       1                               0D    126
     508      91       1       0       0       0       0       000010001D    127
     508    1000       0       1       1                               0D    128
     508      92       1       0       0       0       0       000010001D    129
     508    1000       0       1       1                               0D    130
     510      93       1       1       0       0       0       000010001D    131
     510    1000     -65       1       1                               0D    132
     116      94       1       0       0       0       0       000010200D    133
     116    1000       0       1       0                               0D    134
     123      95       1       0       0       0       0       000010200D    135
     123    1000       0       1       0                               0D    136
     123      96       1       0       0       0       0       000010200D    137
     123    1000       0       1       0                               0D    138
     192      97       1       0       0       0       0       000010000D    139
     192    1000     -65       1       1                               0D    140
     508      98       1       0       0       0       0       000010001D    141
     508    1000       0       1       1                               0D    142
     510      99       1       1       0       0       0       000010001D    143
     510    1000     -65       1       1                               0D    144
     116     100       1       0       0       0       0       000010200D    145
     116    1000       0       1       0                               0D    146
     123     101       1       0       0       0       0       000010200D    147
     123    1000       0       1       0                               0D    148
     123     102       1       0       0       0       0       000010200D    149
     123    1000       0       1       0                               0D    150
     192     103       1       0       0       0       0       000010000D    151
     192    1000     -65       1       1                               0D    152
     508     104       1       0       0       0       0       000010001D    153
     508    1000       0       1       1                               0D    154
     510     105       1       1       0       0       0       000010001D    155
     510    1000     -65       1       1                               0D    156
     116     106       1       0       0       0       0       000010200D    157
     116    1000       0       1       0                               0D    158
     123     107       1       0       0       0       0       000010200D    159
     123    1000       0       1       0                               0D    160
     123     108       1       0       0       0       0       000010200D    161
     123    1000       0       1       0                               0D    162
     192     109       1       0       0       0       0       000010000D    163
     192    1000     -65       1       1                               0D    164
     508     110       1       0       0       0       0       000010001D    165
     508    1000       0       1       1                               0D    166
     510     111       1       1       0       0       0       000010001D    167
     510    1000     -65       1       1                               0D    168
     116     112       1       0       0       0       0       000010200D    169
     116    1000       0       1       0                               0D    170
     123     113       1       0       0       0       0       000010200D    171
     123    1000       0       1       0                               0D    172
     123     114       1       0       0       0       0       000010200D    173
     123    1000       0       1       0                               0D    174
     192     115       1       0       0       0       0       000010000D    175
     192    1000     -65       1       1                               0D    176
     508     116       1       0       0       0       0       000010001D    177
     508    1000       0       1       1                               0D    178
     510     117       1       1       0       0       0       000010001D    179
     510    1000     -65       1       1                               0D    180
     514     118       1       0       0       0       0       000010000D    181
     514    1000       0       1       1                               0D    182
     186     119       1       0   65535       0       0       000000001D    183
     186    1000       0       1       0                 Tool #2       0D    184
502,12,12.6999999999492,0.,-3.5,12.6999999999492,-9.,-3.5,             1P      1
12.6999999999492,-9.,3.5,12.6999999999492,0.,3.5,                      1P      2
12.6999999999492,-9.,2.35,12.6999999999492,-9.,-2.35,                  1P      3
12.6999999999492,0.,-1.5,12.6999999999492,0.,1.5,                      1P      4
12.6999999999492,-10.,-2.35,12.6999999999492,-10.,2.35,                1P      5
12.6999999999492,-10.,1.5,12.6999999999492,-10.,-1.5,0,0;              1P      6
110,12.6999999999492,0.,-3.5,12.6999999999492,-9.,-3.5,0,0;            3P      7
124,0.,1.,0.,12.6999999999492,0.,0.,-1.,-9.,-1.,0.,0.,                 5P      8
2.14313189850787D-16,0,0;                                              5P      9
100,0.,0.,0.,-3.5,4.28626379701574D-16,3.5,                            7P     10
-8.57252759403147D-16,0,0;                                             7P     11
110,12.6999999999492,0.,3.5,12.6999999999492,-9.,3.5,0,0;              9P     12
124,0.,1.,0.,12.6999999999492,0.,0.,-1.,0.,-1.,0.,0.,                 11P     13
2.14313189850787D-16,0,0;                                             11P     14
100,0.,0.,0.,-3.5,4.28626379701574D-16,3.5,                           13P     15
-8.57252759403147D-16,0,0;                                            13P     16
124,0.,1.,0.,12.6999999999492,0.,0.,-1.,-9.,-1.,0.,0.,                15P     17
1.43895998899814D-16,0,0;                                             15P     18
100,0.,0.,0.,-2.35,2.87791997799628D-16,2.35,                         17P     19
-5.75583995599256D-16,0,0;                                            17P     20
124,0.,1.,0.,12.6999999999492,0.,0.,-1.,-9.,-1.,0.,0.,                19P     21
1.43895998899814D-16,0,0;                                             19P     22
100,0.,0.,0.,2.35,0.,-2.35,2.87791997799628D-16,0,0;                  21P     23
124,0.,1.,0.,12.6999999999492,0.,0.,-1.,-9.,-1.,0.,0.,                23P     24
2.14313189850787D-16,0,0;                                             23P     25
100,0.,0.,0.,3.5,0.,-3.5,4.28626379701574D-16,0,0;                    25P     26
124,0.,1.,0.,12.6999999999492,0.,0.,-1.,0.,-1.,0.,0.,                 27P     27
9.18485099360515D-17,0,0;                                             27P     28
100,0.,0.,0.,1.5,0.,-1.5,1.83697019872103D-16,0,0;                    29P     29
124,0.,1.,0.,12.6999999999492,0.,0.,-1.,0.,-1.,0.,0.,                 31P     30
9.18485099360515D-17,0,0;                                             31P     31
100,0.,0.,0.,-1.5,1.83697019872103D-16,1.5,                           33P     32
-3.67394039744206D-16,0,0;                                            33P     33
124,0.,1.,0.,12.6999999999492,0.,0.,-1.,0.,-1.,0.,0.,                 35P     34
2.14313189850787D-16,0,0;                                             35P     35
100,0.,0.,0.,3.5,0.,-3.5,4.28626379701574D-16,0,0;                    37P     36
110,12.6999999999492,-9.,-2.35,12.6999999999492,-10.,-2.35,0,0;       39P     37
124,0.,1.,0.,12.6999999999492,0.,0.,-1.,-10.,-1.,0.,0.,               41P     38
1.43895998899814D-16,0,0;                                             41P     39
100,0.,0.,0.,-2.35,2.87791997799628D-16,2.35,                         43P     40
-5.75583995599256D-16,0,0;                                            43P     41
110,12.6999999999492,-9.,2.35,12.6999999999492,-10.,2.35,0,0;         45P     42
124,0.,1.,0.,12.6999999999492,0.,0.,-1.,-10.,-1.,0.,0.,               47P     43
9.18485099360515D-17,0,0;                                             47P     44
100,0.,0.,0.,-1.5,1.83697019872103D-16,1.5,                           49P     45
-3.67394039744206D-16,0,0;                                            49P     46
124,0.,1.,0.,12.6999999999492,0.,0.,-1.,-10.,-1.,0.,0.,               51P     47
9.18485099360515D-17,0,0;                                             51P     48
100,0.,0.,0.,1.5,0.,-1.5,1.83697019872103D-16,0,0;                    53P     49
124,0.,1.,0.,12.6999999999492,0.,0.,-1.,-10.,-1.,0.,0.,               55P     50
1.43895998899814D-16,0,0;                                             55P     51
100,0.,0.,0.,2.35,0.,-2.35,2.87791997799628D-16,0,0;                  57P     52
110,12.6999999999492,-10.,1.5,12.6999999999492,0.,1.5,0,0;            59P     53
110,12.6999999999492,-10.,-1.5,12.6999999999492,0.,-1.5,0,0;          61P     54
504,18,3,1,1,1,2,7,1,3,1,2,9,1,4,1,3,13,1,4,1,1,17,1,5,1,6,21,1,      63P     55
6,1,5,25,1,2,1,3,29,1,7,1,8,33,1,8,1,7,37,1,1,1,4,39,1,6,1,9,43,      63P     56
1,10,1,9,45,1,5,1,10,49,1,11,1,12,53,1,12,1,11,57,1,9,1,10,59,1,      63P     57
11,1,8,61,1,12,1,7,0,0;                                               63P     58
314,49.4117660522461,49.4117660522461,52.5490226745605,5HCOLOR,       65P     59
0,0;                                                                  65P     60
116,12.6999999999492,-9.,2.14313189850787D-16,0,0,0;                  67P     61
123,0.,1.,0.,0,0,0;                                                   69P     62
123,0.,0.,1.,0,0,0;                                                   71P     63
192,67,69,3.5,71,0,0;                                                 73P     64
508,4,0,63,1,1,0,0,63,2,0,0,0,63,3,0,0,0,63,4,1,0,0,0;                75P     65
510,73,1,1,75,0,0;                                                    77P     66
116,12.6999999999492,-9.,0.,0,0,0;                                    79P     67
123,0.,-1.,0.,0,0,0;                                                  81P     68
123,1.,0.,0.,0,0,0;                                                   83P     69
190,79,81,83,0,0;                                                     85P     70
508,2,0,63,5,0,0,0,63,6,0,0,0,0;                                      87P     71
508,2,0,63,7,1,0,0,63,2,1,0,0,0;                                      89P     72
510,85,2,1,89,87,0,0;                                                 91P     73
116,12.6999999999492,0.,0.,0,0,0;                                     93P     74
123,0.,-1.,0.,0,0,0;                                                  95P     75
123,1.,0.,0.,0,0,0;                                                   97P     76
190,93,95,97,0,0;                                                     99P     77
508,2,0,63,9,0,0,0,63,8,0,0,0,0;                                     101P     78
508,2,0,63,10,1,0,0,63,4,1,0,0,0;                                    103P     79
510,99,2,1,103,101,0,0;                                              105P     80
116,12.6999999999492,-10.,1.43895998899814D-16,0,0,0;                107P     81
123,0.,1.,0.,0,0,0;                                                  109P     82
123,0.,0.,1.,0,0,0;                                                  111P     83
192,107,109,2.35,111,0,0;                                            113P     84
508,4,0,63,11,1,0,0,63,12,0,0,0,63,13,0,0,0,63,5,1,0,0,0;            115P     85
510,113,1,1,115,0,0;                                                 117P     86
116,12.6999999999492,-10.,0.,0,0,0;                                  119P     87
123,0.,-1.,0.,0,0,0;                                                 121P     88
123,1.,0.,0.,0,0,0;                                                  123P     89
190,119,121,123,0,0;                                                 125P     90
508,2,0,63,14,0,0,0,63,15,0,0,0,0;                                   127P     91
508,2,0,63,16,1,0,0,63,12,1,0,0,0;                                   129P     92
510,125,2,1,129,127,0,0;                                             131P     93
116,12.6999999999492,15.7,9.18485099360515D-17,0,0,0;                133P     94
123,0.,-1.,0.,0,0,0;                                                 135P     95
123,0.,0.,-1.,0,0,0;                                                 137P     96
192,133,135,1.5,137,0,0;                                             139P     97
508,4,0,63,9,1,0,0,63,18,0,0,0,63,14,0,0,0,63,17,1,0,0,0;            141P     98
510,139,1,1,141,0,0;                                                 143P     99
116,12.6999999999492,-9.,2.14313189850787D-16,0,0,0;                 145P    100
123,0.,1.,0.,0,0,0;                                                  147P    101
123,0.,0.,1.,0,0,0;                                                  149P    102
192,145,147,3.5,149,0,0;                                             151P    103
508,4,0,63,1,0,0,0,63,10,1,0,0,63,3,1,0,0,63,7,0,0,0,0;              153P    104
510,151,1,1,153,0,0;                                                 155P    105
116,12.6999999999492,-10.,1.43895998899814D-16,0,0,0;                157P    106
123,0.,1.,0.,0,0,0;                                                  159P    107
123,0.,0.,1.,0,0,0;                                                  161P    108
192,157,159,2.35,161,0,0;                                            163P    109
508,4,0,63,11,0,0,0,63,6,1,0,0,63,13,1,0,0,63,16,0,0,0,0;            165P    110
510,163,1,1,165,0,0;                                                 167P    111
116,12.6999999999492,15.7,9.18485099360515D-17,0,0,0;                169P    112
123,0.,-1.,0.,0,0,0;                                                 171P    113
123,0.,0.,-1.,0,0,0;                                                 173P    114
192,169,171,1.5,173,0,0;                                             175P    115
508,4,0,63,15,0,0,0,63,18,1,0,0,63,8,1,0,0,63,17,0,0,0,0;            177P    116
510,175,1,1,177,0,0;                                                 179P    117
514,9,77,1,91,1,105,0,117,1,131,1,143,0,155,1,167,1,179,0,0,0;       181P    118
186,181,1,0;0,0;                                                     183P    119
S      3G      6D    184P    119                                        T      1
