                                                                        S      1
File generated by Shapr3D Version 3.0                                   S      2
                                                                        S      3
1H,,1H;,118HC:\Users\jonat\AppData\Local\Packages\Shapr3D.Shapr3D_dvv5p1G      1
vgwv6mp\TempState\9a7d0ba6-4422-4453-a9ab-152c6913a7eb.tmp,11Htemp_exporG      2
t,7HShapr3D,3H3.0,32,24,8,56,15,118HC:\Users\jonat\AppData\Local\PackageG      3
s\Shapr3D.Shapr3D_dvv5p1vgwv6mp\TempState\9a7d0ba6-4422-4453-a9ab-152c69G      4
13a7eb.tmp,1.,2,2HMM,1000,1.,13H221207.162840,1D-05,1000000.,,,9,0,13H22G      5
1207.162840;                                                            G      6
     502       1       1       0   65535       0       0       000010001D      1
     502    1000       0      10       1                 Tool #1       0D      2
     110      11       1       0       0       0       0       000010000D      3
     110    1000       0       2       0                               0D      4
     124      13       1       0       0       0       0       001010000D      5
     124    1000       0       2       0                               0D      6
     100      15       1       0       0       0       5       000010000D      7
     100    1000       0       2       0                               0D      8
     110      17       1       0       0       0       0       000010000D      9
     110    1000       0       2       0                               0D     10
     124      19       1       0       0       0       0       001010000D     11
     124    1000       0       2       0                               0D     12
     100      21       1       0       0       0      11       000010000D     13
     100    1000       0       2       0                               0D     14
     124      23       1       0       0       0       0       001010000D     15
     124    1000       0       2       0                               0D     16
     100      25       1       0       0       0      15       000010000D     17
     100    1000       0       2       0                               0D     18
     124      27       1       0       0       0       0       001010000D     19
     124    1000       0       2       0                               0D     20
     100      29       1       0       0       0      19       000010000D     21
     100    1000       0       1       0                               0D     22
     124      30       1       0       0       0       0       001010000D     23
     124    1000       0       2       0                               0D     24
     100      32       1       0       0       0      23       000010000D     25
     100    1000       0       2       0                               0D     26
     124      34       1       0       0       0       0       001010000D     27
     124    1000       0       2       0                               0D     28
     100      36       1       0       0       0      27       000010000D     29
     100    1000       0       1       0                               0D     30
     124      37       1       0       0       0       0       001010000D     31
     124    1000       0       2       0                               0D     32
     100      39       1       0       0       0      31       000010000D     33
     100    1000       0       1       0                               0D     34
     124      40       1       0       0       0       0       001010000D     35
     124    1000       0       2       0                               0D     36
     100      42       1       0       0       0      35       000010000D     37
     100    1000       0       2       0                               0D     38
     110      44       1       0       0       0       0       000010000D     39
     110    1000       0       1       0                               0D     40
     124      45       1       0       0       0       0       001010000D     41
     124    1000       0       2       0                               0D     42
     100      47       1       0       0       0      41       000010000D     43
     100    1000       0       2       0                               0D     44
     110      49       1       0       0       0       0       000010000D     45
     110    1000       0       1       0                               0D     46
     124      50       1       0       0       0       0       001010000D     47
     124    1000       0       2       0                               0D     48
     100      52       1       0       0       0      47       000010000D     49
     100    1000       0       2       0                               0D     50
     124      54       1       0       0       0       0       001010000D     51
     124    1000       0       2       0                               0D     52
     100      56       1       0       0       0      51       000010000D     53
     100    1000       0       1       0                               0D     54
     124      57       1       0       0       0       0       001010000D     55
     124    1000       0       2       0                               0D     56
     100      59       1       0       0       0      55       000010000D     57
     100    1000       0       2       0                               0D     58
     124      61       1       0       0       0       0       001010000D     59
     124    1000       0       2       0                               0D     60
     100      63       1       0       0       0      59       000010000D     61
     100    1000       0       1       0                               0D     62
     124      64       1       0       0       0       0       001010000D     63
     124    1000       0       2       0                               0D     64
     100      66       1       0       0       0      63       000010000D     65
     100    1000       0       1       0                               0D     66
     124      67       1       0       0       0       0       001010000D     67
     124    1000       0       2       0                               0D     68
     100      69       1       0       0       0      67       000010000D     69
     100    1000       0       1       0                               0D     70
     124      70       1       0       0       0       0       001010000D     71
     124    1000       0       2       0                               0D     72
     100      72       1       0       0       0      71       000010000D     73
     100    1000       0       1       0                               0D     74
     124      73       1       0       0       0       0       001010000D     75
     124    1000       0       2       0                               0D     76
     100      75       1       0       0       0      75       000010000D     77
     100    1000       0       2       0                               0D     78
     124      77       1       0       0       0       0       001010000D     79
     124    1000       0       2       0                               0D     80
     100      79       1       0       0       0      79       000010000D     81
     100    1000       0       2       0                               0D     82
     124      81       1       0       0       0       0       001010000D     83
     124    1000       0       2       0                               0D     84
     100      83       1       0       0       0      83       000010000D     85
     100    1000       0       2       0                               0D     86
     124      85       1       0       0       0       0       001010000D     87
     124    1000       0       2       0                               0D     88
     100      87       1       0       0       0      87       000010000D     89
     100    1000       0       2       0                               0D     90
     124      89       1       0       0       0       0       001010000D     91
     124    1000       0       2       0                               0D     92
     100      91       1       0       0       0      91       000010000D     93
     100    1000       0       1       0                               0D     94
     124      92       1       0       0       0       0       001010000D     95
     124    1000       0       2       0                               0D     96
     100      94       1       0       0       0      95       000010000D     97
     100    1000       0       1       0                               0D     98
     124      95       1       0       0       0       0       001010000D     99
     124    1000       0       2       0                               0D    100
     100      97       1       0       0       0      99       000010000D    101
     100    1000       0       1       0                               0D    102
     124      98       1       0       0       0       0       001010000D    103
     124    1000       0       2       0                               0D    104
     100     100       1       0       0       0     103       000010000D    105
     100    1000       0       1       0                               0D    106
     504     101       1       0   65535       0       0       000010001D    107
     504    1000       0       6       1                 Tool #1       0D    108
     314     107       1       0       0       0       0       000020000D    109
     314    1000       0       2       0                               0D    110
     116     109       1       0       0       0       0       000010200D    111
     116    1000       0       1       0                               0D    112
     123     110       1       0       0       0       0       000010200D    113
     123    1000       0       1       0                               0D    114
     123     111       1       0       0       0       0       000010200D    115
     123    1000       0       1       0                               0D    116
     192     112       1       0       0       0       0       000010000D    117
     192    1000    -109       1       1                               0D    118
     508     113       1       0       0       0       0       000010001D    119
     508    1000       0       1       1                               0D    120
     510     114       1       1       0       0       0       000010001D    121
     510    1000    -109       1       1                               0D    122
     116     115       1       0       0       0       0       000010200D    123
     116    1000       0       1       0                               0D    124
     123     116       1       0       0       0       0       000010200D    125
     123    1000       0       1       0                               0D    126
     123     117       1       0       0       0       0       000010200D    127
     123    1000       0       1       0                               0D    128
     190     118       1       0       0       0       0       000010000D    129
     190    1000    -109       1       1                               0D    130
     508     119       1       0       0       0       0       000010001D    131
     508    1000       0       1       1                               0D    132
     510     120       1       1       0       0       0       000010001D    133
     510    1000    -109       1       1                               0D    134
     116     121       1       0       0       0       0       000010200D    135
     116    1000       0       1       0                               0D    136
     123     122       1       0       0       0       0       000010200D    137
     123    1000       0       1       0                               0D    138
     123     123       1       0       0       0       0       000010200D    139
     123    1000       0       1       0                               0D    140
     190     124       1       0       0       0       0       000010000D    141
     190    1000    -109       1       1                               0D    142
     508     125       1       0       0       0       0       000010001D    143
     508    1000       0       1       1                               0D    144
     508     126       1       0       0       0       0       000010001D    145
     508    1000       0       1       1                               0D    146
     510     127       1       1       0       0       0       000010001D    147
     510    1000    -109       1       1                               0D    148
     116     128       1       0       0       0       0       000010200D    149
     116    1000       0       1       0                               0D    150
     123     129       1       0       0       0       0       000010200D    151
     123    1000       0       1       0                               0D    152
     123     130       1       0       0       0       0       000010200D    153
     123    1000       0       1       0                               0D    154
     192     131       1       0       0       0       0       000010000D    155
     192    1000    -109       1       1                               0D    156
     508     132       1       0       0       0       0       000010001D    157
     508    1000       0       1       1                               0D    158
     510     133       1       1       0       0       0       000010001D    159
     510    1000    -109       1       1                               0D    160
     116     134       1       0       0       0       0       000010200D    161
     116    1000       0       1       0                               0D    162
     123     135       1       0       0       0       0       000010200D    163
     123    1000       0       1       0                               0D    164
     123     136       1       0       0       0       0       000010200D    165
     123    1000       0       1       0                               0D    166
     190     137       1       0       0       0       0       000010000D    167
     190    1000    -109       1       1                               0D    168
     508     138       1       0       0       0       0       000010001D    169
     508    1000       0       1       1                               0D    170
     510     139       1       1       0       0       0       000010001D    171
     510    1000    -109       1       1                               0D    172
     110     140       1       0       0       0       0       000010200D    173
     110    1000       0       2       0                               0D    174
     124     142       1       0       0       0       0       001010200D    175
     124    1000       0       2       0                               0D    176
     100     144       1       0       0       0     175       000010200D    177
     100    1000       0       1       0                               0D    178
     120     145       1       0       0       0       0       000010000D    179
     120    1000    -109       1       0                               0D    180
     508     146       1       0       0       0       0       000010001D    181
     508    1000       0       1       1                               0D    182
     510     147       1       1       0       0       0       000010001D    183
     510    1000    -109       1       1                               0D    184
     110     148       1       0       0       0       0       000010200D    185
     110    1000       0       2       0                               0D    186
     124     150       1       0       0       0       0       001010200D    187
     124    1000       0       2       0                               0D    188
     100     152       1       0       0       0     187       000010200D    189
     100    1000       0       1       0                               0D    190
     120     153       1       0       0       0       0       000010000D    191
     120    1000    -109       1       0                               0D    192
     508     154       1       0       0       0       0       000010001D    193
     508    1000       0       1       1                               0D    194
     510     155       1       1       0       0       0       000010001D    195
     510    1000    -109       1       1                               0D    196
     110     156       1       0       0       0       0       000010200D    197
     110    1000       0       2       0                               0D    198
     124     158       1       0       0       0       0       001010200D    199
     124    1000       0       2       0                               0D    200
     100     160       1       0       0       0     199       000010200D    201
     100    1000       0       1       0                               0D    202
     120     161       1       0       0       0       0       000010000D    203
     120    1000    -109       1       0                               0D    204
     508     162       1       0       0       0       0       000010001D    205
     508    1000       0       1       1                               0D    206
     510     163       1       1       0       0       0       000010001D    207
     510    1000    -109       1       1                               0D    208
     110     164       1       0       0       0       0       000010200D    209
     110    1000       0       2       0                               0D    210
     124     166       1       0       0       0       0       001010200D    211
     124    1000       0       2       0                               0D    212
     100     168       1       0       0       0     211       000010200D    213
     100    1000       0       1       0                               0D    214
     120     169       1       0       0       0       0       000010000D    215
     120    1000    -109       1       0                               0D    216
     508     170       1       0       0       0       0       000010001D    217
     508    1000       0       1       1                               0D    218
     510     171       1       1       0       0       0       000010001D    219
     510    1000    -109       1       1                               0D    220
     116     172       1       0       0       0       0       000010200D    221
     116    1000       0       1       0                               0D    222
     123     173       1       0       0       0       0       000010200D    223
     123    1000       0       1       0                               0D    224
     123     174       1       0       0       0       0       000010200D    225
     123    1000       0       1       0                               0D    226
     192     175       1       0       0       0       0       000010000D    227
     192    1000    -109       1       1                               0D    228
     508     176       1       0       0       0       0       000010001D    229
     508    1000       0       1       1                               0D    230
     510     177       1       1       0       0       0       000010001D    231
     510    1000    -109       1       1                               0D    232
     116     178       1       0       0       0       0       000010200D    233
     116    1000       0       1       0                               0D    234
     123     179       1       0       0       0       0       000010200D    235
     123    1000       0       1       0                               0D    236
     123     180       1       0       0       0       0       000010200D    237
     123    1000       0       1       0                               0D    238
     192     181       1       0       0       0       0       000010000D    239
     192    1000    -109       1       1                               0D    240
     508     182       1       0       0       0       0       000010001D    241
     508    1000       0       1       1                               0D    242
     510     183       1       1       0       0       0       000010001D    243
     510    1000    -109       1       1                               0D    244
     110     184       1       0       0       0       0       000010200D    245
     110    1000       0       2       0                               0D    246
     124     186       1       0       0       0       0       001010200D    247
     124    1000       0       2       0                               0D    248
     100     188       1       0       0       0     247       000010200D    249
     100    1000       0       1       0                               0D    250
     120     189       1       0       0       0       0       000010000D    251
     120    1000    -109       1       0                               0D    252
     508     190       1       0       0       0       0       000010001D    253
     508    1000       0       1       1                               0D    254
     510     191       1       1       0       0       0       000010001D    255
     510    1000    -109       1       1                               0D    256
     110     192       1       0       0       0       0       000010200D    257
     110    1000       0       2       0                               0D    258
     124     194       1       0       0       0       0       001010200D    259
     124    1000       0       2       0                               0D    260
     100     196       1       0       0       0     259       000010200D    261
     100    1000       0       1       0                               0D    262
     120     197       1       0       0       0       0       000010000D    263
     120    1000    -109       1       0                               0D    264
     508     198       1       0       0       0       0       000010001D    265
     508    1000       0       1       1                               0D    266
     510     199       1       1       0       0       0       000010001D    267
     510    1000    -109       1       1                               0D    268
     110     200       1       0       0       0       0       000010200D    269
     110    1000       0       2       0                               0D    270
     124     202       1       0       0       0       0       001010200D    271
     124    1000       0       2       0                               0D    272
     100     204       1       0       0       0     271       000010200D    273
     100    1000       0       1       0                               0D    274
     120     205       1       0       0       0       0       000010000D    275
     120    1000    -109       1       0                               0D    276
     508     206       1       0       0       0       0       000010001D    277
     508    1000       0       1       1                               0D    278
     510     207       1       1       0       0       0       000010001D    279
     510    1000    -109       1       1                               0D    280
     110     208       1       0       0       0       0       000010200D    281
     110    1000       0       2       0                               0D    282
     124     210       1       0       0       0       0       001010200D    283
     124    1000       0       2       0                               0D    284
     100     212       1       0       0       0     283       000010200D    285
     100    1000       0       1       0                               0D    286
     120     213       1       0       0       0       0       000010000D    287
     120    1000    -109       1       0                               0D    288
     508     214       1       0       0       0       0       000010001D    289
     508    1000       0       1       1                               0D    290
     510     215       1       1       0       0       0       000010001D    291
     510    1000    -109       1       1                               0D    292
     514     216       1       0       0       0       0       000010000D    293
     514    1000       0       2       1                               0D    294
     186     218       1       0   65535       0       0       000000001D    295
     186    1000       0       1       0                 Tool #1       0D    296
502,16,25.4000000001016,0.0499999999999997,3.5,25.4000000001016,       1P      1
11.95,3.5,25.4000000001016,11.95,-3.5,25.4000000001016,                1P      2
0.0499999999999997,-3.5,25.4000000001016,12.,-3.45,                    1P      3
25.4000000001016,12.,3.45,25.4000000001016,8.80914265144472D-17,       1P      4
-3.,25.4000000001016,0.,3.,25.4000000001016,                           1P      5
-1.52465930505774D-16,-3.45,25.4000000001016,0.,3.45,                  1P      6
25.4000000001016,-0.0999999999999998,-2.9,25.4000000001016,            1P      7
-2.95,-2.9,25.4000000001016,-2.95,2.9,25.4000000001016,                1P      8
-0.0999999999999998,2.9,25.4000000001016,-3.,-2.85,                    1P      9
25.4000000001016,-3.,2.85,0,0;                                         1P     10
110,25.4000000001016,0.0499999999999989,3.5,25.4000000001016,          3P     11
11.95,3.5,0,0;                                                         3P     12
124,0.,1.,0.,25.4000000001016,0.,0.,-1.,11.95,-1.,0.,0.,               5P     13
2.14313189850787D-16,0,0;                                              5P     14
100,0.,0.,0.,-3.5,1.98293861417679D-15,3.5,                            7P     15
-8.57252759403147D-16,0,0;                                             7P     16
110,25.4000000001016,0.0499999999999989,-3.5,25.4000000001016,         9P     17
11.95,-3.5,0,0;                                                        9P     18
124,0.,1.,0.,25.4000000001016,0.,0.,1.,0.0499999999999997,1.,0.,      11P     19
0.,2.14313189850787D-16,0,0;                                          11P     20
100,0.,0.,0.,-3.5,-8.57252759403147D-16,3.5,                          13P     21
-2.67999808924886D-15,0,0;                                            13P     22
124,0.,1.,0.,25.4000000001016,0.,0.,1.,12.,1.,0.,0.,                  15P     23
2.14313189850787D-16,0,0;                                             15P     24
100,0.,0.,0.,-3.45,-8.45006291411674D-16,3.45,                        17P     25
4.22503145705837D-16,0,0;                                             17P     26
124,0.,1.,0.,25.4000000001016,0.,0.,1.,12.,1.,0.,0.,                  19P     27
2.14313189850787D-16,0,0;                                             19P     28
100,0.,0.,0.,3.45,4.22503145705837D-16,-3.45,0.,0,0;                  21P     29
124,0.,1.,0.,25.4000000001016,0.,0.,1.,0.,1.,0.,0.,                   23P     30
1.77573785876366D-16,0,0;                                             23P     31
100,0.,0.,0.,-3.,-7.34788079488412D-16,3.,3.67394039744206D-16,       25P     32
0,0;                                                                  25P     33
124,0.,1.,0.,25.4000000001016,0.,0.,1.,0.,1.,0.,0.,                   27P     34
1.77573785876366D-16,0,0;                                             27P     35
100,0.,0.,0.,3.,3.67394039744206D-16,-3.,0.,0,0;                      29P     36
124,0.,1.,0.,25.4000000001016,0.,0.,-1.,0.,-1.,0.,0.,                 31P     37
2.14313189850787D-16,0,0;                                             31P     38
100,0.,0.,0.,3.45,0.,-3.45,5.01882646765398D-15,0,0;                  33P     39
124,0.,1.,0.,25.4000000001016,0.,0.,-1.,0.,-1.,0.,0.,                 35P     40
2.14313189850787D-16,0,0;                                             35P     41
100,0.,0.,0.,-3.45,5.01882646765398D-15,3.45,                         37P     42
-8.45006291411674D-16,0,0;                                            37P     43
110,25.4000000001016,-0.1,-2.9,25.4000000001016,-2.95,-2.9,0,0;       39P     44
124,0.,1.,0.,25.4000000001016,0.,0.,1.,-2.95,1.,0.,0.,                41P     45
1.77573785876366D-16,0,0;                                             41P     46
100,0.,0.,0.,-2.9,-7.10295143505465D-16,2.9,                          43P     47
3.55147571752732D-16,0,0;                                             43P     48
110,25.4000000001016,-0.1,2.9,25.4000000001016,-2.95,2.9,0,0;         45P     49
124,0.,1.,0.,25.4000000001016,0.,0.,-1.,-0.0999999999999998,-1.,      47P     50
0.,0.,1.77573785876366D-16,0,0;                                       47P     51
100,0.,0.,0.,-2.9,3.55147571752732D-16,2.9,                           49P     52
-7.10295143505465D-16,0,0;                                            49P     53
124,0.,1.,0.,25.4000000001016,0.,0.,-1.,-3.,-1.,0.,0.,                51P     54
1.77573785876366D-16,0,0;                                             51P     55
100,0.,0.,0.,2.85,0.,-2.85,3.49024337756996D-16,0,0;                  53P     56
124,0.,1.,0.,25.4000000001016,0.,0.,-1.,-3.,-1.,0.,0.,                55P     57
1.77573785876366D-16,0,0;                                             55P     58
100,0.,0.,0.,-2.85,3.49024337756996D-16,2.85,                         57P     59
-6.98048675513991D-16,0,0;                                            57P     60
124,-1.22464679914735D-16,0.,-1.,25.4000000001016,0.,-1.,0.,          59P     61
0.0499999999999997,-1.,0.,1.22464679914735D-16,3.45,0,0;              59P     62
100,0.,0.,0.,-3.06161699786838D-18,0.05,-0.05,0.,0,0;                 61P     63
124,0.,0.,1.,25.4000000001016,0.,-1.,0.,0.0499999999999997,1.,        63P     64
0.,-0.,-3.45,0,0;                                                     63P     65
100,0.,0.,0.,-3.06161699786838D-18,0.05,-0.05,0.,0,0;                 65P     66
124,-1.22464679914735D-16,0.,-1.,25.4000000001016,0.,-1.,0.,          67P     67
-2.95,-1.,0.,1.22464679914735D-16,2.85,0,0;                           67P     68
100,0.,0.,0.,-3.06161699786838D-18,0.05,-0.05,0.,0,0;                 69P     69
124,0.,0.,1.,25.4000000001016,0.,-1.,0.,-2.95,1.,0.,-0.,-2.85,0,      71P     70
0;                                                                    71P     71
100,0.,0.,0.,-3.06161699786838D-18,0.05,-0.05,0.,0,0;                 73P     72
124,-1.22464679914735D-16,0.,-1.,25.4000000001016,0.,-1.,0.,          75P     73
-0.0999999999999998,-1.,0.,1.22464679914735D-16,3.,0,0;               75P     74
100,0.,0.,0.,1.83697019872103D-17,-0.1,0.1,1.22464679914735D-17,      77P     75
0,0;                                                                  77P     76
124,0.,0.,1.,25.4000000001016,0.,-1.,0.,-0.0999999999999998,1.,       79P     77
0.,-0.,-3.,0,0;                                                       79P     78
100,0.,0.,0.,1.83697019872103D-17,-0.1,0.1,1.22464679914735D-17,      81P     79
0,0;                                                                  81P     80
124,-1.22464679914735D-16,0.,-1.,25.4000000001016,0.,-1.,0.,          83P     81
11.95,-1.,0.,1.22464679914735D-16,3.45,0,0;                           83P     82
100,0.,0.,0.,-0.05,-1.22464679914735D-17,9.18485099360515D-18,        85P     83
-0.05,0,0;                                                            85P     84
124,0.,0.,1.,25.4000000001016,0.,-1.,0.,11.95,1.,0.,-0.,-3.45,0,      87P     85
0;                                                                    87P     86
100,0.,0.,0.,-0.05,-1.22464679914735D-17,9.18485099360515D-18,        89P     87
-0.05,0,0;                                                            89P     88
124,0.,1.,0.,25.4000000001016,0.,0.,1.,0.0499999999999997,1.,0.,      91P     89
0.,2.14313189850787D-16,0,0;                                          91P     90
100,0.,0.,0.,3.5,-2.67999808924886D-15,-3.5,0.,0,0;                   93P     91
124,0.,1.,0.,25.4000000001016,0.,0.,-1.,11.95,-1.,0.,0.,              95P     92
2.14313189850787D-16,0,0;                                             95P     93
100,0.,0.,0.,3.5,0.,-3.5,1.98293861417679D-15,0,0;                    97P     94
124,0.,1.,0.,25.4000000001016,0.,0.,-1.,-0.0999999999999998,-1.,      99P     95
0.,0.,1.77573785876366D-16,0,0;                                       99P     96
100,0.,0.,0.,2.9,0.,-2.9,3.55147571752732D-16,0,0;                   101P     97
124,0.,1.,0.,25.4000000001016,0.,0.,1.,-2.95,1.,0.,0.,               103P     98
1.77573785876366D-16,0,0;                                            103P     99
100,0.,0.,0.,2.9,3.55147571752732D-16,-2.9,0.,0,0;                   105P    100
504,28,3,1,1,1,2,7,1,2,1,3,9,1,4,1,3,13,1,4,1,1,17,1,5,1,6,21,1,     107P    101
6,1,5,25,1,7,1,8,29,1,8,1,7,33,1,9,1,10,37,1,10,1,9,39,1,11,1,       107P    102
12,43,1,12,1,13,45,1,14,1,13,49,1,14,1,11,53,1,15,1,16,57,1,16,      107P    103
1,15,61,1,10,1,1,65,1,9,1,4,69,1,16,1,13,73,1,15,1,12,77,1,8,1,      107P    104
14,81,1,7,1,11,85,1,2,1,6,89,1,3,1,5,93,1,1,1,4,97,1,3,1,2,101,      107P    105
1,11,1,14,105,1,13,1,12,0,0;                                         107P    106
314,49.4117660522461,49.4117660522461,52.5490226745605,5HCOLOR,      109P    107
0,0;                                                                 109P    108
116,25.4000000001016,12.,2.14313189850787D-16,0,0,0;                 111P    109
123,0.,-1.,0.,0,0,0;                                                 113P    110
123,0.,0.,-1.,0,0,0;                                                 115P    111
192,111,113,3.5,115,0,0;                                             117P    112
508,4,0,107,1,1,0,0,107,2,1,0,0,107,3,0,0,0,107,4,1,0,0,0;           119P    113
510,117,1,1,119,0,0;                                                 121P    114
116,25.4000000001016,12.,0.,0,0,0;                                   123P    115
123,0.,-1.,0.,0,0,0;                                                 125P    116
123,1.,0.,0.,0,0,0;                                                  127P    117
190,123,125,127,0,0;                                                 129P    118
508,2,0,107,6,0,0,0,107,5,0,0,0,0;                                   131P    119
510,129,1,1,131,0,0;                                                 133P    120
116,25.4000000001016,0.,0.,0,0,0;                                    135P    121
123,0.,-1.,0.,0,0,0;                                                 137P    122
123,1.,0.,0.,0,0,0;                                                  139P    123
190,135,137,139,0,0;                                                 141P    124
508,2,0,107,7,1,0,0,107,8,1,0,0,0;                                   143P    125
508,2,0,107,9,1,0,0,107,10,1,0,0,0;                                  145P    126
510,141,2,1,145,143,0,0;                                             147P    127
116,25.4000000001016,-3.,1.77573785876366D-16,0,0,0;                 149P    128
123,0.,1.,0.,0,0,0;                                                  151P    129
123,0.,0.,1.,0,0,0;                                                  153P    130
192,149,151,2.9,153,0,0;                                             155P    131
508,4,0,107,11,1,0,0,107,12,1,0,0,107,13,0,0,0,107,14,1,0,0,0;       157P    132
510,155,1,1,157,0,0;                                                 159P    133
116,25.4000000001016,-3.,0.,0,0,0;                                   161P    134
123,0.,-1.,0.,0,0,0;                                                 163P    135
123,1.,0.,0.,0,0,0;                                                  165P    136
190,161,163,165,0,0;                                                 167P    137
508,2,0,107,15,1,0,0,107,16,1,0,0,0;                                 169P    138
510,167,1,1,169,0,0;                                                 171P    139
110,25.4000000001016,0.0499999999999997,2.14313189850787D-16,        173P    140
25.4000000001016,-0.95,2.14313189850787D-16,0,0;                     173P    141
124,0.,-0.,-1.,25.4000000001016,0.,-1.,0.,0.0499999999999997,        175P    142
-1.,-0.,0.,-3.45,0,0;                                                175P    143
100,0.,0.,0.,0.05,0.,0.05,-1.22464679914735D-17,0,0;                 177P    144
120,173,177,0.,6.28318530717959,0,0;                                 179P    145
508,4,0,107,10,1,0,0,107,18,1,0,0,107,4,1,0,0,107,17,0,0,0,0;        181P    146
510,179,1,1,181,0,0;                                                 183P    147
110,25.4000000001016,-2.95,1.77573785876366D-16,                     185P    148
25.4000000001016,-3.95,1.77573785876366D-16,0,0;                     185P    149
124,0.,-0.,-1.,25.4000000001016,0.,-1.,0.,-2.95,-1.,-0.,0.,          187P    150
-2.85,0,0;                                                           187P    151
100,0.,0.,0.,0.05,0.,0.05,-1.22464679914735D-17,0,0;                 189P    152
120,185,189,0.,6.28318530717959,0,0;                                 191P    153
508,4,0,107,16,1,0,0,107,20,1,0,0,107,12,1,0,0,107,19,0,0,0,0;       193P    154
510,191,1,1,193,0,0;                                                 195P    155
110,25.4000000001016,-0.0999999999999998,1.77573785876366D-16,       197P    156
25.4000000001016,-1.1,1.77573785876366D-16,0,0;                      197P    157
124,0.,-0.,-1.,25.4000000001016,0.,-1.,0.,-0.0999999999999998,       199P    158
-1.,-0.,0.,-3.,0,0;                                                  199P    159
100,0.,0.,0.,0.1,0.,0.1,-2.44929359829471D-17,0,0;                   201P    160
120,197,201,0.,6.28318530717959,0,0;                                 203P    161
508,4,0,107,21,0,0,0,107,7,0,0,0,107,22,1,0,0,107,14,0,0,0,0;        205P    162
510,203,1,1,205,0,0;                                                 207P    163
110,25.4000000001016,11.95,2.14313189850787D-16,                     209P    164
25.4000000001016,10.95,2.14313189850787D-16,0,0;                     209P    165
124,0.,-0.,-1.,25.4000000001016,0.,-1.,0.,11.95,-1.,-0.,0.,          211P    166
-3.45,0,0;                                                           211P    167
100,0.,0.,0.,0.05,0.,0.05,-1.22464679914735D-17,0,0;                 213P    168
120,209,213,0.,6.28318530717959,0,0;                                 215P    169
508,4,0,107,2,1,0,0,107,24,1,0,0,107,5,1,0,0,107,23,0,0,0,0;         217P    170
510,215,1,1,217,0,0;                                                 219P    171
116,25.4000000001016,12.,2.14313189850787D-16,0,0,0;                 221P    172
123,0.,-1.,0.,0,0,0;                                                 223P    173
123,0.,0.,-1.,0,0,0;                                                 225P    174
192,221,223,3.5,225,0,0;                                             227P    175
508,4,0,107,1,0,0,0,107,25,1,0,0,107,3,1,0,0,107,26,1,0,0,0;         229P    176
510,227,1,1,229,0,0;                                                 231P    177
116,25.4000000001016,-3.,1.77573785876366D-16,0,0,0;                 233P    178
123,0.,1.,0.,0,0,0;                                                  235P    179
123,0.,0.,1.,0,0,0;                                                  237P    180
192,233,235,2.9,237,0,0;                                             239P    181
508,4,0,107,11,0,0,0,107,27,1,0,0,107,13,1,0,0,107,28,1,0,0,0;       241P    182
510,239,1,1,241,0,0;                                                 243P    183
110,25.4000000001016,0.0499999999999997,2.14313189850787D-16,        245P    184
25.4000000001016,-0.95,2.14313189850787D-16,0,0;                     245P    185
124,0.,-0.,-1.,25.4000000001016,0.,-1.,0.,0.0499999999999997,        247P    186
-1.,-0.,0.,-3.45,0,0;                                                247P    187
100,0.,0.,0.,0.05,0.,0.05,-1.22464679914735D-17,0,0;                 249P    188
120,245,249,0.,6.28318530717959,0,0;                                 251P    189
508,4,0,107,25,1,0,0,107,18,0,0,0,107,9,1,0,0,107,17,1,0,0,0;        253P    190
510,251,1,1,253,0,0;                                                 255P    191
110,25.4000000001016,-2.95,1.77573785876366D-16,                     257P    192
25.4000000001016,-3.95,1.77573785876366D-16,0,0;                     257P    193
124,0.,-0.,-1.,25.4000000001016,0.,-1.,0.,-2.95,-1.,-0.,0.,          259P    194
-2.85,0,0;                                                           259P    195
100,0.,0.,0.,0.05,0.,0.05,-1.22464679914735D-17,0,0;                 261P    196
120,257,261,0.,6.28318530717959,0,0;                                 263P    197
508,4,0,107,28,1,0,0,107,20,0,0,0,107,15,1,0,0,107,19,1,0,0,0;       265P    198
510,263,1,1,265,0,0;                                                 267P    199
110,25.4000000001016,-0.0999999999999998,1.77573785876366D-16,       269P    200
25.4000000001016,-1.1,1.77573785876366D-16,0,0;                      269P    201
124,0.,-0.,-1.,25.4000000001016,0.,-1.,0.,-0.0999999999999998,       271P    202
-1.,-0.,0.,-3.,0,0;                                                  271P    203
100,0.,0.,0.,0.1,0.,0.1,-2.44929359829471D-17,0,0;                   273P    204
120,269,273,0.,6.28318530717959,0,0;                                 275P    205
508,4,0,107,21,1,0,0,107,27,0,0,0,107,22,0,0,0,107,8,0,0,0,0;        277P    206
510,275,1,1,277,0,0;                                                 279P    207
110,25.4000000001016,11.95,2.14313189850787D-16,                     281P    208
25.4000000001016,10.95,2.14313189850787D-16,0,0;                     281P    209
124,0.,-0.,-1.,25.4000000001016,0.,-1.,0.,11.95,-1.,-0.,0.,          283P    210
-3.45,0,0;                                                           283P    211
100,0.,0.,0.,0.05,0.,0.05,-1.22464679914735D-17,0,0;                 285P    212
120,281,285,0.,6.28318530717959,0,0;                                 287P    213
508,4,0,107,6,1,0,0,107,24,0,0,0,107,26,1,0,0,107,23,1,0,0,0;        289P    214
510,287,1,1,289,0,0;                                                 291P    215
514,15,121,1,133,0,147,1,159,1,171,1,183,0,195,0,207,1,219,0,        293P    216
231,1,243,1,255,0,267,0,279,1,291,0,0,0;                             293P    217
186,293,1,0;0,0;                                                     295P    218
S      3G      6D    296P    218                                        T      1
