  0
SECTION
  2
HEADER
  9
$ACADVER
  1
AC1024
  9
$ACADMAINTVER
 70
     6
  9
$DWGCODEPAGE
  3
ANSI_1252
  9
$INSBASE
 10
0.0
 20
0.0
 30
0.0
  9
$EXTMIN
 10
1.000000000000000E+20
 20
1.000000000000000E+20
 30
1.000000000000000E+20
  9
$EXTMAX
 10
-1.000000000000000E+20
 20
-1.000000000000000E+20
 30
-1.000000000000000E+20
  9
$LIMMIN
 10
0.0
 20
0.0
  9
$LIMMAX
 10
420.0
 20
297.0
  9
$ORTHOMODE
 70
     0
  9
$REGENMODE
 70
     1
  9
$FILLMODE
 70
     1
  9
$QTEXTMODE
 70
     0
  9
$MIRRTEXT
 70
     1
  9
$LTSCALE
 40
1.0
  9
$ATTMODE
 70
     1
  9
$TEXTSIZE
 40
2.5
  9
$TRACEWID
 40
1.0
  9
$TEXTSTYLE
  7
Standard
  9
$CLAYER
  8
0
  9
$CELTYPE
  6
ByLayer
  9
$CECOLOR
 62
   256
  9
$CELTSCALE
 40
1.0
  9
$DISPSILH
 70
     0
  9
$DIMSCALE
 40
1.0
  9
$DIMASZ
 40
2.5
  9
$DIMEXO
 40
0.625
  9
$DIMDLI
 40
3.75
  9
$DIMRND
 40
0.0
  9
$DIMDLE
 40
0.0
  9
$DIMEXE
 40
1.25
  9
$DIMTP
 40
0.0
  9
$DIMTM
 40
0.0
  9
$DIMTXT
 40
2.5
  9
$DIMCEN
 40
2.5
  9
$DIMTSZ
 40
0.0
  9
$DIMTOL
 70
     0
  9
$DIMLIM
 70
     0
  9
$DIMTIH
 70
     0
  9
$DIMTOH
 70
     0
  9
$DIMSE1
 70
     0
  9
$DIMSE2
 70
     0
  9
$DIMTAD
 70
     1
  9
$DIMZIN
 70
     8
  9
$DIMBLK
  1

  9
$DIMASO
 70
     1
  9
$DIMSHO
 70
     1
  9
$DIMPOST
  1

  9
$DIMAPOST
  1

  9
$DIMALT
 70
     0
  9
$DIMALTD
 70
     3
  9
$DIMALTF
 40
0.0393700787401575
  9
$DIMLFAC
 40
1.0
  9
$DIMTOFL
 70
     1
  9
$DIMTVP
 40
0.0
  9
$DIMTIX
 70
     0
  9
$DIMSOXD
 70
     0
  9
$DIMSAH
 70
     0
  9
$DIMBLK1
  1

  9
$DIMBLK2
  1

  9
$DIMSTYLE
  2
ISO-25
  9
$DIMCLRD
 70
     0
  9
$DIMCLRE
 70
     0
  9
$DIMCLRT
 70
     0
  9
$DIMTFAC
 40
1.0
  9
$DIMGAP
 40
0.7
  9
$DIMJUST
 70
     0
  9
$DIMSD1
 70
     0
  9
$DIMSD2
 70
     0
  9
$DIMTOLJ
 70
     0
  9
$DIMTZIN
 70
     8
  9
$DIMALTZ
 70
     0
  9
$DIMALTTZ
 70
     0
  9
$DIMUPT
 70
     0
  9
$DIMDEC
 70
     2
  9
$DIMTDEC
 70
     2
  9
$DIMALTU
 70
     2
  9
$DIMALTTD
 70
     3
  9
$DIMTXSTY
  7
Standard
  9
$DIMAUNIT
 70
     0
  9
$DIMADEC
 70
     0
  9
$DIMALTRND
 40
0.0
  9
$DIMAZIN
 70
     0
  9
$DIMDSEP
 70
    44
  9
$DIMATFIT
 70
     3
  9
$DIMFRAC
 70
     2
  9
$DIMLDRBLK
  1

  9
$DIMLUNIT
 70
     2
  9
$DIMLWD
 70
    15
  9
$DIMLWE
 70
    15
  9
$DIMTMOVE
 70
     0
  9
$DIMFXL
 40
1.0
  9
$DIMFXLON
 70
     0
  9
$DIMJOGANG
 40
0.7853981633974483
  9
$DIMTFILL
 70
     0
  9
$DIMTFILLCLR
 70
     0
  9
$DIMARCSYM
 70
     0
  9
$DIMLTYPE
  6

  9
$DIMLTEX1
  6

  9
$DIMLTEX2
  6

  9
$DIMTXTDIRECTION
 70
     0
  9
$LUNITS
 70
     2
  9
$LUPREC
 70
     4
  9
$SKETCHINC
 40
1.0
  9
$FILLETRAD
 40
0.0
  9
$AUNITS
 70
     0
  9
$AUPREC
 70
     0
  9
$MENU
  1
.
  9
$ELEVATION
 40
0.0
  9
$PELEVATION
 40
0.0
  9
$THICKNESS
 40
0.0
  9
$LIMCHECK
 70
     0
  9
$CHAMFERA
 40
0.0
  9
$CHAMFERB
 40
0.0
  9
$CHAMFERC
 40
0.0
  9
$CHAMFERD
 40
0.0
  9
$SKPOLY
 70
     0
  9
$TDCREATE
 40
2459913.650460973
  9
$TDUCREATE
 40
2459913.900460973
  9
$TDUPDATE
 40
2459913.650461077
  9
$TDUUPDATE
 40
2459913.900461077
  9
$TDINDWG
 40
0.0000000116
  9
$TDUSRTIMER
 40
0.0000000116
  9
$USRTIMER
 70
     1
  9
$ANGBASE
 50
0.0
  9
$ANGDIR
 70
     0
  9
$PDMODE
 70
     0
  9
$PDSIZE
 40
0.0
  9
$PLINEWID
 40
0.0
  9
$SPLFRAME
 70
     0
  9
$SPLINETYPE
 70
     6
  9
$SPLINESEGS
 70
     8
  9
$HANDSEED
  5
176
  9
$SURFTAB1
 70
     6
  9
$SURFTAB2
 70
     6
  9
$SURFTYPE
 70
     6
  9
$SURFU
 70
     6
  9
$SURFV
 70
     6
  9
$UCSBASE
  2

  9
$UCSNAME
  2

  9
$UCSORG
 10
0.0
 20
0.0
 30
0.0
  9
$UCSXDIR
 10
1.0
 20
0.0
 30
0.0
  9
$UCSYDIR
 10
0.0
 20
1.0
 30
0.0
  9
$UCSORTHOREF
  2

  9
$UCSORTHOVIEW
 70
     0
  9
$UCSORGTOP
 10
0.0
 20
0.0
 30
0.0
  9
$UCSORGBOTTOM
 10
0.0
 20
0.0
 30
0.0
  9
$UCSORGLEFT
 10
0.0
 20
0.0
 30
0.0
  9
$UCSORGRIGHT
 10
0.0
 20
0.0
 30
0.0
  9
$UCSORGFRONT
 10
0.0
 20
0.0
 30
0.0
  9
$UCSORGBACK
 10
0.0
 20
0.0
 30
0.0
  9
$PUCSBASE
  2

  9
$PUCSNAME
  2

  9
$PUCSORG
 10
0.0
 20
0.0
 30
0.0
  9
$PUCSXDIR
 10
1.0
 20
0.0
 30
0.0
  9
$PUCSYDIR
 10
0.0
 20
1.0
 30
0.0
  9
$PUCSORTHOREF
  2

  9
$PUCSORTHOVIEW
 70
     0
  9
$PUCSORGTOP
 10
0.0
 20
0.0
 30
0.0
  9
$PUCSORGBOTTOM
 10
0.0
 20
0.0
 30
0.0
  9
$PUCSORGLEFT
 10
0.0
 20
0.0
 30
0.0
  9
$PUCSORGRIGHT
 10
0.0
 20
0.0
 30
0.0
  9
$PUCSORGFRONT
 10
0.0
 20
0.0
 30
0.0
  9
$PUCSORGBACK
 10
0.0
 20
0.0
 30
0.0
  9
$USERI1
 70
     0
  9
$USERI2
 70
     0
  9
$USERI3
 70
     0
  9
$USERI4
 70
     0
  9
$USERI5
 70
     0
  9
$USERR1
 40
0.0
  9
$USERR2
 40
0.0
  9
$USERR3
 40
0.0
  9
$USERR4
 40
0.0
  9
$USERR5
 40
0.0
  9
$WORLDVIEW
 70
     1
  9
$SHADEDGE
 70
     3
  9
$SHADEDIF
 70
    70
  9
$TILEMODE
 70
     0
  9
$MAXACTVP
 70
    64
  9
$PINSBASE
 10
0.0
 20
0.0
 30
0.0
  9
$PLIMCHECK
 70
     0
  9
$PEXTMIN
 10
0.0
 20
0.0
 30
0.0
  9
$PEXTMAX
 10
0.0
 20
0.0
 30
0.0
  9
$PLIMMIN
 10
-20.0
 20
-7.5
  9
$PLIMMAX
 10
277.0
 20
202.5
  9
$UNITMODE
 70
     0
  9
$VISRETAIN
 70
     1
  9
$PLINEGEN
 70
     0
  9
$PSLTSCALE
 70
     1
  9
$TREEDEPTH
 70
  3020
  9
$CMLSTYLE
  2
Standard
  9
$CMLJUST
 70
     0
  9
$CMLSCALE
 40
20.0
  9
$PROXYGRAPHICS
 70
     1
  9
$MEASUREMENT
 70
     1
  9
$CELWEIGHT
370
    -1
  9
$ENDCAPS
280
     0
  9
$JOINSTYLE
280
     0
  9
$LWDISPLAY
290
     0
  9
$INSUNITS
 70
     4
  9
$HYPERLINKBASE
  1

  9
$STYLESHEET
  1

  9
$XEDIT
290
     1
  9
$CEPSNTYPE
380
     0
  9
$PSTYLEMODE
290
     1
  9
$FINGERPRINTGUID
  2
{cc8187cd-6c8d-9745-89b5-4f83ab147993}
  9
$VERSIONGUID
  2
{FAEB1C32-E019-11D5-929B-00C0DF256EC4}
  9
$EXTNAMES
290
     1
  9
$PSVPSCALE
 40
0.0
  9
$OLESTARTUP
290
     0
  9
$SORTENTS
280
   127
  9
$INDEXCTL
280
     0
  9
$HIDETEXT
280
     1
  9
$XCLIPFRAME
280
     2
  9
$HALOGAP
280
     0
  9
$OBSCOLOR
 70
   257
  9
$OBSLTYPE
280
     0
  9
$INTERSECTIONDISPLAY
280
     0
  9
$INTERSECTIONCOLOR
 70
   257
  9
$DIMASSOC
280
     2
  9
$PROJECTNAME
  1

  9
$CAMERADISPLAY
290
     0
  9
$LENSLENGTH
 40
50.0
  9
$CAMERAHEIGHT
 40
0.0
  9
$STEPSPERSEC
 40
2.0
  9
$STEPSIZE
 40
6.0
  9
$3DDWFPREC
 40
2.0
  9
$PSOLWIDTH
 40
5.0
  9
$PSOLHEIGHT
 40
80.0
  9
$LOFTANG1
 40
1.570796326794897
  9
$LOFTANG2
 40
1.570796326794897
  9
$LOFTMAG1
 40
0.0
  9
$LOFTMAG2
 40
0.0
  9
$LOFTPARAM
 70
     7
  9
$LOFTNORMALS
280
     1
  9
$LATITUDE
 40
37.795
  9
$LONGITUDE
 40
-122.394
  9
$NORTHDIRECTION
 40
0.0
  9
$TIMEZONE
 70
 -8000
  9
$LIGHTGLYPHDISPLAY
280
     1
  9
$TILEMODELIGHTSYNCH
280
     1
  9
$CMATERIAL
347
44
  9
$SOLIDHIST
280
     0
  9
$SHOWHIST
280
     1
  9
$DWFFRAME
280
     2
  9
$DGNFRAME
280
     2
  9
$REALWORLDSCALE
290
     1
  9
$INTERFERECOLOR
 62
   256
  9
$CSHADOW
280
     0
  9
$SHADOWPLANELOCATION
 40
0.0
  0
ENDSEC
  0
SECTION
  2
CLASSES
  0
CLASS
  1
ACDBDICTIONARYWDFLT
  2
AcDbDictionaryWithDefault
  3
ObjectDBX Classes
 90
        0
 91
        3
280
     0
281
     0
  0
CLASS
  1
VISUALSTYLE
  2
AcDbVisualStyle
  3
ObjectDBX Classes
 90
     4095
 91
        3
280
     0
281
     0
  0
CLASS
  1
MATERIAL
  2
AcDbMaterial
  3
ObjectDBX Classes
 90
     1153
 91
        3
280
     0
281
     0
  0
CLASS
  1
SCALE
  2
AcDbScale
  3
ObjectDBX Classes
 90
     1153
 91
        3
280
     0
281
     0
  0
CLASS
  1
TABLESTYLE
  2
AcDbTableStyle
  3
ObjectDBX Classes
 90
     4095
 91
        3
280
     0
281
     0
  0
CLASS
  1
MLEADERSTYLE
  2
AcDbMLeaderStyle
  3
ACDB_MLEADERSTYLE_CLASS
 90
     4095
 91
        3
280
     0
281
     0
  0
CLASS
  1
SUN
  2
AcDbSun
  3
SCENEOE
 90
     1153
 91
        3
280
     0
281
     0
  0
CLASS
  1
DICTIONARYVAR
  2
AcDbDictionaryVar
  3
ObjectDBX Classes
 90
        0
 91
        3
280
     0
281
     0
  0
CLASS
  1
CELLSTYLEMAP
  2
AcDbCellStyleMap
  3
ObjectDBX Classes
 90
     1152
 91
        3
280
     0
281
     0
  0
ENDSEC
  0
SECTION
  2
TABLES
  0
TABLE
  2
VPORT
  5
8
330
0
100
AcDbSymbolTable
 70
     1
  0
VPORT
  5
29
330
8
100
AcDbSymbolTableRecord
100
AcDbViewportTableRecord
  2
*Active
 70
     0
 10
0.0
 20
0.0
 11
1.0
 21
1.0
 12
148.5
 22
105.0
 13
0.0
 23
0.0
 14
10.0
 24
10.0
 15
10.0
 25
10.0
 16
0.0
 26
0.0
 36
1.0
 17
0.0
 27
0.0
 37
0.0
 40
210.0
 41
1.414285714285714
 42
50.0
 43
0.0
 44
0.0
 50
0.0
 51
0.0
 71
     0
 72
   100
 73
     1
 74
     3
 75
     0
 76
     0
 77
     0
 78
     0
281
     0
 65
     1
110
0.0
120
0.0
130
0.0
111
1.0
121
0.0
131
0.0
112
0.0
122
1.0
132
0.0
 79
     0
146
0.0
348
2F
 60
     3
 61
     5
292
     1
282
     1
141
0.0
142
0.0
 63
   250
361
5D
  0
ENDTAB
  0
TABLE
  2
LTYPE
  5
5
330
0
100
AcDbSymbolTable
 70
     5
  0
LTYPE
  5
14
330
5
100
AcDbSymbolTableRecord
100
AcDbLinetypeTableRecord
  2
ByBlock
 70
     0
  3

 72
    65
 73
     0
 40
0.0
  0
LTYPE
  5
15
330
5
100
AcDbSymbolTableRecord
100
AcDbLinetypeTableRecord
  2
ByLayer
 70
     0
  3

 72
    65
 73
     0
 40
0.0
  0
LTYPE
  5
16
330
5
100
AcDbSymbolTableRecord
100
AcDbLinetypeTableRecord
  2
Continuous
 70
     0
  3
Solid line
 72
    65
 73
     0
 40
0.0
  0
LTYPE
  5
61
330
5
100
AcDbSymbolTableRecord
100
AcDbLinetypeTableRecord
  2
CenterLine
 70
     0
  3

 72
    65
 73
     4
 40
8.0
 49
5.0
 74
     0
 49
-1.0
 74
     0
 49
1.0
 74
     0
 49
-1.0
 74
     0
  0
LTYPE
  5
62
330
5
100
AcDbSymbolTableRecord
100
AcDbLinetypeTableRecord
  2
DraftedLine
 70
     0
  3

 72
    65
 73
     2
 40
3.0
 49
2.0
 74
     0
 49
-1.0
 74
     0
  0
LTYPE
  5
63
330
5
100
AcDbSymbolTableRecord
100
AcDbLinetypeTableRecord
  2
SectionLineISO
 70
     0
  3

 72
    65
 73
     5
 40
13.75833333333342
 49
4.23333333333336
 74
     0
 49
-2.11666666666668
 74
     0
 49
1.05833333333334
 74
     0
 49
-2.11666666666668
 74
     0
 49
4.23333333333336
 74
     0
  0
LTYPE
  5
64
330
5
100
AcDbSymbolTableRecord
100
AcDbLinetypeTableRecord
  2
SectionLineANSI
 70
     0
  3

 72
    65
 73
     7
 40
11.99444444444452
 49
4.23333333333336
 74
     0
 49
-1.05833333333334
 74
     0
 49
0.17638888888889
 74
     0
 49
-1.05833333333334
 74
     0
 49
0.17638888888889
 74
     0
 49
-1.05833333333334
 74
     0
 49
4.23333333333336
 74
     0
  0
ENDTAB
  0
TABLE
  2
LAYER
  5
2
330
0
100
AcDbSymbolTable
 70
     5
  0
LAYER
  5
10
330
2
100
AcDbSymbolTableRecord
100
AcDbLayerTableRecord
  2
0
 70
     0
 62
     7
  6
Continuous
370
    -3
390
F
347
46
  0
LAYER
  5
5E
330
2
100
AcDbSymbolTableRecord
100
AcDbLayerTableRecord
  2
Geometries
 70
     0
 62
     7
  6
Continuous
370
    -3
390
F
347
46
  0
LAYER
  5
5F
330
2
100
AcDbSymbolTableRecord
100
AcDbLayerTableRecord
  2
Annotations
 70
     0
 62
     7
  6
Continuous
370
    -3
390
F
347
46
  0
LAYER
  5
60
330
2
100
AcDbSymbolTableRecord
100
AcDbLayerTableRecord
  2
Border
 70
     0
 62
     7
  6
Continuous
370
    -3
390
F
347
46
  0
LAYER
  5
B3
330
2
100
AcDbSymbolTableRecord
100
AcDbLayerTableRecord
  2
Defpoints
 70
     0
 62
     7
  6
Continuous
290
     0
370
    -3
390
F
347
46
  0
ENDTAB
  0
TABLE
  2
STYLE
  5
3
330
0
100
AcDbSymbolTable
 70
     7
  0
STYLE
  5
11
330
3
100
AcDbSymbolTableRecord
100
AcDbTextStyleTableRecord
  2
Standard
 70
     0
 40
0.0
 41
1.0
 50
0.0
 71
     0
 42
2.5
  3
txt
  4

  0
STYLE
  5
65
330
3
100
AcDbSymbolTableRecord
100
AcDbTextStyleTableRecord
  2
Shapr0
 70
     0
 40
2.3925
 41
1.0
 50
0.0
 71
     0
 42
2.5
  3

  4

  0
STYLE
  5
66
330
3
100
AcDbSymbolTableRecord
100
AcDbTextStyleTableRecord
  2
Shapr1
 70
     0
 40
2.3925
 41
1.0
 50
0.0
 71
     0
 42
2.5
  3

  4

  0
STYLE
  5
67
330
3
100
AcDbSymbolTableRecord
100
AcDbTextStyleTableRecord
  2
Shapr2
 70
     0
 40
2.3925
 41
1.0
 50
0.0
 71
     0
 42
2.5
  3

  4

  0
STYLE
  5
68
330
3
100
AcDbSymbolTableRecord
100
AcDbTextStyleTableRecord
  2
Shapr3
 70
     0
 40
0.4785
 41
1.0
 50
0.0
 71
     0
 42
2.5
  3

  4

  0
STYLE
  5
69
330
3
100
AcDbSymbolTableRecord
100
AcDbTextStyleTableRecord
  2
Shapr4
 70
     0
 40
2.3925
 41
1.0
 50
0.0
 71
     0
 42
2.5
  3

  4

  0
STYLE
  5
6A
330
3
100
AcDbSymbolTableRecord
100
AcDbTextStyleTableRecord
  2
Shapr5
 70
     0
 40
0.4785
 41
1.0
 50
0.0
 71
     0
 42
2.5
  3

  4

  0
ENDTAB
  0
TABLE
  2
VIEW
  5
6
330
0
100
AcDbSymbolTable
 70
     0
  0
ENDTAB
  0
TABLE
  2
UCS
  5
7
330
0
100
AcDbSymbolTable
 70
     0
  0
ENDTAB
  0
TABLE
  2
APPID
  5
9
330
0
100
AcDbSymbolTable
 70
     1
  0
APPID
  5
12
330
9
100
AcDbSymbolTableRecord
100
AcDbRegAppTableRecord
  2
ACAD
 70
     0
  0
ENDTAB
  0
TABLE
  2
DIMSTYLE
  5
A
330
0
100
AcDbSymbolTable
 70
     1
100
AcDbDimStyleTable
  0
DIMSTYLE
105
27
102
{ACAD_REACTORS
330
B2
330
BF
330
CB
102
}
330
A
100
AcDbSymbolTableRecord
100
AcDbDimStyleTableRecord
  2
ISO-25
 70
     0
 41
2.5
 42
0.625
 43
3.75
 44
1.25
 73
     0
 74
     0
 77
     1
 78
     8
140
2.5
141
2.5
143
0.0393700787401575
147
0.625
171
     3
172
     1
178
     0
271
     2
272
     2
274
     3
278
    44
283
     0
284
     8
340
11
  0
ENDTAB
  0
TABLE
  2
BLOCK_RECORD
  5
1
330
0
100
AcDbSymbolTable
 70
     7
  0
BLOCK_RECORD
  5
1F
330
1
100
AcDbSymbolTableRecord
100
AcDbBlockTableRecord
  2
*Model_Space
340
22
 70
     4
280
     1
281
     0
  0
BLOCK_RECORD
  5
6B
330
1
100
AcDbSymbolTableRecord
100
AcDbBlockTableRecord
  2
*Paper_Space
340
6C
 70
     0
280
     1
281
     0
  0
BLOCK_RECORD
  5
23
330
1
100
AcDbSymbolTableRecord
100
AcDbBlockTableRecord
  2
*Paper_Space0
340
26
 70
     0
280
     1
281
     0
  0
BLOCK_RECORD
  5
1B
330
1
100
AcDbSymbolTableRecord
100
AcDbBlockTableRecord
  2
*Paper_Space1
340
1E
 70
     4
280
     1
281
     0
  0
BLOCK_RECORD
  5
B4
330
1
100
AcDbSymbolTableRecord
100
AcDbBlockTableRecord
  2
*D2
340
0
 70
     0
280
     1
281
     0
  0
BLOCK_RECORD
  5
C0
330
1
100
AcDbSymbolTableRecord
100
AcDbBlockTableRecord
  2
*D3
340
0
 70
     0
280
     1
281
     0
  0
BLOCK_RECORD
  5
CC
330
1
100
AcDbSymbolTableRecord
100
AcDbBlockTableRecord
  2
*D4
340
0
 70
     0
280
     1
281
     0
  0
BLOCK_RECORD
  5
D8
330
1
100
AcDbSymbolTableRecord
100
AcDbBlockTableRecord
  2
*U5
340
0
102
{BLKREFS
331
E7
102
}
 70
     0
280
     1
281
     0
  0
BLOCK_RECORD
  5
111
330
1
100
AcDbSymbolTableRecord
100
AcDbBlockTableRecord
  2
*U6
340
0
102
{BLKREFS
331
12B
102
}
 70
     0
280
     1
281
     0
  0
ENDTAB
  0
ENDSEC
  0
SECTION
  2
BLOCKS
  0
BLOCK
  5
20
330
1F
100
AcDbEntity
  8
0
100
AcDbBlockBegin
  2
*Model_Space
 70
     0
 10
0.0
 20
0.0
 30
0.0
  3
*Model_Space
  1

  0
ENDBLK
  5
21
330
1F
100
AcDbEntity
  8
0
100
AcDbBlockEnd
  0
BLOCK
  5
6D
330
6B
100
AcDbEntity
 67
     1
  8
0
100
AcDbBlockBegin
  2
*Paper_Space
 70
     0
 10
0.0
 20
0.0
 30
0.0
  3
*Paper_Space
  1

  0
ENDBLK
  5
6E
330
6B
100
AcDbEntity
 67
     1
  8
0
100
AcDbBlockEnd
  0
BLOCK
  5
24
330
23
100
AcDbEntity
  8
0
100
AcDbBlockBegin
  2
*Paper_Space0
 70
     0
 10
0.0
 20
0.0
 30
0.0
  3
*Paper_Space0
  1

  0
ENDBLK
  5
25
330
23
100
AcDbEntity
  8
0
100
AcDbBlockEnd
  0
BLOCK
  5
1C
330
1B
100
AcDbEntity
  8
0
100
AcDbBlockBegin
  2
*Paper_Space1
 70
     0
 10
0.0
 20
0.0
 30
0.0
  3
*Paper_Space1
  1

  0
ENDBLK
  5
1D
330
1B
100
AcDbEntity
  8
0
100
AcDbBlockEnd
  0
BLOCK
  5
B5
330
B4
100
AcDbEntity
  8
0
100
AcDbBlockBegin
  2
*D2
 70
     1
 10
0.0
 20
0.0
 30
0.0
  3
*D2
  1

  0
LINE
  5
B7
330
B4
100
AcDbEntity
  8
Annotations
  6
Continuous
 62
     0
370
    15
100
AcDbLine
 10
100.3649154040495
 20
168.8567301482951
 30
0.0
 11
118.6908533480898
 21
174.5190698218893
 31
0.0
  0
LINE
  5
B8
330
B4
100
AcDbEntity
  8
Annotations
  6
Continuous
 62
     0
370
    15
100
AcDbLine
 10
73.13508459595046
 20
160.4432698517049
 30
0.0
 11
70.7465029461172
 21
159.7052470186707
 31
0.0
  0
MTEXT
  5
B9
330
B4
100
AcDbEntity
  8
Annotations
 62
     0
370
    15
100
AcDbMText
 10
113.966185699305
 20
175.2824329893024
 30
0.0
 40
2.3925
 41
0.0
 46
0.0
 71
     5
 72
     1
  1
\A1;%%c4,7
  7
Shapr2
 11
0.9554326599333005
 21
0.2952091332136899
 31
0.0
 73
     1
 44
1.0
  0
LINE
  5
BA
330
B4
100
AcDbEntity
  8
Annotations
  6
Continuous
 62
     0
370
    15
100
AcDbLine
 10
75.52366624578372
 20
161.1812926847392
 30
0.0
 11
97.97633375421628
 21
168.1187073152609
 31
0.0
  0
SOLID
  5
BB
330
B4
100
AcDbEntity
  8
Annotations
 62
     0
100
AcDbTrace
 10
73.25808840145616
 20
160.0451729100661
 30
0.0
 11
73.01208079044476
 21
160.8413667933438
 31
0.0
 12
75.52366624578372
 22
161.1812926847392
 32
0.0
 13
75.52366624578372
 23
161.1812926847392
 33
0.0
  0
SOLID
  5
BC
330
B4
100
AcDbEntity
  8
Annotations
 62
     0
100
AcDbTrace
 10
100.2419115985438
 20
169.254827089934
 30
0.0
 11
100.4879192095552
 21
168.4586332066562
 31
0.0
 12
97.97633375421628
 22
168.1187073152609
 32
0.0
 13
97.97633375421628
 23
168.1187073152609
 33
0.0
  0
POINT
  5
BD
330
B4
100
AcDbEntity
  8
Defpoints
 62
     0
100
AcDbPoint
 10
97.97633375421628
 20
168.1187073152609
 30
0.0
  0
POINT
  5
BE
330
B4
100
AcDbEntity
  8
Defpoints
 62
     0
100
AcDbPoint
 10
75.52366624578372
 20
161.1812926847392
 30
0.0
  0
ENDBLK
  5
B6
330
B4
100
AcDbEntity
  8
0
100
AcDbBlockEnd
  0
BLOCK
  5
C1
330
C0
100
AcDbEntity
  8
0
100
AcDbBlockBegin
  2
*D3
 70
     1
 10
0.0
 20
0.0
 30
0.0
  3
*D3
  1

  0
LINE
  5
C3
330
C0
100
AcDbEntity
  8
Annotations
  6
Continuous
 62
     0
370
    15
100
AcDbLine
 10
96.33918050248538
 20
161.8131677365847
 30
0.0
 11
115.7012483183956
 21
156.0851559787109
 31
0.0
  0
LINE
  5
C4
330
C0
100
AcDbEntity
  8
Annotations
  6
Continuous
 62
     0
370
    15
100
AcDbLine
 10
77.16081949751462
 20
167.4868322634154
 30
0.0
 11
74.76352437189328
 21
168.1960403292692
 31
0.0
  0
MTEXT
  5
C5
330
C0
100
AcDbEntity
  8
Annotations
 62
     0
370
    15
100
AcDbMText
 10
113.7653453020706
 20
158.6353563977368
 30
0.0
 40
2.3925
 41
0.0
 46
0.0
 71
     5
 72
     1
  1
\A1;%%c3
  7
Shapr2
 11
0.9589180502485379
 21
-0.2836832263415355
 31
0.0
 73
     1
 44
1.0
  0
LINE
  5
C6
330
C0
100
AcDbEntity
  8
Annotations
  6
Continuous
 62
     0
370
    15
100
AcDbLine
 10
79.55811462313596
 20
166.7776241975615
 30
0.0
 11
93.94188537686404
 21
162.5223758024385
 31
0.0
  0
SOLID
  5
C7
330
C0
100
AcDbEntity
  8
Annotations
 62
     0
100
AcDbTrace
 10
77.04261815320565
 20
167.0872830758118
 30
0.0
 11
77.2790208418236
 21
167.8863814510189
 31
0.0
 12
79.55811462313596
 22
166.7776241975615
 32
0.0
 13
79.55811462313596
 23
166.7776241975615
 33
0.0
  0
SOLID
  5
C8
330
C0
100
AcDbEntity
  8
Annotations
 62
     0
100
AcDbTrace
 10
96.45738184679435
 20
162.2127169241882
 30
0.0
 11
96.2209791581764
 21
161.4136185489811
 31
0.0
 12
93.94188537686404
 22
162.5223758024385
 32
0.0
 13
93.94188537686404
 23
162.5223758024385
 33
0.0
  0
POINT
  5
C9
330
C0
100
AcDbEntity
  8
Defpoints
 62
     0
100
AcDbPoint
 10
93.94188537686404
 20
162.5223758024385
 30
0.0
  0
POINT
  5
CA
330
C0
100
AcDbEntity
  8
Defpoints
 62
     0
100
AcDbPoint
 10
79.55811462313596
 20
166.7776241975615
 30
0.0
  0
ENDBLK
  5
C2
330
C0
100
AcDbEntity
  8
0
100
AcDbBlockEnd
  0
BLOCK
  5
CD
330
CC
100
AcDbEntity
  8
0
100
AcDbBlockBegin
  2
*D4
 70
     1
 10
0.0
 20
0.0
 30
0.0
  3
*D4
  1

  0
LINE
  5
CF
330
CC
100
AcDbEntity
  8
Annotations
  6
Continuous
 62
     0
370
    15
100
AcDbLine
 10
98.875
 20
78.2
 30
0.0
 11
115.9682998657227
 21
78.2
 31
0.0
  0
LINE
  5
D0
330
CC
100
AcDbEntity
  8
Annotations
  6
Continuous
 62
     0
370
    15
100
AcDbLine
 10
98.875
 20
109.7
 30
0.0
 11
115.9682998657227
 21
109.7
 31
0.0
  0
LINE
  5
D1
330
CC
100
AcDbEntity
  8
Annotations
  6
Continuous
 62
     0
370
    15
100
AcDbLine
 10
114.7182998657227
 20
80.7
 30
0.0
 11
114.7182998657227
 21
107.2
 31
0.0
  0
SOLID
  5
D2
330
CC
100
AcDbEntity
  8
Annotations
 62
     0
100
AcDbTrace
 10
114.301633199056
 20
80.7
 30
0.0
 11
115.1349665323893
 21
80.7
 31
0.0
 12
114.7182998657227
 22
78.2
 32
0.0
 13
114.7182998657227
 23
78.2
 33
0.0
  0
SOLID
  5
D3
330
CC
100
AcDbEntity
  8
Annotations
 62
     0
100
AcDbTrace
 10
115.1349665323893
 20
107.2
 30
0.0
 11
114.301633199056
 21
107.2
 31
0.0
 12
114.7182998657227
 22
109.7
 32
0.0
 13
114.7182998657227
 23
109.7
 33
0.0
  0
MTEXT
  5
D4
330
CC
100
AcDbEntity
  8
Annotations
 62
     0
370
    15
100
AcDbMText
 10
112.5941927228655
 20
93.78730220794677
 30
0.0
 40
2.3925
 41
0.0
 46
0.0
 71
     5
 72
     1
  1
\A1;6,3
  7
Shapr4
 11
0.0
 21
1.0
 31
0.0
 73
     1
 44
1.0
  0
POINT
  5
D5
330
CC
100
AcDbEntity
  8
Defpoints
 62
     0
100
AcDbPoint
 10
98.25
 20
78.2
 30
0.0
  0
POINT
  5
D6
330
CC
100
AcDbEntity
  8
Defpoints
 62
     0
100
AcDbPoint
 10
98.25
 20
109.7
 30
0.0
  0
POINT
  5
D7
330
CC
100
AcDbEntity
  8
Defpoints
 62
     0
100
AcDbPoint
 10
114.7182998657227
 20
109.7
 30
0.0
  0
ENDBLK
  5
CE
330
CC
100
AcDbEntity
  8
0
100
AcDbBlockEnd
  0
BLOCK
  5
E5
330
D8
100
AcDbEntity
  8
0
100
AcDbBlockBegin
  2
*U5
 70
     1
 10
0.0
 20
0.0
 30
0.0
  3
*U5
  1

  0
LINE
  5
D9
330
D8
100
AcDbEntity
  8
Annotations
  6
Continuous
370
    -3
100
AcDbLine
 10
86.75
 20
164.65
 30
0.0
 11
86.75
 21
169.65
 31
0.0
  0
LINE
  5
DA
330
D8
100
AcDbEntity
  8
Annotations
  6
Continuous
370
    -3
100
AcDbLine
 10
86.75
 20
174.65
 30
0.0
 11
86.75
 21
176.4
 31
0.0
  0
LINE
  5
DB
330
D8
100
AcDbEntity
  8
Annotations
  6
CenterLine
370
    -3
100
AcDbLine
 10
86.75
 20
176.4
 30
0.0
 11
86.75
 21
179.4
 31
0.0
  0
LINE
  5
DC
330
D8
100
AcDbEntity
  8
Annotations
  6
Continuous
370
    -3
100
AcDbLine
 10
86.75
 20
164.65
 30
0.0
 11
86.75
 21
159.65
 31
0.0
  0
LINE
  5
DD
330
D8
100
AcDbEntity
  8
Annotations
  6
Continuous
370
    -3
100
AcDbLine
 10
86.75
 20
154.65
 30
0.0
 11
86.75
 21
152.9
 31
0.0
  0
LINE
  5
DE
330
D8
100
AcDbEntity
  8
Annotations
  6
CenterLine
370
    -3
100
AcDbLine
 10
86.75
 20
152.9
 30
0.0
 11
86.75
 21
149.9
 31
0.0
  0
LINE
  5
DF
330
D8
100
AcDbEntity
  8
Annotations
  6
Continuous
370
    -3
100
AcDbLine
 10
86.75
 20
164.65
 30
0.0
 11
81.75
 21
164.65
 31
0.0
  0
LINE
  5
E0
330
D8
100
AcDbEntity
  8
Annotations
  6
Continuous
370
    -3
100
AcDbLine
 10
76.75
 20
164.65
 30
0.0
 11
75.0
 21
164.65
 31
0.0
  0
LINE
  5
E1
330
D8
100
AcDbEntity
  8
Annotations
  6
CenterLine
370
    -3
100
AcDbLine
 10
75.0
 20
164.65
 30
0.0
 11
72.0
 21
164.65
 31
0.0
  0
LINE
  5
E2
330
D8
100
AcDbEntity
  8
Annotations
  6
Continuous
370
    -3
100
AcDbLine
 10
86.75
 20
164.65
 30
0.0
 11
91.75
 21
164.65
 31
0.0
  0
LINE
  5
E3
330
D8
100
AcDbEntity
  8
Annotations
  6
Continuous
370
    -3
100
AcDbLine
 10
96.75
 20
164.65
 30
0.0
 11
98.5
 21
164.65
 31
0.0
  0
LINE
  5
E4
330
D8
100
AcDbEntity
  8
Annotations
  6
CenterLine
370
    -3
100
AcDbLine
 10
98.5
 20
164.65
 30
0.0
 11
101.5
 21
164.65
 31
0.0
  0
ENDBLK
  5
E6
330
D8
100
AcDbEntity
  8
0
100
AcDbBlockEnd
  0
BLOCK
  5
129
330
111
100
AcDbEntity
  8
0
100
AcDbBlockBegin
  2
*U6
 70
     1
 10
0.0
 20
0.0
 30
0.0
  3
*U6
  1

  0
LINE
  5
112
330
111
100
AcDbEntity
  8
Border
  6
Continuous
370
    15
100
AcDbLine
 10
287.0
 20
10.0
 30
0.0
 11
174.1
 21
10.0
 31
0.0
  0
LINE
  5
113
330
111
100
AcDbEntity
  8
Border
  6
Continuous
370
    15
100
AcDbLine
 10
287.0
 20
26.2
 30
0.0
 11
174.1
 21
26.2
 31
0.0
  0
LINE
  5
114
330
111
100
AcDbEntity
  8
Border
  6
Continuous
370
    15
100
AcDbLine
 10
287.0
 20
42.4
 30
0.0
 11
174.1
 21
42.4
 31
0.0
  0
LINE
  5
115
330
111
100
AcDbEntity
  8
Border
  6
Continuous
370
    15
100
AcDbLine
 10
287.0
 20
58.59999999999999
 30
0.0
 11
174.1
 21
58.59999999999999
 31
0.0
  0
LINE
  5
116
330
111
100
AcDbEntity
  8
Border
  6
Continuous
370
    15
100
AcDbLine
 10
287.0
 20
10.0
 30
0.0
 11
287.0
 21
58.59999999999999
 31
0.0
  0
LINE
  5
117
330
111
100
AcDbEntity
  8
Border
  6
Continuous
370
    15
100
AcDbLine
 10
255.25
 20
10.0
 30
0.0
 11
255.25
 21
42.4
 31
0.0
  0
LINE
  5
118
330
111
100
AcDbEntity
  8
Border
  6
Continuous
370
    15
100
AcDbLine
 10
223.5
 20
10.0
 30
0.0
 11
223.5
 21
42.4
 31
0.0
  0
LINE
  5
119
330
111
100
AcDbEntity
  8
Border
  6
Continuous
370
    15
100
AcDbLine
 10
174.1
 20
10.0
 30
0.0
 11
174.1
 21
58.59999999999999
 31
0.0
  0
CIRCLE
  5
11A
330
111
100
AcDbEntity
  8
Border
  6
Continuous
370
    40
100
AcDbCircle
 10
192.450088
 20
15.82498
 30
0.0
 40
1.68751
  0
CIRCLE
  5
11B
330
111
100
AcDbEntity
  8
Border
  6
Continuous
370
    40
100
AcDbCircle
 10
192.450088
 20
15.82498
 30
0.0
 40
3.37502
  0
LINE
  5
11C
330
111
100
AcDbEntity
  8
Border
  6
Continuous
370
    15
100
AcDbLine
 10
192.112586
 20
15.82498
 30
0.0
 11
192.78759
 21
15.82498
 31
0.0
  0
LINE
  5
11D
330
111
100
AcDbEntity
  8
Border
  6
Continuous
370
    15
100
AcDbLine
 10
191.437582
 20
15.82498
 30
0.0
 11
188.400064
 21
15.82498
 31
0.0
  0
LINE
  5
11E
330
111
100
AcDbEntity
  8
Border
  6
Continuous
370
    15
100
AcDbLine
 10
193.462594
 20
15.82498
 30
0.0
 11
196.500112
 21
15.82498
 31
0.0
  0
LINE
  5
11F
330
111
100
AcDbEntity
  8
Border
  6
Continuous
370
    15
100
AcDbLine
 10
192.450088
 20
15.487478
 30
0.0
 11
192.450088
 21
16.162482
 31
0.0
  0
LINE
  5
120
330
111
100
AcDbEntity
  8
Border
  6
Continuous
370
    15
100
AcDbLine
 10
192.450088
 20
14.812474
 30
0.0
 11
192.450088
 21
11.774956
 31
0.0
  0
LINE
  5
121
330
111
100
AcDbEntity
  8
Border
  6
Continuous
370
    15
100
AcDbLine
 10
192.450088
 20
16.837486
 30
0.0
 11
192.450088
 21
19.875004
 31
0.0
  0
LINE
  5
122
330
111
100
AcDbEntity
  8
Border
  6
Continuous
370
    40
100
AcDbLine
 10
178.275004
 20
17.51249
 30
0.0
 11
178.275004
 21
14.13747
 31
0.0
  0
LINE
  5
123
330
111
100
AcDbEntity
  8
Border
  6
Continuous
370
    40
100
AcDbLine
 10
178.275004
 20
17.51249
 30
0.0
 11
186.375052
 21
19.2
 31
0.0
  0
LINE
  5
124
330
111
100
AcDbEntity
  8
Border
  6
Continuous
370
    40
100
AcDbLine
 10
178.275004
 20
14.13747
 30
0.0
 11
186.375052
 21
12.44996
 31
0.0
  0
LINE
  5
125
330
111
100
AcDbEntity
  8
Border
  6
Continuous
370
    40
100
AcDbLine
 10
186.375052
 20
19.2
 30
0.0
 11
186.375052
 21
12.44996
 31
0.0
  0
LINE
  5
126
330
111
100
AcDbEntity
  8
Border
  6
Continuous
370
    15
100
AcDbLine
 10
177.6
 20
15.82498
 30
0.0
 11
181.312522
 21
15.82498
 31
0.0
  0
LINE
  5
127
330
111
100
AcDbEntity
  8
Border
  6
Continuous
370
    15
100
AcDbLine
 10
181.987526
 20
15.82498
 30
0.0
 11
182.66253
 21
15.82498
 31
0.0
  0
LINE
  5
128
330
111
100
AcDbEntity
  8
Border
  6
Continuous
370
    15
100
AcDbLine
 10
187.050056
 20
15.82498
 30
0.0
 11
183.337534
 21
15.82498
 31
0.0
  0
ENDBLK
  5
12A
330
111
100
AcDbEntity
  8
0
100
AcDbBlockEnd
  0
ENDSEC
  0
SECTION
  2
ENTITIES
  0
CIRCLE
  5
73
330
1F
100
AcDbEntity
  8
Geometries
  6
Continuous
370
    40
100
AcDbCircle
 10
86.75
 20
164.65
 30
0.0
 40
11.5
  0
CIRCLE
  5
74
330
1F
100
AcDbEntity
  8
Geometries
  6
Continuous
370
    40
100
AcDbCircle
 10
86.75
 20
164.65
 30
0.0
 40
11.75
  0
CIRCLE
  5
75
330
1F
100
AcDbEntity
  8
Geometries
  6
Continuous
370
    40
100
AcDbCircle
 10
86.75
 20
164.65
 30
0.0
 40
7.749999999999999
  0
CIRCLE
  5
76
330
1F
100
AcDbEntity
  8
Geometries
  6
Continuous
370
    40
100
AcDbCircle
 10
86.75
 20
164.65
 30
0.0
 40
7.5
  0
LINE
  5
77
330
1F
100
AcDbEntity
  8
Geometries
  6
Continuous
370
    40
100
AcDbLine
 10
236.0
 20
176.15
 30
0.0
 11
236.0
 21
153.15
 31
0.0
  0
LINE
  5
78
330
1F
100
AcDbEntity
  8
Geometries
  6
Continuous
370
    40
100
AcDbLine
 10
235.75
 20
152.9
 30
0.0
 11
235.75
 21
176.4
 31
0.0
  0
LINE
  5
79
330
1F
100
AcDbEntity
  8
Geometries
  6
Continuous
370
    40
100
AcDbLine
 10
204.75
 20
176.4
 30
0.0
 11
204.75
 21
152.9
 31
0.0
  0
LINE
  5
7A
330
1F
100
AcDbEntity
  8
Geometries
  6
Continuous
370
    40
100
AcDbLine
 10
204.5
 20
153.15
 30
0.0
 11
204.5
 21
176.15
 31
0.0
  0
LINE
  5
7B
330
1F
100
AcDbEntity
  8
Geometries
  6
Continuous
370
    40
100
AcDbLine
 10
204.75
 20
176.4
 30
0.0
 11
235.75
 21
176.4
 31
0.0
  0
LINE
  5
7C
330
1F
100
AcDbEntity
  8
Geometries
  6
Continuous
370
    40
100
AcDbLine
 10
204.75
 20
152.9
 30
0.0
 11
235.75
 21
152.9
 31
0.0
  0
ARC
  5
7D
330
1F
100
AcDbEntity
  8
Geometries
  6
Continuous
370
    40
100
AcDbCircle
 10
204.75
 20
176.15
 30
0.0
 40
0.2500000000000007
100
AcDbArc
 50
90.0
 51
180.0
  0
ARC
  5
7E
330
1F
100
AcDbEntity
  8
Geometries
  6
Continuous
370
    40
100
AcDbCircle
 10
204.75
 20
153.15
 30
0.0
 40
0.2500000000000072
100
AcDbArc
 50
180.0
 51
270.0
  0
ARC
  5
7F
330
1F
100
AcDbEntity
  8
Geometries
  6
Continuous
370
    40
100
AcDbCircle
 10
235.75
 20
176.15
 30
0.0
 40
0.2499999999999985
100
AcDbArc
 50
0.0
 51
90.0
  0
ARC
  5
80
330
1F
100
AcDbEntity
  8
Geometries
  6
Continuous
370
    40
100
AcDbCircle
 10
235.75
 20
153.15
 30
0.0
 40
0.2500000000000007
100
AcDbArc
 50
270.0
 51
0.0
  0
LINE
  5
81
330
1F
100
AcDbEntity
  8
Geometries
  6
DraftedLine
370
    15
100
AcDbLine
 10
204.75
 20
172.15
 30
0.0
 11
235.75
 21
172.15
 31
0.0
  0
LINE
  5
82
330
1F
100
AcDbEntity
  8
Geometries
  6
DraftedLine
370
    15
100
AcDbLine
 10
204.75
 20
157.15
 30
0.0
 11
235.75
 21
157.15
 31
0.0
  0
ARC
  5
83
330
1F
100
AcDbEntity
  8
Geometries
  6
DraftedLine
370
    15
100
AcDbCircle
 10
235.75
 20
172.4
 30
0.0
 40
0.2499999999999996
100
AcDbArc
 50
270.0
 51
0.0
  0
ARC
  5
84
330
1F
100
AcDbEntity
  8
Geometries
  6
DraftedLine
370
    15
100
AcDbCircle
 10
235.75
 20
156.9
 30
0.0
 40
0.2499999999999985
100
AcDbArc
 50
0.0
 51
90.0
  0
ARC
  5
85
330
1F
100
AcDbEntity
  8
Geometries
  6
DraftedLine
370
    15
100
AcDbCircle
 10
204.75
 20
172.4
 30
0.0
 40
0.2500000000000072
100
AcDbArc
 50
180.0
 51
270.0
  0
ARC
  5
86
330
1F
100
AcDbEntity
  8
Geometries
  6
DraftedLine
370
    15
100
AcDbCircle
 10
204.75
 20
156.9
 30
0.0
 40
0.2499999999999996
100
AcDbArc
 50
90.0
 51
180.0
  0
LINE
  5
87
330
1F
100
AcDbEntity
  8
Geometries
  6
Continuous
370
    40
100
AcDbLine
 10
98.25
 20
78.2
 30
0.0
 11
75.25
 21
78.2
 31
0.0
  0
LINE
  5
88
330
1F
100
AcDbEntity
  8
Geometries
  6
Continuous
370
    40
100
AcDbLine
 10
75.0
 20
78.45
 30
0.0
 11
98.5
 21
78.45
 31
0.0
  0
LINE
  5
89
330
1F
100
AcDbEntity
  8
Geometries
  6
Continuous
370
    40
100
AcDbLine
 10
75.25
 20
109.7
 30
0.0
 11
98.25
 21
109.7
 31
0.0
  0
LINE
  5
8A
330
1F
100
AcDbEntity
  8
Geometries
  6
Continuous
370
    40
100
AcDbLine
 10
98.5
 20
109.45
 30
0.0
 11
75.0
 21
109.45
 31
0.0
  0
LINE
  5
8B
330
1F
100
AcDbEntity
  8
Geometries
  6
Continuous
370
    40
100
AcDbLine
 10
75.0
 20
109.45
 30
0.0
 11
75.0
 21
78.45
 31
0.0
  0
LINE
  5
8C
330
1F
100
AcDbEntity
  8
Geometries
  6
Continuous
370
    40
100
AcDbLine
 10
98.5
 20
109.45
 30
0.0
 11
98.5
 21
78.45
 31
0.0
  0
ARC
  5
8D
330
1F
100
AcDbEntity
  8
Geometries
  6
Continuous
370
    40
100
AcDbCircle
 10
98.25
 20
109.45
 30
0.0
 40
0.2500000000000007
100
AcDbArc
 50
0.0
 51
90.0
  0
ARC
  5
8E
330
1F
100
AcDbEntity
  8
Geometries
  6
Continuous
370
    40
100
AcDbCircle
 10
75.25
 20
109.45
 30
0.0
 40
0.2500000000000072
100
AcDbArc
 50
90.0
 51
180.0
  0
ARC
  5
8F
330
1F
100
AcDbEntity
  8
Geometries
  6
Continuous
370
    40
100
AcDbCircle
 10
98.25
 20
78.45
 30
0.0
 40
0.2499999999999985
100
AcDbArc
 50
270.0
 51
0.0
  0
ARC
  5
90
330
1F
100
AcDbEntity
  8
Geometries
  6
Continuous
370
    40
100
AcDbCircle
 10
75.25
 20
78.45
 30
0.0
 40
0.2500000000000007
100
AcDbArc
 50
180.0
 51
270.0
  0
LINE
  5
91
330
1F
100
AcDbEntity
  8
Geometries
  6
DraftedLine
370
    15
100
AcDbLine
 10
79.25
 20
109.45
 30
0.0
 11
79.25
 21
78.45
 31
0.0
  0
LINE
  5
92
330
1F
100
AcDbEntity
  8
Geometries
  6
DraftedLine
370
    15
100
AcDbLine
 10
94.25
 20
109.45
 30
0.0
 11
94.25
 21
78.45
 31
0.0
  0
ARC
  5
93
330
1F
100
AcDbEntity
  8
Geometries
  6
DraftedLine
370
    15
100
AcDbCircle
 10
94.5
 20
78.45
 30
0.0
 40
0.2499999999999996
100
AcDbArc
 50
180.0
 51
270.0
  0
ARC
  5
94
330
1F
100
AcDbEntity
  8
Geometries
  6
DraftedLine
370
    15
100
AcDbCircle
 10
79.0
 20
78.45
 30
0.0
 40
0.2499999999999985
100
AcDbArc
 50
270.0
 51
0.0
  0
ARC
  5
95
330
1F
100
AcDbEntity
  8
Geometries
  6
DraftedLine
370
    15
100
AcDbCircle
 10
94.5
 20
109.45
 30
0.0
 40
0.2500000000000072
100
AcDbArc
 50
90.0
 51
180.0
  0
ARC
  5
96
330
1F
100
AcDbEntity
  8
Geometries
  6
DraftedLine
370
    15
100
AcDbCircle
 10
79.0
 20
109.45
 30
0.0
 40
0.2499999999999996
100
AcDbArc
 50
0.0
 51
90.0
  0
LINE
  5
97
330
1F
100
AcDbEntity
  8
Geometries
  6
Continuous
370
    40
100
AcDbLine
 10
215.1467649898003
 20
110.4640239891364
 30
0.0
 11
215.1386957803868
 21
110.4686158326361
 31
0.0
  0
LINE
  5
98
330
1F
100
AcDbEntity
  8
Geometries
  6
Continuous
370
    40
100
AcDbLine
 10
203.4148448916085
 20
90.10205000772271
 30
0.0
 11
225.3351551083915
 21
77.44635300334295
 31
0.0
  0
LINE
  5
99
330
1F
100
AcDbEntity
  8
Geometries
  6
Continuous
370
    40
100
AcDbLine
 10
237.0851551083915
 20
97.79794999227727
 30
0.0
 11
215.1648448916085
 21
110.453646996657
 31
0.0
  0
LINE
  5
9A
330
1F
100
AcDbEntity
  8
Geometries
  6
Continuous
370
    40
100
AcDbLine
 10
225.3925248852515
 20
77.41384530008844
 30
0.0
 11
225.3994852403962
 21
77.40998409489004
 31
0.0
  0
LINE
  5
9B
330
1F
100
AcDbEntity
  8
Geometries
  6
Continuous
370
    40
100
AcDbLine
 10
237.1032485520027
 20
97.78744183746268
 30
0.0
 11
237.1088287983146
 21
97.78417591397626
 31
0.0
  0
ELLIPSE
  5
9C
330
1F
100
AcDbEntity
  8
Geometries
  6
Continuous
370
    40
100
AcDbEllipse
 10
231.3869318036881
 20
87.52008942519414
 30
0.0
 11
5.750000000000001
 21
9.959292143521047
 31
0.0
210
0.0
220
0.0
230
1.0
 40
0.5773502691896258
 41
0.0
 42
6.283185307179586
  0
ELLIPSE
  5
9D
330
1F
100
AcDbEntity
  8
Geometries
  6
Continuous
370
    40
100
AcDbEllipse
 10
231.3869318036881
 20
87.52008942519414
 30
0.0
 11
-3.874999999999995
 21
-6.711696879329403
 31
0.0
210
0.0
220
0.0
230
1.0
 40
0.5773502691896251
 41
0.0
 42
6.283185307179586
  0
ELLIPSE
  5
9E
330
1F
100
AcDbEntity
  8
Geometries
  6
Continuous
370
    40
100
AcDbEllipse
 10
209.2898448916085
 20
100.2778485021899
 30
0.0
 11
5.875000000000002
 21
10.17579849446716
 31
0.0
210
0.0
220
0.0
230
1.0
 40
0.5773502691896257
 41
0.0029474572215922
 42
3.138687327083495
  0
ELLIPSE
  5
9F
330
1F
100
AcDbEntity
  8
Geometries
  6
Continuous
370
    40
100
AcDbEllipse
 10
231.2101551083915
 20
87.62215149781011
 30
0.0
 11
3.750000000000003
 21
6.495190528383291
 31
0.0
210
0.0
220
0.0
230
1.0
 40
0.5773502691896257
 41
3.92699081698724
 42
6.286109835487405
  0
ELLIPSE
  5
A0
330
1F
100
AcDbEntity
  8
Geometries
  6
Continuous
370
    40
100
AcDbEllipse
 10
231.2101551083915
 20
87.62215149781011
 30
0.0
 11
3.750000000000003
 21
6.495190528383291
 31
0.0
210
0.0
220
0.0
230
1.0
 40
0.5773502691896257
 41
3.141592653589793
 42
3.92699081698724
  0
ELLIPSE
  5
A1
330
1F
100
AcDbEntity
  8
Geometries
  6
Continuous
370
    40
100
AcDbEllipse
 10
231.2101551083915
 20
87.62215149781011
 30
0.0
 11
3.750000000000003
 21
6.495190528383291
 31
0.0
210
0.0
220
0.0
230
1.0
 40
0.5773502691896257
 41
3.138639290634533
 42
3.141592653589793
  0
ELLIPSE
  5
A2
330
1F
100
AcDbEntity
  8
Geometries
  6
Continuous
370
    40
100
AcDbEllipse
 10
209.2898448916085
 20
100.2778485021899
 30
0.0
 11
5.875000000000002
 21
10.17579849446716
 31
0.0
210
0.0
220
0.0
230
1.0
 40
0.5773502691896257
 41
0.0
 42
0.0029474572215922
  0
ELLIPSE
  5
A3
330
1F
100
AcDbEntity
  8
Geometries
  6
Continuous
370
    40
100
AcDbEllipse
 10
209.2898448916085
 20
100.2778485021899
 30
0.0
 11
5.875000000000002
 21
10.17579849446716
 31
0.0
210
0.0
220
0.0
230
1.0
 40
0.5773502691896257
 41
3.138687327083495
 42
3.141592653589793
  0
ELLIPSE
  5
A4
330
1F
100
AcDbEntity
  8
Geometries
  6
Continuous
370
    40
100
AcDbEllipse
 10
231.2101551083915
 20
87.62215149781011
 30
0.0
 11
-5.875000000000006
 21
-10.17579849446716
 31
0.0
210
0.0
220
0.0
230
1.0
 40
0.5773502691896257
 41
3.141592653589794
 42
6.283185307179586
  0
ELLIPSE
  5
A5
330
1F
100
AcDbEntity
  8
Geometries
  6
Continuous
370
    40
100
AcDbEllipse
 10
231.2101551083915
 20
87.62215149781011
 30
0.0
 11
-5.875000000000006
 21
-10.17579849446716
 31
0.0
210
0.0
220
0.0
230
1.0
 40
0.5773502691896257
 41
0.0
 42
0.0026933647347268
  0
ELLIPSE
  5
A6
330
1F
100
AcDbEntity
  8
Geometries
  6
Continuous
370
    40
100
AcDbEllipse
 10
231.2101551083915
 20
87.62215149781011
 30
0.0
 11
-5.875000000000006
 21
-10.17579849446716
 31
0.0
210
0.0
220
0.0
230
1.0
 40
0.5773502691896257
 41
3.138586588129929
 42
3.141592653589794
  0
LWPOLYLINE
  5
A7
330
1F
100
AcDbEntity
  8
Geometries
  6
Continuous
370
    40
100
AcDbPolyline
 90
        3
 70
   128
 43
0.0
 10
225.3516740171413
 20
77.43686711172381
 10
225.3573580577625
 20
77.4336267256499
 10
225.3925248852515
 20
77.41384530008844
  0
LWPOLYLINE
  5
A8
330
1F
100
AcDbEntity
  8
Geometries
  6
Continuous
370
    40
100
AcDbPolyline
 90
       91
 70
   128
 43
0.0
 10
225.3994852403962
 20
77.40998409489004
 10
225.410344536028
 20
77.40399532702659
 10
225.4637751879627
 20
77.3751494592604
 10
225.5176463405292
 20
77.34709107819529
 10
225.571954350906
 20
77.31982209846399
 10
225.626695562373
 20
77.29334441808388
 10
225.6818663006853
 20
77.26765991959292
 10
225.7374628703435
 20
77.24277047083388
 10
225.7934815507942
 20
77.21867792538058
 10
225.8499185925925
 20
77.1953841226055
 10
225.9067702135641
 20
77.17289088738866
 10
225.964032594998
 20
77.15120002947376
 10
226.0217018779039
 20
77.1303133424799
 10
226.079774159368
 20
77.11023260257916
 10
226.1382454890381
 20
77.09095956685555
 10
226.1971118657678
 20
77.07249597136189
 10
226.2563692344501
 20
77.05484352889457
 10
226.3160134830642
 20
77.03800392650874
 10
226.3760404399628
 20
77.02197882279783
 10
226.4364458714179
 20
77.00676984496444
 10
226.4972254794481
 20
76.99237858570908
 10
226.5583748999395
 20
76.97880659996717
 10
226.6198897010765
 20
76.96605540152294
 10
226.6817653820899
 20
76.95412645953118
 10
226.74399737233
 20
76.94302119497715
 10
226.8065810306678
 20
76.9327409771051
 10
226.8695116452254
 20
76.92328711984503
 10
226.9327844334304
 20
76.91466087826699
 10
226.9963945423905
 20
76.90686344509064
 10
227.0603370495789
 20
76.89989594727653
 10
227.1246069638181
 20
76.89375944272413
 10
227.1891992265486
 20
76.88845491709942
 10
227.2541087133669
 20
76.88398328081286
 10
227.3193302358123
 20
76.8803453661667
 10
227.3848585433859
 20
76.87754192468752
 10
227.4506883257777
 20
76.87557362465819
 10
227.5168142152789
 20
76.87444104886049
 10
227.58323078936
 20
76.87414469253726
 10
227.6499325733854
 20
76.87468496158053
 10
227.7169140434468
 20
76.87606217094964
 10
227.7841696292839
 20
76.87827654332088
 10
227.851693717278
 20
76.8813282079683
 10
227.9194806534877
 20
76.8852171998727
 10
227.9875247467087
 20
76.88994345905466
 10
228.0558202715375
 20
76.89550683012497
 10
228.1243614714145
 20
76.90190706204449
 10
228.1931425616344
 20
76.90914380808445
 10
228.2621577323026
 20
76.91721662597675
 10
228.3314011512223
 20
76.9261249782421
 10
228.4008669667027
 20
76.93586823268521
 10
228.4705493102697
 20
76.94644566304251
 10
228.5404422992756
 20
76.95785644977082
 10
228.6105400393924
 20
76.97009968096208
 10
228.6808366269882
 20
76.98317435337212
 10
228.7513261513741
 20
76.9970793735485
 10
228.822002696924
 20
77.01181355904566
 10
228.8928603450597
 20
77.02737563971337
 10
228.9638931761029
 20
77.04376425904691
 10
229.0350952709924
 20
77.0609779755865
 10
229.1064607128683
 20
77.07901526435506
 10
229.1779835885229
 20
77.09787451832307
 10
229.249657989727
 20
77.11755404989205
 10
229.3214780144255
 20
77.138052092385
 10
229.3934377678181
 20
77.15936680153824
 10
229.4655313633188
 20
77.18149625698447
 10
229.5377529234093
 20
77.20443846372206
 10
229.6100965803832
 20
77.22819135356256
 10
229.6825564769953
 20
77.2527527865534
 10
229.755126767014
 20
77.27812055236782
 10
229.8278016156901
 20
77.30429237166155
 10
229.9005752001444
 20
77.33126589739011
 10
229.9734417096803
 20
77.3590387160852
 10
230.0463953460299
 20
77.38760834908763
 10
230.1194303235378
 20
77.41697225373532
 10
230.1925408692899
 20
77.44712782450509
 10
230.2657212231913
 20
77.47807239410685
 10
230.3389656380009
 20
77.5098032345314
 10
230.4122683793265
 20
77.54231755804979
 10
230.4856237255863
 20
77.57561251816651
 10
230.5590259679413
 20
77.60968521052581
 10
230.6324694102024
 20
77.64453267377235
 10
230.7059483687189
 20
77.68015189036802
 10
230.7794571722494
 20
77.71653978736511
 10
230.8529901618203
 20
77.75369323713784
 10
230.9265416905749
 20
77.79160905807362
 10
231.0001061182726
 20
77.8302840123888
 10
231.0736777255574
 20
77.8697147601726
 10
231.1472509068587
 20
77.9098979617551
 10
231.2208200679315
 20
77.95083022603237
 10
231.2943796256989
 20
77.99250811097237
 10
231.3351551083915
 20
78.01593446619515
  0
LWPOLYLINE
  5
A9
330
1F
100
AcDbEntity
  8
Geometries
  6
Continuous
370
    40
100
AcDbPolyline
 90
      269
 70
   128
 43
0.0
 10
231.3351551083915
 20
78.01593446619515
 10
231.3739401015874
 20
78.03843139447658
 10
231.4474625757361
 20
78.08165071832585
 10
231.5209575383071
 20
78.1256042904779
 10
231.5944202212156
 20
78.17028891490091
 10
231.6678450959619
 20
78.21570089755534
 10
231.7412266444545
 20
78.26183649599355
 10
231.814559358913
 20
78.30869191969028
 10
231.8878377417952
 20
78.35626333036294
 10
231.9610563057429
 20
78.40454684227907
 10
232.0342095735408
 20
78.45353852254922
 10
232.1072920780904
 20
78.50323439140736
 10
232.1802983623998
 20
78.55363042248108
 10
232.25322297959
 20
78.60472254305265
 10
232.3260604929131
 20
78.65650663430995
 10
232.3988054757904
 20
78.70897853159273
 10
232.4714525118618
 20
78.76213402463043
 10
232.5439961950527
 20
78.81596885777682
 10
232.6164311296536
 20
78.87047873023897
 10
232.6887519304162
 20
78.92565929630416
 10
232.7609532226618
 20
78.98150616556374
 10
232.8330296424055
 20
79.03801490313629
 10
232.904975836491
 20
79.09518102988805
 10
232.9767864627416
 20
79.1530000226556
 10
233.0484561901213
 20
79.21146731446723
 10
233.1199796989092
 20
79.27057829476529
 10
233.1913516808865
 20
79.33032830963194
 10
233.2625668395326
 20
79.39071266201447
 10
233.333619890234
 20
79.45172661195474
 10
233.4045055605036
 20
79.51336537682151
 10
233.4752185902084
 20
79.57562413154456
 10
233.5457537318083
 20
79.638498008854
 10
233.616105750604
 20
79.70198209952339
 10
233.6862694249921
 20
79.76607145261558
 10
233.7562395467299
 20
79.83076107573437
 10
233.8260109212078
 20
79.89604593528055
 10
233.8955783677289
 20
79.96192095671294
 10
233.9649367197949
 20
80.02838102481296
 10
234.0340808253997
 20
80.09542098395669
 10
234.103005547329
 20
80.16303563839068
 10
234.171705763465
 20
80.2312197525132
 10
234.2401763670969
 20
80.29996805116134
 10
234.3084122672368
 20
80.36927521990394
 10
234.3764083889403
 20
80.43913590533933
 10
234.4441596736311
 20
80.50954471539981
 10
234.5116610794294
 20
80.58049621966006
 10
234.5789075814851
 20
80.6519849496537
 10
234.6458941723128
 20
80.72400539919269
 10
234.7126158621327
 20
80.7965520246959
 10
234.7790676792103
 20
80.86961924551962
 10
234.8452446702022
 20
80.94320144429686
 10
234.9111419005022
 20
81.01729296727981
 10
234.9767544545909
 20
81.09188812469105
 10
235.0420774363845
 20
81.16698119107602
 10
235.1071059695883
 20
81.24256640566522
 10
235.1718351980496
 20
81.31863797273986
 10
235.2362602861109
 20
81.39519006200184
 10
235.3003764189667
 20
81.47221680895234
 10
235.3641788030177
 20
81.54971231527239
 10
235.4276626662278
 20
81.62767064921019
 10
235.4908232584801
 20
81.70608584597426
 10
235.5536558519334
 20
81.78495190812974
 10
235.6161557413784
 20
81.86426280600176
 10
235.6783182445932
 20
81.94401247808193
 10
235.7401387026995
 20
82.02419483144104
 10
235.801612480516
 20
82.10480374214534
 10
235.862734966914
 20
82.18583305567898
 10
235.9235015751688
 20
82.26727658736897
 10
235.9839077433125
 20
82.34912812281686
 10
236.0439489344839
 20
82.43138141833268
 10
236.1036206372783
 20
82.51403020137509
 10
236.1629183660949
 20
82.59706817099433
 10
236.2218376614823
 20
82.68048899827978
 10
236.2803740904841
 20
82.76428632681205
 10
236.3385232469794
 20
82.84845377311723
 10
236.3962807520253
 20
82.93298492712813
 10
236.4536422541933
 20
83.01787335264561
 10
236.5106034299064
 20
83.1031125878059
 10
236.5671599837729
 20
83.18869614555089
 10
236.6233076489173
 20
83.27461751410173
 10
236.6790421873094
 20
83.36087015743549
 10
236.7343593900907
 20
83.44744751576582
 10
236.7892550778975
 20
83.53434300602554
 10
236.8437251011822
 20
83.62155002235377
 10
236.897765340531
 20
83.70906193658459
 10
236.951371706979
 20
83.7968720987394
 10
237.0045401423222
 20
83.88497383752183
 10
237.0572666194264
 20
83.97336046081507
 10
237.1095471425324
 20
84.06202525618136
 10
237.1613777475594
 20
84.15096149136482
 10
237.2127545024038
 20
84.24016241479647
 10
237.2636735039188
 20
84.32962125024025
 10
237.3141308720673
 20
84.41933118596786
 10
237.3641227728904
 20
84.50928541528948
 10
237.4136454055766
 20
84.5994771142566
 10
237.4626950027438
 20
84.68989944217635
 10
237.5112678307166
 20
84.78054554212787
 10
237.5593601898005
 20
84.87140854148014
 10
237.6069684145521
 20
84.96248155241129
 10
237.6540888740457
 20
85.05375767242937
 10
237.7007179721355
 20
85.14522998489423
 10
237.7468521477141
 20
85.23689155954011
 10
237.7924878749672
 20
85.32873545299994
 10
237.8376216636243
 20
85.42075470933008
 10
237.8822500592042
 20
85.51294236053577
 10
237.9263696432581
 20
85.60529142709687
 10
237.9699770336068
 20
85.6977949184944
 10
238.0130688845753
 20
85.79044583373839
 10
238.0556418872216
 20
85.88323716189373
 10
238.0976927695618
 20
85.97616188260736
 10
238.1392182967919
 20
86.06921296663637
 10
238.180215271503
 20
86.16238337637368
 10
238.2206805338943
 20
86.25566606637489
 10
238.2606109619802
 20
86.34905398388446
 10
238.3000034717937
 20
86.44254006936082
 10
238.3388550175848
 20
86.53611725700017
 10
238.3771625920151
 20
86.62977847526078
 10
238.4149232263473
 20
86.72351664738528
 10
238.4521339906298
 20
86.81732469192028
 10
238.4887919938782
 20
86.91119552323805
 10
238.5248943842508
 20
87.00512205205219
 10
238.5604383492201
 20
87.0990971859352
 10
238.5954211157405
 20
87.19311382983196
 10
238.6298399504096
 20
87.28716488657115
 10
238.6636921596267
 20
87.38124325737424
 10
238.6969750897468
 20
87.47534184236348
 10
238.7296861272288
 20
87.56945354106507
 10
238.76182269878
 20
87.66357125290985
 10
238.793382271497
 20
87.75768787773154
 10
238.8243623530007
 20
87.85179631626072
 10
238.8547604915682
 20
87.94588947061514
 10
238.8845742762596
 20
88.03996024478676
 10
238.9138013370416
 20
88.13400154512391
 10
238.9424393449061
 20
88.22800628081069
 10
238.9704860119849
 20
88.32196736433829
 10
238.9979390916611
 20
88.41587771197563
 10
239.024796378676
 20
88.50973024423193
 10
239.051055709233
 20
88.60351788631546
 10
239.0767149610968
 20
88.69723356858513
 10
239.1017720536906
 20
88.79087022699845
 10
239.126224948189
 20
88.8844208035506
 10
239.1500716476082
 20
88.97787824670914
 10
239.1733101968937
 20
89.07123551184125
 10
239.195938683004
 20
89.16448556163307
 10
239.2179552349935
 20
89.25762136650326
 10
239.2393580240924
 20
89.35063590500826
 10
239.2601452637842
 20
89.44352216423889
 10
239.2803152098821
 20
89.53627314021
 10
239.299866160604
 20
89.62888183824029
 10
239.3187964566466
 20
89.7213412733249
 10
239.337104481258
 20
89.81364447049751
 10
239.3547886603108
 20
89.90578446518415
 10
239.3718474623752
 20
89.99775430354549
 10
239.3882793987922
 20
90.08954704281268
 10
239.4040830237479
 20
90.18115575160823
 10
239.4192569343497
 20
90.27257351026161
 10
239.4337997707036
 20
90.36379341110862
 10
239.447710215995
 20
90.45480855878492
 10
239.4609869965722
 20
90.54561207050652
 10
239.4736288820331
 20
90.63619707633514
 10
239.4856346853173
 20
90.72655671943896
 10
239.4970032628024
 20
90.81668415633628
 10
239.5077335144065
 20
90.9065725571286
 10
239.5178243836975
 20
90.9962151057242
 10
239.5272748580089
 20
91.08560500004539
 10
239.5360839685649
 20
91.17473545222796
 10
239.5442507906139
 20
91.26359968880537
 10
239.5517744435719
 20
91.35219095088345
 10
239.5586540911777
 20
91.44050249430174
 10
239.5648889416588
 20
91.52852758978364
 10
239.5704782479112
 20
91.61625952307536
 10
239.5754213076933
 20
91.70369159507428
 10
239.5797174638341
 20
91.79081712194558
 10
239.5833661044583
 20
91.87762943523009
 10
239.5863666632288
 20
91.96412188194121
 10
239.5887186196078
 20
92.05028782465472
 10
239.5904214991372
 20
92.1361206415896
 10
239.5914748737403
 20
92.22161372668079
 10
239.5918783620459
 20
92.3067604896474
 10
239.5916316297358
 20
92.39155435605679
 10
239.5907343899162
 20
92.47598876738236
 10
239.5891864035159
 20
92.5600571810621
 10
239.5869874797108
 20
92.6437530705551
 10
239.5841374763771
 20
92.72706992539875
 10
239.5806363005727
 20
92.81000125127346
 10
239.5764839090499
 20
92.8925405700669
 10
239.5716803108247
 20
92.97468138758464
 10
239.5662255708104
 20
93.05641716943991
 10
239.5601198016983
 20
93.13774148151033
 10
239.553363168483
 20
93.2186479062509
 10
239.5459558891448
 20
93.29913004284013
 10
239.537898235365
 20
93.37918150735567
 10
239.5291905332757
 20
93.45879593297501
 10
239.5198331642419
 20
93.53796697020812
 10
239.5098265656762
 20
93.61668828716854
 10
239.4991712318865
 20
93.69495356988097
 10
239.4878677149531
 20
93.77275652263548
 10
239.4759166256363
 20
93.85009086838929
 10
239.4633186343097
 20
93.92695034922487
 10
239.4500744719209
 20
94.00332872686228
 10
239.4361849309726
 20
94.0792197832382
 10
239.4216508665242
 20
94.15461732115233
 10
239.4064731972086
 20
94.22951516498581
 10
239.3906529062607
 20
94.3039071614988
 10
239.3741910425524
 20
94.37778718071058
 10
239.35708872163
 20
94.45114911686662
 10
239.3393471267458
 20
94.5239868894983
 10
239.3209675098813
 20
94.59629444457781
 10
239.3019511927508
 20
94.66806575577213
 10
239.2822995677813
 20
94.73929482580196
 10
239.2620140990587
 20
94.80997568790455
 10
239.2410963232322
 20
94.88010240740546
 10
239.2195478503681
 20
94.94966908339951
 10
239.1973703647428
 20
95.01866985054221
 10
239.1745656255647
 20
95.08709888095126
 10
239.1511354676163
 20
95.15495038621692
 10
239.1270818018036
 20
95.22221861951846
 10
239.1024066156025
 20
95.28889787784601
 10
239.077111973393
 20
95.35498250431837
 10
239.0512000166667
 20
95.42046689059713
 10
239.0246729640999
 20
95.48534547938381
 10
238.9975331114805
 20
95.5496127669962
 10
238.9697828314768
 20
95.61326330601068
 10
238.9414245732418
 20
95.67629170796113
 10
238.9124608618401
 20
95.73869264608057
 10
238.8828942974934
 20
95.80046085807008
 10
238.8527275546338
 20
95.86159114888166
 10
238.8219633807601
 20
95.92207839349767
 10
238.7906045950946
 20
95.98191753968483
 10
238.7586540870348
 20
96.04110361070902
 10
238.7261148143988
 20
96.09963170798682
 10
238.6929898014678
 20
96.15749701365358
 10
238.6592821368236
 20
96.21469479302797
 10
238.6249949709903
 20
96.27122039694828
 10
238.590131513883
 20
96.32706926396145
 10
238.5546950320747
 20
96.38223692234081
 10
238.5186888458925
 20
96.43671899191173
 10
238.4821163263539
 20
96.4905111856659
 10
238.444980891962
 20
96.54360931114276
 10
238.4072860053759
 20
96.59600927155972
 10
238.3690351699742
 20
96.64770706667761
 10
238.3302319263374
 20
96.69869879338174
 10
238.2908798486674
 20
96.74898064597156
 10
238.2509825411737
 20
96.79854891614298
 10
238.2105436344491
 20
96.84739999266161
 10
238.1695667818633
 20
96.89553036071813
 10
238.1280556560041
 20
96.94293660096534
 10
238.0860139451906
 20
96.98961538824071
 10
238.043445350092
 20
97.03556348997414
 10
238.0003535804761
 20
97.08077776429529
 10
237.9567423521188
 20
97.12525515784569
 10
237.9126153838996
 20
97.16899270331405
 10
237.8679763951107
 20
97.2119875167106
 10
237.8228291030033
 20
97.25423679440058
 10
237.7771772205943
 20
97.29573780992122
 10
237.7310244547544
 20
97.3364879106067
 10
237.6843745045959
 20
97.37648451404961
 10
237.6372310601767
 20
97.41572510442839
 10
237.5895978015331
 20
97.45420722873308
 10
237.541478398052
 20
97.49192849292128
 10
237.4928765081907
 20
97.52888655803905
 10
237.4437957795475
 20
97.56507913634024
 10
237.3942398492838
 20
97.60050398744036
 10
237.3442123448978
 20
97.63515891453783
 10
237.2937168853403
 20
97.66904176073808
 10
237.2427570824691
 20
97.70215040551281
 10
237.1913365428246
 20
97.7344827613266
 10
237.1394588697161
 20
97.76603677046171
 10
237.1088287983146
 20
97.78417591397626
  0
LWPOLYLINE
  5
AA
330
1F
100
AcDbEntity
  8
Geometries
  6
Continuous
370
    40
100
AcDbPolyline
 90
        3
 70
   128
 43
0.0
 10
227.4498334639816
 20
81.13295542558015
 10
227.4120830349908
 20
81.15548848556197
 10
227.3781299605907
 20
81.1765917697457
  0
LWPOLYLINE
  5
AB
330
1F
100
AcDbEntity
  8
Geometries
  6
Continuous
370
    40
100
AcDbPolyline
 90
        4
 70
   128
 43
0.0
 10
227.3781299605907
 20
81.1765917697457
 10
227.3731214377794
 20
81.17977341084983
 10
227.3346213108028
 20
81.20483372124252
 10
227.3210393929403
 20
81.21393374158924
  0
LWPOLYLINE
  5
AC
330
1F
100
AcDbEntity
  8
Geometries
  6
Continuous
370
    40
100
AcDbPolyline
 90
      282
 70
   128
 43
0.0
 10
227.3210393929403
 20
81.21393374158924
 10
227.2965887476536
 20
81.23066524054079
 10
227.2590296372771
 20
81.257263566995
 10
227.221949641939
 20
81.2846240983119
 10
227.1853541791014
 20
81.31274205839262
 10
227.1492484075556
 20
81.34161252507589
 10
227.1136372179946
 20
81.37123045816912
 10
227.0785252280558
 20
81.4015907270745
 10
227.0439167817197
 20
81.43268813737275
 10
227.0098159528247
 20
81.46451745580038
 10
226.9762265523448
 20
81.49707343314842
 10
226.9431521389954
 20
81.53035082470907
 10
226.9105960326692
 20
81.5643444080035
 10
226.8785613301696
 20
81.59904899762503
 10
226.8470509226955
 20
81.63445945713092
 10
226.8160675145425
 20
81.67057070800206
 10
226.7856136425098
 20
81.7073777357673
 10
226.7556916955419
 20
81.74487559345009
 10
226.7263039341871
 20
81.7830594025454
 10
226.697452509508
 20
81.82192435176748
 10
226.6691394811409
 20
81.86146569383506
 10
226.6413668342611
 20
81.90167874056698
 10
226.6141364952669
 20
81.94255885656759
 10
226.5874503460511
 20
81.98410145176973
 10
226.5613102367769
 20
82.02630197309442
 10
226.5357179971185
 20
82.06915589546512
 10
226.5106754459636
 20
82.11265871239614
 10
226.4861843996052
 20
82.15680592635084
 10
226.4622466784779
 20
82.20159303904161
 10
226.4388641125091
 20
82.24701554181988
 10
226.4160385451735
 20
82.2930689062825
 10
226.3937718363476
 20
82.33974857519812
 10
226.3720658640671
 20
82.38704995383654
 10
226.3509225252938
 20
82.43496840176815
 10
226.3303437357986
 20
82.48349922517998
 10
226.3103314292629
 20
82.53263766974507
 10
226.2908875557024
 20
82.58237891406473
 10
226.2720140793073
 20
82.63271806369512
 10
226.253712975789
 20
82.68365014575964
 10
226.2359862293183
 20
82.73517010414099
 10
226.218835829132
 20
82.78727279523892
 10
226.2022637658781
 20
82.83995298427764
 10
226.1862720277634
 20
82.89320534214059
 10
226.170862596561
 20
82.94702444270764
 10
226.1560374435282
 20
83.00140476066882
 10
226.1417985252791
 20
83.05634066978594
 10
226.1281477796518
 20
83.11182644157337
 10
226.1150871216028
 20
83.16785624436841
 10
226.102618439159
 20
83.22442414276358
 10
226.0907435894501
 20
83.28152409737022
 10
226.0794643948425
 20
83.3391499648865
 10
226.0687826391919
 20
83.39729549844387
 10
226.0587000642266
 20
83.45595434820447
 10
226.0492183660738
 20
83.51512006218496
 10
226.0403391919348
 20
83.5747860872856
 10
226.0320641369163
 20
83.63494577049988
 10
226.0243947410211
 20
83.69559236028529
 10
226.0173324862988
 20
83.75671900807659
 10
226.0108787941589
 20
83.81831876992223
 10
226.0050350228441
 20
83.88038460822888
 10
225.9998024650619
 20
83.94290939359782
 10
225.9951823457725
 20
84.00588590673918
 10
225.9911758201284
 20
84.06930684045177
 10
225.9877839770327
 20
84.13316468801023
 10
225.9850078267566
 20
84.19745187603823
 10
225.9828482976911
 20
84.26216085742813
 10
225.9813062421989
 20
84.3272840053223
 10
225.9803824352137
 20
84.39281361523462
 10
225.9800775729624
 20
84.45874190719475
 10
225.9803922718034
 20
84.52506102789738
 10
225.9813270671773
 20
84.59176305285357
 10
225.982882412663
 20
84.65883998853707
 10
225.9850586791344
 20
84.7262837745234
 10
225.9878561540122
 20
84.79408628561478
 10
225.9912750406054
 20
84.86223933395111
 10
225.995315457538
 20
84.93073467110112
 10
225.9999774382547
 20
84.99956399013294
 10
226.0052609306023
 20
85.06871892766173
 10
226.0111657964808
 20
85.13819106587304
 10
226.0176918115611
 20
85.20797193451891
 10
226.024838665064
 20
85.27805301288807
 10
226.0326059595968
 20
85.34842573174795
 10
226.0409932110447
 20
85.41908147525791
 10
226.0499998485111
 20
85.49001158285441
 10
226.0596252143059
 20
85.56120735110606
 10
226.0698685639769
 20
85.63266003554067
 10
226.0807290663819
 20
85.7043608524429
 10
226.0922058037981
 20
85.776300980624
 10
226.1042977720671
 20
85.84847156316181
 10
226.117003880772
 20
85.92086370911431
 10
226.1303229534444
 20
85.9934684952055
 10
226.1442537277995
 20
86.06627696748359
 10
226.1587948559973
 20
86.13928014295453
 10
226.1739449049267
 20
86.21246901118883
 10
226.1897023565126
 20
86.28583453590424
 10
226.206065608043
 20
86.35936765652416
 10
226.2230329725152
 20
86.43305928971331
 10
226.2406026789989
 20
86.50690033088956
 10
226.2587728730159
 20
86.5808816557161
 10
226.2775416169345
 20
86.65499412157011
 10
226.2969068903777
 20
86.72922856899362
 10
226.3168665906438
 20
86.80357582312338
 10
226.3374185331392
 20
86.87802669510303
 10
226.3585604518217
 20
86.95257198347588
 10
226.3802899996538
 20
87.02720247556283
 10
226.4026047490659
 20
87.10190894882149
 10
226.4255021924274
 20
87.17668217219095
 10
226.4489797425259
 20
87.25151290742096
 10
226.4730347330548
 20
87.3263919103868
 10
226.497664419106
 20
87.40130993239013
 10
226.5228659776712
 20
87.47625772144703
 10
226.5486365081476
 20
87.55122602356346
 10
226.57497303285
 20
87.6262055839982
 10
226.6018724975279
 20
87.70118714851489
 10
226.6293317718883
 20
87.77616146462324
 10
226.6573476501221
 20
87.85111928280955
 10
226.685916851436
 20
87.92605135775692
 10
226.7150360205879
 20
88.00094844955734
 10
226.7447017284273
 20
88.07580132491387
 10
226.774910472438
 20
88.15060075833361
 10
226.8056586772865
 20
88.22533753331497
 10
226.8369426953722
 20
88.30000244352395
 10
226.8687588073826
 20
88.37458629396619
 10
226.9011032228504
 20
88.44907990214999
 10
226.9339720807151
 20
88.52347409924316
 10
226.9673614498872
 20
88.597759731224
 10
227.0012673298156
 20
88.67192766002638
 10
227.0356856510583
 20
88.74596876467783
 10
227.070612275856
 20
88.81987394243426
 10
227.1060429987088
 20
88.89363410990754
 10
227.1419735469558
 20
88.96724020418942
 10
227.1783995813576
 20
89.04068318397037
 10
227.2153166966828
 20
89.11395403065427
 10
227.2527204222957
 20
89.18704374946846
 10
227.2906062227486
 20
89.25994337057041
 10
227.3289694983764
 20
89.33264395015028
 10
227.3678055858944
 20
89.4051365715298
 10
227.4071097589991
 20
89.47741234625794
 10
227.4468772289727
 20
89.54946241520386
 10
227.4871031452893
 20
89.6212779496457
 10
227.5277825962264
 20
89.69285015235826
 10
227.5689106094777
 20
89.76417025869544
 10
227.6104821527705
 20
89.83522953767329
 10
227.6524921055795
 20
89.90601924468366
 10
227.6949353140747
 20
89.9765307155845
 10
227.7378065688822
 20
90.04675532751567
 10
227.7811006031906
 20
90.11668449562444
 10
227.8248120933852
 20
90.18630967413476
 10
227.8689356596882
 20
90.25562235741768
 10
227.9134658668013
 20
90.32461408105917
 10
227.958397224553
 20
90.39327642292662
 10
228.0037241885503
 20
90.46160100423474
 10
228.0494411608346
 20
90.52957949060983
 10
228.0955424905417
 20
90.59720359315321
 10
228.1420224745665
 20
90.66446506950419
 10
228.1888753582339
 20
90.73135572490247
 10
228.236095335972
 20
90.79786741324915
 10
228.2836765519932
 20
90.86399203816853
 10
228.3316131009787
 20
90.92972155406868
 10
228.3798990287703
 20
90.99504796720261
 10
228.4285283330658
 20
91.05996333672866
 10
228.4774949641229
 20
91.1244597757716
 10
228.5267928254678
 20
91.18852945248396
 10
228.5764157746109
 20
91.25216459110686
 10
228.6263576237693
 20
91.31535747303255
 10
228.676612140597
 20
91.37810043786656
 10
228.7271730489225
 20
91.44038588449138
 10
228.7780340294931
 20
91.50220627212951
 10
228.8291887207303
 20
91.56355412140954
 10
228.8806307194907
 20
91.62442201543092
 10
228.9323535818386
 20
91.68480260083183
 10
228.9843508238272
 20
91.74468858885704
 10
229.0366159222901
 20
91.80407275642706
 10
229.0891423156432
 20
91.86294794720918
 10
229.141923404699
 20
91.92130707268969
 10
229.1949525534913
 20
91.97914311324702
 10
229.2482230901132
 20
92.03644911922682
 10
229.3017283075686
 20
92.09321821201834
 10
229.3554614646369
 20
92.14944358513219
 10
229.4094157867528
 20
92.20511850527923
 10
229.4635844669014
 20
92.26023631345102
 10
229.5179606665298
 20
92.31479042600161
 10
229.5725375164756
 20
92.3687743357297
 10
229.6273081179143
 20
92.42218161296263
 10
229.6822655433245
 20
92.4750059066401
 10
229.7374028374747
 20
92.52724094539876
 10
229.7927130184307
 20
92.57888053865696
 10
229.8481890785855
 20
92.62991857769916
 10
229.9038239857126
 20
92.68034903675905
 10
229.9596106840449
 20
92.73016597410276
 10
230.0155420953791
 20
92.7793635331084
 10
230.071611120208
 20
92.8279359433451
 10
230.1278106388821
 20
92.87587752164748
 10
230.1841335128007
 20
92.92318267318652
 10
230.2405725856364
 20
92.96984589253543
 10
230.297120684592
 20
93.01586176472958
 10
230.3537706216939
 20
93.06122496631862
 10
230.4105151951206
 20
93.1059302664105
 10
230.4673471905722
 20
93.14997252770499
 10
230.5242593826783
 20
93.1933467075157
 10
230.5812445364493
 20
93.23604785877838
 10
230.6382954087717
 20
93.2780711310435
 10
230.6954047499489
 20
93.31941177145117
 10
230.7525653052899
 20
93.36006512568584
 10
230.8097698167484
 20
93.40002663890799
 10
230.8670110246122
 20
93.43929185665998
 10
230.9242816692466
 20
93.47785642574321
 10
230.9815744928936
 20
93.51571609506284
 10
231.0388822415263
 20
93.55286671643616
 10
231.0961976667638
 20
93.58930424536146
 10
231.1535135278436
 20
93.6250247417416
 10
231.2108225936587
 20
93.6600243705597
 10
231.2681176448534
 20
93.69429940249918
 10
231.3253914759867
 20
93.72784621450575
 10
231.3826368977572
 20
93.76066129028328
 10
231.4398467392941
 20
93.79274122071813
 10
231.4970138505144
 20
93.82408270422636
 10
231.5541311045427
 20
93.85468254701486
 10
231.6111914001978
 20
93.88453766325124
 10
231.6681876645412
 20
93.91364507513306
 10
231.7251128554875
 20
93.94200191284901
 10
231.781959964475
 20
93.96960541442357
 10
231.8387219556271
 20
93.99645289577153
 10
231.8953917499442
 20
94.02254174585737
 10
231.951962441839
 20
94.04786952568286
 10
232.0084271700377
 20
94.07243390269973
 10
232.064779120513
 20
94.09623264998042
 10
232.1210115294415
 20
94.11926364521203
 10
232.1771176861843
 20
94.14152486950707
 10
232.2330909362819
 20
94.16301440601998
 10
232.2889246844491
 20
94.18373043835943
 10
232.3446123975591
 20
94.2036712487858
 10
232.4001476075993
 20
94.22283521618428
 10
232.455523914583
 20
94.24122081380408
 10
232.510734989397
 20
94.25882660675546
 10
232.5657745765634
 20
94.2756512492568
 10
232.6206364968913
 20
94.29169348162527
 10
232.6753146499933
 20
94.30695212700671
 10
232.7298030166351
 20
94.32142608784129
 10
232.7840956608883
 20
94.33511434206459
 10
232.8381867320507
 20
94.34801593904608
 10
232.8920704662966
 20
94.36012999527001
 10
232.9457411880164
 20
94.37145568976763
 10
232.9991933108023
 20
94.38199225931342
 10
233.0524213380342
 20
94.39173899340344
 10
233.1054198630166
 20
94.40069522903842
 10
233.1581835686166
 20
94.40886034534125
 10
233.2107072263501
 20
94.41623375804414
 10
233.2629856948616
 20
94.42281491388908
 10
233.3150139177446
 20
94.42860328499272
 10
233.366786920646
 20
94.43359836323548
 10
233.4182998076058
 20
94.43779965474448
 10
233.4695477565762
 20
94.44120667454887
 10
233.5205260140794
 20
94.44381894149687
 10
233.5712298889601
 20
94.44563597353391
 10
233.6216547452028
 20
94.44665728345149
 10
233.671795993791
 20
94.44688237522612
 10
233.7216490835985
 20
94.44631074107723
 10
233.7712094913228
 20
94.44494185938045
 10
233.8204727104824
 20
94.44277519357918
 10
233.8694342395288
 20
94.43981019224137
 10
233.918089569146
 20
94.43604629040901
 10
233.9664341688386
 20
94.43148291238549
 10
234.0144634729442
 20
94.42611947609835
 10
234.0621728662363
 20
94.41995539916216
 10
234.1095576693249
 20
94.4129901067478
 10
234.1566131240943
 20
94.40522304133836
 10
234.2033343794602
 20
94.39665367441913
 10
234.2497164777578
 20
94.38728152010827
 10
234.2957543421118
 20
94.37710615068639
 10
234.3414427651574
 20
94.36612721392731
 10
234.3867763995062
 20
94.35434445207062
 10
234.4317497503544
 20
94.34175772220874
 10
234.4763571706261
 20
94.32836701779198
 10
234.5205928590246
 20
94.31417249088433
 10
234.5644508613215
 20
94.2991744747365
 10
234.607925075165
 20
94.28337350618146
 10
234.6510092586012
 20
94.26677034731105
 10
234.6936970424201
 20
94.24936600585616
 10
234.7359819463178
 20
94.23116175368105
 10
234.7778573987524
 20
94.21215914280916
 10
234.8142655938183
 20
94.19482571022033
  0
LWPOLYLINE
  5
AD
330
1F
100
AcDbEntity
  8
Geometries
  6
Continuous
370
    40
100
AcDbPolyline
 90
        4
 70
   128
 43
0.0
 10
234.8142655938183
 20
94.19482571022033
 10
234.8193167602338
 20
94.19236001843254
 10
234.8603533496629
 20
94.17176652841512
 10
234.8853786878018
 20
94.15870772636792
  0
LWPOLYLINE
  5
AE
330
1F
100
AcDbEntity
  8
Geometries
  6
Continuous
370
    40
100
AcDbPolyline
 90
        4
 70
   128
 43
0.0
 10
234.8853786878018
 20
94.15870772636792
 10
234.9009604732033
 20
94.15038112888635
 10
234.9411314550626
 20
94.12820658562886
 10
234.9499043373123
 20
94.12322574588828
  0
LWPOLYLINE
  5
AF
330
1F
100
AcDbEntity
  8
Geometries
  6
Continuous
370
    40
100
AcDbPolyline
 90
      357
 70
   128
 43
0.0
 10
215.1280299719986
 20
110.4746481103806
 10
215.1140363179385
 20
110.4824986538487
 10
215.0608091117732
 20
110.5117054013687
 10
215.0071397362893
 20
110.5401255471324
 10
214.9530318291071
 20
110.5677571684031
 10
214.8984890401231
 20
110.5945983596978
 10
214.8435150350791
 20
110.6206472314908
 10
214.7881134992485
 20
110.6459019092676
 10
214.732288141208
 20
110.6703605329337
 10
214.6760426966616
 20
110.6940212565821
 10
214.619380932282
 20
110.7168822486212
 10
214.5623066495376
 20
110.7389416922559
 10
214.5048236884678
 20
110.7601977863202
 10
214.4469359313763
 20
110.7806487464476
 10
214.3886473064104
 20
110.8002928065673
 10
214.3299617909922
 20
110.8191282207116
 10
214.2708834150755
 20
110.8371532651141
 10
214.2114162642012
 20
110.8543662405779
 10
214.1515644823217
 20
110.8707654750915
 10
214.0913322743774
 20
110.886349326665
 10
214.0307239086002
 20
110.9011161863619
 10
213.9697437185298
 20
110.9150644814955
 10
213.9083961047256
 20
110.9281926789625
 10
213.8466855361665
 20
110.9404992886828
 10
213.7846165513267
 20
110.9519828671147
 10
213.7221937589253
 20
110.9626420208162
 10
213.6594218383478
 20
110.9724754100204
 10
213.5963055397389
 20
110.9814817521981
 10
213.5328496837743
 20
110.9896598255766
 10
213.4690591611169
 20
110.997008472589
 10
213.4049389315682
 20
111.0035266032284
 10
213.3404940229284
 20
111.0092131982827
 10
213.2757295295804
 20
111.0140673124276
 10
213.2106506108139
 20
111.0180880771596
 10
213.145262488911
 20
111.02127470355
 10
213.0795704470126
 20
111.0236264848067
 10
213.0135798267865
 20
111.0251427986288
 10
212.947296025924
 20
111.0258231093466
 10
212.8807244954849
 20
111.0256669698379
 10
212.813870737115
 20
111.0246740232155
 10
212.7467403001622
 20
111.0228440042841
 10
212.6793387787156
 20
111.0201767407656
 10
212.6116718085831
 20
111.0166721542939
 10
212.5437450642432
 20
111.0123302611847
 10
212.4755642557779
 20
111.0071511729832
 10
212.4071351258201
 20
111.0011350968001
 10
212.3384634465244
 20
110.9942823354417
 10
212.269555016584
 20
110.9865932873453
 10
212.200415658311
 20
110.9780684463315
 10
212.1310512147892
 20
110.9687084011842
 10
212.0614675471184
 20
110.958513835071
 10
211.9916705317558
 20
110.9474855248177
 10
211.9216660579696
 20
110.93562434005
 10
211.8514600254073
 20
110.9229312422151
 10
211.7810583417891
 20
110.9094072834978
 10
211.7104669207288
 20
110.8950536056437
 10
211.6396916796876
 20
110.8798714387031
 10
211.5687385380598
 20
110.8638620997074
 10
211.4976134153947
 20
110.847026991291
 10
211.4263222297513
 20
110.8293676002698
 10
211.3548708961858
 20
110.810885496187
 10
211.2832653253691
 20
110.7915823298379
 10
211.211511422332
 20
110.7714598317806
 10
211.1396150853319
 20
110.7505198108448
 10
211.0675822048377
 20
110.7287641526426
 10
210.9954186626296
 20
110.7061948180932
 10
210.9231303310049
 20
110.6828138419642
 10
210.8507230720853
 20
110.6586233314366
 10
210.7782027372222
 20
110.6336254646998
 10
210.7055751664889
 20
110.607822489579
 10
210.6328461882571
 20
110.5812167221992
 10
210.5600216188509
 20
110.5538105456902
 10
210.4871072622705
 20
110.525606408933
 10
210.4141089099806
 20
110.4966068253513
 10
210.3410323407573
 20
110.4668143717481
 10
210.2678833205873
 20
110.4362316871901
 10
210.1946676026146
 20
110.4048614719379
 10
210.1213909271273
 20
110.3727064864252
 10
210.0480590215815
 20
110.3397695502836
 10
209.9746776006563
 20
110.3060535414156
 10
209.9012523663352
 20
110.2715613951126
 10
209.8277890080103
 20
110.2362961032186
 10
209.7542932026028
 20
110.2002607133367
 10
209.6807706147002
 20
110.1634583280787
 10
209.6072268967031
 20
110.1258921043562
 10
209.5336676889783
 20
110.0875652527091
 10
209.4600986810635
 20
110.0484810694161
 10
209.3865255270958
 20
110.008642892703
 10
209.3129538264996
 20
109.9680540901253
 10
209.2393891674594
 20
109.9267180803954
 10
209.1658371270761
 20
109.8846383328933
 10
209.0923032715129
 20
109.8418183672053
 10
209.018793156136
 20
109.7982617526899
 10
208.9453123256437
 20
109.7539721080675
 10
208.8718663141831
 20
109.708953101032
 10
208.7984606454565
 20
109.6632084478853
 10
208.7251008328115
 20
109.6167419131873
 10
208.6517923793211
 20
109.5695573094275
 10
208.5785407778455
 20
109.5216584967089
 10
208.5053515110826
 20
109.473049382449
 10
208.4322300516008
 20
109.423733921092
 10
208.3591818618585
 20
109.3737161138329
 10
208.2862123942063
 20
109.3230000083527
 10
208.2133270908761
 20
109.2715896985614
 10
208.140531383952
 20
109.2194893243493
 10
208.0678306953293
 20
109.1667030713454
 10
207.9952304366546
 20
109.1132351706798
 10
207.9227360092556
 20
109.0590898987541
 10
207.8503528040514
 20
109.0042715770107
 10
207.7780862014519
 20
108.9487845717092
 10
207.7059415712436
 20
108.8926332937035
 10
207.633924272457
 20
108.8358221982176
 10
207.5620396532278
 20
108.7783557846266
 10
207.4902930506385
 20
108.7202385962331
 10
207.4186897905529
 20
108.6614752200464
 10
207.3472351874353
 20
108.6020702865581
 10
207.2759345441593
 20
108.5420284695172
 10
207.2047931518053
 20
108.4813544857021
 10
207.1338162894478
 20
108.4200530946908
 10
207.0630092239312
 20
108.3581290986272
 10
206.9923772096375
 20
108.2955873419847
 10
206.9219254882428
 20
108.2324327113252
 10
206.8516592884666
 20
108.1686701350549
 10
206.7815838258122
 20
108.104304583176
 10
206.7117043022971
 20
108.039341067032
 10
206.6420259061795
 20
107.9737846390513
 10
206.5725538116734
 20
107.9076403924824
 10
206.5032931786611
 20
107.8409134611278
 10
206.4342491523953
 20
107.7736090190687
 10
206.3654268631977
 20
107.7057322803877
 10
206.2968314261525
 20
107.6372884988849
 10
206.2284679407912
 20
107.568282967787
 10
206.1603414907766
 20
107.4987210194537
 10
206.0924571435791
 20
107.4286080250756
 10
206.0248199501509
 20
107.3579493943686
 10
205.9574349445958
 20
107.2867505752622
 10
205.8903071438332
 20
107.2150170535801
 10
205.8234415472626
 20
107.142754352718
 10
205.7568431364219
 20
107.0699680333134
 10
205.6905168746459
 20
106.9966636929122
 10
205.6244677067184
 20
106.9228469656255
 10
205.5587005585271
 20
106.8485235217862
 10
205.493220336712
 20
106.7736990675947
 10
205.4280319283159
 20
106.6983793447634
 10
205.3631402004305
 20
106.6225701301524
 10
205.2985499998436
 20
106.5462772354018
 10
205.2342661526837
 20
106.4695065065579
 10
205.1702934640649
 20
106.3922638236935
 10
205.1066367177316
 20
106.3145551005249
 10
205.0433006757013
 20
106.2363862840207
 10
204.9802900779084
 20
106.1577633540083
 10
204.9176096418486
 20
106.0786923227738
 10
204.8552640622219
 20
105.9991792346573
 10
204.7932580105778
 20
105.9192301656438
 10
204.7315961349593
 20
105.8388512229478
 10
204.6702830595493
 20
105.7580485445958
 10
204.6093233843171
 20
105.6768282990018
 10
204.5487216846651
 20
105.5951966845389
 10
204.4884825110787
 20
105.5131599291072
 10
204.4286103887754
 20
105.4307242896967
 10
204.3691098173571
 20
105.3478960519462
 10
204.3099852704621
 20
105.2646815296976
 10
204.2512411954213
 20
105.1810870645468
 10
204.1928820129135
 20
105.0971190253904
 10
204.1349121166245
 20
105.012783807968
 10
204.077335872908
 20
104.9280878344018
 10
204.0201576204475
 20
104.8430375527312
 10
203.9633816699217
 20
104.7576394364447
 10
203.907012303672
 20
104.6718999840086
 10
203.8510537753722
 20
104.5858257183914
 10
203.7955103097003
 20
104.4994231865853
 10
203.7403861020142
 20
104.4126989591246
 10
203.6856853180289
 20
104.3256596296015
 10
203.6314120934975
 20
104.238311814178
 10
203.5775705338939
 20
104.1506621510947
 10
203.5241647140994
 20
104.0627173001786
 10
203.4711986780928
 20
103.9744839423467
 10
203.4186764386421
 20
103.8859687791071
 10
203.3666019770005
 20
103.7971785320582
 10
203.3149792426057
 20
103.7081199423851
 10
203.2638121527816
 20
103.6187997703538
 10
203.2131046031974
 20
103.5292248139114
 10
203.1628604511997
 20
103.4394018798753
 10
203.1130835155647
 20
103.3493377829219
 10
203.0637775817919
 20
103.2590393547513
 10
203.0149464018233
 20
103.1685134435704
 10
202.9665936937679
 20
103.077766913577
 10
202.9187231416293
 20
102.9868066444404
 10
202.871338395037
 20
102.8956395307822
 10
202.8244430689821
 20
102.8042724816542
 10
202.7780407435566
 20
102.7127124200173
 10
202.7321349636964
 20
102.6209662822166
 10
202.6867292389293
 20
102.5290410174584
 10
202.6418270431254
 20
102.4369435872838
 10
202.597431814254
 20
102.3446809650447
 10
202.553546954142
 20
102.2522601353756
 10
202.5101758282389
 20
102.1596880936679
 10
202.4673217653844
 20
102.0669718455432
 10
202.4249880575808
 20
101.9741184063251
 10
202.3831779597706
 20
101.8811348005137
 10
202.3418946896169
 20
101.7880280612571
 10
202.301141427289
 20
101.6948052298257
 10
202.2609213152529
 20
101.6014733550857
 10
202.2212374580652
 20
101.508039492973
 10
202.1820929221725
 20
101.4145107059696
 10
202.1434907357141
 20
101.3208940625779
 10
202.1054338883307
 20
101.2271966367992
 10
202.0679253309761
 20
101.1334255076111
 10
202.0309679757347
 20
101.039587758448
 10
201.9945646956425
 20
100.9456904766811
 10
201.9587183245136
 20
100.8517407531028
 10
201.9234316567704
 20
100.757745681411
 10
201.8887074472789
 20
100.6637123576961
 10
201.854548411188
 20
100.5696478799295
 10
201.8209572237742
 20
100.4755593474575
 10
201.7879365202896
 20
100.3814538604937
 10
201.7554888958154
 20
100.2873385196182
 10
201.723616905119
 20
100.193220425276
 10
201.6923230625165
 20
100.0991066772834
 10
201.6616098417382
 20
100.0050043743337
 10
201.6314796757996
 20
99.91092061350868
 10
201.6019349568758
 20
99.81686248979398
 10
201.5729780361806
 20
99.72283709559882
 10
201.5446112238493
 20
99.62885152027943
 10
201.5168367888257
 20
99.53491284966803
 10
201.4896569587526
 20
99.44102816560635
 10
201.4630739198668
 20
99.34720454548452
 10
201.4370898168969
 20
99.25344906178555
 10
201.4117067529648
 20
99.15976878163505
 10
201.3869267894912
 20
99.066170766358
 10
201.3627519461038
 20
98.9726620710416
 10
201.3391842005477
 20
98.87924974410359
 10
201.3162254886001
 20
98.78594082686791
 10
201.2938777039868
 20
98.69274235314941
 10
201.272142698301
 20
98.59966134884358
 10
201.2510222809239
 20
98.50670483152444
 10
201.2305182189486
 20
98.41387981005244
 10
201.2106322371035
 20
98.32119328418835
 10
201.1913660176782
 20
98.22865224421605
 10
201.1727212004507
 20
98.13626367057714
 10
201.1546993826131
 20
98.04403453350953
 10
201.1373021187
 20
97.9519717927013
 10
201.1205309205151
 20
97.86008239695045
 10
201.1043872570569
 20
97.76837328383567
 10
201.0888725544441
 20
97.67685137939796
 10
201.0739881958392
 20
97.58552359783297
 10
201.059735521369
 20
97.49439684119368
 10
201.0461158280431
 20
97.40347799910286
 10
201.033130369669
 20
97.31277394848036
 10
201.0207803567628
 20
97.22229155327794
 10
201.0090669564555
 20
97.13203766422873
 10
200.9979912923935
 20
97.04201911860686
 10
200.9875544446337
 20
96.95224273999872
 10
200.977757449531
 20
96.86271533808821
 10
200.968601299618
 20
96.77344370845131
 10
200.9600869434769
 20
96.68443463236474
 10
200.9522152856008
 20
96.59569487662581
 10
200.9449871862457
 20
96.507231193384
 10
200.93840346127
 20
96.41905031998526
 10
200.9324648819627
 20
96.33115897882529
 10
200.9271721748567
 20
96.2435638772181
 10
200.9225260215294
 20
96.1562717072705
 10
200.9185270583858
 20
96.06928914577111
 10
200.9151758764266
 20
95.98262285408794
 10
200.9124730209964
 20
95.89627947807321
 10
200.9104189915146
 20
95.81026564797911
 10
200.909014241185
 20
95.7245879783808
 10
200.9082591766839
 20
95.63925306810528
 10
200.9081541578256
 20
95.55426750016439
 10
200.9086994972042
 20
95.4696378416965
 10
200.9098954598097
 20
95.38537064390592
 10
200.9117422626179
 20
95.30147244200688
 10
200.9142400741534
 20
95.21794975516602
 10
200.9173890140229
 20
95.1348090864427
 10
200.9211891524198
 20
95.05205692272534
 10
200.9256405095978
 20
94.9696997346596
 10
200.9307430495087
 20
94.88774406398602
 10
200.9364966859254
 20
94.80619638484885
 10
200.9429012822276
 20
94.7250631237779
 10
200.9499566491823
 20
94.64435069065978
 10
200.9576625442466
 20
94.56406547858062
 10
200.9660186708365
 20
94.48421386363994
 10
200.9750246775625
 20
94.40480220473385
 10
200.9846801574319
 20
94.32583684330659
 10
200.9949846470192
 20
94.24732410306308
 10
201.0059376256046
 20
94.16927028963998
 10
201.017538514283
 20
94.09168169023003
 10
201.0297866750441
 20
94.01456457315592
 10
201.0426814098258
 20
93.93792518738803
 10
201.0562219595447
 20
93.86176976200029
 10
201.0704075031044
 20
93.78610450556262
 10
201.0852371563868
 20
93.71093560546169
 10
201.1007099712292
 20
93.63626922714624
 10
201.1168249343922
 20
93.56211151329263
 10
201.1335809665235
 20
93.4884685828851
 10
201.1509769211213
 20
93.41534653020678
 10
201.1690115835067
 20
93.34275142373717
 10
201.1876836698081
 20
93.27068930495177
 10
201.2069918259676
 20
93.19916618702042
 10
201.2269346267759
 20
93.12818805340046
 10
201.2475105749434
 20
93.05776085632536
 10
201.2687181002187
 20
92.98789051518176
 10
201.2905555585611
 20
92.91858291477854
 10
201.3130212313789
 20
92.84984390350418
 10
201.3361133248426
 20
92.7816792913762
 10
201.3598299692851
 20
92.71409484798015
 10
201.3841692186968
 20
92.64709630030583
 10
201.4091290503302
 20
92.5806893304797
 10
201.4347073644224
 20
92.51487957340233
 10
201.4609019840475
 20
92.44967261429566
 10
201.48771065511
 20
92.38507398616747
 10
201.5151310464887
 20
92.3210891672045
 10
201.5431607503427
 20
92.25772357810123
 10
201.5717972825867
 20
92.19498257934121
 10
201.6010380835472
 20
92.13287146844019
 10
201.6308805188046
 20
92.07139547716824
 10
201.6613218802284
 20
92.01055976876776
 10
201.6923593872136
 20
91.9503694351817
 10
201.7239901881166
 20
91.89082949431646
 10
201.7562113618987
 20
91.831944887353
 10
201.7890199199738
 20
91.77372047613079
 10
201.8224128082607
 20
91.71616104062483
 10
201.8563869094362
 20
91.65927127653707
 10
201.8909390453823
 20
91.60305579302558
 10
201.9260659798232
 20
91.54751911059006
 10
201.9617644211374
 20
91.49266565914174
 10
201.9980310253374
 20
91.43849977626992
 10
202.0348623991996
 20
91.3850257057345
 10
202.0722551035291
 20
91.33224759619603
 10
202.1102056565408
 20
91.280169500206
 10
202.1487105373362
 20
91.22879537346951
 10
202.1877661894524
 20
91.17812907439736
 10
202.2273690244614
 20
91.12817436395606
 10
202.267515425592
 20
91.07893490582626
 10
202.3082017513491
 20
91.0304142668758
 10
202.3494243391022
 20
90.98261591794956
 10
202.3911795086141
 20
90.93554323497828
 10
202.4334635654833
 20
90.88919950040042
 10
202.4762728044689
 20
90.8435879048936
 10
202.5196035126719
 20
90.79871154940494
 10
202.5634519725432
 20
90.75457344746734
 10
202.6078144646932
 20
90.71117652778692
 10
202.6526872704776
 20
90.66852363708144
 10
202.6980666743331
 20
90.62661754314956
 10
202.7439489658449
 20
90.58546093814508
 10
202.7903304415226
 20
90.545056442031
 10
202.8372074062693
 20
90.50540660618319
 10
202.8845761745282
 20
90.46651391711336
 10
202.9324330710948
 20
90.42838080028022
 10
202.9807744315861
 20
90.39100962395312
 10
203.0295966025602
 20
90.35440270309661
 10
203.078895941284
 20
90.31856230323936
 10
203.1286688151491
 20
90.28349064429383
 10
203.1789116007405
 20
90.24918990429175
 10
203.2296206825641
 20
90.21566222300218
 10
203.2807924514429
 20
90.18290970539917
 10
203.3086507327682
 20
90.1655251083029
  0
LWPOLYLINE
  5
B0
330
1F
100
AcDbEntity
  8
Geometries
  6
Continuous
370
    40
100
AcDbPolyline
 90
        4
 70
   128
 43
0.0
 10
203.3121909527137
 20
90.16333808015075
 10
203.3324233025969
 20
90.1509344249479
 10
203.3845096334206
 20
90.11973842668002
 10
203.3970756607065
 20
90.1123687765815
  0
LINE
  5
B1
330
1F
100
AcDbEntity
  8
Annotations
  6
CenterLine
370
    15
100
AcDbLine
 10
86.75
 20
112.45
 30
0.0
 11
86.75
 21
75.44999999999999
 31
0.0
  0
DIMENSION
  5
B2
330
1F
100
AcDbEntity
  8
Annotations
  6
Continuous
370
    15
100
AcDbDimension
280
     0
  2
*D2
 10
75.52366624578372
 20
161.1812926847392
 30
0.0
 11
114.5932415278009
 21
173.2529916518191
 31
0.0
 70
   163
 71
     5
 42
4.700000000000002
 73
     0
 74
     0
 75
     0
  3
ISO-25
100
AcDbDiametricDimension
 15
97.97633375421628
 25
168.1187073152609
 35
0.0
 40
0.0
1001
ACAD
1000
DSTYLE
1002
{
1070
   144
1040
0.2
1070
   278
1070
    44
1070
    78
1070
     8
1070
   271
1070
     2
1070
   340
1005
67
1070
   283
1070
     1
1070
   146
1040
0.6
1070
   272
1070
     8
1070
   274
1070
     8
1070
   179
1070
     2
1070
    48
1040
0.0
1070
    47
1040
0.0
1070
    72
1070
     0
1070
    71
1070
     0
1070
    40
1040
1.0
1070
   276
1070
     2
1070
   147
1040
0.7
1070
   371
1070
    15
1070
   372
1070
    15
1002
}
  0
DIMENSION
  5
BF
330
1F
100
AcDbEntity
  8
Annotations
  6
Continuous
370
    15
100
AcDbDimension
280
     0
  2
*D3
 10
79.55811462313596
 20
166.7776241975615
 30
0.0
 11
113.2274109841205
 21
156.817008044953
 31
0.0
 70
   163
 71
     5
 42
3.000000000000001
 73
     0
 74
     0
 75
     0
  3
ISO-25
100
AcDbDiametricDimension
 15
93.94188537686404
 25
162.5223758024385
 35
0.0
 40
0.0
1001
ACAD
1000
DSTYLE
1002
{
1070
   144
1040
0.2
1070
   278
1070
    44
1070
    78
1070
     8
1070
   271
1070
     2
1070
   340
1005
67
1070
   283
1070
     1
1070
   146
1040
0.6
1070
   272
1070
     8
1070
   274
1070
     8
1070
   179
1070
     2
1070
    48
1040
0.0
1070
    47
1040
0.0
1070
    72
1070
     0
1070
    71
1070
     0
1070
    40
1040
1.0
1070
   276
1070
     2
1070
   147
1040
0.7
1070
   371
1070
    15
1070
   372
1070
    15
1002
}
  0
DIMENSION
  5
CB
330
1F
100
AcDbEntity
  8
Annotations
  6
Continuous
370
    15
100
AcDbDimension
280
     0
  2
*D4
 10
114.7182998657227
 20
109.7
 30
0.0
 11
114.7182998657227
 21
93.78730220794677
 31
0.0
 70
   160
 71
     5
 42
6.299999999999997
 73
     0
 74
     0
 75
     0
  3
ISO-25
100
AcDbAlignedDimension
 13
98.25
 23
78.2
 33
0.0
 14
98.25
 24
109.7
 34
0.0
 50
-90.0
100
AcDbRotatedDimension
1001
ACAD
1000
DSTYLE
1002
{
1070
   144
1040
0.2
1070
    76
1070
     0
1070
    75
1070
     0
1070
   278
1070
    44
1070
    78
1070
     8
1070
   271
1070
     2
1070
   340
1005
69
1070
   283
1070
     1
1070
   146
1040
0.6
1070
   272
1070
     8
1070
   274
1070
     8
1070
   179
1070
     2
1070
    48
1040
0.0
1070
    47
1040
0.0
1070
    72
1070
     0
1070
    71
1070
     0
1070
    40
1040
1.0
1070
   276
1070
     2
1070
   147
1040
0.7
1070
   371
1070
    15
1070
   372
1070
    15
1002
}
  0
INSERT
  5
E7
330
1F
100
AcDbEntity
  8
0
100
AcDbBlockReference
  2
*U5
 10
0.0
 20
0.0
 30
0.0
  0
LINE
  5
E8
330
1F
100
AcDbEntity
  8
Annotations
  6
CenterLine
370
    15
100
AcDbLine
 10
201.75
 20
164.65
 30
0.0
 11
238.75
 21
164.65
 31
0.0
  0
LINE
  5
E9
330
1F
100
AcDbEntity
  8
Border
  6
Continuous
370
    15
100
AcDbLine
 10
20.0
 20
10.0
 30
0.0
 11
287.0
 21
10.0
 31
0.0
  0
LINE
  5
EA
330
1F
100
AcDbEntity
  8
Border
  6
Continuous
370
    15
100
AcDbLine
 10
287.0
 20
10.0
 30
0.0
 11
287.0
 21
200.0
 31
0.0
  0
LINE
  5
EB
330
1F
100
AcDbEntity
  8
Border
  6
Continuous
370
    15
100
AcDbLine
 10
287.0
 20
200.0
 30
0.0
 11
20.0
 21
200.0
 31
0.0
  0
LINE
  5
EC
330
1F
100
AcDbEntity
  8
Border
  6
Continuous
370
    15
100
AcDbLine
 10
20.0
 20
200.0
 30
0.0
 11
20.0
 21
10.0
 31
0.0
  0
LINE
  5
ED
330
1F
100
AcDbEntity
  8
Border
  6
Continuous
370
    15
100
AcDbLine
 10
153.5
 20
15.0
 30
0.0
 11
153.5
 21
5.0
 31
0.0
  0
LINE
  5
EE
330
1F
100
AcDbEntity
  8
Border
  6
Continuous
370
    15
100
AcDbLine
 10
203.5
 20
10.0
 30
0.0
 11
203.5
 21
5.0
 31
0.0
  0
LINE
  5
EF
330
1F
100
AcDbEntity
  8
Border
  6
Continuous
370
    15
100
AcDbLine
 10
103.5
 20
10.0
 30
0.0
 11
103.5
 21
5.0
 31
0.0
  0
LINE
  5
F0
330
1F
100
AcDbEntity
  8
Border
  6
Continuous
370
    15
100
AcDbLine
 10
253.5
 20
10.0
 30
0.0
 11
253.5
 21
5.0
 31
0.0
  0
LINE
  5
F1
330
1F
100
AcDbEntity
  8
Border
  6
Continuous
370
    15
100
AcDbLine
 10
53.5
 20
10.0
 30
0.0
 11
53.5
 21
5.0
 31
0.0
  0
MTEXT
  5
F2
330
1F
100
AcDbEntity
  8
Border
  6
Continuous
370
    15
100
AcDbMText
 10
36.75
 20
8.69625
 30
0.0
 40
2.3925
 41
2.3925
 46
2.3925
 71
     2
 72
     1
  1
1
  7
Shapr0
 73
     1
 44
1.0
1001
ACAD
1000
ACAD_MTEXT_DEFINED_HEIGHT_BEGIN
1070
    46
1040
2.3925
1000
ACAD_MTEXT_DEFINED_HEIGHT_END
  0
MTEXT
  5
F3
330
1F
100
AcDbEntity
  8
Border
  6
Continuous
370
    15
100
AcDbMText
 10
78.5
 20
8.69625
 30
0.0
 40
2.3925
 41
2.3925
 46
2.3925
 71
     2
 72
     1
  1
2
  7
Shapr0
 73
     1
 44
1.0
1001
ACAD
1000
ACAD_MTEXT_DEFINED_HEIGHT_BEGIN
1070
    46
1040
2.3925
1000
ACAD_MTEXT_DEFINED_HEIGHT_END
  0
MTEXT
  5
F4
330
1F
100
AcDbEntity
  8
Border
  6
Continuous
370
    15
100
AcDbMText
 10
128.5
 20
8.69625
 30
0.0
 40
2.3925
 41
2.3925
 46
2.3925
 71
     2
 72
     1
  1
3
  7
Shapr0
 73
     1
 44
1.0
1001
ACAD
1000
ACAD_MTEXT_DEFINED_HEIGHT_BEGIN
1070
    46
1040
2.3925
1000
ACAD_MTEXT_DEFINED_HEIGHT_END
  0
MTEXT
  5
F5
330
1F
100
AcDbEntity
  8
Border
  6
Continuous
370
    15
100
AcDbMText
 10
178.5
 20
8.69625
 30
0.0
 40
2.3925
 41
2.3925
 46
2.3925
 71
     2
 72
     1
  1
4
  7
Shapr0
 73
     1
 44
1.0
1001
ACAD
1000
ACAD_MTEXT_DEFINED_HEIGHT_BEGIN
1070
    46
1040
2.3925
1000
ACAD_MTEXT_DEFINED_HEIGHT_END
  0
MTEXT
  5
F6
330
1F
100
AcDbEntity
  8
Border
  6
Continuous
370
    15
100
AcDbMText
 10
228.5
 20
8.69625
 30
0.0
 40
2.3925
 41
2.3925
 46
2.3925
 71
     2
 72
     1
  1
5
  7
Shapr0
 73
     1
 44
1.0
1001
ACAD
1000
ACAD_MTEXT_DEFINED_HEIGHT_BEGIN
1070
    46
1040
2.3925
1000
ACAD_MTEXT_DEFINED_HEIGHT_END
  0
MTEXT
  5
F7
330
1F
100
AcDbEntity
  8
Border
  6
Continuous
370
    15
100
AcDbMText
 10
270.25
 20
8.69625
 30
0.0
 40
2.3925
 41
2.3925
 46
2.3925
 71
     2
 72
     1
  1
6
  7
Shapr0
 73
     1
 44
1.0
1001
ACAD
1000
ACAD_MTEXT_DEFINED_HEIGHT_BEGIN
1070
    46
1040
2.3925
1000
ACAD_MTEXT_DEFINED_HEIGHT_END
  0
LINE
  5
F8
330
1F
100
AcDbEntity
  8
Border
  6
Continuous
370
    15
100
AcDbLine
 10
282.0
 20
105.0
 30
0.0
 11
292.0
 21
105.0
 31
0.0
  0
LINE
  5
F9
330
1F
100
AcDbEntity
  8
Border
  6
Continuous
370
    15
100
AcDbLine
 10
287.0
 20
155.0
 30
0.0
 11
292.0
 21
155.0
 31
0.0
  0
LINE
  5
FA
330
1F
100
AcDbEntity
  8
Border
  6
Continuous
370
    15
100
AcDbLine
 10
287.0
 20
55.0
 30
0.0
 11
292.0
 21
55.0
 31
0.0
  0
MTEXT
  5
FB
330
1F
100
AcDbEntity
  8
Border
  6
Continuous
370
    15
100
AcDbMText
 10
288.30375
 20
32.5
 30
0.0
 40
2.3925
 41
2.3925
 46
2.3925
 71
     4
 72
     1
  1
D
  7
Shapr0
 73
     1
 44
1.0
1001
ACAD
1000
ACAD_MTEXT_DEFINED_HEIGHT_BEGIN
1070
    46
1040
2.3925
1000
ACAD_MTEXT_DEFINED_HEIGHT_END
  0
MTEXT
  5
FC
330
1F
100
AcDbEntity
  8
Border
  6
Continuous
370
    15
100
AcDbMText
 10
288.30375
 20
80.0
 30
0.0
 40
2.3925
 41
2.3925
 46
2.3925
 71
     4
 72
     1
  1
C
  7
Shapr0
 73
     1
 44
1.0
1001
ACAD
1000
ACAD_MTEXT_DEFINED_HEIGHT_BEGIN
1070
    46
1040
2.3925
1000
ACAD_MTEXT_DEFINED_HEIGHT_END
  0
MTEXT
  5
FD
330
1F
100
AcDbEntity
  8
Border
  6
Continuous
370
    15
100
AcDbMText
 10
288.30375
 20
130.0
 30
0.0
 40
2.3925
 41
2.3925
 46
2.3925
 71
     4
 72
     1
  1
B
  7
Shapr0
 73
     1
 44
1.0
1001
ACAD
1000
ACAD_MTEXT_DEFINED_HEIGHT_BEGIN
1070
    46
1040
2.3925
1000
ACAD_MTEXT_DEFINED_HEIGHT_END
  0
MTEXT
  5
FE
330
1F
100
AcDbEntity
  8
Border
  6
Continuous
370
    15
100
AcDbMText
 10
288.30375
 20
177.5
 30
0.0
 40
2.3925
 41
2.3925
 46
2.3925
 71
     4
 72
     1
  1
A
  7
Shapr0
 73
     1
 44
1.0
1001
ACAD
1000
ACAD_MTEXT_DEFINED_HEIGHT_BEGIN
1070
    46
1040
2.3925
1000
ACAD_MTEXT_DEFINED_HEIGHT_END
  0
LINE
  5
FF
330
1F
100
AcDbEntity
  8
Border
  6
Continuous
370
    15
100
AcDbLine
 10
153.5
 20
195.0
 30
0.0
 11
153.5
 21
205.0
 31
0.0
  0
LINE
  5
100
330
1F
100
AcDbEntity
  8
Border
  6
Continuous
370
    15
100
AcDbLine
 10
103.5
 20
200.0
 30
0.0
 11
103.5
 21
205.0
 31
0.0
  0
LINE
  5
101
330
1F
100
AcDbEntity
  8
Border
  6
Continuous
370
    15
100
AcDbLine
 10
203.5
 20
200.0
 30
0.0
 11
203.5
 21
205.0
 31
0.0
  0
LINE
  5
102
330
1F
100
AcDbEntity
  8
Border
  6
Continuous
370
    15
100
AcDbLine
 10
53.5
 20
200.0
 30
0.0
 11
53.5
 21
205.0
 31
0.0
  0
LINE
  5
103
330
1F
100
AcDbEntity
  8
Border
  6
Continuous
370
    15
100
AcDbLine
 10
253.5
 20
200.0
 30
0.0
 11
253.5
 21
205.0
 31
0.0
  0
MTEXT
  5
104
330
1F
100
AcDbEntity
  8
Border
  6
Continuous
370
    15
100
AcDbMText
 10
270.25
 20
201.30375
 30
0.0
 40
2.3925
 41
2.3925
 46
2.3925
 71
     8
 72
     1
  1
6
  7
Shapr0
 73
     1
 44
1.0
1001
ACAD
1000
ACAD_MTEXT_DEFINED_HEIGHT_BEGIN
1070
    46
1040
2.3925
1000
ACAD_MTEXT_DEFINED_HEIGHT_END
  0
MTEXT
  5
105
330
1F
100
AcDbEntity
  8
Border
  6
Continuous
370
    15
100
AcDbMText
 10
228.5
 20
201.30375
 30
0.0
 40
2.3925
 41
2.3925
 46
2.3925
 71
     8
 72
     1
  1
5
  7
Shapr0
 73
     1
 44
1.0
1001
ACAD
1000
ACAD_MTEXT_DEFINED_HEIGHT_BEGIN
1070
    46
1040
2.3925
1000
ACAD_MTEXT_DEFINED_HEIGHT_END
  0
MTEXT
  5
106
330
1F
100
AcDbEntity
  8
Border
  6
Continuous
370
    15
100
AcDbMText
 10
178.5
 20
201.30375
 30
0.0
 40
2.3925
 41
2.3925
 46
2.3925
 71
     8
 72
     1
  1
4
  7
Shapr0
 73
     1
 44
1.0
1001
ACAD
1000
ACAD_MTEXT_DEFINED_HEIGHT_BEGIN
1070
    46
1040
2.3925
1000
ACAD_MTEXT_DEFINED_HEIGHT_END
  0
MTEXT
  5
107
330
1F
100
AcDbEntity
  8
Border
  6
Continuous
370
    15
100
AcDbMText
 10
128.5
 20
201.30375
 30
0.0
 40
2.3925
 41
2.3925
 46
2.3925
 71
     8
 72
     1
  1
3
  7
Shapr0
 73
     1
 44
1.0
1001
ACAD
1000
ACAD_MTEXT_DEFINED_HEIGHT_BEGIN
1070
    46
1040
2.3925
1000
ACAD_MTEXT_DEFINED_HEIGHT_END
  0
MTEXT
  5
108
330
1F
100
AcDbEntity
  8
Border
  6
Continuous
370
    15
100
AcDbMText
 10
78.5
 20
201.30375
 30
0.0
 40
2.3925
 41
2.3925
 46
2.3925
 71
     8
 72
     1
  1
2
  7
Shapr0
 73
     1
 44
1.0
1001
ACAD
1000
ACAD_MTEXT_DEFINED_HEIGHT_BEGIN
1070
    46
1040
2.3925
1000
ACAD_MTEXT_DEFINED_HEIGHT_END
  0
MTEXT
  5
109
330
1F
100
AcDbEntity
  8
Border
  6
Continuous
370
    15
100
AcDbMText
 10
36.75
 20
201.30375
 30
0.0
 40
2.3925
 41
2.3925
 46
2.3925
 71
     8
 72
     1
  1
1
  7
Shapr0
 73
     1
 44
1.0
1001
ACAD
1000
ACAD_MTEXT_DEFINED_HEIGHT_BEGIN
1070
    46
1040
2.3925
1000
ACAD_MTEXT_DEFINED_HEIGHT_END
  0
LINE
  5
10A
330
1F
100
AcDbEntity
  8
Border
  6
Continuous
370
    15
100
AcDbLine
 10
25.0
 20
105.0
 30
0.0
 11
15.0
 21
105.0
 31
0.0
  0
LINE
  5
10B
330
1F
100
AcDbEntity
  8
Border
  6
Continuous
370
    15
100
AcDbLine
 10
20.0
 20
55.0
 30
0.0
 11
15.0
 21
55.0
 31
0.0
  0
LINE
  5
10C
330
1F
100
AcDbEntity
  8
Border
  6
Continuous
370
    15
100
AcDbLine
 10
20.0
 20
155.0
 30
0.0
 11
15.0
 21
155.0
 31
0.0
  0
MTEXT
  5
10D
330
1F
100
AcDbEntity
  8
Border
  6
Continuous
370
    15
100
AcDbMText
 10
18.69625
 20
177.5
 30
0.0
 40
2.3925
 41
2.3925
 46
2.3925
 71
     6
 72
     1
  1
A
  7
Shapr0
 73
     1
 44
1.0
1001
ACAD
1000
ACAD_MTEXT_DEFINED_HEIGHT_BEGIN
1070
    46
1040
2.3925
1000
ACAD_MTEXT_DEFINED_HEIGHT_END
  0
MTEXT
  5
10E
330
1F
100
AcDbEntity
  8
Border
  6
Continuous
370
    15
100
AcDbMText
 10
18.69625
 20
130.0
 30
0.0
 40
2.3925
 41
2.3925
 46
2.3925
 71
     6
 72
     1
  1
B
  7
Shapr0
 73
     1
 44
1.0
1001
ACAD
1000
ACAD_MTEXT_DEFINED_HEIGHT_BEGIN
1070
    46
1040
2.3925
1000
ACAD_MTEXT_DEFINED_HEIGHT_END
  0
MTEXT
  5
10F
330
1F
100
AcDbEntity
  8
Border
  6
Continuous
370
    15
100
AcDbMText
 10
18.69625
 20
80.0
 30
0.0
 40
2.3925
 41
2.3925
 46
2.3925
 71
     6
 72
     1
  1
C
  7
Shapr0
 73
     1
 44
1.0
1001
ACAD
1000
ACAD_MTEXT_DEFINED_HEIGHT_BEGIN
1070
    46
1040
2.3925
1000
ACAD_MTEXT_DEFINED_HEIGHT_END
  0
MTEXT
  5
110
330
1F
100
AcDbEntity
  8
Border
  6
Continuous
370
    15
100
AcDbMText
 10
18.69625
 20
32.5
 30
0.0
 40
2.3925
 41
2.3925
 46
2.3925
 71
     6
 72
     1
  1
D
  7
Shapr0
 73
     1
 44
1.0
1001
ACAD
1000
ACAD_MTEXT_DEFINED_HEIGHT_BEGIN
1070
    46
1040
2.3925
1000
ACAD_MTEXT_DEFINED_HEIGHT_END
  0
INSERT
  5
12B
330
1F
100
AcDbEntity
  8
0
100
AcDbBlockReference
  2
*U6
 10
0.0
 20
0.0
 30
0.0
  0
MTEXT
  5
12C
330
1F
100
AcDbEntity
  8
Border
  6
Continuous
370
    15
100
AcDbMText
 10
177.6
 20
54.32955
 30
0.0
 40
1.77045
 41
0.0
 46
1.77045
 71
     7
 72
     1
  1
TITLE
  7
Shapr1
 73
     1
 44
1.0
1001
ACAD
1000
ACAD_MTEXT_DEFINED_HEIGHT_BEGIN
1070
    46
1040
1.77045
1000
ACAD_MTEXT_DEFINED_HEIGHT_END
  0
MTEXT
  5
12D
330
1F
100
AcDbEntity
  8
Border
  6
Continuous
370
    15
100
AcDbMText
 10
177.6
 20
46.46566106382978
 30
0.0
 40
5.06253
 41
0.0
 46
5.06253
 71
     7
 72
     1
  1
Rear retainer
  7
Shapr1
 73
     1
 44
1.0
1001
ACAD
1000
ACAD_MTEXT_DEFINED_HEIGHT_BEGIN
1070
    46
1040
5.06253
1000
ACAD_MTEXT_DEFINED_HEIGHT_END
  0
MTEXT
  5
12E
330
1F
100
AcDbEntity
  8
Border
  6
Continuous
370
    15
100
AcDbMText
 10
177.6
 20
38.09188085106383
 30
0.0
 40
1.77045
 41
0.0
 46
1.77045
 71
     7
 72
     1
  1
LAST UPDATED
  7
Shapr1
 73
     1
 44
1.0
1001
ACAD
1000
ACAD_MTEXT_DEFINED_HEIGHT_BEGIN
1070
    46
1040
1.77045
1000
ACAD_MTEXT_DEFINED_HEIGHT_END
  0
MTEXT
  5
12F
330
1F
100
AcDbEntity
  8
Border
  6
Continuous
370
    15
100
AcDbMText
 10
177.6
 20
29.85635012765957
 30
0.0
 40
5.06253
 41
0.0
 46
5.06253
 71
     7
 72
     1
  1
11/18/22
  7
Shapr1
 73
     1
 44
1.0
1001
ACAD
1000
ACAD_MTEXT_DEFINED_HEIGHT_BEGIN
1070
    46
1040
5.06253
1000
ACAD_MTEXT_DEFINED_HEIGHT_END
  0
MTEXT
  5
130
330
1F
100
AcDbEntity
  8
Border
  6
Continuous
370
    15
100
AcDbMText
 10
227.0
 20
38.09188085106383
 30
0.0
 40
1.77045
 41
0.0
 46
1.77045
 71
     7
 72
     1
  1
UNITS
  7
Shapr1
 73
     1
 44
1.0
1001
ACAD
1000
ACAD_MTEXT_DEFINED_HEIGHT_BEGIN
1070
    46
1040
1.77045
1000
ACAD_MTEXT_DEFINED_HEIGHT_END
  0
MTEXT
  5
131
330
1F
100
AcDbEntity
  8
Border
  6
Continuous
370
    15
100
AcDbMText
 10
227.0
 20
30.33747
 30
0.0
 40
5.06253
 41
0.0
 46
5.06253
 71
     7
 72
     1
  1
mm
  7
Shapr1
 73
     1
 44
1.0
1001
ACAD
1000
ACAD_MTEXT_DEFINED_HEIGHT_BEGIN
1070
    46
1040
5.06253
1000
ACAD_MTEXT_DEFINED_HEIGHT_END
  0
MTEXT
  5
132
330
1F
100
AcDbEntity
  8
Border
  6
Continuous
370
    15
100
AcDbMText
 10
258.75
 20
38.09188085106383
 30
0.0
 40
1.77045
 41
0.0
 46
1.77045
 71
     7
 72
     1
  1
SHEET
  7
Shapr1
 73
     1
 44
1.0
1001
ACAD
1000
ACAD_MTEXT_DEFINED_HEIGHT_BEGIN
1070
    46
1040
1.77045
1000
ACAD_MTEXT_DEFINED_HEIGHT_END
  0
MTEXT
  5
133
330
1F
100
AcDbEntity
  8
Border
  6
Continuous
370
    15
100
AcDbMText
 10
258.75
 20
29.85635012765957
 30
0.0
 40
5.06253
 41
0.0
 46
5.06253
 71
     7
 72
     1
  1
1 / 1
  7
Shapr1
 73
     1
 44
1.0
1001
ACAD
1000
ACAD_MTEXT_DEFINED_HEIGHT_BEGIN
1070
    46
1040
5.06253
1000
ACAD_MTEXT_DEFINED_HEIGHT_END
  0
MTEXT
  5
134
330
1F
100
AcDbEntity
  8
Border
  6
Continuous
370
    15
100
AcDbMText
 10
177.6
 20
21.89188085106383
 30
0.0
 40
1.77045
 41
0.0
 46
1.77045
 71
     7
 72
     1
  1
FIRST ANGLE PROJECTION
  7
Shapr1
 73
     1
 44
1.0
1001
ACAD
1000
ACAD_MTEXT_DEFINED_HEIGHT_BEGIN
1070
    46
1040
1.77045
1000
ACAD_MTEXT_DEFINED_HEIGHT_END
  0
MTEXT
  5
135
330
1F
100
AcDbEntity
  8
Border
  6
Continuous
370
    15
100
AcDbMText
 10
177.6
 20
14.13747
 30
0.0
 40
5.06253
 41
0.0
 46
5.06253
 71
     7
 72
     1
  1

  7
Shapr1
 73
     1
 44
1.0
1001
ACAD
1000
ACAD_MTEXT_DEFINED_HEIGHT_BEGIN
1070
    46
1040
5.06253
1000
ACAD_MTEXT_DEFINED_HEIGHT_END
  0
MTEXT
  5
136
330
1F
100
AcDbEntity
  8
Border
  6
Continuous
370
    15
100
AcDbMText
 10
227.0
 20
21.89188085106383
 30
0.0
 40
1.77045
 41
0.0
 46
1.77045
 71
     7
 72
     1
  1
SCALE
  7
Shapr1
 73
     1
 44
1.0
1001
ACAD
1000
ACAD_MTEXT_DEFINED_HEIGHT_BEGIN
1070
    46
1040
1.77045
1000
ACAD_MTEXT_DEFINED_HEIGHT_END
  0
MTEXT
  5
137
330
1F
100
AcDbEntity
  8
Border
  6
Continuous
370
    15
100
AcDbMText
 10
227.0
 20
14.0369374893617
 30
0.0
 40
5.06253
 41
0.0
 46
5.06253
 71
     7
 72
     1
  1
5:1
  7
Shapr1
 73
     1
 44
1.0
1001
ACAD
1000
ACAD_MTEXT_DEFINED_HEIGHT_BEGIN
1070
    46
1040
5.06253
1000
ACAD_MTEXT_DEFINED_HEIGHT_END
  0
MTEXT
  5
138
330
1F
100
AcDbEntity
  8
Border
  6
Continuous
370
    15
100
AcDbMText
 10
258.75
 20
21.89188085106383
 30
0.0
 40
1.77045
 41
0.0
 46
1.77045
 71
     7
 72
     1
  1
SIZE
  7
Shapr1
 73
     1
 44
1.0
1001
ACAD
1000
ACAD_MTEXT_DEFINED_HEIGHT_BEGIN
1070
    46
1040
1.77045
1000
ACAD_MTEXT_DEFINED_HEIGHT_END
  0
MTEXT
  5
139
330
1F
100
AcDbEntity
  8
Border
  6
Continuous
370
    15
100
AcDbMText
 10
258.75
 20
14.13747
 30
0.0
 40
5.06253
 41
0.0
 46
5.06253
 71
     7
 72
     1
  1
A4
  7
Shapr1
 73
     1
 44
1.0
1001
ACAD
1000
ACAD_MTEXT_DEFINED_HEIGHT_BEGIN
1070
    46
1040
5.06253
1000
ACAD_MTEXT_DEFINED_HEIGHT_END
  0
MTEXT
  5
13A
330
1F
100
AcDbEntity
  8
Annotations
  6
Continuous
370
    15
100
AcDbMText
 10
64.33968353271484
 20
50.8661994934082
 30
0.0
 40
1.794375
 41
84.66672
 46
0.0
 71
     1
 72
     1
  1
{\fSF-Mono-Regular-Extended.ttf|b0|i0|c0|p0;\H1.333333x;Stainless steel 316}
 73
     1
 44
1.0
  0
VIEWPORT
  5
6F
330
6B
100
AcDbEntity
 67
     1
  8
0
100
AcDbViewport
 10
148.5
 20
105.0
 30
0.0
 40
297.0
 41
210.0
 68
     1
 69
     1
 12
148.5
 22
105.0
 13
0.0
 23
0.0
 14
10.0
 24
10.0
 15
10.0
 25
10.0
 16
0.0
 26
0.0
 36
1.0
 17
0.0
 27
0.0
 37
0.0
 42
50.0
 43
0.0
 44
0.0
 45
210.0
 50
0.0
 51
0.0
 72
   100
 90
   557152
  1

281
     0
 71
     1
 74
     0
110
0.0
120
0.0
130
0.0
111
1.0
121
0.0
131
0.0
112
0.0
122
1.0
132
0.0
 79
     0
146
0.0
170
     0
 61
     5
348
2F
292
     1
282
     1
141
0.0
142
0.0
 63
   256
361
70
  0
VIEWPORT
  5
71
330
6B
100
AcDbEntity
 67
     1
  8
0
100
AcDbViewport
 10
148.5
 20
105.0
 30
0.0
 40
297.0
 41
210.0
 68
     2
 69
     2
 12
148.5
 22
105.0
 13
0.0
 23
0.0
 14
10.0
 24
10.0
 15
10.0
 25
10.0
 16
0.0
 26
0.0
 36
1.0
 17
0.0
 27
0.0
 37
0.0
 42
50.0
 43
0.0
 44
0.0
 45
210.0
 50
0.0
 51
0.0
 72
   100
 90
   557152
  1

281
     0
 71
     1
 74
     0
110
0.0
120
0.0
130
0.0
111
1.0
121
0.0
131
0.0
112
0.0
122
1.0
132
0.0
 79
     0
146
0.0
170
     0
 61
     5
348
2F
292
     1
282
     1
141
0.0
142
0.0
 63
   256
361
72
  0
ENDSEC
  0
SECTION
  2
OBJECTS
  0
DICTIONARY
  5
C
330
0
100
AcDbDictionary
281
     1
  3
ACAD_DETAILVIEWSTYLE
350
172
  3
ACAD_GROUP
350
D
  3
ACAD_LAYOUT
350
1A
  3
ACAD_MATERIAL
350
43
  3
ACAD_MLEADERSTYLE
350
5B
  3
ACAD_MLINESTYLE
350
17
  3
ACAD_PLOTSETTINGS
350
19
  3
ACAD_PLOTSTYLENAME
350
E
  3
ACAD_SCALELIST
350
47
  3
ACAD_SECTIONVIEWSTYLE
350
173
  3
ACAD_TABLESTYLE
350
59
  3
ACAD_VISUALSTYLE
350
2A
  3
ACDB_RECOMPOSE_DATA
350
16F
  3
AcDbVariableDictionary
350
13B
  0
SUN
  5
5D
330
29
100
AcDbSun
 90
        1
290
     0
 63
     7
421
 16777215
 40
1.0
291
     1
 91
  2455826
 92
 54000000
292
     0
 70
     2
 71
   256
280
     1
  0
SUN
  5
70
330
6F
100
AcDbSun
 90
        1
290
     0
 63
     7
421
 16777215
 40
1.0
291
     1
 91
  2455826
 92
 54000000
292
     0
 70
     2
 71
   256
280
     1
  0
SUN
  5
72
330
71
100
AcDbSun
 90
        1
290
     0
 63
     7
421
 16777215
 40
1.0
291
     1
 91
  2455826
 92
 54000000
292
     0
 70
     2
 71
   256
280
     1
  0
DICTIONARY
  5
172
102
{ACAD_REACTORS
330
C
102
}
330
C
100
AcDbDictionary
281
     1
  0
DICTIONARY
  5
D
102
{ACAD_REACTORS
330
C
102
}
330
C
100
AcDbDictionary
281
     1
  0
DICTIONARY
  5
1A
102
{ACAD_REACTORS
330
C
102
}
330
C
100
AcDbDictionary
281
     1
  3
Layout1
350
1E
  3
Layout2
350
26
  3
Model
350
22
  3
Sheet
350
6C
  0
DICTIONARY
  5
43
102
{ACAD_REACTORS
330
C
102
}
330
C
100
AcDbDictionary
281
     1
  3
ByBlock
350
45
  3
ByLayer
350
44
  3
Global
350
46
  0
DICTIONARY
  5
5B
102
{ACAD_REACTORS
330
C
102
}
330
C
100
AcDbDictionary
281
     1
  3
Standard
350
5C
  0
DICTIONARY
  5
17
102
{ACAD_REACTORS
330
C
102
}
330
C
100
AcDbDictionary
281
     1
  3
Standard
350
18
  0
DICTIONARY
  5
19
102
{ACAD_REACTORS
330
C
102
}
330
C
100
AcDbDictionary
281
     1
  0
ACDBDICTIONARYWDFLT
  5
E
102
{ACAD_REACTORS
330
C
102
}
330
C
100
AcDbDictionary
281
     1
  3
Normal
350
F
100
AcDbDictionaryWithDefault
340
F
  0
DICTIONARY
  5
47
102
{ACAD_REACTORS
330
C
102
}
330
C
100
AcDbDictionary
281
     1
  3
A0
350
48
  3
A1
350
49
  3
A2
350
4A
  3
A3
350
4B
  3
A4
350
4C
  3
A5
350
4D
  3
A6
350
4E
  3
A7
350
4F
  3
A8
350
50
  3
A9
350
51
  3
B0
350
52
  3
B1
350
53
  3
B2
350
54
  3
B3
350
55
  3
B4
350
56
  3
B5
350
57
  3
B6
350
58
  0
DICTIONARY
  5
173
102
{ACAD_REACTORS
330
C
102
}
330
C
100
AcDbDictionary
281
     1
  0
DICTIONARY
  5
59
102
{ACAD_REACTORS
330
C
102
}
330
C
100
AcDbDictionary
281
     1
  3
Standard
350
5A
  0
DICTIONARY
  5
2A
102
{ACAD_REACTORS
330
C
102
}
330
C
100
AcDbDictionary
281
     1
  3
2dWireframe
350
2F
  3
Basic
350
32
  3
Brighten
350
36
  3
ColorChange
350
3A
  3
Conceptual
350
34
  3
Dim
350
35
  3
EdgeColorOff
350
3D
  3
Facepattern
350
39
  3
Flat
350
2B
  3
FlatWithEdges
350
2C
  3
Gouraud
350
2D
  3
GouraudWithEdges
350
2E
  3
Hidden
350
31
  3
JitterOff
350
3B
  3
Linepattern
350
38
  3
OverhangOff
350
3C
  3
Realistic
350
33
  3
Shaded
350
42
  3
Shaded with edges
350
41
  3
Shades of Gray
350
3E
  3
Sketchy
350
3F
  3
Thicken
350
37
  3
Wireframe
350
30
  3
X-Ray
350
40
  0
XRECORD
  5
16F
102
{ACAD_REACTORS
330
C
102
}
330
C
100
AcDbXrecord
280
     1
 90
        1
330
5A
  0
DICTIONARY
  5
13B
102
{ACAD_REACTORS
330
C
102
}
330
C
100
AcDbDictionary
281
     1
  3
CANNOSCALE
350
13C
  3
CENTEREXE
350
174
  3
CENTERLTYPEFILE
350
175
  3
CMLEADERSTYLE
350
171
  3
CTABLESTYLE
350
170
  0
LAYOUT
  5
1E
102
{ACAD_REACTORS
330
1A
102
}
330
1A
100
AcDbPlotSettings
  1

  2
none_device
  4

  6

 40
0.0
 41
0.0
 42
0.0
 43
0.0
 44
0.0
 45
0.0
 46
0.0
 47
0.0
 48
0.0
 49
0.0
140
0.0
141
0.0
142
1.0
143
1.0
 70
   688
 72
     1
 73
     0
 74
     5
  7

 75
    16
 76
     0
 77
     2
 78
   300
147
1.0
148
0.0
149
0.0
100
AcDbLayout
  1
Layout1
 70
     1
 71
     1
 10
0.0
 20
0.0
 11
420.0
 21
297.0
 12
0.0
 22
0.0
 32
0.0
 14
1.000000000000000E+20
 24
1.000000000000000E+20
 34
1.000000000000000E+20
 15
-1.000000000000000E+20
 25
-1.000000000000000E+20
 35
-1.000000000000000E+20
146
0.0
 13
0.0
 23
0.0
 33
0.0
 16
1.0
 26
0.0
 36
0.0
 17
0.0
 27
1.0
 37
0.0
 76
     0
330
1B
  0
LAYOUT
  5
26
102
{ACAD_REACTORS
330
1A
102
}
330
1A
100
AcDbPlotSettings
  1

  2
none_device
  4

  6

 40
0.0
 41
0.0
 42
0.0
 43
0.0
 44
0.0
 45
0.0
 46
0.0
 47
0.0
 48
0.0
 49
0.0
140
0.0
141
0.0
142
1.0
143
1.0
 70
   688
 72
     1
 73
     0
 74
     5
  7

 75
    16
 76
     0
 77
     2
 78
   300
147
1.0
148
0.0
149
0.0
100
AcDbLayout
  1
Layout2
 70
     1
 71
     2
 10
0.0
 20
0.0
 11
0.0
 21
0.0
 12
0.0
 22
0.0
 32
0.0
 14
0.0
 24
0.0
 34
0.0
 15
0.0
 25
0.0
 35
0.0
146
0.0
 13
0.0
 23
0.0
 33
0.0
 16
1.0
 26
0.0
 36
0.0
 17
0.0
 27
1.0
 37
0.0
 76
     0
330
23
  0
LAYOUT
  5
22
102
{ACAD_REACTORS
330
1A
102
}
330
1A
100
AcDbPlotSettings
  1

  2
none_device
  4
Letter_(8.50_x_11.00_Inches)
  6

 40
6.35
 41
6.35
 42
6.35000508
 43
6.35000508
 44
215.9
 45
279.4
 46
0.0
 47
0.0
 48
0.0
 49
0.0
140
0.0
141
0.0
142
1.0
143
1.0
 70
  1712
 72
     1
 73
     0
 74
     0
  7

 75
     0
 76
     0
 77
     2
 78
   300
147
1.0
148
0.0
149
0.0
100
AcDbLayout
  1
Model
 70
     1
 71
     0
 10
0.0
 20
0.0
 11
420.0
 21
297.0
 12
0.0
 22
0.0
 32
0.0
 14
1.000000000000000E+20
 24
1.000000000000000E+20
 34
1.000000000000000E+20
 15
-1.000000000000000E+20
 25
-1.000000000000000E+20
 35
-1.000000000000000E+20
146
0.0
 13
0.0
 23
0.0
 33
0.0
 16
1.0
 26
0.0
 36
0.0
 17
0.0
 27
1.0
 37
0.0
 76
     0
330
1F
331
29
  0
LAYOUT
  5
6C
102
{ACAD_REACTORS
330
1A
102
}
330
1A
100
AcDbPlotSettings
  1

  2
Custom Device
  4
CustomPaper_297.000000x210.000000mm
  6

 40
0.0
 41
0.0
 42
0.0
 43
0.0
 44
210.0
 45
297.0
 46
0.0
 47
0.0
 48
0.0
 49
0.0
140
0.0
141
0.0
142
1.0
143
1.0
 70
   672
 72
     1
 73
     1
 74
     5
  7

 75
    16
 76
     0
 77
     2
 78
   300
147
1.0
148
0.0
149
0.0
100
AcDbLayout
  1
Sheet
 70
     1
 71
     3
 10
-20.0
 20
-7.5
 11
277.0
 21
202.5
 12
0.0
 22
0.0
 32
0.0
 14
0.0
 24
0.0
 34
0.0
 15
0.0
 25
0.0
 35
0.0
146
0.0
 13
0.0
 23
0.0
 33
0.0
 16
1.0
 26
0.0
 36
0.0
 17
0.0
 27
1.0
 37
0.0
 76
     0
330
6B
331
6F
  0
MATERIAL
  5
45
102
{ACAD_REACTORS
330
43
102
}
330
43
100
AcDbMaterial
  1
ByBlock
 72
     1
 94
      127
  0
MATERIAL
  5
44
102
{ACAD_REACTORS
330
43
102
}
330
43
100
AcDbMaterial
  1
ByLayer
 72
     1
 94
      127
  0
MATERIAL
  5
46
102
{ACAD_REACTORS
330
43
102
}
330
43
100
AcDbMaterial
  1
Global
 72
     1
 94
      127
  0
MLEADERSTYLE
  5
5C
102
{ACAD_REACTORS
330
5B
102
}
330
5B
100
AcDbMLeaderStyle
179
     2
170
     2
171
     1
172
     0
 90
        2
 40
0.0
 41
0.0
173
     1
 91
-1056964608
340
14
 92
       -2
290
     1
 42
2.0
291
     1
 43
8.0
  3
Standard
341
0
 44
4.0
300

342
11
174
     1
178
     6
175
     1
176
     0
 93
-1056964608
 45
4.0
292
     0
297
     0
 46
4.0
343
0
 94
-1056964608
 47
1.0
 49
1.0
140
1.0
293
     1
141
0.0
294
     1
177
     0
142
1.0
295
     0
296
     0
143
3.75
271
     0
272
     9
273
     9
  0
MLINESTYLE
  5
18
102
{ACAD_REACTORS
330
17
102
}
330
17
100
AcDbMlineStyle
  2
Standard
 70
     0
  3

 62
   256
 51
90.0
 52
90.0
 71
     2
 49
0.5
 62
   256
  6
BYLAYER
 49
-0.5
 62
   256
  6
BYLAYER
  0
ACDBPLACEHOLDER
  5
F
102
{ACAD_REACTORS
330
E
102
}
330
E
  0
SCALE
  5
48
102
{ACAD_REACTORS
330
47
102
}
330
47
100
AcDbScale
 70
     0
300
1:1
140
1.0
141
1.0
290
     1
  0
SCALE
  5
49
102
{ACAD_REACTORS
330
47
102
}
330
47
100
AcDbScale
 70
     0
300
1:2
140
1.0
141
2.0
290
     0
  0
SCALE
  5
4A
102
{ACAD_REACTORS
330
47
102
}
330
47
100
AcDbScale
 70
     0
300
1:4
140
1.0
141
4.0
290
     0
  0
SCALE
  5
4B
102
{ACAD_REACTORS
330
47
102
}
330
47
100
AcDbScale
 70
     0
300
1:5
140
1.0
141
5.0
290
     0
  0
SCALE
  5
4C
102
{ACAD_REACTORS
330
47
102
}
330
47
100
AcDbScale
 70
     0
300
1:8
140
1.0
141
8.0
290
     0
  0
SCALE
  5
4D
102
{ACAD_REACTORS
330
47
102
}
330
47
100
AcDbScale
 70
     0
300
1:10
140
1.0
141
10.0
290
     0
  0
SCALE
  5
4E
102
{ACAD_REACTORS
330
47
102
}
330
47
100
AcDbScale
 70
     0
300
1:16
140
1.0
141
16.0
290
     0
  0
SCALE
  5
4F
102
{ACAD_REACTORS
330
47
102
}
330
47
100
AcDbScale
 70
     0
300
1:20
140
1.0
141
20.0
290
     0
  0
SCALE
  5
50
102
{ACAD_REACTORS
330
47
102
}
330
47
100
AcDbScale
 70
     0
300
1:30
140
1.0
141
30.0
290
     0
  0
SCALE
  5
51
102
{ACAD_REACTORS
330
47
102
}
330
47
100
AcDbScale
 70
     0
300
1:40
140
1.0
141
40.0
290
     0
  0
SCALE
  5
52
102
{ACAD_REACTORS
330
47
102
}
330
47
100
AcDbScale
 70
     0
300
1:50
140
1.0
141
50.0
290
     0
  0
SCALE
  5
53
102
{ACAD_REACTORS
330
47
102
}
330
47
100
AcDbScale
 70
     0
300
1:100
140
1.0
141
100.0
290
     0
  0
SCALE
  5
54
102
{ACAD_REACTORS
330
47
102
}
330
47
100
AcDbScale
 70
     0
300
2:1
140
2.0
141
1.0
290
     0
  0
SCALE
  5
55
102
{ACAD_REACTORS
330
47
102
}
330
47
100
AcDbScale
 70
     0
300
4:1
140
4.0
141
1.0
290
     0
  0
SCALE
  5
56
102
{ACAD_REACTORS
330
47
102
}
330
47
100
AcDbScale
 70
     0
300
8:1
140
8.0
141
1.0
290
     0
  0
SCALE
  5
57
102
{ACAD_REACTORS
330
47
102
}
330
47
100
AcDbScale
 70
     0
300
10:1
140
10.0
141
1.0
290
     0
  0
SCALE
  5
58
102
{ACAD_REACTORS
330
47
102
}
330
47
100
AcDbScale
 70
     0
300
100:1
140
100.0
141
1.0
290
     0
  0
TABLESTYLE
  5
5A
102
{ACAD_REACTORS
330
59
102
}
102
{ACAD_XDICTIONARY
360
16D
102
}
330
59
100
AcDbTableStyle
  3
Standard
 70
     0
 71
     0
 40
0.06
 41
0.06
280
     0
281
     0
  7
Standard
140
4.5
170
     2
 62
     0
 63
   257
283
     0
 90
        4
 91
        0
  1

274
    -2
284
     1
 64
     0
275
    -2
285
     1
 65
     0
276
    -2
286
     1
 66
     0
277
    -2
287
     1
 67
     0
278
    -2
288
     1
 68
     0
279
    -2
289
     1
 69
     0
  7
Standard
140
6.0
170
     5
 62
     0
 63
   257
283
     0
 90
        4
 91
        0
  1

274
    -2
284
     1
 64
     0
275
    -2
285
     1
 65
     0
276
    -2
286
     1
 66
     0
277
    -2
287
     1
 67
     0
278
    -2
288
     1
 68
     0
279
    -2
289
     1
 69
     0
  7
Standard
140
4.5
170
     5
 62
     0
 63
   257
283
     0
 90
        4
 91
        0
  1

274
    -2
284
     1
 64
     0
275
    -2
285
     1
 65
     0
276
    -2
286
     1
 66
     0
277
    -2
287
     1
 67
     0
278
    -2
288
     1
 68
     0
279
    -2
289
     1
 69
     0
  0
VISUALSTYLE
  5
2F
102
{ACAD_REACTORS
330
2A
102
}
102
{ACAD_XDICTIONARY
360
145
102
}
330
2A
100
AcDbVisualStyle
  2
2dWireframe
 70
     4
177
     2
291
     0
 71
     0
176
     1
 72
     2
176
     1
 73
     0
176
     1
 90
        0
176
     1
 40
0.6
176
     1
 41
30.0
176
     1
 62
     5
 63
     7
421
 16777215
176
     1
 74
     1
176
     1
 91
        4
176
     1
 64
     7
176
     1
 65
   257
176
     1
 75
     1
176
     1
175
     1
176
     1
 42
1.0
176
     1
 92
        0
176
     1
 66
   257
176
     1
 43
1.0
176
     1
 76
     1
176
     1
 77
     6
176
     1
 78
     2
176
     1
 67
     7
176
     1
 79
     5
176
     1
170
     0
176
     1
171
     0
176
     1
290
     0
176
     1
 93
        1
176
     1
 44
0.0
176
     1
173
     0
176
     1
  0
VISUALSTYLE
  5
32
102
{ACAD_REACTORS
330
2A
102
}
102
{ACAD_XDICTIONARY
360
14B
102
}
330
2A
100
AcDbVisualStyle
  2
Basic
 70
     7
177
     2
291
     1
 71
     1
176
     1
 72
     0
176
     1
 73
     1
176
     1
 90
        0
176
     1
 40
0.6
176
     1
 41
30.0
176
     1
 62
     5
 63
     7
421
 16777215
176
     1
 74
     0
176
     1
 91
        4
176
     1
 64
     7
176
     1
 65
   257
176
     1
 75
     1
176
     1
175
     1
176
     1
 42
1.0
176
     1
 92
        8
176
     1
 66
     7
176
     1
 43
1.0
176
     1
 76
     1
176
     1
 77
     6
176
     1
 78
     2
176
     1
 67
     7
176
     1
 79
     5
176
     1
170
     0
176
     1
171
     0
176
     1
290
     0
176
     1
 93
        1
176
     1
 44
0.0
176
     1
173
     0
176
     1
  0
VISUALSTYLE
  5
36
102
{ACAD_REACTORS
330
2A
102
}
102
{ACAD_XDICTIONARY
360
153
102
}
330
2A
100
AcDbVisualStyle
  2
Brighten
 70
    12
177
     2
291
     1
 71
     2
176
     1
 72
     2
176
     1
 73
     0
176
     1
 90
        0
176
     1
 40
0.6
176
     1
 41
30.0
176
     1
 62
     5
 63
     7
421
 16777215
176
     1
 74
     1
176
     1
 91
        4
176
     1
 64
     7
176
     1
 65
   257
176
     1
 75
     1
176
     1
175
     1
176
     1
 42
1.0
176
     1
 92
        8
176
     1
 66
     7
176
     1
 43
1.0
176
     1
 76
     1
176
     1
 77
     6
176
     1
 78
     2
176
     1
 67
     7
176
     1
 79
     5
176
     1
170
     0
176
     1
171
     0
176
     1
290
     0
176
     1
 93
        1
176
     1
 44
50.0
176
     1
173
     0
176
     1
  0
VISUALSTYLE
  5
3A
102
{ACAD_REACTORS
330
2A
102
}
102
{ACAD_XDICTIONARY
360
15B
102
}
330
2A
100
AcDbVisualStyle
  2
ColorChange
 70
    16
177
     2
291
     1
 71
     2
176
     1
 72
     2
176
     1
 73
     3
176
     1
 90
        0
176
     1
 40
0.6
176
     1
 41
30.0
176
     1
 62
     5
 63
     8
421
  8421504
176
     1
 74
     1
176
     1
 91
        4
176
     1
 64
     7
176
     1
 65
   257
176
     1
 75
     1
176
     1
175
     1
176
     1
 42
1.0
176
     1
 92
        8
176
     1
 66
     8
424
  8421504
176
     1
 43
1.0
176
     1
 76
     1
176
     1
 77
     6
176
     1
 78
     2
176
     1
 67
     7
176
     1
 79
     5
176
     1
170
     0
176
     1
171
     0
176
     1
290
     0
176
     1
 93
        1
176
     1
 44
0.0
176
     1
173
     0
176
     1
  0
VISUALSTYLE
  5
34
102
{ACAD_REACTORS
330
2A
102
}
102
{ACAD_XDICTIONARY
360
14F
102
}
330
2A
100
AcDbVisualStyle
  2
Conceptual
 70
     9
177
     2
291
     0
 71
     3
176
     1
 72
     2
176
     1
 73
     0
176
     1
 90
        0
176
     1
 40
0.6
176
     1
 41
30.0
176
     1
 62
     5
 63
     7
421
 16777215
176
     1
 74
     2
176
     1
 91
        2
176
     1
 64
     7
176
     1
 65
   257
176
     1
 75
     1
176
     1
175
     1
176
     1
 42
179.0
176
     1
 92
        8
176
     1
 66
     7
176
     1
 43
1.0
176
     1
 76
     1
176
     1
 77
     6
176
     1
 78
     2
176
     1
 67
     7
176
     1
 79
     3
176
     1
170
     0
176
     1
171
     0
176
     1
290
     0
176
     1
 93
        1
176
     1
 44
0.0
176
     1
173
     0
176
     1
  0
VISUALSTYLE
  5
35
102
{ACAD_REACTORS
330
2A
102
}
102
{ACAD_XDICTIONARY
360
151
102
}
330
2A
100
AcDbVisualStyle
  2
Dim
 70
    11
177
     2
291
     1
 71
     2
176
     1
 72
     2
176
     1
 73
     0
176
     1
 90
        0
176
     1
 40
0.6
176
     1
 41
30.0
176
     1
 62
     5
 63
     7
421
 16777215
176
     1
 74
     1
176
     1
 91
        4
176
     1
 64
     7
176
     1
 65
   257
176
     1
 75
     1
176
     1
175
     1
176
     1
 42
1.0
176
     1
 92
        8
176
     1
 66
     7
176
     1
 43
1.0
176
     1
 76
     1
176
     1
 77
     6
176
     1
 78
     2
176
     1
 67
     7
176
     1
 79
     5
176
     1
170
     0
176
     1
171
     0
176
     1
290
     0
176
     1
 93
        1
176
     1
 44
-50.0
176
     1
173
     0
176
     1
  0
VISUALSTYLE
  5
3D
102
{ACAD_REACTORS
330
2A
102
}
102
{ACAD_XDICTIONARY
360
161
102
}
330
2A
100
AcDbVisualStyle
  2
EdgeColorOff
 70
    22
177
     2
291
     1
 71
     2
176
     0
 72
     2
176
     0
 73
     0
176
     0
 90
        0
176
     0
 40
0.6
176
     0
 41
30.0
176
     0
 62
     5
 63
     7
421
 16777215
176
     0
 74
     1
176
     0
 91
        4
176
     0
 64
     7
176
     0
 65
   257
176
     0
 75
     1
176
     0
175
     1
176
     0
 42
1.0
176
     0
 92
        8
176
     2
 66
     7
176
     0
 43
1.0
176
     0
 76
     1
176
     0
 77
     6
176
     0
 78
     2
176
     0
 67
     7
176
     0
 79
     5
176
     0
170
     0
176
     0
171
     0
176
     0
290
     0
176
     0
 93
        1
176
     0
 44
0.0
176
     0
173
     0
176
     0
  0
VISUALSTYLE
  5
39
102
{ACAD_REACTORS
330
2A
102
}
102
{ACAD_XDICTIONARY
360
159
102
}
330
2A
100
AcDbVisualStyle
  2
Facepattern
 70
    15
177
     2
291
     1
 71
     2
176
     1
 72
     2
176
     1
 73
     0
176
     1
 90
        0
176
     1
 40
0.6
176
     1
 41
30.0
176
     1
 62
     5
 63
     7
421
 16777215
176
     1
 74
     1
176
     1
 91
        4
176
     1
 64
     7
176
     1
 65
   257
176
     1
 75
     1
176
     1
175
     1
176
     1
 42
1.0
176
     1
 92
        8
176
     1
 66
     7
176
     1
 43
1.0
176
     1
 76
     1
176
     1
 77
     6
176
     1
 78
     2
176
     1
 67
     7
176
     1
 79
     5
176
     1
170
     0
176
     1
171
     0
176
     1
290
     0
176
     1
 93
        1
176
     1
 44
0.0
176
     1
173
     0
176
     1
  0
VISUALSTYLE
  5
2B
102
{ACAD_REACTORS
330
2A
102
}
102
{ACAD_XDICTIONARY
360
13D
102
}
330
2A
100
AcDbVisualStyle
  2
Flat
 70
     0
177
     2
291
     1
 71
     2
176
     1
 72
     1
176
     1
 73
     1
176
     1
 90
        2
176
     1
 40
0.6
176
     1
 41
30.0
176
     1
 62
     5
 63
     7
421
 16777215
176
     1
 74
     0
176
     1
 91
        0
176
     1
 64
     7
176
     1
 65
   257
176
     1
 75
     1
176
     1
175
     1
176
     1
 42
1.0
176
     1
 92
        8
176
     1
 66
     7
176
     1
 43
1.0
176
     1
 76
     1
176
     1
 77
     6
176
     1
 78
     2
176
     1
 67
     7
176
     1
 79
     5
176
     1
170
     0
176
     1
171
     0
176
     1
290
     0
176
     1
 93
       13
176
     1
 44
0.0
176
     1
173
     0
176
     1
  0
VISUALSTYLE
  5
2C
102
{ACAD_REACTORS
330
2A
102
}
102
{ACAD_XDICTIONARY
360
13F
102
}
330
2A
100
AcDbVisualStyle
  2
FlatWithEdges
 70
     1
177
     2
291
     1
 71
     2
176
     1
 72
     1
176
     1
 73
     1
176
     1
 90
        2
176
     1
 40
0.6
176
     1
 41
30.0
176
     1
 62
     5
 63
     7
421
 16777215
176
     1
 74
     1
176
     1
 91
        0
176
     1
 64
     7
176
     1
 65
   257
176
     1
 75
     1
176
     1
175
     1
176
     1
 42
1.0
176
     1
 92
        0
176
     1
 66
   257
176
     1
 43
1.0
176
     1
 76
     1
176
     1
 77
     6
176
     1
 78
     2
176
     1
 67
     7
176
     1
 79
     5
176
     1
170
     0
176
     1
171
     0
176
     1
290
     0
176
     1
 93
       13
176
     1
 44
0.0
176
     1
173
     0
176
     1
  0
VISUALSTYLE
  5
2D
102
{ACAD_REACTORS
330
2A
102
}
102
{ACAD_XDICTIONARY
360
141
102
}
330
2A
100
AcDbVisualStyle
  2
Gouraud
 70
     2
177
     2
291
     1
 71
     2
176
     1
 72
     2
176
     1
 73
     1
176
     1
 90
        2
176
     1
 40
0.6
176
     1
 41
30.0
176
     1
 62
     5
 63
     7
421
 16777215
176
     1
 74
     0
176
     1
 91
        0
176
     1
 64
     7
176
     1
 65
   257
176
     1
 75
     1
176
     1
175
     1
176
     1
 42
1.0
176
     1
 92
        0
176
     1
 66
     7
176
     1
 43
1.0
176
     1
 76
     1
176
     1
 77
     6
176
     1
 78
     2
176
     1
 67
     7
176
     1
 79
     5
176
     1
170
     0
176
     1
171
     0
176
     1
290
     0
176
     1
 93
       13
176
     1
 44
0.0
176
     1
173
     0
176
     1
  0
VISUALSTYLE
  5
2E
102
{ACAD_REACTORS
330
2A
102
}
102
{ACAD_XDICTIONARY
360
143
102
}
330
2A
100
AcDbVisualStyle
  2
GouraudWithEdges
 70
     3
177
     2
291
     1
 71
     2
176
     1
 72
     2
176
     1
 73
     1
176
     1
 90
        2
176
     1
 40
0.6
176
     1
 41
30.0
176
     1
 62
     5
 63
     7
421
 16777215
176
     1
 74
     1
176
     1
 91
        0
176
     1
 64
     7
176
     1
 65
   257
176
     1
 75
     1
176
     1
175
     1
176
     1
 42
1.0
176
     1
 92
        0
176
     1
 66
   257
176
     1
 43
1.0
176
     1
 76
     1
176
     1
 77
     6
176
     1
 78
     2
176
     1
 67
     7
176
     1
 79
     5
176
     1
170
     0
176
     1
171
     0
176
     1
290
     0
176
     1
 93
       13
176
     1
 44
0.0
176
     1
173
     0
176
     1
  0
VISUALSTYLE
  5
31
102
{ACAD_REACTORS
330
2A
102
}
102
{ACAD_XDICTIONARY
360
149
102
}
330
2A
100
AcDbVisualStyle
  2
Hidden
 70
     6
177
     2
291
     0
 71
     1
176
     1
 72
     2
176
     1
 73
     2
176
     1
 90
        0
176
     1
 40
0.6
176
     1
 41
30.0
176
     1
 62
     5
 63
     7
421
 16777215
176
     1
 74
     2
176
     1
 91
        2
176
     1
 64
     7
176
     1
 65
   257
176
     1
 75
     2
176
     1
175
     1
176
     1
 42
40.0
176
     1
 92
        0
176
     1
 66
   257
176
     1
 43
1.0
176
     1
 76
     1
176
     1
 77
     6
176
     1
 78
     2
176
     1
 67
     7
176
     1
 79
     3
176
     1
170
     0
176
     1
171
     0
176
     1
290
     0
176
     1
 93
        1
176
     1
 44
0.0
176
     1
173
     0
176
     1
  0
VISUALSTYLE
  5
3B
102
{ACAD_REACTORS
330
2A
102
}
102
{ACAD_XDICTIONARY
360
15D
102
}
330
2A
100
AcDbVisualStyle
  2
JitterOff
 70
    20
177
     2
291
     1
 71
     2
176
     0
 72
     2
176
     0
 73
     0
176
     0
 90
        0
176
     0
 40
0.6
176
     0
 41
30.0
176
     0
 62
     5
 63
     7
421
 16777215
176
     0
 74
     1
176
     0
 91
        4
176
     0
 64
     7
176
     0
 65
   257
176
     0
 75
     1
176
     0
175
     1
176
     0
 42
1.0
176
     0
 92
       10
176
     2
 66
     7
176
     0
 43
1.0
176
     0
 76
     1
176
     0
 77
     6
176
     0
 78
     2
176
     0
 67
     7
176
     0
 79
     5
176
     0
170
     0
176
     0
171
     0
176
     0
290
     0
176
     0
 93
        1
176
     0
 44
0.0
176
     0
173
     0
176
     0
  0
VISUALSTYLE
  5
38
102
{ACAD_REACTORS
330
2A
102
}
102
{ACAD_XDICTIONARY
360
157
102
}
330
2A
100
AcDbVisualStyle
  2
Linepattern
 70
    14
177
     2
291
     1
 71
     2
176
     1
 72
     2
176
     1
 73
     0
176
     1
 90
        0
176
     1
 40
0.6
176
     1
 41
30.0
176
     1
 62
     5
 63
     7
421
 16777215
176
     1
 74
     1
176
     1
 91
        4
176
     1
 64
     7
176
     1
 65
   257
176
     1
 75
     7
176
     1
175
     7
176
     1
 42
1.0
176
     1
 92
        8
176
     1
 66
     7
176
     1
 43
1.0
176
     1
 76
     1
176
     1
 77
     6
176
     1
 78
     2
176
     1
 67
     7
176
     1
 79
     5
176
     1
170
     0
176
     1
171
     0
176
     1
290
     0
176
     1
 93
        1
176
     1
 44
0.0
176
     1
173
     0
176
     1
  0
VISUALSTYLE
  5
3C
102
{ACAD_REACTORS
330
2A
102
}
102
{ACAD_XDICTIONARY
360
15F
102
}
330
2A
100
AcDbVisualStyle
  2
OverhangOff
 70
    21
177
     2
291
     1
 71
     2
176
     0
 72
     2
176
     0
 73
     0
176
     0
 90
        0
176
     0
 40
0.6
176
     0
 41
30.0
176
     0
 62
     5
 63
     7
421
 16777215
176
     0
 74
     1
176
     0
 91
        4
176
     0
 64
     7
176
     0
 65
   257
176
     0
 75
     1
176
     0
175
     1
176
     0
 42
1.0
176
     0
 92
        9
176
     2
 66
     7
176
     0
 43
1.0
176
     0
 76
     1
176
     0
 77
     6
176
     0
 78
     2
176
     0
 67
     7
176
     0
 79
     5
176
     0
170
     0
176
     0
171
     0
176
     0
290
     0
176
     0
 93
        1
176
     0
 44
0.0
176
     0
173
     0
176
     0
  0
VISUALSTYLE
  5
33
102
{ACAD_REACTORS
330
2A
102
}
102
{ACAD_XDICTIONARY
360
14D
102
}
330
2A
100
AcDbVisualStyle
  2
Realistic
 70
     8
177
     2
291
     0
 71
     2
176
     1
 72
     3
176
     1
 73
     0
176
     1
 90
        2
176
     1
 40
0.6
176
     1
 41
30.0
176
     1
 62
     5
 63
     7
421
 16777215
176
     1
 74
     0
176
     1
 91
        0
176
     1
 64
     7
176
     1
 65
   257
176
     1
 75
     1
176
     1
175
     1
176
     1
 42
1.0
176
     1
 92
        8
176
     1
 66
   257
176
     1
 43
1.0
176
     1
 76
     1
176
     1
 77
     6
176
     1
 78
     2
176
     1
 67
     7
176
     1
 79
     3
176
     1
170
     0
176
     1
171
     0
176
     1
290
     0
176
     1
 93
       13
176
     1
 44
0.0
176
     1
173
     0
176
     1
  0
VISUALSTYLE
  5
42
102
{ACAD_REACTORS
330
2A
102
}
102
{ACAD_XDICTIONARY
360
16B
102
}
330
2A
100
AcDbVisualStyle
  2
Shaded
 70
    27
177
     2
291
     0
 71
     2
176
     1
 72
     2
176
     1
 73
     1
176
     1
 90
        2
176
     1
 40
0.6
176
     1
 41
30.0
176
     1
 62
     5
 63
     7
421
 16777215
176
     1
 74
     0
176
     1
 91
        4
176
     1
 64
     7
176
     1
 65
   257
176
     1
 75
     1
176
     1
175
     1
176
     1
 42
1.0
176
     1
 92
        8
176
     1
 66
   257
176
     1
 43
1.0
176
     1
 76
     1
176
     1
 77
     6
176
     1
 78
     2
176
     1
 67
     8
425
  7895160
176
     1
 79
     3
176
     1
170
     0
176
     1
171
     0
176
     1
290
     0
176
     1
 93
        5
176
     1
 44
0.0
176
     1
173
     0
176
     1
  0
VISUALSTYLE
  5
41
102
{ACAD_REACTORS
330
2A
102
}
102
{ACAD_XDICTIONARY
360
169
102
}
330
2A
100
AcDbVisualStyle
  2
Shaded with edges
 70
    26
177
     2
291
     0
 71
     2
176
     1
 72
     2
176
     1
 73
     1
176
     1
 90
        2
176
     1
 40
0.6
176
     1
 41
30.0
176
     1
 62
     5
 63
     7
421
 16777215
176
     1
 74
     1
176
     1
 91
       10
176
     1
 64
     7
176
     1
 65
   257
176
     1
 75
     2
176
     1
175
     1
176
     1
 42
1.0
176
     1
 92
        8
176
     1
 66
   257
176
     1
 43
1.0
176
     1
 76
     1
176
     1
 77
     6
176
     1
 78
     2
176
     1
 67
     7
176
     1
 79
     3
176
     1
170
     0
176
     1
171
     0
176
     1
290
     0
176
     1
 93
        5
176
     1
 44
0.0
176
     1
173
     0
176
     1
  0
VISUALSTYLE
  5
3E
102
{ACAD_REACTORS
330
2A
102
}
102
{ACAD_XDICTIONARY
360
163
102
}
330
2A
100
AcDbVisualStyle
  2
Shades of Gray
 70
    23
177
     2
291
     0
 71
     2
176
     1
 72
     2
176
     1
 73
     3
176
     1
 90
        0
176
     1
 40
0.6
176
     1
 41
30.0
176
     1
 62
     5
 63
     7
421
 16777215
176
     1
 74
     2
176
     1
 91
        2
176
     1
 64
     7
176
     1
 65
     7
176
     1
 75
     1
176
     1
175
     1
176
     1
 42
40.0
176
     1
 92
        8
176
     1
 66
     7
176
     1
 43
1.0
176
     1
 76
     1
176
     1
 77
     6
176
     1
 78
     2
176
     1
 67
     7
176
     1
 79
     3
176
     1
170
     0
176
     1
171
     0
176
     1
290
     0
176
     1
 93
        1
176
     1
 44
0.0
176
     1
173
     0
176
     1
  0
VISUALSTYLE
  5
3F
102
{ACAD_REACTORS
330
2A
102
}
102
{ACAD_XDICTIONARY
360
165
102
}
330
2A
100
AcDbVisualStyle
  2
Sketchy
 70
    24
177
     2
291
     0
 71
     1
176
     1
 72
     2
176
     1
 73
     2
176
     1
 90
        0
176
     1
 40
0.6
176
     1
 41
30.0
176
     1
 62
     5
 63
     7
421
 16777215
176
     1
 74
     2
176
     1
 91
        2
176
     1
 64
     7
176
     1
 65
     7
176
     1
 75
     1
176
     1
175
     1
176
     1
 42
40.0
176
     1
 92
       11
176
     1
 66
     7
176
     1
 43
1.0
176
     1
 76
     1
176
     1
 77
     6
176
     1
 78
     2
176
     1
 67
     7
176
     1
 79
     6
176
     1
170
     0
176
     1
171
     0
176
     1
290
     0
176
     1
 93
        1
176
     1
 44
0.0
176
     1
173
     0
176
     1
  0
VISUALSTYLE
  5
37
102
{ACAD_REACTORS
330
2A
102
}
102
{ACAD_XDICTIONARY
360
155
102
}
330
2A
100
AcDbVisualStyle
  2
Thicken
 70
    13
177
     2
291
     1
 71
     2
176
     1
 72
     2
176
     1
 73
     0
176
     1
 90
        0
176
     1
 40
0.6
176
     1
 41
30.0
176
     1
 62
     5
 63
     7
421
 16777215
176
     1
 74
     1
176
     1
 91
        4
176
     1
 64
     7
176
     1
 65
   257
176
     1
 75
     1
176
     1
175
     1
176
     1
 42
1.0
176
     1
 92
       12
176
     1
 66
     7
176
     1
 43
1.0
176
     1
 76
     1
176
     1
 77
     6
176
     1
 78
     2
176
     1
 67
     7
176
     1
 79
     5
176
     1
170
     0
176
     1
171
     0
176
     1
290
     0
176
     1
 93
        1
176
     1
 44
0.0
176
     1
173
     0
176
     1
  0
VISUALSTYLE
  5
30
102
{ACAD_REACTORS
330
2A
102
}
102
{ACAD_XDICTIONARY
360
147
102
}
330
2A
100
AcDbVisualStyle
  2
Wireframe
 70
     5
177
     2
291
     0
 71
     0
176
     1
 72
     2
176
     1
 73
     0
176
     1
 90
        0
176
     1
 40
0.6
176
     1
 41
30.0
176
     1
 62
     5
 63
     7
421
 16777215
176
     1
 74
     1
176
     1
 91
        4
176
     1
 64
     7
176
     1
 65
   257
176
     1
 75
     1
176
     1
175
     1
176
     1
 42
1.0
176
     1
 92
        0
176
     1
 66
   257
176
     1
 43
1.0
176
     1
 76
     1
176
     1
 77
     6
176
     1
 78
     2
176
     1
 67
     7
176
     1
 79
     3
176
     1
170
     0
176
     1
171
     0
176
     1
290
     0
176
     1
 93
        1
176
     1
 44
0.0
176
     1
173
     0
176
     1
  0
VISUALSTYLE
  5
40
102
{ACAD_REACTORS
330
2A
102
}
102
{ACAD_XDICTIONARY
360
167
102
}
330
2A
100
AcDbVisualStyle
  2
X-Ray
 70
    25
177
     2
291
     0
 71
     2
176
     1
 72
     2
176
     1
 73
     1
176
     1
 90
        1
176
     1
 40
0.5
176
     1
 41
30.0
176
     1
 62
     5
 63
     7
421
 16777215
176
     1
 74
     1
176
     1
 91
        0
176
     1
 64
     7
176
     1
 65
   257
176
     1
 75
     1
176
     1
175
     1
176
     1
 42
1.0
176
     1
 92
        8
176
     1
 66
     7
176
     1
 43
1.0
176
     1
 76
     1
176
     1
 77
     6
176
     1
 78
     2
176
     1
 67
     7
176
     1
 79
     3
176
     1
170
     0
176
     1
171
     0
176
     1
290
     0
176
     1
 93
       13
176
     1
 44
0.0
176
     1
173
     0
176
     1
  0
DICTIONARYVAR
  5
13C
102
{ACAD_REACTORS
330
13B
102
}
330
13B
100
DictionaryVariables
280
     0
  1
1:1
  0
DICTIONARYVAR
  5
174
102
{ACAD_REACTORS
330
13B
102
}
330
13B
100
DictionaryVariables
280
     0
  1
3.500000
  0
DICTIONARYVAR
  5
175
102
{ACAD_REACTORS
330
13B
102
}
330
13B
100
DictionaryVariables
280
     0
  1
acadiso.lin
  0
DICTIONARYVAR
  5
171
102
{ACAD_REACTORS
330
13B
102
}
330
13B
100
DictionaryVariables
280
     0
  1
Standard
  0
DICTIONARYVAR
  5
170
102
{ACAD_REACTORS
330
13B
102
}
330
13B
100
DictionaryVariables
280
     0
  1
Standard
  0
DICTIONARY
  5
16D
330
5A
100
AcDbDictionary
280
     1
281
     1
  3
ACAD_ROUNDTRIP_2008_TABLESTYLE_CELLSTYLEMAP
360
16E
  0
DICTIONARY
  5
145
330
2F
100
AcDbDictionary
280
     1
281
     1
  3
ACAD_XREC_ROUNDTRIP
360
146
  0
DICTIONARY
  5
14B
330
32
100
AcDbDictionary
280
     1
281
     1
  3
ACAD_XREC_ROUNDTRIP
360
14C
  0
DICTIONARY
  5
153
330
36
100
AcDbDictionary
280
     1
281
     1
  3
ACAD_XREC_ROUNDTRIP
360
154
  0
DICTIONARY
  5
15B
330
3A
100
AcDbDictionary
280
     1
281
     1
  3
ACAD_XREC_ROUNDTRIP
360
15C
  0
DICTIONARY
  5
14F
330
34
100
AcDbDictionary
280
     1
281
     1
  3
ACAD_XREC_ROUNDTRIP
360
150
  0
DICTIONARY
  5
151
330
35
100
AcDbDictionary
280
     1
281
     1
  3
ACAD_XREC_ROUNDTRIP
360
152
  0
DICTIONARY
  5
161
330
3D
100
AcDbDictionary
280
     1
281
     1
  3
ACAD_XREC_ROUNDTRIP
360
162
  0
DICTIONARY
  5
159
330
39
100
AcDbDictionary
280
     1
281
     1
  3
ACAD_XREC_ROUNDTRIP
360
15A
  0
DICTIONARY
  5
13D
330
2B
100
AcDbDictionary
280
     1
281
     1
  3
ACAD_XREC_ROUNDTRIP
360
13E
  0
DICTIONARY
  5
13F
330
2C
100
AcDbDictionary
280
     1
281
     1
  3
ACAD_XREC_ROUNDTRIP
360
140
  0
DICTIONARY
  5
141
330
2D
100
AcDbDictionary
280
     1
281
     1
  3
ACAD_XREC_ROUNDTRIP
360
142
  0
DICTIONARY
  5
143
330
2E
100
AcDbDictionary
280
     1
281
     1
  3
ACAD_XREC_ROUNDTRIP
360
144
  0
DICTIONARY
  5
149
330
31
100
AcDbDictionary
280
     1
281
     1
  3
ACAD_XREC_ROUNDTRIP
360
14A
  0
DICTIONARY
  5
15D
330
3B
100
AcDbDictionary
280
     1
281
     1
  3
ACAD_XREC_ROUNDTRIP
360
15E
  0
DICTIONARY
  5
157
330
38
100
AcDbDictionary
280
     1
281
     1
  3
ACAD_XREC_ROUNDTRIP
360
158
  0
DICTIONARY
  5
15F
330
3C
100
AcDbDictionary
280
     1
281
     1
  3
ACAD_XREC_ROUNDTRIP
360
160
  0
DICTIONARY
  5
14D
330
33
100
AcDbDictionary
280
     1
281
     1
  3
ACAD_XREC_ROUNDTRIP
360
14E
  0
DICTIONARY
  5
16B
330
42
100
AcDbDictionary
280
     1
281
     1
  3
ACAD_XREC_ROUNDTRIP
360
16C
  0
DICTIONARY
  5
169
330
41
100
AcDbDictionary
280
     1
281
     1
  3
ACAD_XREC_ROUNDTRIP
360
16A
  0
DICTIONARY
  5
163
330
3E
100
AcDbDictionary
280
     1
281
     1
  3
ACAD_XREC_ROUNDTRIP
360
164
  0
DICTIONARY
  5
165
330
3F
100
AcDbDictionary
280
     1
281
     1
  3
ACAD_XREC_ROUNDTRIP
360
166
  0
DICTIONARY
  5
155
330
37
100
AcDbDictionary
280
     1
281
     1
  3
ACAD_XREC_ROUNDTRIP
360
156
  0
DICTIONARY
  5
147
330
30
100
AcDbDictionary
280
     1
281
     1
  3
ACAD_XREC_ROUNDTRIP
360
148
  0
DICTIONARY
  5
167
330
40
100
AcDbDictionary
280
     1
281
     1
  3
ACAD_XREC_ROUNDTRIP
360
168
  0
CELLSTYLEMAP
  5
16E
102
{ACAD_REACTORS
330
16D
102
}
330
16D
100
AcDbCellStyleMap
 90
        3
300
CELLSTYLE
  1
TABLEFORMAT_BEGIN
 90
        5
170
     1
 91
        0
 92
    32768
 62
   257
 93
        1
300
CONTENTFORMAT
  1
CONTENTFORMAT_BEGIN
 90
        0
 91
        0
 92
        4
 93
        0
300

 40
0.0
140
1.0
 94
        5
 62
     0
340
11
144
6.0
309
CONTENTFORMAT_END
171
     1
301
MARGIN
  1
CELLMARGIN_BEGIN
 40
1.5
 40
1.5
 40
1.5
 40
1.5
 40
1.5
 40
1.5
309
CELLMARGIN_END
 94
        6
 95
        1
302
GRIDFORMAT
  1
GRIDFORMAT_BEGIN
 90
        0
 91
        1
 62
     0
 92
       -2
340
14
 93
        0
 40
0.045
309
GRIDFORMAT_END
 95
        2
302
GRIDFORMAT
  1
GRIDFORMAT_BEGIN
 90
        0
 91
        1
 62
     0
 92
       -2
340
14
 93
        0
 40
0.045
309
GRIDFORMAT_END
 95
        4
302
GRIDFORMAT
  1
GRIDFORMAT_BEGIN
 90
        0
 91
        1
 62
     0
 92
       -2
340
14
 93
        0
 40
0.045
309
GRIDFORMAT_END
 95
        8
302
GRIDFORMAT
  1
GRIDFORMAT_BEGIN
 90
        0
 91
        1
 62
     0
 92
       -2
340
14
 93
        0
 40
0.045
309
GRIDFORMAT_END
 95
       16
302
GRIDFORMAT
  1
GRIDFORMAT_BEGIN
 90
        0
 91
        1
 62
     0
 92
       -2
340
14
 93
        0
 40
0.045
309
GRIDFORMAT_END
 95
       32
302
GRIDFORMAT
  1
GRIDFORMAT_BEGIN
 90
        0
 91
        1
 62
     0
 92
       -2
340
14
 93
        0
 40
0.045
309
GRIDFORMAT_END
309
TABLEFORMAT_END
  1
CELLSTYLE_BEGIN
 90
        1
 91
        1
300
_TITLE
309
CELLSTYLE_END
300
CELLSTYLE
  1
TABLEFORMAT_BEGIN
 90
        5
170
     1
 91
        0
 92
        0
 62
   257
 93
        1
300
CONTENTFORMAT
  1
CONTENTFORMAT_BEGIN
 90
        0
 91
        0
 92
        4
 93
        0
300

 40
0.0
140
1.0
 94
        5
 62
     0
340
11
144
4.5
309
CONTENTFORMAT_END
171
     1
301
MARGIN
  1
CELLMARGIN_BEGIN
 40
1.5
 40
1.5
 40
1.5
 40
1.5
 40
1.5
 40
1.5
309
CELLMARGIN_END
 94
        6
 95
        1
302
GRIDFORMAT
  1
GRIDFORMAT_BEGIN
 90
        0
 91
        1
 62
     0
 92
       -2
340
14
 93
        0
 40
0.045
309
GRIDFORMAT_END
 95
        2
302
GRIDFORMAT
  1
GRIDFORMAT_BEGIN
 90
        0
 91
        1
 62
     0
 92
       -2
340
14
 93
        0
 40
0.045
309
GRIDFORMAT_END
 95
        4
302
GRIDFORMAT
  1
GRIDFORMAT_BEGIN
 90
        0
 91
        1
 62
     0
 92
       -2
340
14
 93
        0
 40
0.045
309
GRIDFORMAT_END
 95
        8
302
GRIDFORMAT
  1
GRIDFORMAT_BEGIN
 90
        0
 91
        1
 62
     0
 92
       -2
340
14
 93
        0
 40
0.045
309
GRIDFORMAT_END
 95
       16
302
GRIDFORMAT
  1
GRIDFORMAT_BEGIN
 90
        0
 91
        1
 62
     0
 92
       -2
340
14
 93
        0
 40
0.045
309
GRIDFORMAT_END
 95
       32
302
GRIDFORMAT
  1
GRIDFORMAT_BEGIN
 90
        0
 91
        1
 62
     0
 92
       -2
340
14
 93
        0
 40
0.045
309
GRIDFORMAT_END
309
TABLEFORMAT_END
  1
CELLSTYLE_BEGIN
 90
        2
 91
        1
300
_HEADER
309
CELLSTYLE_END
300
CELLSTYLE
  1
TABLEFORMAT_BEGIN
 90
        5
170
     1
 91
        0
 92
        0
 62
   257
 93
        1
300
CONTENTFORMAT
  1
CONTENTFORMAT_BEGIN
 90
        0
 91
        0
 92
        4
 93
        0
300

 40
0.0
140
1.0
 94
        2
 62
     0
340
11
144
4.5
309
CONTENTFORMAT_END
171
     1
301
MARGIN
  1
CELLMARGIN_BEGIN
 40
1.5
 40
1.5
 40
1.5
 40
1.5
 40
1.5
 40
1.5
309
CELLMARGIN_END
 94
        6
 95
        1
302
GRIDFORMAT
  1
GRIDFORMAT_BEGIN
 90
        0
 91
        1
 62
     0
 92
       -2
340
14
 93
        0
 40
0.045
309
GRIDFORMAT_END
 95
        2
302
GRIDFORMAT
  1
GRIDFORMAT_BEGIN
 90
        0
 91
        1
 62
     0
 92
       -2
340
14
 93
        0
 40
0.045
309
GRIDFORMAT_END
 95
        4
302
GRIDFORMAT
  1
GRIDFORMAT_BEGIN
 90
        0
 91
        1
 62
     0
 92
       -2
340
14
 93
        0
 40
0.045
309
GRIDFORMAT_END
 95
        8
302
GRIDFORMAT
  1
GRIDFORMAT_BEGIN
 90
        0
 91
        1
 62
     0
 92
       -2
340
14
 93
        0
 40
0.045
309
GRIDFORMAT_END
 95
       16
302
GRIDFORMAT
  1
GRIDFORMAT_BEGIN
 90
        0
 91
        1
 62
     0
 92
       -2
340
14
 93
        0
 40
0.045
309
GRIDFORMAT_END
 95
       32
302
GRIDFORMAT
  1
GRIDFORMAT_BEGIN
 90
        0
 91
        1
 62
     0
 92
       -2
340
14
 93
        0
 40
0.045
309
GRIDFORMAT_END
309
TABLEFORMAT_END
  1
CELLSTYLE_BEGIN
 90
        3
 91
        2
300
_DATA
309
CELLSTYLE_END
  0
XRECORD
  5
146
102
{ACAD_REACTORS
330
145
102
}
330
145
100
AcDbXrecord
280
     1
102
RTVSPost2010Prop28
280
     1
102
RTVSPost2010PropOp28
 70
     1
102
RTVSPost2010Prop29
280
     1
102
RTVSPost2010PropOp29
 70
     1
102
RTVSPost2010Prop30
280
     0
102
RTVSPost2010PropOp30
 70
     1
102
RTVSPost2010Prop31
280
     0
102
RTVSPost2010PropOp31
 70
     1
102
RTVSPost2010Prop32
280
     0
102
RTVSPost2010PropOp32
 70
     1
102
RTVSPost2010Prop33
280
     0
102
RTVSPost2010PropOp33
 70
     1
102
RTVSPost2010Prop34
280
     0
102
RTVSPost2010PropOp34
 70
     1
102
RTVSPost2010Prop35
280
     0
102
RTVSPost2010PropOp35
 70
     1
102
RTVSPost2010Prop36
280
     0
102
RTVSPost2010PropOp36
 70
     1
102
RTVSPost2010Prop37
 90
       50
102
RTVSPost2010PropOp37
 70
     1
102
RTVSPost2010Prop38
140
0.0
102
RTVSPost2010PropOp38
 70
     1
102
RTVSPost2010Prop39
140
1.0
102
RTVSPost2010PropOp39
 70
     1
102
RTVSPost2010Prop40
 90
        0
102
RTVSPost2010PropOp40
 70
     1
102
RTVSPost2010Prop41ColorIndex
 90
       18
102
RTVSPost2010Prop41ColorRGB
 90
        0
102
RTVSPost2010PropOp41
 70
     1
102
RTVSPost2010Prop42
 90
       50
102
RTVSPost2010PropOp42
 70
     1
102
RTVSPost2010Prop43
 90
        3
102
RTVSPost2010PropOp43
 70
     1
102
RTVSPost2010Prop44ColorIndex
 90
        5
102
RTVSPost2010Prop44ColorRGB
 90
      255
102
RTVSPost2010PropOp44
 70
     1
102
RTVSPost2010Prop45
280
     0
102
RTVSPost2010PropOp45
 70
     1
102
RTVSPost2010Prop46
 90
       50
102
RTVSPost2010PropOp46
 70
     1
102
RTVSPost2010Prop47
 90
       50
102
RTVSPost2010PropOp47
 70
     1
102
RTVSPost2010Prop48
 90
       50
102
RTVSPost2010PropOp48
 70
     1
102
RTVSPost2010Prop49
280
     0
102
RTVSPost2010PropOp49
 70
     1
102
RTVSPost2010Prop50
 90
       50
102
RTVSPost2010PropOp50
 70
     1
102
RTVSPost2010Prop51ColorIndex
 90
      256
102
RTVSPost2010Prop51ColorRGB
 90
-16777216
102
RTVSPost2010PropOp51
 70
     0
102
RTVSPost2010Prop52
140
1.0
102
RTVSPost2010PropOp52
 70
     0
102
RTVSPost2010Prop53
 90
        2
102
RTVSPost2010PropOp53
 70
     1
102
RTVSPost2010Prop54
  1
strokes_ogs.tif
102
RTVSPost2010PropOp54
 70
     1
102
RTVSPost2010Prop55
280
     0
102
RTVSPost2010PropOp55
 70
     1
102
RTVSPost2010Prop56
140
1.0
102
RTVSPost2010PropOp56
 70
     1
102
RTVSPost2010Prop57
140
1.0
102
RTVSPost2010PropOp57
 70
     1
  0
XRECORD
  5
14C
102
{ACAD_REACTORS
330
14B
102
}
330
14B
100
AcDbXrecord
280
     1
102
RTVSPost2010Prop28
280
     0
102
RTVSPost2010PropOp28
 70
     1
102
RTVSPost2010Prop29
280
     1
102
RTVSPost2010PropOp29
 70
     1
102
RTVSPost2010Prop30
280
     1
102
RTVSPost2010PropOp30
 70
     1
102
RTVSPost2010Prop31
280
     0
102
RTVSPost2010PropOp31
 70
     1
102
RTVSPost2010Prop32
280
     0
102
RTVSPost2010PropOp32
 70
     1
102
RTVSPost2010Prop33
280
     0
102
RTVSPost2010PropOp33
 70
     1
102
RTVSPost2010Prop34
280
     0
102
RTVSPost2010PropOp34
 70
     1
102
RTVSPost2010Prop35
280
     0
102
RTVSPost2010PropOp35
 70
     1
102
RTVSPost2010Prop36
280
     0
102
RTVSPost2010PropOp36
 70
     1
102
RTVSPost2010Prop37
 90
       50
102
RTVSPost2010PropOp37
 70
     1
102
RTVSPost2010Prop38
140
0.0
102
RTVSPost2010PropOp38
 70
     1
102
RTVSPost2010Prop39
140
1.0
102
RTVSPost2010PropOp39
 70
     1
102
RTVSPost2010Prop40
 90
        0
102
RTVSPost2010PropOp40
 70
     1
102
RTVSPost2010Prop41ColorIndex
 90
       18
102
RTVSPost2010Prop41ColorRGB
 90
        0
102
RTVSPost2010PropOp41
 70
     1
102
RTVSPost2010Prop42
 90
       50
102
RTVSPost2010PropOp42
 70
     1
102
RTVSPost2010Prop43
 90
        3
102
RTVSPost2010PropOp43
 70
     1
102
RTVSPost2010Prop44ColorIndex
 90
        5
102
RTVSPost2010Prop44ColorRGB
 90
      255
102
RTVSPost2010PropOp44
 70
     1
102
RTVSPost2010Prop45
280
     0
102
RTVSPost2010PropOp45
 70
     1
102
RTVSPost2010Prop46
 90
       50
102
RTVSPost2010PropOp46
 70
     1
102
RTVSPost2010Prop47
 90
       50
102
RTVSPost2010PropOp47
 70
     1
102
RTVSPost2010Prop48
 90
       50
102
RTVSPost2010PropOp48
 70
     1
102
RTVSPost2010Prop49
280
     0
102
RTVSPost2010PropOp49
 70
     1
102
RTVSPost2010Prop50
 90
       50
102
RTVSPost2010PropOp50
 70
     1
102
RTVSPost2010Prop51ColorIndex
 90
      256
102
RTVSPost2010Prop51ColorRGB
 90
-16777216
102
RTVSPost2010PropOp51
 70
     0
102
RTVSPost2010Prop52
140
1.0
102
RTVSPost2010PropOp52
 70
     0
102
RTVSPost2010Prop53
 90
        2
102
RTVSPost2010PropOp53
 70
     1
102
RTVSPost2010Prop54
  1
strokes_ogs.tif
102
RTVSPost2010PropOp54
 70
     1
102
RTVSPost2010Prop55
280
     0
102
RTVSPost2010PropOp55
 70
     1
102
RTVSPost2010Prop56
140
1.0
102
RTVSPost2010PropOp56
 70
     1
102
RTVSPost2010Prop57
140
1.0
102
RTVSPost2010PropOp57
 70
     1
  0
XRECORD
  5
154
102
{ACAD_REACTORS
330
153
102
}
330
153
100
AcDbXrecord
280
     1
102
RTVSPost2010Prop28
280
     0
102
RTVSPost2010PropOp28
 70
     1
102
RTVSPost2010Prop29
280
     1
102
RTVSPost2010PropOp29
 70
     1
102
RTVSPost2010Prop30
280
     1
102
RTVSPost2010PropOp30
 70
     1
102
RTVSPost2010Prop31
280
     0
102
RTVSPost2010PropOp31
 70
     1
102
RTVSPost2010Prop32
280
     0
102
RTVSPost2010PropOp32
 70
     1
102
RTVSPost2010Prop33
280
     0
102
RTVSPost2010PropOp33
 70
     1
102
RTVSPost2010Prop34
280
     0
102
RTVSPost2010PropOp34
 70
     1
102
RTVSPost2010Prop35
280
     0
102
RTVSPost2010PropOp35
 70
     1
102
RTVSPost2010Prop36
280
     0
102
RTVSPost2010PropOp36
 70
     1
102
RTVSPost2010Prop37
 90
       50
102
RTVSPost2010PropOp37
 70
     1
102
RTVSPost2010Prop38
140
0.0
102
RTVSPost2010PropOp38
 70
     1
102
RTVSPost2010Prop39
140
1.0
102
RTVSPost2010PropOp39
 70
     1
102
RTVSPost2010Prop40
 90
        0
102
RTVSPost2010PropOp40
 70
     1
102
RTVSPost2010Prop41ColorIndex
 90
       18
102
RTVSPost2010Prop41ColorRGB
 90
        0
102
RTVSPost2010PropOp41
 70
     1
102
RTVSPost2010Prop42
 90
       50
102
RTVSPost2010PropOp42
 70
     1
102
RTVSPost2010Prop43
 90
        3
102
RTVSPost2010PropOp43
 70
     1
102
RTVSPost2010Prop44ColorIndex
 90
        5
102
RTVSPost2010Prop44ColorRGB
 90
      255
102
RTVSPost2010PropOp44
 70
     1
102
RTVSPost2010Prop45
280
     0
102
RTVSPost2010PropOp45
 70
     1
102
RTVSPost2010Prop46
 90
       50
102
RTVSPost2010PropOp46
 70
     1
102
RTVSPost2010Prop47
 90
       50
102
RTVSPost2010PropOp47
 70
     1
102
RTVSPost2010Prop48
 90
       50
102
RTVSPost2010PropOp48
 70
     1
102
RTVSPost2010Prop49
280
     0
102
RTVSPost2010PropOp49
 70
     1
102
RTVSPost2010Prop50
 90
       50
102
RTVSPost2010PropOp50
 70
     1
102
RTVSPost2010Prop51ColorIndex
 90
      256
102
RTVSPost2010Prop51ColorRGB
 90
-16777216
102
RTVSPost2010PropOp51
 70
     0
102
RTVSPost2010Prop52
140
1.0
102
RTVSPost2010PropOp52
 70
     0
102
RTVSPost2010Prop53
 90
        2
102
RTVSPost2010PropOp53
 70
     1
102
RTVSPost2010Prop54
  1
strokes_ogs.tif
102
RTVSPost2010PropOp54
 70
     1
102
RTVSPost2010Prop55
280
     0
102
RTVSPost2010PropOp55
 70
     1
102
RTVSPost2010Prop56
140
1.0
102
RTVSPost2010PropOp56
 70
     1
102
RTVSPost2010Prop57
140
1.0
102
RTVSPost2010PropOp57
 70
     1
  0
XRECORD
  5
15C
102
{ACAD_REACTORS
330
15B
102
}
330
15B
100
AcDbXrecord
280
     1
102
RTVSPost2010Prop28
280
     0
102
RTVSPost2010PropOp28
 70
     1
102
RTVSPost2010Prop29
280
     1
102
RTVSPost2010PropOp29
 70
     1
102
RTVSPost2010Prop30
280
     1
102
RTVSPost2010PropOp30
 70
     1
102
RTVSPost2010Prop31
280
     0
102
RTVSPost2010PropOp31
 70
     1
102
RTVSPost2010Prop32
280
     0
102
RTVSPost2010PropOp32
 70
     1
102
RTVSPost2010Prop33
280
     0
102
RTVSPost2010PropOp33
 70
     1
102
RTVSPost2010Prop34
280
     0
102
RTVSPost2010PropOp34
 70
     1
102
RTVSPost2010Prop35
280
     0
102
RTVSPost2010PropOp35
 70
     1
102
RTVSPost2010Prop36
280
     0
102
RTVSPost2010PropOp36
 70
     1
102
RTVSPost2010Prop37
 90
       50
102
RTVSPost2010PropOp37
 70
     1
102
RTVSPost2010Prop38
140
0.0
102
RTVSPost2010PropOp38
 70
     1
102
RTVSPost2010Prop39
140
1.0
102
RTVSPost2010PropOp39
 70
     1
102
RTVSPost2010Prop40
 90
        0
102
RTVSPost2010PropOp40
 70
     1
102
RTVSPost2010Prop41ColorIndex
 90
       18
102
RTVSPost2010Prop41ColorRGB
 90
        0
102
RTVSPost2010PropOp41
 70
     1
102
RTVSPost2010Prop42
 90
       50
102
RTVSPost2010PropOp42
 70
     1
102
RTVSPost2010Prop43
 90
        3
102
RTVSPost2010PropOp43
 70
     1
102
RTVSPost2010Prop44ColorIndex
 90
        5
102
RTVSPost2010Prop44ColorRGB
 90
      255
102
RTVSPost2010PropOp44
 70
     1
102
RTVSPost2010Prop45
280
     0
102
RTVSPost2010PropOp45
 70
     1
102
RTVSPost2010Prop46
 90
       50
102
RTVSPost2010PropOp46
 70
     1
102
RTVSPost2010Prop47
 90
       50
102
RTVSPost2010PropOp47
 70
     1
102
RTVSPost2010Prop48
 90
       50
102
RTVSPost2010PropOp48
 70
     1
102
RTVSPost2010Prop49
280
     0
102
RTVSPost2010PropOp49
 70
     1
102
RTVSPost2010Prop50
 90
       50
102
RTVSPost2010PropOp50
 70
     1
102
RTVSPost2010Prop51ColorIndex
 90
      256
102
RTVSPost2010Prop51ColorRGB
 90
-16777216
102
RTVSPost2010PropOp51
 70
     0
102
RTVSPost2010Prop52
140
1.0
102
RTVSPost2010PropOp52
 70
     0
102
RTVSPost2010Prop53
 90
        2
102
RTVSPost2010PropOp53
 70
     1
102
RTVSPost2010Prop54
  1
strokes_ogs.tif
102
RTVSPost2010PropOp54
 70
     1
102
RTVSPost2010Prop55
280
     0
102
RTVSPost2010PropOp55
 70
     1
102
RTVSPost2010Prop56
140
1.0
102
RTVSPost2010PropOp56
 70
     1
102
RTVSPost2010Prop57
140
1.0
102
RTVSPost2010PropOp57
 70
     1
  0
XRECORD
  5
150
102
{ACAD_REACTORS
330
14F
102
}
330
14F
100
AcDbXrecord
280
     1
102
RTVSPost2010Prop28
280
     0
102
RTVSPost2010PropOp28
 70
     1
102
RTVSPost2010Prop29
280
     1
102
RTVSPost2010PropOp29
 70
     1
102
RTVSPost2010Prop30
280
     1
102
RTVSPost2010PropOp30
 70
     1
102
RTVSPost2010Prop31
280
     0
102
RTVSPost2010PropOp31
 70
     1
102
RTVSPost2010Prop32
280
     0
102
RTVSPost2010PropOp32
 70
     1
102
RTVSPost2010Prop33
280
     0
102
RTVSPost2010PropOp33
 70
     1
102
RTVSPost2010Prop34
280
     0
102
RTVSPost2010PropOp34
 70
     1
102
RTVSPost2010Prop35
280
     0
102
RTVSPost2010PropOp35
 70
     1
102
RTVSPost2010Prop36
280
     0
102
RTVSPost2010PropOp36
 70
     1
102
RTVSPost2010Prop37
 90
       50
102
RTVSPost2010PropOp37
 70
     1
102
RTVSPost2010Prop38
140
0.0
102
RTVSPost2010PropOp38
 70
     1
102
RTVSPost2010Prop39
140
1.0
102
RTVSPost2010PropOp39
 70
     1
102
RTVSPost2010Prop40
 90
        0
102
RTVSPost2010PropOp40
 70
     1
102
RTVSPost2010Prop41ColorIndex
 90
       18
102
RTVSPost2010Prop41ColorRGB
 90
        0
102
RTVSPost2010PropOp41
 70
     1
102
RTVSPost2010Prop42
 90
       50
102
RTVSPost2010PropOp42
 70
     1
102
RTVSPost2010Prop43
 90
        3
102
RTVSPost2010PropOp43
 70
     1
102
RTVSPost2010Prop44ColorIndex
 90
        5
102
RTVSPost2010Prop44ColorRGB
 90
      255
102
RTVSPost2010PropOp44
 70
     1
102
RTVSPost2010Prop45
280
     0
102
RTVSPost2010PropOp45
 70
     1
102
RTVSPost2010Prop46
 90
       50
102
RTVSPost2010PropOp46
 70
     1
102
RTVSPost2010Prop47
 90
       50
102
RTVSPost2010PropOp47
 70
     1
102
RTVSPost2010Prop48
 90
       50
102
RTVSPost2010PropOp48
 70
     1
102
RTVSPost2010Prop49
280
     0
102
RTVSPost2010PropOp49
 70
     1
102
RTVSPost2010Prop50
 90
       50
102
RTVSPost2010PropOp50
 70
     1
102
RTVSPost2010Prop51ColorIndex
 90
      256
102
RTVSPost2010Prop51ColorRGB
 90
-16777216
102
RTVSPost2010PropOp51
 70
     0
102
RTVSPost2010Prop52
140
1.0
102
RTVSPost2010PropOp52
 70
     0
102
RTVSPost2010Prop53
 90
        2
102
RTVSPost2010PropOp53
 70
     1
102
RTVSPost2010Prop54
  1
strokes_ogs.tif
102
RTVSPost2010PropOp54
 70
     1
102
RTVSPost2010Prop55
280
     0
102
RTVSPost2010PropOp55
 70
     1
102
RTVSPost2010Prop56
140
1.0
102
RTVSPost2010PropOp56
 70
     1
102
RTVSPost2010Prop57
140
1.0
102
RTVSPost2010PropOp57
 70
     1
  0
XRECORD
  5
152
102
{ACAD_REACTORS
330
151
102
}
330
151
100
AcDbXrecord
280
     1
102
RTVSPost2010Prop28
280
     0
102
RTVSPost2010PropOp28
 70
     1
102
RTVSPost2010Prop29
280
     1
102
RTVSPost2010PropOp29
 70
     1
102
RTVSPost2010Prop30
280
     1
102
RTVSPost2010PropOp30
 70
     1
102
RTVSPost2010Prop31
280
     0
102
RTVSPost2010PropOp31
 70
     1
102
RTVSPost2010Prop32
280
     0
102
RTVSPost2010PropOp32
 70
     1
102
RTVSPost2010Prop33
280
     0
102
RTVSPost2010PropOp33
 70
     1
102
RTVSPost2010Prop34
280
     0
102
RTVSPost2010PropOp34
 70
     1
102
RTVSPost2010Prop35
280
     0
102
RTVSPost2010PropOp35
 70
     1
102
RTVSPost2010Prop36
280
     0
102
RTVSPost2010PropOp36
 70
     1
102
RTVSPost2010Prop37
 90
       50
102
RTVSPost2010PropOp37
 70
     1
102
RTVSPost2010Prop38
140
0.0
102
RTVSPost2010PropOp38
 70
     1
102
RTVSPost2010Prop39
140
1.0
102
RTVSPost2010PropOp39
 70
     1
102
RTVSPost2010Prop40
 90
        0
102
RTVSPost2010PropOp40
 70
     1
102
RTVSPost2010Prop41ColorIndex
 90
       18
102
RTVSPost2010Prop41ColorRGB
 90
        0
102
RTVSPost2010PropOp41
 70
     1
102
RTVSPost2010Prop42
 90
       50
102
RTVSPost2010PropOp42
 70
     1
102
RTVSPost2010Prop43
 90
        3
102
RTVSPost2010PropOp43
 70
     1
102
RTVSPost2010Prop44ColorIndex
 90
        5
102
RTVSPost2010Prop44ColorRGB
 90
      255
102
RTVSPost2010PropOp44
 70
     1
102
RTVSPost2010Prop45
280
     0
102
RTVSPost2010PropOp45
 70
     1
102
RTVSPost2010Prop46
 90
       50
102
RTVSPost2010PropOp46
 70
     1
102
RTVSPost2010Prop47
 90
       50
102
RTVSPost2010PropOp47
 70
     1
102
RTVSPost2010Prop48
 90
       50
102
RTVSPost2010PropOp48
 70
     1
102
RTVSPost2010Prop49
280
     0
102
RTVSPost2010PropOp49
 70
     1
102
RTVSPost2010Prop50
 90
       50
102
RTVSPost2010PropOp50
 70
     1
102
RTVSPost2010Prop51ColorIndex
 90
      256
102
RTVSPost2010Prop51ColorRGB
 90
-16777216
102
RTVSPost2010PropOp51
 70
     0
102
RTVSPost2010Prop52
140
1.0
102
RTVSPost2010PropOp52
 70
     0
102
RTVSPost2010Prop53
 90
        2
102
RTVSPost2010PropOp53
 70
     1
102
RTVSPost2010Prop54
  1
strokes_ogs.tif
102
RTVSPost2010PropOp54
 70
     1
102
RTVSPost2010Prop55
280
     0
102
RTVSPost2010PropOp55
 70
     1
102
RTVSPost2010Prop56
140
1.0
102
RTVSPost2010PropOp56
 70
     1
102
RTVSPost2010Prop57
140
1.0
102
RTVSPost2010PropOp57
 70
     1
  0
XRECORD
  5
162
102
{ACAD_REACTORS
330
161
102
}
330
161
100
AcDbXrecord
280
     1
102
RTVSPost2010Prop28
280
     0
102
RTVSPost2010PropOp28
 70
     0
102
RTVSPost2010Prop29
280
     1
102
RTVSPost2010PropOp29
 70
     0
102
RTVSPost2010Prop30
280
     1
102
RTVSPost2010PropOp30
 70
     0
102
RTVSPost2010Prop31
280
     0
102
RTVSPost2010PropOp31
 70
     0
102
RTVSPost2010Prop32
280
     0
102
RTVSPost2010PropOp32
 70
     0
102
RTVSPost2010Prop33
280
     0
102
RTVSPost2010PropOp33
 70
     0
102
RTVSPost2010Prop34
280
     0
102
RTVSPost2010PropOp34
 70
     0
102
RTVSPost2010Prop35
280
     0
102
RTVSPost2010PropOp35
 70
     0
102
RTVSPost2010Prop36
280
     0
102
RTVSPost2010PropOp36
 70
     0
102
RTVSPost2010Prop37
 90
       50
102
RTVSPost2010PropOp37
 70
     0
102
RTVSPost2010Prop38
140
0.0
102
RTVSPost2010PropOp38
 70
     0
102
RTVSPost2010Prop39
140
1.0
102
RTVSPost2010PropOp39
 70
     0
102
RTVSPost2010Prop40
 90
        0
102
RTVSPost2010PropOp40
 70
     0
102
RTVSPost2010Prop41ColorIndex
 90
       18
102
RTVSPost2010Prop41ColorRGB
 90
        0
102
RTVSPost2010PropOp41
 70
     0
102
RTVSPost2010Prop42
 90
       50
102
RTVSPost2010PropOp42
 70
     0
102
RTVSPost2010Prop43
 90
        3
102
RTVSPost2010PropOp43
 70
     0
102
RTVSPost2010Prop44ColorIndex
 90
        5
102
RTVSPost2010Prop44ColorRGB
 90
      255
102
RTVSPost2010PropOp44
 70
     0
102
RTVSPost2010Prop45
280
     0
102
RTVSPost2010PropOp45
 70
     0
102
RTVSPost2010Prop46
 90
       50
102
RTVSPost2010PropOp46
 70
     0
102
RTVSPost2010Prop47
 90
       50
102
RTVSPost2010PropOp47
 70
     0
102
RTVSPost2010Prop48
 90
       50
102
RTVSPost2010PropOp48
 70
     0
102
RTVSPost2010Prop49
280
     0
102
RTVSPost2010PropOp49
 70
     0
102
RTVSPost2010Prop50
 90
       50
102
RTVSPost2010PropOp50
 70
     0
102
RTVSPost2010Prop51ColorIndex
 90
      256
102
RTVSPost2010Prop51ColorRGB
 90
-16777216
102
RTVSPost2010PropOp51
 70
     0
102
RTVSPost2010Prop52
140
1.0
102
RTVSPost2010PropOp52
 70
     0
102
RTVSPost2010Prop53
 90
        2
102
RTVSPost2010PropOp53
 70
     0
102
RTVSPost2010Prop54
  1
strokes_ogs.tif
102
RTVSPost2010PropOp54
 70
     0
102
RTVSPost2010Prop55
280
     0
102
RTVSPost2010PropOp55
 70
     0
102
RTVSPost2010Prop56
140
1.0
102
RTVSPost2010PropOp56
 70
     0
102
RTVSPost2010Prop57
140
1.0
102
RTVSPost2010PropOp57
 70
     0
  0
XRECORD
  5
15A
102
{ACAD_REACTORS
330
159
102
}
330
159
100
AcDbXrecord
280
     1
102
RTVSPost2010Prop28
280
     0
102
RTVSPost2010PropOp28
 70
     1
102
RTVSPost2010Prop29
280
     1
102
RTVSPost2010PropOp29
 70
     1
102
RTVSPost2010Prop30
280
     1
102
RTVSPost2010PropOp30
 70
     1
102
RTVSPost2010Prop31
280
     0
102
RTVSPost2010PropOp31
 70
     1
102
RTVSPost2010Prop32
280
     0
102
RTVSPost2010PropOp32
 70
     1
102
RTVSPost2010Prop33
280
     0
102
RTVSPost2010PropOp33
 70
     1
102
RTVSPost2010Prop34
280
     0
102
RTVSPost2010PropOp34
 70
     1
102
RTVSPost2010Prop35
280
     0
102
RTVSPost2010PropOp35
 70
     1
102
RTVSPost2010Prop36
280
     0
102
RTVSPost2010PropOp36
 70
     1
102
RTVSPost2010Prop37
 90
       50
102
RTVSPost2010PropOp37
 70
     1
102
RTVSPost2010Prop38
140
0.0
102
RTVSPost2010PropOp38
 70
     1
102
RTVSPost2010Prop39
140
1.0
102
RTVSPost2010PropOp39
 70
     1
102
RTVSPost2010Prop40
 90
        0
102
RTVSPost2010PropOp40
 70
     1
102
RTVSPost2010Prop41ColorIndex
 90
       18
102
RTVSPost2010Prop41ColorRGB
 90
        0
102
RTVSPost2010PropOp41
 70
     1
102
RTVSPost2010Prop42
 90
       50
102
RTVSPost2010PropOp42
 70
     1
102
RTVSPost2010Prop43
 90
        3
102
RTVSPost2010PropOp43
 70
     1
102
RTVSPost2010Prop44ColorIndex
 90
        5
102
RTVSPost2010Prop44ColorRGB
 90
      255
102
RTVSPost2010PropOp44
 70
     1
102
RTVSPost2010Prop45
280
     0
102
RTVSPost2010PropOp45
 70
     1
102
RTVSPost2010Prop46
 90
       50
102
RTVSPost2010PropOp46
 70
     1
102
RTVSPost2010Prop47
 90
       50
102
RTVSPost2010PropOp47
 70
     1
102
RTVSPost2010Prop48
 90
       50
102
RTVSPost2010PropOp48
 70
     1
102
RTVSPost2010Prop49
280
     0
102
RTVSPost2010PropOp49
 70
     1
102
RTVSPost2010Prop50
 90
       50
102
RTVSPost2010PropOp50
 70
     1
102
RTVSPost2010Prop51ColorIndex
 90
      256
102
RTVSPost2010Prop51ColorRGB
 90
-16777216
102
RTVSPost2010PropOp51
 70
     0
102
RTVSPost2010Prop52
140
1.0
102
RTVSPost2010PropOp52
 70
     0
102
RTVSPost2010Prop53
 90
        2
102
RTVSPost2010PropOp53
 70
     1
102
RTVSPost2010Prop54
  1
strokes_ogs.tif
102
RTVSPost2010PropOp54
 70
     1
102
RTVSPost2010Prop55
280
     0
102
RTVSPost2010PropOp55
 70
     1
102
RTVSPost2010Prop56
140
1.0
102
RTVSPost2010PropOp56
 70
     1
102
RTVSPost2010Prop57
140
1.0
102
RTVSPost2010PropOp57
 70
     1
  0
XRECORD
  5
13E
102
{ACAD_REACTORS
330
13D
102
}
330
13D
100
AcDbXrecord
280
     1
102
RTVSPost2010Prop28
280
     0
102
RTVSPost2010PropOp28
 70
     1
102
RTVSPost2010Prop29
280
     1
102
RTVSPost2010PropOp29
 70
     1
102
RTVSPost2010Prop30
280
     1
102
RTVSPost2010PropOp30
 70
     1
102
RTVSPost2010Prop31
280
     0
102
RTVSPost2010PropOp31
 70
     1
102
RTVSPost2010Prop32
280
     0
102
RTVSPost2010PropOp32
 70
     1
102
RTVSPost2010Prop33
280
     0
102
RTVSPost2010PropOp33
 70
     1
102
RTVSPost2010Prop34
280
     0
102
RTVSPost2010PropOp34
 70
     1
102
RTVSPost2010Prop35
280
     0
102
RTVSPost2010PropOp35
 70
     1
102
RTVSPost2010Prop36
280
     0
102
RTVSPost2010PropOp36
 70
     1
102
RTVSPost2010Prop37
 90
       50
102
RTVSPost2010PropOp37
 70
     1
102
RTVSPost2010Prop38
140
0.0
102
RTVSPost2010PropOp38
 70
     1
102
RTVSPost2010Prop39
140
1.0
102
RTVSPost2010PropOp39
 70
     1
102
RTVSPost2010Prop40
 90
        0
102
RTVSPost2010PropOp40
 70
     1
102
RTVSPost2010Prop41ColorIndex
 90
       18
102
RTVSPost2010Prop41ColorRGB
 90
        0
102
RTVSPost2010PropOp41
 70
     1
102
RTVSPost2010Prop42
 90
       50
102
RTVSPost2010PropOp42
 70
     1
102
RTVSPost2010Prop43
 90
        3
102
RTVSPost2010PropOp43
 70
     1
102
RTVSPost2010Prop44ColorIndex
 90
        5
102
RTVSPost2010Prop44ColorRGB
 90
      255
102
RTVSPost2010PropOp44
 70
     1
102
RTVSPost2010Prop45
280
     0
102
RTVSPost2010PropOp45
 70
     1
102
RTVSPost2010Prop46
 90
       50
102
RTVSPost2010PropOp46
 70
     1
102
RTVSPost2010Prop47
 90
       50
102
RTVSPost2010PropOp47
 70
     1
102
RTVSPost2010Prop48
 90
       50
102
RTVSPost2010PropOp48
 70
     1
102
RTVSPost2010Prop49
280
     0
102
RTVSPost2010PropOp49
 70
     1
102
RTVSPost2010Prop50
 90
       50
102
RTVSPost2010PropOp50
 70
     1
102
RTVSPost2010Prop51ColorIndex
 90
      256
102
RTVSPost2010Prop51ColorRGB
 90
-16777216
102
RTVSPost2010PropOp51
 70
     0
102
RTVSPost2010Prop52
140
1.0
102
RTVSPost2010PropOp52
 70
     0
102
RTVSPost2010Prop53
 90
        2
102
RTVSPost2010PropOp53
 70
     1
102
RTVSPost2010Prop54
  1
strokes_ogs.tif
102
RTVSPost2010PropOp54
 70
     1
102
RTVSPost2010Prop55
280
     0
102
RTVSPost2010PropOp55
 70
     1
102
RTVSPost2010Prop56
140
1.0
102
RTVSPost2010PropOp56
 70
     1
102
RTVSPost2010Prop57
140
1.0
102
RTVSPost2010PropOp57
 70
     1
  0
XRECORD
  5
140
102
{ACAD_REACTORS
330
13F
102
}
330
13F
100
AcDbXrecord
280
     1
102
RTVSPost2010Prop28
280
     0
102
RTVSPost2010PropOp28
 70
     1
102
RTVSPost2010Prop29
280
     1
102
RTVSPost2010PropOp29
 70
     1
102
RTVSPost2010Prop30
280
     1
102
RTVSPost2010PropOp30
 70
     1
102
RTVSPost2010Prop31
280
     0
102
RTVSPost2010PropOp31
 70
     1
102
RTVSPost2010Prop32
280
     0
102
RTVSPost2010PropOp32
 70
     1
102
RTVSPost2010Prop33
280
     0
102
RTVSPost2010PropOp33
 70
     1
102
RTVSPost2010Prop34
280
     0
102
RTVSPost2010PropOp34
 70
     1
102
RTVSPost2010Prop35
280
     0
102
RTVSPost2010PropOp35
 70
     1
102
RTVSPost2010Prop36
280
     0
102
RTVSPost2010PropOp36
 70
     1
102
RTVSPost2010Prop37
 90
       50
102
RTVSPost2010PropOp37
 70
     1
102
RTVSPost2010Prop38
140
0.0
102
RTVSPost2010PropOp38
 70
     1
102
RTVSPost2010Prop39
140
1.0
102
RTVSPost2010PropOp39
 70
     1
102
RTVSPost2010Prop40
 90
        0
102
RTVSPost2010PropOp40
 70
     1
102
RTVSPost2010Prop41ColorIndex
 90
       18
102
RTVSPost2010Prop41ColorRGB
 90
        0
102
RTVSPost2010PropOp41
 70
     1
102
RTVSPost2010Prop42
 90
       50
102
RTVSPost2010PropOp42
 70
     1
102
RTVSPost2010Prop43
 90
        3
102
RTVSPost2010PropOp43
 70
     1
102
RTVSPost2010Prop44ColorIndex
 90
        5
102
RTVSPost2010Prop44ColorRGB
 90
      255
102
RTVSPost2010PropOp44
 70
     1
102
RTVSPost2010Prop45
280
     0
102
RTVSPost2010PropOp45
 70
     1
102
RTVSPost2010Prop46
 90
       50
102
RTVSPost2010PropOp46
 70
     1
102
RTVSPost2010Prop47
 90
       50
102
RTVSPost2010PropOp47
 70
     1
102
RTVSPost2010Prop48
 90
       50
102
RTVSPost2010PropOp48
 70
     1
102
RTVSPost2010Prop49
280
     0
102
RTVSPost2010PropOp49
 70
     1
102
RTVSPost2010Prop50
 90
       50
102
RTVSPost2010PropOp50
 70
     1
102
RTVSPost2010Prop51ColorIndex
 90
      256
102
RTVSPost2010Prop51ColorRGB
 90
-16777216
102
RTVSPost2010PropOp51
 70
     0
102
RTVSPost2010Prop52
140
1.0
102
RTVSPost2010PropOp52
 70
     0
102
RTVSPost2010Prop53
 90
        2
102
RTVSPost2010PropOp53
 70
     1
102
RTVSPost2010Prop54
  1
strokes_ogs.tif
102
RTVSPost2010PropOp54
 70
     1
102
RTVSPost2010Prop55
280
     0
102
RTVSPost2010PropOp55
 70
     1
102
RTVSPost2010Prop56
140
1.0
102
RTVSPost2010PropOp56
 70
     1
102
RTVSPost2010Prop57
140
1.0
102
RTVSPost2010PropOp57
 70
     1
  0
XRECORD
  5
142
102
{ACAD_REACTORS
330
141
102
}
330
141
100
AcDbXrecord
280
     1
102
RTVSPost2010Prop28
280
     0
102
RTVSPost2010PropOp28
 70
     1
102
RTVSPost2010Prop29
280
     1
102
RTVSPost2010PropOp29
 70
     1
102
RTVSPost2010Prop30
280
     1
102
RTVSPost2010PropOp30
 70
     1
102
RTVSPost2010Prop31
280
     0
102
RTVSPost2010PropOp31
 70
     1
102
RTVSPost2010Prop32
280
     0
102
RTVSPost2010PropOp32
 70
     1
102
RTVSPost2010Prop33
280
     0
102
RTVSPost2010PropOp33
 70
     1
102
RTVSPost2010Prop34
280
     0
102
RTVSPost2010PropOp34
 70
     1
102
RTVSPost2010Prop35
280
     0
102
RTVSPost2010PropOp35
 70
     1
102
RTVSPost2010Prop36
280
     0
102
RTVSPost2010PropOp36
 70
     1
102
RTVSPost2010Prop37
 90
       50
102
RTVSPost2010PropOp37
 70
     1
102
RTVSPost2010Prop38
140
0.0
102
RTVSPost2010PropOp38
 70
     1
102
RTVSPost2010Prop39
140
1.0
102
RTVSPost2010PropOp39
 70
     1
102
RTVSPost2010Prop40
 90
        0
102
RTVSPost2010PropOp40
 70
     1
102
RTVSPost2010Prop41ColorIndex
 90
       18
102
RTVSPost2010Prop41ColorRGB
 90
        0
102
RTVSPost2010PropOp41
 70
     1
102
RTVSPost2010Prop42
 90
       50
102
RTVSPost2010PropOp42
 70
     1
102
RTVSPost2010Prop43
 90
        3
102
RTVSPost2010PropOp43
 70
     1
102
RTVSPost2010Prop44ColorIndex
 90
        5
102
RTVSPost2010Prop44ColorRGB
 90
      255
102
RTVSPost2010PropOp44
 70
     1
102
RTVSPost2010Prop45
280
     0
102
RTVSPost2010PropOp45
 70
     1
102
RTVSPost2010Prop46
 90
       50
102
RTVSPost2010PropOp46
 70
     1
102
RTVSPost2010Prop47
 90
       50
102
RTVSPost2010PropOp47
 70
     1
102
RTVSPost2010Prop48
 90
       50
102
RTVSPost2010PropOp48
 70
     1
102
RTVSPost2010Prop49
280
     0
102
RTVSPost2010PropOp49
 70
     1
102
RTVSPost2010Prop50
 90
       50
102
RTVSPost2010PropOp50
 70
     1
102
RTVSPost2010Prop51ColorIndex
 90
      256
102
RTVSPost2010Prop51ColorRGB
 90
-16777216
102
RTVSPost2010PropOp51
 70
     0
102
RTVSPost2010Prop52
140
1.0
102
RTVSPost2010PropOp52
 70
     0
102
RTVSPost2010Prop53
 90
        2
102
RTVSPost2010PropOp53
 70
     1
102
RTVSPost2010Prop54
  1
strokes_ogs.tif
102
RTVSPost2010PropOp54
 70
     1
102
RTVSPost2010Prop55
280
     0
102
RTVSPost2010PropOp55
 70
     1
102
RTVSPost2010Prop56
140
1.0
102
RTVSPost2010PropOp56
 70
     1
102
RTVSPost2010Prop57
140
1.0
102
RTVSPost2010PropOp57
 70
     1
  0
XRECORD
  5
144
102
{ACAD_REACTORS
330
143
102
}
330
143
100
AcDbXrecord
280
     1
102
RTVSPost2010Prop28
280
     0
102
RTVSPost2010PropOp28
 70
     1
102
RTVSPost2010Prop29
280
     1
102
RTVSPost2010PropOp29
 70
     1
102
RTVSPost2010Prop30
280
     1
102
RTVSPost2010PropOp30
 70
     1
102
RTVSPost2010Prop31
280
     0
102
RTVSPost2010PropOp31
 70
     1
102
RTVSPost2010Prop32
280
     0
102
RTVSPost2010PropOp32
 70
     1
102
RTVSPost2010Prop33
280
     0
102
RTVSPost2010PropOp33
 70
     1
102
RTVSPost2010Prop34
280
     0
102
RTVSPost2010PropOp34
 70
     1
102
RTVSPost2010Prop35
280
     0
102
RTVSPost2010PropOp35
 70
     1
102
RTVSPost2010Prop36
280
     0
102
RTVSPost2010PropOp36
 70
     1
102
RTVSPost2010Prop37
 90
       50
102
RTVSPost2010PropOp37
 70
     1
102
RTVSPost2010Prop38
140
0.0
102
RTVSPost2010PropOp38
 70
     1
102
RTVSPost2010Prop39
140
1.0
102
RTVSPost2010PropOp39
 70
     1
102
RTVSPost2010Prop40
 90
        0
102
RTVSPost2010PropOp40
 70
     1
102
RTVSPost2010Prop41ColorIndex
 90
       18
102
RTVSPost2010Prop41ColorRGB
 90
        0
102
RTVSPost2010PropOp41
 70
     1
102
RTVSPost2010Prop42
 90
       50
102
RTVSPost2010PropOp42
 70
     1
102
RTVSPost2010Prop43
 90
        3
102
RTVSPost2010PropOp43
 70
     1
102
RTVSPost2010Prop44ColorIndex
 90
        5
102
RTVSPost2010Prop44ColorRGB
 90
      255
102
RTVSPost2010PropOp44
 70
     1
102
RTVSPost2010Prop45
280
     0
102
RTVSPost2010PropOp45
 70
     1
102
RTVSPost2010Prop46
 90
       50
102
RTVSPost2010PropOp46
 70
     1
102
RTVSPost2010Prop47
 90
       50
102
RTVSPost2010PropOp47
 70
     1
102
RTVSPost2010Prop48
 90
       50
102
RTVSPost2010PropOp48
 70
     1
102
RTVSPost2010Prop49
280
     0
102
RTVSPost2010PropOp49
 70
     1
102
RTVSPost2010Prop50
 90
       50
102
RTVSPost2010PropOp50
 70
     1
102
RTVSPost2010Prop51ColorIndex
 90
      256
102
RTVSPost2010Prop51ColorRGB
 90
-16777216
102
RTVSPost2010PropOp51
 70
     0
102
RTVSPost2010Prop52
140
1.0
102
RTVSPost2010PropOp52
 70
     0
102
RTVSPost2010Prop53
 90
        2
102
RTVSPost2010PropOp53
 70
     1
102
RTVSPost2010Prop54
  1
strokes_ogs.tif
102
RTVSPost2010PropOp54
 70
     1
102
RTVSPost2010Prop55
280
     0
102
RTVSPost2010PropOp55
 70
     1
102
RTVSPost2010Prop56
140
1.0
102
RTVSPost2010PropOp56
 70
     1
102
RTVSPost2010Prop57
140
1.0
102
RTVSPost2010PropOp57
 70
     1
  0
XRECORD
  5
14A
102
{ACAD_REACTORS
330
149
102
}
330
149
100
AcDbXrecord
280
     1
102
RTVSPost2010Prop28
280
     0
102
RTVSPost2010PropOp28
 70
     1
102
RTVSPost2010Prop29
280
     1
102
RTVSPost2010PropOp29
 70
     1
102
RTVSPost2010Prop30
280
     1
102
RTVSPost2010PropOp30
 70
     1
102
RTVSPost2010Prop31
280
     0
102
RTVSPost2010PropOp31
 70
     1
102
RTVSPost2010Prop32
280
     0
102
RTVSPost2010PropOp32
 70
     1
102
RTVSPost2010Prop33
280
     0
102
RTVSPost2010PropOp33
 70
     1
102
RTVSPost2010Prop34
280
     0
102
RTVSPost2010PropOp34
 70
     1
102
RTVSPost2010Prop35
280
     0
102
RTVSPost2010PropOp35
 70
     1
102
RTVSPost2010Prop36
280
     0
102
RTVSPost2010PropOp36
 70
     1
102
RTVSPost2010Prop37
 90
       50
102
RTVSPost2010PropOp37
 70
     1
102
RTVSPost2010Prop38
140
0.0
102
RTVSPost2010PropOp38
 70
     1
102
RTVSPost2010Prop39
140
1.0
102
RTVSPost2010PropOp39
 70
     1
102
RTVSPost2010Prop40
 90
        0
102
RTVSPost2010PropOp40
 70
     1
102
RTVSPost2010Prop41ColorIndex
 90
       18
102
RTVSPost2010Prop41ColorRGB
 90
        0
102
RTVSPost2010PropOp41
 70
     1
102
RTVSPost2010Prop42
 90
       50
102
RTVSPost2010PropOp42
 70
     1
102
RTVSPost2010Prop43
 90
        3
102
RTVSPost2010PropOp43
 70
     1
102
RTVSPost2010Prop44ColorIndex
 90
        5
102
RTVSPost2010Prop44ColorRGB
 90
      255
102
RTVSPost2010PropOp44
 70
     1
102
RTVSPost2010Prop45
280
     0
102
RTVSPost2010PropOp45
 70
     1
102
RTVSPost2010Prop46
 90
       50
102
RTVSPost2010PropOp46
 70
     1
102
RTVSPost2010Prop47
 90
       50
102
RTVSPost2010PropOp47
 70
     1
102
RTVSPost2010Prop48
 90
       50
102
RTVSPost2010PropOp48
 70
     1
102
RTVSPost2010Prop49
280
     0
102
RTVSPost2010PropOp49
 70
     1
102
RTVSPost2010Prop50
 90
       50
102
RTVSPost2010PropOp50
 70
     1
102
RTVSPost2010Prop51ColorIndex
 90
      256
102
RTVSPost2010Prop51ColorRGB
 90
-16777216
102
RTVSPost2010PropOp51
 70
     0
102
RTVSPost2010Prop52
140
1.0
102
RTVSPost2010PropOp52
 70
     0
102
RTVSPost2010Prop53
 90
        2
102
RTVSPost2010PropOp53
 70
     1
102
RTVSPost2010Prop54
  1
strokes_ogs.tif
102
RTVSPost2010PropOp54
 70
     1
102
RTVSPost2010Prop55
280
     0
102
RTVSPost2010PropOp55
 70
     1
102
RTVSPost2010Prop56
140
1.0
102
RTVSPost2010PropOp56
 70
     1
102
RTVSPost2010Prop57
140
1.0
102
RTVSPost2010PropOp57
 70
     1
  0
XRECORD
  5
15E
102
{ACAD_REACTORS
330
15D
102
}
330
15D
100
AcDbXrecord
280
     1
102
RTVSPost2010Prop28
280
     0
102
RTVSPost2010PropOp28
 70
     0
102
RTVSPost2010Prop29
280
     1
102
RTVSPost2010PropOp29
 70
     0
102
RTVSPost2010Prop30
280
     1
102
RTVSPost2010PropOp30
 70
     0
102
RTVSPost2010Prop31
280
     0
102
RTVSPost2010PropOp31
 70
     0
102
RTVSPost2010Prop32
280
     0
102
RTVSPost2010PropOp32
 70
     0
102
RTVSPost2010Prop33
280
     0
102
RTVSPost2010PropOp33
 70
     0
102
RTVSPost2010Prop34
280
     0
102
RTVSPost2010PropOp34
 70
     0
102
RTVSPost2010Prop35
280
     0
102
RTVSPost2010PropOp35
 70
     0
102
RTVSPost2010Prop36
280
     0
102
RTVSPost2010PropOp36
 70
     0
102
RTVSPost2010Prop37
 90
       50
102
RTVSPost2010PropOp37
 70
     0
102
RTVSPost2010Prop38
140
0.0
102
RTVSPost2010PropOp38
 70
     0
102
RTVSPost2010Prop39
140
1.0
102
RTVSPost2010PropOp39
 70
     0
102
RTVSPost2010Prop40
 90
        0
102
RTVSPost2010PropOp40
 70
     0
102
RTVSPost2010Prop41ColorIndex
 90
       18
102
RTVSPost2010Prop41ColorRGB
 90
        0
102
RTVSPost2010PropOp41
 70
     0
102
RTVSPost2010Prop42
 90
       50
102
RTVSPost2010PropOp42
 70
     0
102
RTVSPost2010Prop43
 90
        3
102
RTVSPost2010PropOp43
 70
     0
102
RTVSPost2010Prop44ColorIndex
 90
        5
102
RTVSPost2010Prop44ColorRGB
 90
      255
102
RTVSPost2010PropOp44
 70
     0
102
RTVSPost2010Prop45
280
     0
102
RTVSPost2010PropOp45
 70
     0
102
RTVSPost2010Prop46
 90
       50
102
RTVSPost2010PropOp46
 70
     0
102
RTVSPost2010Prop47
 90
       50
102
RTVSPost2010PropOp47
 70
     0
102
RTVSPost2010Prop48
 90
       50
102
RTVSPost2010PropOp48
 70
     0
102
RTVSPost2010Prop49
280
     0
102
RTVSPost2010PropOp49
 70
     0
102
RTVSPost2010Prop50
 90
       50
102
RTVSPost2010PropOp50
 70
     0
102
RTVSPost2010Prop51ColorIndex
 90
      256
102
RTVSPost2010Prop51ColorRGB
 90
-16777216
102
RTVSPost2010PropOp51
 70
     0
102
RTVSPost2010Prop52
140
1.0
102
RTVSPost2010PropOp52
 70
     0
102
RTVSPost2010Prop53
 90
        2
102
RTVSPost2010PropOp53
 70
     0
102
RTVSPost2010Prop54
  1
strokes_ogs.tif
102
RTVSPost2010PropOp54
 70
     0
102
RTVSPost2010Prop55
280
     0
102
RTVSPost2010PropOp55
 70
     0
102
RTVSPost2010Prop56
140
1.0
102
RTVSPost2010PropOp56
 70
     0
102
RTVSPost2010Prop57
140
1.0
102
RTVSPost2010PropOp57
 70
     0
  0
XRECORD
  5
158
102
{ACAD_REACTORS
330
157
102
}
330
157
100
AcDbXrecord
280
     1
102
RTVSPost2010Prop28
280
     0
102
RTVSPost2010PropOp28
 70
     1
102
RTVSPost2010Prop29
280
     1
102
RTVSPost2010PropOp29
 70
     1
102
RTVSPost2010Prop30
280
     1
102
RTVSPost2010PropOp30
 70
     1
102
RTVSPost2010Prop31
280
     0
102
RTVSPost2010PropOp31
 70
     1
102
RTVSPost2010Prop32
280
     0
102
RTVSPost2010PropOp32
 70
     1
102
RTVSPost2010Prop33
280
     0
102
RTVSPost2010PropOp33
 70
     1
102
RTVSPost2010Prop34
280
     0
102
RTVSPost2010PropOp34
 70
     1
102
RTVSPost2010Prop35
280
     0
102
RTVSPost2010PropOp35
 70
     1
102
RTVSPost2010Prop36
280
     0
102
RTVSPost2010PropOp36
 70
     1
102
RTVSPost2010Prop37
 90
       50
102
RTVSPost2010PropOp37
 70
     1
102
RTVSPost2010Prop38
140
0.0
102
RTVSPost2010PropOp38
 70
     1
102
RTVSPost2010Prop39
140
1.0
102
RTVSPost2010PropOp39
 70
     1
102
RTVSPost2010Prop40
 90
        0
102
RTVSPost2010PropOp40
 70
     1
102
RTVSPost2010Prop41ColorIndex
 90
       18
102
RTVSPost2010Prop41ColorRGB
 90
        0
102
RTVSPost2010PropOp41
 70
     1
102
RTVSPost2010Prop42
 90
       50
102
RTVSPost2010PropOp42
 70
     1
102
RTVSPost2010Prop43
 90
        3
102
RTVSPost2010PropOp43
 70
     1
102
RTVSPost2010Prop44ColorIndex
 90
        5
102
RTVSPost2010Prop44ColorRGB
 90
      255
102
RTVSPost2010PropOp44
 70
     1
102
RTVSPost2010Prop45
280
     0
102
RTVSPost2010PropOp45
 70
     1
102
RTVSPost2010Prop46
 90
       50
102
RTVSPost2010PropOp46
 70
     1
102
RTVSPost2010Prop47
 90
       50
102
RTVSPost2010PropOp47
 70
     1
102
RTVSPost2010Prop48
 90
       50
102
RTVSPost2010PropOp48
 70
     1
102
RTVSPost2010Prop49
280
     0
102
RTVSPost2010PropOp49
 70
     1
102
RTVSPost2010Prop50
 90
       50
102
RTVSPost2010PropOp50
 70
     1
102
RTVSPost2010Prop51ColorIndex
 90
      256
102
RTVSPost2010Prop51ColorRGB
 90
-16777216
102
RTVSPost2010PropOp51
 70
     0
102
RTVSPost2010Prop52
140
1.0
102
RTVSPost2010PropOp52
 70
     0
102
RTVSPost2010Prop53
 90
        2
102
RTVSPost2010PropOp53
 70
     1
102
RTVSPost2010Prop54
  1
strokes_ogs.tif
102
RTVSPost2010PropOp54
 70
     1
102
RTVSPost2010Prop55
280
     0
102
RTVSPost2010PropOp55
 70
     1
102
RTVSPost2010Prop56
140
1.0
102
RTVSPost2010PropOp56
 70
     1
102
RTVSPost2010Prop57
140
1.0
102
RTVSPost2010PropOp57
 70
     1
  0
XRECORD
  5
160
102
{ACAD_REACTORS
330
15F
102
}
330
15F
100
AcDbXrecord
280
     1
102
RTVSPost2010Prop28
280
     0
102
RTVSPost2010PropOp28
 70
     0
102
RTVSPost2010Prop29
280
     1
102
RTVSPost2010PropOp29
 70
     0
102
RTVSPost2010Prop30
280
     1
102
RTVSPost2010PropOp30
 70
     0
102
RTVSPost2010Prop31
280
     0
102
RTVSPost2010PropOp31
 70
     0
102
RTVSPost2010Prop32
280
     0
102
RTVSPost2010PropOp32
 70
     0
102
RTVSPost2010Prop33
280
     0
102
RTVSPost2010PropOp33
 70
     0
102
RTVSPost2010Prop34
280
     0
102
RTVSPost2010PropOp34
 70
     0
102
RTVSPost2010Prop35
280
     0
102
RTVSPost2010PropOp35
 70
     0
102
RTVSPost2010Prop36
280
     0
102
RTVSPost2010PropOp36
 70
     0
102
RTVSPost2010Prop37
 90
       50
102
RTVSPost2010PropOp37
 70
     0
102
RTVSPost2010Prop38
140
0.0
102
RTVSPost2010PropOp38
 70
     0
102
RTVSPost2010Prop39
140
1.0
102
RTVSPost2010PropOp39
 70
     0
102
RTVSPost2010Prop40
 90
        0
102
RTVSPost2010PropOp40
 70
     0
102
RTVSPost2010Prop41ColorIndex
 90
       18
102
RTVSPost2010Prop41ColorRGB
 90
        0
102
RTVSPost2010PropOp41
 70
     0
102
RTVSPost2010Prop42
 90
       50
102
RTVSPost2010PropOp42
 70
     0
102
RTVSPost2010Prop43
 90
        3
102
RTVSPost2010PropOp43
 70
     0
102
RTVSPost2010Prop44ColorIndex
 90
        5
102
RTVSPost2010Prop44ColorRGB
 90
      255
102
RTVSPost2010PropOp44
 70
     0
102
RTVSPost2010Prop45
280
     0
102
RTVSPost2010PropOp45
 70
     0
102
RTVSPost2010Prop46
 90
       50
102
RTVSPost2010PropOp46
 70
     0
102
RTVSPost2010Prop47
 90
       50
102
RTVSPost2010PropOp47
 70
     0
102
RTVSPost2010Prop48
 90
       50
102
RTVSPost2010PropOp48
 70
     0
102
RTVSPost2010Prop49
280
     0
102
RTVSPost2010PropOp49
 70
     0
102
RTVSPost2010Prop50
 90
       50
102
RTVSPost2010PropOp50
 70
     0
102
RTVSPost2010Prop51ColorIndex
 90
      256
102
RTVSPost2010Prop51ColorRGB
 90
-16777216
102
RTVSPost2010PropOp51
 70
     0
102
RTVSPost2010Prop52
140
1.0
102
RTVSPost2010PropOp52
 70
     0
102
RTVSPost2010Prop53
 90
        2
102
RTVSPost2010PropOp53
 70
     0
102
RTVSPost2010Prop54
  1
strokes_ogs.tif
102
RTVSPost2010PropOp54
 70
     0
102
RTVSPost2010Prop55
280
     0
102
RTVSPost2010PropOp55
 70
     0
102
RTVSPost2010Prop56
140
1.0
102
RTVSPost2010PropOp56
 70
     0
102
RTVSPost2010Prop57
140
1.0
102
RTVSPost2010PropOp57
 70
     0
  0
XRECORD
  5
14E
102
{ACAD_REACTORS
330
14D
102
}
330
14D
100
AcDbXrecord
280
     1
102
RTVSPost2010Prop28
280
     0
102
RTVSPost2010PropOp28
 70
     1
102
RTVSPost2010Prop29
280
     1
102
RTVSPost2010PropOp29
 70
     1
102
RTVSPost2010Prop30
280
     1
102
RTVSPost2010PropOp30
 70
     1
102
RTVSPost2010Prop31
280
     0
102
RTVSPost2010PropOp31
 70
     1
102
RTVSPost2010Prop32
280
     0
102
RTVSPost2010PropOp32
 70
     1
102
RTVSPost2010Prop33
280
     0
102
RTVSPost2010PropOp33
 70
     1
102
RTVSPost2010Prop34
280
     0
102
RTVSPost2010PropOp34
 70
     1
102
RTVSPost2010Prop35
280
     0
102
RTVSPost2010PropOp35
 70
     1
102
RTVSPost2010Prop36
280
     0
102
RTVSPost2010PropOp36
 70
     1
102
RTVSPost2010Prop37
 90
       50
102
RTVSPost2010PropOp37
 70
     1
102
RTVSPost2010Prop38
140
0.0
102
RTVSPost2010PropOp38
 70
     1
102
RTVSPost2010Prop39
140
1.0
102
RTVSPost2010PropOp39
 70
     1
102
RTVSPost2010Prop40
 90
        0
102
RTVSPost2010PropOp40
 70
     1
102
RTVSPost2010Prop41ColorIndex
 90
       18
102
RTVSPost2010Prop41ColorRGB
 90
        0
102
RTVSPost2010PropOp41
 70
     1
102
RTVSPost2010Prop42
 90
       50
102
RTVSPost2010PropOp42
 70
     1
102
RTVSPost2010Prop43
 90
        3
102
RTVSPost2010PropOp43
 70
     1
102
RTVSPost2010Prop44ColorIndex
 90
        5
102
RTVSPost2010Prop44ColorRGB
 90
      255
102
RTVSPost2010PropOp44
 70
     1
102
RTVSPost2010Prop45
280
     0
102
RTVSPost2010PropOp45
 70
     1
102
RTVSPost2010Prop46
 90
       50
102
RTVSPost2010PropOp46
 70
     1
102
RTVSPost2010Prop47
 90
       50
102
RTVSPost2010PropOp47
 70
     1
102
RTVSPost2010Prop48
 90
       50
102
RTVSPost2010PropOp48
 70
     1
102
RTVSPost2010Prop49
280
     0
102
RTVSPost2010PropOp49
 70
     1
102
RTVSPost2010Prop50
 90
       50
102
RTVSPost2010PropOp50
 70
     1
102
RTVSPost2010Prop51ColorIndex
 90
      256
102
RTVSPost2010Prop51ColorRGB
 90
-16777216
102
RTVSPost2010PropOp51
 70
     0
102
RTVSPost2010Prop52
140
1.0
102
RTVSPost2010PropOp52
 70
     0
102
RTVSPost2010Prop53
 90
        2
102
RTVSPost2010PropOp53
 70
     1
102
RTVSPost2010Prop54
  1
strokes_ogs.tif
102
RTVSPost2010PropOp54
 70
     1
102
RTVSPost2010Prop55
280
     0
102
RTVSPost2010PropOp55
 70
     1
102
RTVSPost2010Prop56
140
1.0
102
RTVSPost2010PropOp56
 70
     1
102
RTVSPost2010Prop57
140
1.0
102
RTVSPost2010PropOp57
 70
     1
  0
XRECORD
  5
16C
102
{ACAD_REACTORS
330
16B
102
}
330
16B
100
AcDbXrecord
280
     1
102
RTVSPost2010Prop28
280
     0
102
RTVSPost2010PropOp28
 70
     1
102
RTVSPost2010Prop29
280
     1
102
RTVSPost2010PropOp29
 70
     1
102
RTVSPost2010Prop30
280
     1
102
RTVSPost2010PropOp30
 70
     1
102
RTVSPost2010Prop31
280
     0
102
RTVSPost2010PropOp31
 70
     1
102
RTVSPost2010Prop32
280
     0
102
RTVSPost2010PropOp32
 70
     1
102
RTVSPost2010Prop33
280
     0
102
RTVSPost2010PropOp33
 70
     1
102
RTVSPost2010Prop34
280
     0
102
RTVSPost2010PropOp34
 70
     1
102
RTVSPost2010Prop35
280
     0
102
RTVSPost2010PropOp35
 70
     1
102
RTVSPost2010Prop36
280
     0
102
RTVSPost2010PropOp36
 70
     1
102
RTVSPost2010Prop37
 90
       50
102
RTVSPost2010PropOp37
 70
     1
102
RTVSPost2010Prop38
140
0.0
102
RTVSPost2010PropOp38
 70
     1
102
RTVSPost2010Prop39
140
1.0
102
RTVSPost2010PropOp39
 70
     1
102
RTVSPost2010Prop40
 90
        0
102
RTVSPost2010PropOp40
 70
     1
102
RTVSPost2010Prop41ColorIndex
 90
       18
102
RTVSPost2010Prop41ColorRGB
 90
        0
102
RTVSPost2010PropOp41
 70
     1
102
RTVSPost2010Prop42
 90
       50
102
RTVSPost2010PropOp42
 70
     1
102
RTVSPost2010Prop43
 90
        3
102
RTVSPost2010PropOp43
 70
     1
102
RTVSPost2010Prop44ColorIndex
 90
        5
102
RTVSPost2010Prop44ColorRGB
 90
      255
102
RTVSPost2010PropOp44
 70
     1
102
RTVSPost2010Prop45
280
     0
102
RTVSPost2010PropOp45
 70
     1
102
RTVSPost2010Prop46
 90
       50
102
RTVSPost2010PropOp46
 70
     1
102
RTVSPost2010Prop47
 90
       50
102
RTVSPost2010PropOp47
 70
     1
102
RTVSPost2010Prop48
 90
       50
102
RTVSPost2010PropOp48
 70
     1
102
RTVSPost2010Prop49
280
     0
102
RTVSPost2010PropOp49
 70
     1
102
RTVSPost2010Prop50
 90
       50
102
RTVSPost2010PropOp50
 70
     1
102
RTVSPost2010Prop51ColorIndex
 90
      256
102
RTVSPost2010Prop51ColorRGB
 90
-16777216
102
RTVSPost2010PropOp51
 70
     0
102
RTVSPost2010Prop52
140
1.0
102
RTVSPost2010PropOp52
 70
     0
102
RTVSPost2010Prop53
 90
        2
102
RTVSPost2010PropOp53
 70
     1
102
RTVSPost2010Prop54
  1
strokes_ogs.tif
102
RTVSPost2010PropOp54
 70
     1
102
RTVSPost2010Prop55
280
     0
102
RTVSPost2010PropOp55
 70
     1
102
RTVSPost2010Prop56
140
1.0
102
RTVSPost2010PropOp56
 70
     1
102
RTVSPost2010Prop57
140
1.0
102
RTVSPost2010PropOp57
 70
     1
  0
XRECORD
  5
16A
102
{ACAD_REACTORS
330
169
102
}
330
169
100
AcDbXrecord
280
     1
102
RTVSPost2010Prop28
280
     0
102
RTVSPost2010PropOp28
 70
     1
102
RTVSPost2010Prop29
280
     1
102
RTVSPost2010PropOp29
 70
     1
102
RTVSPost2010Prop30
280
     1
102
RTVSPost2010PropOp30
 70
     1
102
RTVSPost2010Prop31
280
     0
102
RTVSPost2010PropOp31
 70
     1
102
RTVSPost2010Prop32
280
     0
102
RTVSPost2010PropOp32
 70
     1
102
RTVSPost2010Prop33
280
     0
102
RTVSPost2010PropOp33
 70
     1
102
RTVSPost2010Prop34
280
     0
102
RTVSPost2010PropOp34
 70
     1
102
RTVSPost2010Prop35
280
     0
102
RTVSPost2010PropOp35
 70
     1
102
RTVSPost2010Prop36
280
     0
102
RTVSPost2010PropOp36
 70
     1
102
RTVSPost2010Prop37
 90
       50
102
RTVSPost2010PropOp37
 70
     1
102
RTVSPost2010Prop38
140
0.0
102
RTVSPost2010PropOp38
 70
     1
102
RTVSPost2010Prop39
140
1.0
102
RTVSPost2010PropOp39
 70
     1
102
RTVSPost2010Prop40
 90
        0
102
RTVSPost2010PropOp40
 70
     1
102
RTVSPost2010Prop41ColorIndex
 90
       18
102
RTVSPost2010Prop41ColorRGB
 90
        0
102
RTVSPost2010PropOp41
 70
     1
102
RTVSPost2010Prop42
 90
       50
102
RTVSPost2010PropOp42
 70
     1
102
RTVSPost2010Prop43
 90
        3
102
RTVSPost2010PropOp43
 70
     1
102
RTVSPost2010Prop44ColorIndex
 90
        5
102
RTVSPost2010Prop44ColorRGB
 90
      255
102
RTVSPost2010PropOp44
 70
     1
102
RTVSPost2010Prop45
280
     0
102
RTVSPost2010PropOp45
 70
     1
102
RTVSPost2010Prop46
 90
       50
102
RTVSPost2010PropOp46
 70
     1
102
RTVSPost2010Prop47
 90
       50
102
RTVSPost2010PropOp47
 70
     1
102
RTVSPost2010Prop48
 90
       50
102
RTVSPost2010PropOp48
 70
     1
102
RTVSPost2010Prop49
280
     0
102
RTVSPost2010PropOp49
 70
     1
102
RTVSPost2010Prop50
 90
       50
102
RTVSPost2010PropOp50
 70
     1
102
RTVSPost2010Prop51ColorIndex
 90
      256
102
RTVSPost2010Prop51ColorRGB
 90
-16777216
102
RTVSPost2010PropOp51
 70
     0
102
RTVSPost2010Prop52
140
1.0
102
RTVSPost2010PropOp52
 70
     0
102
RTVSPost2010Prop53
 90
        2
102
RTVSPost2010PropOp53
 70
     1
102
RTVSPost2010Prop54
  1
strokes_ogs.tif
102
RTVSPost2010PropOp54
 70
     1
102
RTVSPost2010Prop55
280
     0
102
RTVSPost2010PropOp55
 70
     1
102
RTVSPost2010Prop56
140
1.0
102
RTVSPost2010PropOp56
 70
     1
102
RTVSPost2010Prop57
140
1.0
102
RTVSPost2010PropOp57
 70
     1
  0
XRECORD
  5
164
102
{ACAD_REACTORS
330
163
102
}
330
163
100
AcDbXrecord
280
     1
102
RTVSPost2010Prop28
280
     0
102
RTVSPost2010PropOp28
 70
     1
102
RTVSPost2010Prop29
280
     1
102
RTVSPost2010PropOp29
 70
     1
102
RTVSPost2010Prop30
280
     1
102
RTVSPost2010PropOp30
 70
     1
102
RTVSPost2010Prop31
280
     0
102
RTVSPost2010PropOp31
 70
     1
102
RTVSPost2010Prop32
280
     0
102
RTVSPost2010PropOp32
 70
     1
102
RTVSPost2010Prop33
280
     0
102
RTVSPost2010PropOp33
 70
     1
102
RTVSPost2010Prop34
280
     0
102
RTVSPost2010PropOp34
 70
     1
102
RTVSPost2010Prop35
280
     0
102
RTVSPost2010PropOp35
 70
     1
102
RTVSPost2010Prop36
280
     0
102
RTVSPost2010PropOp36
 70
     1
102
RTVSPost2010Prop37
 90
       50
102
RTVSPost2010PropOp37
 70
     1
102
RTVSPost2010Prop38
140
0.0
102
RTVSPost2010PropOp38
 70
     1
102
RTVSPost2010Prop39
140
1.0
102
RTVSPost2010PropOp39
 70
     1
102
RTVSPost2010Prop40
 90
        0
102
RTVSPost2010PropOp40
 70
     1
102
RTVSPost2010Prop41ColorIndex
 90
       18
102
RTVSPost2010Prop41ColorRGB
 90
        0
102
RTVSPost2010PropOp41
 70
     1
102
RTVSPost2010Prop42
 90
       50
102
RTVSPost2010PropOp42
 70
     1
102
RTVSPost2010Prop43
 90
        3
102
RTVSPost2010PropOp43
 70
     1
102
RTVSPost2010Prop44ColorIndex
 90
        5
102
RTVSPost2010Prop44ColorRGB
 90
      255
102
RTVSPost2010PropOp44
 70
     1
102
RTVSPost2010Prop45
280
     0
102
RTVSPost2010PropOp45
 70
     1
102
RTVSPost2010Prop46
 90
       50
102
RTVSPost2010PropOp46
 70
     1
102
RTVSPost2010Prop47
 90
       50
102
RTVSPost2010PropOp47
 70
     1
102
RTVSPost2010Prop48
 90
       50
102
RTVSPost2010PropOp48
 70
     1
102
RTVSPost2010Prop49
280
     0
102
RTVSPost2010PropOp49
 70
     1
102
RTVSPost2010Prop50
 90
       50
102
RTVSPost2010PropOp50
 70
     1
102
RTVSPost2010Prop51ColorIndex
 90
      256
102
RTVSPost2010Prop51ColorRGB
 90
-16777216
102
RTVSPost2010PropOp51
 70
     0
102
RTVSPost2010Prop52
140
1.0
102
RTVSPost2010PropOp52
 70
     0
102
RTVSPost2010Prop53
 90
        2
102
RTVSPost2010PropOp53
 70
     1
102
RTVSPost2010Prop54
  1
strokes_ogs.tif
102
RTVSPost2010PropOp54
 70
     1
102
RTVSPost2010Prop55
280
     0
102
RTVSPost2010PropOp55
 70
     1
102
RTVSPost2010Prop56
140
1.0
102
RTVSPost2010PropOp56
 70
     1
102
RTVSPost2010Prop57
140
1.0
102
RTVSPost2010PropOp57
 70
     1
  0
XRECORD
  5
166
102
{ACAD_REACTORS
330
165
102
}
330
165
100
AcDbXrecord
280
     1
102
RTVSPost2010Prop28
280
     0
102
RTVSPost2010PropOp28
 70
     1
102
RTVSPost2010Prop29
280
     1
102
RTVSPost2010PropOp29
 70
     1
102
RTVSPost2010Prop30
280
     1
102
RTVSPost2010PropOp30
 70
     1
102
RTVSPost2010Prop31
280
     0
102
RTVSPost2010PropOp31
 70
     1
102
RTVSPost2010Prop32
280
     0
102
RTVSPost2010PropOp32
 70
     1
102
RTVSPost2010Prop33
280
     0
102
RTVSPost2010PropOp33
 70
     1
102
RTVSPost2010Prop34
280
     0
102
RTVSPost2010PropOp34
 70
     1
102
RTVSPost2010Prop35
280
     0
102
RTVSPost2010PropOp35
 70
     1
102
RTVSPost2010Prop36
280
     0
102
RTVSPost2010PropOp36
 70
     1
102
RTVSPost2010Prop37
 90
       50
102
RTVSPost2010PropOp37
 70
     1
102
RTVSPost2010Prop38
140
0.0
102
RTVSPost2010PropOp38
 70
     1
102
RTVSPost2010Prop39
140
1.0
102
RTVSPost2010PropOp39
 70
     1
102
RTVSPost2010Prop40
 90
        0
102
RTVSPost2010PropOp40
 70
     1
102
RTVSPost2010Prop41ColorIndex
 90
       18
102
RTVSPost2010Prop41ColorRGB
 90
        0
102
RTVSPost2010PropOp41
 70
     1
102
RTVSPost2010Prop42
 90
       50
102
RTVSPost2010PropOp42
 70
     1
102
RTVSPost2010Prop43
 90
        3
102
RTVSPost2010PropOp43
 70
     1
102
RTVSPost2010Prop44ColorIndex
 90
        5
102
RTVSPost2010Prop44ColorRGB
 90
      255
102
RTVSPost2010PropOp44
 70
     1
102
RTVSPost2010Prop45
280
     0
102
RTVSPost2010PropOp45
 70
     1
102
RTVSPost2010Prop46
 90
       50
102
RTVSPost2010PropOp46
 70
     1
102
RTVSPost2010Prop47
 90
       50
102
RTVSPost2010PropOp47
 70
     1
102
RTVSPost2010Prop48
 90
       50
102
RTVSPost2010PropOp48
 70
     1
102
RTVSPost2010Prop49
280
     0
102
RTVSPost2010PropOp49
 70
     1
102
RTVSPost2010Prop50
 90
       50
102
RTVSPost2010PropOp50
 70
     1
102
RTVSPost2010Prop51ColorIndex
 90
      256
102
RTVSPost2010Prop51ColorRGB
 90
-16777216
102
RTVSPost2010PropOp51
 70
     0
102
RTVSPost2010Prop52
140
1.0
102
RTVSPost2010PropOp52
 70
     0
102
RTVSPost2010Prop53
 90
        2
102
RTVSPost2010PropOp53
 70
     1
102
RTVSPost2010Prop54
  1
strokes_ogs.tif
102
RTVSPost2010PropOp54
 70
     1
102
RTVSPost2010Prop55
280
     0
102
RTVSPost2010PropOp55
 70
     1
102
RTVSPost2010Prop56
140
1.0
102
RTVSPost2010PropOp56
 70
     1
102
RTVSPost2010Prop57
140
1.0
102
RTVSPost2010PropOp57
 70
     1
  0
XRECORD
  5
156
102
{ACAD_REACTORS
330
155
102
}
330
155
100
AcDbXrecord
280
     1
102
RTVSPost2010Prop28
280
     0
102
RTVSPost2010PropOp28
 70
     1
102
RTVSPost2010Prop29
280
     1
102
RTVSPost2010PropOp29
 70
     1
102
RTVSPost2010Prop30
280
     1
102
RTVSPost2010PropOp30
 70
     1
102
RTVSPost2010Prop31
280
     0
102
RTVSPost2010PropOp31
 70
     1
102
RTVSPost2010Prop32
280
     0
102
RTVSPost2010PropOp32
 70
     1
102
RTVSPost2010Prop33
280
     0
102
RTVSPost2010PropOp33
 70
     1
102
RTVSPost2010Prop34
280
     0
102
RTVSPost2010PropOp34
 70
     1
102
RTVSPost2010Prop35
280
     0
102
RTVSPost2010PropOp35
 70
     1
102
RTVSPost2010Prop36
280
     0
102
RTVSPost2010PropOp36
 70
     1
102
RTVSPost2010Prop37
 90
       50
102
RTVSPost2010PropOp37
 70
     1
102
RTVSPost2010Prop38
140
0.0
102
RTVSPost2010PropOp38
 70
     1
102
RTVSPost2010Prop39
140
1.0
102
RTVSPost2010PropOp39
 70
     1
102
RTVSPost2010Prop40
 90
        0
102
RTVSPost2010PropOp40
 70
     1
102
RTVSPost2010Prop41ColorIndex
 90
       18
102
RTVSPost2010Prop41ColorRGB
 90
        0
102
RTVSPost2010PropOp41
 70
     1
102
RTVSPost2010Prop42
 90
       50
102
RTVSPost2010PropOp42
 70
     1
102
RTVSPost2010Prop43
 90
        3
102
RTVSPost2010PropOp43
 70
     1
102
RTVSPost2010Prop44ColorIndex
 90
        5
102
RTVSPost2010Prop44ColorRGB
 90
      255
102
RTVSPost2010PropOp44
 70
     1
102
RTVSPost2010Prop45
280
     0
102
RTVSPost2010PropOp45
 70
     1
102
RTVSPost2010Prop46
 90
       50
102
RTVSPost2010PropOp46
 70
     1
102
RTVSPost2010Prop47
 90
       50
102
RTVSPost2010PropOp47
 70
     1
102
RTVSPost2010Prop48
 90
       50
102
RTVSPost2010PropOp48
 70
     1
102
RTVSPost2010Prop49
280
     0
102
RTVSPost2010PropOp49
 70
     1
102
RTVSPost2010Prop50
 90
       50
102
RTVSPost2010PropOp50
 70
     1
102
RTVSPost2010Prop51ColorIndex
 90
      256
102
RTVSPost2010Prop51ColorRGB
 90
-16777216
102
RTVSPost2010PropOp51
 70
     0
102
RTVSPost2010Prop52
140
1.0
102
RTVSPost2010PropOp52
 70
     0
102
RTVSPost2010Prop53
 90
        2
102
RTVSPost2010PropOp53
 70
     1
102
RTVSPost2010Prop54
  1
strokes_ogs.tif
102
RTVSPost2010PropOp54
 70
     1
102
RTVSPost2010Prop55
280
     0
102
RTVSPost2010PropOp55
 70
     1
102
RTVSPost2010Prop56
140
1.0
102
RTVSPost2010PropOp56
 70
     1
102
RTVSPost2010Prop57
140
1.0
102
RTVSPost2010PropOp57
 70
     1
  0
XRECORD
  5
148
102
{ACAD_REACTORS
330
147
102
}
330
147
100
AcDbXrecord
280
     1
102
RTVSPost2010Prop28
280
     0
102
RTVSPost2010PropOp28
 70
     1
102
RTVSPost2010Prop29
280
     1
102
RTVSPost2010PropOp29
 70
     1
102
RTVSPost2010Prop30
280
     1
102
RTVSPost2010PropOp30
 70
     1
102
RTVSPost2010Prop31
280
     0
102
RTVSPost2010PropOp31
 70
     1
102
RTVSPost2010Prop32
280
     0
102
RTVSPost2010PropOp32
 70
     1
102
RTVSPost2010Prop33
280
     0
102
RTVSPost2010PropOp33
 70
     1
102
RTVSPost2010Prop34
280
     0
102
RTVSPost2010PropOp34
 70
     1
102
RTVSPost2010Prop35
280
     0
102
RTVSPost2010PropOp35
 70
     1
102
RTVSPost2010Prop36
280
     0
102
RTVSPost2010PropOp36
 70
     1
102
RTVSPost2010Prop37
 90
       50
102
RTVSPost2010PropOp37
 70
     1
102
RTVSPost2010Prop38
140
0.0
102
RTVSPost2010PropOp38
 70
     1
102
RTVSPost2010Prop39
140
1.0
102
RTVSPost2010PropOp39
 70
     1
102
RTVSPost2010Prop40
 90
        0
102
RTVSPost2010PropOp40
 70
     1
102
RTVSPost2010Prop41ColorIndex
 90
       18
102
RTVSPost2010Prop41ColorRGB
 90
        0
102
RTVSPost2010PropOp41
 70
     1
102
RTVSPost2010Prop42
 90
       50
102
RTVSPost2010PropOp42
 70
     1
102
RTVSPost2010Prop43
 90
        3
102
RTVSPost2010PropOp43
 70
     1
102
RTVSPost2010Prop44ColorIndex
 90
        5
102
RTVSPost2010Prop44ColorRGB
 90
      255
102
RTVSPost2010PropOp44
 70
     1
102
RTVSPost2010Prop45
280
     0
102
RTVSPost2010PropOp45
 70
     1
102
RTVSPost2010Prop46
 90
       50
102
RTVSPost2010PropOp46
 70
     1
102
RTVSPost2010Prop47
 90
       50
102
RTVSPost2010PropOp47
 70
     1
102
RTVSPost2010Prop48
 90
       50
102
RTVSPost2010PropOp48
 70
     1
102
RTVSPost2010Prop49
280
     0
102
RTVSPost2010PropOp49
 70
     1
102
RTVSPost2010Prop50
 90
       50
102
RTVSPost2010PropOp50
 70
     1
102
RTVSPost2010Prop51ColorIndex
 90
      256
102
RTVSPost2010Prop51ColorRGB
 90
-16777216
102
RTVSPost2010PropOp51
 70
     0
102
RTVSPost2010Prop52
140
1.0
102
RTVSPost2010PropOp52
 70
     0
102
RTVSPost2010Prop53
 90
        2
102
RTVSPost2010PropOp53
 70
     1
102
RTVSPost2010Prop54
  1
strokes_ogs.tif
102
RTVSPost2010PropOp54
 70
     1
102
RTVSPost2010Prop55
280
     0
102
RTVSPost2010PropOp55
 70
     1
102
RTVSPost2010Prop56
140
1.0
102
RTVSPost2010PropOp56
 70
     1
102
RTVSPost2010Prop57
140
1.0
102
RTVSPost2010PropOp57
 70
     1
  0
XRECORD
  5
168
102
{ACAD_REACTORS
330
167
102
}
330
167
100
AcDbXrecord
280
     1
102
RTVSPost2010Prop28
280
     0
102
RTVSPost2010PropOp28
 70
     1
102
RTVSPost2010Prop29
280
     1
102
RTVSPost2010PropOp29
 70
     1
102
RTVSPost2010Prop30
280
     1
102
RTVSPost2010PropOp30
 70
     1
102
RTVSPost2010Prop31
280
     0
102
RTVSPost2010PropOp31
 70
     1
102
RTVSPost2010Prop32
280
     0
102
RTVSPost2010PropOp32
 70
     1
102
RTVSPost2010Prop33
280
     0
102
RTVSPost2010PropOp33
 70
     1
102
RTVSPost2010Prop34
280
     0
102
RTVSPost2010PropOp34
 70
     1
102
RTVSPost2010Prop35
280
     0
102
RTVSPost2010PropOp35
 70
     1
102
RTVSPost2010Prop36
280
     0
102
RTVSPost2010PropOp36
 70
     1
102
RTVSPost2010Prop37
 90
       50
102
RTVSPost2010PropOp37
 70
     1
102
RTVSPost2010Prop38
140
0.0
102
RTVSPost2010PropOp38
 70
     1
102
RTVSPost2010Prop39
140
1.0
102
RTVSPost2010PropOp39
 70
     1
102
RTVSPost2010Prop40
 90
        0
102
RTVSPost2010PropOp40
 70
     1
102
RTVSPost2010Prop41ColorIndex
 90
       18
102
RTVSPost2010Prop41ColorRGB
 90
        0
102
RTVSPost2010PropOp41
 70
     1
102
RTVSPost2010Prop42
 90
       50
102
RTVSPost2010PropOp42
 70
     1
102
RTVSPost2010Prop43
 90
        3
102
RTVSPost2010PropOp43
 70
     1
102
RTVSPost2010Prop44ColorIndex
 90
        5
102
RTVSPost2010Prop44ColorRGB
 90
      255
102
RTVSPost2010PropOp44
 70
     1
102
RTVSPost2010Prop45
280
     0
102
RTVSPost2010PropOp45
 70
     1
102
RTVSPost2010Prop46
 90
       50
102
RTVSPost2010PropOp46
 70
     1
102
RTVSPost2010Prop47
 90
       50
102
RTVSPost2010PropOp47
 70
     1
102
RTVSPost2010Prop48
 90
       50
102
RTVSPost2010PropOp48
 70
     1
102
RTVSPost2010Prop49
280
     0
102
RTVSPost2010PropOp49
 70
     1
102
RTVSPost2010Prop50
 90
       50
102
RTVSPost2010PropOp50
 70
     1
102
RTVSPost2010Prop51ColorIndex
 90
      256
102
RTVSPost2010Prop51ColorRGB
 90
-16777216
102
RTVSPost2010PropOp51
 70
     0
102
RTVSPost2010Prop52
140
1.0
102
RTVSPost2010PropOp52
 70
     0
102
RTVSPost2010Prop53
 90
        2
102
RTVSPost2010PropOp53
 70
     1
102
RTVSPost2010Prop54
  1
strokes_ogs.tif
102
RTVSPost2010PropOp54
 70
     1
102
RTVSPost2010Prop55
280
     0
102
RTVSPost2010PropOp55
 70
     1
102
RTVSPost2010Prop56
140
1.0
102
RTVSPost2010PropOp56
 70
     1
102
RTVSPost2010Prop57
140
1.0
102
RTVSPost2010PropOp57
 70
     1
  0
ENDSEC
  0
EOF
