  0
SECTION
  2
HEADER
  9
$ACADVER
  1
AC1024
  9
$ACADMAINTVER
 70
     6
  9
$DWGCODEPAGE
  3
ANSI_1252
  9
$INSBASE
 10
0.0
 20
0.0
 30
0.0
  9
$EXTMIN
 10
1.000000000000000E+20
 20
1.000000000000000E+20
 30
1.000000000000000E+20
  9
$EXTMAX
 10
-1.000000000000000E+20
 20
-1.000000000000000E+20
 30
-1.000000000000000E+20
  9
$LIMMIN
 10
0.0
 20
0.0
  9
$LIMMAX
 10
420.0
 20
297.0
  9
$ORTHOMODE
 70
     0
  9
$REGENMODE
 70
     1
  9
$FILLMODE
 70
     1
  9
$QTEXTMODE
 70
     0
  9
$MIRRTEXT
 70
     1
  9
$LTSCALE
 40
1.0
  9
$ATTMODE
 70
     1
  9
$TEXTSIZE
 40
2.5
  9
$TRACEWID
 40
1.0
  9
$TEXTSTYLE
  7
Standard
  9
$CLAYER
  8
0
  9
$CELTYPE
  6
ByLayer
  9
$CECOLOR
 62
   256
  9
$CELTSCALE
 40
1.0
  9
$DISPSILH
 70
     0
  9
$DIMSCALE
 40
1.0
  9
$DIMASZ
 40
2.5
  9
$DIMEXO
 40
0.625
  9
$DIMDLI
 40
3.75
  9
$DIMRND
 40
0.0
  9
$DIMDLE
 40
0.0
  9
$DIMEXE
 40
1.25
  9
$DIMTP
 40
0.0
  9
$DIMTM
 40
0.0
  9
$DIMTXT
 40
2.5
  9
$DIMCEN
 40
2.5
  9
$DIMTSZ
 40
0.0
  9
$DIMTOL
 70
     0
  9
$DIMLIM
 70
     0
  9
$DIMTIH
 70
     0
  9
$DIMTOH
 70
     0
  9
$DIMSE1
 70
     0
  9
$DIMSE2
 70
     0
  9
$DIMTAD
 70
     1
  9
$DIMZIN
 70
     8
  9
$DIMBLK
  1

  9
$DIMASO
 70
     1
  9
$DIMSHO
 70
     1
  9
$DIMPOST
  1

  9
$DIMAPOST
  1

  9
$DIMALT
 70
     0
  9
$DIMALTD
 70
     3
  9
$DIMALTF
 40
0.0393700787401575
  9
$DIMLFAC
 40
1.0
  9
$DIMTOFL
 70
     1
  9
$DIMTVP
 40
0.0
  9
$DIMTIX
 70
     0
  9
$DIMSOXD
 70
     0
  9
$DIMSAH
 70
     0
  9
$DIMBLK1
  1

  9
$DIMBLK2
  1

  9
$DIMSTYLE
  2
ISO-25
  9
$DIMCLRD
 70
     0
  9
$DIMCLRE
 70
     0
  9
$DIMCLRT
 70
     0
  9
$DIMTFAC
 40
1.0
  9
$DIMGAP
 40
0.7
  9
$DIMJUST
 70
     0
  9
$DIMSD1
 70
     0
  9
$DIMSD2
 70
     0
  9
$DIMTOLJ
 70
     0
  9
$DIMTZIN
 70
     8
  9
$DIMALTZ
 70
     0
  9
$DIMALTTZ
 70
     0
  9
$DIMUPT
 70
     0
  9
$DIMDEC
 70
     2
  9
$DIMTDEC
 70
     2
  9
$DIMALTU
 70
     2
  9
$DIMALTTD
 70
     3
  9
$DIMTXSTY
  7
Standard
  9
$DIMAUNIT
 70
     0
  9
$DIMADEC
 70
     0
  9
$DIMALTRND
 40
0.0
  9
$DIMAZIN
 70
     0
  9
$DIMDSEP
 70
    44
  9
$DIMATFIT
 70
     3
  9
$DIMFRAC
 70
     2
  9
$DIMLDRBLK
  1

  9
$DIMLUNIT
 70
     2
  9
$DIMLWD
 70
    15
  9
$DIMLWE
 70
    15
  9
$DIMTMOVE
 70
     0
  9
$DIMFXL
 40
1.0
  9
$DIMFXLON
 70
     0
  9
$DIMJOGANG
 40
0.7853981633974483
  9
$DIMTFILL
 70
     0
  9
$DIMTFILLCLR
 70
     0
  9
$DIMARCSYM
 70
     0
  9
$DIMLTYPE
  6

  9
$DIMLTEX1
  6

  9
$DIMLTEX2
  6

  9
$DIMTXTDIRECTION
 70
     0
  9
$LUNITS
 70
     2
  9
$LUPREC
 70
     4
  9
$SKETCHINC
 40
1.0
  9
$FILLETRAD
 40
0.0
  9
$AUNITS
 70
     0
  9
$AUPREC
 70
     0
  9
$MENU
  1
.
  9
$ELEVATION
 40
0.0
  9
$PELEVATION
 40
0.0
  9
$THICKNESS
 40
0.0
  9
$LIMCHECK
 70
     0
  9
$CHAMFERA
 40
0.0
  9
$CHAMFERB
 40
0.0
  9
$CHAMFERC
 40
0.0
  9
$CHAMFERD
 40
0.0
  9
$SKPOLY
 70
     0
  9
$TDCREATE
 40
2459913.650350058
  9
$TDUCREATE
 40
2459913.900350058
  9
$TDUPDATE
 40
2459913.650350197
  9
$TDUUPDATE
 40
2459913.900350197
  9
$TDINDWG
 40
0.0000000116
  9
$TDUSRTIMER
 40
0.0000000116
  9
$USRTIMER
 70
     1
  9
$ANGBASE
 50
0.0
  9
$ANGDIR
 70
     0
  9
$PDMODE
 70
     0
  9
$PDSIZE
 40
0.0
  9
$PLINEWID
 40
0.0
  9
$SPLFRAME
 70
     0
  9
$SPLINETYPE
 70
     6
  9
$SPLINESEGS
 70
     8
  9
$HANDSEED
  5
176
  9
$SURFTAB1
 70
     6
  9
$SURFTAB2
 70
     6
  9
$SURFTYPE
 70
     6
  9
$SURFU
 70
     6
  9
$SURFV
 70
     6
  9
$UCSBASE
  2

  9
$UCSNAME
  2

  9
$UCSORG
 10
0.0
 20
0.0
 30
0.0
  9
$UCSXDIR
 10
1.0
 20
0.0
 30
0.0
  9
$UCSYDIR
 10
0.0
 20
1.0
 30
0.0
  9
$UCSORTHOREF
  2

  9
$UCSORTHOVIEW
 70
     0
  9
$UCSORGTOP
 10
0.0
 20
0.0
 30
0.0
  9
$UCSORGBOTTOM
 10
0.0
 20
0.0
 30
0.0
  9
$UCSORGLEFT
 10
0.0
 20
0.0
 30
0.0
  9
$UCSORGRIGHT
 10
0.0
 20
0.0
 30
0.0
  9
$UCSORGFRONT
 10
0.0
 20
0.0
 30
0.0
  9
$UCSORGBACK
 10
0.0
 20
0.0
 30
0.0
  9
$PUCSBASE
  2

  9
$PUCSNAME
  2

  9
$PUCSORG
 10
0.0
 20
0.0
 30
0.0
  9
$PUCSXDIR
 10
1.0
 20
0.0
 30
0.0
  9
$PUCSYDIR
 10
0.0
 20
1.0
 30
0.0
  9
$PUCSORTHOREF
  2

  9
$PUCSORTHOVIEW
 70
     0
  9
$PUCSORGTOP
 10
0.0
 20
0.0
 30
0.0
  9
$PUCSORGBOTTOM
 10
0.0
 20
0.0
 30
0.0
  9
$PUCSORGLEFT
 10
0.0
 20
0.0
 30
0.0
  9
$PUCSORGRIGHT
 10
0.0
 20
0.0
 30
0.0
  9
$PUCSORGFRONT
 10
0.0
 20
0.0
 30
0.0
  9
$PUCSORGBACK
 10
0.0
 20
0.0
 30
0.0
  9
$USERI1
 70
     0
  9
$USERI2
 70
     0
  9
$USERI3
 70
     0
  9
$USERI4
 70
     0
  9
$USERI5
 70
     0
  9
$USERR1
 40
0.0
  9
$USERR2
 40
0.0
  9
$USERR3
 40
0.0
  9
$USERR4
 40
0.0
  9
$USERR5
 40
0.0
  9
$WORLDVIEW
 70
     1
  9
$SHADEDGE
 70
     3
  9
$SHADEDIF
 70
    70
  9
$TILEMODE
 70
     0
  9
$MAXACTVP
 70
    64
  9
$PINSBASE
 10
0.0
 20
0.0
 30
0.0
  9
$PLIMCHECK
 70
     0
  9
$PEXTMIN
 10
0.0
 20
0.0
 30
0.0
  9
$PEXTMAX
 10
0.0
 20
0.0
 30
0.0
  9
$PLIMMIN
 10
-20.0
 20
-7.5
  9
$PLIMMAX
 10
277.0
 20
202.5
  9
$UNITMODE
 70
     0
  9
$VISRETAIN
 70
     1
  9
$PLINEGEN
 70
     0
  9
$PSLTSCALE
 70
     1
  9
$TREEDEPTH
 70
  3020
  9
$CMLSTYLE
  2
Standard
  9
$CMLJUST
 70
     0
  9
$CMLSCALE
 40
20.0
  9
$PROXYGRAPHICS
 70
     1
  9
$MEASUREMENT
 70
     1
  9
$CELWEIGHT
370
    -1
  9
$ENDCAPS
280
     0
  9
$JOINSTYLE
280
     0
  9
$LWDISPLAY
290
     0
  9
$INSUNITS
 70
     4
  9
$HYPERLINKBASE
  1

  9
$STYLESHEET
  1

  9
$XEDIT
290
     1
  9
$CEPSNTYPE
380
     0
  9
$PSTYLEMODE
290
     1
  9
$FINGERPRINTGUID
  2
{f5dd4f81-0c4b-8cb3-8b2b-b3a183ae1b84}
  9
$VERSIONGUID
  2
{FAEB1C32-E019-11D5-929B-00C0DF256EC4}
  9
$EXTNAMES
290
     1
  9
$PSVPSCALE
 40
0.0
  9
$OLESTARTUP
290
     0
  9
$SORTENTS
280
   127
  9
$INDEXCTL
280
     0
  9
$HIDETEXT
280
     1
  9
$XCLIPFRAME
280
     2
  9
$HALOGAP
280
     0
  9
$OBSCOLOR
 70
   257
  9
$OBSLTYPE
280
     0
  9
$INTERSECTIONDISPLAY
280
     0
  9
$INTERSECTIONCOLOR
 70
   257
  9
$DIMASSOC
280
     2
  9
$PROJECTNAME
  1

  9
$CAMERADISPLAY
290
     0
  9
$LENSLENGTH
 40
50.0
  9
$CAMERAHEIGHT
 40
0.0
  9
$STEPSPERSEC
 40
2.0
  9
$STEPSIZE
 40
6.0
  9
$3DDWFPREC
 40
2.0
  9
$PSOLWIDTH
 40
5.0
  9
$PSOLHEIGHT
 40
80.0
  9
$LOFTANG1
 40
1.570796326794897
  9
$LOFTANG2
 40
1.570796326794897
  9
$LOFTMAG1
 40
0.0
  9
$LOFTMAG2
 40
0.0
  9
$LOFTPARAM
 70
     7
  9
$LOFTNORMALS
280
     1
  9
$LATITUDE
 40
37.795
  9
$LONGITUDE
 40
-122.394
  9
$NORTHDIRECTION
 40
0.0
  9
$TIMEZONE
 70
 -8000
  9
$LIGHTGLYPHDISPLAY
280
     1
  9
$TILEMODELIGHTSYNCH
280
     1
  9
$CMATERIAL
347
44
  9
$SOLIDHIST
280
     0
  9
$SHOWHIST
280
     1
  9
$DWFFRAME
280
     2
  9
$DGNFRAME
280
     2
  9
$REALWORLDSCALE
290
     1
  9
$INTERFERECOLOR
 62
   256
  9
$CSHADOW
280
     0
  9
$SHADOWPLANELOCATION
 40
0.0
  0
ENDSEC
  0
SECTION
  2
CLASSES
  0
CLASS
  1
ACDBDICTIONARYWDFLT
  2
AcDbDictionaryWithDefault
  3
ObjectDBX Classes
 90
        0
 91
        3
280
     0
281
     0
  0
CLASS
  1
VISUALSTYLE
  2
AcDbVisualStyle
  3
ObjectDBX Classes
 90
     4095
 91
        3
280
     0
281
     0
  0
CLASS
  1
MATERIAL
  2
AcDbMaterial
  3
ObjectDBX Classes
 90
     1153
 91
        3
280
     0
281
     0
  0
CLASS
  1
SCALE
  2
AcDbScale
  3
ObjectDBX Classes
 90
     1153
 91
        3
280
     0
281
     0
  0
CLASS
  1
TABLESTYLE
  2
AcDbTableStyle
  3
ObjectDBX Classes
 90
     4095
 91
        3
280
     0
281
     0
  0
CLASS
  1
MLEADERSTYLE
  2
AcDbMLeaderStyle
  3
ACDB_MLEADERSTYLE_CLASS
 90
     4095
 91
        3
280
     0
281
     0
  0
CLASS
  1
SUN
  2
AcDbSun
  3
SCENEOE
 90
     1153
 91
        3
280
     0
281
     0
  0
CLASS
  1
DICTIONARYVAR
  2
AcDbDictionaryVar
  3
ObjectDBX Classes
 90
        0
 91
        3
280
     0
281
     0
  0
CLASS
  1
CELLSTYLEMAP
  2
AcDbCellStyleMap
  3
ObjectDBX Classes
 90
     1152
 91
        3
280
     0
281
     0
  0
ENDSEC
  0
SECTION
  2
TABLES
  0
TABLE
  2
VPORT
  5
8
330
0
100
AcDbSymbolTable
 70
     1
  0
VPORT
  5
29
330
8
100
AcDbSymbolTableRecord
100
AcDbViewportTableRecord
  2
*Active
 70
     0
 10
0.0
 20
0.0
 11
1.0
 21
1.0
 12
148.5
 22
105.0
 13
0.0
 23
0.0
 14
10.0
 24
10.0
 15
10.0
 25
10.0
 16
0.0
 26
0.0
 36
1.0
 17
0.0
 27
0.0
 37
0.0
 40
210.0
 41
1.414285714285714
 42
50.0
 43
0.0
 44
0.0
 50
0.0
 51
0.0
 71
     0
 72
   100
 73
     1
 74
     3
 75
     0
 76
     0
 77
     0
 78
     0
281
     0
 65
     1
110
0.0
120
0.0
130
0.0
111
1.0
121
0.0
131
0.0
112
0.0
122
1.0
132
0.0
 79
     0
146
0.0
348
2F
 60
     3
 61
     5
292
     1
282
     1
141
0.0
142
0.0
 63
   250
361
5D
  0
ENDTAB
  0
TABLE
  2
LTYPE
  5
5
330
0
100
AcDbSymbolTable
 70
     5
  0
LTYPE
  5
14
330
5
100
AcDbSymbolTableRecord
100
AcDbLinetypeTableRecord
  2
ByBlock
 70
     0
  3

 72
    65
 73
     0
 40
0.0
  0
LTYPE
  5
15
330
5
100
AcDbSymbolTableRecord
100
AcDbLinetypeTableRecord
  2
ByLayer
 70
     0
  3

 72
    65
 73
     0
 40
0.0
  0
LTYPE
  5
16
330
5
100
AcDbSymbolTableRecord
100
AcDbLinetypeTableRecord
  2
Continuous
 70
     0
  3
Solid line
 72
    65
 73
     0
 40
0.0
  0
LTYPE
  5
61
330
5
100
AcDbSymbolTableRecord
100
AcDbLinetypeTableRecord
  2
CenterLine
 70
     0
  3

 72
    65
 73
     4
 40
8.0
 49
5.0
 74
     0
 49
-1.0
 74
     0
 49
1.0
 74
     0
 49
-1.0
 74
     0
  0
LTYPE
  5
62
330
5
100
AcDbSymbolTableRecord
100
AcDbLinetypeTableRecord
  2
DraftedLine
 70
     0
  3

 72
    65
 73
     2
 40
3.0
 49
2.0
 74
     0
 49
-1.0
 74
     0
  0
LTYPE
  5
63
330
5
100
AcDbSymbolTableRecord
100
AcDbLinetypeTableRecord
  2
SectionLineISO
 70
     0
  3

 72
    65
 73
     5
 40
13.75833333333342
 49
4.23333333333336
 74
     0
 49
-2.11666666666668
 74
     0
 49
1.05833333333334
 74
     0
 49
-2.11666666666668
 74
     0
 49
4.23333333333336
 74
     0
  0
LTYPE
  5
64
330
5
100
AcDbSymbolTableRecord
100
AcDbLinetypeTableRecord
  2
SectionLineANSI
 70
     0
  3

 72
    65
 73
     7
 40
11.99444444444452
 49
4.23333333333336
 74
     0
 49
-1.05833333333334
 74
     0
 49
0.17638888888889
 74
     0
 49
-1.05833333333334
 74
     0
 49
0.17638888888889
 74
     0
 49
-1.05833333333334
 74
     0
 49
4.23333333333336
 74
     0
  0
ENDTAB
  0
TABLE
  2
LAYER
  5
2
330
0
100
AcDbSymbolTable
 70
     5
  0
LAYER
  5
10
330
2
100
AcDbSymbolTableRecord
100
AcDbLayerTableRecord
  2
0
 70
     0
 62
     7
  6
Continuous
370
    -3
390
F
347
46
  0
LAYER
  5
5E
330
2
100
AcDbSymbolTableRecord
100
AcDbLayerTableRecord
  2
Geometries
 70
     0
 62
     7
  6
Continuous
370
    -3
390
F
347
46
  0
LAYER
  5
5F
330
2
100
AcDbSymbolTableRecord
100
AcDbLayerTableRecord
  2
Annotations
 70
     0
 62
     7
  6
Continuous
370
    -3
390
F
347
46
  0
LAYER
  5
60
330
2
100
AcDbSymbolTableRecord
100
AcDbLayerTableRecord
  2
Border
 70
     0
 62
     7
  6
Continuous
370
    -3
390
F
347
46
  0
LAYER
  5
B2
330
2
100
AcDbSymbolTableRecord
100
AcDbLayerTableRecord
  2
Defpoints
 70
     0
 62
     7
  6
Continuous
290
     0
370
    -3
390
F
347
46
  0
ENDTAB
  0
TABLE
  2
STYLE
  5
3
330
0
100
AcDbSymbolTable
 70
     7
  0
STYLE
  5
11
330
3
100
AcDbSymbolTableRecord
100
AcDbTextStyleTableRecord
  2
Standard
 70
     0
 40
0.0
 41
1.0
 50
0.0
 71
     0
 42
2.5
  3
txt
  4

  0
STYLE
  5
65
330
3
100
AcDbSymbolTableRecord
100
AcDbTextStyleTableRecord
  2
Shapr0
 70
     0
 40
2.3925
 41
1.0
 50
0.0
 71
     0
 42
2.5
  3

  4

  0
STYLE
  5
66
330
3
100
AcDbSymbolTableRecord
100
AcDbTextStyleTableRecord
  2
Shapr1
 70
     0
 40
2.3925
 41
1.0
 50
0.0
 71
     0
 42
2.5
  3

  4

  0
STYLE
  5
67
330
3
100
AcDbSymbolTableRecord
100
AcDbTextStyleTableRecord
  2
Shapr6
 70
     0
 40
2.3925
 41
1.0
 50
0.0
 71
     0
 42
2.5
  3

  4

  0
STYLE
  5
68
330
3
100
AcDbSymbolTableRecord
100
AcDbTextStyleTableRecord
  2
Shapr7
 70
     0
 40
0.3417857142857143
 41
1.0
 50
0.0
 71
     0
 42
2.5
  3

  4

  0
STYLE
  5
69
330
3
100
AcDbSymbolTableRecord
100
AcDbTextStyleTableRecord
  2
Shapr8
 70
     0
 40
2.3925
 41
1.0
 50
0.0
 71
     0
 42
2.5
  3

  4

  0
STYLE
  5
6A
330
3
100
AcDbSymbolTableRecord
100
AcDbTextStyleTableRecord
  2
Shapr9
 70
     0
 40
0.3417857142857143
 41
1.0
 50
0.0
 71
     0
 42
2.5
  3

  4

  0
ENDTAB
  0
TABLE
  2
VIEW
  5
6
330
0
100
AcDbSymbolTable
 70
     0
  0
ENDTAB
  0
TABLE
  2
UCS
  5
7
330
0
100
AcDbSymbolTable
 70
     0
  0
ENDTAB
  0
TABLE
  2
APPID
  5
9
330
0
100
AcDbSymbolTable
 70
     1
  0
APPID
  5
12
330
9
100
AcDbSymbolTableRecord
100
AcDbRegAppTableRecord
  2
ACAD
 70
     0
  0
ENDTAB
  0
TABLE
  2
DIMSTYLE
  5
A
330
0
100
AcDbSymbolTable
 70
     1
100
AcDbDimStyleTable
  0
DIMSTYLE
105
27
102
{ACAD_REACTORS
330
B3
330
C0
330
CC
102
}
330
A
100
AcDbSymbolTableRecord
100
AcDbDimStyleTableRecord
  2
ISO-25
 70
     0
 41
2.5
 42
0.625
 43
3.75
 44
1.25
 73
     0
 74
     0
 77
     1
 78
     8
140
2.5
141
2.5
143
0.0393700787401575
147
0.625
171
     3
172
     1
178
     0
271
     2
272
     2
274
     3
278
    44
283
     0
284
     8
340
11
  0
ENDTAB
  0
TABLE
  2
BLOCK_RECORD
  5
1
330
0
100
AcDbSymbolTable
 70
     7
  0
BLOCK_RECORD
  5
1F
330
1
100
AcDbSymbolTableRecord
100
AcDbBlockTableRecord
  2
*Model_Space
340
22
 70
     4
280
     1
281
     0
  0
BLOCK_RECORD
  5
6B
330
1
100
AcDbSymbolTableRecord
100
AcDbBlockTableRecord
  2
*Paper_Space
340
6C
 70
     0
280
     1
281
     0
  0
BLOCK_RECORD
  5
23
330
1
100
AcDbSymbolTableRecord
100
AcDbBlockTableRecord
  2
*Paper_Space0
340
26
 70
     0
280
     1
281
     0
  0
BLOCK_RECORD
  5
1B
330
1
100
AcDbSymbolTableRecord
100
AcDbBlockTableRecord
  2
*Paper_Space1
340
1E
 70
     4
280
     1
281
     0
  0
BLOCK_RECORD
  5
B4
330
1
100
AcDbSymbolTableRecord
100
AcDbBlockTableRecord
  2
*D2
340
0
 70
     0
280
     1
281
     0
  0
BLOCK_RECORD
  5
C1
330
1
100
AcDbSymbolTableRecord
100
AcDbBlockTableRecord
  2
*D3
340
0
 70
     0
280
     1
281
     0
  0
BLOCK_RECORD
  5
CD
330
1
100
AcDbSymbolTableRecord
100
AcDbBlockTableRecord
  2
*D4
340
0
 70
     0
280
     1
281
     0
  0
BLOCK_RECORD
  5
D9
330
1
100
AcDbSymbolTableRecord
100
AcDbBlockTableRecord
  2
*U5
340
0
102
{BLKREFS
331
E8
102
}
 70
     0
280
     1
281
     0
  0
BLOCK_RECORD
  5
111
330
1
100
AcDbSymbolTableRecord
100
AcDbBlockTableRecord
  2
*U6
340
0
102
{BLKREFS
331
12B
102
}
 70
     0
280
     1
281
     0
  0
ENDTAB
  0
ENDSEC
  0
SECTION
  2
BLOCKS
  0
BLOCK
  5
20
330
1F
100
AcDbEntity
  8
0
100
AcDbBlockBegin
  2
*Model_Space
 70
     0
 10
0.0
 20
0.0
 30
0.0
  3
*Model_Space
  1

  0
ENDBLK
  5
21
330
1F
100
AcDbEntity
  8
0
100
AcDbBlockEnd
  0
BLOCK
  5
6D
330
6B
100
AcDbEntity
 67
     1
  8
0
100
AcDbBlockBegin
  2
*Paper_Space
 70
     0
 10
0.0
 20
0.0
 30
0.0
  3
*Paper_Space
  1

  0
ENDBLK
  5
6E
330
6B
100
AcDbEntity
 67
     1
  8
0
100
AcDbBlockEnd
  0
BLOCK
  5
24
330
23
100
AcDbEntity
  8
0
100
AcDbBlockBegin
  2
*Paper_Space0
 70
     0
 10
0.0
 20
0.0
 30
0.0
  3
*Paper_Space0
  1

  0
ENDBLK
  5
25
330
23
100
AcDbEntity
  8
0
100
AcDbBlockEnd
  0
BLOCK
  5
1C
330
1B
100
AcDbEntity
  8
0
100
AcDbBlockBegin
  2
*Paper_Space1
 70
     0
 10
0.0
 20
0.0
 30
0.0
  3
*Paper_Space1
  1

  0
ENDBLK
  5
1D
330
1B
100
AcDbEntity
  8
0
100
AcDbBlockEnd
  0
BLOCK
  5
B5
330
B4
100
AcDbEntity
  8
0
100
AcDbBlockBegin
  2
*D2
 70
     1
 10
0.0
 20
0.0
 30
0.0
  3
*D2
  1

  0
LINE
  5
B7
330
B4
100
AcDbEntity
  8
Annotations
  6
Continuous
 62
     0
370
    15
100
AcDbLine
 10
101.025
 20
77.535
 30
0.0
 11
117.2348976135254
 21
77.535
 31
0.0
  0
LINE
  5
B8
330
B4
100
AcDbEntity
  8
Annotations
  6
Continuous
 62
     0
370
    15
100
AcDbLine
 10
101.025
 20
110.365
 30
0.0
 11
117.2348976135254
 21
110.365
 31
0.0
  0
LINE
  5
B9
330
B4
100
AcDbEntity
  8
Annotations
  6
Continuous
 62
     0
370
    15
100
AcDbLine
 10
115.9848976135254
 20
80.035
 30
0.0
 11
115.9848976135254
 21
107.865
 31
0.0
  0
SOLID
  5
BA
330
B4
100
AcDbEntity
  8
Annotations
 62
     0
100
AcDbTrace
 10
115.5682309468587
 20
80.035
 30
0.0
 11
116.4015642801921
 21
80.035
 31
0.0
 12
115.9848976135254
 22
77.535
 32
0.0
 13
115.9848976135254
 23
77.535
 33
0.0
  0
SOLID
  5
BB
330
B4
100
AcDbEntity
  8
Annotations
 62
     0
100
AcDbTrace
 10
116.4015642801921
 20
107.865
 30
0.0
 11
115.5682309468587
 21
107.865
 31
0.0
 12
115.9848976135254
 22
110.365
 32
0.0
 13
115.9848976135254
 23
110.365
 33
0.0
  0
MTEXT
  5
BC
330
B4
100
AcDbEntity
  8
Annotations
 62
     0
370
    15
100
AcDbMText
 10
113.8607904706682
 20
93.41379661560057
 30
0.0
 40
2.3925
 41
0.0
 46
0.0
 71
     5
 72
     1
  1
\A1;4,69{\H1.500000;%%p0,05}
  7
Shapr8
 11
0.0
 21
1.0
 31
0.0
 73
     1
 44
1.0
  0
POINT
  5
BD
330
B4
100
AcDbEntity
  8
Defpoints
 62
     0
100
AcDbPoint
 10
100.4
 20
77.535
 30
0.0
  0
POINT
  5
BE
330
B4
100
AcDbEntity
  8
Defpoints
 62
     0
100
AcDbPoint
 10
100.4
 20
110.365
 30
0.0
  0
POINT
  5
BF
330
B4
100
AcDbEntity
  8
Defpoints
 62
     0
100
AcDbPoint
 10
115.9848976135254
 20
110.365
 30
0.0
  0
ENDBLK
  5
B6
330
B4
100
AcDbEntity
  8
0
100
AcDbBlockEnd
  0
BLOCK
  5
C2
330
C1
100
AcDbEntity
  8
0
100
AcDbBlockBegin
  2
*D3
 70
     1
 10
0.0
 20
0.0
 30
0.0
  3
*D3
  1

  0
LINE
  5
C4
330
C1
100
AcDbEntity
  8
Annotations
  6
Continuous
 62
     0
370
    15
100
AcDbLine
 10
102.5205003976848
 20
169.5019395303965
 30
0.0
 11
113.3143784730481
 21
172.8227754201584
 31
0.0
  0
LINE
  5
C5
330
C1
100
AcDbEntity
  8
Annotations
  6
Continuous
 62
     0
370
    15
100
AcDbLine
 10
70.97949960231522
 20
159.7980604696035
 30
0.0
 11
68.59002984509024
 21
159.0629181165131
 31
0.0
  0
MTEXT
  5
C6
330
C1
100
AcDbEntity
  8
Annotations
 62
     0
370
    15
100
AcDbMText
 10
110.2365651100016
 20
173.8598230891754
 30
0.0
 40
2.3925
 41
0.0
 46
0.0
 71
     5
 72
     1
  1
\A1;%%c4
  7
Shapr6
 11
0.9557879028899869
 21
0.2940569412361509
 31
0.0
 73
     1
 44
1.0
  0
LINE
  5
C7
330
C1
100
AcDbEntity
  8
Annotations
  6
Continuous
 62
     0
370
    15
100
AcDbLine
 10
73.36896935954019
 20
160.5332028226939
 30
0.0
 11
100.1310306404598
 21
168.7667971773061
 31
0.0
  0
SOLID
  5
C8
330
C1
100
AcDbEntity
  8
Annotations
 62
     0
100
AcDbTrace
 10
71.10202332783028
 20
159.399815510066
 30
0.0
 11
70.85697587680015
 21
160.196305429141
 31
0.0
 12
73.36896935954019
 22
160.5332028226939
 32
0.0
 13
73.36896935954019
 23
160.5332028226939
 33
0.0
  0
SOLID
  5
C9
330
C1
100
AcDbEntity
  8
Annotations
 62
     0
100
AcDbTrace
 10
102.3979766721697
 20
169.900184489934
 30
0.0
 11
102.6430241231999
 21
169.103694570859
 31
0.0
 12
100.1310306404598
 22
168.7667971773061
 32
0.0
 13
100.1310306404598
 23
168.7667971773061
 33
0.0
  0
POINT
  5
CA
330
C1
100
AcDbEntity
  8
Defpoints
 62
     0
100
AcDbPoint
 10
100.1310306404598
 20
168.7667971773061
 30
0.0
  0
POINT
  5
CB
330
C1
100
AcDbEntity
  8
Defpoints
 62
     0
100
AcDbPoint
 10
73.36896935954019
 20
160.5332028226939
 30
0.0
  0
ENDBLK
  5
C3
330
C1
100
AcDbEntity
  8
0
100
AcDbBlockEnd
  0
BLOCK
  5
CE
330
CD
100
AcDbEntity
  8
0
100
AcDbBlockBegin
  2
*D4
 70
     1
 10
0.0
 20
0.0
 30
0.0
  3
*D4
  1

  0
LINE
  5
D0
330
CD
100
AcDbEntity
  8
Annotations
  6
Continuous
 62
     0
370
    15
100
AcDbLine
 10
98.98063714523815
 20
160.2441499093227
 30
0.0
 11
112.5411392806675
 21
155.3592417190514
 31
0.0
  0
LINE
  5
D1
330
CD
100
AcDbEntity
  8
Annotations
  6
Continuous
 62
     0
370
    15
100
AcDbLine
 10
74.51936285476185
 20
169.0558500906773
 30
0.0
 11
72.16731724990836
 21
169.9031289542691
 31
0.0
  0
MTEXT
  5
D2
330
CD
100
AcDbEntity
  8
Annotations
 62
     0
370
    15
100
AcDbMText
 10
110.7566572377505
 20
158.0175995776407
 30
0.0
 40
2.3925
 41
0.0
 46
0.0
 71
     5
 72
     1
  1
\A1;%%c3
  7
Shapr6
 11
0.9408182419413962
 21
-0.3389115454367123
 31
0.0
 73
     1
 44
1.0
  0
LINE
  5
D3
330
CD
100
AcDbEntity
  8
Annotations
  6
Continuous
 62
     0
370
    15
100
AcDbLine
 10
76.87140845961534
 20
168.2085712270855
 30
0.0
 11
96.62859154038466
 21
161.0914287729145
 31
0.0
  0
SOLID
  5
D4
330
CD
100
AcDbEntity
  8
Annotations
 62
     0
100
AcDbTrace
 10
74.37814971082989
 20
168.6638424898684
 30
0.0
 11
74.66057599869382
 21
169.4478576914862
 31
0.0
 12
76.87140845961534
 22
168.2085712270855
 32
0.0
 13
76.87140845961534
 23
168.2085712270855
 33
0.0
  0
SOLID
  5
D5
330
CD
100
AcDbEntity
  8
Annotations
 62
     0
100
AcDbTrace
 10
99.12185028917011
 20
160.6361575101317
 30
0.0
 11
98.83942400130618
 21
159.8521423085138
 31
0.0
 12
96.62859154038466
 22
161.0914287729145
 32
0.0
 13
96.62859154038466
 23
161.0914287729145
 33
0.0
  0
POINT
  5
D6
330
CD
100
AcDbEntity
  8
Defpoints
 62
     0
100
AcDbPoint
 10
96.62859154038466
 20
161.0914287729145
 30
0.0
  0
POINT
  5
D7
330
CD
100
AcDbEntity
  8
Defpoints
 62
     0
100
AcDbPoint
 10
76.87140845961534
 20
168.2085712270855
 30
0.0
  0
ENDBLK
  5
CF
330
CD
100
AcDbEntity
  8
0
100
AcDbBlockEnd
  0
BLOCK
  5
E6
330
D9
100
AcDbEntity
  8
0
100
AcDbBlockBegin
  2
*U5
 70
     1
 10
0.0
 20
0.0
 30
0.0
  3
*U5
  1

  0
LINE
  5
DA
330
D9
100
AcDbEntity
  8
Annotations
  6
Continuous
370
    -3
100
AcDbLine
 10
86.75
 20
164.65
 30
0.0
 11
86.75
 21
169.65
 31
0.0
  0
LINE
  5
DB
330
D9
100
AcDbEntity
  8
Annotations
  6
Continuous
370
    -3
100
AcDbLine
 10
86.75
 20
174.65
 30
0.0
 11
86.75
 21
178.65
 31
0.0
  0
LINE
  5
DC
330
D9
100
AcDbEntity
  8
Annotations
  6
CenterLine
370
    -3
100
AcDbLine
 10
86.75
 20
178.65
 30
0.0
 11
86.75
 21
181.65
 31
0.0
  0
LINE
  5
DD
330
D9
100
AcDbEntity
  8
Annotations
  6
Continuous
370
    -3
100
AcDbLine
 10
86.75
 20
164.65
 30
0.0
 11
86.75
 21
159.65
 31
0.0
  0
LINE
  5
DE
330
D9
100
AcDbEntity
  8
Annotations
  6
Continuous
370
    -3
100
AcDbLine
 10
86.75
 20
154.65
 30
0.0
 11
86.75
 21
150.65
 31
0.0
  0
LINE
  5
DF
330
D9
100
AcDbEntity
  8
Annotations
  6
CenterLine
370
    -3
100
AcDbLine
 10
86.75
 20
150.65
 30
0.0
 11
86.75
 21
147.65
 31
0.0
  0
LINE
  5
E0
330
D9
100
AcDbEntity
  8
Annotations
  6
Continuous
370
    -3
100
AcDbLine
 10
86.75
 20
164.65
 30
0.0
 11
81.75
 21
164.65
 31
0.0
  0
LINE
  5
E1
330
D9
100
AcDbEntity
  8
Annotations
  6
Continuous
370
    -3
100
AcDbLine
 10
76.75
 20
164.65
 30
0.0
 11
72.75
 21
164.65
 31
0.0
  0
LINE
  5
E2
330
D9
100
AcDbEntity
  8
Annotations
  6
CenterLine
370
    -3
100
AcDbLine
 10
72.75
 20
164.65
 30
0.0
 11
69.75
 21
164.65
 31
0.0
  0
LINE
  5
E3
330
D9
100
AcDbEntity
  8
Annotations
  6
Continuous
370
    -3
100
AcDbLine
 10
86.75
 20
164.65
 30
0.0
 11
91.75
 21
164.65
 31
0.0
  0
LINE
  5
E4
330
D9
100
AcDbEntity
  8
Annotations
  6
Continuous
370
    -3
100
AcDbLine
 10
96.75
 20
164.65
 30
0.0
 11
100.75
 21
164.65
 31
0.0
  0
LINE
  5
E5
330
D9
100
AcDbEntity
  8
Annotations
  6
CenterLine
370
    -3
100
AcDbLine
 10
100.75
 20
164.65
 30
0.0
 11
103.75
 21
164.65
 31
0.0
  0
ENDBLK
  5
E7
330
D9
100
AcDbEntity
  8
0
100
AcDbBlockEnd
  0
BLOCK
  5
129
330
111
100
AcDbEntity
  8
0
100
AcDbBlockBegin
  2
*U6
 70
     1
 10
0.0
 20
0.0
 30
0.0
  3
*U6
  1

  0
LINE
  5
112
330
111
100
AcDbEntity
  8
Border
  6
Continuous
370
    15
100
AcDbLine
 10
287.0
 20
10.0
 30
0.0
 11
174.1
 21
10.0
 31
0.0
  0
LINE
  5
113
330
111
100
AcDbEntity
  8
Border
  6
Continuous
370
    15
100
AcDbLine
 10
287.0
 20
26.2
 30
0.0
 11
174.1
 21
26.2
 31
0.0
  0
LINE
  5
114
330
111
100
AcDbEntity
  8
Border
  6
Continuous
370
    15
100
AcDbLine
 10
287.0
 20
42.4
 30
0.0
 11
174.1
 21
42.4
 31
0.0
  0
LINE
  5
115
330
111
100
AcDbEntity
  8
Border
  6
Continuous
370
    15
100
AcDbLine
 10
287.0
 20
58.59999999999999
 30
0.0
 11
174.1
 21
58.59999999999999
 31
0.0
  0
LINE
  5
116
330
111
100
AcDbEntity
  8
Border
  6
Continuous
370
    15
100
AcDbLine
 10
287.0
 20
10.0
 30
0.0
 11
287.0
 21
58.59999999999999
 31
0.0
  0
LINE
  5
117
330
111
100
AcDbEntity
  8
Border
  6
Continuous
370
    15
100
AcDbLine
 10
255.25
 20
10.0
 30
0.0
 11
255.25
 21
42.4
 31
0.0
  0
LINE
  5
118
330
111
100
AcDbEntity
  8
Border
  6
Continuous
370
    15
100
AcDbLine
 10
223.5
 20
10.0
 30
0.0
 11
223.5
 21
42.4
 31
0.0
  0
LINE
  5
119
330
111
100
AcDbEntity
  8
Border
  6
Continuous
370
    15
100
AcDbLine
 10
174.1
 20
10.0
 30
0.0
 11
174.1
 21
58.59999999999999
 31
0.0
  0
CIRCLE
  5
11A
330
111
100
AcDbEntity
  8
Border
  6
Continuous
370
    40
100
AcDbCircle
 10
192.450088
 20
15.82498
 30
0.0
 40
1.68751
  0
CIRCLE
  5
11B
330
111
100
AcDbEntity
  8
Border
  6
Continuous
370
    40
100
AcDbCircle
 10
192.450088
 20
15.82498
 30
0.0
 40
3.37502
  0
LINE
  5
11C
330
111
100
AcDbEntity
  8
Border
  6
Continuous
370
    15
100
AcDbLine
 10
192.112586
 20
15.82498
 30
0.0
 11
192.78759
 21
15.82498
 31
0.0
  0
LINE
  5
11D
330
111
100
AcDbEntity
  8
Border
  6
Continuous
370
    15
100
AcDbLine
 10
191.437582
 20
15.82498
 30
0.0
 11
188.400064
 21
15.82498
 31
0.0
  0
LINE
  5
11E
330
111
100
AcDbEntity
  8
Border
  6
Continuous
370
    15
100
AcDbLine
 10
193.462594
 20
15.82498
 30
0.0
 11
196.500112
 21
15.82498
 31
0.0
  0
LINE
  5
11F
330
111
100
AcDbEntity
  8
Border
  6
Continuous
370
    15
100
AcDbLine
 10
192.450088
 20
15.487478
 30
0.0
 11
192.450088
 21
16.162482
 31
0.0
  0
LINE
  5
120
330
111
100
AcDbEntity
  8
Border
  6
Continuous
370
    15
100
AcDbLine
 10
192.450088
 20
14.812474
 30
0.0
 11
192.450088
 21
11.774956
 31
0.0
  0
LINE
  5
121
330
111
100
AcDbEntity
  8
Border
  6
Continuous
370
    15
100
AcDbLine
 10
192.450088
 20
16.837486
 30
0.0
 11
192.450088
 21
19.875004
 31
0.0
  0
LINE
  5
122
330
111
100
AcDbEntity
  8
Border
  6
Continuous
370
    40
100
AcDbLine
 10
178.275004
 20
17.51249
 30
0.0
 11
178.275004
 21
14.13747
 31
0.0
  0
LINE
  5
123
330
111
100
AcDbEntity
  8
Border
  6
Continuous
370
    40
100
AcDbLine
 10
178.275004
 20
17.51249
 30
0.0
 11
186.375052
 21
19.2
 31
0.0
  0
LINE
  5
124
330
111
100
AcDbEntity
  8
Border
  6
Continuous
370
    40
100
AcDbLine
 10
178.275004
 20
14.13747
 30
0.0
 11
186.375052
 21
12.44996
 31
0.0
  0
LINE
  5
125
330
111
100
AcDbEntity
  8
Border
  6
Continuous
370
    40
100
AcDbLine
 10
186.375052
 20
19.2
 30
0.0
 11
186.375052
 21
12.44996
 31
0.0
  0
LINE
  5
126
330
111
100
AcDbEntity
  8
Border
  6
Continuous
370
    15
100
AcDbLine
 10
177.6
 20
15.82498
 30
0.0
 11
181.312522
 21
15.82498
 31
0.0
  0
LINE
  5
127
330
111
100
AcDbEntity
  8
Border
  6
Continuous
370
    15
100
AcDbLine
 10
181.987526
 20
15.82498
 30
0.0
 11
182.66253
 21
15.82498
 31
0.0
  0
LINE
  5
128
330
111
100
AcDbEntity
  8
Border
  6
Continuous
370
    15
100
AcDbLine
 10
187.050056
 20
15.82498
 30
0.0
 11
183.337534
 21
15.82498
 31
0.0
  0
ENDBLK
  5
12A
330
111
100
AcDbEntity
  8
0
100
AcDbBlockEnd
  0
ENDSEC
  0
SECTION
  2
ENTITIES
  0
CIRCLE
  5
73
330
1F
100
AcDbEntity
  8
Geometries
  6
Continuous
370
    40
100
AcDbCircle
 10
86.75
 20
164.65
 30
0.0
 40
13.65
  0
CIRCLE
  5
74
330
1F
100
AcDbEntity
  8
Geometries
  6
Continuous
370
    40
100
AcDbCircle
 10
86.75
 20
164.65
 30
0.0
 40
10.85
  0
CIRCLE
  5
75
330
1F
100
AcDbEntity
  8
Geometries
  6
Continuous
370
    40
100
AcDbCircle
 10
86.75
 20
164.65
 30
0.0
 40
10.5
  0
CIRCLE
  5
76
330
1F
100
AcDbEntity
  8
Geometries
  6
Continuous
370
    40
100
AcDbCircle
 10
86.75
 20
164.65
 30
0.0
 40
14.0
  0
LINE
  5
77
330
1F
100
AcDbEntity
  8
Geometries
  6
Continuous
370
    40
100
AcDbLine
 10
236.665
 20
178.3
 30
0.0
 11
236.665
 21
151.0
 31
0.0
  0
LINE
  5
78
330
1F
100
AcDbEntity
  8
Geometries
  6
Continuous
370
    40
100
AcDbLine
 10
203.835
 20
151.0
 30
0.0
 11
203.835
 21
178.3
 31
0.0
  0
LINE
  5
79
330
1F
100
AcDbEntity
  8
Geometries
  6
Continuous
370
    40
100
AcDbLine
 10
204.185
 20
178.65
 30
0.0
 11
204.185
 21
150.65
 31
0.0
  0
LINE
  5
7A
330
1F
100
AcDbEntity
  8
Geometries
  6
Continuous
370
    40
100
AcDbLine
 10
236.315
 20
150.65
 30
0.0
 11
236.315
 21
178.65
 31
0.0
  0
LINE
  5
7B
330
1F
100
AcDbEntity
  8
Geometries
  6
Continuous
370
    40
100
AcDbLine
 10
236.315
 20
150.65
 30
0.0
 11
204.185
 21
150.65
 31
0.0
  0
LINE
  5
7C
330
1F
100
AcDbEntity
  8
Geometries
  6
Continuous
370
    40
100
AcDbLine
 10
236.315
 20
178.65
 30
0.0
 11
204.185
 21
178.65
 31
0.0
  0
ARC
  5
7D
330
1F
100
AcDbEntity
  8
Geometries
  6
Continuous
370
    40
100
AcDbCircle
 10
236.315
 20
151.0
 30
0.0
 40
0.3500000000000009
100
AcDbArc
 50
270.0
 51
0.0
  0
ARC
  5
7E
330
1F
100
AcDbEntity
  8
Geometries
  6
Continuous
370
    40
100
AcDbCircle
 10
236.315
 20
178.3
 30
0.0
 40
0.3500000000000009
100
AcDbArc
 50
0.0
 51
90.0
  0
ARC
  5
7F
330
1F
100
AcDbEntity
  8
Geometries
  6
Continuous
370
    40
100
AcDbCircle
 10
204.185
 20
151.0
 30
0.0
 40
0.3499999999999979
100
AcDbArc
 50
180.0
 51
270.0
  0
ARC
  5
80
330
1F
100
AcDbEntity
  8
Geometries
  6
Continuous
370
    40
100
AcDbCircle
 10
204.185
 20
178.3
 30
0.0
 40
0.3499999999999994
100
AcDbArc
 50
90.0
 51
180.0
  0
LINE
  5
81
330
1F
100
AcDbEntity
  8
Geometries
  6
DraftedLine
370
    15
100
AcDbLine
 10
236.315
 20
154.15
 30
0.0
 11
204.185
 21
154.15
 31
0.0
  0
LINE
  5
82
330
1F
100
AcDbEntity
  8
Geometries
  6
DraftedLine
370
    15
100
AcDbLine
 10
236.315
 20
175.15
 30
0.0
 11
204.185
 21
175.15
 31
0.0
  0
ARC
  5
83
330
1F
100
AcDbEntity
  8
Geometries
  6
DraftedLine
370
    15
100
AcDbCircle
 10
204.185
 20
153.8
 30
0.0
 40
0.3499999999999994
100
AcDbArc
 50
90.0
 51
180.0
  0
ARC
  5
84
330
1F
100
AcDbEntity
  8
Geometries
  6
DraftedLine
370
    15
100
AcDbCircle
 10
204.185
 20
175.5
 30
0.0
 40
0.3499999999999979
100
AcDbArc
 50
180.0
 51
270.0
  0
ARC
  5
85
330
1F
100
AcDbEntity
  8
Geometries
  6
DraftedLine
370
    15
100
AcDbCircle
 10
236.315
 20
153.8
 30
0.0
 40
0.3500000000000009
100
AcDbArc
 50
0.0
 51
90.0
  0
ARC
  5
86
330
1F
100
AcDbEntity
  8
Geometries
  6
DraftedLine
370
    15
100
AcDbCircle
 10
236.315
 20
175.5
 30
0.0
 40
0.3499999999999994
100
AcDbArc
 50
270.0
 51
0.0
  0
LINE
  5
87
330
1F
100
AcDbEntity
  8
Geometries
  6
Continuous
370
    40
100
AcDbLine
 10
100.4
 20
77.535
 30
0.0
 11
73.1
 21
77.535
 31
0.0
  0
LINE
  5
88
330
1F
100
AcDbEntity
  8
Geometries
  6
Continuous
370
    40
100
AcDbLine
 10
73.1
 20
110.365
 30
0.0
 11
100.4
 21
110.365
 31
0.0
  0
LINE
  5
89
330
1F
100
AcDbEntity
  8
Geometries
  6
Continuous
370
    40
100
AcDbLine
 10
100.75
 20
110.015
 30
0.0
 11
72.75
 21
110.015
 31
0.0
  0
LINE
  5
8A
330
1F
100
AcDbEntity
  8
Geometries
  6
Continuous
370
    40
100
AcDbLine
 10
72.75
 20
77.88499999999999
 30
0.0
 11
100.75
 21
77.88499999999999
 31
0.0
  0
LINE
  5
8B
330
1F
100
AcDbEntity
  8
Geometries
  6
Continuous
370
    40
100
AcDbLine
 10
100.75
 20
77.88499999999999
 30
0.0
 11
100.75
 21
110.015
 31
0.0
  0
LINE
  5
8C
330
1F
100
AcDbEntity
  8
Geometries
  6
Continuous
370
    40
100
AcDbLine
 10
72.75
 20
77.88499999999999
 30
0.0
 11
72.75
 21
110.015
 31
0.0
  0
ARC
  5
8D
330
1F
100
AcDbEntity
  8
Geometries
  6
Continuous
370
    40
100
AcDbCircle
 10
73.1
 20
77.88499999999999
 30
0.0
 40
0.3499999999999994
100
AcDbArc
 50
180.0
 51
270.0
  0
ARC
  5
8E
330
1F
100
AcDbEntity
  8
Geometries
  6
Continuous
370
    40
100
AcDbCircle
 10
100.4
 20
77.88499999999999
 30
0.0
 40
0.3500000000000009
100
AcDbArc
 50
270.0
 51
0.0
  0
ARC
  5
8F
330
1F
100
AcDbEntity
  8
Geometries
  6
Continuous
370
    40
100
AcDbCircle
 10
73.1
 20
110.015
 30
0.0
 40
0.3499999999999979
100
AcDbArc
 50
90.0
 51
180.0
  0
ARC
  5
90
330
1F
100
AcDbEntity
  8
Geometries
  6
Continuous
370
    40
100
AcDbCircle
 10
100.4
 20
110.015
 30
0.0
 40
0.3499999999999994
100
AcDbArc
 50
0.0
 51
90.0
  0
LINE
  5
91
330
1F
100
AcDbEntity
  8
Geometries
  6
DraftedLine
370
    15
100
AcDbLine
 10
97.25
 20
77.88499999999999
 30
0.0
 11
97.25
 21
110.015
 31
0.0
  0
LINE
  5
92
330
1F
100
AcDbEntity
  8
Geometries
  6
DraftedLine
370
    15
100
AcDbLine
 10
76.25
 20
77.88499999999999
 30
0.0
 11
76.25
 21
110.015
 31
0.0
  0
ARC
  5
93
330
1F
100
AcDbEntity
  8
Geometries
  6
DraftedLine
370
    15
100
AcDbCircle
 10
75.9
 20
110.015
 30
0.0
 40
0.3499999999999994
100
AcDbArc
 50
0.0
 51
90.0
  0
ARC
  5
94
330
1F
100
AcDbEntity
  8
Geometries
  6
DraftedLine
370
    15
100
AcDbCircle
 10
97.6
 20
110.015
 30
0.0
 40
0.3499999999999979
100
AcDbArc
 50
90.0
 51
180.0
  0
ARC
  5
95
330
1F
100
AcDbEntity
  8
Geometries
  6
DraftedLine
370
    15
100
AcDbCircle
 10
75.9
 20
77.88499999999999
 30
0.0
 40
0.3500000000000009
100
AcDbArc
 50
270.0
 51
0.0
  0
ARC
  5
96
330
1F
100
AcDbEntity
  8
Geometries
  6
DraftedLine
370
    15
100
AcDbCircle
 10
97.6
 20
77.88499999999999
 30
0.0
 40
0.3499999999999994
100
AcDbArc
 50
180.0
 51
270.0
  0
LINE
  5
97
330
1F
100
AcDbEntity
  8
Geometries
  6
Continuous
370
    40
100
AcDbLine
 10
224.6096704397619
 20
75.26713556071589
 30
0.0
 11
201.8903295602381
 21
88.38415313331981
 31
0.0
  0
LINE
  5
98
330
1F
100
AcDbEntity
  8
Geometries
  6
Continuous
370
    40
100
AcDbLine
 10
238.6096704397619
 20
99.51584686668018
 30
0.0
 11
215.8903295602381
 21
112.6328644392841
 31
0.0
  0
LINE
  5
99
330
1F
100
AcDbEntity
  8
Geometries
  6
Continuous
370
    40
100
AcDbLine
 10
224.6310821596408
 20
75.25484531490272
 30
0.0
 11
224.652875735084
 21
75.24248252549566
 31
0.0
  0
LINE
  5
9A
330
1F
100
AcDbEntity
  8
Geometries
  6
Continuous
370
    40
100
AcDbLine
 10
238.7070558220047
 20
99.45811129503318
 30
0.0
 11
238.713673265472
 21
99.45407691776231
 31
0.0
  0
LINE
  5
9B
330
1F
100
AcDbEntity
  8
Geometries
  6
Continuous
370
    40
100
AcDbLine
 10
224.6615652878274
 20
75.23759418881721
 30
0.0
 11
224.652875735084
 21
75.24248252549566
 31
0.0
  0
ELLIPSE
  5
9C
330
1F
100
AcDbEntity
  8
Geometries
  6
Continuous
370
    40
100
AcDbEllipse
 10
231.8571578131772
 20
87.24860431203568
 30
0.0
 11
6.825
 21
11.82124676165759
 31
0.0
210
0.0
220
0.0
230
0.9999999999999999
 40
0.5773502691896257
 41
0.0
 42
6.283185307179586
  0
ELLIPSE
  5
9D
330
1F
100
AcDbEntity
  8
Geometries
  6
Continuous
370
    40
100
AcDbEllipse
 10
231.8571578131772
 20
87.24860431203568
 30
0.0
 11
-5.425000000000006
 21
-9.396375631061161
 31
0.0
210
0.0
220
0.0
230
1.0
 40
0.5773502691896258
 41
0.0
 42
6.283185307179586
  0
ELLIPSE
  5
9E
330
1F
100
AcDbEntity
  8
Geometries
  6
Continuous
370
    40
100
AcDbEllipse
 10
208.8903295602381
 20
100.508508786302
 30
0.0
 11
7.000000000000003
 21
12.12435565298214
 31
0.0
210
0.0
220
0.0
230
1.0
 40
0.5773502691896257
 41
0.0029695873489497
 42
3.138812009714253
  0
ELLIPSE
  5
9F
330
1F
100
AcDbEntity
  8
Geometries
  6
Continuous
370
    40
100
AcDbEllipse
 10
208.8903295602381
 20
100.508508786302
 30
0.0
 11
7.000000000000003
 21
12.12435565298214
 31
0.0
210
0.0
220
0.0
230
1.0
 40
0.5773502691896257
 41
0.0
 42
0.0029695873489497
  0
ELLIPSE
  5
A0
330
1F
100
AcDbEntity
  8
Geometries
  6
Continuous
370
    40
100
AcDbEllipse
 10
208.8903295602381
 20
100.508508786302
 30
0.0
 11
7.000000000000003
 21
12.12435565298214
 31
0.0
210
0.0
220
0.0
230
1.0
 40
0.5773502691896257
 41
3.138812009714253
 42
3.141592653589793
  0
ELLIPSE
  5
A1
330
1F
100
AcDbEntity
  8
Geometries
  6
Continuous
370
    40
100
AcDbEllipse
 10
231.6096704397619
 20
87.39149121369803
 30
0.0
 11
-7.000000000000003
 21
-12.12435565298214
 31
0.0
210
0.0
220
0.0
230
1.0
 40
0.5773502691896257
 41
0.0
 42
0.0029089226118475
  0
ELLIPSE
  5
A2
330
1F
100
AcDbEntity
  8
Geometries
  6
Continuous
370
    40
100
AcDbEllipse
 10
231.6096704397619
 20
87.39149121369803
 30
0.0
 11
-7.000000000000003
 21
-12.12435565298214
 31
0.0
210
0.0
220
0.0
230
1.0
 40
0.5773502691896257
 41
3.138811614747035
 42
3.141592653589793
  0
ELLIPSE
  5
A3
330
1F
100
AcDbEntity
  8
Geometries
  6
Continuous
370
    40
100
AcDbEllipse
 10
231.6096704397619
 20
87.39149121369803
 30
0.0
 11
-7.000000000000003
 21
-12.12435565298214
 31
0.0
210
0.0
220
0.0
230
1.0
 40
0.5773502691896257
 41
3.141592653589793
 42
3.926990816987241
  0
ELLIPSE
  5
A4
330
1F
100
AcDbEntity
  8
Geometries
  6
Continuous
370
    40
100
AcDbEllipse
 10
231.6096704397619
 20
87.39149121369803
 30
0.0
 11
-7.000000000000003
 21
-12.12435565298214
 31
0.0
210
0.0
220
0.0
230
1.0
 40
0.5773502691896257
 41
3.926990816987241
 42
6.283185307179586
  0
ELLIPSE
  5
A5
330
1F
100
AcDbEntity
  8
Geometries
  6
Continuous
370
    40
100
AcDbEllipse
 10
231.6096704397619
 20
87.39149121369803
 30
0.0
 11
5.25
 21
9.09326673973661
 31
0.0
210
0.0
220
0.0
230
1.0
 40
0.5773502691896256
 41
3.141592653589793
 42
6.286105067338293
  0
ELLIPSE
  5
A6
330
1F
100
AcDbEntity
  8
Geometries
  6
Continuous
370
    40
100
AcDbEllipse
 10
231.6096704397619
 20
87.39149121369803
 30
0.0
 11
5.25
 21
9.09326673973661
 31
0.0
210
0.0
220
0.0
230
1.0
 40
0.5773502691896256
 41
3.138635778534701
 42
3.141592653589793
  0
LWPOLYLINE
  5
A7
330
1F
100
AcDbEntity
  8
Geometries
  6
Continuous
370
    40
100
AcDbPolyline
 90
      330
 70
   128
 43
0.0
 10
224.6615652878274
 20
75.23759418881721
 10
224.6709937671451
 20
75.23231644470235
 10
224.7400099529675
 20
75.19450684225446
 10
224.8096441305039
 20
75.15779902739632
 10
224.8798908450613
 20
75.12219586126899
 10
224.9507446271182
 20
75.08770018599631
 10
225.0221999852575
 20
75.05431482722167
 10
225.0942513988477
 20
75.02204259590766
 10
225.1668933105441
 20
74.99088628938546
 10
225.2401201186811
 20
74.96084869164797
 10
225.3139261696333
 20
74.93193257288748
 10
225.3883057502167
 20
74.90414068828811
 10
225.4632530802074
 20
74.87747577608955
 10
225.538762305049
 20
74.85194055494621
 10
225.6148274888207
 20
74.82753772061425
 10
225.6914426075321
 20
74.804269942004
 10
225.7686015428113
 20
74.78213985664243
 10
225.8462980760446
 20
74.76115006559569
 10
225.9245258830209
 20
74.74130312790759
 10
226.0032785291343
 20
74.72260155461193
 10
226.0825494651799
 20
74.70504780238369
 10
226.1623320237858
 20
74.6886442668931
 10
226.2426194165043
 20
74.67339327593155
 10
226.323404731585
 20
74.6592970823773
 10
226.4046809324429
 20
74.64635785707065
 10
226.4864408568271
 20
74.63457768166624
 10
226.5686772166852
 20
74.62395854152976
 10
226.6513825987174
 20
74.61450231874312
 10
226.7345494655994
 20
74.60621078527991
 10
226.8181701578519
 20
74.59908559640837
 10
226.9022368963253
 20
74.5931282843751
 10
226.9867417852649
 20
74.58834025241777
 10
227.0716768159124
 20
74.58472276914972
 10
227.1570338706009
 20
74.58227696335332
 10
227.2428047272917
 20
74.58100381921305
 10
227.3289810645018
 20
74.58090417201342
 10
227.4155544665686
 20
74.58197870432033
 10
227.5025164291937
 20
74.5842279426582
 10
227.589858365213
 20
74.58765225468984
 10
227.6775716105368
 20
74.59225184689956
 10
227.7656474302042
 20
74.59802676277515
 10
227.8540770245014
 20
74.6049768814793
 10
227.9428515350923
 20
74.6131019169958
 10
228.0319620511158
 20
74.62240141773296
 10
228.1213996152034
 20
74.63287476656188
 10
228.2111552293788
 20
74.64452118126509
 10
228.3012198608037
 20
74.65733971536795
 10
228.3915844473339
 20
74.67132925932376
 10
228.4822399028638
 20
74.68648854202175
 10
228.5731771224295
 20
74.70281613258649
 10
228.6643869870539
 20
74.72031044243624
 10
228.7558603683194
 20
74.73896972756873
 10
228.8475881326536
 20
74.75879209104232
 10
228.9395611453234
 20
74.77977548562176
 10
229.0317702741303
 20
74.80191771655839
 10
229.1242063928086
 20
74.82521644447687
 10
229.2168603841266
 20
74.8496691883405
 10
229.3097231426968
 20
74.87527332847094
 10
229.4027855774994
 20
74.9020261095973
 10
229.4960386141311
 20
74.92992464391469
 10
229.5894731967889
 20
74.95896591413153
 10
229.6830802899987
 20
74.9891467764881
 10
229.7768508801055
 20
75.02046396373119
 10
229.8707759765361
 20
75.05291408803056
 10
229.9648466128517
 20
75.08649364382585
 10
230.059053847603
 20
75.12119901059353
 10
230.1533887650036
 20
75.15702645552548
 10
230.2478424754392
 20
75.19397213611316
 10
230.3424061158263
 20
75.2320321026318
 10
230.4370708498321
 20
75.27120230051993
 10
230.5318278679758
 20
75.31147857265289
 10
230.6266683876223
 20
75.35285666150887
 10
230.7215836528796
 20
75.39533221122552
 10
230.8165649344174
 20
75.43890076954995
 10
230.9116035292153
 20
75.48355778968129
 10
231.0066907602526
 20
75.5292986320095
 10
231.1018179761514
 20
75.57611856575166
 10
231.1969765507817
 20
75.62401277048968
 10
231.2921578828377
 20
75.67297633761287
 10
231.3873533953947
 20
75.72300427166908
 10
231.4825543911141
 20
75.77409141337222
 10
231.5777523122452
 20
75.8262325768852
 10
231.6729386634077
 20
75.87942251404573
 10
231.7681049714374
 20
75.93365589473
 10
231.8632427849337
 20
75.98892730778475
 10
231.958343673825
 20
76.04523126189628
 10
232.0533992289559
 20
76.10256218640049
 10
232.1484010616973
 20
76.16091443203742
 10
232.2433408035831
 20
76.22028227165535
 10
232.3382101059783
 20
76.28065990087029
 10
232.4330006397748
 20
76.34204143868146
 10
232.5277040951225
 20
76.4044209280506
 10
232.6223121811904
 20
76.4677923364448
 10
232.7168166259655
 20
76.53214955635106
 10
232.8112091760825
 20
76.59748640576102
 10
232.9054815966926
 20
76.66379662863395
 10
232.9996256713628
 20
76.73107389533637
 10
233.0936332020152
 20
76.79931180306662
 10
233.1874960088948
 20
76.86850387625995
 10
233.2812059305776
 20
76.93864356698495
 10
233.3747548240079
 20
77.00972425532618
 10
233.4681345645707
 20
77.08173924976083
 10
233.5613370461947
 20
77.1546817875271
 10
233.6543541814889
 20
77.22854503499066
 10
233.7471779019073
 20
77.30332208800625
 10
233.8398001579434
 20
77.37900597227946
 10
233.9322129193546
 20
77.45558964372908
 10
234.0244081754124
 20
77.53306598885122
 10
234.1163779351796
 20
77.61142782508645
 10
234.2081142278122
 20
77.69066790119102
 10
234.2996091028868
 20
77.77077889761455
 10
234.3908546307486
 20
77.85175342688201
 10
234.4818429028842
 20
77.9335840339848
 10
234.5725660323129
 20
78.0162631967781
 10
234.663016153999
 20
78.09978332638747
 10
234.7531854252834
 20
78.18413676762489
 10
234.843066026331
 20
78.26931579941338
 10
234.9326501605967
 20
78.35531263522208
 10
235.0219300553064
 20
78.44211942351276
 10
235.1108979619522
 20
78.52972824819514
 10
235.1995461568028
 20
78.61813112909556
 10
235.287866941425
 20
78.70732002243487
 10
235.3758526432186
 20
78.7972868213194
 10
235.463495615962
 20
78.88802335624261
 10
235.5507882403679
 20
78.97952139559912
 10
235.6377229246484
 20
79.07177264621014
 10
235.7242921050895
 20
79.16476875386083
 10
235.8104882466326
 20
79.25850130385027
 10
235.8963038434644
 20
79.35296182155247
 10
235.9817314196114
 20
79.44814177298909
 10
236.0667635295434
 20
79.54403256541605
 10
236.1513927587781
 20
79.64062554791823
 10
236.2356117244946
 20
79.73791201202002
 10
236.3194130761472
 20
79.83588319230365
 10
236.4027894960851
 20
79.93453026704204
 10
236.4857337001737
 20
80.03384435884058
 10
236.568238438419
 20
80.13381653529193
 10
236.6502964955932
 20
80.23443780964074
 10
236.7319006918617
 20
80.33569914145906
 10
236.813043883412
 20
80.43759143733365
 10
236.8937189630813
 20
80.54010555156253
 10
236.9739188609857
 20
80.64323228686236
 10
237.0536365451476
 20
80.74696239508556
 10
237.1328650221243
 20
80.85128657794895
 10
237.2115973376324
 20
80.95619548776892
 10
237.2898265771743
 20
81.06167972820977
 10
237.3675458666593
 20
81.16772985503852
 10
237.4447483730255
 20
81.274336376891
 10
237.521427304856
 20
81.38148975604355
 10
237.597575912996
 20
81.48918040919818
 10
237.6731874911634
 20
81.59739870827214
 10
237.7482553765575
 20
81.70613498119651
 10
237.8227729504642
 20
81.81537951272477
 10
237.8967336388563
 20
81.9251225452464
 10
237.9701309129907
 20
82.03535427961005
 10
238.0429582899998
 20
82.14606487595287
 10
238.1152093334792
 20
82.25724445453686
 10
238.186877654071
 20
82.36888309659427
 10
238.2579569100392
 20
82.48097084517508
 10
238.3284408078436
 20
82.59349770600546
 10
238.3983231027049
 20
82.70645364835015
 10
238.4675975991659
 20
82.81982860588013
 10
238.536258151646
 20
82.93361247754812
 10
238.6042986649899
 20
83.04779512846724
 10
238.6717130950091
 20
83.16236639079584
 10
238.7384954490182
 20
83.27731606462733
 10
238.8046397863644
 20
83.3926339188852
 10
238.8701402041141
 20
83.50830966585252
 10
238.9349908536184
 20
83.62433298924996
 10
238.9991859543127
 20
83.74069356946667
 10
239.0627197797279
 20
83.85738105937226
 10
239.1255866579839
 20
83.974385085231
 10
239.1877809722749
 20
84.09169524761904
 10
239.2492971613474
 20
84.20930112234399
 10
239.3101297199706
 20
84.32719226136896
 10
239.3702731993979
 20
84.44535819373671
 10
239.429722207822
 20
84.56378842649758
 10
239.4884714108202
 20
84.68247244563838
 10
239.5465155317923
 20
84.80139971701249
 10
239.6038493523903
 20
84.92055968727269
 10
239.6604677129388
 20
85.03994178480285
 10
239.7163655128477
 20
85.15953542065182
 10
239.7715377110157
 20
85.27932998946629
 10
239.8259793262247
 20
85.39931487042442
 10
239.879685437527
 20
85.51947942816992
 10
239.9326511846213
 20
85.63981301374321
 10
239.9848717682216
 20
85.76030496551357
 10
240.0363424504161
 20
85.88094461010833
 10
240.0870585550167
 20
86.00172126334084
 10
240.1370154679011
 20
86.12262423113823
 10
240.1862086373437
 20
86.24364281046294
 10
240.2346335743379
 20
86.36476629023323
 10
240.2822858529101
 20
86.48598395224197
 10
240.3291611104235
 20
86.60728507206849
 10
240.3752550478726
 20
86.72865891998825
 10
240.4205634301691
 20
86.85009476187807
 10
240.4650820864183
 20
86.97158186011502
 10
240.5088069101861
 20
87.09310947447054
 10
240.5517338597578
 20
87.21466686299931
 10
240.5938589583859
 20
87.3362432829193
 10
240.6351782945315
 20
87.45782799148773
 10
240.6756880220946
 20
87.57941024686723
 10
240.7153843606371
 20
87.70097930898497
 10
240.7542635955969
 20
87.82252444038394
 10
240.7923220784926
 20
87.94403490706321
 10
240.8295562271212
 20
88.06549997930907
 10
240.8659625257475
 20
88.18690893251757
 10
240.9015375252848
 20
88.30825104800401
 10
240.9362778434692
 20
88.42951561380148
 10
240.9701801650262
 20
88.55069192544772
 10
241.0032412418301
 20
88.67176928675919
 10
241.0354578930574
 20
88.79273701059071
 10
241.0668270053337
 20
88.91358441958154
 10
241.0973455328748
 20
89.03430084688716
 10
241.1270104976235
 20
89.15487563689453
 10
241.1558189893804
 20
89.27529814592206
 10
241.1837681659314
 20
89.39555774290163
 10
241.2108552531721
 20
89.51564381004356
 10
241.2370775452284
 20
89.63554574348379
 10
241.262432404576
 20
89.75525295391043
 10
241.2869172621584
 20
89.87475486717132
 10
241.3105296175046
 20
89.9940409248626
 10
241.3332670388467
 20
90.11310058489208
 10
241.3551271632411
 20
90.23192332202571
 10
241.3761076966896
 20
90.35049862840681
 10
241.3962064142671
 20
90.46881601405508
 10
241.4154211602524
 20
90.58686500734096
 10
241.4337498482668
 20
90.70463515543453
 10
241.4511904614194
 20
90.82211602473069
 10
241.4677410524629
 20
90.93929720124798
 10
241.4833997439599
 20
91.05616829100165
 10
241.4981647284613
 20
91.1727189203504
 10
241.5120342687003
 20
91.28893873631662
 10
241.5250066978022
 20
91.4048174068794
 10
241.5370804195122
 20
91.5203446212404
 10
241.5482539084445
 20
91.63551009006275
 10
241.5585257103538
 20
91.7503035456842
 10
241.5678944424313
 20
91.86471474230183
 10
241.5763587936289
 20
91.97873345613101
 10
241.583917525013
 20
92.09234948554008
 10
241.590569470151
 20
92.20555265115811
 10
241.5963135355325
 20
92.3183327959608
 10
241.6011487010291
 20
92.43067978533139
 10
241.6050740203951
 20
92.5425835071028
 10
241.6080886218114
 20
92.65403387157883
 10
241.6101917084765
 20
92.7650208115392
 10
241.6113825592475
 20
92.87553428222766
 10
241.6116605293329
 20
92.98556426132932
 10
241.611025051042
 20
93.09510074894047
 10
241.6094756345927
 20
93.20413376752843
 10
241.6070118689804
 20
93.31265336189306
 10
241.6036334229119
 20
93.42064959913154
 10
241.5993400458061
 20
93.52811256860704
 10
241.5941315688641
 20
93.63503238193306
 10
241.588007909251
 20
93.74139912398105
 10
241.5809690784934
 20
93.84720278287983
 10
241.5730151670351
 20
93.95243352714776
 10
241.5641463526288
 20
94.05708154773899
 10
241.5543629017994
 20
94.1611370582158
 10
241.5436651713833
 20
94.26459029499172
 10
241.5320536101451
 20
94.36743151764182
 10
241.5195287604691
 20
94.46965100929351
 10
241.5060912601257
 20
94.57123907710562
 10
241.4917418441081
 20
94.67218605284694
 10
241.4764813465367
 20
94.7724822935892
 10
241.4603107026273
 20
94.87211818251862
 10
241.4432309507157
 20
94.97108412988561
 10
241.4252432343334
 20
95.06937057409951
 10
241.406348804326
 20
95.1669679829819
 10
241.3865490210048
 20
95.26386685519218
 10
241.3658453563204
 20
95.36005772183502
 10
241.3442393960476
 20
95.45553114826112
 10
241.3217328419663
 20
95.55027773607469
 10
241.2983275140244
 20
95.64428812535553
 10
241.2740253524657
 20
95.73755299710541
 10
241.2488284199047
 20
95.83006307592862
 10
241.2227389033289
 20
95.92180913295033
 10
241.1957591160069
 20
96.01278198898191
 10
241.1678914992812
 20
96.10297251793244
 10
241.1391386242209
 20
96.19237165047058
 10
241.1095031931113
 20
96.28097037793304
 10
241.0789880407529
 20
96.3687597564781
 10
241.0475961355456
 20
96.45573091147564
 10
241.0153305803317
 20
96.5418750421226
 10
240.9821946129692
 20
96.62718342627389
 10
240.9481916066122
 20
96.7116474254681
 10
240.9133250696705
 20
96.79525849012951
 10
240.8775986454255
 20
96.87800816492157
 10
240.8410161112782
 20
96.95988809422369
 10
240.8035813776093
 20
97.0408900276999
 10
240.7652984862323
 20
97.1210058259222
 10
240.7261716084235
 20
97.20022746601308
 10
240.6862050425171
 20
97.2785470472607
 10
240.6454032110558
 20
97.35595679666584
 10
240.6037706574926
 20
97.43244907436967
 10
240.5613120424445
 20
97.50801637891449
 10
240.5180321395017
 20
97.5826513522864
 10
240.4739358306029
 20
97.65634678468703
 10
240.4290281009926
 20
97.7290956189827
 10
240.38331403378
 20
97.80089095478048
 10
240.3367988041277
 20
97.87172605207911
 10
240.2894876731013
 20
97.94159433444776
 10
240.2413859812162
 20
98.01048939168855
 10
240.1924991417268
 20
98.07840498193998
 10
240.1428326337041
 20
98.1453350331846
 10
240.092391994952
 20
98.21127364413164
 10
240.0411828148225
 20
98.27621508444544
 10
239.9892107269827
 20
98.340153794305
 10
239.9364814022021
 20
98.40308438327816
 10
239.8830005412177
 20
98.46500162851046
 10
239.828773867746
 20
98.52590047222823
 10
239.7738071217043
 20
98.58577601856983
 10
239.7181060527077
 20
98.64462352976258
 10
239.661676413903
 20
98.70243842167312
 10
239.6045239562022
 20
98.75921625876639
 10
239.5466544229729
 20
98.8149527485136
 10
239.4880735452386
 20
98.86964373530121
 10
239.4287870374412
 20
98.92328519389235
 10
239.368800593807
 20
98.97587322250513
 10
239.3081198853579
 20
99.02740403557162
 10
239.2467505575983
 20
99.07787395624838
 10
239.1846982289056
 20
99.12727940875148
 10
239.1219684896407
 20
99.17561691059197
 10
239.0585669019927
 20
99.22288306478912
 10
238.9944990005612
 20
99.26907455213865
 10
238.9297702936728
 20
99.31418812361312
 10
238.8643862654218
 20
99.3582205929718
 10
238.798352378417
 20
99.40116882965215
 10
238.7316740772096
 20
99.44302975201518
 10
238.713673265472
 20
99.45407691776231
  0
LWPOLYLINE
  5
A8
330
1F
100
AcDbEntity
  8
Geometries
  6
Continuous
370
    40
100
AcDbPolyline
 90
        3
 70
   128
 43
0.0
 10
238.7070558220047
 20
99.45811129503318
 10
238.664356792371
 20
99.48380032101092
 10
238.6300827015801
 20
99.50399620102165
  0
LWPOLYLINE
  5
A9
330
1F
100
AcDbEntity
  8
Geometries
  6
Continuous
370
    40
100
AcDbPolyline
 90
        4
 70
   128
 43
0.0
 10
226.3452034343586
 20
78.30662647052021
 10
226.3306840542662
 20
78.31515895110465
 10
226.2756936336898
 20
78.34839956341467
 10
226.2522217827182
 20
78.36304227296156
  0
LWPOLYLINE
  5
AA
330
1F
100
AcDbEntity
  8
Geometries
  6
Continuous
370
    40
100
AcDbPolyline
 90
        4
 70
   128
 43
0.0
 10
226.2522217827182
 20
78.36304227296156
 10
226.2213431877367
 20
78.38272957823568
 10
226.1676414259046
 20
78.41814338742799
 10
226.1605282003975
 20
78.42294846563871
  0
LWPOLYLINE
  5
AB
330
1F
100
AcDbEntity
  8
Geometries
  6
Continuous
370
    40
100
AcDbPolyline
 90
      214
 70
   128
 43
0.0
 10
226.1605282003975
 20
78.42294846563871
 10
226.1145967955464
 20
78.45463504465215
 10
226.0622174475866
 20
78.49219829813512
 10
226.010511207265
 20
78.53082662653073
 10
225.9594855505383
 20
78.57051327688835
 10
225.9091475865415
 20
78.61125130372199
 10
225.8595040462999
 20
78.65303360818051
 10
225.8105612776704
 20
78.69585297637063
 10
225.7623252462991
 20
78.73970211596696
 10
225.7148015422032
 20
78.78457369035831
 10
225.6679953914483
 20
78.83046034970911
 10
225.6219116722792
 20
78.87735475845867
 10
225.5765549349902
 20
78.92524961892829
 10
225.5319294247789
 20
78.97413769084822
 10
225.488039106822
 20
79.02401180674744
 10
225.4448876928309
 20
79.07486488327066
 10
225.4024786683885
 20
79.12668992858306
 10
225.3608153204277
 20
79.17948004611075
 10
225.3199007642901
 20
79.23322843491933
 10
225.2797379698789
 20
79.28792838708483
 10
225.2403297865081
 20
79.34357328243122
 10
225.2016789661314
 20
79.40015658102266
 10
225.1637881847143
 20
79.45767181379642
 10
225.1266600615862
 20
79.51611257170943
 10
225.0902971766747
 20
79.57547249375297
 10
225.0547020855862
 20
79.63574525415937
 10
225.0198773325385
 20
79.69692454910098
 10
224.9858254612002
 20
79.75900408314233
 10
224.9525490235191
 20
79.82197755567773
 10
224.9200505866473
 20
79.88583864755313
 10
224.8883327380914
 20
79.9505810080367
 10
224.8573980892252
 20
80.0161982422768
 10
224.8272492773126
 20
80.0826838993544
 10
224.7978889661885
 20
80.15003146101662
 10
224.7693198457461
 20
80.21823433115081
 10
224.7415446303762
 20
80.28728582604347
 10
224.7145660564971
 20
80.35717916544723
 10
224.688386879308
 20
80.42790746446889
 10
224.6630098688882
 20
80.49946372627409
 10
224.6384378057579
 20
80.57184083560054
 10
224.6146734760065
 20
80.64503155305549
 10
224.5917196660821
 20
80.71902851017484
 10
224.5695791573307
 20
80.79382420520903
 10
224.5482547203613
 20
80.86941099960329
 10
224.5277491093054
 20
80.94578111513124
 10
224.5080650560309
 20
81.0229266316443
 10
224.4892052643631
 20
81.10083948539531
 10
224.4711724043575
 20
81.17951146789602
 10
224.4539691066634
 20
81.25893422526651
 10
224.4375979570097
 20
81.33909925803935
 10
224.4220614908412
 20
81.41999792137678
 10
224.4073621881254
 20
81.50162142566663
 10
224.3935024683493
 20
81.58396083745849
 10
224.3804846857184
 20
81.66700708070908
 10
224.3683111245678
 20
81.7507509383012
 10
224.356983994994
 20
81.8351830538102
 10
224.346505428709
 20
81.92029393348642
 10
224.3368774751216
 20
82.00607394842851
 10
224.3281020976435
 20
82.09251333692292
 10
224.3201811702198
 20
82.17960220692828
 10
224.3131164740808
 20
82.2673305386801
 10
224.3069096947097
 20
82.35568818740174
 10
224.3015624190225
 20
82.44466488610004
 10
224.2970761440444
 20
82.53424999814936
 10
224.2934522459018
 20
82.62443298177313
 10
224.2906919921519
 20
82.71520323671552
 10
224.2887965432966
 20
82.80655005196881
 10
224.2877669508748
 20
82.89846260875757
 10
224.2876041557236
 20
82.99092998354422
 10
224.288308986401
 20
83.08394115103911
 10
224.2898821577622
 20
83.17748498721201
 10
224.2923242696819
 20
83.27155027229325
 10
224.2956358059153
 20
83.36612569376368
 10
224.2998171330893
 20
83.46119984932389
 10
224.304868499818
 20
83.55676124984137
 10
224.310790035934
 20
83.65279832227014
 10
224.31758175183
 20
83.74929941253967
 10
224.3252435379024
 20
83.84625278841128
 10
224.3337751640926
 20
83.94364664229965
 10
224.3431762795178
 20
84.04146909405686
 10
224.3534464121874
 20
84.13970819371801
 10
224.3645849687977
 20
84.23835192420823
 10
224.3765912346015
 20
84.33738820400924
 10
224.3894643733452
 20
84.4368048897856
 10
224.4032034272716
 20
84.53658977897024
 10
224.4178073171813
 20
84.63673061230928
 10
224.4332748425502
 20
84.73721507636748
 10
224.4496046816984
 20
84.83803080599189
 10
224.4667953920065
 20
84.93916538673821
 10
224.4848454101775
 20
85.04060635725632
 10
224.5037530525384
 20
85.14234121163959
 10
224.523516515381
 20
85.24435740173544
 10
224.5441338753372
 20
85.34664233942081
 10
224.5656030897874
 20
85.44918339884106
 10
224.587921997299
 20
85.55196791861577
 10
224.6110883180922
 20
85.65498320401035
 10
224.6350996545329
 20
85.75821652907567
 10
224.6599534916477
 20
85.8616551387565
 10
224.6856471976622
 20
85.96528625096975
 10
224.7121780245591
 20
86.0690970586538
 10
224.7395431086551
 20
86.1730747317899
 10
224.7677394711953
 20
86.27720641939648
 10
224.7967640189633
 20
86.38147925149791
 10
224.8266135449067
 20
86.48588034106858
 10
224.8572847287758
 20
86.59039678595248
 10
224.8887741377752
 20
86.69501567076068
 10
224.9210782272276
 20
86.79972406874752
 10
224.9541933412478
 20
86.90450904366442
 10
224.9881157134276
 20
87.00935765159502
 10
225.0228414675297
 20
87.11425694277128
 10
225.0583666181911
 20
87.2191939633705
 10
225.0946870716338
 20
87.3241557572958
 10
225.1317986263846
 20
87.42912936794036
 10
225.1696969740004
 20
87.5341018399338
 10
225.2083776998028
 20
87.63906022087697
 10
225.2478362836167
 20
87.74399156305913
 10
225.2880681005168
 20
87.84888292516357
 10
225.3290684215791
 20
87.95372137395927
 10
225.3708324146386
 20
88.0584939859805
 10
225.4133551450519
 20
88.163187849195
 10
225.456631576465
 20
88.26779006466025
 10
225.5006565715865
 20
88.37228774816964
 10
225.5454248929647
 20
88.47666803188812
 10
225.5909312037708
 20
88.58091806597876
 10
225.637170068585
 20
88.68502502021965
 10
225.6841359541886
 20
88.78897608561257
 10
225.7318232303595
 20
88.89275847598265
 10
225.7802261706721
 20
88.99635942957106
 10
225.8293389533023
 20
89.09976621061983
 10
225.8791556618354
 20
89.20296611094913
 10
225.9296702860796
 20
89.3059464515288
 10
225.9808767228826
 20
89.40869458404246
 10
226.032768776953
 20
89.51119789244629
 10
226.085340161686
 20
89.61344379452206
 10
226.1385844999926
 20
89.7154197434233
 10
226.192495325134
 20
89.81711322921917
 10
226.2470660815595
 20
89.91851178042998
 10
226.3022901257494
 20
90.01960296556092
 10
226.3581607270617
 20
90.12037439463005
 10
226.4146710685835
 20
90.22081372069135
 10
226.4718142479872
 20
90.32090864135674
 10
226.5295832783906
 20
90.42064690031032
 10
226.5879710794824
 20
90.52001627236478
 10
226.6469704631933
 20
90.61900454081206
 10
226.7065741928507
 20
90.71759959752502
 10
226.7667749507539
 20
90.8157893865424
 10
226.827565339059
 20
90.91356190556832
 10
226.8889378806698
 20
91.01090520747125
 10
226.9508850201354
 20
91.10780740178116
 10
227.0133991245512
 20
91.20425665618336
 10
227.0764724844677
 20
91.30024119801189
 10
227.1400973148039
 20
91.39574931574091
 10
227.2042657557674
 20
91.49076936047372
 10
227.2689698737813
 20
91.58528974743277
 10
227.3342016624161
 20
91.67929895744581
 10
227.3999530433307
 20
91.77278553843384
 10
227.4662158672182
 20
91.8657381068966
 10
227.5329819147603
 20
91.95814534939797
 10
227.6002428975894
 20
92.04999602405198
 10
227.6679904592581
 20
92.14127896200728
 10
227.7362161762169
 20
92.23198306893237
 10
227.8049115588007
 20
92.32209732650128
 10
227.8740680522247
 20
92.41161079387852
 10
227.9436770375888
 20
92.50051260920597
 10
228.0137298328927
 20
92.58879199108975
 10
228.0842176940609
 20
92.67643824008768
 10
228.1551318159779
 20
92.76344074019819
 10
228.2264633335357
 20
92.84978896035035
 10
228.298203322693
 20
92.9354724558953
 10
228.3703428015456
 20
93.02048087009855
 10
228.442872731412
 20
93.10480393563475
 10
228.5157840179304
 20
93.18843147608322
 10
228.589067512172
 20
93.27135340742589
 10
228.6627140117688
 20
93.35355973954687
 10
228.7367142620574
 20
93.43504057773414
 10
228.8110589572399
 20
93.51578612418272
 10
228.8857387415622
 20
93.5957866795005
 10
228.960744210512
 20
93.67503264421549
 10
229.0360659120353
 20
93.75351452028522
 10
229.1116943477746
 20
93.83122291260804
 10
229.1876199743293
 20
93.90814853053631
 10
229.2638332045387
 20
93.98428218939084
 10
229.3403244087901
 20
94.05961481197716
 10
229.4170839163522
 20
94.1341374301026
 10
229.4941020167352
 20
94.20784118609379
 10
229.5713689610825
 20
94.28071733431639
 10
229.648874963588
 20
94.35275724269167
 10
229.7266102029496
 20
94.42395239421587
 10
229.8045648238545
 20
94.49429438847616
 10
229.8827289384992
 20
94.56377494316517
 10
229.9610926281485
 20
94.63238589559339
 10
230.0396459447321
 20
94.70011920419664
 10
230.1183789124837
 20
94.76696695003973
 10
230.1972815296226
 20
94.83292133831358
 10
230.2763437700813
 20
94.8979746998252
 10
230.3555555852806
 20
94.96211949247787
 10
230.4349069059548
 20
95.02534830274155
 10
230.5143876440296
 20
95.08765384711
 10
230.5939876945544
 20
95.14902897354287
 10
230.6736969376924
 20
95.20946666289117
 10
230.7535052407708
 20
95.26896003030251
 10
230.833402460393
 20
95.3275023266035
 10
230.9133784446162
 20
95.38508693965635
 10
230.9934230351965
 20
95.441707395686
 10
231.0735260699051
 20
95.4973573605741
 10
231.1536773849158
 20
95.55203064111515
 10
231.2338668172702
 20
95.60572118623166
 10
231.3140842074184
 20
95.65842308814138
 10
231.3943194018423
 20
95.71013058347322
 10
231.4745622557592
 20
95.76083805432445
 10
231.5548026359118
 20
95.8105400292546
 10
231.6350304234444
 20
95.85923118420823
 10
231.7152355168662
 20
95.90690634335913
 10
231.7846704397619
 20
95.9473702254393
  0
LWPOLYLINE
  5
AC
330
1F
100
AcDbEntity
  8
Geometries
  6
Continuous
370
    40
100
AcDbPolyline
 90
       70
 70
   128
 43
0.0
 10
231.7846704397619
 20
95.9473702254393
 10
231.8267469028308
 20
95.97152511740623
 10
231.9068582003489
 20
96.0167516182921
 10
231.9869114283747
 20
96.06094494763633
 10
232.0668978906471
 20
96.10410132539548
 10
232.1468076341418
 20
96.14621638534292
 10
232.2266307443232
 20
96.18728591250485
 10
232.3063573487285
 20
96.22730584312816
 10
232.3859776206805
 20
96.26627226451403
 10
232.4654817794081
 20
96.30418141295085
 10
232.544859817858
 20
96.3410295470173
 10
232.624102050125
 20
96.37681320654457
 10
232.7031988511019
 20
96.41152908070059
 10
232.7821406605749
 20
96.44517400690249
 10
232.8609179873501
 20
96.47774496948301
 10
232.9395214134196
 20
96.50923909810574
 10
233.0179415981485
 20
96.53965366591223
 10
233.0961692824703
 20
96.56898608738791
 10
233.1741952930714
 20
96.59723391593165
 10
233.2520105465434
 20
96.62439484111495
 10
233.3296060534812
 20
96.65046668561816
 10
233.4069729225004
 20
96.67544740183065
 10
233.4841023641427
 20
96.6993350681041
 10
233.5609856946404
 20
96.72212788464985
 10
233.6376143395002
 20
96.74382416907214
 10
233.7139798368688
 20
96.76442235153321
 10
233.790073840636
 20
96.78392096954734
 10
233.8658881232268
 20
96.80231866240611
 10
233.9414145780332
 20
96.81961416524035
 10
234.0166452214286
 20
96.83580630272972
 10
234.0915721943047
 20
96.8508939824757
 10
234.1661877630699
 20
96.86487618806105
 10
234.2404843200389
 20
96.87775197182548
 10
234.3144543831471
 20
96.88952044739585
 10
234.3880905949141
 20
96.90018078201793
 10
234.4613857205816
 20
96.90973218874674
 10
234.5343326453514
 20
96.91817391856442
 10
234.6069243706452
 20
96.92550525250496
 10
234.6791540093126
 20
96.93172549387923
 10
234.7510147797164
 20
96.93683396070637
 10
234.8224999986253
 20
96.94082997847204
 10
234.89360307286
 20
96.94371287334837
 10
234.9643174896399
 20
96.94548196602453
 10
235.0346368055953
 20
96.94613656631122
 10
235.1045546344294
 20
96.94567596869555
 10
235.1740646332303
 20
96.94409944903417
 10
235.2431604874606
 20
96.94140626258232
 10
235.3118358946824
 20
96.93759564356324
 10
235.3800845471097
 20
96.9326668064847
 10
235.4479001131177
 20
96.92661894940734
 10
235.5152762178822
 20
96.91945125936147
 10
235.5822064233706
 20
96.91116292009336
 10
235.6486842079555
 20
96.90175312229849
 10
235.7147029459732
 20
96.8912210764661
 10
235.7802558876019
 20
96.87956602841709
 10
235.8453361394875
 20
96.86678727756255
 10
235.9099366465891
 20
96.85288419784634
 10
235.9740501757553
 20
96.83785626125999
 10
236.0376693015738
 20
96.82170306373357
 10
236.1007863950507
 20
96.80442435311414
 10
236.1633936156736
 20
96.78602005884618
 10
236.2254829073914
 20
96.7664903228698
 10
236.2870459989939
 20
96.74583553115737
 10
236.3480744093081
 20
96.72405634522073
 10
236.4085594575238
 20
96.70115373284834
 10
236.4684922788389
 20
96.67712899727779
 10
236.527863845473
 20
96.65198380397861
 10
236.5866649929187
 20
96.62572020422533
 10
236.6448864511328
 20
96.59834065467334
 10
236.6636835183566
 20
96.58920177314891
  0
LWPOLYLINE
  5
AD
330
1F
100
AcDbEntity
  8
Geometries
  6
Continuous
370
    40
100
AcDbPolyline
 90
        3
 70
   128
 43
0.0
 10
236.6636835183566
 20
96.58920177314891
 10
236.7025188801806
 20
96.56984803222382
 10
236.7541185006344
 20
96.54312778462322
  0
LWPOLYLINE
  5
AE
330
1F
100
AcDbEntity
  8
Geometries
  6
Continuous
370
    40
100
AcDbPolyline
 90
        4
 70
   128
 43
0.0
 10
236.7541185006344
 20
96.54312778462322
 10
236.7595529096619
 20
96.54024564357319
 10
236.815979181093
 20
96.50953722898188
 10
236.8453427991864
 20
96.49298178624609
  0
LWPOLYLINE
  5
AF
330
1F
100
AcDbEntity
  8
Geometries
  6
Continuous
370
    40
100
AcDbPolyline
 90
       84
 70
   128
 43
0.0
 10
215.8684708214259
 20
112.6454097461548
 10
215.8084860733584
 20
112.6790759936821
 10
215.7392849916039
 20
112.7165572714271
 10
215.6694675439407
 20
112.7529359060313
 10
215.5990391887605
 20
112.7882090423355
 10
215.5280054013632
 20
112.8223738433639
 10
215.4563716811041
 20
112.8554274880063
 10
215.384143558774
 20
112.8873671694417
 10
215.3113266041376
 20
112.9181900943136
 10
215.2379264335595
 20
112.9478934826629
 10
215.1639487176381
 20
112.9764745686139
 10
215.0893991887773
 20
113.0039306018014
 10
215.0142836486191
 20
113.03025884952
 10
214.9386079752656
 20
113.0554565995687
 10
214.862378130221
 20
113.0795211637576
 10
214.7856001649849
 20
113.1024498820369
 10
214.7082802272365
 20
113.1242401272001
 10
214.6304245665498
 20
113.1448893101124
 10
214.5520395395863
 20
113.1643948854055
 10
214.4731316147218
 20
113.1827543575798
 10
214.3937073760618
 20
113.1999652874488
 10
214.3137735268172
 20
113.2160252988603
 10
214.2333368920113
 20
113.2309320856253
 10
214.1524044204992
 20
113.2446834185866
 10
214.0709831862927
 20
113.2572771527576
 10
213.9890803891822
 20
113.2687112344638
 10
213.9067033546656
 20
113.2789837084201
 10
213.8238595331928
 20
113.288092724681
 10
213.7405564987471
 20
113.2960365454036
 10
213.6568019467881
 20
113.3028135513656
 10
213.5726036915907
 20
113.308422248189
 10
213.487969663015
 20
113.31286127222
 10
213.4029079027524
 20
113.3161293960266
 10
213.3174265600938
 20
113.3182255334768
 10
213.2315338872708
 20
113.3191487443692
 10
213.1452382344214
 20
113.3188982385926
 10
213.0585480442372
 20
113.3174733797979
 10
212.9714718463448
 20
113.3148736885713
 10
212.8840182514804
 20
113.3110988451043
 10
212.7961959455099
 20
113.3061486913609
 10
212.7080136833493
 20
113.3000232327488
 10
212.6194802828385
 20
113.292722639304
 10
212.5306046186152
 20
113.2842472464071
 10
212.4413956160373
 20
113.2745975550467
 10
212.3518622451963
 20
113.2637742316569
 10
212.2620135150598
 20
113.251778107551
 10
212.1718584677799
 20
113.2386101779817
 10
212.0814061731958
 20
113.2242716008564
 10
211.9906657235607
 20
113.2087636951387
 10
211.8996462285136
 20
113.1920879389688
 10
211.8083568103126
 20
113.1742459675337
 10
211.7168065993486
 20
113.15523957072
 10
211.6250047299444
 20
113.1350706905801
 10
211.5329603364507
 20
113.1137414186441
 10
211.4406825496384
 20
113.0912539931036
 10
211.3481804933899
 20
113.0676107959002
 10
211.2554632816849
 20
113.0428143497402
 10
211.1625400158774
 20
113.0168673150647
 10
211.0694197822539
 20
112.9897724869947
 10
210.9761116498656
 20
112.9615327922744
 10
210.8826246686224
 20
112.9321512862308
 10
210.7889678676356
 20
112.9016311497664
 10
210.6951502537978
 20
112.8699756864006
 10
210.6011808105849
 20
112.837188319373
 10
210.5070684970631
 20
112.8032725888191
 10
210.4128222470906
 20
112.7682321490296
 10
210.3184509686928
 20
112.7320707657981
 10
210.2239635436022
 20
112.6947923138675
 10
210.1293688269407
 20
112.6564007744759
 10
210.0346756470379
 20
112.6169002330092
 10
209.9398928053623
 20
112.5762948767587
 10
209.8450290765575
 20
112.5345889927881
 10
209.7500932085704
 20
112.4917869659088
 10
209.6550939228551
 20
112.4478932767624
 10
209.5600399146425
 20
112.4029125000087
 10
209.4649398532653
 20
112.3568493026182
 10
209.3698023825284
 20
112.3097084422656
 10
209.2746361211122
 20
112.2614947658204
 10
209.1794496630032
 20
112.2122132079325
 10
209.0842515943571
 20
112.1618687984794
 10
208.9890506252899
 20
112.1104667338768
 10
208.8938552670435
 20
112.0580122041756
 10
208.798674008324
 20
112.0045104820859
 10
208.7153295602381
 20
111.95679600729
  0
LWPOLYLINE
  5
B0
330
1F
100
AcDbEntity
  8
Geometries
  6
Continuous
370
    40
100
AcDbPolyline
 90
      247
 70
   128
 43
0.0
 10
208.7153295602381
 20
111.95679600729
 10
208.665131384516
 20
111.9276673277715
 10
208.570017285328
 20
111.8716699982499
 10
208.4749473299241
 20
111.81464479604
 10
208.3799285969625
 20
111.756596579515
 10
208.2849694609206
 20
111.6975310526852
 10
208.1900782763156
 20
111.6374539969652
 10
208.0952633780497
 20
111.5763712705657
 10
208.0005330816912
 20
111.5142888079044
 10
207.9058956837201
 20
111.4512126190511
 10
207.8113594617438
 20
111.3871487892074
 10
207.7169326746737
 20
111.3221034782115
 10
207.6226235628695
 20
111.2560829200697
 10
207.5284403482488
 20
111.1890934225104
 10
207.4343912343599
 20
111.1211413665551
 10
207.3404844064216
 20
111.0522332061075
 10
207.2467280313278
 20
110.9823754675551
 10
207.1531302576194
 20
110.9115747493829
 10
207.0596992154209
 20
110.8398377217945
 10
206.9664430163467
 20
110.7671711263415
 10
206.8733697533762
 20
110.6935817755579
 10
206.7804875006951
 20
110.6190765525958
 10
206.6878043135107
 20
110.5436624108642
 10
206.5953282278365
 20
110.4673463736675
 10
206.5030672602493
 20
110.3901355338415
 10
206.4110294076195
 20
110.312037053387
 10
206.3192226468175
 20
110.233058163101
 10
206.2276549343931
 20
110.1532061622002
 10
206.1363342062336
 20
110.0724884179405
 10
206.0452683771981
 20
109.990912365229
 10
205.9544653407321
 20
109.9084855062279
 10
205.8639329684609
 20
109.8252154099517
 10
205.7736791097641
 20
109.7411097118535
 10
205.6837115913324
 20
109.6561761134031
 10
205.5940382167068
 20
109.5704223816543
 10
205.5046667658031
 20
109.4838563488038
 10
205.4156049944194
 20
109.3964859117362
 10
205.3268606337314
 20
109.3083190315612
 10
205.2384413897731
 20
109.2193637331373
 10
205.1503549429062
 20
109.129628104585
 10
205.0626089472781
 20
109.0391202967892
 10
204.9752110302684
 20
108.9478485228876
 10
204.8881687919269
 20
108.8558210577498
 10
204.8014898044014
 20
108.7630462374421
 10
204.7151816113587
 20
108.669532458683
 10
204.6292517273975
 20
108.5752881782844
 10
204.5437076374537
 20
108.4803219125825
 10
204.4585567962013
 20
108.3846422368555
 10
204.3738066274466
 20
108.2882577847311
 10
204.2894645235187
 20
108.1911772475815
 10
204.205537844654
 20
108.0934093739055
 10
204.1220339183801
 20
107.9949629687024
 10
204.0389600388932
 20
107.8958468928306
 10
203.9563234664359
 20
107.7960700623583
 10
203.8741314266709
 20
107.6956414479008
 10
203.7923911100554
 20
107.5945700739491
 10
203.7111096712114
 20
107.4928650181846
 10
203.6302942282992
 20
107.3905354107875
 10
203.5499518623874
 20
107.2875904337307
 10
203.4700896168253
 20
107.1840393200659
 10
203.3907144966151
 20
107.0798913532002
 10
203.3118334677853
 20
106.9751558661598
 10
203.2334534567655
 20
106.869842240848
 10
203.1555813497635
 20
106.7639599072912
 10
203.0782239921435
 20
106.6575183428768
 10
203.0013881878079
 20
106.5505270715823
 10
202.9250806985814
 20
106.4429956631948
 10
202.8493082435971
 20
106.3349337325228
 10
202.7740774986884
 20
106.2263509385996
 10
202.6993950957818
 20
106.1172569838782
 10
202.6252676222958
 20
106.0076616134192
 10
202.5517016205422
 20
105.8975746140702
 10
202.4787035871336
 20
105.7870058136387
 10
202.4062799723938
 20
105.6759650800571
 10
202.3344371797739
 20
105.5644623205406
 10
202.2631815652738
 20
105.4525074807402
 10
202.1925194368683
 20
105.340110543887
 10
202.1224570539395
 20
105.2272815299323
 10
202.053000626714
 20
105.1140304946794
 10
201.9841563157063
 20
105.0003675289123
 10
201.9159302311694
 20
104.8863027575174
 10
201.8483284325492
 20
104.7718463385994
 10
201.7813569279487
 20
104.6570084625948
 10
201.7150216735952
 20
104.5417993513769
 10
201.6493285795073
 20
104.4262292683204
 10
201.5842835191216
 20
104.3103085363126
 10
201.5198922890413
 20
104.1940474665799
 10
201.4561606319221
 20
104.0774563981396
 10
201.3930942359773
 20
103.9605456968879
 10
201.3306987344899
 20
103.8433257546832
 10
201.2689797053321
 20
103.7258069884265
 10
201.2079426704933
 20
103.6079998391395
 10
201.1475930956151
 20
103.4899147710398
 10
201.0879363895351
 20
103.3715622706153
 10
201.0289779038379
 20
103.2529528456934
 10
200.9707229324154
 20
103.1340970245131
 10
200.9131767110347
 20
103.0150053547924
 10
200.8563444169149
 20
102.8956884027963
 10
200.8002311683117
 20
102.776156752403
 10
200.7448420241117
 20
102.6564210041715
 10
200.6901819834348
 20
102.5364917744074
 10
200.6362559852452
 20
102.4163796942294
 10
200.5830689079719
 20
102.2960954086373
 10
200.5306255691375
 20
102.1756495755799
 10
200.478930724997
 20
102.0550528650252
 10
200.4279890701842
 20
101.9343159580304
 10
200.3778052373688
 20
101.8134495458171
 10
200.3283837969216
 20
101.6924643288459
 10
200.279729256589
 20
101.5713710158946
 10
200.2318460611776
 20
101.4501803231413
 10
200.1847385922466
 20
101.3289029732487
 10
200.1384111678108
 20
101.207549694454
 10
200.0928680420523
 20
101.0861312196629
 10
200.0481134050407
 20
100.9646582855485
 10
200.0041513824638
 20
100.8431416316549
 10
199.9609860353667
 20
100.7215919995087
 10
199.9186213598998
 20
100.6000201317336
 10
199.877061287076
 20
100.4784367711755
 10
199.8363096825373
 20
100.3568526600321
 10
199.7963703463289
 20
100.2352785389915
 10
199.7572470126836
 20
100.1137251463798
 10
199.7189433498134
 20
99.99220321731605
 10
199.68146295971
 20
99.87072348287926
 10
199.644809377953
 20
99.74929666928276
 10
199.6089860735265
 20
99.62793349706074
 10
199.5739964486432
 20
99.5066446802667
 10
199.539843838575
 20
99.38544092568257
 10
199.5065315114924
 20
99.26433293204161
 10
199.4740626683084
 20
99.14333138926402
 10
199.4424404425302
 20
99.02244697770557
 10
199.4116679001161
 20
98.90169036742304
 10
199.3817480393381
 20
98.78107221745351
 10
199.3526837906487
 20
98.66060317510939
 10
199.3244780165529
 20
98.54029387529158
 10
199.2971335114824
 20
98.42015493981853
 10
199.2706530016748
 20
98.30019697677437
 10
199.2450391450531
 20
98.18043057987639
 10
199.2202945311077
 20
98.06086632785991
 10
199.1964216807788
 20
97.94151478388692
 10
199.1734230463382
 20
97.82238649497232
 10
199.1513010112704
 20
97.70349199143425
 10
199.1300578901505
 20
97.58484178636542
 10
199.1096959285193
 20
97.46644637512881
 10
199.0902173027532
 20
97.34831623487537
 10
199.0716241199284
 20
97.23046182408821
 10
199.0539184176774
 20
97.11289358214918
 10
199.0371021640365
 20
96.9956219289335
 10
199.0211772572833
 20
96.87865726442725
 10
199.0061455257614
 20
96.76200996837423
 10
198.9920087276918
 20
96.64569039994728
 10
198.9787685509678
 20
96.52970889744722
 10
198.9664266129327
 20
96.41407577802836
 10
198.9549844601374
 20
96.29880133745222
 10
198.9444435680759
 20
96.18389584986673
 10
198.9348053408965
 20
96.06936956761216
 10
198.9260711110868
 20
95.95523272105585
 10
198.9182421391285
 20
95.84149551844921
 10
198.9113196131212
 20
95.72816814581284
 10
198.905304648372
 20
95.61526076684392
 10
198.9001982869469
 20
95.50278352284782
 10
198.8960014971833
 20
95.3907465326906
 10
198.8927151731588
 20
95.2791598927716
 10
198.8903401341147
 20
95.168033677015
 10
198.8888771238305
 20
95.05737793687538
 10
198.8883268099466
 20
94.94720270135757
 10
198.8886897832318
 20
94.83751797704616
 10
198.8899665567939
 20
94.72833374814266
 10
198.8921575652289
 20
94.6196599765037
 10
198.8952631637067
 20
94.51150660167909
 10
198.8992836269909
 20
94.4038835409449
 10
198.9042191483894
 20
94.29680068932302
 10
198.9100698386341
 20
94.19026791958568
 10
198.9168357109967
 20
94.0842952825394
 10
198.9245167001092
 20
93.9788926300745
 10
198.9331126544095
 20
93.87406977794328
 10
198.9426233340081
 20
93.76983651934927
 10
198.9530484091711
 20
93.66620262472424
 10
198.9643874587266
 20
93.56317784143779
 10
198.9766399683953
 20
93.46077189343386
 10
198.9898053290463
 20
93.35899448077723
 10
199.003882834881
 20
93.25785527910605
 10
199.0188716815481
 20
93.15736393897532
 10
199.0347709641948
 20
93.05753008508047
 10
199.0515796754574
 20
92.95836331535143
 10
199.0692967034006
 20
92.85987319990147
 10
199.0879208294107
 20
92.76206927982247
 10
199.107450726053
 20
92.66496106581292
 10
199.1278849549034
 20
92.56855803662454
 10
199.1492219643656
 20
92.47286963732229
 10
199.1714600874874
 20
92.37790527733722
 10
199.1945975397912
 20
92.28367432831126
 10
199.218632417133
 20
92.19018612171807
 10
199.2435626936104
 20
92.09744994625335
 10
199.2693862195367
 20
92.00547504498681
 10
199.2961007195017
 20
91.91427061227283
 10
199.3237037905428
 20
91.8238457904118
 10
199.3521929004474
 20
91.7342096660621
 10
199.3815653862128
 20
91.64537126640604
 10
199.4118184526867
 20
91.55733955506803
 10
199.4429491714171
 20
91.47012342779469
 10
199.4749544797338
 20
91.38373170790537
 10
199.5078311800926
 20
91.29817314152339
 10
199.5415759397042
 20
91.21345639260728
 10
199.5761852904767
 20
91.12959003779791
 10
199.6116556292948
 20
91.04658256110838
 10
199.6479832186592
 20
90.96444234848033
 10
199.6851641877095
 20
90.8831776822394
 10
199.7231945336473
 20
90.80279673548377
 10
199.7620701235787
 20
90.72330756644396
 10
199.8017866967886
 20
90.64471811285365
 10
199.8423398674567
 20
90.56703618637908
 10
199.8837251278214
 20
90.49026946714913
 10
199.9259378517932
 20
90.41442549844061
 10
199.9689732990132
 20
90.33951168156423
 10
200.0128266193503
 20
90.26553527100712
 10
200.0574928578208
 20
90.19250336988196
 10
200.102966959913
 20
90.1204229257344
 10
200.1492437772915
 20
90.04930072676012
 10
200.1963180738507
 20
89.97914339847983
 10
200.2441845320806
 20
89.90995740091935
 10
200.2928377597064
 20
89.8417490263346
 10
200.342272296553
 20
89.77452439752274
 10
200.3924826215859
 20
89.70828946675051
 10
200.4434631600725
 20
89.64305001532774
 10
200.495208290806
 20
89.578811653848
 10
200.5477123533321
 20
89.51557982310727
 10
200.6009696551127
 20
89.45335979571254
 10
200.6549744785654
 20
89.39215667837384
 10
200.7097210879104
 20
89.33197541487456
 10
200.7652037357637
 20
89.27282078970214
 10
200.8214166694091
 20
89.21469743231347
 10
200.8783541366905
 20
89.15760982200455
 10
200.9360103914639
 20
89.10156229334174
 10
200.9943796985538
 20
89.04655904211083
 10
201.0534563381644
 20
88.99260413172733
 10
201.1132346096971
 20
88.93970150005063
 10
201.1737088349357
 20
88.88785496653756
 10
201.2348733605639
 20
88.8370682396645
 10
201.2967225599874
 20
88.78734492454862
 10
201.3592508344394
 20
88.73868853068988
 10
201.4224526133554
 20
88.69110247976026
 10
201.4863223540115
 20
88.64459011335923
 10
201.550854540426
 20
88.5991547006612
 10
201.6160436815326
 20
88.55479944587599
 10
201.681884308643
 20
88.51152749544866
 10
201.7483709722177
 20
88.46934194492732
 10
201.7749342918306
 20
88.45290226285691
  0
LWPOLYLINE
  5
B1
330
1F
100
AcDbEntity
  8
Geometries
  6
Continuous
370
    40
100
AcDbPolyline
 90
        3
 70
   128
 43
0.0
 10
201.781796314912
 20
88.44869337271973
 10
201.8154982379792
 20
88.42824584542943
 10
201.8699199739713
 20
88.39600223701724
  0
DIMENSION
  5
B3
330
1F
100
AcDbEntity
  8
Annotations
  6
Continuous
370
    15
100
AcDbDimension
280
     0
  2
*D2
 10
115.9848976135254
 20
110.365
 30
0.0
 11
115.9848976135254
 21
93.41379661560057
 31
0.0
 70
   160
 71
     5
 42
4.689999999999998
 73
     0
 74
     0
 75
     0
  3
ISO-25
100
AcDbAlignedDimension
 13
100.4
 23
77.535
 33
0.0
 14
100.4
 24
110.365
 34
0.0
 50
-90.0
100
AcDbRotatedDimension
1001
ACAD
1000
DSTYLE
1002
{
1070
   144
1040
0.1428571428571428
1070
    76
1070
     0
1070
    75
1070
     0
1070
   278
1070
    44
1070
    78
1070
     8
1070
   271
1070
     2
1070
   340
1005
69
1070
   283
1070
     1
1070
   146
1040
0.6
1070
   272
1070
     8
1070
   274
1070
     8
1070
   179
1070
     2
1070
    48
1040
0.05
1070
    47
1040
0.05
1070
    72
1070
     0
1070
    71
1070
     1
1070
    40
1040
1.0
1070
   276
1070
     2
1070
   147
1040
0.7
1070
   371
1070
    15
1070
   372
1070
    15
1002
}
  0
DIMENSION
  5
C0
330
1F
100
AcDbEntity
  8
Annotations
  6
Continuous
370
    15
100
AcDbDimension
280
     0
  2
*D3
 10
73.36896935954019
 20
160.5332028226939
 30
0.0
 11
110.7941705848207
 21
172.0474102783203
 31
0.0
 70
   163
 71
     5
 42
3.999999999999999
 73
     0
 74
     0
 75
     0
  3
ISO-25
100
AcDbDiametricDimension
 15
100.1310306404598
 25
168.7667971773061
 35
0.0
 40
0.0
1001
ACAD
1000
DSTYLE
1002
{
1070
   144
1040
0.1428571428571428
1070
   278
1070
    44
1070
    78
1070
     8
1070
   271
1070
     2
1070
   340
1005
67
1070
   283
1070
     1
1070
   146
1040
0.6
1070
   272
1070
     8
1070
   274
1070
     8
1070
   179
1070
     2
1070
    48
1040
0.0
1070
    47
1040
0.0
1070
    72
1070
     0
1070
    71
1070
     0
1070
    40
1040
1.0
1070
   276
1070
     2
1070
   147
1040
0.7
1070
   371
1070
    15
1070
   372
1070
    15
1002
}
  0
DIMENSION
  5
CC
330
1F
100
AcDbEntity
  8
Annotations
  6
Continuous
370
    15
100
AcDbDimension
280
     0
  2
*D4
 10
76.87140845961534
 20
168.2085712270855
 30
0.0
 11
110.1139962197162
 21
156.2335729863593
 31
0.0
 70
   163
 71
     5
 42
3.000000000000001
 73
     0
 74
     0
 75
     0
  3
ISO-25
100
AcDbDiametricDimension
 15
96.62859154038466
 25
161.0914287729145
 35
0.0
 40
0.0
1001
ACAD
1000
DSTYLE
1002
{
1070
   144
1040
0.1428571428571428
1070
   278
1070
    44
1070
    78
1070
     8
1070
   271
1070
     2
1070
   340
1005
67
1070
   283
1070
     1
1070
   146
1040
0.6
1070
   272
1070
     8
1070
   274
1070
     8
1070
   179
1070
     2
1070
    48
1040
0.0
1070
    47
1040
0.0
1070
    72
1070
     0
1070
    71
1070
     0
1070
    40
1040
1.0
1070
   276
1070
     2
1070
   147
1040
0.7
1070
   371
1070
    15
1070
   372
1070
    15
1002
}
  0
LINE
  5
D8
330
1F
100
AcDbEntity
  8
Annotations
  6
CenterLine
370
    15
100
AcDbLine
 10
86.75
 20
74.88499999999999
 30
0.0
 11
86.75
 21
113.015
 31
0.0
  0
INSERT
  5
E8
330
1F
100
AcDbEntity
  8
0
100
AcDbBlockReference
  2
*U5
 10
0.0
 20
0.0
 30
0.0
  0
LINE
  5
E9
330
1F
100
AcDbEntity
  8
Border
  6
Continuous
370
    15
100
AcDbLine
 10
20.0
 20
10.0
 30
0.0
 11
287.0
 21
10.0
 31
0.0
  0
LINE
  5
EA
330
1F
100
AcDbEntity
  8
Border
  6
Continuous
370
    15
100
AcDbLine
 10
287.0
 20
10.0
 30
0.0
 11
287.0
 21
200.0
 31
0.0
  0
LINE
  5
EB
330
1F
100
AcDbEntity
  8
Border
  6
Continuous
370
    15
100
AcDbLine
 10
287.0
 20
200.0
 30
0.0
 11
20.0
 21
200.0
 31
0.0
  0
LINE
  5
EC
330
1F
100
AcDbEntity
  8
Border
  6
Continuous
370
    15
100
AcDbLine
 10
20.0
 20
200.0
 30
0.0
 11
20.0
 21
10.0
 31
0.0
  0
LINE
  5
ED
330
1F
100
AcDbEntity
  8
Border
  6
Continuous
370
    15
100
AcDbLine
 10
153.5
 20
15.0
 30
0.0
 11
153.5
 21
5.0
 31
0.0
  0
LINE
  5
EE
330
1F
100
AcDbEntity
  8
Border
  6
Continuous
370
    15
100
AcDbLine
 10
203.5
 20
10.0
 30
0.0
 11
203.5
 21
5.0
 31
0.0
  0
LINE
  5
EF
330
1F
100
AcDbEntity
  8
Border
  6
Continuous
370
    15
100
AcDbLine
 10
103.5
 20
10.0
 30
0.0
 11
103.5
 21
5.0
 31
0.0
  0
LINE
  5
F0
330
1F
100
AcDbEntity
  8
Border
  6
Continuous
370
    15
100
AcDbLine
 10
253.5
 20
10.0
 30
0.0
 11
253.5
 21
5.0
 31
0.0
  0
LINE
  5
F1
330
1F
100
AcDbEntity
  8
Border
  6
Continuous
370
    15
100
AcDbLine
 10
53.5
 20
10.0
 30
0.0
 11
53.5
 21
5.0
 31
0.0
  0
MTEXT
  5
F2
330
1F
100
AcDbEntity
  8
Border
  6
Continuous
370
    15
100
AcDbMText
 10
36.75
 20
8.69625
 30
0.0
 40
2.3925
 41
2.3925
 46
2.3925
 71
     2
 72
     1
  1
1
  7
Shapr0
 73
     1
 44
1.0
1001
ACAD
1000
ACAD_MTEXT_DEFINED_HEIGHT_BEGIN
1070
    46
1040
2.3925
1000
ACAD_MTEXT_DEFINED_HEIGHT_END
  0
MTEXT
  5
F3
330
1F
100
AcDbEntity
  8
Border
  6
Continuous
370
    15
100
AcDbMText
 10
78.5
 20
8.69625
 30
0.0
 40
2.3925
 41
2.3925
 46
2.3925
 71
     2
 72
     1
  1
2
  7
Shapr0
 73
     1
 44
1.0
1001
ACAD
1000
ACAD_MTEXT_DEFINED_HEIGHT_BEGIN
1070
    46
1040
2.3925
1000
ACAD_MTEXT_DEFINED_HEIGHT_END
  0
MTEXT
  5
F4
330
1F
100
AcDbEntity
  8
Border
  6
Continuous
370
    15
100
AcDbMText
 10
128.5
 20
8.69625
 30
0.0
 40
2.3925
 41
2.3925
 46
2.3925
 71
     2
 72
     1
  1
3
  7
Shapr0
 73
     1
 44
1.0
1001
ACAD
1000
ACAD_MTEXT_DEFINED_HEIGHT_BEGIN
1070
    46
1040
2.3925
1000
ACAD_MTEXT_DEFINED_HEIGHT_END
  0
MTEXT
  5
F5
330
1F
100
AcDbEntity
  8
Border
  6
Continuous
370
    15
100
AcDbMText
 10
178.5
 20
8.69625
 30
0.0
 40
2.3925
 41
2.3925
 46
2.3925
 71
     2
 72
     1
  1
4
  7
Shapr0
 73
     1
 44
1.0
1001
ACAD
1000
ACAD_MTEXT_DEFINED_HEIGHT_BEGIN
1070
    46
1040
2.3925
1000
ACAD_MTEXT_DEFINED_HEIGHT_END
  0
MTEXT
  5
F6
330
1F
100
AcDbEntity
  8
Border
  6
Continuous
370
    15
100
AcDbMText
 10
228.5
 20
8.69625
 30
0.0
 40
2.3925
 41
2.3925
 46
2.3925
 71
     2
 72
     1
  1
5
  7
Shapr0
 73
     1
 44
1.0
1001
ACAD
1000
ACAD_MTEXT_DEFINED_HEIGHT_BEGIN
1070
    46
1040
2.3925
1000
ACAD_MTEXT_DEFINED_HEIGHT_END
  0
MTEXT
  5
F7
330
1F
100
AcDbEntity
  8
Border
  6
Continuous
370
    15
100
AcDbMText
 10
270.25
 20
8.69625
 30
0.0
 40
2.3925
 41
2.3925
 46
2.3925
 71
     2
 72
     1
  1
6
  7
Shapr0
 73
     1
 44
1.0
1001
ACAD
1000
ACAD_MTEXT_DEFINED_HEIGHT_BEGIN
1070
    46
1040
2.3925
1000
ACAD_MTEXT_DEFINED_HEIGHT_END
  0
LINE
  5
F8
330
1F
100
AcDbEntity
  8
Border
  6
Continuous
370
    15
100
AcDbLine
 10
282.0
 20
105.0
 30
0.0
 11
292.0
 21
105.0
 31
0.0
  0
LINE
  5
F9
330
1F
100
AcDbEntity
  8
Border
  6
Continuous
370
    15
100
AcDbLine
 10
287.0
 20
155.0
 30
0.0
 11
292.0
 21
155.0
 31
0.0
  0
LINE
  5
FA
330
1F
100
AcDbEntity
  8
Border
  6
Continuous
370
    15
100
AcDbLine
 10
287.0
 20
55.0
 30
0.0
 11
292.0
 21
55.0
 31
0.0
  0
MTEXT
  5
FB
330
1F
100
AcDbEntity
  8
Border
  6
Continuous
370
    15
100
AcDbMText
 10
288.30375
 20
32.5
 30
0.0
 40
2.3925
 41
2.3925
 46
2.3925
 71
     4
 72
     1
  1
D
  7
Shapr0
 73
     1
 44
1.0
1001
ACAD
1000
ACAD_MTEXT_DEFINED_HEIGHT_BEGIN
1070
    46
1040
2.3925
1000
ACAD_MTEXT_DEFINED_HEIGHT_END
  0
MTEXT
  5
FC
330
1F
100
AcDbEntity
  8
Border
  6
Continuous
370
    15
100
AcDbMText
 10
288.30375
 20
80.0
 30
0.0
 40
2.3925
 41
2.3925
 46
2.3925
 71
     4
 72
     1
  1
C
  7
Shapr0
 73
     1
 44
1.0
1001
ACAD
1000
ACAD_MTEXT_DEFINED_HEIGHT_BEGIN
1070
    46
1040
2.3925
1000
ACAD_MTEXT_DEFINED_HEIGHT_END
  0
MTEXT
  5
FD
330
1F
100
AcDbEntity
  8
Border
  6
Continuous
370
    15
100
AcDbMText
 10
288.30375
 20
130.0
 30
0.0
 40
2.3925
 41
2.3925
 46
2.3925
 71
     4
 72
     1
  1
B
  7
Shapr0
 73
     1
 44
1.0
1001
ACAD
1000
ACAD_MTEXT_DEFINED_HEIGHT_BEGIN
1070
    46
1040
2.3925
1000
ACAD_MTEXT_DEFINED_HEIGHT_END
  0
MTEXT
  5
FE
330
1F
100
AcDbEntity
  8
Border
  6
Continuous
370
    15
100
AcDbMText
 10
288.30375
 20
177.5
 30
0.0
 40
2.3925
 41
2.3925
 46
2.3925
 71
     4
 72
     1
  1
A
  7
Shapr0
 73
     1
 44
1.0
1001
ACAD
1000
ACAD_MTEXT_DEFINED_HEIGHT_BEGIN
1070
    46
1040
2.3925
1000
ACAD_MTEXT_DEFINED_HEIGHT_END
  0
LINE
  5
FF
330
1F
100
AcDbEntity
  8
Border
  6
Continuous
370
    15
100
AcDbLine
 10
153.5
 20
195.0
 30
0.0
 11
153.5
 21
205.0
 31
0.0
  0
LINE
  5
100
330
1F
100
AcDbEntity
  8
Border
  6
Continuous
370
    15
100
AcDbLine
 10
103.5
 20
200.0
 30
0.0
 11
103.5
 21
205.0
 31
0.0
  0
LINE
  5
101
330
1F
100
AcDbEntity
  8
Border
  6
Continuous
370
    15
100
AcDbLine
 10
203.5
 20
200.0
 30
0.0
 11
203.5
 21
205.0
 31
0.0
  0
LINE
  5
102
330
1F
100
AcDbEntity
  8
Border
  6
Continuous
370
    15
100
AcDbLine
 10
53.5
 20
200.0
 30
0.0
 11
53.5
 21
205.0
 31
0.0
  0
LINE
  5
103
330
1F
100
AcDbEntity
  8
Border
  6
Continuous
370
    15
100
AcDbLine
 10
253.5
 20
200.0
 30
0.0
 11
253.5
 21
205.0
 31
0.0
  0
MTEXT
  5
104
330
1F
100
AcDbEntity
  8
Border
  6
Continuous
370
    15
100
AcDbMText
 10
270.25
 20
201.30375
 30
0.0
 40
2.3925
 41
2.3925
 46
2.3925
 71
     8
 72
     1
  1
6
  7
Shapr0
 73
     1
 44
1.0
1001
ACAD
1000
ACAD_MTEXT_DEFINED_HEIGHT_BEGIN
1070
    46
1040
2.3925
1000
ACAD_MTEXT_DEFINED_HEIGHT_END
  0
MTEXT
  5
105
330
1F
100
AcDbEntity
  8
Border
  6
Continuous
370
    15
100
AcDbMText
 10
228.5
 20
201.30375
 30
0.0
 40
2.3925
 41
2.3925
 46
2.3925
 71
     8
 72
     1
  1
5
  7
Shapr0
 73
     1
 44
1.0
1001
ACAD
1000
ACAD_MTEXT_DEFINED_HEIGHT_BEGIN
1070
    46
1040
2.3925
1000
ACAD_MTEXT_DEFINED_HEIGHT_END
  0
MTEXT
  5
106
330
1F
100
AcDbEntity
  8
Border
  6
Continuous
370
    15
100
AcDbMText
 10
178.5
 20
201.30375
 30
0.0
 40
2.3925
 41
2.3925
 46
2.3925
 71
     8
 72
     1
  1
4
  7
Shapr0
 73
     1
 44
1.0
1001
ACAD
1000
ACAD_MTEXT_DEFINED_HEIGHT_BEGIN
1070
    46
1040
2.3925
1000
ACAD_MTEXT_DEFINED_HEIGHT_END
  0
MTEXT
  5
107
330
1F
100
AcDbEntity
  8
Border
  6
Continuous
370
    15
100
AcDbMText
 10
128.5
 20
201.30375
 30
0.0
 40
2.3925
 41
2.3925
 46
2.3925
 71
     8
 72
     1
  1
3
  7
Shapr0
 73
     1
 44
1.0
1001
ACAD
1000
ACAD_MTEXT_DEFINED_HEIGHT_BEGIN
1070
    46
1040
2.3925
1000
ACAD_MTEXT_DEFINED_HEIGHT_END
  0
MTEXT
  5
108
330
1F
100
AcDbEntity
  8
Border
  6
Continuous
370
    15
100
AcDbMText
 10
78.5
 20
201.30375
 30
0.0
 40
2.3925
 41
2.3925
 46
2.3925
 71
     8
 72
     1
  1
2
  7
Shapr0
 73
     1
 44
1.0
1001
ACAD
1000
ACAD_MTEXT_DEFINED_HEIGHT_BEGIN
1070
    46
1040
2.3925
1000
ACAD_MTEXT_DEFINED_HEIGHT_END
  0
MTEXT
  5
109
330
1F
100
AcDbEntity
  8
Border
  6
Continuous
370
    15
100
AcDbMText
 10
36.75
 20
201.30375
 30
0.0
 40
2.3925
 41
2.3925
 46
2.3925
 71
     8
 72
     1
  1
1
  7
Shapr0
 73
     1
 44
1.0
1001
ACAD
1000
ACAD_MTEXT_DEFINED_HEIGHT_BEGIN
1070
    46
1040
2.3925
1000
ACAD_MTEXT_DEFINED_HEIGHT_END
  0
LINE
  5
10A
330
1F
100
AcDbEntity
  8
Border
  6
Continuous
370
    15
100
AcDbLine
 10
25.0
 20
105.0
 30
0.0
 11
15.0
 21
105.0
 31
0.0
  0
LINE
  5
10B
330
1F
100
AcDbEntity
  8
Border
  6
Continuous
370
    15
100
AcDbLine
 10
20.0
 20
55.0
 30
0.0
 11
15.0
 21
55.0
 31
0.0
  0
LINE
  5
10C
330
1F
100
AcDbEntity
  8
Border
  6
Continuous
370
    15
100
AcDbLine
 10
20.0
 20
155.0
 30
0.0
 11
15.0
 21
155.0
 31
0.0
  0
MTEXT
  5
10D
330
1F
100
AcDbEntity
  8
Border
  6
Continuous
370
    15
100
AcDbMText
 10
18.69625
 20
177.5
 30
0.0
 40
2.3925
 41
2.3925
 46
2.3925
 71
     6
 72
     1
  1
A
  7
Shapr0
 73
     1
 44
1.0
1001
ACAD
1000
ACAD_MTEXT_DEFINED_HEIGHT_BEGIN
1070
    46
1040
2.3925
1000
ACAD_MTEXT_DEFINED_HEIGHT_END
  0
MTEXT
  5
10E
330
1F
100
AcDbEntity
  8
Border
  6
Continuous
370
    15
100
AcDbMText
 10
18.69625
 20
130.0
 30
0.0
 40
2.3925
 41
2.3925
 46
2.3925
 71
     6
 72
     1
  1
B
  7
Shapr0
 73
     1
 44
1.0
1001
ACAD
1000
ACAD_MTEXT_DEFINED_HEIGHT_BEGIN
1070
    46
1040
2.3925
1000
ACAD_MTEXT_DEFINED_HEIGHT_END
  0
MTEXT
  5
10F
330
1F
100
AcDbEntity
  8
Border
  6
Continuous
370
    15
100
AcDbMText
 10
18.69625
 20
80.0
 30
0.0
 40
2.3925
 41
2.3925
 46
2.3925
 71
     6
 72
     1
  1
C
  7
Shapr0
 73
     1
 44
1.0
1001
ACAD
1000
ACAD_MTEXT_DEFINED_HEIGHT_BEGIN
1070
    46
1040
2.3925
1000
ACAD_MTEXT_DEFINED_HEIGHT_END
  0
MTEXT
  5
110
330
1F
100
AcDbEntity
  8
Border
  6
Continuous
370
    15
100
AcDbMText
 10
18.69625
 20
32.5
 30
0.0
 40
2.3925
 41
2.3925
 46
2.3925
 71
     6
 72
     1
  1
D
  7
Shapr0
 73
     1
 44
1.0
1001
ACAD
1000
ACAD_MTEXT_DEFINED_HEIGHT_BEGIN
1070
    46
1040
2.3925
1000
ACAD_MTEXT_DEFINED_HEIGHT_END
  0
INSERT
  5
12B
330
1F
100
AcDbEntity
  8
0
100
AcDbBlockReference
  2
*U6
 10
0.0
 20
0.0
 30
0.0
  0
MTEXT
  5
12C
330
1F
100
AcDbEntity
  8
Border
  6
Continuous
370
    15
100
AcDbMText
 10
177.6
 20
54.32955
 30
0.0
 40
1.77045
 41
0.0
 46
1.77045
 71
     7
 72
     1
  1
TITLE
  7
Shapr1
 73
     1
 44
1.0
1001
ACAD
1000
ACAD_MTEXT_DEFINED_HEIGHT_BEGIN
1070
    46
1040
1.77045
1000
ACAD_MTEXT_DEFINED_HEIGHT_END
  0
MTEXT
  5
12D
330
1F
100
AcDbEntity
  8
Border
  6
Continuous
370
    15
100
AcDbMText
 10
177.6
 20
45.25209004255318
 30
0.0
 40
5.06253
 41
0.0
 46
5.06253
 71
     7
 72
     1
  1
Spacer
  7
Shapr1
 73
     1
 44
1.0
1001
ACAD
1000
ACAD_MTEXT_DEFINED_HEIGHT_BEGIN
1070
    46
1040
5.06253
1000
ACAD_MTEXT_DEFINED_HEIGHT_END
  0
MTEXT
  5
12E
330
1F
100
AcDbEntity
  8
Border
  6
Continuous
370
    15
100
AcDbMText
 10
177.6
 20
38.09188085106383
 30
0.0
 40
1.77045
 41
0.0
 46
1.77045
 71
     7
 72
     1
  1
LAST UPDATED
  7
Shapr1
 73
     1
 44
1.0
1001
ACAD
1000
ACAD_MTEXT_DEFINED_HEIGHT_BEGIN
1070
    46
1040
1.77045
1000
ACAD_MTEXT_DEFINED_HEIGHT_END
  0
MTEXT
  5
12F
330
1F
100
AcDbEntity
  8
Border
  6
Continuous
370
    15
100
AcDbMText
 10
177.6
 20
29.85635012765957
 30
0.0
 40
5.06253
 41
0.0
 46
5.06253
 71
     7
 72
     1
  1
11/18/22
  7
Shapr1
 73
     1
 44
1.0
1001
ACAD
1000
ACAD_MTEXT_DEFINED_HEIGHT_BEGIN
1070
    46
1040
5.06253
1000
ACAD_MTEXT_DEFINED_HEIGHT_END
  0
MTEXT
  5
130
330
1F
100
AcDbEntity
  8
Border
  6
Continuous
370
    15
100
AcDbMText
 10
227.0
 20
38.09188085106383
 30
0.0
 40
1.77045
 41
0.0
 46
1.77045
 71
     7
 72
     1
  1
UNITS
  7
Shapr1
 73
     1
 44
1.0
1001
ACAD
1000
ACAD_MTEXT_DEFINED_HEIGHT_BEGIN
1070
    46
1040
1.77045
1000
ACAD_MTEXT_DEFINED_HEIGHT_END
  0
MTEXT
  5
131
330
1F
100
AcDbEntity
  8
Border
  6
Continuous
370
    15
100
AcDbMText
 10
227.0
 20
30.33747
 30
0.0
 40
5.06253
 41
0.0
 46
5.06253
 71
     7
 72
     1
  1
mm
  7
Shapr1
 73
     1
 44
1.0
1001
ACAD
1000
ACAD_MTEXT_DEFINED_HEIGHT_BEGIN
1070
    46
1040
5.06253
1000
ACAD_MTEXT_DEFINED_HEIGHT_END
  0
MTEXT
  5
132
330
1F
100
AcDbEntity
  8
Border
  6
Continuous
370
    15
100
AcDbMText
 10
258.75
 20
38.09188085106383
 30
0.0
 40
1.77045
 41
0.0
 46
1.77045
 71
     7
 72
     1
  1
SHEET
  7
Shapr1
 73
     1
 44
1.0
1001
ACAD
1000
ACAD_MTEXT_DEFINED_HEIGHT_BEGIN
1070
    46
1040
1.77045
1000
ACAD_MTEXT_DEFINED_HEIGHT_END
  0
MTEXT
  5
133
330
1F
100
AcDbEntity
  8
Border
  6
Continuous
370
    15
100
AcDbMText
 10
258.75
 20
29.85635012765957
 30
0.0
 40
5.06253
 41
0.0
 46
5.06253
 71
     7
 72
     1
  1
1 / 1
  7
Shapr1
 73
     1
 44
1.0
1001
ACAD
1000
ACAD_MTEXT_DEFINED_HEIGHT_BEGIN
1070
    46
1040
5.06253
1000
ACAD_MTEXT_DEFINED_HEIGHT_END
  0
MTEXT
  5
134
330
1F
100
AcDbEntity
  8
Border
  6
Continuous
370
    15
100
AcDbMText
 10
177.6
 20
21.89188085106383
 30
0.0
 40
1.77045
 41
0.0
 46
1.77045
 71
     7
 72
     1
  1
FIRST ANGLE PROJECTION
  7
Shapr1
 73
     1
 44
1.0
1001
ACAD
1000
ACAD_MTEXT_DEFINED_HEIGHT_BEGIN
1070
    46
1040
1.77045
1000
ACAD_MTEXT_DEFINED_HEIGHT_END
  0
MTEXT
  5
135
330
1F
100
AcDbEntity
  8
Border
  6
Continuous
370
    15
100
AcDbMText
 10
177.6
 20
14.13747
 30
0.0
 40
5.06253
 41
0.0
 46
5.06253
 71
     7
 72
     1
  1

  7
Shapr1
 73
     1
 44
1.0
1001
ACAD
1000
ACAD_MTEXT_DEFINED_HEIGHT_BEGIN
1070
    46
1040
5.06253
1000
ACAD_MTEXT_DEFINED_HEIGHT_END
  0
MTEXT
  5
136
330
1F
100
AcDbEntity
  8
Border
  6
Continuous
370
    15
100
AcDbMText
 10
227.0
 20
21.89188085106383
 30
0.0
 40
1.77045
 41
0.0
 46
1.77045
 71
     7
 72
     1
  1
SCALE
  7
Shapr1
 73
     1
 44
1.0
1001
ACAD
1000
ACAD_MTEXT_DEFINED_HEIGHT_BEGIN
1070
    46
1040
1.77045
1000
ACAD_MTEXT_DEFINED_HEIGHT_END
  0
MTEXT
  5
137
330
1F
100
AcDbEntity
  8
Border
  6
Continuous
370
    15
100
AcDbMText
 10
227.0
 20
14.11592731914894
 30
0.0
 40
5.06253
 41
0.0
 46
5.06253
 71
     7
 72
     1
  1
7:1
  7
Shapr1
 73
     1
 44
1.0
1001
ACAD
1000
ACAD_MTEXT_DEFINED_HEIGHT_BEGIN
1070
    46
1040
5.06253
1000
ACAD_MTEXT_DEFINED_HEIGHT_END
  0
MTEXT
  5
138
330
1F
100
AcDbEntity
  8
Border
  6
Continuous
370
    15
100
AcDbMText
 10
258.75
 20
21.89188085106383
 30
0.0
 40
1.77045
 41
0.0
 46
1.77045
 71
     7
 72
     1
  1
SIZE
  7
Shapr1
 73
     1
 44
1.0
1001
ACAD
1000
ACAD_MTEXT_DEFINED_HEIGHT_BEGIN
1070
    46
1040
1.77045
1000
ACAD_MTEXT_DEFINED_HEIGHT_END
  0
MTEXT
  5
139
330
1F
100
AcDbEntity
  8
Border
  6
Continuous
370
    15
100
AcDbMText
 10
258.75
 20
14.13747
 30
0.0
 40
5.06253
 41
0.0
 46
5.06253
 71
     7
 72
     1
  1
A4
  7
Shapr1
 73
     1
 44
1.0
1001
ACAD
1000
ACAD_MTEXT_DEFINED_HEIGHT_BEGIN
1070
    46
1040
5.06253
1000
ACAD_MTEXT_DEFINED_HEIGHT_END
  0
MTEXT
  5
13A
330
1F
100
AcDbEntity
  8
Annotations
  6
Continuous
370
    15
100
AcDbMText
 10
70.37787246704102
 20
49.64053598076745
 30
0.0
 40
1.794375
 41
84.66672
 46
0.0
 71
     4
 72
     1
  1
{\fSF-Mono-Regular-Extended.ttf|b0|i0|c0|p0;\H1.333333x;Stainless steel 316}
 73
     1
 44
1.0
  0
VIEWPORT
  5
6F
330
6B
100
AcDbEntity
 67
     1
  8
0
100
AcDbViewport
 10
148.5
 20
105.0
 30
0.0
 40
297.0
 41
210.0
 68
     1
 69
     1
 12
148.5
 22
105.0
 13
0.0
 23
0.0
 14
10.0
 24
10.0
 15
10.0
 25
10.0
 16
0.0
 26
0.0
 36
1.0
 17
0.0
 27
0.0
 37
0.0
 42
50.0
 43
0.0
 44
0.0
 45
210.0
 50
0.0
 51
0.0
 72
   100
 90
   557152
  1

281
     0
 71
     1
 74
     0
110
0.0
120
0.0
130
0.0
111
1.0
121
0.0
131
0.0
112
0.0
122
1.0
132
0.0
 79
     0
146
0.0
170
     0
 61
     5
348
2F
292
     1
282
     1
141
0.0
142
0.0
 63
   256
361
70
  0
VIEWPORT
  5
71
330
6B
100
AcDbEntity
 67
     1
  8
0
100
AcDbViewport
 10
148.5
 20
105.0
 30
0.0
 40
297.0
 41
210.0
 68
     2
 69
     2
 12
148.5
 22
105.0
 13
0.0
 23
0.0
 14
10.0
 24
10.0
 15
10.0
 25
10.0
 16
0.0
 26
0.0
 36
1.0
 17
0.0
 27
0.0
 37
0.0
 42
50.0
 43
0.0
 44
0.0
 45
210.0
 50
0.0
 51
0.0
 72
   100
 90
   557152
  1

281
     0
 71
     1
 74
     0
110
0.0
120
0.0
130
0.0
111
1.0
121
0.0
131
0.0
112
0.0
122
1.0
132
0.0
 79
     0
146
0.0
170
     0
 61
     5
348
2F
292
     1
282
     1
141
0.0
142
0.0
 63
   256
361
72
  0
ENDSEC
  0
SECTION
  2
OBJECTS
  0
DICTIONARY
  5
C
330
0
100
AcDbDictionary
281
     1
  3
ACAD_DETAILVIEWSTYLE
350
172
  3
ACAD_GROUP
350
D
  3
ACAD_LAYOUT
350
1A
  3
ACAD_MATERIAL
350
43
  3
ACAD_MLEADERSTYLE
350
5B
  3
ACAD_MLINESTYLE
350
17
  3
ACAD_PLOTSETTINGS
350
19
  3
ACAD_PLOTSTYLENAME
350
E
  3
ACAD_SCALELIST
350
47
  3
ACAD_SECTIONVIEWSTYLE
350
173
  3
ACAD_TABLESTYLE
350
59
  3
ACAD_VISUALSTYLE
350
2A
  3
ACDB_RECOMPOSE_DATA
350
16F
  3
AcDbVariableDictionary
350
13B
  0
SUN
  5
5D
330
29
100
AcDbSun
 90
        1
290
     0
 63
     7
421
 16777215
 40
1.0
291
     1
 91
  2455826
 92
 54000000
292
     0
 70
     2
 71
   256
280
     1
  0
SUN
  5
70
330
6F
100
AcDbSun
 90
        1
290
     0
 63
     7
421
 16777215
 40
1.0
291
     1
 91
  2455826
 92
 54000000
292
     0
 70
     2
 71
   256
280
     1
  0
SUN
  5
72
330
71
100
AcDbSun
 90
        1
290
     0
 63
     7
421
 16777215
 40
1.0
291
     1
 91
  2455826
 92
 54000000
292
     0
 70
     2
 71
   256
280
     1
  0
DICTIONARY
  5
172
102
{ACAD_REACTORS
330
C
102
}
330
C
100
AcDbDictionary
281
     1
  0
DICTIONARY
  5
D
102
{ACAD_REACTORS
330
C
102
}
330
C
100
AcDbDictionary
281
     1
  0
DICTIONARY
  5
1A
102
{ACAD_REACTORS
330
C
102
}
330
C
100
AcDbDictionary
281
     1
  3
Layout1
350
1E
  3
Layout2
350
26
  3
Model
350
22
  3
Sheet
350
6C
  0
DICTIONARY
  5
43
102
{ACAD_REACTORS
330
C
102
}
330
C
100
AcDbDictionary
281
     1
  3
ByBlock
350
45
  3
ByLayer
350
44
  3
Global
350
46
  0
DICTIONARY
  5
5B
102
{ACAD_REACTORS
330
C
102
}
330
C
100
AcDbDictionary
281
     1
  3
Standard
350
5C
  0
DICTIONARY
  5
17
102
{ACAD_REACTORS
330
C
102
}
330
C
100
AcDbDictionary
281
     1
  3
Standard
350
18
  0
DICTIONARY
  5
19
102
{ACAD_REACTORS
330
C
102
}
330
C
100
AcDbDictionary
281
     1
  0
ACDBDICTIONARYWDFLT
  5
E
102
{ACAD_REACTORS
330
C
102
}
330
C
100
AcDbDictionary
281
     1
  3
Normal
350
F
100
AcDbDictionaryWithDefault
340
F
  0
DICTIONARY
  5
47
102
{ACAD_REACTORS
330
C
102
}
330
C
100
AcDbDictionary
281
     1
  3
A0
350
48
  3
A1
350
49
  3
A2
350
4A
  3
A3
350
4B
  3
A4
350
4C
  3
A5
350
4D
  3
A6
350
4E
  3
A7
350
4F
  3
A8
350
50
  3
A9
350
51
  3
B0
350
52
  3
B1
350
53
  3
B2
350
54
  3
B3
350
55
  3
B4
350
56
  3
B5
350
57
  3
B6
350
58
  0
DICTIONARY
  5
173
102
{ACAD_REACTORS
330
C
102
}
330
C
100
AcDbDictionary
281
     1
  0
DICTIONARY
  5
59
102
{ACAD_REACTORS
330
C
102
}
330
C
100
AcDbDictionary
281
     1
  3
Standard
350
5A
  0
DICTIONARY
  5
2A
102
{ACAD_REACTORS
330
C
102
}
330
C
100
AcDbDictionary
281
     1
  3
2dWireframe
350
2F
  3
Basic
350
32
  3
Brighten
350
36
  3
ColorChange
350
3A
  3
Conceptual
350
34
  3
Dim
350
35
  3
EdgeColorOff
350
3D
  3
Facepattern
350
39
  3
Flat
350
2B
  3
FlatWithEdges
350
2C
  3
Gouraud
350
2D
  3
GouraudWithEdges
350
2E
  3
Hidden
350
31
  3
JitterOff
350
3B
  3
Linepattern
350
38
  3
OverhangOff
350
3C
  3
Realistic
350
33
  3
Shaded
350
42
  3
Shaded with edges
350
41
  3
Shades of Gray
350
3E
  3
Sketchy
350
3F
  3
Thicken
350
37
  3
Wireframe
350
30
  3
X-Ray
350
40
  0
XRECORD
  5
16F
102
{ACAD_REACTORS
330
C
102
}
330
C
100
AcDbXrecord
280
     1
 90
        1
330
5A
  0
DICTIONARY
  5
13B
102
{ACAD_REACTORS
330
C
102
}
330
C
100
AcDbDictionary
281
     1
  3
CANNOSCALE
350
13C
  3
CENTEREXE
350
174
  3
CENTERLTYPEFILE
350
175
  3
CMLEADERSTYLE
350
171
  3
CTABLESTYLE
350
170
  0
LAYOUT
  5
1E
102
{ACAD_REACTORS
330
1A
102
}
330
1A
100
AcDbPlotSettings
  1

  2
none_device
  4

  6

 40
0.0
 41
0.0
 42
0.0
 43
0.0
 44
0.0
 45
0.0
 46
0.0
 47
0.0
 48
0.0
 49
0.0
140
0.0
141
0.0
142
1.0
143
1.0
 70
   688
 72
     1
 73
     0
 74
     5
  7

 75
    16
 76
     0
 77
     2
 78
   300
147
1.0
148
0.0
149
0.0
100
AcDbLayout
  1
Layout1
 70
     1
 71
     1
 10
0.0
 20
0.0
 11
420.0
 21
297.0
 12
0.0
 22
0.0
 32
0.0
 14
1.000000000000000E+20
 24
1.000000000000000E+20
 34
1.000000000000000E+20
 15
-1.000000000000000E+20
 25
-1.000000000000000E+20
 35
-1.000000000000000E+20
146
0.0
 13
0.0
 23
0.0
 33
0.0
 16
1.0
 26
0.0
 36
0.0
 17
0.0
 27
1.0
 37
0.0
 76
     0
330
1B
  0
LAYOUT
  5
26
102
{ACAD_REACTORS
330
1A
102
}
330
1A
100
AcDbPlotSettings
  1

  2
none_device
  4

  6

 40
0.0
 41
0.0
 42
0.0
 43
0.0
 44
0.0
 45
0.0
 46
0.0
 47
0.0
 48
0.0
 49
0.0
140
0.0
141
0.0
142
1.0
143
1.0
 70
   688
 72
     1
 73
     0
 74
     5
  7

 75
    16
 76
     0
 77
     2
 78
   300
147
1.0
148
0.0
149
0.0
100
AcDbLayout
  1
Layout2
 70
     1
 71
     2
 10
0.0
 20
0.0
 11
0.0
 21
0.0
 12
0.0
 22
0.0
 32
0.0
 14
0.0
 24
0.0
 34
0.0
 15
0.0
 25
0.0
 35
0.0
146
0.0
 13
0.0
 23
0.0
 33
0.0
 16
1.0
 26
0.0
 36
0.0
 17
0.0
 27
1.0
 37
0.0
 76
     0
330
23
  0
LAYOUT
  5
22
102
{ACAD_REACTORS
330
1A
102
}
330
1A
100
AcDbPlotSettings
  1

  2
none_device
  4
Letter_(8.50_x_11.00_Inches)
  6

 40
6.35
 41
6.35
 42
6.35000508
 43
6.35000508
 44
215.9
 45
279.4
 46
0.0
 47
0.0
 48
0.0
 49
0.0
140
0.0
141
0.0
142
1.0
143
1.0
 70
  1712
 72
     1
 73
     0
 74
     0
  7

 75
     0
 76
     0
 77
     2
 78
   300
147
1.0
148
0.0
149
0.0
100
AcDbLayout
  1
Model
 70
     1
 71
     0
 10
0.0
 20
0.0
 11
420.0
 21
297.0
 12
0.0
 22
0.0
 32
0.0
 14
1.000000000000000E+20
 24
1.000000000000000E+20
 34
1.000000000000000E+20
 15
-1.000000000000000E+20
 25
-1.000000000000000E+20
 35
-1.000000000000000E+20
146
0.0
 13
0.0
 23
0.0
 33
0.0
 16
1.0
 26
0.0
 36
0.0
 17
0.0
 27
1.0
 37
0.0
 76
     0
330
1F
331
29
  0
LAYOUT
  5
6C
102
{ACAD_REACTORS
330
1A
102
}
330
1A
100
AcDbPlotSettings
  1

  2
Custom Device
  4
CustomPaper_297.000000x210.000000mm
  6

 40
0.0
 41
0.0
 42
0.0
 43
0.0
 44
210.0
 45
297.0
 46
0.0
 47
0.0
 48
0.0
 49
0.0
140
0.0
141
0.0
142
1.0
143
1.0
 70
   672
 72
     1
 73
     1
 74
     5
  7

 75
    16
 76
     0
 77
     2
 78
   300
147
1.0
148
0.0
149
0.0
100
AcDbLayout
  1
Sheet
 70
     1
 71
     3
 10
-20.0
 20
-7.5
 11
277.0
 21
202.5
 12
0.0
 22
0.0
 32
0.0
 14
0.0
 24
0.0
 34
0.0
 15
0.0
 25
0.0
 35
0.0
146
0.0
 13
0.0
 23
0.0
 33
0.0
 16
1.0
 26
0.0
 36
0.0
 17
0.0
 27
1.0
 37
0.0
 76
     0
330
6B
331
6F
  0
MATERIAL
  5
45
102
{ACAD_REACTORS
330
43
102
}
330
43
100
AcDbMaterial
  1
ByBlock
 72
     1
 94
      127
  0
MATERIAL
  5
44
102
{ACAD_REACTORS
330
43
102
}
330
43
100
AcDbMaterial
  1
ByLayer
 72
     1
 94
      127
  0
MATERIAL
  5
46
102
{ACAD_REACTORS
330
43
102
}
330
43
100
AcDbMaterial
  1
Global
 72
     1
 94
      127
  0
MLEADERSTYLE
  5
5C
102
{ACAD_REACTORS
330
5B
102
}
330
5B
100
AcDbMLeaderStyle
179
     2
170
     2
171
     1
172
     0
 90
        2
 40
0.0
 41
0.0
173
     1
 91
-1056964608
340
14
 92
       -2
290
     1
 42
2.0
291
     1
 43
8.0
  3
Standard
341
0
 44
4.0
300

342
11
174
     1
178
     6
175
     1
176
     0
 93
-1056964608
 45
4.0
292
     0
297
     0
 46
4.0
343
0
 94
-1056964608
 47
1.0
 49
1.0
140
1.0
293
     1
141
0.0
294
     1
177
     0
142
1.0
295
     0
296
     0
143
3.75
271
     0
272
     9
273
     9
  0
MLINESTYLE
  5
18
102
{ACAD_REACTORS
330
17
102
}
330
17
100
AcDbMlineStyle
  2
Standard
 70
     0
  3

 62
   256
 51
90.0
 52
90.0
 71
     2
 49
0.5
 62
   256
  6
BYLAYER
 49
-0.5
 62
   256
  6
BYLAYER
  0
ACDBPLACEHOLDER
  5
F
102
{ACAD_REACTORS
330
E
102
}
330
E
  0
SCALE
  5
48
102
{ACAD_REACTORS
330
47
102
}
330
47
100
AcDbScale
 70
     0
300
1:1
140
1.0
141
1.0
290
     1
  0
SCALE
  5
49
102
{ACAD_REACTORS
330
47
102
}
330
47
100
AcDbScale
 70
     0
300
1:2
140
1.0
141
2.0
290
     0
  0
SCALE
  5
4A
102
{ACAD_REACTORS
330
47
102
}
330
47
100
AcDbScale
 70
     0
300
1:4
140
1.0
141
4.0
290
     0
  0
SCALE
  5
4B
102
{ACAD_REACTORS
330
47
102
}
330
47
100
AcDbScale
 70
     0
300
1:5
140
1.0
141
5.0
290
     0
  0
SCALE
  5
4C
102
{ACAD_REACTORS
330
47
102
}
330
47
100
AcDbScale
 70
     0
300
1:8
140
1.0
141
8.0
290
     0
  0
SCALE
  5
4D
102
{ACAD_REACTORS
330
47
102
}
330
47
100
AcDbScale
 70
     0
300
1:10
140
1.0
141
10.0
290
     0
  0
SCALE
  5
4E
102
{ACAD_REACTORS
330
47
102
}
330
47
100
AcDbScale
 70
     0
300
1:16
140
1.0
141
16.0
290
     0
  0
SCALE
  5
4F
102
{ACAD_REACTORS
330
47
102
}
330
47
100
AcDbScale
 70
     0
300
1:20
140
1.0
141
20.0
290
     0
  0
SCALE
  5
50
102
{ACAD_REACTORS
330
47
102
}
330
47
100
AcDbScale
 70
     0
300
1:30
140
1.0
141
30.0
290
     0
  0
SCALE
  5
51
102
{ACAD_REACTORS
330
47
102
}
330
47
100
AcDbScale
 70
     0
300
1:40
140
1.0
141
40.0
290
     0
  0
SCALE
  5
52
102
{ACAD_REACTORS
330
47
102
}
330
47
100
AcDbScale
 70
     0
300
1:50
140
1.0
141
50.0
290
     0
  0
SCALE
  5
53
102
{ACAD_REACTORS
330
47
102
}
330
47
100
AcDbScale
 70
     0
300
1:100
140
1.0
141
100.0
290
     0
  0
SCALE
  5
54
102
{ACAD_REACTORS
330
47
102
}
330
47
100
AcDbScale
 70
     0
300
2:1
140
2.0
141
1.0
290
     0
  0
SCALE
  5
55
102
{ACAD_REACTORS
330
47
102
}
330
47
100
AcDbScale
 70
     0
300
4:1
140
4.0
141
1.0
290
     0
  0
SCALE
  5
56
102
{ACAD_REACTORS
330
47
102
}
330
47
100
AcDbScale
 70
     0
300
8:1
140
8.0
141
1.0
290
     0
  0
SCALE
  5
57
102
{ACAD_REACTORS
330
47
102
}
330
47
100
AcDbScale
 70
     0
300
10:1
140
10.0
141
1.0
290
     0
  0
SCALE
  5
58
102
{ACAD_REACTORS
330
47
102
}
330
47
100
AcDbScale
 70
     0
300
100:1
140
100.0
141
1.0
290
     0
  0
TABLESTYLE
  5
5A
102
{ACAD_REACTORS
330
59
102
}
102
{ACAD_XDICTIONARY
360
16D
102
}
330
59
100
AcDbTableStyle
  3
Standard
 70
     0
 71
     0
 40
0.06
 41
0.06
280
     0
281
     0
  7
Standard
140
4.5
170
     2
 62
     0
 63
   257
283
     0
 90
        4
 91
        0
  1

274
    -2
284
     1
 64
     0
275
    -2
285
     1
 65
     0
276
    -2
286
     1
 66
     0
277
    -2
287
     1
 67
     0
278
    -2
288
     1
 68
     0
279
    -2
289
     1
 69
     0
  7
Standard
140
6.0
170
     5
 62
     0
 63
   257
283
     0
 90
        4
 91
        0
  1

274
    -2
284
     1
 64
     0
275
    -2
285
     1
 65
     0
276
    -2
286
     1
 66
     0
277
    -2
287
     1
 67
     0
278
    -2
288
     1
 68
     0
279
    -2
289
     1
 69
     0
  7
Standard
140
4.5
170
     5
 62
     0
 63
   257
283
     0
 90
        4
 91
        0
  1

274
    -2
284
     1
 64
     0
275
    -2
285
     1
 65
     0
276
    -2
286
     1
 66
     0
277
    -2
287
     1
 67
     0
278
    -2
288
     1
 68
     0
279
    -2
289
     1
 69
     0
  0
VISUALSTYLE
  5
2F
102
{ACAD_REACTORS
330
2A
102
}
102
{ACAD_XDICTIONARY
360
145
102
}
330
2A
100
AcDbVisualStyle
  2
2dWireframe
 70
     4
177
     2
291
     0
 71
     0
176
     1
 72
     2
176
     1
 73
     0
176
     1
 90
        0
176
     1
 40
0.6
176
     1
 41
30.0
176
     1
 62
     5
 63
     7
421
 16777215
176
     1
 74
     1
176
     1
 91
        4
176
     1
 64
     7
176
     1
 65
   257
176
     1
 75
     1
176
     1
175
     1
176
     1
 42
1.0
176
     1
 92
        0
176
     1
 66
   257
176
     1
 43
1.0
176
     1
 76
     1
176
     1
 77
     6
176
     1
 78
     2
176
     1
 67
     7
176
     1
 79
     5
176
     1
170
     0
176
     1
171
     0
176
     1
290
     0
176
     1
 93
        1
176
     1
 44
0.0
176
     1
173
     0
176
     1
  0
VISUALSTYLE
  5
32
102
{ACAD_REACTORS
330
2A
102
}
102
{ACAD_XDICTIONARY
360
14B
102
}
330
2A
100
AcDbVisualStyle
  2
Basic
 70
     7
177
     2
291
     1
 71
     1
176
     1
 72
     0
176
     1
 73
     1
176
     1
 90
        0
176
     1
 40
0.6
176
     1
 41
30.0
176
     1
 62
     5
 63
     7
421
 16777215
176
     1
 74
     0
176
     1
 91
        4
176
     1
 64
     7
176
     1
 65
   257
176
     1
 75
     1
176
     1
175
     1
176
     1
 42
1.0
176
     1
 92
        8
176
     1
 66
     7
176
     1
 43
1.0
176
     1
 76
     1
176
     1
 77
     6
176
     1
 78
     2
176
     1
 67
     7
176
     1
 79
     5
176
     1
170
     0
176
     1
171
     0
176
     1
290
     0
176
     1
 93
        1
176
     1
 44
0.0
176
     1
173
     0
176
     1
  0
VISUALSTYLE
  5
36
102
{ACAD_REACTORS
330
2A
102
}
102
{ACAD_XDICTIONARY
360
153
102
}
330
2A
100
AcDbVisualStyle
  2
Brighten
 70
    12
177
     2
291
     1
 71
     2
176
     1
 72
     2
176
     1
 73
     0
176
     1
 90
        0
176
     1
 40
0.6
176
     1
 41
30.0
176
     1
 62
     5
 63
     7
421
 16777215
176
     1
 74
     1
176
     1
 91
        4
176
     1
 64
     7
176
     1
 65
   257
176
     1
 75
     1
176
     1
175
     1
176
     1
 42
1.0
176
     1
 92
        8
176
     1
 66
     7
176
     1
 43
1.0
176
     1
 76
     1
176
     1
 77
     6
176
     1
 78
     2
176
     1
 67
     7
176
     1
 79
     5
176
     1
170
     0
176
     1
171
     0
176
     1
290
     0
176
     1
 93
        1
176
     1
 44
50.0
176
     1
173
     0
176
     1
  0
VISUALSTYLE
  5
3A
102
{ACAD_REACTORS
330
2A
102
}
102
{ACAD_XDICTIONARY
360
15B
102
}
330
2A
100
AcDbVisualStyle
  2
ColorChange
 70
    16
177
     2
291
     1
 71
     2
176
     1
 72
     2
176
     1
 73
     3
176
     1
 90
        0
176
     1
 40
0.6
176
     1
 41
30.0
176
     1
 62
     5
 63
     8
421
  8421504
176
     1
 74
     1
176
     1
 91
        4
176
     1
 64
     7
176
     1
 65
   257
176
     1
 75
     1
176
     1
175
     1
176
     1
 42
1.0
176
     1
 92
        8
176
     1
 66
     8
424
  8421504
176
     1
 43
1.0
176
     1
 76
     1
176
     1
 77
     6
176
     1
 78
     2
176
     1
 67
     7
176
     1
 79
     5
176
     1
170
     0
176
     1
171
     0
176
     1
290
     0
176
     1
 93
        1
176
     1
 44
0.0
176
     1
173
     0
176
     1
  0
VISUALSTYLE
  5
34
102
{ACAD_REACTORS
330
2A
102
}
102
{ACAD_XDICTIONARY
360
14F
102
}
330
2A
100
AcDbVisualStyle
  2
Conceptual
 70
     9
177
     2
291
     0
 71
     3
176
     1
 72
     2
176
     1
 73
     0
176
     1
 90
        0
176
     1
 40
0.6
176
     1
 41
30.0
176
     1
 62
     5
 63
     7
421
 16777215
176
     1
 74
     2
176
     1
 91
        2
176
     1
 64
     7
176
     1
 65
   257
176
     1
 75
     1
176
     1
175
     1
176
     1
 42
179.0
176
     1
 92
        8
176
     1
 66
     7
176
     1
 43
1.0
176
     1
 76
     1
176
     1
 77
     6
176
     1
 78
     2
176
     1
 67
     7
176
     1
 79
     3
176
     1
170
     0
176
     1
171
     0
176
     1
290
     0
176
     1
 93
        1
176
     1
 44
0.0
176
     1
173
     0
176
     1
  0
VISUALSTYLE
  5
35
102
{ACAD_REACTORS
330
2A
102
}
102
{ACAD_XDICTIONARY
360
151
102
}
330
2A
100
AcDbVisualStyle
  2
Dim
 70
    11
177
     2
291
     1
 71
     2
176
     1
 72
     2
176
     1
 73
     0
176
     1
 90
        0
176
     1
 40
0.6
176
     1
 41
30.0
176
     1
 62
     5
 63
     7
421
 16777215
176
     1
 74
     1
176
     1
 91
        4
176
     1
 64
     7
176
     1
 65
   257
176
     1
 75
     1
176
     1
175
     1
176
     1
 42
1.0
176
     1
 92
        8
176
     1
 66
     7
176
     1
 43
1.0
176
     1
 76
     1
176
     1
 77
     6
176
     1
 78
     2
176
     1
 67
     7
176
     1
 79
     5
176
     1
170
     0
176
     1
171
     0
176
     1
290
     0
176
     1
 93
        1
176
     1
 44
-50.0
176
     1
173
     0
176
     1
  0
VISUALSTYLE
  5
3D
102
{ACAD_REACTORS
330
2A
102
}
102
{ACAD_XDICTIONARY
360
161
102
}
330
2A
100
AcDbVisualStyle
  2
EdgeColorOff
 70
    22
177
     2
291
     1
 71
     2
176
     0
 72
     2
176
     0
 73
     0
176
     0
 90
        0
176
     0
 40
0.6
176
     0
 41
30.0
176
     0
 62
     5
 63
     7
421
 16777215
176
     0
 74
     1
176
     0
 91
        4
176
     0
 64
     7
176
     0
 65
   257
176
     0
 75
     1
176
     0
175
     1
176
     0
 42
1.0
176
     0
 92
        8
176
     2
 66
     7
176
     0
 43
1.0
176
     0
 76
     1
176
     0
 77
     6
176
     0
 78
     2
176
     0
 67
     7
176
     0
 79
     5
176
     0
170
     0
176
     0
171
     0
176
     0
290
     0
176
     0
 93
        1
176
     0
 44
0.0
176
     0
173
     0
176
     0
  0
VISUALSTYLE
  5
39
102
{ACAD_REACTORS
330
2A
102
}
102
{ACAD_XDICTIONARY
360
159
102
}
330
2A
100
AcDbVisualStyle
  2
Facepattern
 70
    15
177
     2
291
     1
 71
     2
176
     1
 72
     2
176
     1
 73
     0
176
     1
 90
        0
176
     1
 40
0.6
176
     1
 41
30.0
176
     1
 62
     5
 63
     7
421
 16777215
176
     1
 74
     1
176
     1
 91
        4
176
     1
 64
     7
176
     1
 65
   257
176
     1
 75
     1
176
     1
175
     1
176
     1
 42
1.0
176
     1
 92
        8
176
     1
 66
     7
176
     1
 43
1.0
176
     1
 76
     1
176
     1
 77
     6
176
     1
 78
     2
176
     1
 67
     7
176
     1
 79
     5
176
     1
170
     0
176
     1
171
     0
176
     1
290
     0
176
     1
 93
        1
176
     1
 44
0.0
176
     1
173
     0
176
     1
  0
VISUALSTYLE
  5
2B
102
{ACAD_REACTORS
330
2A
102
}
102
{ACAD_XDICTIONARY
360
13D
102
}
330
2A
100
AcDbVisualStyle
  2
Flat
 70
     0
177
     2
291
     1
 71
     2
176
     1
 72
     1
176
     1
 73
     1
176
     1
 90
        2
176
     1
 40
0.6
176
     1
 41
30.0
176
     1
 62
     5
 63
     7
421
 16777215
176
     1
 74
     0
176
     1
 91
        0
176
     1
 64
     7
176
     1
 65
   257
176
     1
 75
     1
176
     1
175
     1
176
     1
 42
1.0
176
     1
 92
        8
176
     1
 66
     7
176
     1
 43
1.0
176
     1
 76
     1
176
     1
 77
     6
176
     1
 78
     2
176
     1
 67
     7
176
     1
 79
     5
176
     1
170
     0
176
     1
171
     0
176
     1
290
     0
176
     1
 93
       13
176
     1
 44
0.0
176
     1
173
     0
176
     1
  0
VISUALSTYLE
  5
2C
102
{ACAD_REACTORS
330
2A
102
}
102
{ACAD_XDICTIONARY
360
13F
102
}
330
2A
100
AcDbVisualStyle
  2
FlatWithEdges
 70
     1
177
     2
291
     1
 71
     2
176
     1
 72
     1
176
     1
 73
     1
176
     1
 90
        2
176
     1
 40
0.6
176
     1
 41
30.0
176
     1
 62
     5
 63
     7
421
 16777215
176
     1
 74
     1
176
     1
 91
        0
176
     1
 64
     7
176
     1
 65
   257
176
     1
 75
     1
176
     1
175
     1
176
     1
 42
1.0
176
     1
 92
        0
176
     1
 66
   257
176
     1
 43
1.0
176
     1
 76
     1
176
     1
 77
     6
176
     1
 78
     2
176
     1
 67
     7
176
     1
 79
     5
176
     1
170
     0
176
     1
171
     0
176
     1
290
     0
176
     1
 93
       13
176
     1
 44
0.0
176
     1
173
     0
176
     1
  0
VISUALSTYLE
  5
2D
102
{ACAD_REACTORS
330
2A
102
}
102
{ACAD_XDICTIONARY
360
141
102
}
330
2A
100
AcDbVisualStyle
  2
Gouraud
 70
     2
177
     2
291
     1
 71
     2
176
     1
 72
     2
176
     1
 73
     1
176
     1
 90
        2
176
     1
 40
0.6
176
     1
 41
30.0
176
     1
 62
     5
 63
     7
421
 16777215
176
     1
 74
     0
176
     1
 91
        0
176
     1
 64
     7
176
     1
 65
   257
176
     1
 75
     1
176
     1
175
     1
176
     1
 42
1.0
176
     1
 92
        0
176
     1
 66
     7
176
     1
 43
1.0
176
     1
 76
     1
176
     1
 77
     6
176
     1
 78
     2
176
     1
 67
     7
176
     1
 79
     5
176
     1
170
     0
176
     1
171
     0
176
     1
290
     0
176
     1
 93
       13
176
     1
 44
0.0
176
     1
173
     0
176
     1
  0
VISUALSTYLE
  5
2E
102
{ACAD_REACTORS
330
2A
102
}
102
{ACAD_XDICTIONARY
360
143
102
}
330
2A
100
AcDbVisualStyle
  2
GouraudWithEdges
 70
     3
177
     2
291
     1
 71
     2
176
     1
 72
     2
176
     1
 73
     1
176
     1
 90
        2
176
     1
 40
0.6
176
     1
 41
30.0
176
     1
 62
     5
 63
     7
421
 16777215
176
     1
 74
     1
176
     1
 91
        0
176
     1
 64
     7
176
     1
 65
   257
176
     1
 75
     1
176
     1
175
     1
176
     1
 42
1.0
176
     1
 92
        0
176
     1
 66
   257
176
     1
 43
1.0
176
     1
 76
     1
176
     1
 77
     6
176
     1
 78
     2
176
     1
 67
     7
176
     1
 79
     5
176
     1
170
     0
176
     1
171
     0
176
     1
290
     0
176
     1
 93
       13
176
     1
 44
0.0
176
     1
173
     0
176
     1
  0
VISUALSTYLE
  5
31
102
{ACAD_REACTORS
330
2A
102
}
102
{ACAD_XDICTIONARY
360
149
102
}
330
2A
100
AcDbVisualStyle
  2
Hidden
 70
     6
177
     2
291
     0
 71
     1
176
     1
 72
     2
176
     1
 73
     2
176
     1
 90
        0
176
     1
 40
0.6
176
     1
 41
30.0
176
     1
 62
     5
 63
     7
421
 16777215
176
     1
 74
     2
176
     1
 91
        2
176
     1
 64
     7
176
     1
 65
   257
176
     1
 75
     2
176
     1
175
     1
176
     1
 42
40.0
176
     1
 92
        0
176
     1
 66
   257
176
     1
 43
1.0
176
     1
 76
     1
176
     1
 77
     6
176
     1
 78
     2
176
     1
 67
     7
176
     1
 79
     3
176
     1
170
     0
176
     1
171
     0
176
     1
290
     0
176
     1
 93
        1
176
     1
 44
0.0
176
     1
173
     0
176
     1
  0
VISUALSTYLE
  5
3B
102
{ACAD_REACTORS
330
2A
102
}
102
{ACAD_XDICTIONARY
360
15D
102
}
330
2A
100
AcDbVisualStyle
  2
JitterOff
 70
    20
177
     2
291
     1
 71
     2
176
     0
 72
     2
176
     0
 73
     0
176
     0
 90
        0
176
     0
 40
0.6
176
     0
 41
30.0
176
     0
 62
     5
 63
     7
421
 16777215
176
     0
 74
     1
176
     0
 91
        4
176
     0
 64
     7
176
     0
 65
   257
176
     0
 75
     1
176
     0
175
     1
176
     0
 42
1.0
176
     0
 92
       10
176
     2
 66
     7
176
     0
 43
1.0
176
     0
 76
     1
176
     0
 77
     6
176
     0
 78
     2
176
     0
 67
     7
176
     0
 79
     5
176
     0
170
     0
176
     0
171
     0
176
     0
290
     0
176
     0
 93
        1
176
     0
 44
0.0
176
     0
173
     0
176
     0
  0
VISUALSTYLE
  5
38
102
{ACAD_REACTORS
330
2A
102
}
102
{ACAD_XDICTIONARY
360
157
102
}
330
2A
100
AcDbVisualStyle
  2
Linepattern
 70
    14
177
     2
291
     1
 71
     2
176
     1
 72
     2
176
     1
 73
     0
176
     1
 90
        0
176
     1
 40
0.6
176
     1
 41
30.0
176
     1
 62
     5
 63
     7
421
 16777215
176
     1
 74
     1
176
     1
 91
        4
176
     1
 64
     7
176
     1
 65
   257
176
     1
 75
     7
176
     1
175
     7
176
     1
 42
1.0
176
     1
 92
        8
176
     1
 66
     7
176
     1
 43
1.0
176
     1
 76
     1
176
     1
 77
     6
176
     1
 78
     2
176
     1
 67
     7
176
     1
 79
     5
176
     1
170
     0
176
     1
171
     0
176
     1
290
     0
176
     1
 93
        1
176
     1
 44
0.0
176
     1
173
     0
176
     1
  0
VISUALSTYLE
  5
3C
102
{ACAD_REACTORS
330
2A
102
}
102
{ACAD_XDICTIONARY
360
15F
102
}
330
2A
100
AcDbVisualStyle
  2
OverhangOff
 70
    21
177
     2
291
     1
 71
     2
176
     0
 72
     2
176
     0
 73
     0
176
     0
 90
        0
176
     0
 40
0.6
176
     0
 41
30.0
176
     0
 62
     5
 63
     7
421
 16777215
176
     0
 74
     1
176
     0
 91
        4
176
     0
 64
     7
176
     0
 65
   257
176
     0
 75
     1
176
     0
175
     1
176
     0
 42
1.0
176
     0
 92
        9
176
     2
 66
     7
176
     0
 43
1.0
176
     0
 76
     1
176
     0
 77
     6
176
     0
 78
     2
176
     0
 67
     7
176
     0
 79
     5
176
     0
170
     0
176
     0
171
     0
176
     0
290
     0
176
     0
 93
        1
176
     0
 44
0.0
176
     0
173
     0
176
     0
  0
VISUALSTYLE
  5
33
102
{ACAD_REACTORS
330
2A
102
}
102
{ACAD_XDICTIONARY
360
14D
102
}
330
2A
100
AcDbVisualStyle
  2
Realistic
 70
     8
177
     2
291
     0
 71
     2
176
     1
 72
     3
176
     1
 73
     0
176
     1
 90
        2
176
     1
 40
0.6
176
     1
 41
30.0
176
     1
 62
     5
 63
     7
421
 16777215
176
     1
 74
     0
176
     1
 91
        0
176
     1
 64
     7
176
     1
 65
   257
176
     1
 75
     1
176
     1
175
     1
176
     1
 42
1.0
176
     1
 92
        8
176
     1
 66
   257
176
     1
 43
1.0
176
     1
 76
     1
176
     1
 77
     6
176
     1
 78
     2
176
     1
 67
     7
176
     1
 79
     3
176
     1
170
     0
176
     1
171
     0
176
     1
290
     0
176
     1
 93
       13
176
     1
 44
0.0
176
     1
173
     0
176
     1
  0
VISUALSTYLE
  5
42
102
{ACAD_REACTORS
330
2A
102
}
102
{ACAD_XDICTIONARY
360
16B
102
}
330
2A
100
AcDbVisualStyle
  2
Shaded
 70
    27
177
     2
291
     0
 71
     2
176
     1
 72
     2
176
     1
 73
     1
176
     1
 90
        2
176
     1
 40
0.6
176
     1
 41
30.0
176
     1
 62
     5
 63
     7
421
 16777215
176
     1
 74
     0
176
     1
 91
        4
176
     1
 64
     7
176
     1
 65
   257
176
     1
 75
     1
176
     1
175
     1
176
     1
 42
1.0
176
     1
 92
        8
176
     1
 66
   257
176
     1
 43
1.0
176
     1
 76
     1
176
     1
 77
     6
176
     1
 78
     2
176
     1
 67
     8
425
  7895160
176
     1
 79
     3
176
     1
170
     0
176
     1
171
     0
176
     1
290
     0
176
     1
 93
        5
176
     1
 44
0.0
176
     1
173
     0
176
     1
  0
VISUALSTYLE
  5
41
102
{ACAD_REACTORS
330
2A
102
}
102
{ACAD_XDICTIONARY
360
169
102
}
330
2A
100
AcDbVisualStyle
  2
Shaded with edges
 70
    26
177
     2
291
     0
 71
     2
176
     1
 72
     2
176
     1
 73
     1
176
     1
 90
        2
176
     1
 40
0.6
176
     1
 41
30.0
176
     1
 62
     5
 63
     7
421
 16777215
176
     1
 74
     1
176
     1
 91
       10
176
     1
 64
     7
176
     1
 65
   257
176
     1
 75
     2
176
     1
175
     1
176
     1
 42
1.0
176
     1
 92
        8
176
     1
 66
   257
176
     1
 43
1.0
176
     1
 76
     1
176
     1
 77
     6
176
     1
 78
     2
176
     1
 67
     7
176
     1
 79
     3
176
     1
170
     0
176
     1
171
     0
176
     1
290
     0
176
     1
 93
        5
176
     1
 44
0.0
176
     1
173
     0
176
     1
  0
VISUALSTYLE
  5
3E
102
{ACAD_REACTORS
330
2A
102
}
102
{ACAD_XDICTIONARY
360
163
102
}
330
2A
100
AcDbVisualStyle
  2
Shades of Gray
 70
    23
177
     2
291
     0
 71
     2
176
     1
 72
     2
176
     1
 73
     3
176
     1
 90
        0
176
     1
 40
0.6
176
     1
 41
30.0
176
     1
 62
     5
 63
     7
421
 16777215
176
     1
 74
     2
176
     1
 91
        2
176
     1
 64
     7
176
     1
 65
     7
176
     1
 75
     1
176
     1
175
     1
176
     1
 42
40.0
176
     1
 92
        8
176
     1
 66
     7
176
     1
 43
1.0
176
     1
 76
     1
176
     1
 77
     6
176
     1
 78
     2
176
     1
 67
     7
176
     1
 79
     3
176
     1
170
     0
176
     1
171
     0
176
     1
290
     0
176
     1
 93
        1
176
     1
 44
0.0
176
     1
173
     0
176
     1
  0
VISUALSTYLE
  5
3F
102
{ACAD_REACTORS
330
2A
102
}
102
{ACAD_XDICTIONARY
360
165
102
}
330
2A
100
AcDbVisualStyle
  2
Sketchy
 70
    24
177
     2
291
     0
 71
     1
176
     1
 72
     2
176
     1
 73
     2
176
     1
 90
        0
176
     1
 40
0.6
176
     1
 41
30.0
176
     1
 62
     5
 63
     7
421
 16777215
176
     1
 74
     2
176
     1
 91
        2
176
     1
 64
     7
176
     1
 65
     7
176
     1
 75
     1
176
     1
175
     1
176
     1
 42
40.0
176
     1
 92
       11
176
     1
 66
     7
176
     1
 43
1.0
176
     1
 76
     1
176
     1
 77
     6
176
     1
 78
     2
176
     1
 67
     7
176
     1
 79
     6
176
     1
170
     0
176
     1
171
     0
176
     1
290
     0
176
     1
 93
        1
176
     1
 44
0.0
176
     1
173
     0
176
     1
  0
VISUALSTYLE
  5
37
102
{ACAD_REACTORS
330
2A
102
}
102
{ACAD_XDICTIONARY
360
155
102
}
330
2A
100
AcDbVisualStyle
  2
Thicken
 70
    13
177
     2
291
     1
 71
     2
176
     1
 72
     2
176
     1
 73
     0
176
     1
 90
        0
176
     1
 40
0.6
176
     1
 41
30.0
176
     1
 62
     5
 63
     7
421
 16777215
176
     1
 74
     1
176
     1
 91
        4
176
     1
 64
     7
176
     1
 65
   257
176
     1
 75
     1
176
     1
175
     1
176
     1
 42
1.0
176
     1
 92
       12
176
     1
 66
     7
176
     1
 43
1.0
176
     1
 76
     1
176
     1
 77
     6
176
     1
 78
     2
176
     1
 67
     7
176
     1
 79
     5
176
     1
170
     0
176
     1
171
     0
176
     1
290
     0
176
     1
 93
        1
176
     1
 44
0.0
176
     1
173
     0
176
     1
  0
VISUALSTYLE
  5
30
102
{ACAD_REACTORS
330
2A
102
}
102
{ACAD_XDICTIONARY
360
147
102
}
330
2A
100
AcDbVisualStyle
  2
Wireframe
 70
     5
177
     2
291
     0
 71
     0
176
     1
 72
     2
176
     1
 73
     0
176
     1
 90
        0
176
     1
 40
0.6
176
     1
 41
30.0
176
     1
 62
     5
 63
     7
421
 16777215
176
     1
 74
     1
176
     1
 91
        4
176
     1
 64
     7
176
     1
 65
   257
176
     1
 75
     1
176
     1
175
     1
176
     1
 42
1.0
176
     1
 92
        0
176
     1
 66
   257
176
     1
 43
1.0
176
     1
 76
     1
176
     1
 77
     6
176
     1
 78
     2
176
     1
 67
     7
176
     1
 79
     3
176
     1
170
     0
176
     1
171
     0
176
     1
290
     0
176
     1
 93
        1
176
     1
 44
0.0
176
     1
173
     0
176
     1
  0
VISUALSTYLE
  5
40
102
{ACAD_REACTORS
330
2A
102
}
102
{ACAD_XDICTIONARY
360
167
102
}
330
2A
100
AcDbVisualStyle
  2
X-Ray
 70
    25
177
     2
291
     0
 71
     2
176
     1
 72
     2
176
     1
 73
     1
176
     1
 90
        1
176
     1
 40
0.5
176
     1
 41
30.0
176
     1
 62
     5
 63
     7
421
 16777215
176
     1
 74
     1
176
     1
 91
        0
176
     1
 64
     7
176
     1
 65
   257
176
     1
 75
     1
176
     1
175
     1
176
     1
 42
1.0
176
     1
 92
        8
176
     1
 66
     7
176
     1
 43
1.0
176
     1
 76
     1
176
     1
 77
     6
176
     1
 78
     2
176
     1
 67
     7
176
     1
 79
     3
176
     1
170
     0
176
     1
171
     0
176
     1
290
     0
176
     1
 93
       13
176
     1
 44
0.0
176
     1
173
     0
176
     1
  0
DICTIONARYVAR
  5
13C
102
{ACAD_REACTORS
330
13B
102
}
330
13B
100
DictionaryVariables
280
     0
  1
1:1
  0
DICTIONARYVAR
  5
174
102
{ACAD_REACTORS
330
13B
102
}
330
13B
100
DictionaryVariables
280
     0
  1
3.500000
  0
DICTIONARYVAR
  5
175
102
{ACAD_REACTORS
330
13B
102
}
330
13B
100
DictionaryVariables
280
     0
  1
acadiso.lin
  0
DICTIONARYVAR
  5
171
102
{ACAD_REACTORS
330
13B
102
}
330
13B
100
DictionaryVariables
280
     0
  1
Standard
  0
DICTIONARYVAR
  5
170
102
{ACAD_REACTORS
330
13B
102
}
330
13B
100
DictionaryVariables
280
     0
  1
Standard
  0
DICTIONARY
  5
16D
330
5A
100
AcDbDictionary
280
     1
281
     1
  3
ACAD_ROUNDTRIP_2008_TABLESTYLE_CELLSTYLEMAP
360
16E
  0
DICTIONARY
  5
145
330
2F
100
AcDbDictionary
280
     1
281
     1
  3
ACAD_XREC_ROUNDTRIP
360
146
  0
DICTIONARY
  5
14B
330
32
100
AcDbDictionary
280
     1
281
     1
  3
ACAD_XREC_ROUNDTRIP
360
14C
  0
DICTIONARY
  5
153
330
36
100
AcDbDictionary
280
     1
281
     1
  3
ACAD_XREC_ROUNDTRIP
360
154
  0
DICTIONARY
  5
15B
330
3A
100
AcDbDictionary
280
     1
281
     1
  3
ACAD_XREC_ROUNDTRIP
360
15C
  0
DICTIONARY
  5
14F
330
34
100
AcDbDictionary
280
     1
281
     1
  3
ACAD_XREC_ROUNDTRIP
360
150
  0
DICTIONARY
  5
151
330
35
100
AcDbDictionary
280
     1
281
     1
  3
ACAD_XREC_ROUNDTRIP
360
152
  0
DICTIONARY
  5
161
330
3D
100
AcDbDictionary
280
     1
281
     1
  3
ACAD_XREC_ROUNDTRIP
360
162
  0
DICTIONARY
  5
159
330
39
100
AcDbDictionary
280
     1
281
     1
  3
ACAD_XREC_ROUNDTRIP
360
15A
  0
DICTIONARY
  5
13D
330
2B
100
AcDbDictionary
280
     1
281
     1
  3
ACAD_XREC_ROUNDTRIP
360
13E
  0
DICTIONARY
  5
13F
330
2C
100
AcDbDictionary
280
     1
281
     1
  3
ACAD_XREC_ROUNDTRIP
360
140
  0
DICTIONARY
  5
141
330
2D
100
AcDbDictionary
280
     1
281
     1
  3
ACAD_XREC_ROUNDTRIP
360
142
  0
DICTIONARY
  5
143
330
2E
100
AcDbDictionary
280
     1
281
     1
  3
ACAD_XREC_ROUNDTRIP
360
144
  0
DICTIONARY
  5
149
330
31
100
AcDbDictionary
280
     1
281
     1
  3
ACAD_XREC_ROUNDTRIP
360
14A
  0
DICTIONARY
  5
15D
330
3B
100
AcDbDictionary
280
     1
281
     1
  3
ACAD_XREC_ROUNDTRIP
360
15E
  0
DICTIONARY
  5
157
330
38
100
AcDbDictionary
280
     1
281
     1
  3
ACAD_XREC_ROUNDTRIP
360
158
  0
DICTIONARY
  5
15F
330
3C
100
AcDbDictionary
280
     1
281
     1
  3
ACAD_XREC_ROUNDTRIP
360
160
  0
DICTIONARY
  5
14D
330
33
100
AcDbDictionary
280
     1
281
     1
  3
ACAD_XREC_ROUNDTRIP
360
14E
  0
DICTIONARY
  5
16B
330
42
100
AcDbDictionary
280
     1
281
     1
  3
ACAD_XREC_ROUNDTRIP
360
16C
  0
DICTIONARY
  5
169
330
41
100
AcDbDictionary
280
     1
281
     1
  3
ACAD_XREC_ROUNDTRIP
360
16A
  0
DICTIONARY
  5
163
330
3E
100
AcDbDictionary
280
     1
281
     1
  3
ACAD_XREC_ROUNDTRIP
360
164
  0
DICTIONARY
  5
165
330
3F
100
AcDbDictionary
280
     1
281
     1
  3
ACAD_XREC_ROUNDTRIP
360
166
  0
DICTIONARY
  5
155
330
37
100
AcDbDictionary
280
     1
281
     1
  3
ACAD_XREC_ROUNDTRIP
360
156
  0
DICTIONARY
  5
147
330
30
100
AcDbDictionary
280
     1
281
     1
  3
ACAD_XREC_ROUNDTRIP
360
148
  0
DICTIONARY
  5
167
330
40
100
AcDbDictionary
280
     1
281
     1
  3
ACAD_XREC_ROUNDTRIP
360
168
  0
CELLSTYLEMAP
  5
16E
102
{ACAD_REACTORS
330
16D
102
}
330
16D
100
AcDbCellStyleMap
 90
        3
300
CELLSTYLE
  1
TABLEFORMAT_BEGIN
 90
        5
170
     1
 91
        0
 92
    32768
 62
   257
 93
        1
300
CONTENTFORMAT
  1
CONTENTFORMAT_BEGIN
 90
        0
 91
        0
 92
        4
 93
        0
300

 40
0.0
140
1.0
 94
        5
 62
     0
340
11
144
6.0
309
CONTENTFORMAT_END
171
     1
301
MARGIN
  1
CELLMARGIN_BEGIN
 40
1.5
 40
1.5
 40
1.5
 40
1.5
 40
1.5
 40
1.5
309
CELLMARGIN_END
 94
        6
 95
        1
302
GRIDFORMAT
  1
GRIDFORMAT_BEGIN
 90
        0
 91
        1
 62
     0
 92
       -2
340
14
 93
        0
 40
0.045
309
GRIDFORMAT_END
 95
        2
302
GRIDFORMAT
  1
GRIDFORMAT_BEGIN
 90
        0
 91
        1
 62
     0
 92
       -2
340
14
 93
        0
 40
0.045
309
GRIDFORMAT_END
 95
        4
302
GRIDFORMAT
  1
GRIDFORMAT_BEGIN
 90
        0
 91
        1
 62
     0
 92
       -2
340
14
 93
        0
 40
0.045
309
GRIDFORMAT_END
 95
        8
302
GRIDFORMAT
  1
GRIDFORMAT_BEGIN
 90
        0
 91
        1
 62
     0
 92
       -2
340
14
 93
        0
 40
0.045
309
GRIDFORMAT_END
 95
       16
302
GRIDFORMAT
  1
GRIDFORMAT_BEGIN
 90
        0
 91
        1
 62
     0
 92
       -2
340
14
 93
        0
 40
0.045
309
GRIDFORMAT_END
 95
       32
302
GRIDFORMAT
  1
GRIDFORMAT_BEGIN
 90
        0
 91
        1
 62
     0
 92
       -2
340
14
 93
        0
 40
0.045
309
GRIDFORMAT_END
309
TABLEFORMAT_END
  1
CELLSTYLE_BEGIN
 90
        1
 91
        1
300
_TITLE
309
CELLSTYLE_END
300
CELLSTYLE
  1
TABLEFORMAT_BEGIN
 90
        5
170
     1
 91
        0
 92
        0
 62
   257
 93
        1
300
CONTENTFORMAT
  1
CONTENTFORMAT_BEGIN
 90
        0
 91
        0
 92
        4
 93
        0
300

 40
0.0
140
1.0
 94
        5
 62
     0
340
11
144
4.5
309
CONTENTFORMAT_END
171
     1
301
MARGIN
  1
CELLMARGIN_BEGIN
 40
1.5
 40
1.5
 40
1.5
 40
1.5
 40
1.5
 40
1.5
309
CELLMARGIN_END
 94
        6
 95
        1
302
GRIDFORMAT
  1
GRIDFORMAT_BEGIN
 90
        0
 91
        1
 62
     0
 92
       -2
340
14
 93
        0
 40
0.045
309
GRIDFORMAT_END
 95
        2
302
GRIDFORMAT
  1
GRIDFORMAT_BEGIN
 90
        0
 91
        1
 62
     0
 92
       -2
340
14
 93
        0
 40
0.045
309
GRIDFORMAT_END
 95
        4
302
GRIDFORMAT
  1
GRIDFORMAT_BEGIN
 90
        0
 91
        1
 62
     0
 92
       -2
340
14
 93
        0
 40
0.045
309
GRIDFORMAT_END
 95
        8
302
GRIDFORMAT
  1
GRIDFORMAT_BEGIN
 90
        0
 91
        1
 62
     0
 92
       -2
340
14
 93
        0
 40
0.045
309
GRIDFORMAT_END
 95
       16
302
GRIDFORMAT
  1
GRIDFORMAT_BEGIN
 90
        0
 91
        1
 62
     0
 92
       -2
340
14
 93
        0
 40
0.045
309
GRIDFORMAT_END
 95
       32
302
GRIDFORMAT
  1
GRIDFORMAT_BEGIN
 90
        0
 91
        1
 62
     0
 92
       -2
340
14
 93
        0
 40
0.045
309
GRIDFORMAT_END
309
TABLEFORMAT_END
  1
CELLSTYLE_BEGIN
 90
        2
 91
        1
300
_HEADER
309
CELLSTYLE_END
300
CELLSTYLE
  1
TABLEFORMAT_BEGIN
 90
        5
170
     1
 91
        0
 92
        0
 62
   257
 93
        1
300
CONTENTFORMAT
  1
CONTENTFORMAT_BEGIN
 90
        0
 91
        0
 92
        4
 93
        0
300

 40
0.0
140
1.0
 94
        2
 62
     0
340
11
144
4.5
309
CONTENTFORMAT_END
171
     1
301
MARGIN
  1
CELLMARGIN_BEGIN
 40
1.5
 40
1.5
 40
1.5
 40
1.5
 40
1.5
 40
1.5
309
CELLMARGIN_END
 94
        6
 95
        1
302
GRIDFORMAT
  1
GRIDFORMAT_BEGIN
 90
        0
 91
        1
 62
     0
 92
       -2
340
14
 93
        0
 40
0.045
309
GRIDFORMAT_END
 95
        2
302
GRIDFORMAT
  1
GRIDFORMAT_BEGIN
 90
        0
 91
        1
 62
     0
 92
       -2
340
14
 93
        0
 40
0.045
309
GRIDFORMAT_END
 95
        4
302
GRIDFORMAT
  1
GRIDFORMAT_BEGIN
 90
        0
 91
        1
 62
     0
 92
       -2
340
14
 93
        0
 40
0.045
309
GRIDFORMAT_END
 95
        8
302
GRIDFORMAT
  1
GRIDFORMAT_BEGIN
 90
        0
 91
        1
 62
     0
 92
       -2
340
14
 93
        0
 40
0.045
309
GRIDFORMAT_END
 95
       16
302
GRIDFORMAT
  1
GRIDFORMAT_BEGIN
 90
        0
 91
        1
 62
     0
 92
       -2
340
14
 93
        0
 40
0.045
309
GRIDFORMAT_END
 95
       32
302
GRIDFORMAT
  1
GRIDFORMAT_BEGIN
 90
        0
 91
        1
 62
     0
 92
       -2
340
14
 93
        0
 40
0.045
309
GRIDFORMAT_END
309
TABLEFORMAT_END
  1
CELLSTYLE_BEGIN
 90
        3
 91
        2
300
_DATA
309
CELLSTYLE_END
  0
XRECORD
  5
146
102
{ACAD_REACTORS
330
145
102
}
330
145
100
AcDbXrecord
280
     1
102
RTVSPost2010Prop28
280
     1
102
RTVSPost2010PropOp28
 70
     1
102
RTVSPost2010Prop29
280
     1
102
RTVSPost2010PropOp29
 70
     1
102
RTVSPost2010Prop30
280
     0
102
RTVSPost2010PropOp30
 70
     1
102
RTVSPost2010Prop31
280
     0
102
RTVSPost2010PropOp31
 70
     1
102
RTVSPost2010Prop32
280
     0
102
RTVSPost2010PropOp32
 70
     1
102
RTVSPost2010Prop33
280
     0
102
RTVSPost2010PropOp33
 70
     1
102
RTVSPost2010Prop34
280
     0
102
RTVSPost2010PropOp34
 70
     1
102
RTVSPost2010Prop35
280
     0
102
RTVSPost2010PropOp35
 70
     1
102
RTVSPost2010Prop36
280
     0
102
RTVSPost2010PropOp36
 70
     1
102
RTVSPost2010Prop37
 90
       50
102
RTVSPost2010PropOp37
 70
     1
102
RTVSPost2010Prop38
140
0.0
102
RTVSPost2010PropOp38
 70
     1
102
RTVSPost2010Prop39
140
1.0
102
RTVSPost2010PropOp39
 70
     1
102
RTVSPost2010Prop40
 90
        0
102
RTVSPost2010PropOp40
 70
     1
102
RTVSPost2010Prop41ColorIndex
 90
       18
102
RTVSPost2010Prop41ColorRGB
 90
        0
102
RTVSPost2010PropOp41
 70
     1
102
RTVSPost2010Prop42
 90
       50
102
RTVSPost2010PropOp42
 70
     1
102
RTVSPost2010Prop43
 90
        3
102
RTVSPost2010PropOp43
 70
     1
102
RTVSPost2010Prop44ColorIndex
 90
        5
102
RTVSPost2010Prop44ColorRGB
 90
      255
102
RTVSPost2010PropOp44
 70
     1
102
RTVSPost2010Prop45
280
     0
102
RTVSPost2010PropOp45
 70
     1
102
RTVSPost2010Prop46
 90
       50
102
RTVSPost2010PropOp46
 70
     1
102
RTVSPost2010Prop47
 90
       50
102
RTVSPost2010PropOp47
 70
     1
102
RTVSPost2010Prop48
 90
       50
102
RTVSPost2010PropOp48
 70
     1
102
RTVSPost2010Prop49
280
     0
102
RTVSPost2010PropOp49
 70
     1
102
RTVSPost2010Prop50
 90
       50
102
RTVSPost2010PropOp50
 70
     1
102
RTVSPost2010Prop51ColorIndex
 90
      256
102
RTVSPost2010Prop51ColorRGB
 90
-16777216
102
RTVSPost2010PropOp51
 70
     0
102
RTVSPost2010Prop52
140
1.0
102
RTVSPost2010PropOp52
 70
     0
102
RTVSPost2010Prop53
 90
        2
102
RTVSPost2010PropOp53
 70
     1
102
RTVSPost2010Prop54
  1
strokes_ogs.tif
102
RTVSPost2010PropOp54
 70
     1
102
RTVSPost2010Prop55
280
     0
102
RTVSPost2010PropOp55
 70
     1
102
RTVSPost2010Prop56
140
1.0
102
RTVSPost2010PropOp56
 70
     1
102
RTVSPost2010Prop57
140
1.0
102
RTVSPost2010PropOp57
 70
     1
  0
XRECORD
  5
14C
102
{ACAD_REACTORS
330
14B
102
}
330
14B
100
AcDbXrecord
280
     1
102
RTVSPost2010Prop28
280
     0
102
RTVSPost2010PropOp28
 70
     1
102
RTVSPost2010Prop29
280
     1
102
RTVSPost2010PropOp29
 70
     1
102
RTVSPost2010Prop30
280
     1
102
RTVSPost2010PropOp30
 70
     1
102
RTVSPost2010Prop31
280
     0
102
RTVSPost2010PropOp31
 70
     1
102
RTVSPost2010Prop32
280
     0
102
RTVSPost2010PropOp32
 70
     1
102
RTVSPost2010Prop33
280
     0
102
RTVSPost2010PropOp33
 70
     1
102
RTVSPost2010Prop34
280
     0
102
RTVSPost2010PropOp34
 70
     1
102
RTVSPost2010Prop35
280
     0
102
RTVSPost2010PropOp35
 70
     1
102
RTVSPost2010Prop36
280
     0
102
RTVSPost2010PropOp36
 70
     1
102
RTVSPost2010Prop37
 90
       50
102
RTVSPost2010PropOp37
 70
     1
102
RTVSPost2010Prop38
140
0.0
102
RTVSPost2010PropOp38
 70
     1
102
RTVSPost2010Prop39
140
1.0
102
RTVSPost2010PropOp39
 70
     1
102
RTVSPost2010Prop40
 90
        0
102
RTVSPost2010PropOp40
 70
     1
102
RTVSPost2010Prop41ColorIndex
 90
       18
102
RTVSPost2010Prop41ColorRGB
 90
        0
102
RTVSPost2010PropOp41
 70
     1
102
RTVSPost2010Prop42
 90
       50
102
RTVSPost2010PropOp42
 70
     1
102
RTVSPost2010Prop43
 90
        3
102
RTVSPost2010PropOp43
 70
     1
102
RTVSPost2010Prop44ColorIndex
 90
        5
102
RTVSPost2010Prop44ColorRGB
 90
      255
102
RTVSPost2010PropOp44
 70
     1
102
RTVSPost2010Prop45
280
     0
102
RTVSPost2010PropOp45
 70
     1
102
RTVSPost2010Prop46
 90
       50
102
RTVSPost2010PropOp46
 70
     1
102
RTVSPost2010Prop47
 90
       50
102
RTVSPost2010PropOp47
 70
     1
102
RTVSPost2010Prop48
 90
       50
102
RTVSPost2010PropOp48
 70
     1
102
RTVSPost2010Prop49
280
     0
102
RTVSPost2010PropOp49
 70
     1
102
RTVSPost2010Prop50
 90
       50
102
RTVSPost2010PropOp50
 70
     1
102
RTVSPost2010Prop51ColorIndex
 90
      256
102
RTVSPost2010Prop51ColorRGB
 90
-16777216
102
RTVSPost2010PropOp51
 70
     0
102
RTVSPost2010Prop52
140
1.0
102
RTVSPost2010PropOp52
 70
     0
102
RTVSPost2010Prop53
 90
        2
102
RTVSPost2010PropOp53
 70
     1
102
RTVSPost2010Prop54
  1
strokes_ogs.tif
102
RTVSPost2010PropOp54
 70
     1
102
RTVSPost2010Prop55
280
     0
102
RTVSPost2010PropOp55
 70
     1
102
RTVSPost2010Prop56
140
1.0
102
RTVSPost2010PropOp56
 70
     1
102
RTVSPost2010Prop57
140
1.0
102
RTVSPost2010PropOp57
 70
     1
  0
XRECORD
  5
154
102
{ACAD_REACTORS
330
153
102
}
330
153
100
AcDbXrecord
280
     1
102
RTVSPost2010Prop28
280
     0
102
RTVSPost2010PropOp28
 70
     1
102
RTVSPost2010Prop29
280
     1
102
RTVSPost2010PropOp29
 70
     1
102
RTVSPost2010Prop30
280
     1
102
RTVSPost2010PropOp30
 70
     1
102
RTVSPost2010Prop31
280
     0
102
RTVSPost2010PropOp31
 70
     1
102
RTVSPost2010Prop32
280
     0
102
RTVSPost2010PropOp32
 70
     1
102
RTVSPost2010Prop33
280
     0
102
RTVSPost2010PropOp33
 70
     1
102
RTVSPost2010Prop34
280
     0
102
RTVSPost2010PropOp34
 70
     1
102
RTVSPost2010Prop35
280
     0
102
RTVSPost2010PropOp35
 70
     1
102
RTVSPost2010Prop36
280
     0
102
RTVSPost2010PropOp36
 70
     1
102
RTVSPost2010Prop37
 90
       50
102
RTVSPost2010PropOp37
 70
     1
102
RTVSPost2010Prop38
140
0.0
102
RTVSPost2010PropOp38
 70
     1
102
RTVSPost2010Prop39
140
1.0
102
RTVSPost2010PropOp39
 70
     1
102
RTVSPost2010Prop40
 90
        0
102
RTVSPost2010PropOp40
 70
     1
102
RTVSPost2010Prop41ColorIndex
 90
       18
102
RTVSPost2010Prop41ColorRGB
 90
        0
102
RTVSPost2010PropOp41
 70
     1
102
RTVSPost2010Prop42
 90
       50
102
RTVSPost2010PropOp42
 70
     1
102
RTVSPost2010Prop43
 90
        3
102
RTVSPost2010PropOp43
 70
     1
102
RTVSPost2010Prop44ColorIndex
 90
        5
102
RTVSPost2010Prop44ColorRGB
 90
      255
102
RTVSPost2010PropOp44
 70
     1
102
RTVSPost2010Prop45
280
     0
102
RTVSPost2010PropOp45
 70
     1
102
RTVSPost2010Prop46
 90
       50
102
RTVSPost2010PropOp46
 70
     1
102
RTVSPost2010Prop47
 90
       50
102
RTVSPost2010PropOp47
 70
     1
102
RTVSPost2010Prop48
 90
       50
102
RTVSPost2010PropOp48
 70
     1
102
RTVSPost2010Prop49
280
     0
102
RTVSPost2010PropOp49
 70
     1
102
RTVSPost2010Prop50
 90
       50
102
RTVSPost2010PropOp50
 70
     1
102
RTVSPost2010Prop51ColorIndex
 90
      256
102
RTVSPost2010Prop51ColorRGB
 90
-16777216
102
RTVSPost2010PropOp51
 70
     0
102
RTVSPost2010Prop52
140
1.0
102
RTVSPost2010PropOp52
 70
     0
102
RTVSPost2010Prop53
 90
        2
102
RTVSPost2010PropOp53
 70
     1
102
RTVSPost2010Prop54
  1
strokes_ogs.tif
102
RTVSPost2010PropOp54
 70
     1
102
RTVSPost2010Prop55
280
     0
102
RTVSPost2010PropOp55
 70
     1
102
RTVSPost2010Prop56
140
1.0
102
RTVSPost2010PropOp56
 70
     1
102
RTVSPost2010Prop57
140
1.0
102
RTVSPost2010PropOp57
 70
     1
  0
XRECORD
  5
15C
102
{ACAD_REACTORS
330
15B
102
}
330
15B
100
AcDbXrecord
280
     1
102
RTVSPost2010Prop28
280
     0
102
RTVSPost2010PropOp28
 70
     1
102
RTVSPost2010Prop29
280
     1
102
RTVSPost2010PropOp29
 70
     1
102
RTVSPost2010Prop30
280
     1
102
RTVSPost2010PropOp30
 70
     1
102
RTVSPost2010Prop31
280
     0
102
RTVSPost2010PropOp31
 70
     1
102
RTVSPost2010Prop32
280
     0
102
RTVSPost2010PropOp32
 70
     1
102
RTVSPost2010Prop33
280
     0
102
RTVSPost2010PropOp33
 70
     1
102
RTVSPost2010Prop34
280
     0
102
RTVSPost2010PropOp34
 70
     1
102
RTVSPost2010Prop35
280
     0
102
RTVSPost2010PropOp35
 70
     1
102
RTVSPost2010Prop36
280
     0
102
RTVSPost2010PropOp36
 70
     1
102
RTVSPost2010Prop37
 90
       50
102
RTVSPost2010PropOp37
 70
     1
102
RTVSPost2010Prop38
140
0.0
102
RTVSPost2010PropOp38
 70
     1
102
RTVSPost2010Prop39
140
1.0
102
RTVSPost2010PropOp39
 70
     1
102
RTVSPost2010Prop40
 90
        0
102
RTVSPost2010PropOp40
 70
     1
102
RTVSPost2010Prop41ColorIndex
 90
       18
102
RTVSPost2010Prop41ColorRGB
 90
        0
102
RTVSPost2010PropOp41
 70
     1
102
RTVSPost2010Prop42
 90
       50
102
RTVSPost2010PropOp42
 70
     1
102
RTVSPost2010Prop43
 90
        3
102
RTVSPost2010PropOp43
 70
     1
102
RTVSPost2010Prop44ColorIndex
 90
        5
102
RTVSPost2010Prop44ColorRGB
 90
      255
102
RTVSPost2010PropOp44
 70
     1
102
RTVSPost2010Prop45
280
     0
102
RTVSPost2010PropOp45
 70
     1
102
RTVSPost2010Prop46
 90
       50
102
RTVSPost2010PropOp46
 70
     1
102
RTVSPost2010Prop47
 90
       50
102
RTVSPost2010PropOp47
 70
     1
102
RTVSPost2010Prop48
 90
       50
102
RTVSPost2010PropOp48
 70
     1
102
RTVSPost2010Prop49
280
     0
102
RTVSPost2010PropOp49
 70
     1
102
RTVSPost2010Prop50
 90
       50
102
RTVSPost2010PropOp50
 70
     1
102
RTVSPost2010Prop51ColorIndex
 90
      256
102
RTVSPost2010Prop51ColorRGB
 90
-16777216
102
RTVSPost2010PropOp51
 70
     0
102
RTVSPost2010Prop52
140
1.0
102
RTVSPost2010PropOp52
 70
     0
102
RTVSPost2010Prop53
 90
        2
102
RTVSPost2010PropOp53
 70
     1
102
RTVSPost2010Prop54
  1
strokes_ogs.tif
102
RTVSPost2010PropOp54
 70
     1
102
RTVSPost2010Prop55
280
     0
102
RTVSPost2010PropOp55
 70
     1
102
RTVSPost2010Prop56
140
1.0
102
RTVSPost2010PropOp56
 70
     1
102
RTVSPost2010Prop57
140
1.0
102
RTVSPost2010PropOp57
 70
     1
  0
XRECORD
  5
150
102
{ACAD_REACTORS
330
14F
102
}
330
14F
100
AcDbXrecord
280
     1
102
RTVSPost2010Prop28
280
     0
102
RTVSPost2010PropOp28
 70
     1
102
RTVSPost2010Prop29
280
     1
102
RTVSPost2010PropOp29
 70
     1
102
RTVSPost2010Prop30
280
     1
102
RTVSPost2010PropOp30
 70
     1
102
RTVSPost2010Prop31
280
     0
102
RTVSPost2010PropOp31
 70
     1
102
RTVSPost2010Prop32
280
     0
102
RTVSPost2010PropOp32
 70
     1
102
RTVSPost2010Prop33
280
     0
102
RTVSPost2010PropOp33
 70
     1
102
RTVSPost2010Prop34
280
     0
102
RTVSPost2010PropOp34
 70
     1
102
RTVSPost2010Prop35
280
     0
102
RTVSPost2010PropOp35
 70
     1
102
RTVSPost2010Prop36
280
     0
102
RTVSPost2010PropOp36
 70
     1
102
RTVSPost2010Prop37
 90
       50
102
RTVSPost2010PropOp37
 70
     1
102
RTVSPost2010Prop38
140
0.0
102
RTVSPost2010PropOp38
 70
     1
102
RTVSPost2010Prop39
140
1.0
102
RTVSPost2010PropOp39
 70
     1
102
RTVSPost2010Prop40
 90
        0
102
RTVSPost2010PropOp40
 70
     1
102
RTVSPost2010Prop41ColorIndex
 90
       18
102
RTVSPost2010Prop41ColorRGB
 90
        0
102
RTVSPost2010PropOp41
 70
     1
102
RTVSPost2010Prop42
 90
       50
102
RTVSPost2010PropOp42
 70
     1
102
RTVSPost2010Prop43
 90
        3
102
RTVSPost2010PropOp43
 70
     1
102
RTVSPost2010Prop44ColorIndex
 90
        5
102
RTVSPost2010Prop44ColorRGB
 90
      255
102
RTVSPost2010PropOp44
 70
     1
102
RTVSPost2010Prop45
280
     0
102
RTVSPost2010PropOp45
 70
     1
102
RTVSPost2010Prop46
 90
       50
102
RTVSPost2010PropOp46
 70
     1
102
RTVSPost2010Prop47
 90
       50
102
RTVSPost2010PropOp47
 70
     1
102
RTVSPost2010Prop48
 90
       50
102
RTVSPost2010PropOp48
 70
     1
102
RTVSPost2010Prop49
280
     0
102
RTVSPost2010PropOp49
 70
     1
102
RTVSPost2010Prop50
 90
       50
102
RTVSPost2010PropOp50
 70
     1
102
RTVSPost2010Prop51ColorIndex
 90
      256
102
RTVSPost2010Prop51ColorRGB
 90
-16777216
102
RTVSPost2010PropOp51
 70
     0
102
RTVSPost2010Prop52
140
1.0
102
RTVSPost2010PropOp52
 70
     0
102
RTVSPost2010Prop53
 90
        2
102
RTVSPost2010PropOp53
 70
     1
102
RTVSPost2010Prop54
  1
strokes_ogs.tif
102
RTVSPost2010PropOp54
 70
     1
102
RTVSPost2010Prop55
280
     0
102
RTVSPost2010PropOp55
 70
     1
102
RTVSPost2010Prop56
140
1.0
102
RTVSPost2010PropOp56
 70
     1
102
RTVSPost2010Prop57
140
1.0
102
RTVSPost2010PropOp57
 70
     1
  0
XRECORD
  5
152
102
{ACAD_REACTORS
330
151
102
}
330
151
100
AcDbXrecord
280
     1
102
RTVSPost2010Prop28
280
     0
102
RTVSPost2010PropOp28
 70
     1
102
RTVSPost2010Prop29
280
     1
102
RTVSPost2010PropOp29
 70
     1
102
RTVSPost2010Prop30
280
     1
102
RTVSPost2010PropOp30
 70
     1
102
RTVSPost2010Prop31
280
     0
102
RTVSPost2010PropOp31
 70
     1
102
RTVSPost2010Prop32
280
     0
102
RTVSPost2010PropOp32
 70
     1
102
RTVSPost2010Prop33
280
     0
102
RTVSPost2010PropOp33
 70
     1
102
RTVSPost2010Prop34
280
     0
102
RTVSPost2010PropOp34
 70
     1
102
RTVSPost2010Prop35
280
     0
102
RTVSPost2010PropOp35
 70
     1
102
RTVSPost2010Prop36
280
     0
102
RTVSPost2010PropOp36
 70
     1
102
RTVSPost2010Prop37
 90
       50
102
RTVSPost2010PropOp37
 70
     1
102
RTVSPost2010Prop38
140
0.0
102
RTVSPost2010PropOp38
 70
     1
102
RTVSPost2010Prop39
140
1.0
102
RTVSPost2010PropOp39
 70
     1
102
RTVSPost2010Prop40
 90
        0
102
RTVSPost2010PropOp40
 70
     1
102
RTVSPost2010Prop41ColorIndex
 90
       18
102
RTVSPost2010Prop41ColorRGB
 90
        0
102
RTVSPost2010PropOp41
 70
     1
102
RTVSPost2010Prop42
 90
       50
102
RTVSPost2010PropOp42
 70
     1
102
RTVSPost2010Prop43
 90
        3
102
RTVSPost2010PropOp43
 70
     1
102
RTVSPost2010Prop44ColorIndex
 90
        5
102
RTVSPost2010Prop44ColorRGB
 90
      255
102
RTVSPost2010PropOp44
 70
     1
102
RTVSPost2010Prop45
280
     0
102
RTVSPost2010PropOp45
 70
     1
102
RTVSPost2010Prop46
 90
       50
102
RTVSPost2010PropOp46
 70
     1
102
RTVSPost2010Prop47
 90
       50
102
RTVSPost2010PropOp47
 70
     1
102
RTVSPost2010Prop48
 90
       50
102
RTVSPost2010PropOp48
 70
     1
102
RTVSPost2010Prop49
280
     0
102
RTVSPost2010PropOp49
 70
     1
102
RTVSPost2010Prop50
 90
       50
102
RTVSPost2010PropOp50
 70
     1
102
RTVSPost2010Prop51ColorIndex
 90
      256
102
RTVSPost2010Prop51ColorRGB
 90
-16777216
102
RTVSPost2010PropOp51
 70
     0
102
RTVSPost2010Prop52
140
1.0
102
RTVSPost2010PropOp52
 70
     0
102
RTVSPost2010Prop53
 90
        2
102
RTVSPost2010PropOp53
 70
     1
102
RTVSPost2010Prop54
  1
strokes_ogs.tif
102
RTVSPost2010PropOp54
 70
     1
102
RTVSPost2010Prop55
280
     0
102
RTVSPost2010PropOp55
 70
     1
102
RTVSPost2010Prop56
140
1.0
102
RTVSPost2010PropOp56
 70
     1
102
RTVSPost2010Prop57
140
1.0
102
RTVSPost2010PropOp57
 70
     1
  0
XRECORD
  5
162
102
{ACAD_REACTORS
330
161
102
}
330
161
100
AcDbXrecord
280
     1
102
RTVSPost2010Prop28
280
     0
102
RTVSPost2010PropOp28
 70
     0
102
RTVSPost2010Prop29
280
     1
102
RTVSPost2010PropOp29
 70
     0
102
RTVSPost2010Prop30
280
     1
102
RTVSPost2010PropOp30
 70
     0
102
RTVSPost2010Prop31
280
     0
102
RTVSPost2010PropOp31
 70
     0
102
RTVSPost2010Prop32
280
     0
102
RTVSPost2010PropOp32
 70
     0
102
RTVSPost2010Prop33
280
     0
102
RTVSPost2010PropOp33
 70
     0
102
RTVSPost2010Prop34
280
     0
102
RTVSPost2010PropOp34
 70
     0
102
RTVSPost2010Prop35
280
     0
102
RTVSPost2010PropOp35
 70
     0
102
RTVSPost2010Prop36
280
     0
102
RTVSPost2010PropOp36
 70
     0
102
RTVSPost2010Prop37
 90
       50
102
RTVSPost2010PropOp37
 70
     0
102
RTVSPost2010Prop38
140
0.0
102
RTVSPost2010PropOp38
 70
     0
102
RTVSPost2010Prop39
140
1.0
102
RTVSPost2010PropOp39
 70
     0
102
RTVSPost2010Prop40
 90
        0
102
RTVSPost2010PropOp40
 70
     0
102
RTVSPost2010Prop41ColorIndex
 90
       18
102
RTVSPost2010Prop41ColorRGB
 90
        0
102
RTVSPost2010PropOp41
 70
     0
102
RTVSPost2010Prop42
 90
       50
102
RTVSPost2010PropOp42
 70
     0
102
RTVSPost2010Prop43
 90
        3
102
RTVSPost2010PropOp43
 70
     0
102
RTVSPost2010Prop44ColorIndex
 90
        5
102
RTVSPost2010Prop44ColorRGB
 90
      255
102
RTVSPost2010PropOp44
 70
     0
102
RTVSPost2010Prop45
280
     0
102
RTVSPost2010PropOp45
 70
     0
102
RTVSPost2010Prop46
 90
       50
102
RTVSPost2010PropOp46
 70
     0
102
RTVSPost2010Prop47
 90
       50
102
RTVSPost2010PropOp47
 70
     0
102
RTVSPost2010Prop48
 90
       50
102
RTVSPost2010PropOp48
 70
     0
102
RTVSPost2010Prop49
280
     0
102
RTVSPost2010PropOp49
 70
     0
102
RTVSPost2010Prop50
 90
       50
102
RTVSPost2010PropOp50
 70
     0
102
RTVSPost2010Prop51ColorIndex
 90
      256
102
RTVSPost2010Prop51ColorRGB
 90
-16777216
102
RTVSPost2010PropOp51
 70
     0
102
RTVSPost2010Prop52
140
1.0
102
RTVSPost2010PropOp52
 70
     0
102
RTVSPost2010Prop53
 90
        2
102
RTVSPost2010PropOp53
 70
     0
102
RTVSPost2010Prop54
  1
strokes_ogs.tif
102
RTVSPost2010PropOp54
 70
     0
102
RTVSPost2010Prop55
280
     0
102
RTVSPost2010PropOp55
 70
     0
102
RTVSPost2010Prop56
140
1.0
102
RTVSPost2010PropOp56
 70
     0
102
RTVSPost2010Prop57
140
1.0
102
RTVSPost2010PropOp57
 70
     0
  0
XRECORD
  5
15A
102
{ACAD_REACTORS
330
159
102
}
330
159
100
AcDbXrecord
280
     1
102
RTVSPost2010Prop28
280
     0
102
RTVSPost2010PropOp28
 70
     1
102
RTVSPost2010Prop29
280
     1
102
RTVSPost2010PropOp29
 70
     1
102
RTVSPost2010Prop30
280
     1
102
RTVSPost2010PropOp30
 70
     1
102
RTVSPost2010Prop31
280
     0
102
RTVSPost2010PropOp31
 70
     1
102
RTVSPost2010Prop32
280
     0
102
RTVSPost2010PropOp32
 70
     1
102
RTVSPost2010Prop33
280
     0
102
RTVSPost2010PropOp33
 70
     1
102
RTVSPost2010Prop34
280
     0
102
RTVSPost2010PropOp34
 70
     1
102
RTVSPost2010Prop35
280
     0
102
RTVSPost2010PropOp35
 70
     1
102
RTVSPost2010Prop36
280
     0
102
RTVSPost2010PropOp36
 70
     1
102
RTVSPost2010Prop37
 90
       50
102
RTVSPost2010PropOp37
 70
     1
102
RTVSPost2010Prop38
140
0.0
102
RTVSPost2010PropOp38
 70
     1
102
RTVSPost2010Prop39
140
1.0
102
RTVSPost2010PropOp39
 70
     1
102
RTVSPost2010Prop40
 90
        0
102
RTVSPost2010PropOp40
 70
     1
102
RTVSPost2010Prop41ColorIndex
 90
       18
102
RTVSPost2010Prop41ColorRGB
 90
        0
102
RTVSPost2010PropOp41
 70
     1
102
RTVSPost2010Prop42
 90
       50
102
RTVSPost2010PropOp42
 70
     1
102
RTVSPost2010Prop43
 90
        3
102
RTVSPost2010PropOp43
 70
     1
102
RTVSPost2010Prop44ColorIndex
 90
        5
102
RTVSPost2010Prop44ColorRGB
 90
      255
102
RTVSPost2010PropOp44
 70
     1
102
RTVSPost2010Prop45
280
     0
102
RTVSPost2010PropOp45
 70
     1
102
RTVSPost2010Prop46
 90
       50
102
RTVSPost2010PropOp46
 70
     1
102
RTVSPost2010Prop47
 90
       50
102
RTVSPost2010PropOp47
 70
     1
102
RTVSPost2010Prop48
 90
       50
102
RTVSPost2010PropOp48
 70
     1
102
RTVSPost2010Prop49
280
     0
102
RTVSPost2010PropOp49
 70
     1
102
RTVSPost2010Prop50
 90
       50
102
RTVSPost2010PropOp50
 70
     1
102
RTVSPost2010Prop51ColorIndex
 90
      256
102
RTVSPost2010Prop51ColorRGB
 90
-16777216
102
RTVSPost2010PropOp51
 70
     0
102
RTVSPost2010Prop52
140
1.0
102
RTVSPost2010PropOp52
 70
     0
102
RTVSPost2010Prop53
 90
        2
102
RTVSPost2010PropOp53
 70
     1
102
RTVSPost2010Prop54
  1
strokes_ogs.tif
102
RTVSPost2010PropOp54
 70
     1
102
RTVSPost2010Prop55
280
     0
102
RTVSPost2010PropOp55
 70
     1
102
RTVSPost2010Prop56
140
1.0
102
RTVSPost2010PropOp56
 70
     1
102
RTVSPost2010Prop57
140
1.0
102
RTVSPost2010PropOp57
 70
     1
  0
XRECORD
  5
13E
102
{ACAD_REACTORS
330
13D
102
}
330
13D
100
AcDbXrecord
280
     1
102
RTVSPost2010Prop28
280
     0
102
RTVSPost2010PropOp28
 70
     1
102
RTVSPost2010Prop29
280
     1
102
RTVSPost2010PropOp29
 70
     1
102
RTVSPost2010Prop30
280
     1
102
RTVSPost2010PropOp30
 70
     1
102
RTVSPost2010Prop31
280
     0
102
RTVSPost2010PropOp31
 70
     1
102
RTVSPost2010Prop32
280
     0
102
RTVSPost2010PropOp32
 70
     1
102
RTVSPost2010Prop33
280
     0
102
RTVSPost2010PropOp33
 70
     1
102
RTVSPost2010Prop34
280
     0
102
RTVSPost2010PropOp34
 70
     1
102
RTVSPost2010Prop35
280
     0
102
RTVSPost2010PropOp35
 70
     1
102
RTVSPost2010Prop36
280
     0
102
RTVSPost2010PropOp36
 70
     1
102
RTVSPost2010Prop37
 90
       50
102
RTVSPost2010PropOp37
 70
     1
102
RTVSPost2010Prop38
140
0.0
102
RTVSPost2010PropOp38
 70
     1
102
RTVSPost2010Prop39
140
1.0
102
RTVSPost2010PropOp39
 70
     1
102
RTVSPost2010Prop40
 90
        0
102
RTVSPost2010PropOp40
 70
     1
102
RTVSPost2010Prop41ColorIndex
 90
       18
102
RTVSPost2010Prop41ColorRGB
 90
        0
102
RTVSPost2010PropOp41
 70
     1
102
RTVSPost2010Prop42
 90
       50
102
RTVSPost2010PropOp42
 70
     1
102
RTVSPost2010Prop43
 90
        3
102
RTVSPost2010PropOp43
 70
     1
102
RTVSPost2010Prop44ColorIndex
 90
        5
102
RTVSPost2010Prop44ColorRGB
 90
      255
102
RTVSPost2010PropOp44
 70
     1
102
RTVSPost2010Prop45
280
     0
102
RTVSPost2010PropOp45
 70
     1
102
RTVSPost2010Prop46
 90
       50
102
RTVSPost2010PropOp46
 70
     1
102
RTVSPost2010Prop47
 90
       50
102
RTVSPost2010PropOp47
 70
     1
102
RTVSPost2010Prop48
 90
       50
102
RTVSPost2010PropOp48
 70
     1
102
RTVSPost2010Prop49
280
     0
102
RTVSPost2010PropOp49
 70
     1
102
RTVSPost2010Prop50
 90
       50
102
RTVSPost2010PropOp50
 70
     1
102
RTVSPost2010Prop51ColorIndex
 90
      256
102
RTVSPost2010Prop51ColorRGB
 90
-16777216
102
RTVSPost2010PropOp51
 70
     0
102
RTVSPost2010Prop52
140
1.0
102
RTVSPost2010PropOp52
 70
     0
102
RTVSPost2010Prop53
 90
        2
102
RTVSPost2010PropOp53
 70
     1
102
RTVSPost2010Prop54
  1
strokes_ogs.tif
102
RTVSPost2010PropOp54
 70
     1
102
RTVSPost2010Prop55
280
     0
102
RTVSPost2010PropOp55
 70
     1
102
RTVSPost2010Prop56
140
1.0
102
RTVSPost2010PropOp56
 70
     1
102
RTVSPost2010Prop57
140
1.0
102
RTVSPost2010PropOp57
 70
     1
  0
XRECORD
  5
140
102
{ACAD_REACTORS
330
13F
102
}
330
13F
100
AcDbXrecord
280
     1
102
RTVSPost2010Prop28
280
     0
102
RTVSPost2010PropOp28
 70
     1
102
RTVSPost2010Prop29
280
     1
102
RTVSPost2010PropOp29
 70
     1
102
RTVSPost2010Prop30
280
     1
102
RTVSPost2010PropOp30
 70
     1
102
RTVSPost2010Prop31
280
     0
102
RTVSPost2010PropOp31
 70
     1
102
RTVSPost2010Prop32
280
     0
102
RTVSPost2010PropOp32
 70
     1
102
RTVSPost2010Prop33
280
     0
102
RTVSPost2010PropOp33
 70
     1
102
RTVSPost2010Prop34
280
     0
102
RTVSPost2010PropOp34
 70
     1
102
RTVSPost2010Prop35
280
     0
102
RTVSPost2010PropOp35
 70
     1
102
RTVSPost2010Prop36
280
     0
102
RTVSPost2010PropOp36
 70
     1
102
RTVSPost2010Prop37
 90
       50
102
RTVSPost2010PropOp37
 70
     1
102
RTVSPost2010Prop38
140
0.0
102
RTVSPost2010PropOp38
 70
     1
102
RTVSPost2010Prop39
140
1.0
102
RTVSPost2010PropOp39
 70
     1
102
RTVSPost2010Prop40
 90
        0
102
RTVSPost2010PropOp40
 70
     1
102
RTVSPost2010Prop41ColorIndex
 90
       18
102
RTVSPost2010Prop41ColorRGB
 90
        0
102
RTVSPost2010PropOp41
 70
     1
102
RTVSPost2010Prop42
 90
       50
102
RTVSPost2010PropOp42
 70
     1
102
RTVSPost2010Prop43
 90
        3
102
RTVSPost2010PropOp43
 70
     1
102
RTVSPost2010Prop44ColorIndex
 90
        5
102
RTVSPost2010Prop44ColorRGB
 90
      255
102
RTVSPost2010PropOp44
 70
     1
102
RTVSPost2010Prop45
280
     0
102
RTVSPost2010PropOp45
 70
     1
102
RTVSPost2010Prop46
 90
       50
102
RTVSPost2010PropOp46
 70
     1
102
RTVSPost2010Prop47
 90
       50
102
RTVSPost2010PropOp47
 70
     1
102
RTVSPost2010Prop48
 90
       50
102
RTVSPost2010PropOp48
 70
     1
102
RTVSPost2010Prop49
280
     0
102
RTVSPost2010PropOp49
 70
     1
102
RTVSPost2010Prop50
 90
       50
102
RTVSPost2010PropOp50
 70
     1
102
RTVSPost2010Prop51ColorIndex
 90
      256
102
RTVSPost2010Prop51ColorRGB
 90
-16777216
102
RTVSPost2010PropOp51
 70
     0
102
RTVSPost2010Prop52
140
1.0
102
RTVSPost2010PropOp52
 70
     0
102
RTVSPost2010Prop53
 90
        2
102
RTVSPost2010PropOp53
 70
     1
102
RTVSPost2010Prop54
  1
strokes_ogs.tif
102
RTVSPost2010PropOp54
 70
     1
102
RTVSPost2010Prop55
280
     0
102
RTVSPost2010PropOp55
 70
     1
102
RTVSPost2010Prop56
140
1.0
102
RTVSPost2010PropOp56
 70
     1
102
RTVSPost2010Prop57
140
1.0
102
RTVSPost2010PropOp57
 70
     1
  0
XRECORD
  5
142
102
{ACAD_REACTORS
330
141
102
}
330
141
100
AcDbXrecord
280
     1
102
RTVSPost2010Prop28
280
     0
102
RTVSPost2010PropOp28
 70
     1
102
RTVSPost2010Prop29
280
     1
102
RTVSPost2010PropOp29
 70
     1
102
RTVSPost2010Prop30
280
     1
102
RTVSPost2010PropOp30
 70
     1
102
RTVSPost2010Prop31
280
     0
102
RTVSPost2010PropOp31
 70
     1
102
RTVSPost2010Prop32
280
     0
102
RTVSPost2010PropOp32
 70
     1
102
RTVSPost2010Prop33
280
     0
102
RTVSPost2010PropOp33
 70
     1
102
RTVSPost2010Prop34
280
     0
102
RTVSPost2010PropOp34
 70
     1
102
RTVSPost2010Prop35
280
     0
102
RTVSPost2010PropOp35
 70
     1
102
RTVSPost2010Prop36
280
     0
102
RTVSPost2010PropOp36
 70
     1
102
RTVSPost2010Prop37
 90
       50
102
RTVSPost2010PropOp37
 70
     1
102
RTVSPost2010Prop38
140
0.0
102
RTVSPost2010PropOp38
 70
     1
102
RTVSPost2010Prop39
140
1.0
102
RTVSPost2010PropOp39
 70
     1
102
RTVSPost2010Prop40
 90
        0
102
RTVSPost2010PropOp40
 70
     1
102
RTVSPost2010Prop41ColorIndex
 90
       18
102
RTVSPost2010Prop41ColorRGB
 90
        0
102
RTVSPost2010PropOp41
 70
     1
102
RTVSPost2010Prop42
 90
       50
102
RTVSPost2010PropOp42
 70
     1
102
RTVSPost2010Prop43
 90
        3
102
RTVSPost2010PropOp43
 70
     1
102
RTVSPost2010Prop44ColorIndex
 90
        5
102
RTVSPost2010Prop44ColorRGB
 90
      255
102
RTVSPost2010PropOp44
 70
     1
102
RTVSPost2010Prop45
280
     0
102
RTVSPost2010PropOp45
 70
     1
102
RTVSPost2010Prop46
 90
       50
102
RTVSPost2010PropOp46
 70
     1
102
RTVSPost2010Prop47
 90
       50
102
RTVSPost2010PropOp47
 70
     1
102
RTVSPost2010Prop48
 90
       50
102
RTVSPost2010PropOp48
 70
     1
102
RTVSPost2010Prop49
280
     0
102
RTVSPost2010PropOp49
 70
     1
102
RTVSPost2010Prop50
 90
       50
102
RTVSPost2010PropOp50
 70
     1
102
RTVSPost2010Prop51ColorIndex
 90
      256
102
RTVSPost2010Prop51ColorRGB
 90
-16777216
102
RTVSPost2010PropOp51
 70
     0
102
RTVSPost2010Prop52
140
1.0
102
RTVSPost2010PropOp52
 70
     0
102
RTVSPost2010Prop53
 90
        2
102
RTVSPost2010PropOp53
 70
     1
102
RTVSPost2010Prop54
  1
strokes_ogs.tif
102
RTVSPost2010PropOp54
 70
     1
102
RTVSPost2010Prop55
280
     0
102
RTVSPost2010PropOp55
 70
     1
102
RTVSPost2010Prop56
140
1.0
102
RTVSPost2010PropOp56
 70
     1
102
RTVSPost2010Prop57
140
1.0
102
RTVSPost2010PropOp57
 70
     1
  0
XRECORD
  5
144
102
{ACAD_REACTORS
330
143
102
}
330
143
100
AcDbXrecord
280
     1
102
RTVSPost2010Prop28
280
     0
102
RTVSPost2010PropOp28
 70
     1
102
RTVSPost2010Prop29
280
     1
102
RTVSPost2010PropOp29
 70
     1
102
RTVSPost2010Prop30
280
     1
102
RTVSPost2010PropOp30
 70
     1
102
RTVSPost2010Prop31
280
     0
102
RTVSPost2010PropOp31
 70
     1
102
RTVSPost2010Prop32
280
     0
102
RTVSPost2010PropOp32
 70
     1
102
RTVSPost2010Prop33
280
     0
102
RTVSPost2010PropOp33
 70
     1
102
RTVSPost2010Prop34
280
     0
102
RTVSPost2010PropOp34
 70
     1
102
RTVSPost2010Prop35
280
     0
102
RTVSPost2010PropOp35
 70
     1
102
RTVSPost2010Prop36
280
     0
102
RTVSPost2010PropOp36
 70
     1
102
RTVSPost2010Prop37
 90
       50
102
RTVSPost2010PropOp37
 70
     1
102
RTVSPost2010Prop38
140
0.0
102
RTVSPost2010PropOp38
 70
     1
102
RTVSPost2010Prop39
140
1.0
102
RTVSPost2010PropOp39
 70
     1
102
RTVSPost2010Prop40
 90
        0
102
RTVSPost2010PropOp40
 70
     1
102
RTVSPost2010Prop41ColorIndex
 90
       18
102
RTVSPost2010Prop41ColorRGB
 90
        0
102
RTVSPost2010PropOp41
 70
     1
102
RTVSPost2010Prop42
 90
       50
102
RTVSPost2010PropOp42
 70
     1
102
RTVSPost2010Prop43
 90
        3
102
RTVSPost2010PropOp43
 70
     1
102
RTVSPost2010Prop44ColorIndex
 90
        5
102
RTVSPost2010Prop44ColorRGB
 90
      255
102
RTVSPost2010PropOp44
 70
     1
102
RTVSPost2010Prop45
280
     0
102
RTVSPost2010PropOp45
 70
     1
102
RTVSPost2010Prop46
 90
       50
102
RTVSPost2010PropOp46
 70
     1
102
RTVSPost2010Prop47
 90
       50
102
RTVSPost2010PropOp47
 70
     1
102
RTVSPost2010Prop48
 90
       50
102
RTVSPost2010PropOp48
 70
     1
102
RTVSPost2010Prop49
280
     0
102
RTVSPost2010PropOp49
 70
     1
102
RTVSPost2010Prop50
 90
       50
102
RTVSPost2010PropOp50
 70
     1
102
RTVSPost2010Prop51ColorIndex
 90
      256
102
RTVSPost2010Prop51ColorRGB
 90
-16777216
102
RTVSPost2010PropOp51
 70
     0
102
RTVSPost2010Prop52
140
1.0
102
RTVSPost2010PropOp52
 70
     0
102
RTVSPost2010Prop53
 90
        2
102
RTVSPost2010PropOp53
 70
     1
102
RTVSPost2010Prop54
  1
strokes_ogs.tif
102
RTVSPost2010PropOp54
 70
     1
102
RTVSPost2010Prop55
280
     0
102
RTVSPost2010PropOp55
 70
     1
102
RTVSPost2010Prop56
140
1.0
102
RTVSPost2010PropOp56
 70
     1
102
RTVSPost2010Prop57
140
1.0
102
RTVSPost2010PropOp57
 70
     1
  0
XRECORD
  5
14A
102
{ACAD_REACTORS
330
149
102
}
330
149
100
AcDbXrecord
280
     1
102
RTVSPost2010Prop28
280
     0
102
RTVSPost2010PropOp28
 70
     1
102
RTVSPost2010Prop29
280
     1
102
RTVSPost2010PropOp29
 70
     1
102
RTVSPost2010Prop30
280
     1
102
RTVSPost2010PropOp30
 70
     1
102
RTVSPost2010Prop31
280
     0
102
RTVSPost2010PropOp31
 70
     1
102
RTVSPost2010Prop32
280
     0
102
RTVSPost2010PropOp32
 70
     1
102
RTVSPost2010Prop33
280
     0
102
RTVSPost2010PropOp33
 70
     1
102
RTVSPost2010Prop34
280
     0
102
RTVSPost2010PropOp34
 70
     1
102
RTVSPost2010Prop35
280
     0
102
RTVSPost2010PropOp35
 70
     1
102
RTVSPost2010Prop36
280
     0
102
RTVSPost2010PropOp36
 70
     1
102
RTVSPost2010Prop37
 90
       50
102
RTVSPost2010PropOp37
 70
     1
102
RTVSPost2010Prop38
140
0.0
102
RTVSPost2010PropOp38
 70
     1
102
RTVSPost2010Prop39
140
1.0
102
RTVSPost2010PropOp39
 70
     1
102
RTVSPost2010Prop40
 90
        0
102
RTVSPost2010PropOp40
 70
     1
102
RTVSPost2010Prop41ColorIndex
 90
       18
102
RTVSPost2010Prop41ColorRGB
 90
        0
102
RTVSPost2010PropOp41
 70
     1
102
RTVSPost2010Prop42
 90
       50
102
RTVSPost2010PropOp42
 70
     1
102
RTVSPost2010Prop43
 90
        3
102
RTVSPost2010PropOp43
 70
     1
102
RTVSPost2010Prop44ColorIndex
 90
        5
102
RTVSPost2010Prop44ColorRGB
 90
      255
102
RTVSPost2010PropOp44
 70
     1
102
RTVSPost2010Prop45
280
     0
102
RTVSPost2010PropOp45
 70
     1
102
RTVSPost2010Prop46
 90
       50
102
RTVSPost2010PropOp46
 70
     1
102
RTVSPost2010Prop47
 90
       50
102
RTVSPost2010PropOp47
 70
     1
102
RTVSPost2010Prop48
 90
       50
102
RTVSPost2010PropOp48
 70
     1
102
RTVSPost2010Prop49
280
     0
102
RTVSPost2010PropOp49
 70
     1
102
RTVSPost2010Prop50
 90
       50
102
RTVSPost2010PropOp50
 70
     1
102
RTVSPost2010Prop51ColorIndex
 90
      256
102
RTVSPost2010Prop51ColorRGB
 90
-16777216
102
RTVSPost2010PropOp51
 70
     0
102
RTVSPost2010Prop52
140
1.0
102
RTVSPost2010PropOp52
 70
     0
102
RTVSPost2010Prop53
 90
        2
102
RTVSPost2010PropOp53
 70
     1
102
RTVSPost2010Prop54
  1
strokes_ogs.tif
102
RTVSPost2010PropOp54
 70
     1
102
RTVSPost2010Prop55
280
     0
102
RTVSPost2010PropOp55
 70
     1
102
RTVSPost2010Prop56
140
1.0
102
RTVSPost2010PropOp56
 70
     1
102
RTVSPost2010Prop57
140
1.0
102
RTVSPost2010PropOp57
 70
     1
  0
XRECORD
  5
15E
102
{ACAD_REACTORS
330
15D
102
}
330
15D
100
AcDbXrecord
280
     1
102
RTVSPost2010Prop28
280
     0
102
RTVSPost2010PropOp28
 70
     0
102
RTVSPost2010Prop29
280
     1
102
RTVSPost2010PropOp29
 70
     0
102
RTVSPost2010Prop30
280
     1
102
RTVSPost2010PropOp30
 70
     0
102
RTVSPost2010Prop31
280
     0
102
RTVSPost2010PropOp31
 70
     0
102
RTVSPost2010Prop32
280
     0
102
RTVSPost2010PropOp32
 70
     0
102
RTVSPost2010Prop33
280
     0
102
RTVSPost2010PropOp33
 70
     0
102
RTVSPost2010Prop34
280
     0
102
RTVSPost2010PropOp34
 70
     0
102
RTVSPost2010Prop35
280
     0
102
RTVSPost2010PropOp35
 70
     0
102
RTVSPost2010Prop36
280
     0
102
RTVSPost2010PropOp36
 70
     0
102
RTVSPost2010Prop37
 90
       50
102
RTVSPost2010PropOp37
 70
     0
102
RTVSPost2010Prop38
140
0.0
102
RTVSPost2010PropOp38
 70
     0
102
RTVSPost2010Prop39
140
1.0
102
RTVSPost2010PropOp39
 70
     0
102
RTVSPost2010Prop40
 90
        0
102
RTVSPost2010PropOp40
 70
     0
102
RTVSPost2010Prop41ColorIndex
 90
       18
102
RTVSPost2010Prop41ColorRGB
 90
        0
102
RTVSPost2010PropOp41
 70
     0
102
RTVSPost2010Prop42
 90
       50
102
RTVSPost2010PropOp42
 70
     0
102
RTVSPost2010Prop43
 90
        3
102
RTVSPost2010PropOp43
 70
     0
102
RTVSPost2010Prop44ColorIndex
 90
        5
102
RTVSPost2010Prop44ColorRGB
 90
      255
102
RTVSPost2010PropOp44
 70
     0
102
RTVSPost2010Prop45
280
     0
102
RTVSPost2010PropOp45
 70
     0
102
RTVSPost2010Prop46
 90
       50
102
RTVSPost2010PropOp46
 70
     0
102
RTVSPost2010Prop47
 90
       50
102
RTVSPost2010PropOp47
 70
     0
102
RTVSPost2010Prop48
 90
       50
102
RTVSPost2010PropOp48
 70
     0
102
RTVSPost2010Prop49
280
     0
102
RTVSPost2010PropOp49
 70
     0
102
RTVSPost2010Prop50
 90
       50
102
RTVSPost2010PropOp50
 70
     0
102
RTVSPost2010Prop51ColorIndex
 90
      256
102
RTVSPost2010Prop51ColorRGB
 90
-16777216
102
RTVSPost2010PropOp51
 70
     0
102
RTVSPost2010Prop52
140
1.0
102
RTVSPost2010PropOp52
 70
     0
102
RTVSPost2010Prop53
 90
        2
102
RTVSPost2010PropOp53
 70
     0
102
RTVSPost2010Prop54
  1
strokes_ogs.tif
102
RTVSPost2010PropOp54
 70
     0
102
RTVSPost2010Prop55
280
     0
102
RTVSPost2010PropOp55
 70
     0
102
RTVSPost2010Prop56
140
1.0
102
RTVSPost2010PropOp56
 70
     0
102
RTVSPost2010Prop57
140
1.0
102
RTVSPost2010PropOp57
 70
     0
  0
XRECORD
  5
158
102
{ACAD_REACTORS
330
157
102
}
330
157
100
AcDbXrecord
280
     1
102
RTVSPost2010Prop28
280
     0
102
RTVSPost2010PropOp28
 70
     1
102
RTVSPost2010Prop29
280
     1
102
RTVSPost2010PropOp29
 70
     1
102
RTVSPost2010Prop30
280
     1
102
RTVSPost2010PropOp30
 70
     1
102
RTVSPost2010Prop31
280
     0
102
RTVSPost2010PropOp31
 70
     1
102
RTVSPost2010Prop32
280
     0
102
RTVSPost2010PropOp32
 70
     1
102
RTVSPost2010Prop33
280
     0
102
RTVSPost2010PropOp33
 70
     1
102
RTVSPost2010Prop34
280
     0
102
RTVSPost2010PropOp34
 70
     1
102
RTVSPost2010Prop35
280
     0
102
RTVSPost2010PropOp35
 70
     1
102
RTVSPost2010Prop36
280
     0
102
RTVSPost2010PropOp36
 70
     1
102
RTVSPost2010Prop37
 90
       50
102
RTVSPost2010PropOp37
 70
     1
102
RTVSPost2010Prop38
140
0.0
102
RTVSPost2010PropOp38
 70
     1
102
RTVSPost2010Prop39
140
1.0
102
RTVSPost2010PropOp39
 70
     1
102
RTVSPost2010Prop40
 90
        0
102
RTVSPost2010PropOp40
 70
     1
102
RTVSPost2010Prop41ColorIndex
 90
       18
102
RTVSPost2010Prop41ColorRGB
 90
        0
102
RTVSPost2010PropOp41
 70
     1
102
RTVSPost2010Prop42
 90
       50
102
RTVSPost2010PropOp42
 70
     1
102
RTVSPost2010Prop43
 90
        3
102
RTVSPost2010PropOp43
 70
     1
102
RTVSPost2010Prop44ColorIndex
 90
        5
102
RTVSPost2010Prop44ColorRGB
 90
      255
102
RTVSPost2010PropOp44
 70
     1
102
RTVSPost2010Prop45
280
     0
102
RTVSPost2010PropOp45
 70
     1
102
RTVSPost2010Prop46
 90
       50
102
RTVSPost2010PropOp46
 70
     1
102
RTVSPost2010Prop47
 90
       50
102
RTVSPost2010PropOp47
 70
     1
102
RTVSPost2010Prop48
 90
       50
102
RTVSPost2010PropOp48
 70
     1
102
RTVSPost2010Prop49
280
     0
102
RTVSPost2010PropOp49
 70
     1
102
RTVSPost2010Prop50
 90
       50
102
RTVSPost2010PropOp50
 70
     1
102
RTVSPost2010Prop51ColorIndex
 90
      256
102
RTVSPost2010Prop51ColorRGB
 90
-16777216
102
RTVSPost2010PropOp51
 70
     0
102
RTVSPost2010Prop52
140
1.0
102
RTVSPost2010PropOp52
 70
     0
102
RTVSPost2010Prop53
 90
        2
102
RTVSPost2010PropOp53
 70
     1
102
RTVSPost2010Prop54
  1
strokes_ogs.tif
102
RTVSPost2010PropOp54
 70
     1
102
RTVSPost2010Prop55
280
     0
102
RTVSPost2010PropOp55
 70
     1
102
RTVSPost2010Prop56
140
1.0
102
RTVSPost2010PropOp56
 70
     1
102
RTVSPost2010Prop57
140
1.0
102
RTVSPost2010PropOp57
 70
     1
  0
XRECORD
  5
160
102
{ACAD_REACTORS
330
15F
102
}
330
15F
100
AcDbXrecord
280
     1
102
RTVSPost2010Prop28
280
     0
102
RTVSPost2010PropOp28
 70
     0
102
RTVSPost2010Prop29
280
     1
102
RTVSPost2010PropOp29
 70
     0
102
RTVSPost2010Prop30
280
     1
102
RTVSPost2010PropOp30
 70
     0
102
RTVSPost2010Prop31
280
     0
102
RTVSPost2010PropOp31
 70
     0
102
RTVSPost2010Prop32
280
     0
102
RTVSPost2010PropOp32
 70
     0
102
RTVSPost2010Prop33
280
     0
102
RTVSPost2010PropOp33
 70
     0
102
RTVSPost2010Prop34
280
     0
102
RTVSPost2010PropOp34
 70
     0
102
RTVSPost2010Prop35
280
     0
102
RTVSPost2010PropOp35
 70
     0
102
RTVSPost2010Prop36
280
     0
102
RTVSPost2010PropOp36
 70
     0
102
RTVSPost2010Prop37
 90
       50
102
RTVSPost2010PropOp37
 70
     0
102
RTVSPost2010Prop38
140
0.0
102
RTVSPost2010PropOp38
 70
     0
102
RTVSPost2010Prop39
140
1.0
102
RTVSPost2010PropOp39
 70
     0
102
RTVSPost2010Prop40
 90
        0
102
RTVSPost2010PropOp40
 70
     0
102
RTVSPost2010Prop41ColorIndex
 90
       18
102
RTVSPost2010Prop41ColorRGB
 90
        0
102
RTVSPost2010PropOp41
 70
     0
102
RTVSPost2010Prop42
 90
       50
102
RTVSPost2010PropOp42
 70
     0
102
RTVSPost2010Prop43
 90
        3
102
RTVSPost2010PropOp43
 70
     0
102
RTVSPost2010Prop44ColorIndex
 90
        5
102
RTVSPost2010Prop44ColorRGB
 90
      255
102
RTVSPost2010PropOp44
 70
     0
102
RTVSPost2010Prop45
280
     0
102
RTVSPost2010PropOp45
 70
     0
102
RTVSPost2010Prop46
 90
       50
102
RTVSPost2010PropOp46
 70
     0
102
RTVSPost2010Prop47
 90
       50
102
RTVSPost2010PropOp47
 70
     0
102
RTVSPost2010Prop48
 90
       50
102
RTVSPost2010PropOp48
 70
     0
102
RTVSPost2010Prop49
280
     0
102
RTVSPost2010PropOp49
 70
     0
102
RTVSPost2010Prop50
 90
       50
102
RTVSPost2010PropOp50
 70
     0
102
RTVSPost2010Prop51ColorIndex
 90
      256
102
RTVSPost2010Prop51ColorRGB
 90
-16777216
102
RTVSPost2010PropOp51
 70
     0
102
RTVSPost2010Prop52
140
1.0
102
RTVSPost2010PropOp52
 70
     0
102
RTVSPost2010Prop53
 90
        2
102
RTVSPost2010PropOp53
 70
     0
102
RTVSPost2010Prop54
  1
strokes_ogs.tif
102
RTVSPost2010PropOp54
 70
     0
102
RTVSPost2010Prop55
280
     0
102
RTVSPost2010PropOp55
 70
     0
102
RTVSPost2010Prop56
140
1.0
102
RTVSPost2010PropOp56
 70
     0
102
RTVSPost2010Prop57
140
1.0
102
RTVSPost2010PropOp57
 70
     0
  0
XRECORD
  5
14E
102
{ACAD_REACTORS
330
14D
102
}
330
14D
100
AcDbXrecord
280
     1
102
RTVSPost2010Prop28
280
     0
102
RTVSPost2010PropOp28
 70
     1
102
RTVSPost2010Prop29
280
     1
102
RTVSPost2010PropOp29
 70
     1
102
RTVSPost2010Prop30
280
     1
102
RTVSPost2010PropOp30
 70
     1
102
RTVSPost2010Prop31
280
     0
102
RTVSPost2010PropOp31
 70
     1
102
RTVSPost2010Prop32
280
     0
102
RTVSPost2010PropOp32
 70
     1
102
RTVSPost2010Prop33
280
     0
102
RTVSPost2010PropOp33
 70
     1
102
RTVSPost2010Prop34
280
     0
102
RTVSPost2010PropOp34
 70
     1
102
RTVSPost2010Prop35
280
     0
102
RTVSPost2010PropOp35
 70
     1
102
RTVSPost2010Prop36
280
     0
102
RTVSPost2010PropOp36
 70
     1
102
RTVSPost2010Prop37
 90
       50
102
RTVSPost2010PropOp37
 70
     1
102
RTVSPost2010Prop38
140
0.0
102
RTVSPost2010PropOp38
 70
     1
102
RTVSPost2010Prop39
140
1.0
102
RTVSPost2010PropOp39
 70
     1
102
RTVSPost2010Prop40
 90
        0
102
RTVSPost2010PropOp40
 70
     1
102
RTVSPost2010Prop41ColorIndex
 90
       18
102
RTVSPost2010Prop41ColorRGB
 90
        0
102
RTVSPost2010PropOp41
 70
     1
102
RTVSPost2010Prop42
 90
       50
102
RTVSPost2010PropOp42
 70
     1
102
RTVSPost2010Prop43
 90
        3
102
RTVSPost2010PropOp43
 70
     1
102
RTVSPost2010Prop44ColorIndex
 90
        5
102
RTVSPost2010Prop44ColorRGB
 90
      255
102
RTVSPost2010PropOp44
 70
     1
102
RTVSPost2010Prop45
280
     0
102
RTVSPost2010PropOp45
 70
     1
102
RTVSPost2010Prop46
 90
       50
102
RTVSPost2010PropOp46
 70
     1
102
RTVSPost2010Prop47
 90
       50
102
RTVSPost2010PropOp47
 70
     1
102
RTVSPost2010Prop48
 90
       50
102
RTVSPost2010PropOp48
 70
     1
102
RTVSPost2010Prop49
280
     0
102
RTVSPost2010PropOp49
 70
     1
102
RTVSPost2010Prop50
 90
       50
102
RTVSPost2010PropOp50
 70
     1
102
RTVSPost2010Prop51ColorIndex
 90
      256
102
RTVSPost2010Prop51ColorRGB
 90
-16777216
102
RTVSPost2010PropOp51
 70
     0
102
RTVSPost2010Prop52
140
1.0
102
RTVSPost2010PropOp52
 70
     0
102
RTVSPost2010Prop53
 90
        2
102
RTVSPost2010PropOp53
 70
     1
102
RTVSPost2010Prop54
  1
strokes_ogs.tif
102
RTVSPost2010PropOp54
 70
     1
102
RTVSPost2010Prop55
280
     0
102
RTVSPost2010PropOp55
 70
     1
102
RTVSPost2010Prop56
140
1.0
102
RTVSPost2010PropOp56
 70
     1
102
RTVSPost2010Prop57
140
1.0
102
RTVSPost2010PropOp57
 70
     1
  0
XRECORD
  5
16C
102
{ACAD_REACTORS
330
16B
102
}
330
16B
100
AcDbXrecord
280
     1
102
RTVSPost2010Prop28
280
     0
102
RTVSPost2010PropOp28
 70
     1
102
RTVSPost2010Prop29
280
     1
102
RTVSPost2010PropOp29
 70
     1
102
RTVSPost2010Prop30
280
     1
102
RTVSPost2010PropOp30
 70
     1
102
RTVSPost2010Prop31
280
     0
102
RTVSPost2010PropOp31
 70
     1
102
RTVSPost2010Prop32
280
     0
102
RTVSPost2010PropOp32
 70
     1
102
RTVSPost2010Prop33
280
     0
102
RTVSPost2010PropOp33
 70
     1
102
RTVSPost2010Prop34
280
     0
102
RTVSPost2010PropOp34
 70
     1
102
RTVSPost2010Prop35
280
     0
102
RTVSPost2010PropOp35
 70
     1
102
RTVSPost2010Prop36
280
     0
102
RTVSPost2010PropOp36
 70
     1
102
RTVSPost2010Prop37
 90
       50
102
RTVSPost2010PropOp37
 70
     1
102
RTVSPost2010Prop38
140
0.0
102
RTVSPost2010PropOp38
 70
     1
102
RTVSPost2010Prop39
140
1.0
102
RTVSPost2010PropOp39
 70
     1
102
RTVSPost2010Prop40
 90
        0
102
RTVSPost2010PropOp40
 70
     1
102
RTVSPost2010Prop41ColorIndex
 90
       18
102
RTVSPost2010Prop41ColorRGB
 90
        0
102
RTVSPost2010PropOp41
 70
     1
102
RTVSPost2010Prop42
 90
       50
102
RTVSPost2010PropOp42
 70
     1
102
RTVSPost2010Prop43
 90
        3
102
RTVSPost2010PropOp43
 70
     1
102
RTVSPost2010Prop44ColorIndex
 90
        5
102
RTVSPost2010Prop44ColorRGB
 90
      255
102
RTVSPost2010PropOp44
 70
     1
102
RTVSPost2010Prop45
280
     0
102
RTVSPost2010PropOp45
 70
     1
102
RTVSPost2010Prop46
 90
       50
102
RTVSPost2010PropOp46
 70
     1
102
RTVSPost2010Prop47
 90
       50
102
RTVSPost2010PropOp47
 70
     1
102
RTVSPost2010Prop48
 90
       50
102
RTVSPost2010PropOp48
 70
     1
102
RTVSPost2010Prop49
280
     0
102
RTVSPost2010PropOp49
 70
     1
102
RTVSPost2010Prop50
 90
       50
102
RTVSPost2010PropOp50
 70
     1
102
RTVSPost2010Prop51ColorIndex
 90
      256
102
RTVSPost2010Prop51ColorRGB
 90
-16777216
102
RTVSPost2010PropOp51
 70
     0
102
RTVSPost2010Prop52
140
1.0
102
RTVSPost2010PropOp52
 70
     0
102
RTVSPost2010Prop53
 90
        2
102
RTVSPost2010PropOp53
 70
     1
102
RTVSPost2010Prop54
  1
strokes_ogs.tif
102
RTVSPost2010PropOp54
 70
     1
102
RTVSPost2010Prop55
280
     0
102
RTVSPost2010PropOp55
 70
     1
102
RTVSPost2010Prop56
140
1.0
102
RTVSPost2010PropOp56
 70
     1
102
RTVSPost2010Prop57
140
1.0
102
RTVSPost2010PropOp57
 70
     1
  0
XRECORD
  5
16A
102
{ACAD_REACTORS
330
169
102
}
330
169
100
AcDbXrecord
280
     1
102
RTVSPost2010Prop28
280
     0
102
RTVSPost2010PropOp28
 70
     1
102
RTVSPost2010Prop29
280
     1
102
RTVSPost2010PropOp29
 70
     1
102
RTVSPost2010Prop30
280
     1
102
RTVSPost2010PropOp30
 70
     1
102
RTVSPost2010Prop31
280
     0
102
RTVSPost2010PropOp31
 70
     1
102
RTVSPost2010Prop32
280
     0
102
RTVSPost2010PropOp32
 70
     1
102
RTVSPost2010Prop33
280
     0
102
RTVSPost2010PropOp33
 70
     1
102
RTVSPost2010Prop34
280
     0
102
RTVSPost2010PropOp34
 70
     1
102
RTVSPost2010Prop35
280
     0
102
RTVSPost2010PropOp35
 70
     1
102
RTVSPost2010Prop36
280
     0
102
RTVSPost2010PropOp36
 70
     1
102
RTVSPost2010Prop37
 90
       50
102
RTVSPost2010PropOp37
 70
     1
102
RTVSPost2010Prop38
140
0.0
102
RTVSPost2010PropOp38
 70
     1
102
RTVSPost2010Prop39
140
1.0
102
RTVSPost2010PropOp39
 70
     1
102
RTVSPost2010Prop40
 90
        0
102
RTVSPost2010PropOp40
 70
     1
102
RTVSPost2010Prop41ColorIndex
 90
       18
102
RTVSPost2010Prop41ColorRGB
 90
        0
102
RTVSPost2010PropOp41
 70
     1
102
RTVSPost2010Prop42
 90
       50
102
RTVSPost2010PropOp42
 70
     1
102
RTVSPost2010Prop43
 90
        3
102
RTVSPost2010PropOp43
 70
     1
102
RTVSPost2010Prop44ColorIndex
 90
        5
102
RTVSPost2010Prop44ColorRGB
 90
      255
102
RTVSPost2010PropOp44
 70
     1
102
RTVSPost2010Prop45
280
     0
102
RTVSPost2010PropOp45
 70
     1
102
RTVSPost2010Prop46
 90
       50
102
RTVSPost2010PropOp46
 70
     1
102
RTVSPost2010Prop47
 90
       50
102
RTVSPost2010PropOp47
 70
     1
102
RTVSPost2010Prop48
 90
       50
102
RTVSPost2010PropOp48
 70
     1
102
RTVSPost2010Prop49
280
     0
102
RTVSPost2010PropOp49
 70
     1
102
RTVSPost2010Prop50
 90
       50
102
RTVSPost2010PropOp50
 70
     1
102
RTVSPost2010Prop51ColorIndex
 90
      256
102
RTVSPost2010Prop51ColorRGB
 90
-16777216
102
RTVSPost2010PropOp51
 70
     0
102
RTVSPost2010Prop52
140
1.0
102
RTVSPost2010PropOp52
 70
     0
102
RTVSPost2010Prop53
 90
        2
102
RTVSPost2010PropOp53
 70
     1
102
RTVSPost2010Prop54
  1
strokes_ogs.tif
102
RTVSPost2010PropOp54
 70
     1
102
RTVSPost2010Prop55
280
     0
102
RTVSPost2010PropOp55
 70
     1
102
RTVSPost2010Prop56
140
1.0
102
RTVSPost2010PropOp56
 70
     1
102
RTVSPost2010Prop57
140
1.0
102
RTVSPost2010PropOp57
 70
     1
  0
XRECORD
  5
164
102
{ACAD_REACTORS
330
163
102
}
330
163
100
AcDbXrecord
280
     1
102
RTVSPost2010Prop28
280
     0
102
RTVSPost2010PropOp28
 70
     1
102
RTVSPost2010Prop29
280
     1
102
RTVSPost2010PropOp29
 70
     1
102
RTVSPost2010Prop30
280
     1
102
RTVSPost2010PropOp30
 70
     1
102
RTVSPost2010Prop31
280
     0
102
RTVSPost2010PropOp31
 70
     1
102
RTVSPost2010Prop32
280
     0
102
RTVSPost2010PropOp32
 70
     1
102
RTVSPost2010Prop33
280
     0
102
RTVSPost2010PropOp33
 70
     1
102
RTVSPost2010Prop34
280
     0
102
RTVSPost2010PropOp34
 70
     1
102
RTVSPost2010Prop35
280
     0
102
RTVSPost2010PropOp35
 70
     1
102
RTVSPost2010Prop36
280
     0
102
RTVSPost2010PropOp36
 70
     1
102
RTVSPost2010Prop37
 90
       50
102
RTVSPost2010PropOp37
 70
     1
102
RTVSPost2010Prop38
140
0.0
102
RTVSPost2010PropOp38
 70
     1
102
RTVSPost2010Prop39
140
1.0
102
RTVSPost2010PropOp39
 70
     1
102
RTVSPost2010Prop40
 90
        0
102
RTVSPost2010PropOp40
 70
     1
102
RTVSPost2010Prop41ColorIndex
 90
       18
102
RTVSPost2010Prop41ColorRGB
 90
        0
102
RTVSPost2010PropOp41
 70
     1
102
RTVSPost2010Prop42
 90
       50
102
RTVSPost2010PropOp42
 70
     1
102
RTVSPost2010Prop43
 90
        3
102
RTVSPost2010PropOp43
 70
     1
102
RTVSPost2010Prop44ColorIndex
 90
        5
102
RTVSPost2010Prop44ColorRGB
 90
      255
102
RTVSPost2010PropOp44
 70
     1
102
RTVSPost2010Prop45
280
     0
102
RTVSPost2010PropOp45
 70
     1
102
RTVSPost2010Prop46
 90
       50
102
RTVSPost2010PropOp46
 70
     1
102
RTVSPost2010Prop47
 90
       50
102
RTVSPost2010PropOp47
 70
     1
102
RTVSPost2010Prop48
 90
       50
102
RTVSPost2010PropOp48
 70
     1
102
RTVSPost2010Prop49
280
     0
102
RTVSPost2010PropOp49
 70
     1
102
RTVSPost2010Prop50
 90
       50
102
RTVSPost2010PropOp50
 70
     1
102
RTVSPost2010Prop51ColorIndex
 90
      256
102
RTVSPost2010Prop51ColorRGB
 90
-16777216
102
RTVSPost2010PropOp51
 70
     0
102
RTVSPost2010Prop52
140
1.0
102
RTVSPost2010PropOp52
 70
     0
102
RTVSPost2010Prop53
 90
        2
102
RTVSPost2010PropOp53
 70
     1
102
RTVSPost2010Prop54
  1
strokes_ogs.tif
102
RTVSPost2010PropOp54
 70
     1
102
RTVSPost2010Prop55
280
     0
102
RTVSPost2010PropOp55
 70
     1
102
RTVSPost2010Prop56
140
1.0
102
RTVSPost2010PropOp56
 70
     1
102
RTVSPost2010Prop57
140
1.0
102
RTVSPost2010PropOp57
 70
     1
  0
XRECORD
  5
166
102
{ACAD_REACTORS
330
165
102
}
330
165
100
AcDbXrecord
280
     1
102
RTVSPost2010Prop28
280
     0
102
RTVSPost2010PropOp28
 70
     1
102
RTVSPost2010Prop29
280
     1
102
RTVSPost2010PropOp29
 70
     1
102
RTVSPost2010Prop30
280
     1
102
RTVSPost2010PropOp30
 70
     1
102
RTVSPost2010Prop31
280
     0
102
RTVSPost2010PropOp31
 70
     1
102
RTVSPost2010Prop32
280
     0
102
RTVSPost2010PropOp32
 70
     1
102
RTVSPost2010Prop33
280
     0
102
RTVSPost2010PropOp33
 70
     1
102
RTVSPost2010Prop34
280
     0
102
RTVSPost2010PropOp34
 70
     1
102
RTVSPost2010Prop35
280
     0
102
RTVSPost2010PropOp35
 70
     1
102
RTVSPost2010Prop36
280
     0
102
RTVSPost2010PropOp36
 70
     1
102
RTVSPost2010Prop37
 90
       50
102
RTVSPost2010PropOp37
 70
     1
102
RTVSPost2010Prop38
140
0.0
102
RTVSPost2010PropOp38
 70
     1
102
RTVSPost2010Prop39
140
1.0
102
RTVSPost2010PropOp39
 70
     1
102
RTVSPost2010Prop40
 90
        0
102
RTVSPost2010PropOp40
 70
     1
102
RTVSPost2010Prop41ColorIndex
 90
       18
102
RTVSPost2010Prop41ColorRGB
 90
        0
102
RTVSPost2010PropOp41
 70
     1
102
RTVSPost2010Prop42
 90
       50
102
RTVSPost2010PropOp42
 70
     1
102
RTVSPost2010Prop43
 90
        3
102
RTVSPost2010PropOp43
 70
     1
102
RTVSPost2010Prop44ColorIndex
 90
        5
102
RTVSPost2010Prop44ColorRGB
 90
      255
102
RTVSPost2010PropOp44
 70
     1
102
RTVSPost2010Prop45
280
     0
102
RTVSPost2010PropOp45
 70
     1
102
RTVSPost2010Prop46
 90
       50
102
RTVSPost2010PropOp46
 70
     1
102
RTVSPost2010Prop47
 90
       50
102
RTVSPost2010PropOp47
 70
     1
102
RTVSPost2010Prop48
 90
       50
102
RTVSPost2010PropOp48
 70
     1
102
RTVSPost2010Prop49
280
     0
102
RTVSPost2010PropOp49
 70
     1
102
RTVSPost2010Prop50
 90
       50
102
RTVSPost2010PropOp50
 70
     1
102
RTVSPost2010Prop51ColorIndex
 90
      256
102
RTVSPost2010Prop51ColorRGB
 90
-16777216
102
RTVSPost2010PropOp51
 70
     0
102
RTVSPost2010Prop52
140
1.0
102
RTVSPost2010PropOp52
 70
     0
102
RTVSPost2010Prop53
 90
        2
102
RTVSPost2010PropOp53
 70
     1
102
RTVSPost2010Prop54
  1
strokes_ogs.tif
102
RTVSPost2010PropOp54
 70
     1
102
RTVSPost2010Prop55
280
     0
102
RTVSPost2010PropOp55
 70
     1
102
RTVSPost2010Prop56
140
1.0
102
RTVSPost2010PropOp56
 70
     1
102
RTVSPost2010Prop57
140
1.0
102
RTVSPost2010PropOp57
 70
     1
  0
XRECORD
  5
156
102
{ACAD_REACTORS
330
155
102
}
330
155
100
AcDbXrecord
280
     1
102
RTVSPost2010Prop28
280
     0
102
RTVSPost2010PropOp28
 70
     1
102
RTVSPost2010Prop29
280
     1
102
RTVSPost2010PropOp29
 70
     1
102
RTVSPost2010Prop30
280
     1
102
RTVSPost2010PropOp30
 70
     1
102
RTVSPost2010Prop31
280
     0
102
RTVSPost2010PropOp31
 70
     1
102
RTVSPost2010Prop32
280
     0
102
RTVSPost2010PropOp32
 70
     1
102
RTVSPost2010Prop33
280
     0
102
RTVSPost2010PropOp33
 70
     1
102
RTVSPost2010Prop34
280
     0
102
RTVSPost2010PropOp34
 70
     1
102
RTVSPost2010Prop35
280
     0
102
RTVSPost2010PropOp35
 70
     1
102
RTVSPost2010Prop36
280
     0
102
RTVSPost2010PropOp36
 70
     1
102
RTVSPost2010Prop37
 90
       50
102
RTVSPost2010PropOp37
 70
     1
102
RTVSPost2010Prop38
140
0.0
102
RTVSPost2010PropOp38
 70
     1
102
RTVSPost2010Prop39
140
1.0
102
RTVSPost2010PropOp39
 70
     1
102
RTVSPost2010Prop40
 90
        0
102
RTVSPost2010PropOp40
 70
     1
102
RTVSPost2010Prop41ColorIndex
 90
       18
102
RTVSPost2010Prop41ColorRGB
 90
        0
102
RTVSPost2010PropOp41
 70
     1
102
RTVSPost2010Prop42
 90
       50
102
RTVSPost2010PropOp42
 70
     1
102
RTVSPost2010Prop43
 90
        3
102
RTVSPost2010PropOp43
 70
     1
102
RTVSPost2010Prop44ColorIndex
 90
        5
102
RTVSPost2010Prop44ColorRGB
 90
      255
102
RTVSPost2010PropOp44
 70
     1
102
RTVSPost2010Prop45
280
     0
102
RTVSPost2010PropOp45
 70
     1
102
RTVSPost2010Prop46
 90
       50
102
RTVSPost2010PropOp46
 70
     1
102
RTVSPost2010Prop47
 90
       50
102
RTVSPost2010PropOp47
 70
     1
102
RTVSPost2010Prop48
 90
       50
102
RTVSPost2010PropOp48
 70
     1
102
RTVSPost2010Prop49
280
     0
102
RTVSPost2010PropOp49
 70
     1
102
RTVSPost2010Prop50
 90
       50
102
RTVSPost2010PropOp50
 70
     1
102
RTVSPost2010Prop51ColorIndex
 90
      256
102
RTVSPost2010Prop51ColorRGB
 90
-16777216
102
RTVSPost2010PropOp51
 70
     0
102
RTVSPost2010Prop52
140
1.0
102
RTVSPost2010PropOp52
 70
     0
102
RTVSPost2010Prop53
 90
        2
102
RTVSPost2010PropOp53
 70
     1
102
RTVSPost2010Prop54
  1
strokes_ogs.tif
102
RTVSPost2010PropOp54
 70
     1
102
RTVSPost2010Prop55
280
     0
102
RTVSPost2010PropOp55
 70
     1
102
RTVSPost2010Prop56
140
1.0
102
RTVSPost2010PropOp56
 70
     1
102
RTVSPost2010Prop57
140
1.0
102
RTVSPost2010PropOp57
 70
     1
  0
XRECORD
  5
148
102
{ACAD_REACTORS
330
147
102
}
330
147
100
AcDbXrecord
280
     1
102
RTVSPost2010Prop28
280
     0
102
RTVSPost2010PropOp28
 70
     1
102
RTVSPost2010Prop29
280
     1
102
RTVSPost2010PropOp29
 70
     1
102
RTVSPost2010Prop30
280
     1
102
RTVSPost2010PropOp30
 70
     1
102
RTVSPost2010Prop31
280
     0
102
RTVSPost2010PropOp31
 70
     1
102
RTVSPost2010Prop32
280
     0
102
RTVSPost2010PropOp32
 70
     1
102
RTVSPost2010Prop33
280
     0
102
RTVSPost2010PropOp33
 70
     1
102
RTVSPost2010Prop34
280
     0
102
RTVSPost2010PropOp34
 70
     1
102
RTVSPost2010Prop35
280
     0
102
RTVSPost2010PropOp35
 70
     1
102
RTVSPost2010Prop36
280
     0
102
RTVSPost2010PropOp36
 70
     1
102
RTVSPost2010Prop37
 90
       50
102
RTVSPost2010PropOp37
 70
     1
102
RTVSPost2010Prop38
140
0.0
102
RTVSPost2010PropOp38
 70
     1
102
RTVSPost2010Prop39
140
1.0
102
RTVSPost2010PropOp39
 70
     1
102
RTVSPost2010Prop40
 90
        0
102
RTVSPost2010PropOp40
 70
     1
102
RTVSPost2010Prop41ColorIndex
 90
       18
102
RTVSPost2010Prop41ColorRGB
 90
        0
102
RTVSPost2010PropOp41
 70
     1
102
RTVSPost2010Prop42
 90
       50
102
RTVSPost2010PropOp42
 70
     1
102
RTVSPost2010Prop43
 90
        3
102
RTVSPost2010PropOp43
 70
     1
102
RTVSPost2010Prop44ColorIndex
 90
        5
102
RTVSPost2010Prop44ColorRGB
 90
      255
102
RTVSPost2010PropOp44
 70
     1
102
RTVSPost2010Prop45
280
     0
102
RTVSPost2010PropOp45
 70
     1
102
RTVSPost2010Prop46
 90
       50
102
RTVSPost2010PropOp46
 70
     1
102
RTVSPost2010Prop47
 90
       50
102
RTVSPost2010PropOp47
 70
     1
102
RTVSPost2010Prop48
 90
       50
102
RTVSPost2010PropOp48
 70
     1
102
RTVSPost2010Prop49
280
     0
102
RTVSPost2010PropOp49
 70
     1
102
RTVSPost2010Prop50
 90
       50
102
RTVSPost2010PropOp50
 70
     1
102
RTVSPost2010Prop51ColorIndex
 90
      256
102
RTVSPost2010Prop51ColorRGB
 90
-16777216
102
RTVSPost2010PropOp51
 70
     0
102
RTVSPost2010Prop52
140
1.0
102
RTVSPost2010PropOp52
 70
     0
102
RTVSPost2010Prop53
 90
        2
102
RTVSPost2010PropOp53
 70
     1
102
RTVSPost2010Prop54
  1
strokes_ogs.tif
102
RTVSPost2010PropOp54
 70
     1
102
RTVSPost2010Prop55
280
     0
102
RTVSPost2010PropOp55
 70
     1
102
RTVSPost2010Prop56
140
1.0
102
RTVSPost2010PropOp56
 70
     1
102
RTVSPost2010Prop57
140
1.0
102
RTVSPost2010PropOp57
 70
     1
  0
XRECORD
  5
168
102
{ACAD_REACTORS
330
167
102
}
330
167
100
AcDbXrecord
280
     1
102
RTVSPost2010Prop28
280
     0
102
RTVSPost2010PropOp28
 70
     1
102
RTVSPost2010Prop29
280
     1
102
RTVSPost2010PropOp29
 70
     1
102
RTVSPost2010Prop30
280
     1
102
RTVSPost2010PropOp30
 70
     1
102
RTVSPost2010Prop31
280
     0
102
RTVSPost2010PropOp31
 70
     1
102
RTVSPost2010Prop32
280
     0
102
RTVSPost2010PropOp32
 70
     1
102
RTVSPost2010Prop33
280
     0
102
RTVSPost2010PropOp33
 70
     1
102
RTVSPost2010Prop34
280
     0
102
RTVSPost2010PropOp34
 70
     1
102
RTVSPost2010Prop35
280
     0
102
RTVSPost2010PropOp35
 70
     1
102
RTVSPost2010Prop36
280
     0
102
RTVSPost2010PropOp36
 70
     1
102
RTVSPost2010Prop37
 90
       50
102
RTVSPost2010PropOp37
 70
     1
102
RTVSPost2010Prop38
140
0.0
102
RTVSPost2010PropOp38
 70
     1
102
RTVSPost2010Prop39
140
1.0
102
RTVSPost2010PropOp39
 70
     1
102
RTVSPost2010Prop40
 90
        0
102
RTVSPost2010PropOp40
 70
     1
102
RTVSPost2010Prop41ColorIndex
 90
       18
102
RTVSPost2010Prop41ColorRGB
 90
        0
102
RTVSPost2010PropOp41
 70
     1
102
RTVSPost2010Prop42
 90
       50
102
RTVSPost2010PropOp42
 70
     1
102
RTVSPost2010Prop43
 90
        3
102
RTVSPost2010PropOp43
 70
     1
102
RTVSPost2010Prop44ColorIndex
 90
        5
102
RTVSPost2010Prop44ColorRGB
 90
      255
102
RTVSPost2010PropOp44
 70
     1
102
RTVSPost2010Prop45
280
     0
102
RTVSPost2010PropOp45
 70
     1
102
RTVSPost2010Prop46
 90
       50
102
RTVSPost2010PropOp46
 70
     1
102
RTVSPost2010Prop47
 90
       50
102
RTVSPost2010PropOp47
 70
     1
102
RTVSPost2010Prop48
 90
       50
102
RTVSPost2010PropOp48
 70
     1
102
RTVSPost2010Prop49
280
     0
102
RTVSPost2010PropOp49
 70
     1
102
RTVSPost2010Prop50
 90
       50
102
RTVSPost2010PropOp50
 70
     1
102
RTVSPost2010Prop51ColorIndex
 90
      256
102
RTVSPost2010Prop51ColorRGB
 90
-16777216
102
RTVSPost2010PropOp51
 70
     0
102
RTVSPost2010Prop52
140
1.0
102
RTVSPost2010PropOp52
 70
     0
102
RTVSPost2010Prop53
 90
        2
102
RTVSPost2010PropOp53
 70
     1
102
RTVSPost2010Prop54
  1
strokes_ogs.tif
102
RTVSPost2010PropOp54
 70
     1
102
RTVSPost2010Prop55
280
     0
102
RTVSPost2010PropOp55
 70
     1
102
RTVSPost2010Prop56
140
1.0
102
RTVSPost2010PropOp56
 70
     1
102
RTVSPost2010Prop57
140
1.0
102
RTVSPost2010PropOp57
 70
     1
  0
ENDSEC
  0
EOF
