                                                                        S      1
File generated by Shapr3D Version 3.0                                   S      2
                                                                        S      3
1H,,1H;,118HC:\Users\jonat\AppData\Local\Packages\Shapr3D.Shapr3D_dvv5p1G      1
vgwv6mp\TempState\29a82e3e-9a70-45b2-9de4-e0dae63213f3.tmp,11Htemp_exporG      2
t,7HShapr3D,3H3.0,32,24,8,56,15,118HC:\Users\jonat\AppData\Local\PackageG      3
s\Shapr3D.Shapr3D_dvv5p1vgwv6mp\TempState\29a82e3e-9a70-45b2-9de4-e0dae6G      4
3213f3.tmp,1.,2,2HMM,1000,1.,13H221207.160514,1D-05,1000000.,,,9,0,13H22G      5
1207.160514;                                                            G      6
     502       1       1       0   65535       0       0       000010001D      1
     502    1000       0       6       1                Spreader       0D      2
     124       7       1       0       0       0       0       001010000D      3
     124    1000       0       1       0                               0D      4
     100       8       1       0       0       0       3       000010000D      5
     100    1000       0       2       0                               0D      6
     124      10       1       0       0       0       0       001010000D      7
     124    1000       0       1       0                               0D      8
     100      11       1       0       0       0       7       000010000D      9
     100    1000       0       1       0                               0D     10
     124      12       1       0       0       0       0       001010000D     11
     124    1000       0       1       0                               0D     12
     100      13       1       0       0       0      11       000010000D     13
     100    1000       0       1       0                               0D     14
     124      14       1       0       0       0       0       001010000D     15
     124    1000       0       1       0                               0D     16
     100      15       1       0       0       0      15       000010000D     17
     100    1000       0       2       0                               0D     18
     110      17       1       0       0       0       0       000010000D     19
     110    1000       0       2       0                               0D     20
     110      19       1       0       0       0       0       000010000D     21
     110    1000       0       1       0                               0D     22
     124      20       1       0       0       0       0       001010000D     23
     124    1000       0       1       0                               0D     24
     100      21       1       0       0       0      23       000010000D     25
     100    1000       0       2       0                               0D     26
     110      23       1       0       0       0       0       000010000D     27
     110    1000       0       2       0                               0D     28
     124      25       1       0       0       0       0       001010000D     29
     124    1000       0       1       0                               0D     30
     100      26       1       0       0       0      29       000010000D     31
     100    1000       0       2       0                               0D     32
     110      28       1       0       0       0       0       000010000D     33
     110    1000       0       1       0                               0D     34
     124      29       1       0       0       0       0       001010000D     35
     124    1000       0       1       0                               0D     36
     100      30       1       0       0       0      35       000010000D     37
     100    1000       0       2       0                               0D     38
     124      32       1       0       0       0       0       001010000D     39
     124    1000       0       1       0                               0D     40
     100      33       1       0       0       0      39       000010000D     41
     100    1000       0       1       0                               0D     42
     124      34       1       0       0       0       0       001010000D     43
     124    1000       0       1       0                               0D     44
     100      35       1       0       0       0      43       000010000D     45
     100    1000       0       2       0                               0D     46
     110      37       1       0       0       0       0       000010000D     47
     110    1000       0       2       0                               0D     48
     110      39       1       0       0       0       0       000010000D     49
     110    1000       0       1       0                               0D     50
     124      40       1       0       0       0       0       001010000D     51
     124    1000       0       1       0                               0D     52
     100      41       1       0       0       0      51       000010000D     53
     100    1000       0       1       0                               0D     54
     504      42       1       0   65535       0       0       000010001D     55
     504    1000       0       3       1                Spreader       0D     56
     314      45       1       0       0       0       0       000020000D     57
     314    1000       0       2       0                               0D     58
     116      47       1       0       0       0       0       000010200D     59
     116    1000       0       1       0                               0D     60
     123      48       1       0       0       0       0       000010200D     61
     123    1000       0       1       0                               0D     62
     123      49       1       0       0       0       0       000010200D     63
     123    1000       0       1       0                               0D     64
     190      50       1       0       0       0       0       000010000D     65
     190    1000     -57       1       1                               0D     66
     508      51       1       0       0       0       0       000010001D     67
     508    1000       0       1       1                               0D     68
     508      52       1       0       0       0       0       000010001D     69
     508    1000       0       1       1                               0D     70
     510      53       1       1       0       0       0       000010001D     71
     510    1000     -57       1       1                               0D     72
     116      54       1       0       0       0       0       000010200D     73
     116    1000       0       1       0                               0D     74
     123      55       1       0       0       0       0       000010200D     75
     123    1000       0       1       0                               0D     76
     123      56       1       0       0       0       0       000010200D     77
     123    1000       0       1       0                               0D     78
     192      57       1       0       0       0       0       000010000D     79
     192    1000     -57       1       1                               0D     80
     508      58       1       0       0       0       0       000010001D     81
     508    1000       0       1       1                               0D     82
     510      59       1       1       0       0       0       000010001D     83
     510    1000     -57       1       1                               0D     84
     116      60       1       0       0       0       0       000010200D     85
     116    1000       0       1       0                               0D     86
     123      61       1       0       0       0       0       000010200D     87
     123    1000       0       1       0                               0D     88
     123      62       1       0       0       0       0       000010200D     89
     123    1000       0       1       0                               0D     90
     194      63       1       0       0       0       0       000010000D     91
     194    1000     -57       1       1                               0D     92
     508      64       1       0       0       0       0       000010001D     93
     508    1000       0       1       1                               0D     94
     510      65       1       1       0       0       0       000010001D     95
     510    1000     -57       1       1                               0D     96
     116      66       1       0       0       0       0       000010200D     97
     116    1000       0       1       0                               0D     98
     123      67       1       0       0       0       0       000010200D     99
     123    1000       0       1       0                               0D    100
     123      68       1       0       0       0       0       000010200D    101
     123    1000       0       1       0                               0D    102
     190      69       1       0       0       0       0       000010000D    103
     190    1000     -57       1       1                               0D    104
     508      70       1       0       0       0       0       000010001D    105
     508    1000       0       1       1                               0D    106
     508      71       1       0       0       0       0       000010001D    107
     508    1000       0       1       1                               0D    108
     510      72       1       1       0       0       0       000010001D    109
     510    1000     -57       1       1                               0D    110
     116      73       1       0       0       0       0       000010200D    111
     116    1000       0       1       0                               0D    112
     123      74       1       0       0       0       0       000010200D    113
     123    1000       0       1       0                               0D    114
     123      75       1       0       0       0       0       000010200D    115
     123    1000       0       1       0                               0D    116
     192      76       1       0       0       0       0       000010000D    117
     192    1000     -57       1       1                               0D    118
     508      77       1       0       0       0       0       000010001D    119
     508    1000       0       1       1                               0D    120
     510      78       1       1       0       0       0       000010001D    121
     510    1000     -57       1       1                               0D    122
     116      79       1       0       0       0       0       000010200D    123
     116    1000       0       1       0                               0D    124
     123      80       1       0       0       0       0       000010200D    125
     123    1000       0       1       0                               0D    126
     123      81       1       0       0       0       0       000010200D    127
     123    1000       0       1       0                               0D    128
     192      82       1       0       0       0       0       000010000D    129
     192    1000     -57       1       1                               0D    130
     508      83       1       0       0       0       0       000010001D    131
     508    1000       0       1       1                               0D    132
     510      84       1       1       0       0       0       000010001D    133
     510    1000     -57       1       1                               0D    134
     116      85       1       0       0       0       0       000010200D    135
     116    1000       0       1       0                               0D    136
     123      86       1       0       0       0       0       000010200D    137
     123    1000       0       1       0                               0D    138
     123      87       1       0       0       0       0       000010200D    139
     123    1000       0       1       0                               0D    140
     194      88       1       0       0       0       0       000010000D    141
     194    1000     -57       1       1                               0D    142
     508      89       1       0       0       0       0       000010001D    143
     508    1000       0       1       1                               0D    144
     510      90       1       1       0       0       0       000010001D    145
     510    1000     -57       1       1                               0D    146
     116      91       1       0       0       0       0       000010200D    147
     116    1000       0       1       0                               0D    148
     123      92       1       0       0       0       0       000010200D    149
     123    1000       0       1       0                               0D    150
     123      93       1       0       0       0       0       000010200D    151
     123    1000       0       1       0                               0D    152
     192      94       1       0       0       0       0       000010000D    153
     192    1000     -57       1       1                               0D    154
     508      95       1       0       0       0       0       000010001D    155
     508    1000       0       1       1                               0D    156
     510      96       1       1       0       0       0       000010001D    157
     510    1000     -57       1       1                               0D    158
     514      97       1       0       0       0       0       000010000D    159
     514    1000       0       1       1                               0D    160
     186      98       1       0   65535       0       0       000000001D    161
     186    1000       0       1       0                Spreader       0D    162
502,10,-11.5,8.87868929381831D-16,7.25,-11.5,                          1P      1
-8.87868929381831D-16,-7.25,-11.5,-4.89858719658941D-16,-4.,           1P      2
-11.5,4.89858719658941D-16,4.,0.,8.87868929381831D-16,7.25,0.,         1P      3
-4.43934464690915D-16,-7.25,8.5,-2.54497097179833D-16,                 1P      4
-4.15625300873728,8.5,5.08994194359667D-16,4.15625300873728,8.5,       1P      5
4.89858719658941D-16,4.,8.5,-4.89858719658941D-16,-4.,0,0;             1P      6
124,0.,-0.,1.,-11.5,0.,1.,0.,0.,-1.,0.,0.,0.,0,0;                      3P      7
100,0.,0.,0.,-7.25,8.87868929381831D-16,7.25,                          5P      8
-1.77573785876366D-15,0,0;                                             5P      9
124,0.,-0.,1.,-11.5,0.,1.,0.,0.,-1.,0.,0.,0.,0,0;                      7P     10
100,0.,0.,0.,7.25,0.,-7.25,8.87868929381831D-16,0,0;                   9P     11
124,0.,-0.,1.,-11.5,0.,1.,0.,0.,-1.,0.,0.,0.,0,0;                     11P     12
100,0.,0.,0.,4.,0.,-4.,4.89858719658941D-16,0,0;                      13P     13
124,0.,-0.,1.,-11.5,0.,1.,0.,0.,-1.,0.,0.,0.,0,0;                     15P     14
100,0.,0.,0.,-4.,4.89858719658941D-16,4.,-9.79717439317883D-16,       17P     15
0,0;                                                                  17P     16
110,0.,8.87868929381831D-16,7.25,-11.5,8.87868929381831D-16,          19P     17
7.25,0,0;                                                             19P     18
110,0.,0.,-7.25,-11.5,0.,-7.25,0,0;                                   21P     19
124,0.,-0.,1.,0.,0.,1.,0.,0.,-1.,0.,0.,0.,0,0;                        23P     20
100,0.,0.,0.,-7.25,8.87868929381831D-16,7.25,                         25P     21
-1.77573785876366D-15,0,0;                                            25P     22
110,0.,8.87868929381831D-16,-7.25,8.5,5.08994194359667D-16,           27P     23
-4.15625300873728,0,0;                                                27P     24
124,0.,-0.,1.,8.5,0.,1.,0.,0.,-1.,0.,0.,0.,0,0;                       29P     25
100,0.,0.,0.,-4.15625300873728,5.08994194359667D-16,                  31P     26
4.15625300873728,-1.01798838871933D-15,0,0;                           31P     27
110,0.,0.,7.25,8.5,0.,4.15625300873728,0,0;                           33P     28
124,0.,-0.,1.,8.5,0.,1.,0.,0.,-1.,0.,0.,0.,0,0;                       35P     29
100,0.,0.,0.,-4.,4.89858719658941D-16,4.,-9.79717439317882D-16,       37P     30
0,0;                                                                  37P     31
124,0.,-0.,1.,8.5,0.,1.,0.,0.,-1.,0.,0.,0.,0,0;                       39P     32
100,0.,0.,0.,4.,0.,-4.,4.89858719658941D-16,0,0;                      41P     33
124,0.,-0.,1.,8.5,0.,1.,0.,0.,-1.,0.,0.,0.,0,0;                       43P     34
100,0.,0.,0.,4.15625300873728,0.,-4.15625300873728,                   45P     35
5.08994194359667D-16,0,0;                                             45P     36
110,8.5,4.89858719658941D-16,4.,-11.5,4.89858719658941D-16,4.,0,      47P     37
0;                                                                    47P     38
110,8.5,0.,-4.,-11.5,0.,-4.,0,0;                                      49P     39
124,0.,-0.,1.,0.,0.,1.,0.,0.,-1.,0.,0.,0.,0,0;                        51P     40
100,0.,0.,0.,7.25,0.,-7.25,8.87868929381831D-16,0,0;                  53P     41
504,16,5,1,1,1,2,9,1,2,1,1,13,1,3,1,4,17,1,4,1,3,19,1,5,1,1,21,       55P     42
1,6,1,2,25,1,5,1,6,27,1,6,1,7,31,1,8,1,7,33,1,5,1,8,37,1,9,1,10,      55P     43
41,1,10,1,9,45,1,7,1,8,47,1,9,1,4,49,1,10,1,3,53,1,6,1,5,0,0;         55P     44
314,49.4117660522461,49.4117660522461,52.5490226745605,5HCOLOR,       57P     45
0,0;                                                                  57P     46
116,-11.5,0.,-5.625,0,0,0;                                            59P     47
123,1.,0.,0.,0,0,0;                                                   61P     48
123,0.,0.,-1.,0,0,0;                                                  63P     49
190,59,61,63,0,0;                                                     65P     50
508,2,0,55,2,1,0,0,55,1,1,0,0,0;                                      67P     51
508,2,0,55,4,0,0,0,55,3,0,0,0,0;                                      69P     52
510,65,2,1,67,69,0,0;                                                 71P     53
116,0.,0.,0.,0,0,0;                                                   73P     54
123,1.,-0.,0.,0,0,0;                                                  75P     55
123,0.,0.,-1.,0,0,0;                                                  77P     56
192,73,75,7.25,77,0,0;                                                79P     57
508,4,0,55,5,1,0,0,55,1,1,0,0,55,6,0,0,0,55,7,0,0,0,0;                81P     58
510,79,1,1,81,0,0;                                                    83P     59
116,0.,0.,0.,0,0,0;                                                   85P     60
123,-1.,0.,0.,0,0,0;                                                  87P     61
123,0.,0.,1.,0,0,0;                                                   89P     62
194,85,87,7.25,20.,89,0,0;                                            91P     63
508,4,0,55,8,1,0,0,55,9,0,0,0,55,10,0,0,0,55,7,1,0,0,0;               93P     64
510,91,1,1,93,0,0;                                                    95P     65
116,8.5,0.,-4.07812650436864,0,0,0;                                   97P     66
123,-1.,0.,0.,0,0,0;                                                  99P     67
123,0.,0.,1.,0,0,0;                                                  101P     68
190,97,99,101,0,0;                                                   103P     69
508,2,0,55,12,1,0,0,55,11,1,0,0,0;                                   105P     70
508,2,0,55,9,0,0,0,55,13,0,0,0,0;                                    107P     71
510,103,2,1,107,105,0,0;                                             109P     72
116,0.,0.,0.,0,0,0;                                                  111P     73
123,1.,-0.,0.,0,0,0;                                                 113P     74
123,0.,0.,-1.,0,0,0;                                                 115P     75
192,111,113,4.,115,0,0;                                              117P     76
508,4,0,55,4,1,0,0,55,15,0,0,0,55,11,0,0,0,55,14,1,0,0,0;            119P     77
510,117,1,1,119,0,0;                                                 121P     78
116,0.,0.,0.,0,0,0;                                                  123P     79
123,1.,-0.,0.,0,0,0;                                                 125P     80
123,0.,0.,-1.,0,0,0;                                                 127P     81
192,123,125,7.25,127,0,0;                                            129P     82
508,4,0,55,5,0,0,0,55,16,0,0,0,55,6,1,0,0,55,2,1,0,0,0;              131P     83
510,129,1,1,131,0,0;                                                 133P     84
116,0.,0.,0.,0,0,0;                                                  135P     85
123,-1.,0.,0.,0,0,0;                                                 137P     86
123,0.,0.,1.,0,0,0;                                                  139P     87
194,135,137,7.25,20.,139,0,0;                                        141P     88
508,4,0,55,8,0,0,0,55,16,1,0,0,55,10,1,0,0,55,13,0,0,0,0;            143P     89
510,141,1,1,143,0,0;                                                 145P     90
116,0.,0.,0.,0,0,0;                                                  147P     91
123,1.,-0.,0.,0,0,0;                                                 149P     92
123,0.,0.,-1.,0,0,0;                                                 151P     93
192,147,149,4.,151,0,0;                                              153P     94
508,4,0,55,12,0,0,0,55,15,1,0,0,55,3,1,0,0,55,14,0,0,0,0;            155P     95
510,153,1,1,155,0,0;                                                 157P     96
514,8,71,0,83,1,95,1,109,0,121,0,133,1,145,1,157,0,0,0;              159P     97
186,159,1,0;0,0;                                                     161P     98
S      3G      6D    162P     98                                        T      1
