                                                                        S      1
File generated by Shapr3D Version 3.0                                   S      2
                                                                        S      3
1H,,1H;,118HC:\Users\jonat\AppData\Local\Packages\Shapr3D.Shapr3D_dvv5p1G      1
vgwv6mp\TempState\d4ba474b-9fd7-4949-b459-7df5fafa2f17.tmp,11Htemp_exporG      2
t,7HShapr3D,3H3.0,32,24,8,56,15,118HC:\Users\jonat\AppData\Local\PackageG      3
s\Shapr3D.Shapr3D_dvv5p1vgwv6mp\TempState\d4ba474b-9fd7-4949-b459-7df5faG      4
fa2f17.tmp,1.,2,2HMM,1000,1.,13H221207.160514,1D-05,1000000.,,,9,0,13H22G      5
1207.160514;                                                            G      6
     502       1       1       0   65535       0       0       000010001D      1
     502    1000       0       5       1                  Washer       0D      2
     110       6       1       0       0       0       0       000010000D      3
     110    1000       0       2       0                               0D      4
     124       8       1       0       0       0       0       001010000D      5
     124    1000       0       2       0                               0D      6
     100      10       1       0       0       0       5       000010000D      7
     100    1000       0       1       0                               0D      8
     110      11       1       0       0       0       0       000010000D      9
     110    1000       0       2       0                               0D     10
     124      13       1       0       0       0       0       001010000D     11
     124    1000       0       2       0                               0D     12
     100      15       1       0       0       0      11       000010000D     13
     100    1000       0       1       0                               0D     14
     110      16       1       0       0       0       0       000010000D     15
     110    1000       0       2       0                               0D     16
     124      18       1       0       0       0       0       001010000D     17
     124    1000       0       2       0                               0D     18
     100      20       1       0       0       0      17       000010000D     19
     100    1000       0       2       0                               0D     20
     110      22       1       0       0       0       0       000010000D     21
     110    1000       0       1       0                               0D     22
     124      23       1       0       0       0       0       001010000D     23
     124    1000       0       2       0                               0D     24
     100      25       1       0       0       0      23       000010000D     25
     100    1000       0       2       0                               0D     26
     124      27       1       0       0       0       0       001010000D     27
     124    1000       0       2       0                               0D     28
     100      29       1       0       0       0      27       000010000D     29
     100    1000       0       2       0                               0D     30
     124      31       1       0       0       0       0       001010000D     31
     124    1000       0       2       0                               0D     32
     100      33       1       0       0       0      31       000010000D     33
     100    1000       0       1       0                               0D     34
     124      34       1       0       0       0       0       001010000D     35
     124    1000       0       2       0                               0D     36
     100      36       1       0       0       0      35       000010000D     37
     100    1000       0       2       0                               0D     38
     124      38       1       0       0       0       0       001010000D     39
     124    1000       0       2       0                               0D     40
     100      40       1       0       0       0      39       000010000D     41
     100    1000       0       1       0                               0D     42
     504      41       1       0   65535       0       0       000010001D     43
     504    1000       0       3       1                  Washer       0D     44
     314      44       1       0       0       0       0       000020000D     45
     314    1000       0       2       0                               0D     46
     116      46       1       0       0       0       0       000010200D     47
     116    1000       0       1       0                               0D     48
     123      47       1       0       0       0       0       000010200D     49
     123    1000       0       1       0                               0D     50
     123      48       1       0       0       0       0       000010200D     51
     123    1000       0       1       0                               0D     52
     192      49       1       0       0       0       0       000010000D     53
     192    1000     -45       1       1                               0D     54
     508      50       1       0       0       0       0       000010001D     55
     508    1000       0       1       1                               0D     56
     510      51       1       1       0       0       0       000010001D     57
     510    1000     -45       1       1                               0D     58
     116      52       1       0       0       0       0       000010200D     59
     116    1000       0       1       0                               0D     60
     123      53       1       0       0       0       0       000010200D     61
     123    1000       0       1       0                               0D     62
     123      54       1       0       0       0       0       000010200D     63
     123    1000       0       1       0                               0D     64
     192      55       1       0       0       0       0       000010000D     65
     192    1000     -45       1       1                               0D     66
     508      56       1       0       0       0       0       000010001D     67
     508    1000       0       1       1                               0D     68
     510      57       1       1       0       0       0       000010001D     69
     510    1000     -45       1       1                               0D     70
     116      58       1       0       0       0       0       000010200D     71
     116    1000       0       1       0                               0D     72
     123      59       1       0       0       0       0       000010200D     73
     123    1000       0       1       0                               0D     74
     123      60       1       0       0       0       0       000010200D     75
     123    1000       0       1       0                               0D     76
     190      61       1       0       0       0       0       000010000D     77
     190    1000     -45       1       1                               0D     78
     508      62       1       0       0       0       0       000010001D     79
     508    1000       0       1       1                               0D     80
     508      63       1       0       0       0       0       000010001D     81
     508    1000       0       1       1                               0D     82
     510      64       1       1       0       0       0       000010001D     83
     510    1000     -45       1       1                               0D     84
     116      65       1       0       0       0       0       000010200D     85
     116    1000       0       1       0                               0D     86
     123      66       1       0       0       0       0       000010200D     87
     123    1000       0       1       0                               0D     88
     123      67       1       0       0       0       0       000010200D     89
     123    1000       0       1       0                               0D     90
     190      68       1       0       0       0       0       000010000D     91
     190    1000     -45       1       1                               0D     92
     508      69       1       0       0       0       0       000010001D     93
     508    1000       0       1       1                               0D     94
     508      70       1       0       0       0       0       000010001D     95
     508    1000       0       1       1                               0D     96
     510      71       1       1       0       0       0       000010001D     97
     510    1000     -45       1       1                               0D     98
     116      72       1       0       0       0       0       000010200D     99
     116    1000       0       1       0                               0D    100
     123      73       1       0       0       0       0       000010200D    101
     123    1000       0       1       0                               0D    102
     123      74       1       0       0       0       0       000010200D    103
     123    1000       0       1       0                               0D    104
     192      75       1       0       0       0       0       000010000D    105
     192    1000     -45       1       1                               0D    106
     508      76       1       0       0       0       0       000010001D    107
     508    1000       0       1       1                               0D    108
     510      77       1       1       0       0       0       000010001D    109
     510    1000     -45       1       1                               0D    110
     116      78       1       0       0       0       0       000010200D    111
     116    1000       0       1       0                               0D    112
     123      79       1       0       0       0       0       000010200D    113
     123    1000       0       1       0                               0D    114
     123      80       1       0       0       0       0       000010200D    115
     123    1000       0       1       0                               0D    116
     192      81       1       0       0       0       0       000010000D    117
     192    1000     -45       1       1                               0D    118
     508      82       1       0       0       0       0       000010001D    119
     508    1000       0       1       1                               0D    120
     510      83       1       1       0       0       0       000010001D    121
     510    1000     -45       1       1                               0D    122
     514      84       1       0       0       0       0       000010000D    123
     514    1000       0       1       1                               0D    124
     186      85       1       0   65535       0       0       000000001D    125
     186    1000       0       1       0                  Washer       0D    126
502,8,-11.7,7.34788079488412D-16,4.,-13.2,7.34788079488412D-16,        1P      1
4.,-11.7,-2.44929359829471D-16,-4.,-13.2,-2.44929359829471D-16,        1P      2
-4.,-11.7,-4.83735485663205D-16,7.9,-13.2,-4.83735485663205D-16,       1P      3
7.9,-13.2,9.67470971326409D-16,-7.9,-11.7,9.67470971326409D-16,        1P      4
-7.9,0,0;                                                              1P      5
110,-11.7,7.34788079488412D-16,4.,-13.2,7.34788079488412D-16,4.,       3P      6
0,0;                                                                   3P      7
124,0.,0.,1.,-11.7,0.,-1.,0.,2.44929359829471D-16,1.,0.,-0.,0.,        5P      8
0,0;                                                                   5P      9
100,0.,0.,0.,4.,0.,-4.,4.89858719658941D-16,0,0;                       7P     10
110,-11.7,2.44929359829471D-16,-4.,-13.2,2.44929359829471D-16,         9P     11
-4.,0,0;                                                               9P     12
124,0.,0.,1.,-13.2,0.,-1.,0.,2.44929359829471D-16,1.,0.,-0.,0.,       11P     13
0,0;                                                                  11P     14
100,0.,0.,0.,4.,0.,-4.,4.89858719658941D-16,0,0;                      13P     15
110,-11.7,9.67470971326409D-16,7.9,-13.2,9.67470971326409D-16,        15P     16
7.9,0,0;                                                              15P     17
124,0.,0.,-1.,-13.2,0.,1.,0.,0.,1.,-0.,0.,4.83735485663205D-16,       17P     18
0,0;                                                                  17P     19
100,0.,0.,0.,-7.9,9.67470971326409D-16,7.9,                           19P     20
-1.93494194265282D-15,0,0;                                            19P     21
110,-11.7,0.,-7.9,-13.2,0.,-7.9,0,0;                                  21P     22
124,0.,0.,-1.,-11.7,0.,1.,0.,0.,1.,-0.,0.,4.83735485663205D-16,       23P     23
0,0;                                                                  23P     24
100,0.,0.,0.,-7.9,9.67470971326409D-16,7.9,                           25P     25
-1.93494194265282D-15,0,0;                                            25P     26
124,0.,0.,1.,-13.2,0.,-1.,0.,2.44929359829471D-16,1.,0.,-0.,0.,       27P     27
0,0;                                                                  27P     28
100,0.,0.,0.,-4.,4.89858719658941D-16,4.,-9.79717439317883D-16,       29P     29
0,0;                                                                  29P     30
124,0.,0.,-1.,-13.2,0.,1.,0.,0.,1.,-0.,0.,4.83735485663205D-16,       31P     31
0,0;                                                                  31P     32
100,0.,0.,0.,7.9,0.,-7.9,9.67470971326409D-16,0,0;                    33P     33
124,0.,0.,1.,-11.7,0.,-1.,0.,2.44929359829471D-16,1.,0.,-0.,0.,       35P     34
0,0;                                                                  35P     35
100,0.,0.,0.,-4.,4.89858719658941D-16,4.,-9.79717439317883D-16,       37P     36
0,0;                                                                  37P     37
124,0.,0.,-1.,-11.7,0.,1.,0.,0.,1.,-0.,0.,4.83735485663205D-16,       39P     38
0,0;                                                                  39P     39
100,0.,0.,0.,7.9,0.,-7.9,9.67470971326409D-16,0,0;                    41P     40
504,12,3,1,1,1,2,7,1,1,1,3,9,1,3,1,4,13,1,2,1,4,15,1,5,1,6,19,1,      43P     41
7,1,6,21,1,8,1,7,25,1,8,1,5,29,1,4,1,2,33,1,6,1,7,37,1,3,1,1,41,      43P     42
1,5,1,8,0,0;                                                          43P     43
314,49.4117660522461,49.4117660522461,52.5490226745605,5HCOLOR,       45P     44
0,0;                                                                  45P     45
116,-13.2,2.44929359829471D-16,0.,0,0,0;                              47P     46
123,1.,-0.,0.,0,0,0;                                                  49P     47
123,0.,0.,-1.,0,0,0;                                                  51P     48
192,47,49,4.,51,0,0;                                                  53P     49
508,4,0,43,4,1,0,0,43,3,0,0,0,43,2,0,0,0,43,1,1,0,0,0;                55P     50
510,53,1,1,55,0,0;                                                    57P     51
116,-13.2,0.,4.83735485663205D-16,0,0,0;                              59P     52
123,1.,-0.,0.,0,0,0;                                                  61P     53
123,0.,0.,-1.,0,0,0;                                                  63P     54
192,59,61,7.9,63,0,0;                                                 65P     55
508,4,0,43,5,1,0,0,43,6,0,0,0,43,7,0,0,0,43,8,1,0,0,0;                67P     56
510,65,1,1,67,0,0;                                                    69P     57
116,-13.2,0.,0.,0,0,0;                                                71P     58
123,-1.,0.,0.,0,0,0;                                                  73P     59
123,0.,-1.,0.,0,0,0;                                                  75P     60
190,71,73,75,0,0;                                                     77P     61
508,2,0,43,4,1,0,0,43,9,1,0,0,0;                                      79P     62
508,2,0,43,10,1,0,0,43,6,1,0,0,0;                                     81P     63
510,77,2,1,81,79,0,0;                                                 83P     64
116,-11.7,0.,0.,0,0,0;                                                85P     65
123,-1.,0.,0.,0,0,0;                                                  87P     66
123,0.,-1.,0.,0,0,0;                                                  89P     67
190,85,87,89,0,0;                                                     91P     68
508,2,0,43,2,1,0,0,43,11,1,0,0,0;                                     93P     69
508,2,0,43,12,1,0,0,43,8,1,0,0,0;                                     95P     70
510,91,2,1,95,93,0,0;                                                 97P     71
116,-13.2,2.44929359829471D-16,0.,0,0,0;                              99P     72
123,1.,-0.,0.,0,0,0;                                                 101P     73
123,0.,0.,-1.,0,0,0;                                                 103P     74
192,99,101,4.,103,0,0;                                               105P     75
508,4,0,43,11,0,0,0,43,3,1,0,0,43,9,1,0,0,43,1,0,0,0,0;              107P     76
510,105,1,1,107,0,0;                                                 109P     77
116,-13.2,0.,4.83735485663205D-16,0,0,0;                             111P     78
123,1.,-0.,0.,0,0,0;                                                 113P     79
123,0.,0.,-1.,0,0,0;                                                 115P     80
192,111,113,7.9,115,0,0;                                             117P     81
508,4,0,43,5,0,0,0,43,12,1,0,0,43,7,1,0,0,43,10,0,0,0,0;             119P     82
510,117,1,1,119,0,0;                                                 121P     83
514,6,57,0,69,1,83,1,97,0,109,0,121,1,0,0;                           123P     84
186,123,1,0;0,0;                                                     125P     85
S      3G      6D    126P     85                                        T      1
